G75*
%MOIN*%
%OFA0B0*%
%FSLAX25Y25*%
%IPPOS*%
%LPD*%
%AMOC8*
5,1,8,0,0,1.08239X$1,22.5*
%
%ADD10C,0.05524*%
%ADD11OC8,0.06000*%
%ADD12C,0.06000*%
%ADD13OC8,0.07100*%
%ADD14R,0.02178X0.05524*%
%ADD15C,0.06000*%
%ADD16C,0.06800*%
%ADD17C,0.13800*%
%ADD18OC8,0.06800*%
%ADD19C,0.08600*%
%ADD20C,0.08674*%
%ADD21C,0.08400*%
D10*
X0166175Y0041800D03*
X0289300Y0018050D03*
X0164925Y0186175D03*
X0288675Y0197425D03*
D11*
X0264300Y0180550D03*
X0234300Y0180550D03*
X0234300Y0160550D03*
X0233050Y0140550D03*
X0233050Y0120550D03*
X0263050Y0120550D03*
X0263050Y0140550D03*
X0264300Y0160550D03*
X0264300Y0095550D03*
X0264300Y0075550D03*
X0234300Y0075550D03*
X0234300Y0095550D03*
X0234300Y0055550D03*
X0234300Y0035550D03*
X0264300Y0035550D03*
X0264300Y0055550D03*
X0148050Y0069050D03*
X0138925Y0056175D03*
X0116800Y0085550D03*
X0116800Y0115550D03*
X0130300Y0129925D03*
X0130300Y0151175D03*
D12*
X0138300Y0151175D03*
X0138300Y0129925D03*
X0148050Y0077050D03*
X0130925Y0056175D03*
D13*
X0128050Y0074300D03*
X0108050Y0074300D03*
X0129300Y0036175D03*
X0149300Y0036175D03*
X0185550Y0035550D03*
X0205550Y0035550D03*
X0221175Y0035550D03*
X0221175Y0055550D03*
X0205550Y0055550D03*
X0185550Y0055550D03*
X0185550Y0075550D03*
X0205550Y0075550D03*
X0220550Y0075550D03*
X0220550Y0095550D03*
X0205550Y0095550D03*
X0185550Y0095550D03*
X0186175Y0120550D03*
X0206175Y0120550D03*
X0221800Y0120550D03*
X0221800Y0140550D03*
X0206175Y0140550D03*
X0186175Y0140550D03*
X0185550Y0160550D03*
X0205550Y0160550D03*
X0220550Y0160550D03*
X0220550Y0180550D03*
X0205550Y0180550D03*
X0185550Y0180550D03*
X0116800Y0156175D03*
X0116800Y0136175D03*
D14*
X0127666Y0117263D03*
X0130225Y0117263D03*
X0132784Y0117263D03*
X0135343Y0117263D03*
X0137902Y0117263D03*
X0140461Y0117263D03*
X0143020Y0117263D03*
X0145580Y0117263D03*
X0148139Y0117263D03*
X0150698Y0117263D03*
X0153257Y0117263D03*
X0155816Y0117263D03*
X0158375Y0117263D03*
X0160934Y0117263D03*
X0160934Y0093837D03*
X0158375Y0093837D03*
X0155816Y0093837D03*
X0153257Y0093837D03*
X0150698Y0093837D03*
X0148139Y0093837D03*
X0145580Y0093837D03*
X0143020Y0093837D03*
X0140461Y0093837D03*
X0137902Y0093837D03*
X0135343Y0093837D03*
X0132784Y0093837D03*
X0130225Y0093837D03*
X0127666Y0093837D03*
D15*
X0106175Y0091275D02*
X0106175Y0086075D01*
X0096175Y0086075D02*
X0096175Y0091275D01*
X0086175Y0091275D02*
X0086175Y0086075D01*
X0076175Y0086075D02*
X0076175Y0091275D01*
X0066175Y0091275D02*
X0066175Y0086075D01*
X0056175Y0086075D02*
X0056175Y0091275D01*
X0046175Y0091275D02*
X0046175Y0086075D01*
X0046175Y0116075D02*
X0046175Y0121275D01*
X0056175Y0121275D02*
X0056175Y0116075D01*
X0066175Y0116075D02*
X0066175Y0121275D01*
X0076175Y0121275D02*
X0076175Y0116075D01*
X0086175Y0116075D02*
X0086175Y0121275D01*
X0096175Y0121275D02*
X0096175Y0116075D01*
X0106175Y0116075D02*
X0106175Y0121275D01*
D16*
X0113175Y0056175D02*
X0119175Y0056175D01*
X0119175Y0046175D02*
X0113175Y0046175D01*
X0113175Y0036175D02*
X0119175Y0036175D01*
D17*
X0057175Y0046175D03*
D18*
X0026800Y0078050D03*
X0016800Y0078050D03*
X0016800Y0088050D03*
X0026800Y0088050D03*
X0026800Y0098050D03*
X0016800Y0098050D03*
X0016800Y0108050D03*
X0026800Y0108050D03*
X0026800Y0118050D03*
X0016800Y0118050D03*
X0016800Y0128050D03*
X0026800Y0128050D03*
D19*
X0292900Y0120325D02*
X0300700Y0120325D01*
X0300700Y0140125D02*
X0292900Y0140125D01*
X0292900Y0159725D02*
X0300700Y0159725D01*
X0300700Y0179525D02*
X0292900Y0179525D01*
X0292900Y0095775D02*
X0300700Y0095775D01*
X0300700Y0075975D02*
X0292900Y0075975D01*
X0292900Y0056375D02*
X0300700Y0056375D01*
X0300700Y0036575D02*
X0292900Y0036575D01*
D20*
X0040112Y0158345D02*
X0032238Y0158345D01*
X0017277Y0166613D02*
X0017277Y0174487D01*
X0032238Y0182361D02*
X0040112Y0182361D01*
D21*
X0061800Y0198050D03*
X0061800Y0158050D03*
M02*
