%
M48
M72
T01C0.03200
T02C0.03937
T03C0.04000
T04C0.04400
T05C0.04724
T06C0.05200
T07C0.13000
%
T01
X108050Y74300
X116800Y85550
X106175Y88675
X96175Y88675
X86175Y88675
X76175Y88675
X66175Y88675
X56175Y88675
X46175Y88675
X46175Y118675
X56175Y118675
X66175Y118675
X76175Y118675
X86175Y118675
X96175Y118675
X106175Y118675
X116800Y115550
X130300Y129925
X138300Y129925
X116800Y136175
X130300Y151175
X138300Y151175
X116800Y156175
X185550Y160550
X205550Y160550
X220550Y160550
X234300Y160550
X233050Y140550
X221800Y140550
X206175Y140550
X186175Y140550
X186175Y120550
X206175Y120550
X221800Y120550
X233050Y120550
X263050Y120550
X263050Y140550
X264300Y160550
X264300Y180550
X234300Y180550
X220550Y180550
X205550Y180550
X185550Y180550
X185550Y95550
X205550Y95550
X220550Y95550
X234300Y95550
X234300Y75550
X220550Y75550
X205550Y75550
X185550Y75550
X185550Y55550
X205550Y55550
X221175Y55550
X234300Y55550
X234300Y35550
X221175Y35550
X205550Y35550
X185550Y35550
X149300Y36175
X129300Y36175
X130925Y56175
X138925Y56175
X148050Y69050
X148050Y77050
X128050Y74300
X264300Y75550
X264300Y95550
X264300Y55550
X264300Y35550
T02
X36175Y158345
X17277Y170550
X36175Y182361
T03
X26800Y128050
X16800Y128050
X16800Y118050
X26800Y118050
X26800Y108050
X16800Y108050
X16800Y98050
X26800Y98050
X26800Y88050
X16800Y88050
X16800Y78050
X26800Y78050
X116175Y56175
X116175Y46175
X116175Y36175
T04
X61800Y158050
X61800Y198050
T05
X164925Y186175
X288675Y197425
X166175Y41800
X289300Y18050
T06
X296800Y36575
X296800Y56375
X296800Y75975
X296800Y95775
X296800Y120325
X296800Y140125
X296800Y159725
X296800Y179525
T07
X57175Y46175
M30
