G75*
%MOIN*%
%OFA0B0*%
%FSLAX25Y25*%
%IPPOS*%
%LPD*%
%AMOC8*
5,1,8,0,0,1.08239X$1,22.5*
%
%ADD10C,0.00400*%
%ADD11C,0.00600*%
%ADD12C,0.00500*%
%ADD13C,0.01200*%
%ADD14C,0.00800*%
%ADD15C,0.00200*%
%ADD16R,0.03500X0.05000*%
%ADD17C,0.00700*%
%ADD18R,0.01500X0.02000*%
%ADD19R,0.02000X0.01500*%
%ADD20R,0.04500X0.09000*%
%ADD21R,0.10000X0.02000*%
%ADD22R,0.03000X0.07500*%
D10*
X0066472Y0030043D02*
X0067640Y0028875D01*
X0069975Y0028875D01*
X0068224Y0028875D02*
X0068224Y0031210D01*
X0067640Y0031210D02*
X0069975Y0031210D01*
X0069975Y0032466D02*
X0069975Y0034801D01*
X0069975Y0033634D02*
X0066472Y0033634D01*
X0067640Y0032466D01*
X0067640Y0031210D02*
X0066472Y0030043D01*
X0066472Y0036057D02*
X0068224Y0036057D01*
X0067640Y0037225D01*
X0067640Y0037809D01*
X0068224Y0038392D01*
X0069391Y0038392D01*
X0069975Y0037809D01*
X0069975Y0036641D01*
X0069391Y0036057D01*
X0066472Y0036057D02*
X0066472Y0038392D01*
X0069391Y0040232D02*
X0069975Y0040232D01*
X0069975Y0040816D01*
X0069391Y0040816D01*
X0069391Y0040232D01*
X0069975Y0040816D02*
X0071143Y0039648D01*
X0069975Y0042042D02*
X0067640Y0044378D01*
X0067056Y0044378D01*
X0066472Y0043794D01*
X0066472Y0042626D01*
X0067056Y0042042D01*
X0069975Y0042042D02*
X0069975Y0044378D01*
X0069975Y0045633D02*
X0067640Y0045633D01*
X0067640Y0046217D01*
X0068224Y0046801D01*
X0067640Y0047385D01*
X0068224Y0047969D01*
X0069975Y0047969D01*
X0069975Y0046801D02*
X0068224Y0046801D01*
X0067640Y0049224D02*
X0067640Y0049808D01*
X0068224Y0050392D01*
X0067640Y0050976D01*
X0068224Y0051560D01*
X0069975Y0051560D01*
X0069975Y0050392D02*
X0068224Y0050392D01*
X0067640Y0049224D02*
X0069975Y0049224D01*
X0164842Y0101646D02*
X0164842Y0103181D01*
X0164842Y0102413D02*
X0169445Y0102413D01*
X0169445Y0101646D02*
X0169445Y0103181D01*
X0168678Y0104715D02*
X0169445Y0105483D01*
X0169445Y0107017D01*
X0168678Y0107785D01*
X0168678Y0109319D02*
X0169445Y0110087D01*
X0169445Y0111621D01*
X0168678Y0112389D01*
X0167911Y0112389D01*
X0167144Y0111621D01*
X0167144Y0110854D01*
X0167144Y0111621D02*
X0166376Y0112389D01*
X0165609Y0112389D01*
X0164842Y0111621D01*
X0164842Y0110087D01*
X0165609Y0109319D01*
X0165609Y0107785D02*
X0164842Y0107017D01*
X0164842Y0105483D01*
X0165609Y0104715D01*
X0168678Y0104715D01*
X0308871Y0102742D02*
X0308871Y0099673D01*
X0311173Y0099673D01*
X0310406Y0101208D01*
X0310406Y0101975D01*
X0311173Y0102742D01*
X0312708Y0102742D01*
X0313475Y0101975D01*
X0313475Y0100441D01*
X0312708Y0099673D01*
X0313475Y0098139D02*
X0308871Y0098139D01*
X0308871Y0095069D02*
X0313475Y0098139D01*
X0313475Y0095069D02*
X0308871Y0095069D01*
X0308871Y0093535D02*
X0308871Y0092000D01*
X0308871Y0092767D02*
X0313475Y0092767D01*
X0313475Y0092000D02*
X0313475Y0093535D01*
X0311173Y0081492D02*
X0311173Y0078423D01*
X0308871Y0080725D01*
X0313475Y0080725D01*
X0313475Y0076889D02*
X0308871Y0076889D01*
X0308871Y0073819D02*
X0313475Y0076889D01*
X0313475Y0073819D02*
X0308871Y0073819D01*
X0308871Y0072285D02*
X0308871Y0070750D01*
X0308871Y0071517D02*
X0313475Y0071517D01*
X0313475Y0070750D02*
X0313475Y0072285D01*
X0313475Y0063367D02*
X0313475Y0060298D01*
X0313475Y0058764D02*
X0308871Y0058764D01*
X0310406Y0060298D02*
X0308871Y0061833D01*
X0313475Y0061833D01*
X0313475Y0058764D02*
X0308871Y0055694D01*
X0313475Y0055694D01*
X0313475Y0054160D02*
X0313475Y0052625D01*
X0313475Y0053392D02*
X0308871Y0053392D01*
X0308871Y0052625D02*
X0308871Y0054160D01*
X0309638Y0041492D02*
X0312708Y0038423D01*
X0313475Y0039191D01*
X0313475Y0040725D01*
X0312708Y0041492D01*
X0309638Y0041492D01*
X0308871Y0040725D01*
X0308871Y0039191D01*
X0309638Y0038423D01*
X0312708Y0038423D01*
X0313475Y0036889D02*
X0308871Y0036889D01*
X0308871Y0033819D02*
X0313475Y0036889D01*
X0313475Y0033819D02*
X0308871Y0033819D01*
X0308871Y0032285D02*
X0308871Y0030750D01*
X0308871Y0031517D02*
X0313475Y0031517D01*
X0313475Y0030750D02*
X0313475Y0032285D01*
X0313475Y0115750D02*
X0313475Y0117285D01*
X0313475Y0116517D02*
X0308871Y0116517D01*
X0308871Y0115750D02*
X0308871Y0117285D01*
X0308871Y0118819D02*
X0313475Y0121889D01*
X0308871Y0121889D01*
X0311173Y0123423D02*
X0311173Y0125725D01*
X0311940Y0126492D01*
X0312708Y0126492D01*
X0313475Y0125725D01*
X0313475Y0124191D01*
X0312708Y0123423D01*
X0311173Y0123423D01*
X0309638Y0124958D01*
X0308871Y0126492D01*
X0308871Y0118819D02*
X0313475Y0118819D01*
X0313475Y0135750D02*
X0313475Y0137285D01*
X0313475Y0136517D02*
X0308871Y0136517D01*
X0308871Y0135750D02*
X0308871Y0137285D01*
X0308871Y0138819D02*
X0313475Y0141889D01*
X0308871Y0141889D01*
X0308871Y0143423D02*
X0308871Y0146492D01*
X0309638Y0146492D01*
X0312708Y0143423D01*
X0313475Y0143423D01*
X0313475Y0138819D02*
X0308871Y0138819D01*
X0308871Y0154500D02*
X0308871Y0156035D01*
X0308871Y0155267D02*
X0313475Y0155267D01*
X0313475Y0154500D02*
X0313475Y0156035D01*
X0313475Y0157569D02*
X0308871Y0157569D01*
X0313475Y0160639D01*
X0308871Y0160639D01*
X0309638Y0162173D02*
X0308871Y0162941D01*
X0308871Y0164475D01*
X0309638Y0165242D01*
X0310406Y0165242D01*
X0313475Y0162173D01*
X0313475Y0165242D01*
X0313475Y0175125D02*
X0313475Y0176660D01*
X0313475Y0175892D02*
X0308871Y0175892D01*
X0308871Y0175125D02*
X0308871Y0176660D01*
X0308871Y0178194D02*
X0313475Y0181264D01*
X0308871Y0181264D01*
X0309638Y0182798D02*
X0308871Y0183566D01*
X0308871Y0185100D01*
X0309638Y0185867D01*
X0310406Y0185867D01*
X0311173Y0185100D01*
X0311940Y0185867D01*
X0312708Y0185867D01*
X0313475Y0185100D01*
X0313475Y0183566D01*
X0312708Y0182798D01*
X0311173Y0184333D02*
X0311173Y0185100D01*
X0313475Y0178194D02*
X0308871Y0178194D01*
X0015350Y0196059D02*
X0015350Y0196827D01*
X0014583Y0197594D01*
X0010746Y0197594D01*
X0010746Y0196827D02*
X0010746Y0198361D01*
X0012281Y0199896D02*
X0010746Y0201431D01*
X0015350Y0201431D01*
X0015350Y0202965D02*
X0015350Y0199896D01*
X0015350Y0196059D02*
X0014583Y0195292D01*
D11*
X0043675Y0025675D02*
X0051175Y0025675D01*
X0051175Y0029175D01*
X0057175Y0029175D01*
X0057175Y0025675D01*
X0106175Y0025675D01*
X0106175Y0066675D01*
X0057175Y0066675D01*
X0057175Y0063175D01*
X0051175Y0063175D01*
X0051175Y0066675D01*
X0043675Y0066675D01*
X0043675Y0025675D01*
X0050075Y0046175D02*
X0050077Y0046349D01*
X0050084Y0046523D01*
X0050094Y0046697D01*
X0050109Y0046871D01*
X0050128Y0047044D01*
X0050152Y0047217D01*
X0050180Y0047389D01*
X0050211Y0047560D01*
X0050248Y0047731D01*
X0050288Y0047900D01*
X0050332Y0048069D01*
X0050381Y0048236D01*
X0050433Y0048402D01*
X0050490Y0048567D01*
X0050551Y0048730D01*
X0050615Y0048892D01*
X0050684Y0049052D01*
X0050757Y0049211D01*
X0050833Y0049367D01*
X0050913Y0049522D01*
X0050997Y0049675D01*
X0051085Y0049825D01*
X0051177Y0049973D01*
X0051272Y0050120D01*
X0051370Y0050263D01*
X0051472Y0050404D01*
X0051578Y0050543D01*
X0051687Y0050679D01*
X0051799Y0050813D01*
X0051914Y0050943D01*
X0052033Y0051071D01*
X0052155Y0051195D01*
X0052279Y0051317D01*
X0052407Y0051436D01*
X0052537Y0051551D01*
X0052671Y0051663D01*
X0052807Y0051772D01*
X0052946Y0051878D01*
X0053087Y0051980D01*
X0053230Y0052078D01*
X0053377Y0052173D01*
X0053525Y0052265D01*
X0053675Y0052353D01*
X0053828Y0052437D01*
X0053983Y0052517D01*
X0054139Y0052593D01*
X0054298Y0052666D01*
X0054458Y0052735D01*
X0054620Y0052799D01*
X0054783Y0052860D01*
X0054948Y0052917D01*
X0055114Y0052969D01*
X0055281Y0053018D01*
X0055450Y0053062D01*
X0055619Y0053102D01*
X0055790Y0053139D01*
X0055961Y0053170D01*
X0056133Y0053198D01*
X0056306Y0053222D01*
X0056479Y0053241D01*
X0056653Y0053256D01*
X0056827Y0053266D01*
X0057001Y0053273D01*
X0057175Y0053275D01*
X0057349Y0053273D01*
X0057523Y0053266D01*
X0057697Y0053256D01*
X0057871Y0053241D01*
X0058044Y0053222D01*
X0058217Y0053198D01*
X0058389Y0053170D01*
X0058560Y0053139D01*
X0058731Y0053102D01*
X0058900Y0053062D01*
X0059069Y0053018D01*
X0059236Y0052969D01*
X0059402Y0052917D01*
X0059567Y0052860D01*
X0059730Y0052799D01*
X0059892Y0052735D01*
X0060052Y0052666D01*
X0060211Y0052593D01*
X0060367Y0052517D01*
X0060522Y0052437D01*
X0060675Y0052353D01*
X0060825Y0052265D01*
X0060973Y0052173D01*
X0061120Y0052078D01*
X0061263Y0051980D01*
X0061404Y0051878D01*
X0061543Y0051772D01*
X0061679Y0051663D01*
X0061813Y0051551D01*
X0061943Y0051436D01*
X0062071Y0051317D01*
X0062195Y0051195D01*
X0062317Y0051071D01*
X0062436Y0050943D01*
X0062551Y0050813D01*
X0062663Y0050679D01*
X0062772Y0050543D01*
X0062878Y0050404D01*
X0062980Y0050263D01*
X0063078Y0050120D01*
X0063173Y0049973D01*
X0063265Y0049825D01*
X0063353Y0049675D01*
X0063437Y0049522D01*
X0063517Y0049367D01*
X0063593Y0049211D01*
X0063666Y0049052D01*
X0063735Y0048892D01*
X0063799Y0048730D01*
X0063860Y0048567D01*
X0063917Y0048402D01*
X0063969Y0048236D01*
X0064018Y0048069D01*
X0064062Y0047900D01*
X0064102Y0047731D01*
X0064139Y0047560D01*
X0064170Y0047389D01*
X0064198Y0047217D01*
X0064222Y0047044D01*
X0064241Y0046871D01*
X0064256Y0046697D01*
X0064266Y0046523D01*
X0064273Y0046349D01*
X0064275Y0046175D01*
X0064273Y0046001D01*
X0064266Y0045827D01*
X0064256Y0045653D01*
X0064241Y0045479D01*
X0064222Y0045306D01*
X0064198Y0045133D01*
X0064170Y0044961D01*
X0064139Y0044790D01*
X0064102Y0044619D01*
X0064062Y0044450D01*
X0064018Y0044281D01*
X0063969Y0044114D01*
X0063917Y0043948D01*
X0063860Y0043783D01*
X0063799Y0043620D01*
X0063735Y0043458D01*
X0063666Y0043298D01*
X0063593Y0043139D01*
X0063517Y0042983D01*
X0063437Y0042828D01*
X0063353Y0042675D01*
X0063265Y0042525D01*
X0063173Y0042377D01*
X0063078Y0042230D01*
X0062980Y0042087D01*
X0062878Y0041946D01*
X0062772Y0041807D01*
X0062663Y0041671D01*
X0062551Y0041537D01*
X0062436Y0041407D01*
X0062317Y0041279D01*
X0062195Y0041155D01*
X0062071Y0041033D01*
X0061943Y0040914D01*
X0061813Y0040799D01*
X0061679Y0040687D01*
X0061543Y0040578D01*
X0061404Y0040472D01*
X0061263Y0040370D01*
X0061120Y0040272D01*
X0060973Y0040177D01*
X0060825Y0040085D01*
X0060675Y0039997D01*
X0060522Y0039913D01*
X0060367Y0039833D01*
X0060211Y0039757D01*
X0060052Y0039684D01*
X0059892Y0039615D01*
X0059730Y0039551D01*
X0059567Y0039490D01*
X0059402Y0039433D01*
X0059236Y0039381D01*
X0059069Y0039332D01*
X0058900Y0039288D01*
X0058731Y0039248D01*
X0058560Y0039211D01*
X0058389Y0039180D01*
X0058217Y0039152D01*
X0058044Y0039128D01*
X0057871Y0039109D01*
X0057697Y0039094D01*
X0057523Y0039084D01*
X0057349Y0039077D01*
X0057175Y0039075D01*
X0057001Y0039077D01*
X0056827Y0039084D01*
X0056653Y0039094D01*
X0056479Y0039109D01*
X0056306Y0039128D01*
X0056133Y0039152D01*
X0055961Y0039180D01*
X0055790Y0039211D01*
X0055619Y0039248D01*
X0055450Y0039288D01*
X0055281Y0039332D01*
X0055114Y0039381D01*
X0054948Y0039433D01*
X0054783Y0039490D01*
X0054620Y0039551D01*
X0054458Y0039615D01*
X0054298Y0039684D01*
X0054139Y0039757D01*
X0053983Y0039833D01*
X0053828Y0039913D01*
X0053675Y0039997D01*
X0053525Y0040085D01*
X0053377Y0040177D01*
X0053230Y0040272D01*
X0053087Y0040370D01*
X0052946Y0040472D01*
X0052807Y0040578D01*
X0052671Y0040687D01*
X0052537Y0040799D01*
X0052407Y0040914D01*
X0052279Y0041033D01*
X0052155Y0041155D01*
X0052033Y0041279D01*
X0051914Y0041407D01*
X0051799Y0041537D01*
X0051687Y0041671D01*
X0051578Y0041807D01*
X0051472Y0041946D01*
X0051370Y0042087D01*
X0051272Y0042230D01*
X0051177Y0042377D01*
X0051085Y0042525D01*
X0050997Y0042675D01*
X0050913Y0042828D01*
X0050833Y0042983D01*
X0050757Y0043139D01*
X0050684Y0043298D01*
X0050615Y0043458D01*
X0050551Y0043620D01*
X0050490Y0043783D01*
X0050433Y0043948D01*
X0050381Y0044114D01*
X0050332Y0044281D01*
X0050288Y0044450D01*
X0050248Y0044619D01*
X0050211Y0044790D01*
X0050180Y0044961D01*
X0050152Y0045133D01*
X0050128Y0045306D01*
X0050109Y0045479D01*
X0050094Y0045653D01*
X0050084Y0045827D01*
X0050077Y0046001D01*
X0050075Y0046175D01*
X0029300Y0073050D02*
X0014300Y0073050D01*
X0011800Y0075550D01*
X0011800Y0080550D01*
X0014300Y0083050D01*
X0029300Y0083050D01*
X0031800Y0080550D01*
X0031800Y0075550D01*
X0029300Y0073050D01*
X0029300Y0083050D02*
X0031800Y0085550D01*
X0031800Y0090550D01*
X0029300Y0093050D01*
X0014300Y0093050D01*
X0011800Y0090550D01*
X0011800Y0085550D01*
X0014300Y0083050D01*
X0014300Y0093050D02*
X0011800Y0095550D01*
X0011800Y0100550D01*
X0014300Y0103050D01*
X0029300Y0103050D01*
X0031800Y0100550D01*
X0031800Y0095550D01*
X0029300Y0093050D01*
X0041175Y0092175D02*
X0041175Y0115175D01*
X0111175Y0115175D01*
X0111175Y0107675D01*
X0112800Y0108050D02*
X0112800Y0109550D01*
X0112802Y0109610D01*
X0112807Y0109671D01*
X0112816Y0109730D01*
X0112829Y0109789D01*
X0112845Y0109848D01*
X0112865Y0109905D01*
X0112888Y0109960D01*
X0112915Y0110015D01*
X0112944Y0110067D01*
X0112977Y0110118D01*
X0113013Y0110167D01*
X0113051Y0110213D01*
X0113093Y0110257D01*
X0113137Y0110299D01*
X0113183Y0110337D01*
X0113232Y0110373D01*
X0113283Y0110406D01*
X0113335Y0110435D01*
X0113390Y0110462D01*
X0113445Y0110485D01*
X0113502Y0110505D01*
X0113561Y0110521D01*
X0113620Y0110534D01*
X0113679Y0110543D01*
X0113740Y0110548D01*
X0113800Y0110550D01*
X0119800Y0110550D01*
X0119860Y0110548D01*
X0119921Y0110543D01*
X0119980Y0110534D01*
X0120039Y0110521D01*
X0120098Y0110505D01*
X0120155Y0110485D01*
X0120210Y0110462D01*
X0120265Y0110435D01*
X0120317Y0110406D01*
X0120368Y0110373D01*
X0120417Y0110337D01*
X0120463Y0110299D01*
X0120507Y0110257D01*
X0120549Y0110213D01*
X0120587Y0110167D01*
X0120623Y0110118D01*
X0120656Y0110067D01*
X0120685Y0110015D01*
X0120712Y0109960D01*
X0120735Y0109905D01*
X0120755Y0109848D01*
X0120771Y0109789D01*
X0120784Y0109730D01*
X0120793Y0109671D01*
X0120798Y0109610D01*
X0120800Y0109550D01*
X0120800Y0108050D01*
X0120300Y0107550D01*
X0120300Y0093550D01*
X0120800Y0093050D01*
X0120800Y0091550D01*
X0120798Y0091490D01*
X0120793Y0091429D01*
X0120784Y0091370D01*
X0120771Y0091311D01*
X0120755Y0091252D01*
X0120735Y0091195D01*
X0120712Y0091140D01*
X0120685Y0091085D01*
X0120656Y0091033D01*
X0120623Y0090982D01*
X0120587Y0090933D01*
X0120549Y0090887D01*
X0120507Y0090843D01*
X0120463Y0090801D01*
X0120417Y0090763D01*
X0120368Y0090727D01*
X0120317Y0090694D01*
X0120265Y0090665D01*
X0120210Y0090638D01*
X0120155Y0090615D01*
X0120098Y0090595D01*
X0120039Y0090579D01*
X0119980Y0090566D01*
X0119921Y0090557D01*
X0119860Y0090552D01*
X0119800Y0090550D01*
X0113800Y0090550D01*
X0113740Y0090552D01*
X0113679Y0090557D01*
X0113620Y0090566D01*
X0113561Y0090579D01*
X0113502Y0090595D01*
X0113445Y0090615D01*
X0113390Y0090638D01*
X0113335Y0090665D01*
X0113283Y0090694D01*
X0113232Y0090727D01*
X0113183Y0090763D01*
X0113137Y0090801D01*
X0113093Y0090843D01*
X0113051Y0090887D01*
X0113013Y0090933D01*
X0112977Y0090982D01*
X0112944Y0091033D01*
X0112915Y0091085D01*
X0112888Y0091140D01*
X0112865Y0091195D01*
X0112845Y0091252D01*
X0112829Y0091311D01*
X0112816Y0091370D01*
X0112807Y0091429D01*
X0112802Y0091490D01*
X0112800Y0091550D01*
X0112800Y0093050D01*
X0113300Y0093550D01*
X0113300Y0107550D01*
X0112800Y0108050D01*
X0111175Y0107675D02*
X0111049Y0107673D01*
X0110924Y0107667D01*
X0110799Y0107657D01*
X0110674Y0107643D01*
X0110549Y0107626D01*
X0110425Y0107604D01*
X0110302Y0107579D01*
X0110180Y0107549D01*
X0110059Y0107516D01*
X0109939Y0107479D01*
X0109820Y0107439D01*
X0109703Y0107394D01*
X0109586Y0107346D01*
X0109472Y0107294D01*
X0109359Y0107239D01*
X0109248Y0107180D01*
X0109139Y0107118D01*
X0109032Y0107052D01*
X0108927Y0106983D01*
X0108824Y0106911D01*
X0108723Y0106836D01*
X0108625Y0106757D01*
X0108530Y0106675D01*
X0108437Y0106591D01*
X0108347Y0106503D01*
X0108259Y0106413D01*
X0108175Y0106320D01*
X0108093Y0106225D01*
X0108014Y0106127D01*
X0107939Y0106026D01*
X0107867Y0105923D01*
X0107798Y0105818D01*
X0107732Y0105711D01*
X0107670Y0105602D01*
X0107611Y0105491D01*
X0107556Y0105378D01*
X0107504Y0105264D01*
X0107456Y0105147D01*
X0107411Y0105030D01*
X0107371Y0104911D01*
X0107334Y0104791D01*
X0107301Y0104670D01*
X0107271Y0104548D01*
X0107246Y0104425D01*
X0107224Y0104301D01*
X0107207Y0104176D01*
X0107193Y0104051D01*
X0107183Y0103926D01*
X0107177Y0103801D01*
X0107175Y0103675D01*
X0107177Y0103549D01*
X0107183Y0103424D01*
X0107193Y0103299D01*
X0107207Y0103174D01*
X0107224Y0103049D01*
X0107246Y0102925D01*
X0107271Y0102802D01*
X0107301Y0102680D01*
X0107334Y0102559D01*
X0107371Y0102439D01*
X0107411Y0102320D01*
X0107456Y0102203D01*
X0107504Y0102086D01*
X0107556Y0101972D01*
X0107611Y0101859D01*
X0107670Y0101748D01*
X0107732Y0101639D01*
X0107798Y0101532D01*
X0107867Y0101427D01*
X0107939Y0101324D01*
X0108014Y0101223D01*
X0108093Y0101125D01*
X0108175Y0101030D01*
X0108259Y0100937D01*
X0108347Y0100847D01*
X0108437Y0100759D01*
X0108530Y0100675D01*
X0108625Y0100593D01*
X0108723Y0100514D01*
X0108824Y0100439D01*
X0108927Y0100367D01*
X0109032Y0100298D01*
X0109139Y0100232D01*
X0109248Y0100170D01*
X0109359Y0100111D01*
X0109472Y0100056D01*
X0109586Y0100004D01*
X0109703Y0099956D01*
X0109820Y0099911D01*
X0109939Y0099871D01*
X0110059Y0099834D01*
X0110180Y0099801D01*
X0110302Y0099771D01*
X0110425Y0099746D01*
X0110549Y0099724D01*
X0110674Y0099707D01*
X0110799Y0099693D01*
X0110924Y0099683D01*
X0111049Y0099677D01*
X0111175Y0099675D01*
X0111175Y0092175D01*
X0041175Y0092175D01*
X0029300Y0103050D02*
X0031800Y0105550D01*
X0031800Y0110550D01*
X0029300Y0113050D01*
X0014300Y0113050D01*
X0011800Y0110550D01*
X0011800Y0105550D01*
X0014300Y0103050D01*
X0014300Y0113050D02*
X0011800Y0115550D01*
X0011800Y0120550D01*
X0014300Y0123050D01*
X0029300Y0123050D01*
X0031800Y0120550D01*
X0031800Y0115550D01*
X0029300Y0113050D01*
X0029300Y0123050D02*
X0031800Y0125550D01*
X0031800Y0130550D01*
X0029300Y0133050D01*
X0014300Y0133050D01*
X0011800Y0130550D01*
X0011800Y0125550D01*
X0014300Y0123050D01*
X0056800Y0170050D02*
X0066800Y0170050D01*
X0066800Y0186050D01*
X0056800Y0186050D01*
X0056800Y0170050D01*
X0059300Y0174050D02*
X0061800Y0178050D01*
X0059300Y0178050D01*
X0061800Y0178050D02*
X0061800Y0180550D01*
X0061800Y0178050D02*
X0064300Y0178050D01*
X0061800Y0178050D02*
X0064300Y0174050D01*
X0059300Y0174050D01*
X0061800Y0172050D02*
X0061800Y0178050D01*
X0077100Y0179495D02*
X0079235Y0181630D01*
X0079235Y0175225D01*
X0077100Y0175225D02*
X0081370Y0175225D01*
X0083545Y0175225D02*
X0087816Y0179495D01*
X0087816Y0180563D01*
X0086748Y0181630D01*
X0084613Y0181630D01*
X0083545Y0180563D01*
X0083545Y0185725D02*
X0085681Y0185725D01*
X0084613Y0185725D02*
X0084613Y0189995D01*
X0083545Y0189995D01*
X0084613Y0192130D02*
X0084613Y0193198D01*
X0084613Y0196225D02*
X0086748Y0196225D01*
X0087816Y0197293D01*
X0089991Y0196225D02*
X0093194Y0196225D01*
X0094261Y0197293D01*
X0094261Y0198360D01*
X0093194Y0199428D01*
X0089991Y0199428D01*
X0087816Y0201563D02*
X0086748Y0202630D01*
X0084613Y0202630D01*
X0083545Y0201563D01*
X0083545Y0197293D01*
X0084613Y0196225D01*
X0089991Y0196225D02*
X0089991Y0202630D01*
X0093194Y0202630D01*
X0094261Y0201563D01*
X0094261Y0200495D01*
X0093194Y0199428D01*
X0102882Y0199428D02*
X0107152Y0199428D01*
X0107152Y0200495D02*
X0107152Y0196225D01*
X0109327Y0196225D02*
X0112530Y0196225D01*
X0113598Y0197293D01*
X0113598Y0201563D01*
X0112530Y0202630D01*
X0109327Y0202630D01*
X0109327Y0196225D01*
X0107152Y0200495D02*
X0105017Y0202630D01*
X0102882Y0200495D01*
X0102882Y0196225D01*
X0095356Y0191063D02*
X0095356Y0186793D01*
X0096423Y0185725D01*
X0098585Y0186793D02*
X0099653Y0185725D01*
X0101788Y0185725D01*
X0102855Y0186793D01*
X0102855Y0188928D01*
X0101788Y0189995D01*
X0099653Y0189995D01*
X0098585Y0188928D01*
X0098585Y0186793D01*
X0096423Y0189995D02*
X0094288Y0189995D01*
X0092113Y0189995D02*
X0088910Y0189995D01*
X0087842Y0188928D01*
X0087842Y0186793D01*
X0088910Y0185725D01*
X0092113Y0185725D01*
X0094281Y0181630D02*
X0093214Y0180563D01*
X0093214Y0176293D01*
X0097484Y0180563D01*
X0097484Y0176293D01*
X0096416Y0175225D01*
X0094281Y0175225D01*
X0093214Y0176293D01*
X0091059Y0176293D02*
X0091059Y0175225D01*
X0089991Y0175225D01*
X0089991Y0176293D01*
X0091059Y0176293D01*
X0087816Y0175225D02*
X0083545Y0175225D01*
X0094281Y0181630D02*
X0096416Y0181630D01*
X0097484Y0180563D01*
X0099659Y0180563D02*
X0100727Y0181630D01*
X0102862Y0181630D01*
X0103930Y0180563D01*
X0103930Y0179495D01*
X0102862Y0178428D01*
X0103930Y0177360D01*
X0103930Y0176293D01*
X0102862Y0175225D01*
X0100727Y0175225D01*
X0099659Y0176293D01*
X0101794Y0178428D02*
X0102862Y0178428D01*
X0106105Y0176293D02*
X0107172Y0176293D01*
X0107172Y0175225D01*
X0106105Y0175225D01*
X0106105Y0176293D01*
X0109327Y0175225D02*
X0113598Y0179495D01*
X0113598Y0180563D01*
X0112530Y0181630D01*
X0110395Y0181630D01*
X0109327Y0180563D01*
X0115773Y0180563D02*
X0115773Y0176293D01*
X0120043Y0180563D01*
X0120043Y0176293D01*
X0118976Y0175225D01*
X0116841Y0175225D01*
X0115773Y0176293D01*
X0113598Y0175225D02*
X0109327Y0175225D01*
X0115773Y0180563D02*
X0116841Y0181630D01*
X0118976Y0181630D01*
X0120043Y0180563D01*
X0122218Y0179495D02*
X0124354Y0181630D01*
X0124354Y0175225D01*
X0126489Y0175225D02*
X0122218Y0175225D01*
X0128664Y0175225D02*
X0128664Y0176293D01*
X0132934Y0180563D01*
X0132934Y0181630D01*
X0128664Y0181630D01*
X0129738Y0185725D02*
X0129738Y0189995D01*
X0132941Y0189995D01*
X0134009Y0188928D01*
X0134009Y0185725D01*
X0137251Y0186793D02*
X0138319Y0185725D01*
X0137251Y0186793D02*
X0137251Y0191063D01*
X0136184Y0189995D02*
X0138319Y0189995D01*
X0140481Y0188928D02*
X0140481Y0186793D01*
X0141548Y0185725D01*
X0143683Y0185725D01*
X0144751Y0186793D01*
X0144751Y0188928D01*
X0143683Y0189995D01*
X0141548Y0189995D01*
X0140481Y0188928D01*
X0146926Y0188928D02*
X0147994Y0187860D01*
X0150129Y0187860D01*
X0151197Y0186793D01*
X0150129Y0185725D01*
X0146926Y0185725D01*
X0146926Y0188928D02*
X0147994Y0189995D01*
X0151197Y0189995D01*
X0156581Y0196225D02*
X0158716Y0200495D01*
X0160891Y0200495D02*
X0163027Y0202630D01*
X0163027Y0196225D01*
X0165162Y0196225D02*
X0160891Y0196225D01*
X0156581Y0196225D02*
X0154446Y0200495D01*
X0145825Y0200495D02*
X0144758Y0199428D01*
X0142623Y0199428D01*
X0141555Y0200495D01*
X0141555Y0201563D01*
X0142623Y0202630D01*
X0144758Y0202630D01*
X0145825Y0201563D01*
X0145825Y0200495D01*
X0144758Y0199428D02*
X0145825Y0198360D01*
X0145825Y0197293D01*
X0144758Y0196225D01*
X0142623Y0196225D01*
X0141555Y0197293D01*
X0141555Y0198360D01*
X0142623Y0199428D01*
X0139380Y0199428D02*
X0135109Y0199428D01*
X0138312Y0202630D01*
X0138312Y0196225D01*
X0132934Y0196225D02*
X0128664Y0196225D01*
X0132934Y0200495D01*
X0132934Y0201563D01*
X0131867Y0202630D01*
X0129732Y0202630D01*
X0128664Y0201563D01*
X0124354Y0202630D02*
X0124354Y0196225D01*
X0126489Y0196225D02*
X0122218Y0196225D01*
X0120043Y0197293D02*
X0118976Y0196225D01*
X0116841Y0196225D01*
X0115773Y0197293D01*
X0116841Y0199428D02*
X0115773Y0200495D01*
X0115773Y0201563D01*
X0116841Y0202630D01*
X0118976Y0202630D01*
X0120043Y0201563D01*
X0118976Y0199428D02*
X0120043Y0198360D01*
X0120043Y0197293D01*
X0118976Y0199428D02*
X0116841Y0199428D01*
X0122218Y0200495D02*
X0124354Y0202630D01*
X0120050Y0192130D02*
X0117915Y0192130D01*
X0116847Y0191063D01*
X0116847Y0189995D01*
X0117915Y0188928D01*
X0120050Y0188928D01*
X0121118Y0187860D01*
X0121118Y0186793D01*
X0120050Y0185725D01*
X0117915Y0185725D01*
X0116847Y0186793D01*
X0121118Y0191063D02*
X0120050Y0192130D01*
X0124360Y0189995D02*
X0126495Y0189995D01*
X0127563Y0188928D01*
X0127563Y0185725D01*
X0124360Y0185725D01*
X0123293Y0186793D01*
X0124360Y0187860D01*
X0127563Y0187860D01*
X0108233Y0189995D02*
X0107166Y0189995D01*
X0105030Y0187860D01*
X0105030Y0185725D02*
X0105030Y0189995D01*
X0081370Y0187860D02*
X0081370Y0192130D01*
X0081370Y0187860D02*
X0079235Y0185725D01*
X0077100Y0187860D01*
X0077100Y0192130D01*
X0077100Y0196225D02*
X0077100Y0202630D01*
X0080303Y0202630D01*
X0081370Y0201563D01*
X0081370Y0199428D01*
X0080303Y0198360D01*
X0077100Y0198360D01*
X0111800Y0160675D02*
X0121800Y0160675D01*
X0121860Y0160673D01*
X0121921Y0160668D01*
X0121980Y0160659D01*
X0122039Y0160646D01*
X0122098Y0160630D01*
X0122155Y0160610D01*
X0122210Y0160587D01*
X0122265Y0160560D01*
X0122317Y0160531D01*
X0122368Y0160498D01*
X0122417Y0160462D01*
X0122463Y0160424D01*
X0122507Y0160382D01*
X0122549Y0160338D01*
X0122587Y0160292D01*
X0122623Y0160243D01*
X0122656Y0160192D01*
X0122685Y0160140D01*
X0122712Y0160085D01*
X0122735Y0160030D01*
X0122755Y0159973D01*
X0122771Y0159914D01*
X0122784Y0159855D01*
X0122793Y0159796D01*
X0122798Y0159735D01*
X0122800Y0159675D01*
X0122800Y0132675D01*
X0122798Y0132615D01*
X0122793Y0132554D01*
X0122784Y0132495D01*
X0122771Y0132436D01*
X0122755Y0132377D01*
X0122735Y0132320D01*
X0122712Y0132265D01*
X0122685Y0132210D01*
X0122656Y0132158D01*
X0122623Y0132107D01*
X0122587Y0132058D01*
X0122549Y0132012D01*
X0122507Y0131968D01*
X0122463Y0131926D01*
X0122417Y0131888D01*
X0122368Y0131852D01*
X0122317Y0131819D01*
X0122265Y0131790D01*
X0122210Y0131763D01*
X0122155Y0131740D01*
X0122098Y0131720D01*
X0122039Y0131704D01*
X0121980Y0131691D01*
X0121921Y0131682D01*
X0121860Y0131677D01*
X0121800Y0131675D01*
X0111800Y0131675D01*
X0111740Y0131677D01*
X0111679Y0131682D01*
X0111620Y0131691D01*
X0111561Y0131704D01*
X0111502Y0131720D01*
X0111445Y0131740D01*
X0111390Y0131763D01*
X0111335Y0131790D01*
X0111283Y0131819D01*
X0111232Y0131852D01*
X0111183Y0131888D01*
X0111137Y0131926D01*
X0111093Y0131968D01*
X0111051Y0132012D01*
X0111013Y0132058D01*
X0110977Y0132107D01*
X0110944Y0132158D01*
X0110915Y0132210D01*
X0110888Y0132265D01*
X0110865Y0132320D01*
X0110845Y0132377D01*
X0110829Y0132436D01*
X0110816Y0132495D01*
X0110807Y0132554D01*
X0110802Y0132615D01*
X0110800Y0132675D01*
X0110800Y0159675D01*
X0110802Y0159735D01*
X0110807Y0159796D01*
X0110816Y0159855D01*
X0110829Y0159914D01*
X0110845Y0159973D01*
X0110865Y0160030D01*
X0110888Y0160085D01*
X0110915Y0160140D01*
X0110944Y0160192D01*
X0110977Y0160243D01*
X0111013Y0160292D01*
X0111051Y0160338D01*
X0111093Y0160382D01*
X0111137Y0160424D01*
X0111183Y0160462D01*
X0111232Y0160498D01*
X0111283Y0160531D01*
X0111335Y0160560D01*
X0111390Y0160587D01*
X0111445Y0160610D01*
X0111502Y0160630D01*
X0111561Y0160646D01*
X0111620Y0160659D01*
X0111679Y0160668D01*
X0111740Y0160673D01*
X0111800Y0160675D01*
X0116800Y0152175D02*
X0116800Y0147375D01*
X0116800Y0144875D02*
X0116800Y0140175D01*
X0124300Y0129925D02*
X0124303Y0130170D01*
X0124312Y0130416D01*
X0124327Y0130661D01*
X0124348Y0130905D01*
X0124375Y0131149D01*
X0124408Y0131392D01*
X0124447Y0131635D01*
X0124492Y0131876D01*
X0124543Y0132116D01*
X0124600Y0132355D01*
X0124662Y0132592D01*
X0124731Y0132828D01*
X0124805Y0133062D01*
X0124885Y0133294D01*
X0124970Y0133524D01*
X0125061Y0133752D01*
X0125158Y0133977D01*
X0125260Y0134201D01*
X0125368Y0134421D01*
X0125481Y0134639D01*
X0125599Y0134854D01*
X0125723Y0135066D01*
X0125851Y0135275D01*
X0125985Y0135481D01*
X0126124Y0135683D01*
X0126268Y0135882D01*
X0126417Y0136077D01*
X0126570Y0136269D01*
X0126728Y0136457D01*
X0126890Y0136641D01*
X0127058Y0136820D01*
X0127229Y0136996D01*
X0127405Y0137167D01*
X0127584Y0137335D01*
X0127768Y0137497D01*
X0127956Y0137655D01*
X0128148Y0137808D01*
X0128343Y0137957D01*
X0128542Y0138101D01*
X0128744Y0138240D01*
X0128950Y0138374D01*
X0129159Y0138502D01*
X0129371Y0138626D01*
X0129586Y0138744D01*
X0129804Y0138857D01*
X0130024Y0138965D01*
X0130248Y0139067D01*
X0130473Y0139164D01*
X0130701Y0139255D01*
X0130931Y0139340D01*
X0131163Y0139420D01*
X0131397Y0139494D01*
X0131633Y0139563D01*
X0131870Y0139625D01*
X0132109Y0139682D01*
X0132349Y0139733D01*
X0132590Y0139778D01*
X0132833Y0139817D01*
X0133076Y0139850D01*
X0133320Y0139877D01*
X0133564Y0139898D01*
X0133809Y0139913D01*
X0134055Y0139922D01*
X0134300Y0139925D01*
X0134545Y0139922D01*
X0134791Y0139913D01*
X0135036Y0139898D01*
X0135280Y0139877D01*
X0135524Y0139850D01*
X0135767Y0139817D01*
X0136010Y0139778D01*
X0136251Y0139733D01*
X0136491Y0139682D01*
X0136730Y0139625D01*
X0136967Y0139563D01*
X0137203Y0139494D01*
X0137437Y0139420D01*
X0137669Y0139340D01*
X0137899Y0139255D01*
X0138127Y0139164D01*
X0138352Y0139067D01*
X0138576Y0138965D01*
X0138796Y0138857D01*
X0139014Y0138744D01*
X0139229Y0138626D01*
X0139441Y0138502D01*
X0139650Y0138374D01*
X0139856Y0138240D01*
X0140058Y0138101D01*
X0140257Y0137957D01*
X0140452Y0137808D01*
X0140644Y0137655D01*
X0140832Y0137497D01*
X0141016Y0137335D01*
X0141195Y0137167D01*
X0141371Y0136996D01*
X0141542Y0136820D01*
X0141710Y0136641D01*
X0141872Y0136457D01*
X0142030Y0136269D01*
X0142183Y0136077D01*
X0142332Y0135882D01*
X0142476Y0135683D01*
X0142615Y0135481D01*
X0142749Y0135275D01*
X0142877Y0135066D01*
X0143001Y0134854D01*
X0143119Y0134639D01*
X0143232Y0134421D01*
X0143340Y0134201D01*
X0143442Y0133977D01*
X0143539Y0133752D01*
X0143630Y0133524D01*
X0143715Y0133294D01*
X0143795Y0133062D01*
X0143869Y0132828D01*
X0143938Y0132592D01*
X0144000Y0132355D01*
X0144057Y0132116D01*
X0144108Y0131876D01*
X0144153Y0131635D01*
X0144192Y0131392D01*
X0144225Y0131149D01*
X0144252Y0130905D01*
X0144273Y0130661D01*
X0144288Y0130416D01*
X0144297Y0130170D01*
X0144300Y0129925D01*
X0144297Y0129680D01*
X0144288Y0129434D01*
X0144273Y0129189D01*
X0144252Y0128945D01*
X0144225Y0128701D01*
X0144192Y0128458D01*
X0144153Y0128215D01*
X0144108Y0127974D01*
X0144057Y0127734D01*
X0144000Y0127495D01*
X0143938Y0127258D01*
X0143869Y0127022D01*
X0143795Y0126788D01*
X0143715Y0126556D01*
X0143630Y0126326D01*
X0143539Y0126098D01*
X0143442Y0125873D01*
X0143340Y0125649D01*
X0143232Y0125429D01*
X0143119Y0125211D01*
X0143001Y0124996D01*
X0142877Y0124784D01*
X0142749Y0124575D01*
X0142615Y0124369D01*
X0142476Y0124167D01*
X0142332Y0123968D01*
X0142183Y0123773D01*
X0142030Y0123581D01*
X0141872Y0123393D01*
X0141710Y0123209D01*
X0141542Y0123030D01*
X0141371Y0122854D01*
X0141195Y0122683D01*
X0141016Y0122515D01*
X0140832Y0122353D01*
X0140644Y0122195D01*
X0140452Y0122042D01*
X0140257Y0121893D01*
X0140058Y0121749D01*
X0139856Y0121610D01*
X0139650Y0121476D01*
X0139441Y0121348D01*
X0139229Y0121224D01*
X0139014Y0121106D01*
X0138796Y0120993D01*
X0138576Y0120885D01*
X0138352Y0120783D01*
X0138127Y0120686D01*
X0137899Y0120595D01*
X0137669Y0120510D01*
X0137437Y0120430D01*
X0137203Y0120356D01*
X0136967Y0120287D01*
X0136730Y0120225D01*
X0136491Y0120168D01*
X0136251Y0120117D01*
X0136010Y0120072D01*
X0135767Y0120033D01*
X0135524Y0120000D01*
X0135280Y0119973D01*
X0135036Y0119952D01*
X0134791Y0119937D01*
X0134545Y0119928D01*
X0134300Y0119925D01*
X0134055Y0119928D01*
X0133809Y0119937D01*
X0133564Y0119952D01*
X0133320Y0119973D01*
X0133076Y0120000D01*
X0132833Y0120033D01*
X0132590Y0120072D01*
X0132349Y0120117D01*
X0132109Y0120168D01*
X0131870Y0120225D01*
X0131633Y0120287D01*
X0131397Y0120356D01*
X0131163Y0120430D01*
X0130931Y0120510D01*
X0130701Y0120595D01*
X0130473Y0120686D01*
X0130248Y0120783D01*
X0130024Y0120885D01*
X0129804Y0120993D01*
X0129586Y0121106D01*
X0129371Y0121224D01*
X0129159Y0121348D01*
X0128950Y0121476D01*
X0128744Y0121610D01*
X0128542Y0121749D01*
X0128343Y0121893D01*
X0128148Y0122042D01*
X0127956Y0122195D01*
X0127768Y0122353D01*
X0127584Y0122515D01*
X0127405Y0122683D01*
X0127229Y0122854D01*
X0127058Y0123030D01*
X0126890Y0123209D01*
X0126728Y0123393D01*
X0126570Y0123581D01*
X0126417Y0123773D01*
X0126268Y0123968D01*
X0126124Y0124167D01*
X0125985Y0124369D01*
X0125851Y0124575D01*
X0125723Y0124784D01*
X0125599Y0124996D01*
X0125481Y0125211D01*
X0125368Y0125429D01*
X0125260Y0125649D01*
X0125158Y0125873D01*
X0125061Y0126098D01*
X0124970Y0126326D01*
X0124885Y0126556D01*
X0124805Y0126788D01*
X0124731Y0127022D01*
X0124662Y0127258D01*
X0124600Y0127495D01*
X0124543Y0127734D01*
X0124492Y0127974D01*
X0124447Y0128215D01*
X0124408Y0128458D01*
X0124375Y0128701D01*
X0124348Y0128945D01*
X0124327Y0129189D01*
X0124312Y0129434D01*
X0124303Y0129680D01*
X0124300Y0129925D01*
X0137300Y0122925D02*
X0139300Y0122925D01*
X0138300Y0123925D02*
X0138300Y0121925D01*
X0138300Y0143175D02*
X0138300Y0145175D01*
X0139300Y0144175D02*
X0137300Y0144175D01*
X0124300Y0151175D02*
X0124303Y0151420D01*
X0124312Y0151666D01*
X0124327Y0151911D01*
X0124348Y0152155D01*
X0124375Y0152399D01*
X0124408Y0152642D01*
X0124447Y0152885D01*
X0124492Y0153126D01*
X0124543Y0153366D01*
X0124600Y0153605D01*
X0124662Y0153842D01*
X0124731Y0154078D01*
X0124805Y0154312D01*
X0124885Y0154544D01*
X0124970Y0154774D01*
X0125061Y0155002D01*
X0125158Y0155227D01*
X0125260Y0155451D01*
X0125368Y0155671D01*
X0125481Y0155889D01*
X0125599Y0156104D01*
X0125723Y0156316D01*
X0125851Y0156525D01*
X0125985Y0156731D01*
X0126124Y0156933D01*
X0126268Y0157132D01*
X0126417Y0157327D01*
X0126570Y0157519D01*
X0126728Y0157707D01*
X0126890Y0157891D01*
X0127058Y0158070D01*
X0127229Y0158246D01*
X0127405Y0158417D01*
X0127584Y0158585D01*
X0127768Y0158747D01*
X0127956Y0158905D01*
X0128148Y0159058D01*
X0128343Y0159207D01*
X0128542Y0159351D01*
X0128744Y0159490D01*
X0128950Y0159624D01*
X0129159Y0159752D01*
X0129371Y0159876D01*
X0129586Y0159994D01*
X0129804Y0160107D01*
X0130024Y0160215D01*
X0130248Y0160317D01*
X0130473Y0160414D01*
X0130701Y0160505D01*
X0130931Y0160590D01*
X0131163Y0160670D01*
X0131397Y0160744D01*
X0131633Y0160813D01*
X0131870Y0160875D01*
X0132109Y0160932D01*
X0132349Y0160983D01*
X0132590Y0161028D01*
X0132833Y0161067D01*
X0133076Y0161100D01*
X0133320Y0161127D01*
X0133564Y0161148D01*
X0133809Y0161163D01*
X0134055Y0161172D01*
X0134300Y0161175D01*
X0134545Y0161172D01*
X0134791Y0161163D01*
X0135036Y0161148D01*
X0135280Y0161127D01*
X0135524Y0161100D01*
X0135767Y0161067D01*
X0136010Y0161028D01*
X0136251Y0160983D01*
X0136491Y0160932D01*
X0136730Y0160875D01*
X0136967Y0160813D01*
X0137203Y0160744D01*
X0137437Y0160670D01*
X0137669Y0160590D01*
X0137899Y0160505D01*
X0138127Y0160414D01*
X0138352Y0160317D01*
X0138576Y0160215D01*
X0138796Y0160107D01*
X0139014Y0159994D01*
X0139229Y0159876D01*
X0139441Y0159752D01*
X0139650Y0159624D01*
X0139856Y0159490D01*
X0140058Y0159351D01*
X0140257Y0159207D01*
X0140452Y0159058D01*
X0140644Y0158905D01*
X0140832Y0158747D01*
X0141016Y0158585D01*
X0141195Y0158417D01*
X0141371Y0158246D01*
X0141542Y0158070D01*
X0141710Y0157891D01*
X0141872Y0157707D01*
X0142030Y0157519D01*
X0142183Y0157327D01*
X0142332Y0157132D01*
X0142476Y0156933D01*
X0142615Y0156731D01*
X0142749Y0156525D01*
X0142877Y0156316D01*
X0143001Y0156104D01*
X0143119Y0155889D01*
X0143232Y0155671D01*
X0143340Y0155451D01*
X0143442Y0155227D01*
X0143539Y0155002D01*
X0143630Y0154774D01*
X0143715Y0154544D01*
X0143795Y0154312D01*
X0143869Y0154078D01*
X0143938Y0153842D01*
X0144000Y0153605D01*
X0144057Y0153366D01*
X0144108Y0153126D01*
X0144153Y0152885D01*
X0144192Y0152642D01*
X0144225Y0152399D01*
X0144252Y0152155D01*
X0144273Y0151911D01*
X0144288Y0151666D01*
X0144297Y0151420D01*
X0144300Y0151175D01*
X0144297Y0150930D01*
X0144288Y0150684D01*
X0144273Y0150439D01*
X0144252Y0150195D01*
X0144225Y0149951D01*
X0144192Y0149708D01*
X0144153Y0149465D01*
X0144108Y0149224D01*
X0144057Y0148984D01*
X0144000Y0148745D01*
X0143938Y0148508D01*
X0143869Y0148272D01*
X0143795Y0148038D01*
X0143715Y0147806D01*
X0143630Y0147576D01*
X0143539Y0147348D01*
X0143442Y0147123D01*
X0143340Y0146899D01*
X0143232Y0146679D01*
X0143119Y0146461D01*
X0143001Y0146246D01*
X0142877Y0146034D01*
X0142749Y0145825D01*
X0142615Y0145619D01*
X0142476Y0145417D01*
X0142332Y0145218D01*
X0142183Y0145023D01*
X0142030Y0144831D01*
X0141872Y0144643D01*
X0141710Y0144459D01*
X0141542Y0144280D01*
X0141371Y0144104D01*
X0141195Y0143933D01*
X0141016Y0143765D01*
X0140832Y0143603D01*
X0140644Y0143445D01*
X0140452Y0143292D01*
X0140257Y0143143D01*
X0140058Y0142999D01*
X0139856Y0142860D01*
X0139650Y0142726D01*
X0139441Y0142598D01*
X0139229Y0142474D01*
X0139014Y0142356D01*
X0138796Y0142243D01*
X0138576Y0142135D01*
X0138352Y0142033D01*
X0138127Y0141936D01*
X0137899Y0141845D01*
X0137669Y0141760D01*
X0137437Y0141680D01*
X0137203Y0141606D01*
X0136967Y0141537D01*
X0136730Y0141475D01*
X0136491Y0141418D01*
X0136251Y0141367D01*
X0136010Y0141322D01*
X0135767Y0141283D01*
X0135524Y0141250D01*
X0135280Y0141223D01*
X0135036Y0141202D01*
X0134791Y0141187D01*
X0134545Y0141178D01*
X0134300Y0141175D01*
X0134055Y0141178D01*
X0133809Y0141187D01*
X0133564Y0141202D01*
X0133320Y0141223D01*
X0133076Y0141250D01*
X0132833Y0141283D01*
X0132590Y0141322D01*
X0132349Y0141367D01*
X0132109Y0141418D01*
X0131870Y0141475D01*
X0131633Y0141537D01*
X0131397Y0141606D01*
X0131163Y0141680D01*
X0130931Y0141760D01*
X0130701Y0141845D01*
X0130473Y0141936D01*
X0130248Y0142033D01*
X0130024Y0142135D01*
X0129804Y0142243D01*
X0129586Y0142356D01*
X0129371Y0142474D01*
X0129159Y0142598D01*
X0128950Y0142726D01*
X0128744Y0142860D01*
X0128542Y0142999D01*
X0128343Y0143143D01*
X0128148Y0143292D01*
X0127956Y0143445D01*
X0127768Y0143603D01*
X0127584Y0143765D01*
X0127405Y0143933D01*
X0127229Y0144104D01*
X0127058Y0144280D01*
X0126890Y0144459D01*
X0126728Y0144643D01*
X0126570Y0144831D01*
X0126417Y0145023D01*
X0126268Y0145218D01*
X0126124Y0145417D01*
X0125985Y0145619D01*
X0125851Y0145825D01*
X0125723Y0146034D01*
X0125599Y0146246D01*
X0125481Y0146461D01*
X0125368Y0146679D01*
X0125260Y0146899D01*
X0125158Y0147123D01*
X0125061Y0147348D01*
X0124970Y0147576D01*
X0124885Y0147806D01*
X0124805Y0148038D01*
X0124731Y0148272D01*
X0124662Y0148508D01*
X0124600Y0148745D01*
X0124543Y0148984D01*
X0124492Y0149224D01*
X0124447Y0149465D01*
X0124408Y0149708D01*
X0124375Y0149951D01*
X0124348Y0150195D01*
X0124327Y0150439D01*
X0124312Y0150684D01*
X0124303Y0150930D01*
X0124300Y0151175D01*
X0181050Y0156550D02*
X0181050Y0164550D01*
X0181052Y0164610D01*
X0181057Y0164671D01*
X0181066Y0164730D01*
X0181079Y0164789D01*
X0181095Y0164848D01*
X0181115Y0164905D01*
X0181138Y0164960D01*
X0181165Y0165015D01*
X0181194Y0165067D01*
X0181227Y0165118D01*
X0181263Y0165167D01*
X0181301Y0165213D01*
X0181343Y0165257D01*
X0181387Y0165299D01*
X0181433Y0165337D01*
X0181482Y0165373D01*
X0181533Y0165406D01*
X0181585Y0165435D01*
X0181640Y0165462D01*
X0181695Y0165485D01*
X0181752Y0165505D01*
X0181811Y0165521D01*
X0181870Y0165534D01*
X0181929Y0165543D01*
X0181990Y0165548D01*
X0182050Y0165550D01*
X0209050Y0165550D01*
X0209110Y0165548D01*
X0209171Y0165543D01*
X0209230Y0165534D01*
X0209289Y0165521D01*
X0209348Y0165505D01*
X0209405Y0165485D01*
X0209460Y0165462D01*
X0209515Y0165435D01*
X0209567Y0165406D01*
X0209618Y0165373D01*
X0209667Y0165337D01*
X0209713Y0165299D01*
X0209757Y0165257D01*
X0209799Y0165213D01*
X0209837Y0165167D01*
X0209873Y0165118D01*
X0209906Y0165067D01*
X0209935Y0165015D01*
X0209962Y0164960D01*
X0209985Y0164905D01*
X0210005Y0164848D01*
X0210021Y0164789D01*
X0210034Y0164730D01*
X0210043Y0164671D01*
X0210048Y0164610D01*
X0210050Y0164550D01*
X0210050Y0156550D01*
X0210048Y0156490D01*
X0210043Y0156429D01*
X0210034Y0156370D01*
X0210021Y0156311D01*
X0210005Y0156252D01*
X0209985Y0156195D01*
X0209962Y0156140D01*
X0209935Y0156085D01*
X0209906Y0156033D01*
X0209873Y0155982D01*
X0209837Y0155933D01*
X0209799Y0155887D01*
X0209757Y0155843D01*
X0209713Y0155801D01*
X0209667Y0155763D01*
X0209618Y0155727D01*
X0209567Y0155694D01*
X0209515Y0155665D01*
X0209460Y0155638D01*
X0209405Y0155615D01*
X0209348Y0155595D01*
X0209289Y0155579D01*
X0209230Y0155566D01*
X0209171Y0155557D01*
X0209110Y0155552D01*
X0209050Y0155550D01*
X0182050Y0155550D01*
X0181990Y0155552D01*
X0181929Y0155557D01*
X0181870Y0155566D01*
X0181811Y0155579D01*
X0181752Y0155595D01*
X0181695Y0155615D01*
X0181640Y0155638D01*
X0181585Y0155665D01*
X0181533Y0155694D01*
X0181482Y0155727D01*
X0181433Y0155763D01*
X0181387Y0155801D01*
X0181343Y0155843D01*
X0181301Y0155887D01*
X0181263Y0155933D01*
X0181227Y0155982D01*
X0181194Y0156033D01*
X0181165Y0156085D01*
X0181138Y0156140D01*
X0181115Y0156195D01*
X0181095Y0156252D01*
X0181079Y0156311D01*
X0181066Y0156370D01*
X0181057Y0156429D01*
X0181052Y0156490D01*
X0181050Y0156550D01*
X0189550Y0160550D02*
X0194250Y0160550D01*
X0196750Y0160550D02*
X0201550Y0160550D01*
X0215550Y0157050D02*
X0215550Y0184050D01*
X0215552Y0184110D01*
X0215557Y0184171D01*
X0215566Y0184230D01*
X0215579Y0184289D01*
X0215595Y0184348D01*
X0215615Y0184405D01*
X0215638Y0184460D01*
X0215665Y0184515D01*
X0215694Y0184567D01*
X0215727Y0184618D01*
X0215763Y0184667D01*
X0215801Y0184713D01*
X0215843Y0184757D01*
X0215887Y0184799D01*
X0215933Y0184837D01*
X0215982Y0184873D01*
X0216033Y0184906D01*
X0216085Y0184935D01*
X0216140Y0184962D01*
X0216195Y0184985D01*
X0216252Y0185005D01*
X0216311Y0185021D01*
X0216370Y0185034D01*
X0216429Y0185043D01*
X0216490Y0185048D01*
X0216550Y0185050D01*
X0224550Y0185050D01*
X0224610Y0185048D01*
X0224671Y0185043D01*
X0224730Y0185034D01*
X0224789Y0185021D01*
X0224848Y0185005D01*
X0224905Y0184985D01*
X0224960Y0184962D01*
X0225015Y0184935D01*
X0225067Y0184906D01*
X0225118Y0184873D01*
X0225167Y0184837D01*
X0225213Y0184799D01*
X0225257Y0184757D01*
X0225299Y0184713D01*
X0225337Y0184667D01*
X0225373Y0184618D01*
X0225406Y0184567D01*
X0225435Y0184515D01*
X0225462Y0184460D01*
X0225485Y0184405D01*
X0225505Y0184348D01*
X0225521Y0184289D01*
X0225534Y0184230D01*
X0225543Y0184171D01*
X0225548Y0184110D01*
X0225550Y0184050D01*
X0225550Y0157050D01*
X0225548Y0156990D01*
X0225543Y0156929D01*
X0225534Y0156870D01*
X0225521Y0156811D01*
X0225505Y0156752D01*
X0225485Y0156695D01*
X0225462Y0156640D01*
X0225435Y0156585D01*
X0225406Y0156533D01*
X0225373Y0156482D01*
X0225337Y0156433D01*
X0225299Y0156387D01*
X0225257Y0156343D01*
X0225213Y0156301D01*
X0225167Y0156263D01*
X0225118Y0156227D01*
X0225067Y0156194D01*
X0225015Y0156165D01*
X0224960Y0156138D01*
X0224905Y0156115D01*
X0224848Y0156095D01*
X0224789Y0156079D01*
X0224730Y0156066D01*
X0224671Y0156057D01*
X0224610Y0156052D01*
X0224550Y0156050D01*
X0216550Y0156050D01*
X0216490Y0156052D01*
X0216429Y0156057D01*
X0216370Y0156066D01*
X0216311Y0156079D01*
X0216252Y0156095D01*
X0216195Y0156115D01*
X0216140Y0156138D01*
X0216085Y0156165D01*
X0216033Y0156194D01*
X0215982Y0156227D01*
X0215933Y0156263D01*
X0215887Y0156301D01*
X0215843Y0156343D01*
X0215801Y0156387D01*
X0215763Y0156433D01*
X0215727Y0156482D01*
X0215694Y0156533D01*
X0215665Y0156585D01*
X0215638Y0156640D01*
X0215615Y0156695D01*
X0215595Y0156752D01*
X0215579Y0156811D01*
X0215566Y0156870D01*
X0215557Y0156929D01*
X0215552Y0156990D01*
X0215550Y0157050D01*
X0220550Y0164550D02*
X0220550Y0169250D01*
X0220550Y0171750D02*
X0220550Y0176550D01*
X0210050Y0176550D02*
X0210050Y0184550D01*
X0210048Y0184610D01*
X0210043Y0184671D01*
X0210034Y0184730D01*
X0210021Y0184789D01*
X0210005Y0184848D01*
X0209985Y0184905D01*
X0209962Y0184960D01*
X0209935Y0185015D01*
X0209906Y0185067D01*
X0209873Y0185118D01*
X0209837Y0185167D01*
X0209799Y0185213D01*
X0209757Y0185257D01*
X0209713Y0185299D01*
X0209667Y0185337D01*
X0209618Y0185373D01*
X0209567Y0185406D01*
X0209515Y0185435D01*
X0209460Y0185462D01*
X0209405Y0185485D01*
X0209348Y0185505D01*
X0209289Y0185521D01*
X0209230Y0185534D01*
X0209171Y0185543D01*
X0209110Y0185548D01*
X0209050Y0185550D01*
X0182050Y0185550D01*
X0181990Y0185548D01*
X0181929Y0185543D01*
X0181870Y0185534D01*
X0181811Y0185521D01*
X0181752Y0185505D01*
X0181695Y0185485D01*
X0181640Y0185462D01*
X0181585Y0185435D01*
X0181533Y0185406D01*
X0181482Y0185373D01*
X0181433Y0185337D01*
X0181387Y0185299D01*
X0181343Y0185257D01*
X0181301Y0185213D01*
X0181263Y0185167D01*
X0181227Y0185118D01*
X0181194Y0185067D01*
X0181165Y0185015D01*
X0181138Y0184960D01*
X0181115Y0184905D01*
X0181095Y0184848D01*
X0181079Y0184789D01*
X0181066Y0184730D01*
X0181057Y0184671D01*
X0181052Y0184610D01*
X0181050Y0184550D01*
X0181050Y0176550D01*
X0181052Y0176490D01*
X0181057Y0176429D01*
X0181066Y0176370D01*
X0181079Y0176311D01*
X0181095Y0176252D01*
X0181115Y0176195D01*
X0181138Y0176140D01*
X0181165Y0176085D01*
X0181194Y0176033D01*
X0181227Y0175982D01*
X0181263Y0175933D01*
X0181301Y0175887D01*
X0181343Y0175843D01*
X0181387Y0175801D01*
X0181433Y0175763D01*
X0181482Y0175727D01*
X0181533Y0175694D01*
X0181585Y0175665D01*
X0181640Y0175638D01*
X0181695Y0175615D01*
X0181752Y0175595D01*
X0181811Y0175579D01*
X0181870Y0175566D01*
X0181929Y0175557D01*
X0181990Y0175552D01*
X0182050Y0175550D01*
X0209050Y0175550D01*
X0209110Y0175552D01*
X0209171Y0175557D01*
X0209230Y0175566D01*
X0209289Y0175579D01*
X0209348Y0175595D01*
X0209405Y0175615D01*
X0209460Y0175638D01*
X0209515Y0175665D01*
X0209567Y0175694D01*
X0209618Y0175727D01*
X0209667Y0175763D01*
X0209713Y0175801D01*
X0209757Y0175843D01*
X0209799Y0175887D01*
X0209837Y0175933D01*
X0209873Y0175982D01*
X0209906Y0176033D01*
X0209935Y0176085D01*
X0209962Y0176140D01*
X0209985Y0176195D01*
X0210005Y0176252D01*
X0210021Y0176311D01*
X0210034Y0176370D01*
X0210043Y0176429D01*
X0210048Y0176490D01*
X0210050Y0176550D01*
X0201550Y0180550D02*
X0196850Y0180550D01*
X0194350Y0180550D02*
X0189550Y0180550D01*
X0239300Y0177550D02*
X0239300Y0183550D01*
X0239302Y0183610D01*
X0239307Y0183671D01*
X0239316Y0183730D01*
X0239329Y0183789D01*
X0239345Y0183848D01*
X0239365Y0183905D01*
X0239388Y0183960D01*
X0239415Y0184015D01*
X0239444Y0184067D01*
X0239477Y0184118D01*
X0239513Y0184167D01*
X0239551Y0184213D01*
X0239593Y0184257D01*
X0239637Y0184299D01*
X0239683Y0184337D01*
X0239732Y0184373D01*
X0239783Y0184406D01*
X0239835Y0184435D01*
X0239890Y0184462D01*
X0239945Y0184485D01*
X0240002Y0184505D01*
X0240061Y0184521D01*
X0240120Y0184534D01*
X0240179Y0184543D01*
X0240240Y0184548D01*
X0240300Y0184550D01*
X0241800Y0184550D01*
X0242300Y0184050D01*
X0256300Y0184050D01*
X0256800Y0184550D01*
X0258300Y0184550D01*
X0258360Y0184548D01*
X0258421Y0184543D01*
X0258480Y0184534D01*
X0258539Y0184521D01*
X0258598Y0184505D01*
X0258655Y0184485D01*
X0258710Y0184462D01*
X0258765Y0184435D01*
X0258817Y0184406D01*
X0258868Y0184373D01*
X0258917Y0184337D01*
X0258963Y0184299D01*
X0259007Y0184257D01*
X0259049Y0184213D01*
X0259087Y0184167D01*
X0259123Y0184118D01*
X0259156Y0184067D01*
X0259185Y0184015D01*
X0259212Y0183960D01*
X0259235Y0183905D01*
X0259255Y0183848D01*
X0259271Y0183789D01*
X0259284Y0183730D01*
X0259293Y0183671D01*
X0259298Y0183610D01*
X0259300Y0183550D01*
X0259300Y0177550D01*
X0259298Y0177490D01*
X0259293Y0177429D01*
X0259284Y0177370D01*
X0259271Y0177311D01*
X0259255Y0177252D01*
X0259235Y0177195D01*
X0259212Y0177140D01*
X0259185Y0177085D01*
X0259156Y0177033D01*
X0259123Y0176982D01*
X0259087Y0176933D01*
X0259049Y0176887D01*
X0259007Y0176843D01*
X0258963Y0176801D01*
X0258917Y0176763D01*
X0258868Y0176727D01*
X0258817Y0176694D01*
X0258765Y0176665D01*
X0258710Y0176638D01*
X0258655Y0176615D01*
X0258598Y0176595D01*
X0258539Y0176579D01*
X0258480Y0176566D01*
X0258421Y0176557D01*
X0258360Y0176552D01*
X0258300Y0176550D01*
X0256800Y0176550D01*
X0256300Y0177050D01*
X0242300Y0177050D01*
X0241800Y0176550D01*
X0240300Y0176550D01*
X0240240Y0176552D01*
X0240179Y0176557D01*
X0240120Y0176566D01*
X0240061Y0176579D01*
X0240002Y0176595D01*
X0239945Y0176615D01*
X0239890Y0176638D01*
X0239835Y0176665D01*
X0239783Y0176694D01*
X0239732Y0176727D01*
X0239683Y0176763D01*
X0239637Y0176801D01*
X0239593Y0176843D01*
X0239551Y0176887D01*
X0239513Y0176933D01*
X0239477Y0176982D01*
X0239444Y0177033D01*
X0239415Y0177085D01*
X0239388Y0177140D01*
X0239365Y0177195D01*
X0239345Y0177252D01*
X0239329Y0177311D01*
X0239316Y0177370D01*
X0239307Y0177429D01*
X0239302Y0177490D01*
X0239300Y0177550D01*
X0240300Y0164550D02*
X0241800Y0164550D01*
X0242300Y0164050D01*
X0256300Y0164050D01*
X0256800Y0164550D01*
X0258300Y0164550D01*
X0258360Y0164548D01*
X0258421Y0164543D01*
X0258480Y0164534D01*
X0258539Y0164521D01*
X0258598Y0164505D01*
X0258655Y0164485D01*
X0258710Y0164462D01*
X0258765Y0164435D01*
X0258817Y0164406D01*
X0258868Y0164373D01*
X0258917Y0164337D01*
X0258963Y0164299D01*
X0259007Y0164257D01*
X0259049Y0164213D01*
X0259087Y0164167D01*
X0259123Y0164118D01*
X0259156Y0164067D01*
X0259185Y0164015D01*
X0259212Y0163960D01*
X0259235Y0163905D01*
X0259255Y0163848D01*
X0259271Y0163789D01*
X0259284Y0163730D01*
X0259293Y0163671D01*
X0259298Y0163610D01*
X0259300Y0163550D01*
X0259300Y0157550D01*
X0259298Y0157490D01*
X0259293Y0157429D01*
X0259284Y0157370D01*
X0259271Y0157311D01*
X0259255Y0157252D01*
X0259235Y0157195D01*
X0259212Y0157140D01*
X0259185Y0157085D01*
X0259156Y0157033D01*
X0259123Y0156982D01*
X0259087Y0156933D01*
X0259049Y0156887D01*
X0259007Y0156843D01*
X0258963Y0156801D01*
X0258917Y0156763D01*
X0258868Y0156727D01*
X0258817Y0156694D01*
X0258765Y0156665D01*
X0258710Y0156638D01*
X0258655Y0156615D01*
X0258598Y0156595D01*
X0258539Y0156579D01*
X0258480Y0156566D01*
X0258421Y0156557D01*
X0258360Y0156552D01*
X0258300Y0156550D01*
X0256800Y0156550D01*
X0256300Y0157050D01*
X0242300Y0157050D01*
X0241800Y0156550D01*
X0240300Y0156550D01*
X0240240Y0156552D01*
X0240179Y0156557D01*
X0240120Y0156566D01*
X0240061Y0156579D01*
X0240002Y0156595D01*
X0239945Y0156615D01*
X0239890Y0156638D01*
X0239835Y0156665D01*
X0239783Y0156694D01*
X0239732Y0156727D01*
X0239683Y0156763D01*
X0239637Y0156801D01*
X0239593Y0156843D01*
X0239551Y0156887D01*
X0239513Y0156933D01*
X0239477Y0156982D01*
X0239444Y0157033D01*
X0239415Y0157085D01*
X0239388Y0157140D01*
X0239365Y0157195D01*
X0239345Y0157252D01*
X0239329Y0157311D01*
X0239316Y0157370D01*
X0239307Y0157429D01*
X0239302Y0157490D01*
X0239300Y0157550D01*
X0239300Y0163550D01*
X0239302Y0163610D01*
X0239307Y0163671D01*
X0239316Y0163730D01*
X0239329Y0163789D01*
X0239345Y0163848D01*
X0239365Y0163905D01*
X0239388Y0163960D01*
X0239415Y0164015D01*
X0239444Y0164067D01*
X0239477Y0164118D01*
X0239513Y0164167D01*
X0239551Y0164213D01*
X0239593Y0164257D01*
X0239637Y0164299D01*
X0239683Y0164337D01*
X0239732Y0164373D01*
X0239783Y0164406D01*
X0239835Y0164435D01*
X0239890Y0164462D01*
X0239945Y0164485D01*
X0240002Y0164505D01*
X0240061Y0164521D01*
X0240120Y0164534D01*
X0240179Y0164543D01*
X0240240Y0164548D01*
X0240300Y0164550D01*
X0267800Y0166625D02*
X0267800Y0160625D01*
X0268300Y0160625D01*
X0268300Y0166625D01*
X0267800Y0166625D01*
X0268300Y0166625D02*
X0268300Y0172725D01*
X0268300Y0178725D01*
X0267800Y0178725D01*
X0267800Y0172725D01*
X0268300Y0172725D01*
X0268300Y0178725D02*
X0268300Y0180725D01*
X0267800Y0180725D01*
X0267800Y0186725D01*
X0268300Y0186725D01*
X0268300Y0180725D01*
X0268300Y0186725D02*
X0268300Y0189625D01*
X0281800Y0189625D01*
X0283300Y0189625D01*
X0307800Y0189625D01*
X0307800Y0110225D01*
X0307800Y0108725D01*
X0283300Y0108725D01*
X0283300Y0110225D01*
X0281800Y0110225D01*
X0268300Y0110225D01*
X0268300Y0113525D01*
X0268300Y0119525D01*
X0268300Y0121525D01*
X0268300Y0127525D01*
X0268300Y0133325D01*
X0268300Y0139325D01*
X0267800Y0139325D01*
X0267800Y0133325D01*
X0268300Y0133325D01*
X0268300Y0127525D02*
X0267800Y0127525D01*
X0267800Y0121525D01*
X0268300Y0121525D01*
X0268300Y0119525D02*
X0267800Y0119525D01*
X0267800Y0113525D01*
X0268300Y0113525D01*
X0268300Y0105875D02*
X0268300Y0102975D01*
X0268300Y0096975D01*
X0268300Y0094975D01*
X0267800Y0094975D01*
X0267800Y0088975D01*
X0268300Y0088975D01*
X0268300Y0094975D01*
X0268300Y0096975D02*
X0267800Y0096975D01*
X0267800Y0102975D01*
X0268300Y0102975D01*
X0268300Y0105875D02*
X0281800Y0105875D01*
X0283300Y0105875D01*
X0307800Y0105875D01*
X0307800Y0026475D01*
X0307800Y0024975D01*
X0283300Y0024975D01*
X0283300Y0026475D01*
X0281800Y0026475D01*
X0268300Y0026475D01*
X0268300Y0029775D01*
X0268300Y0035775D01*
X0268300Y0037775D01*
X0268300Y0043775D01*
X0268300Y0049575D01*
X0268300Y0055575D01*
X0267800Y0055575D01*
X0267800Y0049575D01*
X0268300Y0049575D01*
X0268300Y0055575D02*
X0268300Y0057575D01*
X0267800Y0057575D01*
X0267800Y0063575D01*
X0268300Y0063575D01*
X0268300Y0057575D01*
X0268300Y0063575D02*
X0268300Y0068875D01*
X0267800Y0068875D01*
X0267800Y0074875D01*
X0268300Y0074875D01*
X0268300Y0068875D01*
X0268300Y0074875D02*
X0268300Y0076875D01*
X0268300Y0082875D01*
X0267800Y0082875D01*
X0267800Y0076875D01*
X0268300Y0076875D01*
X0268300Y0082875D02*
X0268300Y0088975D01*
X0259300Y0092550D02*
X0259300Y0098550D01*
X0259298Y0098610D01*
X0259293Y0098671D01*
X0259284Y0098730D01*
X0259271Y0098789D01*
X0259255Y0098848D01*
X0259235Y0098905D01*
X0259212Y0098960D01*
X0259185Y0099015D01*
X0259156Y0099067D01*
X0259123Y0099118D01*
X0259087Y0099167D01*
X0259049Y0099213D01*
X0259007Y0099257D01*
X0258963Y0099299D01*
X0258917Y0099337D01*
X0258868Y0099373D01*
X0258817Y0099406D01*
X0258765Y0099435D01*
X0258710Y0099462D01*
X0258655Y0099485D01*
X0258598Y0099505D01*
X0258539Y0099521D01*
X0258480Y0099534D01*
X0258421Y0099543D01*
X0258360Y0099548D01*
X0258300Y0099550D01*
X0256800Y0099550D01*
X0256300Y0099050D01*
X0242300Y0099050D01*
X0241800Y0099550D01*
X0240300Y0099550D01*
X0240240Y0099548D01*
X0240179Y0099543D01*
X0240120Y0099534D01*
X0240061Y0099521D01*
X0240002Y0099505D01*
X0239945Y0099485D01*
X0239890Y0099462D01*
X0239835Y0099435D01*
X0239783Y0099406D01*
X0239732Y0099373D01*
X0239683Y0099337D01*
X0239637Y0099299D01*
X0239593Y0099257D01*
X0239551Y0099213D01*
X0239513Y0099167D01*
X0239477Y0099118D01*
X0239444Y0099067D01*
X0239415Y0099015D01*
X0239388Y0098960D01*
X0239365Y0098905D01*
X0239345Y0098848D01*
X0239329Y0098789D01*
X0239316Y0098730D01*
X0239307Y0098671D01*
X0239302Y0098610D01*
X0239300Y0098550D01*
X0239300Y0092550D01*
X0239302Y0092490D01*
X0239307Y0092429D01*
X0239316Y0092370D01*
X0239329Y0092311D01*
X0239345Y0092252D01*
X0239365Y0092195D01*
X0239388Y0092140D01*
X0239415Y0092085D01*
X0239444Y0092033D01*
X0239477Y0091982D01*
X0239513Y0091933D01*
X0239551Y0091887D01*
X0239593Y0091843D01*
X0239637Y0091801D01*
X0239683Y0091763D01*
X0239732Y0091727D01*
X0239783Y0091694D01*
X0239835Y0091665D01*
X0239890Y0091638D01*
X0239945Y0091615D01*
X0240002Y0091595D01*
X0240061Y0091579D01*
X0240120Y0091566D01*
X0240179Y0091557D01*
X0240240Y0091552D01*
X0240300Y0091550D01*
X0241800Y0091550D01*
X0242300Y0092050D01*
X0256300Y0092050D01*
X0256800Y0091550D01*
X0258300Y0091550D01*
X0258360Y0091552D01*
X0258421Y0091557D01*
X0258480Y0091566D01*
X0258539Y0091579D01*
X0258598Y0091595D01*
X0258655Y0091615D01*
X0258710Y0091638D01*
X0258765Y0091665D01*
X0258817Y0091694D01*
X0258868Y0091727D01*
X0258917Y0091763D01*
X0258963Y0091801D01*
X0259007Y0091843D01*
X0259049Y0091887D01*
X0259087Y0091933D01*
X0259123Y0091982D01*
X0259156Y0092033D01*
X0259185Y0092085D01*
X0259212Y0092140D01*
X0259235Y0092195D01*
X0259255Y0092252D01*
X0259271Y0092311D01*
X0259284Y0092370D01*
X0259293Y0092429D01*
X0259298Y0092490D01*
X0259300Y0092550D01*
X0258300Y0079550D02*
X0256800Y0079550D01*
X0256300Y0079050D01*
X0242300Y0079050D01*
X0241800Y0079550D01*
X0240300Y0079550D01*
X0240240Y0079548D01*
X0240179Y0079543D01*
X0240120Y0079534D01*
X0240061Y0079521D01*
X0240002Y0079505D01*
X0239945Y0079485D01*
X0239890Y0079462D01*
X0239835Y0079435D01*
X0239783Y0079406D01*
X0239732Y0079373D01*
X0239683Y0079337D01*
X0239637Y0079299D01*
X0239593Y0079257D01*
X0239551Y0079213D01*
X0239513Y0079167D01*
X0239477Y0079118D01*
X0239444Y0079067D01*
X0239415Y0079015D01*
X0239388Y0078960D01*
X0239365Y0078905D01*
X0239345Y0078848D01*
X0239329Y0078789D01*
X0239316Y0078730D01*
X0239307Y0078671D01*
X0239302Y0078610D01*
X0239300Y0078550D01*
X0239300Y0072550D01*
X0239302Y0072490D01*
X0239307Y0072429D01*
X0239316Y0072370D01*
X0239329Y0072311D01*
X0239345Y0072252D01*
X0239365Y0072195D01*
X0239388Y0072140D01*
X0239415Y0072085D01*
X0239444Y0072033D01*
X0239477Y0071982D01*
X0239513Y0071933D01*
X0239551Y0071887D01*
X0239593Y0071843D01*
X0239637Y0071801D01*
X0239683Y0071763D01*
X0239732Y0071727D01*
X0239783Y0071694D01*
X0239835Y0071665D01*
X0239890Y0071638D01*
X0239945Y0071615D01*
X0240002Y0071595D01*
X0240061Y0071579D01*
X0240120Y0071566D01*
X0240179Y0071557D01*
X0240240Y0071552D01*
X0240300Y0071550D01*
X0241800Y0071550D01*
X0242300Y0072050D01*
X0256300Y0072050D01*
X0256800Y0071550D01*
X0258300Y0071550D01*
X0258360Y0071552D01*
X0258421Y0071557D01*
X0258480Y0071566D01*
X0258539Y0071579D01*
X0258598Y0071595D01*
X0258655Y0071615D01*
X0258710Y0071638D01*
X0258765Y0071665D01*
X0258817Y0071694D01*
X0258868Y0071727D01*
X0258917Y0071763D01*
X0258963Y0071801D01*
X0259007Y0071843D01*
X0259049Y0071887D01*
X0259087Y0071933D01*
X0259123Y0071982D01*
X0259156Y0072033D01*
X0259185Y0072085D01*
X0259212Y0072140D01*
X0259235Y0072195D01*
X0259255Y0072252D01*
X0259271Y0072311D01*
X0259284Y0072370D01*
X0259293Y0072429D01*
X0259298Y0072490D01*
X0259300Y0072550D01*
X0259300Y0078550D01*
X0259298Y0078610D01*
X0259293Y0078671D01*
X0259284Y0078730D01*
X0259271Y0078789D01*
X0259255Y0078848D01*
X0259235Y0078905D01*
X0259212Y0078960D01*
X0259185Y0079015D01*
X0259156Y0079067D01*
X0259123Y0079118D01*
X0259087Y0079167D01*
X0259049Y0079213D01*
X0259007Y0079257D01*
X0258963Y0079299D01*
X0258917Y0079337D01*
X0258868Y0079373D01*
X0258817Y0079406D01*
X0258765Y0079435D01*
X0258710Y0079462D01*
X0258655Y0079485D01*
X0258598Y0079505D01*
X0258539Y0079521D01*
X0258480Y0079534D01*
X0258421Y0079543D01*
X0258360Y0079548D01*
X0258300Y0079550D01*
X0285800Y0083975D02*
X0285800Y0067975D01*
X0305300Y0067975D01*
X0305300Y0083975D01*
X0285800Y0083975D01*
X0286300Y0082975D02*
X0286300Y0068975D01*
X0286302Y0068915D01*
X0286307Y0068854D01*
X0286316Y0068795D01*
X0286329Y0068736D01*
X0286345Y0068677D01*
X0286365Y0068620D01*
X0286388Y0068565D01*
X0286415Y0068510D01*
X0286444Y0068458D01*
X0286477Y0068407D01*
X0286513Y0068358D01*
X0286551Y0068312D01*
X0286593Y0068268D01*
X0286637Y0068226D01*
X0286683Y0068188D01*
X0286732Y0068152D01*
X0286783Y0068119D01*
X0286835Y0068090D01*
X0286890Y0068063D01*
X0286945Y0068040D01*
X0287002Y0068020D01*
X0287061Y0068004D01*
X0287120Y0067991D01*
X0287179Y0067982D01*
X0287240Y0067977D01*
X0287300Y0067975D01*
X0286300Y0070475D02*
X0286302Y0070535D01*
X0286307Y0070596D01*
X0286316Y0070655D01*
X0286329Y0070714D01*
X0286345Y0070773D01*
X0286365Y0070830D01*
X0286388Y0070885D01*
X0286415Y0070940D01*
X0286444Y0070992D01*
X0286477Y0071043D01*
X0286513Y0071092D01*
X0286551Y0071138D01*
X0286593Y0071182D01*
X0286637Y0071224D01*
X0286683Y0071262D01*
X0286732Y0071298D01*
X0286783Y0071331D01*
X0286835Y0071360D01*
X0286890Y0071387D01*
X0286945Y0071410D01*
X0287002Y0071430D01*
X0287061Y0071446D01*
X0287120Y0071459D01*
X0287179Y0071468D01*
X0287240Y0071473D01*
X0287300Y0071475D01*
X0293800Y0071475D01*
X0296800Y0067975D02*
X0296995Y0067977D01*
X0297190Y0067984D01*
X0297384Y0067996D01*
X0297578Y0068013D01*
X0297772Y0068034D01*
X0297965Y0068060D01*
X0298157Y0068091D01*
X0298349Y0068126D01*
X0298539Y0068166D01*
X0298729Y0068211D01*
X0298918Y0068260D01*
X0299105Y0068314D01*
X0299291Y0068373D01*
X0299475Y0068435D01*
X0299658Y0068503D01*
X0299839Y0068575D01*
X0300018Y0068651D01*
X0300196Y0068731D01*
X0300371Y0068816D01*
X0300544Y0068905D01*
X0300715Y0068999D01*
X0300884Y0069096D01*
X0301050Y0069198D01*
X0301214Y0069303D01*
X0301375Y0069412D01*
X0301534Y0069526D01*
X0301689Y0069643D01*
X0301842Y0069764D01*
X0301992Y0069889D01*
X0302139Y0070017D01*
X0302282Y0070149D01*
X0302422Y0070284D01*
X0302559Y0070422D01*
X0302693Y0070564D01*
X0302823Y0070709D01*
X0302949Y0070858D01*
X0303072Y0071009D01*
X0303191Y0071163D01*
X0303306Y0071320D01*
X0303418Y0071480D01*
X0303525Y0071642D01*
X0303629Y0071807D01*
X0303728Y0071975D01*
X0303824Y0072145D01*
X0303915Y0072317D01*
X0304002Y0072491D01*
X0304084Y0072668D01*
X0304163Y0072846D01*
X0304237Y0073026D01*
X0304306Y0073208D01*
X0304372Y0073392D01*
X0304432Y0073577D01*
X0304488Y0073764D01*
X0304540Y0073952D01*
X0304587Y0074141D01*
X0304629Y0074331D01*
X0304667Y0074522D01*
X0304700Y0074714D01*
X0304728Y0074907D01*
X0304752Y0075100D01*
X0304771Y0075294D01*
X0304785Y0075488D01*
X0304795Y0075683D01*
X0304799Y0075878D01*
X0304799Y0076072D01*
X0304795Y0076267D01*
X0304785Y0076462D01*
X0304771Y0076656D01*
X0304752Y0076850D01*
X0304728Y0077043D01*
X0304700Y0077236D01*
X0304667Y0077428D01*
X0304629Y0077619D01*
X0304587Y0077809D01*
X0304540Y0077998D01*
X0304488Y0078186D01*
X0304432Y0078373D01*
X0304372Y0078558D01*
X0304306Y0078742D01*
X0304237Y0078924D01*
X0304163Y0079104D01*
X0304084Y0079282D01*
X0304002Y0079459D01*
X0303915Y0079633D01*
X0303824Y0079805D01*
X0303728Y0079975D01*
X0303629Y0080143D01*
X0303525Y0080308D01*
X0303418Y0080470D01*
X0303306Y0080630D01*
X0303191Y0080787D01*
X0303072Y0080941D01*
X0302949Y0081092D01*
X0302823Y0081241D01*
X0302693Y0081386D01*
X0302559Y0081528D01*
X0302422Y0081666D01*
X0302282Y0081801D01*
X0302139Y0081933D01*
X0301992Y0082061D01*
X0301842Y0082186D01*
X0301689Y0082307D01*
X0301534Y0082424D01*
X0301375Y0082538D01*
X0301214Y0082647D01*
X0301050Y0082752D01*
X0300884Y0082854D01*
X0300715Y0082951D01*
X0300544Y0083045D01*
X0300371Y0083134D01*
X0300196Y0083219D01*
X0300018Y0083299D01*
X0299839Y0083375D01*
X0299658Y0083447D01*
X0299475Y0083515D01*
X0299291Y0083577D01*
X0299105Y0083636D01*
X0298918Y0083690D01*
X0298729Y0083739D01*
X0298539Y0083784D01*
X0298349Y0083824D01*
X0298157Y0083859D01*
X0297965Y0083890D01*
X0297772Y0083916D01*
X0297578Y0083937D01*
X0297384Y0083954D01*
X0297190Y0083966D01*
X0296995Y0083973D01*
X0296800Y0083975D01*
X0293800Y0080475D02*
X0287300Y0080475D01*
X0287240Y0080477D01*
X0287179Y0080482D01*
X0287120Y0080491D01*
X0287061Y0080504D01*
X0287002Y0080520D01*
X0286945Y0080540D01*
X0286890Y0080563D01*
X0286835Y0080590D01*
X0286783Y0080619D01*
X0286732Y0080652D01*
X0286683Y0080688D01*
X0286637Y0080726D01*
X0286593Y0080768D01*
X0286551Y0080812D01*
X0286513Y0080858D01*
X0286477Y0080907D01*
X0286444Y0080958D01*
X0286415Y0081010D01*
X0286388Y0081065D01*
X0286365Y0081120D01*
X0286345Y0081177D01*
X0286329Y0081236D01*
X0286316Y0081295D01*
X0286307Y0081354D01*
X0286302Y0081415D01*
X0286300Y0081475D01*
X0286300Y0082975D02*
X0286302Y0083035D01*
X0286307Y0083096D01*
X0286316Y0083155D01*
X0286329Y0083214D01*
X0286345Y0083273D01*
X0286365Y0083330D01*
X0286388Y0083385D01*
X0286415Y0083440D01*
X0286444Y0083492D01*
X0286477Y0083543D01*
X0286513Y0083592D01*
X0286551Y0083638D01*
X0286593Y0083682D01*
X0286637Y0083724D01*
X0286683Y0083762D01*
X0286732Y0083798D01*
X0286783Y0083831D01*
X0286835Y0083860D01*
X0286890Y0083887D01*
X0286945Y0083910D01*
X0287002Y0083930D01*
X0287061Y0083946D01*
X0287120Y0083959D01*
X0287179Y0083968D01*
X0287240Y0083973D01*
X0287300Y0083975D01*
X0285800Y0087775D02*
X0285800Y0103775D01*
X0305300Y0103775D01*
X0305300Y0087775D01*
X0285800Y0087775D01*
X0286300Y0088775D02*
X0286300Y0102775D01*
X0286302Y0102835D01*
X0286307Y0102896D01*
X0286316Y0102955D01*
X0286329Y0103014D01*
X0286345Y0103073D01*
X0286365Y0103130D01*
X0286388Y0103185D01*
X0286415Y0103240D01*
X0286444Y0103292D01*
X0286477Y0103343D01*
X0286513Y0103392D01*
X0286551Y0103438D01*
X0286593Y0103482D01*
X0286637Y0103524D01*
X0286683Y0103562D01*
X0286732Y0103598D01*
X0286783Y0103631D01*
X0286835Y0103660D01*
X0286890Y0103687D01*
X0286945Y0103710D01*
X0287002Y0103730D01*
X0287061Y0103746D01*
X0287120Y0103759D01*
X0287179Y0103768D01*
X0287240Y0103773D01*
X0287300Y0103775D01*
X0286300Y0101275D02*
X0286302Y0101215D01*
X0286307Y0101154D01*
X0286316Y0101095D01*
X0286329Y0101036D01*
X0286345Y0100977D01*
X0286365Y0100920D01*
X0286388Y0100865D01*
X0286415Y0100810D01*
X0286444Y0100758D01*
X0286477Y0100707D01*
X0286513Y0100658D01*
X0286551Y0100612D01*
X0286593Y0100568D01*
X0286637Y0100526D01*
X0286683Y0100488D01*
X0286732Y0100452D01*
X0286783Y0100419D01*
X0286835Y0100390D01*
X0286890Y0100363D01*
X0286945Y0100340D01*
X0287002Y0100320D01*
X0287061Y0100304D01*
X0287120Y0100291D01*
X0287179Y0100282D01*
X0287240Y0100277D01*
X0287300Y0100275D01*
X0293800Y0100275D01*
X0296800Y0103775D02*
X0296995Y0103773D01*
X0297190Y0103766D01*
X0297384Y0103754D01*
X0297578Y0103737D01*
X0297772Y0103716D01*
X0297965Y0103690D01*
X0298157Y0103659D01*
X0298349Y0103624D01*
X0298539Y0103584D01*
X0298729Y0103539D01*
X0298918Y0103490D01*
X0299105Y0103436D01*
X0299291Y0103377D01*
X0299475Y0103315D01*
X0299658Y0103247D01*
X0299839Y0103175D01*
X0300018Y0103099D01*
X0300196Y0103019D01*
X0300371Y0102934D01*
X0300544Y0102845D01*
X0300715Y0102751D01*
X0300884Y0102654D01*
X0301050Y0102552D01*
X0301214Y0102447D01*
X0301375Y0102338D01*
X0301534Y0102224D01*
X0301689Y0102107D01*
X0301842Y0101986D01*
X0301992Y0101861D01*
X0302139Y0101733D01*
X0302282Y0101601D01*
X0302422Y0101466D01*
X0302559Y0101328D01*
X0302693Y0101186D01*
X0302823Y0101041D01*
X0302949Y0100892D01*
X0303072Y0100741D01*
X0303191Y0100587D01*
X0303306Y0100430D01*
X0303418Y0100270D01*
X0303525Y0100108D01*
X0303629Y0099943D01*
X0303728Y0099775D01*
X0303824Y0099605D01*
X0303915Y0099433D01*
X0304002Y0099259D01*
X0304084Y0099082D01*
X0304163Y0098904D01*
X0304237Y0098724D01*
X0304306Y0098542D01*
X0304372Y0098358D01*
X0304432Y0098173D01*
X0304488Y0097986D01*
X0304540Y0097798D01*
X0304587Y0097609D01*
X0304629Y0097419D01*
X0304667Y0097228D01*
X0304700Y0097036D01*
X0304728Y0096843D01*
X0304752Y0096650D01*
X0304771Y0096456D01*
X0304785Y0096262D01*
X0304795Y0096067D01*
X0304799Y0095872D01*
X0304799Y0095678D01*
X0304795Y0095483D01*
X0304785Y0095288D01*
X0304771Y0095094D01*
X0304752Y0094900D01*
X0304728Y0094707D01*
X0304700Y0094514D01*
X0304667Y0094322D01*
X0304629Y0094131D01*
X0304587Y0093941D01*
X0304540Y0093752D01*
X0304488Y0093564D01*
X0304432Y0093377D01*
X0304372Y0093192D01*
X0304306Y0093008D01*
X0304237Y0092826D01*
X0304163Y0092646D01*
X0304084Y0092468D01*
X0304002Y0092291D01*
X0303915Y0092117D01*
X0303824Y0091945D01*
X0303728Y0091775D01*
X0303629Y0091607D01*
X0303525Y0091442D01*
X0303418Y0091280D01*
X0303306Y0091120D01*
X0303191Y0090963D01*
X0303072Y0090809D01*
X0302949Y0090658D01*
X0302823Y0090509D01*
X0302693Y0090364D01*
X0302559Y0090222D01*
X0302422Y0090084D01*
X0302282Y0089949D01*
X0302139Y0089817D01*
X0301992Y0089689D01*
X0301842Y0089564D01*
X0301689Y0089443D01*
X0301534Y0089326D01*
X0301375Y0089212D01*
X0301214Y0089103D01*
X0301050Y0088998D01*
X0300884Y0088896D01*
X0300715Y0088799D01*
X0300544Y0088705D01*
X0300371Y0088616D01*
X0300196Y0088531D01*
X0300018Y0088451D01*
X0299839Y0088375D01*
X0299658Y0088303D01*
X0299475Y0088235D01*
X0299291Y0088173D01*
X0299105Y0088114D01*
X0298918Y0088060D01*
X0298729Y0088011D01*
X0298539Y0087966D01*
X0298349Y0087926D01*
X0298157Y0087891D01*
X0297965Y0087860D01*
X0297772Y0087834D01*
X0297578Y0087813D01*
X0297384Y0087796D01*
X0297190Y0087784D01*
X0296995Y0087777D01*
X0296800Y0087775D01*
X0293800Y0091275D02*
X0287300Y0091275D01*
X0287240Y0091273D01*
X0287179Y0091268D01*
X0287120Y0091259D01*
X0287061Y0091246D01*
X0287002Y0091230D01*
X0286945Y0091210D01*
X0286890Y0091187D01*
X0286835Y0091160D01*
X0286783Y0091131D01*
X0286732Y0091098D01*
X0286683Y0091062D01*
X0286637Y0091024D01*
X0286593Y0090982D01*
X0286551Y0090938D01*
X0286513Y0090892D01*
X0286477Y0090843D01*
X0286444Y0090792D01*
X0286415Y0090740D01*
X0286388Y0090685D01*
X0286365Y0090630D01*
X0286345Y0090573D01*
X0286329Y0090514D01*
X0286316Y0090455D01*
X0286307Y0090396D01*
X0286302Y0090335D01*
X0286300Y0090275D01*
X0286300Y0088775D02*
X0286302Y0088715D01*
X0286307Y0088654D01*
X0286316Y0088595D01*
X0286329Y0088536D01*
X0286345Y0088477D01*
X0286365Y0088420D01*
X0286388Y0088365D01*
X0286415Y0088310D01*
X0286444Y0088258D01*
X0286477Y0088207D01*
X0286513Y0088158D01*
X0286551Y0088112D01*
X0286593Y0088068D01*
X0286637Y0088026D01*
X0286683Y0087988D01*
X0286732Y0087952D01*
X0286783Y0087919D01*
X0286835Y0087890D01*
X0286890Y0087863D01*
X0286945Y0087840D01*
X0287002Y0087820D01*
X0287061Y0087804D01*
X0287120Y0087791D01*
X0287179Y0087782D01*
X0287240Y0087777D01*
X0287300Y0087775D01*
X0283300Y0105875D02*
X0283300Y0026475D01*
X0307800Y0026475D01*
X0305300Y0028575D02*
X0305300Y0044575D01*
X0285800Y0044575D01*
X0285800Y0028575D01*
X0305300Y0028575D01*
X0296800Y0028575D02*
X0296995Y0028577D01*
X0297190Y0028584D01*
X0297384Y0028596D01*
X0297578Y0028613D01*
X0297772Y0028634D01*
X0297965Y0028660D01*
X0298157Y0028691D01*
X0298349Y0028726D01*
X0298539Y0028766D01*
X0298729Y0028811D01*
X0298918Y0028860D01*
X0299105Y0028914D01*
X0299291Y0028973D01*
X0299475Y0029035D01*
X0299658Y0029103D01*
X0299839Y0029175D01*
X0300018Y0029251D01*
X0300196Y0029331D01*
X0300371Y0029416D01*
X0300544Y0029505D01*
X0300715Y0029599D01*
X0300884Y0029696D01*
X0301050Y0029798D01*
X0301214Y0029903D01*
X0301375Y0030012D01*
X0301534Y0030126D01*
X0301689Y0030243D01*
X0301842Y0030364D01*
X0301992Y0030489D01*
X0302139Y0030617D01*
X0302282Y0030749D01*
X0302422Y0030884D01*
X0302559Y0031022D01*
X0302693Y0031164D01*
X0302823Y0031309D01*
X0302949Y0031458D01*
X0303072Y0031609D01*
X0303191Y0031763D01*
X0303306Y0031920D01*
X0303418Y0032080D01*
X0303525Y0032242D01*
X0303629Y0032407D01*
X0303728Y0032575D01*
X0303824Y0032745D01*
X0303915Y0032917D01*
X0304002Y0033091D01*
X0304084Y0033268D01*
X0304163Y0033446D01*
X0304237Y0033626D01*
X0304306Y0033808D01*
X0304372Y0033992D01*
X0304432Y0034177D01*
X0304488Y0034364D01*
X0304540Y0034552D01*
X0304587Y0034741D01*
X0304629Y0034931D01*
X0304667Y0035122D01*
X0304700Y0035314D01*
X0304728Y0035507D01*
X0304752Y0035700D01*
X0304771Y0035894D01*
X0304785Y0036088D01*
X0304795Y0036283D01*
X0304799Y0036478D01*
X0304799Y0036672D01*
X0304795Y0036867D01*
X0304785Y0037062D01*
X0304771Y0037256D01*
X0304752Y0037450D01*
X0304728Y0037643D01*
X0304700Y0037836D01*
X0304667Y0038028D01*
X0304629Y0038219D01*
X0304587Y0038409D01*
X0304540Y0038598D01*
X0304488Y0038786D01*
X0304432Y0038973D01*
X0304372Y0039158D01*
X0304306Y0039342D01*
X0304237Y0039524D01*
X0304163Y0039704D01*
X0304084Y0039882D01*
X0304002Y0040059D01*
X0303915Y0040233D01*
X0303824Y0040405D01*
X0303728Y0040575D01*
X0303629Y0040743D01*
X0303525Y0040908D01*
X0303418Y0041070D01*
X0303306Y0041230D01*
X0303191Y0041387D01*
X0303072Y0041541D01*
X0302949Y0041692D01*
X0302823Y0041841D01*
X0302693Y0041986D01*
X0302559Y0042128D01*
X0302422Y0042266D01*
X0302282Y0042401D01*
X0302139Y0042533D01*
X0301992Y0042661D01*
X0301842Y0042786D01*
X0301689Y0042907D01*
X0301534Y0043024D01*
X0301375Y0043138D01*
X0301214Y0043247D01*
X0301050Y0043352D01*
X0300884Y0043454D01*
X0300715Y0043551D01*
X0300544Y0043645D01*
X0300371Y0043734D01*
X0300196Y0043819D01*
X0300018Y0043899D01*
X0299839Y0043975D01*
X0299658Y0044047D01*
X0299475Y0044115D01*
X0299291Y0044177D01*
X0299105Y0044236D01*
X0298918Y0044290D01*
X0298729Y0044339D01*
X0298539Y0044384D01*
X0298349Y0044424D01*
X0298157Y0044459D01*
X0297965Y0044490D01*
X0297772Y0044516D01*
X0297578Y0044537D01*
X0297384Y0044554D01*
X0297190Y0044566D01*
X0296995Y0044573D01*
X0296800Y0044575D01*
X0293800Y0041075D02*
X0287300Y0041075D01*
X0287240Y0041077D01*
X0287179Y0041082D01*
X0287120Y0041091D01*
X0287061Y0041104D01*
X0287002Y0041120D01*
X0286945Y0041140D01*
X0286890Y0041163D01*
X0286835Y0041190D01*
X0286783Y0041219D01*
X0286732Y0041252D01*
X0286683Y0041288D01*
X0286637Y0041326D01*
X0286593Y0041368D01*
X0286551Y0041412D01*
X0286513Y0041458D01*
X0286477Y0041507D01*
X0286444Y0041558D01*
X0286415Y0041610D01*
X0286388Y0041665D01*
X0286365Y0041720D01*
X0286345Y0041777D01*
X0286329Y0041836D01*
X0286316Y0041895D01*
X0286307Y0041954D01*
X0286302Y0042015D01*
X0286300Y0042075D01*
X0286300Y0043575D02*
X0286300Y0029575D01*
X0286302Y0029515D01*
X0286307Y0029454D01*
X0286316Y0029395D01*
X0286329Y0029336D01*
X0286345Y0029277D01*
X0286365Y0029220D01*
X0286388Y0029165D01*
X0286415Y0029110D01*
X0286444Y0029058D01*
X0286477Y0029007D01*
X0286513Y0028958D01*
X0286551Y0028912D01*
X0286593Y0028868D01*
X0286637Y0028826D01*
X0286683Y0028788D01*
X0286732Y0028752D01*
X0286783Y0028719D01*
X0286835Y0028690D01*
X0286890Y0028663D01*
X0286945Y0028640D01*
X0287002Y0028620D01*
X0287061Y0028604D01*
X0287120Y0028591D01*
X0287179Y0028582D01*
X0287240Y0028577D01*
X0287300Y0028575D01*
X0286300Y0031075D02*
X0286302Y0031135D01*
X0286307Y0031196D01*
X0286316Y0031255D01*
X0286329Y0031314D01*
X0286345Y0031373D01*
X0286365Y0031430D01*
X0286388Y0031485D01*
X0286415Y0031540D01*
X0286444Y0031592D01*
X0286477Y0031643D01*
X0286513Y0031692D01*
X0286551Y0031738D01*
X0286593Y0031782D01*
X0286637Y0031824D01*
X0286683Y0031862D01*
X0286732Y0031898D01*
X0286783Y0031931D01*
X0286835Y0031960D01*
X0286890Y0031987D01*
X0286945Y0032010D01*
X0287002Y0032030D01*
X0287061Y0032046D01*
X0287120Y0032059D01*
X0287179Y0032068D01*
X0287240Y0032073D01*
X0287300Y0032075D01*
X0293800Y0032075D01*
X0286300Y0043575D02*
X0286302Y0043635D01*
X0286307Y0043696D01*
X0286316Y0043755D01*
X0286329Y0043814D01*
X0286345Y0043873D01*
X0286365Y0043930D01*
X0286388Y0043985D01*
X0286415Y0044040D01*
X0286444Y0044092D01*
X0286477Y0044143D01*
X0286513Y0044192D01*
X0286551Y0044238D01*
X0286593Y0044282D01*
X0286637Y0044324D01*
X0286683Y0044362D01*
X0286732Y0044398D01*
X0286783Y0044431D01*
X0286835Y0044460D01*
X0286890Y0044487D01*
X0286945Y0044510D01*
X0287002Y0044530D01*
X0287061Y0044546D01*
X0287120Y0044559D01*
X0287179Y0044568D01*
X0287240Y0044573D01*
X0287300Y0044575D01*
X0285800Y0048375D02*
X0285800Y0064375D01*
X0305300Y0064375D01*
X0305300Y0048375D01*
X0285800Y0048375D01*
X0286300Y0049375D02*
X0286300Y0063375D01*
X0286302Y0063435D01*
X0286307Y0063496D01*
X0286316Y0063555D01*
X0286329Y0063614D01*
X0286345Y0063673D01*
X0286365Y0063730D01*
X0286388Y0063785D01*
X0286415Y0063840D01*
X0286444Y0063892D01*
X0286477Y0063943D01*
X0286513Y0063992D01*
X0286551Y0064038D01*
X0286593Y0064082D01*
X0286637Y0064124D01*
X0286683Y0064162D01*
X0286732Y0064198D01*
X0286783Y0064231D01*
X0286835Y0064260D01*
X0286890Y0064287D01*
X0286945Y0064310D01*
X0287002Y0064330D01*
X0287061Y0064346D01*
X0287120Y0064359D01*
X0287179Y0064368D01*
X0287240Y0064373D01*
X0287300Y0064375D01*
X0286300Y0061875D02*
X0286302Y0061815D01*
X0286307Y0061754D01*
X0286316Y0061695D01*
X0286329Y0061636D01*
X0286345Y0061577D01*
X0286365Y0061520D01*
X0286388Y0061465D01*
X0286415Y0061410D01*
X0286444Y0061358D01*
X0286477Y0061307D01*
X0286513Y0061258D01*
X0286551Y0061212D01*
X0286593Y0061168D01*
X0286637Y0061126D01*
X0286683Y0061088D01*
X0286732Y0061052D01*
X0286783Y0061019D01*
X0286835Y0060990D01*
X0286890Y0060963D01*
X0286945Y0060940D01*
X0287002Y0060920D01*
X0287061Y0060904D01*
X0287120Y0060891D01*
X0287179Y0060882D01*
X0287240Y0060877D01*
X0287300Y0060875D01*
X0293800Y0060875D01*
X0296800Y0064375D02*
X0296995Y0064373D01*
X0297190Y0064366D01*
X0297384Y0064354D01*
X0297578Y0064337D01*
X0297772Y0064316D01*
X0297965Y0064290D01*
X0298157Y0064259D01*
X0298349Y0064224D01*
X0298539Y0064184D01*
X0298729Y0064139D01*
X0298918Y0064090D01*
X0299105Y0064036D01*
X0299291Y0063977D01*
X0299475Y0063915D01*
X0299658Y0063847D01*
X0299839Y0063775D01*
X0300018Y0063699D01*
X0300196Y0063619D01*
X0300371Y0063534D01*
X0300544Y0063445D01*
X0300715Y0063351D01*
X0300884Y0063254D01*
X0301050Y0063152D01*
X0301214Y0063047D01*
X0301375Y0062938D01*
X0301534Y0062824D01*
X0301689Y0062707D01*
X0301842Y0062586D01*
X0301992Y0062461D01*
X0302139Y0062333D01*
X0302282Y0062201D01*
X0302422Y0062066D01*
X0302559Y0061928D01*
X0302693Y0061786D01*
X0302823Y0061641D01*
X0302949Y0061492D01*
X0303072Y0061341D01*
X0303191Y0061187D01*
X0303306Y0061030D01*
X0303418Y0060870D01*
X0303525Y0060708D01*
X0303629Y0060543D01*
X0303728Y0060375D01*
X0303824Y0060205D01*
X0303915Y0060033D01*
X0304002Y0059859D01*
X0304084Y0059682D01*
X0304163Y0059504D01*
X0304237Y0059324D01*
X0304306Y0059142D01*
X0304372Y0058958D01*
X0304432Y0058773D01*
X0304488Y0058586D01*
X0304540Y0058398D01*
X0304587Y0058209D01*
X0304629Y0058019D01*
X0304667Y0057828D01*
X0304700Y0057636D01*
X0304728Y0057443D01*
X0304752Y0057250D01*
X0304771Y0057056D01*
X0304785Y0056862D01*
X0304795Y0056667D01*
X0304799Y0056472D01*
X0304799Y0056278D01*
X0304795Y0056083D01*
X0304785Y0055888D01*
X0304771Y0055694D01*
X0304752Y0055500D01*
X0304728Y0055307D01*
X0304700Y0055114D01*
X0304667Y0054922D01*
X0304629Y0054731D01*
X0304587Y0054541D01*
X0304540Y0054352D01*
X0304488Y0054164D01*
X0304432Y0053977D01*
X0304372Y0053792D01*
X0304306Y0053608D01*
X0304237Y0053426D01*
X0304163Y0053246D01*
X0304084Y0053068D01*
X0304002Y0052891D01*
X0303915Y0052717D01*
X0303824Y0052545D01*
X0303728Y0052375D01*
X0303629Y0052207D01*
X0303525Y0052042D01*
X0303418Y0051880D01*
X0303306Y0051720D01*
X0303191Y0051563D01*
X0303072Y0051409D01*
X0302949Y0051258D01*
X0302823Y0051109D01*
X0302693Y0050964D01*
X0302559Y0050822D01*
X0302422Y0050684D01*
X0302282Y0050549D01*
X0302139Y0050417D01*
X0301992Y0050289D01*
X0301842Y0050164D01*
X0301689Y0050043D01*
X0301534Y0049926D01*
X0301375Y0049812D01*
X0301214Y0049703D01*
X0301050Y0049598D01*
X0300884Y0049496D01*
X0300715Y0049399D01*
X0300544Y0049305D01*
X0300371Y0049216D01*
X0300196Y0049131D01*
X0300018Y0049051D01*
X0299839Y0048975D01*
X0299658Y0048903D01*
X0299475Y0048835D01*
X0299291Y0048773D01*
X0299105Y0048714D01*
X0298918Y0048660D01*
X0298729Y0048611D01*
X0298539Y0048566D01*
X0298349Y0048526D01*
X0298157Y0048491D01*
X0297965Y0048460D01*
X0297772Y0048434D01*
X0297578Y0048413D01*
X0297384Y0048396D01*
X0297190Y0048384D01*
X0296995Y0048377D01*
X0296800Y0048375D01*
X0293800Y0051875D02*
X0287300Y0051875D01*
X0287240Y0051873D01*
X0287179Y0051868D01*
X0287120Y0051859D01*
X0287061Y0051846D01*
X0287002Y0051830D01*
X0286945Y0051810D01*
X0286890Y0051787D01*
X0286835Y0051760D01*
X0286783Y0051731D01*
X0286732Y0051698D01*
X0286683Y0051662D01*
X0286637Y0051624D01*
X0286593Y0051582D01*
X0286551Y0051538D01*
X0286513Y0051492D01*
X0286477Y0051443D01*
X0286444Y0051392D01*
X0286415Y0051340D01*
X0286388Y0051285D01*
X0286365Y0051230D01*
X0286345Y0051173D01*
X0286329Y0051114D01*
X0286316Y0051055D01*
X0286307Y0050996D01*
X0286302Y0050935D01*
X0286300Y0050875D01*
X0286300Y0049375D02*
X0286302Y0049315D01*
X0286307Y0049254D01*
X0286316Y0049195D01*
X0286329Y0049136D01*
X0286345Y0049077D01*
X0286365Y0049020D01*
X0286388Y0048965D01*
X0286415Y0048910D01*
X0286444Y0048858D01*
X0286477Y0048807D01*
X0286513Y0048758D01*
X0286551Y0048712D01*
X0286593Y0048668D01*
X0286637Y0048626D01*
X0286683Y0048588D01*
X0286732Y0048552D01*
X0286783Y0048519D01*
X0286835Y0048490D01*
X0286890Y0048463D01*
X0286945Y0048440D01*
X0287002Y0048420D01*
X0287061Y0048404D01*
X0287120Y0048391D01*
X0287179Y0048382D01*
X0287240Y0048377D01*
X0287300Y0048375D01*
X0268300Y0043775D02*
X0267800Y0043775D01*
X0267800Y0037775D01*
X0268300Y0037775D01*
X0268300Y0035775D02*
X0267800Y0035775D01*
X0267800Y0029775D01*
X0268300Y0029775D01*
X0259300Y0032550D02*
X0259300Y0038550D01*
X0259298Y0038610D01*
X0259293Y0038671D01*
X0259284Y0038730D01*
X0259271Y0038789D01*
X0259255Y0038848D01*
X0259235Y0038905D01*
X0259212Y0038960D01*
X0259185Y0039015D01*
X0259156Y0039067D01*
X0259123Y0039118D01*
X0259087Y0039167D01*
X0259049Y0039213D01*
X0259007Y0039257D01*
X0258963Y0039299D01*
X0258917Y0039337D01*
X0258868Y0039373D01*
X0258817Y0039406D01*
X0258765Y0039435D01*
X0258710Y0039462D01*
X0258655Y0039485D01*
X0258598Y0039505D01*
X0258539Y0039521D01*
X0258480Y0039534D01*
X0258421Y0039543D01*
X0258360Y0039548D01*
X0258300Y0039550D01*
X0256800Y0039550D01*
X0256300Y0039050D01*
X0242300Y0039050D01*
X0241800Y0039550D01*
X0240300Y0039550D01*
X0240240Y0039548D01*
X0240179Y0039543D01*
X0240120Y0039534D01*
X0240061Y0039521D01*
X0240002Y0039505D01*
X0239945Y0039485D01*
X0239890Y0039462D01*
X0239835Y0039435D01*
X0239783Y0039406D01*
X0239732Y0039373D01*
X0239683Y0039337D01*
X0239637Y0039299D01*
X0239593Y0039257D01*
X0239551Y0039213D01*
X0239513Y0039167D01*
X0239477Y0039118D01*
X0239444Y0039067D01*
X0239415Y0039015D01*
X0239388Y0038960D01*
X0239365Y0038905D01*
X0239345Y0038848D01*
X0239329Y0038789D01*
X0239316Y0038730D01*
X0239307Y0038671D01*
X0239302Y0038610D01*
X0239300Y0038550D01*
X0239300Y0032550D01*
X0239302Y0032490D01*
X0239307Y0032429D01*
X0239316Y0032370D01*
X0239329Y0032311D01*
X0239345Y0032252D01*
X0239365Y0032195D01*
X0239388Y0032140D01*
X0239415Y0032085D01*
X0239444Y0032033D01*
X0239477Y0031982D01*
X0239513Y0031933D01*
X0239551Y0031887D01*
X0239593Y0031843D01*
X0239637Y0031801D01*
X0239683Y0031763D01*
X0239732Y0031727D01*
X0239783Y0031694D01*
X0239835Y0031665D01*
X0239890Y0031638D01*
X0239945Y0031615D01*
X0240002Y0031595D01*
X0240061Y0031579D01*
X0240120Y0031566D01*
X0240179Y0031557D01*
X0240240Y0031552D01*
X0240300Y0031550D01*
X0241800Y0031550D01*
X0242300Y0032050D01*
X0256300Y0032050D01*
X0256800Y0031550D01*
X0258300Y0031550D01*
X0258360Y0031552D01*
X0258421Y0031557D01*
X0258480Y0031566D01*
X0258539Y0031579D01*
X0258598Y0031595D01*
X0258655Y0031615D01*
X0258710Y0031638D01*
X0258765Y0031665D01*
X0258817Y0031694D01*
X0258868Y0031727D01*
X0258917Y0031763D01*
X0258963Y0031801D01*
X0259007Y0031843D01*
X0259049Y0031887D01*
X0259087Y0031933D01*
X0259123Y0031982D01*
X0259156Y0032033D01*
X0259185Y0032085D01*
X0259212Y0032140D01*
X0259235Y0032195D01*
X0259255Y0032252D01*
X0259271Y0032311D01*
X0259284Y0032370D01*
X0259293Y0032429D01*
X0259298Y0032490D01*
X0259300Y0032550D01*
X0258300Y0051550D02*
X0256800Y0051550D01*
X0256300Y0052050D01*
X0242300Y0052050D01*
X0241800Y0051550D01*
X0240300Y0051550D01*
X0240240Y0051552D01*
X0240179Y0051557D01*
X0240120Y0051566D01*
X0240061Y0051579D01*
X0240002Y0051595D01*
X0239945Y0051615D01*
X0239890Y0051638D01*
X0239835Y0051665D01*
X0239783Y0051694D01*
X0239732Y0051727D01*
X0239683Y0051763D01*
X0239637Y0051801D01*
X0239593Y0051843D01*
X0239551Y0051887D01*
X0239513Y0051933D01*
X0239477Y0051982D01*
X0239444Y0052033D01*
X0239415Y0052085D01*
X0239388Y0052140D01*
X0239365Y0052195D01*
X0239345Y0052252D01*
X0239329Y0052311D01*
X0239316Y0052370D01*
X0239307Y0052429D01*
X0239302Y0052490D01*
X0239300Y0052550D01*
X0239300Y0058550D01*
X0239302Y0058610D01*
X0239307Y0058671D01*
X0239316Y0058730D01*
X0239329Y0058789D01*
X0239345Y0058848D01*
X0239365Y0058905D01*
X0239388Y0058960D01*
X0239415Y0059015D01*
X0239444Y0059067D01*
X0239477Y0059118D01*
X0239513Y0059167D01*
X0239551Y0059213D01*
X0239593Y0059257D01*
X0239637Y0059299D01*
X0239683Y0059337D01*
X0239732Y0059373D01*
X0239783Y0059406D01*
X0239835Y0059435D01*
X0239890Y0059462D01*
X0239945Y0059485D01*
X0240002Y0059505D01*
X0240061Y0059521D01*
X0240120Y0059534D01*
X0240179Y0059543D01*
X0240240Y0059548D01*
X0240300Y0059550D01*
X0241800Y0059550D01*
X0242300Y0059050D01*
X0256300Y0059050D01*
X0256800Y0059550D01*
X0258300Y0059550D01*
X0258360Y0059548D01*
X0258421Y0059543D01*
X0258480Y0059534D01*
X0258539Y0059521D01*
X0258598Y0059505D01*
X0258655Y0059485D01*
X0258710Y0059462D01*
X0258765Y0059435D01*
X0258817Y0059406D01*
X0258868Y0059373D01*
X0258917Y0059337D01*
X0258963Y0059299D01*
X0259007Y0059257D01*
X0259049Y0059213D01*
X0259087Y0059167D01*
X0259123Y0059118D01*
X0259156Y0059067D01*
X0259185Y0059015D01*
X0259212Y0058960D01*
X0259235Y0058905D01*
X0259255Y0058848D01*
X0259271Y0058789D01*
X0259284Y0058730D01*
X0259293Y0058671D01*
X0259298Y0058610D01*
X0259300Y0058550D01*
X0259300Y0052550D01*
X0259298Y0052490D01*
X0259293Y0052429D01*
X0259284Y0052370D01*
X0259271Y0052311D01*
X0259255Y0052252D01*
X0259235Y0052195D01*
X0259212Y0052140D01*
X0259185Y0052085D01*
X0259156Y0052033D01*
X0259123Y0051982D01*
X0259087Y0051933D01*
X0259049Y0051887D01*
X0259007Y0051843D01*
X0258963Y0051801D01*
X0258917Y0051763D01*
X0258868Y0051727D01*
X0258817Y0051694D01*
X0258765Y0051665D01*
X0258710Y0051638D01*
X0258655Y0051615D01*
X0258598Y0051595D01*
X0258539Y0051579D01*
X0258480Y0051566D01*
X0258421Y0051557D01*
X0258360Y0051552D01*
X0258300Y0051550D01*
X0226175Y0059050D02*
X0226175Y0032050D01*
X0226173Y0031990D01*
X0226168Y0031929D01*
X0226159Y0031870D01*
X0226146Y0031811D01*
X0226130Y0031752D01*
X0226110Y0031695D01*
X0226087Y0031640D01*
X0226060Y0031585D01*
X0226031Y0031533D01*
X0225998Y0031482D01*
X0225962Y0031433D01*
X0225924Y0031387D01*
X0225882Y0031343D01*
X0225838Y0031301D01*
X0225792Y0031263D01*
X0225743Y0031227D01*
X0225692Y0031194D01*
X0225640Y0031165D01*
X0225585Y0031138D01*
X0225530Y0031115D01*
X0225473Y0031095D01*
X0225414Y0031079D01*
X0225355Y0031066D01*
X0225296Y0031057D01*
X0225235Y0031052D01*
X0225175Y0031050D01*
X0217175Y0031050D01*
X0217115Y0031052D01*
X0217054Y0031057D01*
X0216995Y0031066D01*
X0216936Y0031079D01*
X0216877Y0031095D01*
X0216820Y0031115D01*
X0216765Y0031138D01*
X0216710Y0031165D01*
X0216658Y0031194D01*
X0216607Y0031227D01*
X0216558Y0031263D01*
X0216512Y0031301D01*
X0216468Y0031343D01*
X0216426Y0031387D01*
X0216388Y0031433D01*
X0216352Y0031482D01*
X0216319Y0031533D01*
X0216290Y0031585D01*
X0216263Y0031640D01*
X0216240Y0031695D01*
X0216220Y0031752D01*
X0216204Y0031811D01*
X0216191Y0031870D01*
X0216182Y0031929D01*
X0216177Y0031990D01*
X0216175Y0032050D01*
X0216175Y0059050D01*
X0216177Y0059110D01*
X0216182Y0059171D01*
X0216191Y0059230D01*
X0216204Y0059289D01*
X0216220Y0059348D01*
X0216240Y0059405D01*
X0216263Y0059460D01*
X0216290Y0059515D01*
X0216319Y0059567D01*
X0216352Y0059618D01*
X0216388Y0059667D01*
X0216426Y0059713D01*
X0216468Y0059757D01*
X0216512Y0059799D01*
X0216558Y0059837D01*
X0216607Y0059873D01*
X0216658Y0059906D01*
X0216710Y0059935D01*
X0216765Y0059962D01*
X0216820Y0059985D01*
X0216877Y0060005D01*
X0216936Y0060021D01*
X0216995Y0060034D01*
X0217054Y0060043D01*
X0217115Y0060048D01*
X0217175Y0060050D01*
X0225175Y0060050D01*
X0225235Y0060048D01*
X0225296Y0060043D01*
X0225355Y0060034D01*
X0225414Y0060021D01*
X0225473Y0060005D01*
X0225530Y0059985D01*
X0225585Y0059962D01*
X0225640Y0059935D01*
X0225692Y0059906D01*
X0225743Y0059873D01*
X0225792Y0059837D01*
X0225838Y0059799D01*
X0225882Y0059757D01*
X0225924Y0059713D01*
X0225962Y0059667D01*
X0225998Y0059618D01*
X0226031Y0059567D01*
X0226060Y0059515D01*
X0226087Y0059460D01*
X0226110Y0059405D01*
X0226130Y0059348D01*
X0226146Y0059289D01*
X0226159Y0059230D01*
X0226168Y0059171D01*
X0226173Y0059110D01*
X0226175Y0059050D01*
X0221175Y0051550D02*
X0221175Y0046750D01*
X0221175Y0044250D02*
X0221175Y0039550D01*
X0210050Y0040550D02*
X0210050Y0030550D01*
X0210048Y0030490D01*
X0210043Y0030429D01*
X0210034Y0030370D01*
X0210021Y0030311D01*
X0210005Y0030252D01*
X0209985Y0030195D01*
X0209962Y0030140D01*
X0209935Y0030085D01*
X0209906Y0030033D01*
X0209873Y0029982D01*
X0209837Y0029933D01*
X0209799Y0029887D01*
X0209757Y0029843D01*
X0209713Y0029801D01*
X0209667Y0029763D01*
X0209618Y0029727D01*
X0209567Y0029694D01*
X0209515Y0029665D01*
X0209460Y0029638D01*
X0209405Y0029615D01*
X0209348Y0029595D01*
X0209289Y0029579D01*
X0209230Y0029566D01*
X0209171Y0029557D01*
X0209110Y0029552D01*
X0209050Y0029550D01*
X0182050Y0029550D01*
X0181990Y0029552D01*
X0181929Y0029557D01*
X0181870Y0029566D01*
X0181811Y0029579D01*
X0181752Y0029595D01*
X0181695Y0029615D01*
X0181640Y0029638D01*
X0181585Y0029665D01*
X0181533Y0029694D01*
X0181482Y0029727D01*
X0181433Y0029763D01*
X0181387Y0029801D01*
X0181343Y0029843D01*
X0181301Y0029887D01*
X0181263Y0029933D01*
X0181227Y0029982D01*
X0181194Y0030033D01*
X0181165Y0030085D01*
X0181138Y0030140D01*
X0181115Y0030195D01*
X0181095Y0030252D01*
X0181079Y0030311D01*
X0181066Y0030370D01*
X0181057Y0030429D01*
X0181052Y0030490D01*
X0181050Y0030550D01*
X0181050Y0040550D01*
X0181052Y0040610D01*
X0181057Y0040671D01*
X0181066Y0040730D01*
X0181079Y0040789D01*
X0181095Y0040848D01*
X0181115Y0040905D01*
X0181138Y0040960D01*
X0181165Y0041015D01*
X0181194Y0041067D01*
X0181227Y0041118D01*
X0181263Y0041167D01*
X0181301Y0041213D01*
X0181343Y0041257D01*
X0181387Y0041299D01*
X0181433Y0041337D01*
X0181482Y0041373D01*
X0181533Y0041406D01*
X0181585Y0041435D01*
X0181640Y0041462D01*
X0181695Y0041485D01*
X0181752Y0041505D01*
X0181811Y0041521D01*
X0181870Y0041534D01*
X0181929Y0041543D01*
X0181990Y0041548D01*
X0182050Y0041550D01*
X0209050Y0041550D01*
X0209110Y0041548D01*
X0209171Y0041543D01*
X0209230Y0041534D01*
X0209289Y0041521D01*
X0209348Y0041505D01*
X0209405Y0041485D01*
X0209460Y0041462D01*
X0209515Y0041435D01*
X0209567Y0041406D01*
X0209618Y0041373D01*
X0209667Y0041337D01*
X0209713Y0041299D01*
X0209757Y0041257D01*
X0209799Y0041213D01*
X0209837Y0041167D01*
X0209873Y0041118D01*
X0209906Y0041067D01*
X0209935Y0041015D01*
X0209962Y0040960D01*
X0209985Y0040905D01*
X0210005Y0040848D01*
X0210021Y0040789D01*
X0210034Y0040730D01*
X0210043Y0040671D01*
X0210048Y0040610D01*
X0210050Y0040550D01*
X0201550Y0035550D02*
X0196750Y0035550D01*
X0194250Y0035550D02*
X0189550Y0035550D01*
X0182050Y0050550D02*
X0209050Y0050550D01*
X0209110Y0050552D01*
X0209171Y0050557D01*
X0209230Y0050566D01*
X0209289Y0050579D01*
X0209348Y0050595D01*
X0209405Y0050615D01*
X0209460Y0050638D01*
X0209515Y0050665D01*
X0209567Y0050694D01*
X0209618Y0050727D01*
X0209667Y0050763D01*
X0209713Y0050801D01*
X0209757Y0050843D01*
X0209799Y0050887D01*
X0209837Y0050933D01*
X0209873Y0050982D01*
X0209906Y0051033D01*
X0209935Y0051085D01*
X0209962Y0051140D01*
X0209985Y0051195D01*
X0210005Y0051252D01*
X0210021Y0051311D01*
X0210034Y0051370D01*
X0210043Y0051429D01*
X0210048Y0051490D01*
X0210050Y0051550D01*
X0210050Y0059550D01*
X0210048Y0059610D01*
X0210043Y0059671D01*
X0210034Y0059730D01*
X0210021Y0059789D01*
X0210005Y0059848D01*
X0209985Y0059905D01*
X0209962Y0059960D01*
X0209935Y0060015D01*
X0209906Y0060067D01*
X0209873Y0060118D01*
X0209837Y0060167D01*
X0209799Y0060213D01*
X0209757Y0060257D01*
X0209713Y0060299D01*
X0209667Y0060337D01*
X0209618Y0060373D01*
X0209567Y0060406D01*
X0209515Y0060435D01*
X0209460Y0060462D01*
X0209405Y0060485D01*
X0209348Y0060505D01*
X0209289Y0060521D01*
X0209230Y0060534D01*
X0209171Y0060543D01*
X0209110Y0060548D01*
X0209050Y0060550D01*
X0182050Y0060550D01*
X0181990Y0060548D01*
X0181929Y0060543D01*
X0181870Y0060534D01*
X0181811Y0060521D01*
X0181752Y0060505D01*
X0181695Y0060485D01*
X0181640Y0060462D01*
X0181585Y0060435D01*
X0181533Y0060406D01*
X0181482Y0060373D01*
X0181433Y0060337D01*
X0181387Y0060299D01*
X0181343Y0060257D01*
X0181301Y0060213D01*
X0181263Y0060167D01*
X0181227Y0060118D01*
X0181194Y0060067D01*
X0181165Y0060015D01*
X0181138Y0059960D01*
X0181115Y0059905D01*
X0181095Y0059848D01*
X0181079Y0059789D01*
X0181066Y0059730D01*
X0181057Y0059671D01*
X0181052Y0059610D01*
X0181050Y0059550D01*
X0181050Y0051550D01*
X0181052Y0051490D01*
X0181057Y0051429D01*
X0181066Y0051370D01*
X0181079Y0051311D01*
X0181095Y0051252D01*
X0181115Y0051195D01*
X0181138Y0051140D01*
X0181165Y0051085D01*
X0181194Y0051033D01*
X0181227Y0050982D01*
X0181263Y0050933D01*
X0181301Y0050887D01*
X0181343Y0050843D01*
X0181387Y0050801D01*
X0181433Y0050763D01*
X0181482Y0050727D01*
X0181533Y0050694D01*
X0181585Y0050665D01*
X0181640Y0050638D01*
X0181695Y0050615D01*
X0181752Y0050595D01*
X0181811Y0050579D01*
X0181870Y0050566D01*
X0181929Y0050557D01*
X0181990Y0050552D01*
X0182050Y0050550D01*
X0189550Y0055550D02*
X0194350Y0055550D01*
X0196850Y0055550D02*
X0201550Y0055550D01*
X0209050Y0070550D02*
X0182050Y0070550D01*
X0181990Y0070552D01*
X0181929Y0070557D01*
X0181870Y0070566D01*
X0181811Y0070579D01*
X0181752Y0070595D01*
X0181695Y0070615D01*
X0181640Y0070638D01*
X0181585Y0070665D01*
X0181533Y0070694D01*
X0181482Y0070727D01*
X0181433Y0070763D01*
X0181387Y0070801D01*
X0181343Y0070843D01*
X0181301Y0070887D01*
X0181263Y0070933D01*
X0181227Y0070982D01*
X0181194Y0071033D01*
X0181165Y0071085D01*
X0181138Y0071140D01*
X0181115Y0071195D01*
X0181095Y0071252D01*
X0181079Y0071311D01*
X0181066Y0071370D01*
X0181057Y0071429D01*
X0181052Y0071490D01*
X0181050Y0071550D01*
X0181050Y0079550D01*
X0181052Y0079610D01*
X0181057Y0079671D01*
X0181066Y0079730D01*
X0181079Y0079789D01*
X0181095Y0079848D01*
X0181115Y0079905D01*
X0181138Y0079960D01*
X0181165Y0080015D01*
X0181194Y0080067D01*
X0181227Y0080118D01*
X0181263Y0080167D01*
X0181301Y0080213D01*
X0181343Y0080257D01*
X0181387Y0080299D01*
X0181433Y0080337D01*
X0181482Y0080373D01*
X0181533Y0080406D01*
X0181585Y0080435D01*
X0181640Y0080462D01*
X0181695Y0080485D01*
X0181752Y0080505D01*
X0181811Y0080521D01*
X0181870Y0080534D01*
X0181929Y0080543D01*
X0181990Y0080548D01*
X0182050Y0080550D01*
X0209050Y0080550D01*
X0209110Y0080548D01*
X0209171Y0080543D01*
X0209230Y0080534D01*
X0209289Y0080521D01*
X0209348Y0080505D01*
X0209405Y0080485D01*
X0209460Y0080462D01*
X0209515Y0080435D01*
X0209567Y0080406D01*
X0209618Y0080373D01*
X0209667Y0080337D01*
X0209713Y0080299D01*
X0209757Y0080257D01*
X0209799Y0080213D01*
X0209837Y0080167D01*
X0209873Y0080118D01*
X0209906Y0080067D01*
X0209935Y0080015D01*
X0209962Y0079960D01*
X0209985Y0079905D01*
X0210005Y0079848D01*
X0210021Y0079789D01*
X0210034Y0079730D01*
X0210043Y0079671D01*
X0210048Y0079610D01*
X0210050Y0079550D01*
X0210050Y0071550D01*
X0210048Y0071490D01*
X0210043Y0071429D01*
X0210034Y0071370D01*
X0210021Y0071311D01*
X0210005Y0071252D01*
X0209985Y0071195D01*
X0209962Y0071140D01*
X0209935Y0071085D01*
X0209906Y0071033D01*
X0209873Y0070982D01*
X0209837Y0070933D01*
X0209799Y0070887D01*
X0209757Y0070843D01*
X0209713Y0070801D01*
X0209667Y0070763D01*
X0209618Y0070727D01*
X0209567Y0070694D01*
X0209515Y0070665D01*
X0209460Y0070638D01*
X0209405Y0070615D01*
X0209348Y0070595D01*
X0209289Y0070579D01*
X0209230Y0070566D01*
X0209171Y0070557D01*
X0209110Y0070552D01*
X0209050Y0070550D01*
X0215550Y0072050D02*
X0215550Y0099050D01*
X0215552Y0099110D01*
X0215557Y0099171D01*
X0215566Y0099230D01*
X0215579Y0099289D01*
X0215595Y0099348D01*
X0215615Y0099405D01*
X0215638Y0099460D01*
X0215665Y0099515D01*
X0215694Y0099567D01*
X0215727Y0099618D01*
X0215763Y0099667D01*
X0215801Y0099713D01*
X0215843Y0099757D01*
X0215887Y0099799D01*
X0215933Y0099837D01*
X0215982Y0099873D01*
X0216033Y0099906D01*
X0216085Y0099935D01*
X0216140Y0099962D01*
X0216195Y0099985D01*
X0216252Y0100005D01*
X0216311Y0100021D01*
X0216370Y0100034D01*
X0216429Y0100043D01*
X0216490Y0100048D01*
X0216550Y0100050D01*
X0224550Y0100050D01*
X0224610Y0100048D01*
X0224671Y0100043D01*
X0224730Y0100034D01*
X0224789Y0100021D01*
X0224848Y0100005D01*
X0224905Y0099985D01*
X0224960Y0099962D01*
X0225015Y0099935D01*
X0225067Y0099906D01*
X0225118Y0099873D01*
X0225167Y0099837D01*
X0225213Y0099799D01*
X0225257Y0099757D01*
X0225299Y0099713D01*
X0225337Y0099667D01*
X0225373Y0099618D01*
X0225406Y0099567D01*
X0225435Y0099515D01*
X0225462Y0099460D01*
X0225485Y0099405D01*
X0225505Y0099348D01*
X0225521Y0099289D01*
X0225534Y0099230D01*
X0225543Y0099171D01*
X0225548Y0099110D01*
X0225550Y0099050D01*
X0225550Y0072050D01*
X0225548Y0071990D01*
X0225543Y0071929D01*
X0225534Y0071870D01*
X0225521Y0071811D01*
X0225505Y0071752D01*
X0225485Y0071695D01*
X0225462Y0071640D01*
X0225435Y0071585D01*
X0225406Y0071533D01*
X0225373Y0071482D01*
X0225337Y0071433D01*
X0225299Y0071387D01*
X0225257Y0071343D01*
X0225213Y0071301D01*
X0225167Y0071263D01*
X0225118Y0071227D01*
X0225067Y0071194D01*
X0225015Y0071165D01*
X0224960Y0071138D01*
X0224905Y0071115D01*
X0224848Y0071095D01*
X0224789Y0071079D01*
X0224730Y0071066D01*
X0224671Y0071057D01*
X0224610Y0071052D01*
X0224550Y0071050D01*
X0216550Y0071050D01*
X0216490Y0071052D01*
X0216429Y0071057D01*
X0216370Y0071066D01*
X0216311Y0071079D01*
X0216252Y0071095D01*
X0216195Y0071115D01*
X0216140Y0071138D01*
X0216085Y0071165D01*
X0216033Y0071194D01*
X0215982Y0071227D01*
X0215933Y0071263D01*
X0215887Y0071301D01*
X0215843Y0071343D01*
X0215801Y0071387D01*
X0215763Y0071433D01*
X0215727Y0071482D01*
X0215694Y0071533D01*
X0215665Y0071585D01*
X0215638Y0071640D01*
X0215615Y0071695D01*
X0215595Y0071752D01*
X0215579Y0071811D01*
X0215566Y0071870D01*
X0215557Y0071929D01*
X0215552Y0071990D01*
X0215550Y0072050D01*
X0220550Y0079550D02*
X0220550Y0084250D01*
X0220550Y0086750D02*
X0220550Y0091550D01*
X0210050Y0091550D02*
X0210050Y0099550D01*
X0210048Y0099610D01*
X0210043Y0099671D01*
X0210034Y0099730D01*
X0210021Y0099789D01*
X0210005Y0099848D01*
X0209985Y0099905D01*
X0209962Y0099960D01*
X0209935Y0100015D01*
X0209906Y0100067D01*
X0209873Y0100118D01*
X0209837Y0100167D01*
X0209799Y0100213D01*
X0209757Y0100257D01*
X0209713Y0100299D01*
X0209667Y0100337D01*
X0209618Y0100373D01*
X0209567Y0100406D01*
X0209515Y0100435D01*
X0209460Y0100462D01*
X0209405Y0100485D01*
X0209348Y0100505D01*
X0209289Y0100521D01*
X0209230Y0100534D01*
X0209171Y0100543D01*
X0209110Y0100548D01*
X0209050Y0100550D01*
X0182050Y0100550D01*
X0181990Y0100548D01*
X0181929Y0100543D01*
X0181870Y0100534D01*
X0181811Y0100521D01*
X0181752Y0100505D01*
X0181695Y0100485D01*
X0181640Y0100462D01*
X0181585Y0100435D01*
X0181533Y0100406D01*
X0181482Y0100373D01*
X0181433Y0100337D01*
X0181387Y0100299D01*
X0181343Y0100257D01*
X0181301Y0100213D01*
X0181263Y0100167D01*
X0181227Y0100118D01*
X0181194Y0100067D01*
X0181165Y0100015D01*
X0181138Y0099960D01*
X0181115Y0099905D01*
X0181095Y0099848D01*
X0181079Y0099789D01*
X0181066Y0099730D01*
X0181057Y0099671D01*
X0181052Y0099610D01*
X0181050Y0099550D01*
X0181050Y0091550D01*
X0181052Y0091490D01*
X0181057Y0091429D01*
X0181066Y0091370D01*
X0181079Y0091311D01*
X0181095Y0091252D01*
X0181115Y0091195D01*
X0181138Y0091140D01*
X0181165Y0091085D01*
X0181194Y0091033D01*
X0181227Y0090982D01*
X0181263Y0090933D01*
X0181301Y0090887D01*
X0181343Y0090843D01*
X0181387Y0090801D01*
X0181433Y0090763D01*
X0181482Y0090727D01*
X0181533Y0090694D01*
X0181585Y0090665D01*
X0181640Y0090638D01*
X0181695Y0090615D01*
X0181752Y0090595D01*
X0181811Y0090579D01*
X0181870Y0090566D01*
X0181929Y0090557D01*
X0181990Y0090552D01*
X0182050Y0090550D01*
X0209050Y0090550D01*
X0209110Y0090552D01*
X0209171Y0090557D01*
X0209230Y0090566D01*
X0209289Y0090579D01*
X0209348Y0090595D01*
X0209405Y0090615D01*
X0209460Y0090638D01*
X0209515Y0090665D01*
X0209567Y0090694D01*
X0209618Y0090727D01*
X0209667Y0090763D01*
X0209713Y0090801D01*
X0209757Y0090843D01*
X0209799Y0090887D01*
X0209837Y0090933D01*
X0209873Y0090982D01*
X0209906Y0091033D01*
X0209935Y0091085D01*
X0209962Y0091140D01*
X0209985Y0091195D01*
X0210005Y0091252D01*
X0210021Y0091311D01*
X0210034Y0091370D01*
X0210043Y0091429D01*
X0210048Y0091490D01*
X0210050Y0091550D01*
X0201550Y0095550D02*
X0196850Y0095550D01*
X0194350Y0095550D02*
X0189550Y0095550D01*
X0189550Y0075550D02*
X0194250Y0075550D01*
X0196750Y0075550D02*
X0201550Y0075550D01*
X0156050Y0077050D02*
X0154050Y0077050D01*
X0155050Y0078050D02*
X0155050Y0076050D01*
X0138050Y0073050D02*
X0138053Y0073295D01*
X0138062Y0073541D01*
X0138077Y0073786D01*
X0138098Y0074030D01*
X0138125Y0074274D01*
X0138158Y0074517D01*
X0138197Y0074760D01*
X0138242Y0075001D01*
X0138293Y0075241D01*
X0138350Y0075480D01*
X0138412Y0075717D01*
X0138481Y0075953D01*
X0138555Y0076187D01*
X0138635Y0076419D01*
X0138720Y0076649D01*
X0138811Y0076877D01*
X0138908Y0077102D01*
X0139010Y0077326D01*
X0139118Y0077546D01*
X0139231Y0077764D01*
X0139349Y0077979D01*
X0139473Y0078191D01*
X0139601Y0078400D01*
X0139735Y0078606D01*
X0139874Y0078808D01*
X0140018Y0079007D01*
X0140167Y0079202D01*
X0140320Y0079394D01*
X0140478Y0079582D01*
X0140640Y0079766D01*
X0140808Y0079945D01*
X0140979Y0080121D01*
X0141155Y0080292D01*
X0141334Y0080460D01*
X0141518Y0080622D01*
X0141706Y0080780D01*
X0141898Y0080933D01*
X0142093Y0081082D01*
X0142292Y0081226D01*
X0142494Y0081365D01*
X0142700Y0081499D01*
X0142909Y0081627D01*
X0143121Y0081751D01*
X0143336Y0081869D01*
X0143554Y0081982D01*
X0143774Y0082090D01*
X0143998Y0082192D01*
X0144223Y0082289D01*
X0144451Y0082380D01*
X0144681Y0082465D01*
X0144913Y0082545D01*
X0145147Y0082619D01*
X0145383Y0082688D01*
X0145620Y0082750D01*
X0145859Y0082807D01*
X0146099Y0082858D01*
X0146340Y0082903D01*
X0146583Y0082942D01*
X0146826Y0082975D01*
X0147070Y0083002D01*
X0147314Y0083023D01*
X0147559Y0083038D01*
X0147805Y0083047D01*
X0148050Y0083050D01*
X0148295Y0083047D01*
X0148541Y0083038D01*
X0148786Y0083023D01*
X0149030Y0083002D01*
X0149274Y0082975D01*
X0149517Y0082942D01*
X0149760Y0082903D01*
X0150001Y0082858D01*
X0150241Y0082807D01*
X0150480Y0082750D01*
X0150717Y0082688D01*
X0150953Y0082619D01*
X0151187Y0082545D01*
X0151419Y0082465D01*
X0151649Y0082380D01*
X0151877Y0082289D01*
X0152102Y0082192D01*
X0152326Y0082090D01*
X0152546Y0081982D01*
X0152764Y0081869D01*
X0152979Y0081751D01*
X0153191Y0081627D01*
X0153400Y0081499D01*
X0153606Y0081365D01*
X0153808Y0081226D01*
X0154007Y0081082D01*
X0154202Y0080933D01*
X0154394Y0080780D01*
X0154582Y0080622D01*
X0154766Y0080460D01*
X0154945Y0080292D01*
X0155121Y0080121D01*
X0155292Y0079945D01*
X0155460Y0079766D01*
X0155622Y0079582D01*
X0155780Y0079394D01*
X0155933Y0079202D01*
X0156082Y0079007D01*
X0156226Y0078808D01*
X0156365Y0078606D01*
X0156499Y0078400D01*
X0156627Y0078191D01*
X0156751Y0077979D01*
X0156869Y0077764D01*
X0156982Y0077546D01*
X0157090Y0077326D01*
X0157192Y0077102D01*
X0157289Y0076877D01*
X0157380Y0076649D01*
X0157465Y0076419D01*
X0157545Y0076187D01*
X0157619Y0075953D01*
X0157688Y0075717D01*
X0157750Y0075480D01*
X0157807Y0075241D01*
X0157858Y0075001D01*
X0157903Y0074760D01*
X0157942Y0074517D01*
X0157975Y0074274D01*
X0158002Y0074030D01*
X0158023Y0073786D01*
X0158038Y0073541D01*
X0158047Y0073295D01*
X0158050Y0073050D01*
X0158047Y0072805D01*
X0158038Y0072559D01*
X0158023Y0072314D01*
X0158002Y0072070D01*
X0157975Y0071826D01*
X0157942Y0071583D01*
X0157903Y0071340D01*
X0157858Y0071099D01*
X0157807Y0070859D01*
X0157750Y0070620D01*
X0157688Y0070383D01*
X0157619Y0070147D01*
X0157545Y0069913D01*
X0157465Y0069681D01*
X0157380Y0069451D01*
X0157289Y0069223D01*
X0157192Y0068998D01*
X0157090Y0068774D01*
X0156982Y0068554D01*
X0156869Y0068336D01*
X0156751Y0068121D01*
X0156627Y0067909D01*
X0156499Y0067700D01*
X0156365Y0067494D01*
X0156226Y0067292D01*
X0156082Y0067093D01*
X0155933Y0066898D01*
X0155780Y0066706D01*
X0155622Y0066518D01*
X0155460Y0066334D01*
X0155292Y0066155D01*
X0155121Y0065979D01*
X0154945Y0065808D01*
X0154766Y0065640D01*
X0154582Y0065478D01*
X0154394Y0065320D01*
X0154202Y0065167D01*
X0154007Y0065018D01*
X0153808Y0064874D01*
X0153606Y0064735D01*
X0153400Y0064601D01*
X0153191Y0064473D01*
X0152979Y0064349D01*
X0152764Y0064231D01*
X0152546Y0064118D01*
X0152326Y0064010D01*
X0152102Y0063908D01*
X0151877Y0063811D01*
X0151649Y0063720D01*
X0151419Y0063635D01*
X0151187Y0063555D01*
X0150953Y0063481D01*
X0150717Y0063412D01*
X0150480Y0063350D01*
X0150241Y0063293D01*
X0150001Y0063242D01*
X0149760Y0063197D01*
X0149517Y0063158D01*
X0149274Y0063125D01*
X0149030Y0063098D01*
X0148786Y0063077D01*
X0148541Y0063062D01*
X0148295Y0063053D01*
X0148050Y0063050D01*
X0147805Y0063053D01*
X0147559Y0063062D01*
X0147314Y0063077D01*
X0147070Y0063098D01*
X0146826Y0063125D01*
X0146583Y0063158D01*
X0146340Y0063197D01*
X0146099Y0063242D01*
X0145859Y0063293D01*
X0145620Y0063350D01*
X0145383Y0063412D01*
X0145147Y0063481D01*
X0144913Y0063555D01*
X0144681Y0063635D01*
X0144451Y0063720D01*
X0144223Y0063811D01*
X0143998Y0063908D01*
X0143774Y0064010D01*
X0143554Y0064118D01*
X0143336Y0064231D01*
X0143121Y0064349D01*
X0142909Y0064473D01*
X0142700Y0064601D01*
X0142494Y0064735D01*
X0142292Y0064874D01*
X0142093Y0065018D01*
X0141898Y0065167D01*
X0141706Y0065320D01*
X0141518Y0065478D01*
X0141334Y0065640D01*
X0141155Y0065808D01*
X0140979Y0065979D01*
X0140808Y0066155D01*
X0140640Y0066334D01*
X0140478Y0066518D01*
X0140320Y0066706D01*
X0140167Y0066898D01*
X0140018Y0067093D01*
X0139874Y0067292D01*
X0139735Y0067494D01*
X0139601Y0067700D01*
X0139473Y0067909D01*
X0139349Y0068121D01*
X0139231Y0068336D01*
X0139118Y0068554D01*
X0139010Y0068774D01*
X0138908Y0068998D01*
X0138811Y0069223D01*
X0138720Y0069451D01*
X0138635Y0069681D01*
X0138555Y0069913D01*
X0138481Y0070147D01*
X0138412Y0070383D01*
X0138350Y0070620D01*
X0138293Y0070859D01*
X0138242Y0071099D01*
X0138197Y0071340D01*
X0138158Y0071583D01*
X0138125Y0071826D01*
X0138098Y0072070D01*
X0138077Y0072314D01*
X0138062Y0072559D01*
X0138053Y0072805D01*
X0138050Y0073050D01*
X0132550Y0069300D02*
X0132550Y0079300D01*
X0132548Y0079360D01*
X0132543Y0079421D01*
X0132534Y0079480D01*
X0132521Y0079539D01*
X0132505Y0079598D01*
X0132485Y0079655D01*
X0132462Y0079710D01*
X0132435Y0079765D01*
X0132406Y0079817D01*
X0132373Y0079868D01*
X0132337Y0079917D01*
X0132299Y0079963D01*
X0132257Y0080007D01*
X0132213Y0080049D01*
X0132167Y0080087D01*
X0132118Y0080123D01*
X0132067Y0080156D01*
X0132015Y0080185D01*
X0131960Y0080212D01*
X0131905Y0080235D01*
X0131848Y0080255D01*
X0131789Y0080271D01*
X0131730Y0080284D01*
X0131671Y0080293D01*
X0131610Y0080298D01*
X0131550Y0080300D01*
X0104550Y0080300D01*
X0104490Y0080298D01*
X0104429Y0080293D01*
X0104370Y0080284D01*
X0104311Y0080271D01*
X0104252Y0080255D01*
X0104195Y0080235D01*
X0104140Y0080212D01*
X0104085Y0080185D01*
X0104033Y0080156D01*
X0103982Y0080123D01*
X0103933Y0080087D01*
X0103887Y0080049D01*
X0103843Y0080007D01*
X0103801Y0079963D01*
X0103763Y0079917D01*
X0103727Y0079868D01*
X0103694Y0079817D01*
X0103665Y0079765D01*
X0103638Y0079710D01*
X0103615Y0079655D01*
X0103595Y0079598D01*
X0103579Y0079539D01*
X0103566Y0079480D01*
X0103557Y0079421D01*
X0103552Y0079360D01*
X0103550Y0079300D01*
X0103550Y0069300D01*
X0103552Y0069240D01*
X0103557Y0069179D01*
X0103566Y0069120D01*
X0103579Y0069061D01*
X0103595Y0069002D01*
X0103615Y0068945D01*
X0103638Y0068890D01*
X0103665Y0068835D01*
X0103694Y0068783D01*
X0103727Y0068732D01*
X0103763Y0068683D01*
X0103801Y0068637D01*
X0103843Y0068593D01*
X0103887Y0068551D01*
X0103933Y0068513D01*
X0103982Y0068477D01*
X0104033Y0068444D01*
X0104085Y0068415D01*
X0104140Y0068388D01*
X0104195Y0068365D01*
X0104252Y0068345D01*
X0104311Y0068329D01*
X0104370Y0068316D01*
X0104429Y0068307D01*
X0104490Y0068302D01*
X0104550Y0068300D01*
X0131550Y0068300D01*
X0131610Y0068302D01*
X0131671Y0068307D01*
X0131730Y0068316D01*
X0131789Y0068329D01*
X0131848Y0068345D01*
X0131905Y0068365D01*
X0131960Y0068388D01*
X0132015Y0068415D01*
X0132067Y0068444D01*
X0132118Y0068477D01*
X0132167Y0068513D01*
X0132213Y0068551D01*
X0132257Y0068593D01*
X0132299Y0068637D01*
X0132337Y0068683D01*
X0132373Y0068732D01*
X0132406Y0068783D01*
X0132435Y0068835D01*
X0132462Y0068890D01*
X0132485Y0068945D01*
X0132505Y0069002D01*
X0132521Y0069061D01*
X0132534Y0069120D01*
X0132543Y0069179D01*
X0132548Y0069240D01*
X0132550Y0069300D01*
X0130925Y0064175D02*
X0130925Y0062175D01*
X0129925Y0063175D02*
X0131925Y0063175D01*
X0124925Y0056175D02*
X0124928Y0056420D01*
X0124937Y0056666D01*
X0124952Y0056911D01*
X0124973Y0057155D01*
X0125000Y0057399D01*
X0125033Y0057642D01*
X0125072Y0057885D01*
X0125117Y0058126D01*
X0125168Y0058366D01*
X0125225Y0058605D01*
X0125287Y0058842D01*
X0125356Y0059078D01*
X0125430Y0059312D01*
X0125510Y0059544D01*
X0125595Y0059774D01*
X0125686Y0060002D01*
X0125783Y0060227D01*
X0125885Y0060451D01*
X0125993Y0060671D01*
X0126106Y0060889D01*
X0126224Y0061104D01*
X0126348Y0061316D01*
X0126476Y0061525D01*
X0126610Y0061731D01*
X0126749Y0061933D01*
X0126893Y0062132D01*
X0127042Y0062327D01*
X0127195Y0062519D01*
X0127353Y0062707D01*
X0127515Y0062891D01*
X0127683Y0063070D01*
X0127854Y0063246D01*
X0128030Y0063417D01*
X0128209Y0063585D01*
X0128393Y0063747D01*
X0128581Y0063905D01*
X0128773Y0064058D01*
X0128968Y0064207D01*
X0129167Y0064351D01*
X0129369Y0064490D01*
X0129575Y0064624D01*
X0129784Y0064752D01*
X0129996Y0064876D01*
X0130211Y0064994D01*
X0130429Y0065107D01*
X0130649Y0065215D01*
X0130873Y0065317D01*
X0131098Y0065414D01*
X0131326Y0065505D01*
X0131556Y0065590D01*
X0131788Y0065670D01*
X0132022Y0065744D01*
X0132258Y0065813D01*
X0132495Y0065875D01*
X0132734Y0065932D01*
X0132974Y0065983D01*
X0133215Y0066028D01*
X0133458Y0066067D01*
X0133701Y0066100D01*
X0133945Y0066127D01*
X0134189Y0066148D01*
X0134434Y0066163D01*
X0134680Y0066172D01*
X0134925Y0066175D01*
X0135170Y0066172D01*
X0135416Y0066163D01*
X0135661Y0066148D01*
X0135905Y0066127D01*
X0136149Y0066100D01*
X0136392Y0066067D01*
X0136635Y0066028D01*
X0136876Y0065983D01*
X0137116Y0065932D01*
X0137355Y0065875D01*
X0137592Y0065813D01*
X0137828Y0065744D01*
X0138062Y0065670D01*
X0138294Y0065590D01*
X0138524Y0065505D01*
X0138752Y0065414D01*
X0138977Y0065317D01*
X0139201Y0065215D01*
X0139421Y0065107D01*
X0139639Y0064994D01*
X0139854Y0064876D01*
X0140066Y0064752D01*
X0140275Y0064624D01*
X0140481Y0064490D01*
X0140683Y0064351D01*
X0140882Y0064207D01*
X0141077Y0064058D01*
X0141269Y0063905D01*
X0141457Y0063747D01*
X0141641Y0063585D01*
X0141820Y0063417D01*
X0141996Y0063246D01*
X0142167Y0063070D01*
X0142335Y0062891D01*
X0142497Y0062707D01*
X0142655Y0062519D01*
X0142808Y0062327D01*
X0142957Y0062132D01*
X0143101Y0061933D01*
X0143240Y0061731D01*
X0143374Y0061525D01*
X0143502Y0061316D01*
X0143626Y0061104D01*
X0143744Y0060889D01*
X0143857Y0060671D01*
X0143965Y0060451D01*
X0144067Y0060227D01*
X0144164Y0060002D01*
X0144255Y0059774D01*
X0144340Y0059544D01*
X0144420Y0059312D01*
X0144494Y0059078D01*
X0144563Y0058842D01*
X0144625Y0058605D01*
X0144682Y0058366D01*
X0144733Y0058126D01*
X0144778Y0057885D01*
X0144817Y0057642D01*
X0144850Y0057399D01*
X0144877Y0057155D01*
X0144898Y0056911D01*
X0144913Y0056666D01*
X0144922Y0056420D01*
X0144925Y0056175D01*
X0144922Y0055930D01*
X0144913Y0055684D01*
X0144898Y0055439D01*
X0144877Y0055195D01*
X0144850Y0054951D01*
X0144817Y0054708D01*
X0144778Y0054465D01*
X0144733Y0054224D01*
X0144682Y0053984D01*
X0144625Y0053745D01*
X0144563Y0053508D01*
X0144494Y0053272D01*
X0144420Y0053038D01*
X0144340Y0052806D01*
X0144255Y0052576D01*
X0144164Y0052348D01*
X0144067Y0052123D01*
X0143965Y0051899D01*
X0143857Y0051679D01*
X0143744Y0051461D01*
X0143626Y0051246D01*
X0143502Y0051034D01*
X0143374Y0050825D01*
X0143240Y0050619D01*
X0143101Y0050417D01*
X0142957Y0050218D01*
X0142808Y0050023D01*
X0142655Y0049831D01*
X0142497Y0049643D01*
X0142335Y0049459D01*
X0142167Y0049280D01*
X0141996Y0049104D01*
X0141820Y0048933D01*
X0141641Y0048765D01*
X0141457Y0048603D01*
X0141269Y0048445D01*
X0141077Y0048292D01*
X0140882Y0048143D01*
X0140683Y0047999D01*
X0140481Y0047860D01*
X0140275Y0047726D01*
X0140066Y0047598D01*
X0139854Y0047474D01*
X0139639Y0047356D01*
X0139421Y0047243D01*
X0139201Y0047135D01*
X0138977Y0047033D01*
X0138752Y0046936D01*
X0138524Y0046845D01*
X0138294Y0046760D01*
X0138062Y0046680D01*
X0137828Y0046606D01*
X0137592Y0046537D01*
X0137355Y0046475D01*
X0137116Y0046418D01*
X0136876Y0046367D01*
X0136635Y0046322D01*
X0136392Y0046283D01*
X0136149Y0046250D01*
X0135905Y0046223D01*
X0135661Y0046202D01*
X0135416Y0046187D01*
X0135170Y0046178D01*
X0134925Y0046175D01*
X0134680Y0046178D01*
X0134434Y0046187D01*
X0134189Y0046202D01*
X0133945Y0046223D01*
X0133701Y0046250D01*
X0133458Y0046283D01*
X0133215Y0046322D01*
X0132974Y0046367D01*
X0132734Y0046418D01*
X0132495Y0046475D01*
X0132258Y0046537D01*
X0132022Y0046606D01*
X0131788Y0046680D01*
X0131556Y0046760D01*
X0131326Y0046845D01*
X0131098Y0046936D01*
X0130873Y0047033D01*
X0130649Y0047135D01*
X0130429Y0047243D01*
X0130211Y0047356D01*
X0129996Y0047474D01*
X0129784Y0047598D01*
X0129575Y0047726D01*
X0129369Y0047860D01*
X0129167Y0047999D01*
X0128968Y0048143D01*
X0128773Y0048292D01*
X0128581Y0048445D01*
X0128393Y0048603D01*
X0128209Y0048765D01*
X0128030Y0048933D01*
X0127854Y0049104D01*
X0127683Y0049280D01*
X0127515Y0049459D01*
X0127353Y0049643D01*
X0127195Y0049831D01*
X0127042Y0050023D01*
X0126893Y0050218D01*
X0126749Y0050417D01*
X0126610Y0050619D01*
X0126476Y0050825D01*
X0126348Y0051034D01*
X0126224Y0051246D01*
X0126106Y0051461D01*
X0125993Y0051679D01*
X0125885Y0051899D01*
X0125783Y0052123D01*
X0125686Y0052348D01*
X0125595Y0052576D01*
X0125510Y0052806D01*
X0125430Y0053038D01*
X0125356Y0053272D01*
X0125287Y0053508D01*
X0125225Y0053745D01*
X0125168Y0053984D01*
X0125117Y0054224D01*
X0125072Y0054465D01*
X0125033Y0054708D01*
X0125000Y0054951D01*
X0124973Y0055195D01*
X0124952Y0055439D01*
X0124937Y0055684D01*
X0124928Y0055930D01*
X0124925Y0056175D01*
X0125800Y0042175D02*
X0152800Y0042175D01*
X0152860Y0042173D01*
X0152921Y0042168D01*
X0152980Y0042159D01*
X0153039Y0042146D01*
X0153098Y0042130D01*
X0153155Y0042110D01*
X0153210Y0042087D01*
X0153265Y0042060D01*
X0153317Y0042031D01*
X0153368Y0041998D01*
X0153417Y0041962D01*
X0153463Y0041924D01*
X0153507Y0041882D01*
X0153549Y0041838D01*
X0153587Y0041792D01*
X0153623Y0041743D01*
X0153656Y0041692D01*
X0153685Y0041640D01*
X0153712Y0041585D01*
X0153735Y0041530D01*
X0153755Y0041473D01*
X0153771Y0041414D01*
X0153784Y0041355D01*
X0153793Y0041296D01*
X0153798Y0041235D01*
X0153800Y0041175D01*
X0153800Y0031175D01*
X0153798Y0031115D01*
X0153793Y0031054D01*
X0153784Y0030995D01*
X0153771Y0030936D01*
X0153755Y0030877D01*
X0153735Y0030820D01*
X0153712Y0030765D01*
X0153685Y0030710D01*
X0153656Y0030658D01*
X0153623Y0030607D01*
X0153587Y0030558D01*
X0153549Y0030512D01*
X0153507Y0030468D01*
X0153463Y0030426D01*
X0153417Y0030388D01*
X0153368Y0030352D01*
X0153317Y0030319D01*
X0153265Y0030290D01*
X0153210Y0030263D01*
X0153155Y0030240D01*
X0153098Y0030220D01*
X0153039Y0030204D01*
X0152980Y0030191D01*
X0152921Y0030182D01*
X0152860Y0030177D01*
X0152800Y0030175D01*
X0125800Y0030175D01*
X0125740Y0030177D01*
X0125679Y0030182D01*
X0125620Y0030191D01*
X0125561Y0030204D01*
X0125502Y0030220D01*
X0125445Y0030240D01*
X0125390Y0030263D01*
X0125335Y0030290D01*
X0125283Y0030319D01*
X0125232Y0030352D01*
X0125183Y0030388D01*
X0125137Y0030426D01*
X0125093Y0030468D01*
X0125051Y0030512D01*
X0125013Y0030558D01*
X0124977Y0030607D01*
X0124944Y0030658D01*
X0124915Y0030710D01*
X0124888Y0030765D01*
X0124865Y0030820D01*
X0124845Y0030877D01*
X0124829Y0030936D01*
X0124816Y0030995D01*
X0124807Y0031054D01*
X0124802Y0031115D01*
X0124800Y0031175D01*
X0124800Y0041175D01*
X0124802Y0041235D01*
X0124807Y0041296D01*
X0124816Y0041355D01*
X0124829Y0041414D01*
X0124845Y0041473D01*
X0124865Y0041530D01*
X0124888Y0041585D01*
X0124915Y0041640D01*
X0124944Y0041692D01*
X0124977Y0041743D01*
X0125013Y0041792D01*
X0125051Y0041838D01*
X0125093Y0041882D01*
X0125137Y0041924D01*
X0125183Y0041962D01*
X0125232Y0041998D01*
X0125283Y0042031D01*
X0125335Y0042060D01*
X0125390Y0042087D01*
X0125445Y0042110D01*
X0125502Y0042130D01*
X0125561Y0042146D01*
X0125620Y0042159D01*
X0125679Y0042168D01*
X0125740Y0042173D01*
X0125800Y0042175D01*
X0133300Y0036175D02*
X0138100Y0036175D01*
X0140600Y0036175D02*
X0145300Y0036175D01*
X0124050Y0074300D02*
X0119250Y0074300D01*
X0116750Y0074300D02*
X0112050Y0074300D01*
X0181675Y0116550D02*
X0181675Y0124550D01*
X0181677Y0124610D01*
X0181682Y0124671D01*
X0181691Y0124730D01*
X0181704Y0124789D01*
X0181720Y0124848D01*
X0181740Y0124905D01*
X0181763Y0124960D01*
X0181790Y0125015D01*
X0181819Y0125067D01*
X0181852Y0125118D01*
X0181888Y0125167D01*
X0181926Y0125213D01*
X0181968Y0125257D01*
X0182012Y0125299D01*
X0182058Y0125337D01*
X0182107Y0125373D01*
X0182158Y0125406D01*
X0182210Y0125435D01*
X0182265Y0125462D01*
X0182320Y0125485D01*
X0182377Y0125505D01*
X0182436Y0125521D01*
X0182495Y0125534D01*
X0182554Y0125543D01*
X0182615Y0125548D01*
X0182675Y0125550D01*
X0209675Y0125550D01*
X0209735Y0125548D01*
X0209796Y0125543D01*
X0209855Y0125534D01*
X0209914Y0125521D01*
X0209973Y0125505D01*
X0210030Y0125485D01*
X0210085Y0125462D01*
X0210140Y0125435D01*
X0210192Y0125406D01*
X0210243Y0125373D01*
X0210292Y0125337D01*
X0210338Y0125299D01*
X0210382Y0125257D01*
X0210424Y0125213D01*
X0210462Y0125167D01*
X0210498Y0125118D01*
X0210531Y0125067D01*
X0210560Y0125015D01*
X0210587Y0124960D01*
X0210610Y0124905D01*
X0210630Y0124848D01*
X0210646Y0124789D01*
X0210659Y0124730D01*
X0210668Y0124671D01*
X0210673Y0124610D01*
X0210675Y0124550D01*
X0210675Y0116550D01*
X0210673Y0116490D01*
X0210668Y0116429D01*
X0210659Y0116370D01*
X0210646Y0116311D01*
X0210630Y0116252D01*
X0210610Y0116195D01*
X0210587Y0116140D01*
X0210560Y0116085D01*
X0210531Y0116033D01*
X0210498Y0115982D01*
X0210462Y0115933D01*
X0210424Y0115887D01*
X0210382Y0115843D01*
X0210338Y0115801D01*
X0210292Y0115763D01*
X0210243Y0115727D01*
X0210192Y0115694D01*
X0210140Y0115665D01*
X0210085Y0115638D01*
X0210030Y0115615D01*
X0209973Y0115595D01*
X0209914Y0115579D01*
X0209855Y0115566D01*
X0209796Y0115557D01*
X0209735Y0115552D01*
X0209675Y0115550D01*
X0182675Y0115550D01*
X0182615Y0115552D01*
X0182554Y0115557D01*
X0182495Y0115566D01*
X0182436Y0115579D01*
X0182377Y0115595D01*
X0182320Y0115615D01*
X0182265Y0115638D01*
X0182210Y0115665D01*
X0182158Y0115694D01*
X0182107Y0115727D01*
X0182058Y0115763D01*
X0182012Y0115801D01*
X0181968Y0115843D01*
X0181926Y0115887D01*
X0181888Y0115933D01*
X0181852Y0115982D01*
X0181819Y0116033D01*
X0181790Y0116085D01*
X0181763Y0116140D01*
X0181740Y0116195D01*
X0181720Y0116252D01*
X0181704Y0116311D01*
X0181691Y0116370D01*
X0181682Y0116429D01*
X0181677Y0116490D01*
X0181675Y0116550D01*
X0190175Y0120550D02*
X0194875Y0120550D01*
X0197375Y0120550D02*
X0202175Y0120550D01*
X0216800Y0117050D02*
X0216800Y0144050D01*
X0216802Y0144110D01*
X0216807Y0144171D01*
X0216816Y0144230D01*
X0216829Y0144289D01*
X0216845Y0144348D01*
X0216865Y0144405D01*
X0216888Y0144460D01*
X0216915Y0144515D01*
X0216944Y0144567D01*
X0216977Y0144618D01*
X0217013Y0144667D01*
X0217051Y0144713D01*
X0217093Y0144757D01*
X0217137Y0144799D01*
X0217183Y0144837D01*
X0217232Y0144873D01*
X0217283Y0144906D01*
X0217335Y0144935D01*
X0217390Y0144962D01*
X0217445Y0144985D01*
X0217502Y0145005D01*
X0217561Y0145021D01*
X0217620Y0145034D01*
X0217679Y0145043D01*
X0217740Y0145048D01*
X0217800Y0145050D01*
X0225800Y0145050D01*
X0225860Y0145048D01*
X0225921Y0145043D01*
X0225980Y0145034D01*
X0226039Y0145021D01*
X0226098Y0145005D01*
X0226155Y0144985D01*
X0226210Y0144962D01*
X0226265Y0144935D01*
X0226317Y0144906D01*
X0226368Y0144873D01*
X0226417Y0144837D01*
X0226463Y0144799D01*
X0226507Y0144757D01*
X0226549Y0144713D01*
X0226587Y0144667D01*
X0226623Y0144618D01*
X0226656Y0144567D01*
X0226685Y0144515D01*
X0226712Y0144460D01*
X0226735Y0144405D01*
X0226755Y0144348D01*
X0226771Y0144289D01*
X0226784Y0144230D01*
X0226793Y0144171D01*
X0226798Y0144110D01*
X0226800Y0144050D01*
X0226800Y0117050D01*
X0226798Y0116990D01*
X0226793Y0116929D01*
X0226784Y0116870D01*
X0226771Y0116811D01*
X0226755Y0116752D01*
X0226735Y0116695D01*
X0226712Y0116640D01*
X0226685Y0116585D01*
X0226656Y0116533D01*
X0226623Y0116482D01*
X0226587Y0116433D01*
X0226549Y0116387D01*
X0226507Y0116343D01*
X0226463Y0116301D01*
X0226417Y0116263D01*
X0226368Y0116227D01*
X0226317Y0116194D01*
X0226265Y0116165D01*
X0226210Y0116138D01*
X0226155Y0116115D01*
X0226098Y0116095D01*
X0226039Y0116079D01*
X0225980Y0116066D01*
X0225921Y0116057D01*
X0225860Y0116052D01*
X0225800Y0116050D01*
X0217800Y0116050D01*
X0217740Y0116052D01*
X0217679Y0116057D01*
X0217620Y0116066D01*
X0217561Y0116079D01*
X0217502Y0116095D01*
X0217445Y0116115D01*
X0217390Y0116138D01*
X0217335Y0116165D01*
X0217283Y0116194D01*
X0217232Y0116227D01*
X0217183Y0116263D01*
X0217137Y0116301D01*
X0217093Y0116343D01*
X0217051Y0116387D01*
X0217013Y0116433D01*
X0216977Y0116482D01*
X0216944Y0116533D01*
X0216915Y0116585D01*
X0216888Y0116640D01*
X0216865Y0116695D01*
X0216845Y0116752D01*
X0216829Y0116811D01*
X0216816Y0116870D01*
X0216807Y0116929D01*
X0216802Y0116990D01*
X0216800Y0117050D01*
X0221800Y0124550D02*
X0221800Y0129250D01*
X0221800Y0131750D02*
X0221800Y0136550D01*
X0210675Y0136550D02*
X0210675Y0144550D01*
X0210673Y0144610D01*
X0210668Y0144671D01*
X0210659Y0144730D01*
X0210646Y0144789D01*
X0210630Y0144848D01*
X0210610Y0144905D01*
X0210587Y0144960D01*
X0210560Y0145015D01*
X0210531Y0145067D01*
X0210498Y0145118D01*
X0210462Y0145167D01*
X0210424Y0145213D01*
X0210382Y0145257D01*
X0210338Y0145299D01*
X0210292Y0145337D01*
X0210243Y0145373D01*
X0210192Y0145406D01*
X0210140Y0145435D01*
X0210085Y0145462D01*
X0210030Y0145485D01*
X0209973Y0145505D01*
X0209914Y0145521D01*
X0209855Y0145534D01*
X0209796Y0145543D01*
X0209735Y0145548D01*
X0209675Y0145550D01*
X0182675Y0145550D01*
X0182615Y0145548D01*
X0182554Y0145543D01*
X0182495Y0145534D01*
X0182436Y0145521D01*
X0182377Y0145505D01*
X0182320Y0145485D01*
X0182265Y0145462D01*
X0182210Y0145435D01*
X0182158Y0145406D01*
X0182107Y0145373D01*
X0182058Y0145337D01*
X0182012Y0145299D01*
X0181968Y0145257D01*
X0181926Y0145213D01*
X0181888Y0145167D01*
X0181852Y0145118D01*
X0181819Y0145067D01*
X0181790Y0145015D01*
X0181763Y0144960D01*
X0181740Y0144905D01*
X0181720Y0144848D01*
X0181704Y0144789D01*
X0181691Y0144730D01*
X0181682Y0144671D01*
X0181677Y0144610D01*
X0181675Y0144550D01*
X0181675Y0136550D01*
X0181677Y0136490D01*
X0181682Y0136429D01*
X0181691Y0136370D01*
X0181704Y0136311D01*
X0181720Y0136252D01*
X0181740Y0136195D01*
X0181763Y0136140D01*
X0181790Y0136085D01*
X0181819Y0136033D01*
X0181852Y0135982D01*
X0181888Y0135933D01*
X0181926Y0135887D01*
X0181968Y0135843D01*
X0182012Y0135801D01*
X0182058Y0135763D01*
X0182107Y0135727D01*
X0182158Y0135694D01*
X0182210Y0135665D01*
X0182265Y0135638D01*
X0182320Y0135615D01*
X0182377Y0135595D01*
X0182436Y0135579D01*
X0182495Y0135566D01*
X0182554Y0135557D01*
X0182615Y0135552D01*
X0182675Y0135550D01*
X0209675Y0135550D01*
X0209735Y0135552D01*
X0209796Y0135557D01*
X0209855Y0135566D01*
X0209914Y0135579D01*
X0209973Y0135595D01*
X0210030Y0135615D01*
X0210085Y0135638D01*
X0210140Y0135665D01*
X0210192Y0135694D01*
X0210243Y0135727D01*
X0210292Y0135763D01*
X0210338Y0135801D01*
X0210382Y0135843D01*
X0210424Y0135887D01*
X0210462Y0135933D01*
X0210498Y0135982D01*
X0210531Y0136033D01*
X0210560Y0136085D01*
X0210587Y0136140D01*
X0210610Y0136195D01*
X0210630Y0136252D01*
X0210646Y0136311D01*
X0210659Y0136370D01*
X0210668Y0136429D01*
X0210673Y0136490D01*
X0210675Y0136550D01*
X0202175Y0140550D02*
X0197475Y0140550D01*
X0194975Y0140550D02*
X0190175Y0140550D01*
X0238050Y0137550D02*
X0238050Y0143550D01*
X0238052Y0143610D01*
X0238057Y0143671D01*
X0238066Y0143730D01*
X0238079Y0143789D01*
X0238095Y0143848D01*
X0238115Y0143905D01*
X0238138Y0143960D01*
X0238165Y0144015D01*
X0238194Y0144067D01*
X0238227Y0144118D01*
X0238263Y0144167D01*
X0238301Y0144213D01*
X0238343Y0144257D01*
X0238387Y0144299D01*
X0238433Y0144337D01*
X0238482Y0144373D01*
X0238533Y0144406D01*
X0238585Y0144435D01*
X0238640Y0144462D01*
X0238695Y0144485D01*
X0238752Y0144505D01*
X0238811Y0144521D01*
X0238870Y0144534D01*
X0238929Y0144543D01*
X0238990Y0144548D01*
X0239050Y0144550D01*
X0240550Y0144550D01*
X0241050Y0144050D01*
X0255050Y0144050D01*
X0255550Y0144550D01*
X0257050Y0144550D01*
X0257110Y0144548D01*
X0257171Y0144543D01*
X0257230Y0144534D01*
X0257289Y0144521D01*
X0257348Y0144505D01*
X0257405Y0144485D01*
X0257460Y0144462D01*
X0257515Y0144435D01*
X0257567Y0144406D01*
X0257618Y0144373D01*
X0257667Y0144337D01*
X0257713Y0144299D01*
X0257757Y0144257D01*
X0257799Y0144213D01*
X0257837Y0144167D01*
X0257873Y0144118D01*
X0257906Y0144067D01*
X0257935Y0144015D01*
X0257962Y0143960D01*
X0257985Y0143905D01*
X0258005Y0143848D01*
X0258021Y0143789D01*
X0258034Y0143730D01*
X0258043Y0143671D01*
X0258048Y0143610D01*
X0258050Y0143550D01*
X0258050Y0137550D01*
X0258048Y0137490D01*
X0258043Y0137429D01*
X0258034Y0137370D01*
X0258021Y0137311D01*
X0258005Y0137252D01*
X0257985Y0137195D01*
X0257962Y0137140D01*
X0257935Y0137085D01*
X0257906Y0137033D01*
X0257873Y0136982D01*
X0257837Y0136933D01*
X0257799Y0136887D01*
X0257757Y0136843D01*
X0257713Y0136801D01*
X0257667Y0136763D01*
X0257618Y0136727D01*
X0257567Y0136694D01*
X0257515Y0136665D01*
X0257460Y0136638D01*
X0257405Y0136615D01*
X0257348Y0136595D01*
X0257289Y0136579D01*
X0257230Y0136566D01*
X0257171Y0136557D01*
X0257110Y0136552D01*
X0257050Y0136550D01*
X0255550Y0136550D01*
X0255050Y0137050D01*
X0241050Y0137050D01*
X0240550Y0136550D01*
X0239050Y0136550D01*
X0238990Y0136552D01*
X0238929Y0136557D01*
X0238870Y0136566D01*
X0238811Y0136579D01*
X0238752Y0136595D01*
X0238695Y0136615D01*
X0238640Y0136638D01*
X0238585Y0136665D01*
X0238533Y0136694D01*
X0238482Y0136727D01*
X0238433Y0136763D01*
X0238387Y0136801D01*
X0238343Y0136843D01*
X0238301Y0136887D01*
X0238263Y0136933D01*
X0238227Y0136982D01*
X0238194Y0137033D01*
X0238165Y0137085D01*
X0238138Y0137140D01*
X0238115Y0137195D01*
X0238095Y0137252D01*
X0238079Y0137311D01*
X0238066Y0137370D01*
X0238057Y0137429D01*
X0238052Y0137490D01*
X0238050Y0137550D01*
X0239050Y0124550D02*
X0240550Y0124550D01*
X0241050Y0124050D01*
X0255050Y0124050D01*
X0255550Y0124550D01*
X0257050Y0124550D01*
X0257110Y0124548D01*
X0257171Y0124543D01*
X0257230Y0124534D01*
X0257289Y0124521D01*
X0257348Y0124505D01*
X0257405Y0124485D01*
X0257460Y0124462D01*
X0257515Y0124435D01*
X0257567Y0124406D01*
X0257618Y0124373D01*
X0257667Y0124337D01*
X0257713Y0124299D01*
X0257757Y0124257D01*
X0257799Y0124213D01*
X0257837Y0124167D01*
X0257873Y0124118D01*
X0257906Y0124067D01*
X0257935Y0124015D01*
X0257962Y0123960D01*
X0257985Y0123905D01*
X0258005Y0123848D01*
X0258021Y0123789D01*
X0258034Y0123730D01*
X0258043Y0123671D01*
X0258048Y0123610D01*
X0258050Y0123550D01*
X0258050Y0117550D01*
X0258048Y0117490D01*
X0258043Y0117429D01*
X0258034Y0117370D01*
X0258021Y0117311D01*
X0258005Y0117252D01*
X0257985Y0117195D01*
X0257962Y0117140D01*
X0257935Y0117085D01*
X0257906Y0117033D01*
X0257873Y0116982D01*
X0257837Y0116933D01*
X0257799Y0116887D01*
X0257757Y0116843D01*
X0257713Y0116801D01*
X0257667Y0116763D01*
X0257618Y0116727D01*
X0257567Y0116694D01*
X0257515Y0116665D01*
X0257460Y0116638D01*
X0257405Y0116615D01*
X0257348Y0116595D01*
X0257289Y0116579D01*
X0257230Y0116566D01*
X0257171Y0116557D01*
X0257110Y0116552D01*
X0257050Y0116550D01*
X0255550Y0116550D01*
X0255050Y0117050D01*
X0241050Y0117050D01*
X0240550Y0116550D01*
X0239050Y0116550D01*
X0238990Y0116552D01*
X0238929Y0116557D01*
X0238870Y0116566D01*
X0238811Y0116579D01*
X0238752Y0116595D01*
X0238695Y0116615D01*
X0238640Y0116638D01*
X0238585Y0116665D01*
X0238533Y0116694D01*
X0238482Y0116727D01*
X0238433Y0116763D01*
X0238387Y0116801D01*
X0238343Y0116843D01*
X0238301Y0116887D01*
X0238263Y0116933D01*
X0238227Y0116982D01*
X0238194Y0117033D01*
X0238165Y0117085D01*
X0238138Y0117140D01*
X0238115Y0117195D01*
X0238095Y0117252D01*
X0238079Y0117311D01*
X0238066Y0117370D01*
X0238057Y0117429D01*
X0238052Y0117490D01*
X0238050Y0117550D01*
X0238050Y0123550D01*
X0238052Y0123610D01*
X0238057Y0123671D01*
X0238066Y0123730D01*
X0238079Y0123789D01*
X0238095Y0123848D01*
X0238115Y0123905D01*
X0238138Y0123960D01*
X0238165Y0124015D01*
X0238194Y0124067D01*
X0238227Y0124118D01*
X0238263Y0124167D01*
X0238301Y0124213D01*
X0238343Y0124257D01*
X0238387Y0124299D01*
X0238433Y0124337D01*
X0238482Y0124373D01*
X0238533Y0124406D01*
X0238585Y0124435D01*
X0238640Y0124462D01*
X0238695Y0124485D01*
X0238752Y0124505D01*
X0238811Y0124521D01*
X0238870Y0124534D01*
X0238929Y0124543D01*
X0238990Y0124548D01*
X0239050Y0124550D01*
X0267800Y0141325D02*
X0268300Y0141325D01*
X0268300Y0139325D01*
X0268300Y0141325D02*
X0268300Y0147325D01*
X0268300Y0152625D01*
X0267800Y0152625D01*
X0267800Y0158625D01*
X0268300Y0158625D01*
X0268300Y0152625D01*
X0268300Y0147325D02*
X0267800Y0147325D01*
X0267800Y0141325D01*
X0285800Y0148125D02*
X0285800Y0132125D01*
X0305300Y0132125D01*
X0305300Y0148125D01*
X0285800Y0148125D01*
X0286300Y0147125D02*
X0286300Y0133125D01*
X0286302Y0133065D01*
X0286307Y0133004D01*
X0286316Y0132945D01*
X0286329Y0132886D01*
X0286345Y0132827D01*
X0286365Y0132770D01*
X0286388Y0132715D01*
X0286415Y0132660D01*
X0286444Y0132608D01*
X0286477Y0132557D01*
X0286513Y0132508D01*
X0286551Y0132462D01*
X0286593Y0132418D01*
X0286637Y0132376D01*
X0286683Y0132338D01*
X0286732Y0132302D01*
X0286783Y0132269D01*
X0286835Y0132240D01*
X0286890Y0132213D01*
X0286945Y0132190D01*
X0287002Y0132170D01*
X0287061Y0132154D01*
X0287120Y0132141D01*
X0287179Y0132132D01*
X0287240Y0132127D01*
X0287300Y0132125D01*
X0286300Y0134625D02*
X0286302Y0134685D01*
X0286307Y0134746D01*
X0286316Y0134805D01*
X0286329Y0134864D01*
X0286345Y0134923D01*
X0286365Y0134980D01*
X0286388Y0135035D01*
X0286415Y0135090D01*
X0286444Y0135142D01*
X0286477Y0135193D01*
X0286513Y0135242D01*
X0286551Y0135288D01*
X0286593Y0135332D01*
X0286637Y0135374D01*
X0286683Y0135412D01*
X0286732Y0135448D01*
X0286783Y0135481D01*
X0286835Y0135510D01*
X0286890Y0135537D01*
X0286945Y0135560D01*
X0287002Y0135580D01*
X0287061Y0135596D01*
X0287120Y0135609D01*
X0287179Y0135618D01*
X0287240Y0135623D01*
X0287300Y0135625D01*
X0293800Y0135625D01*
X0296800Y0132125D02*
X0296995Y0132127D01*
X0297190Y0132134D01*
X0297384Y0132146D01*
X0297578Y0132163D01*
X0297772Y0132184D01*
X0297965Y0132210D01*
X0298157Y0132241D01*
X0298349Y0132276D01*
X0298539Y0132316D01*
X0298729Y0132361D01*
X0298918Y0132410D01*
X0299105Y0132464D01*
X0299291Y0132523D01*
X0299475Y0132585D01*
X0299658Y0132653D01*
X0299839Y0132725D01*
X0300018Y0132801D01*
X0300196Y0132881D01*
X0300371Y0132966D01*
X0300544Y0133055D01*
X0300715Y0133149D01*
X0300884Y0133246D01*
X0301050Y0133348D01*
X0301214Y0133453D01*
X0301375Y0133562D01*
X0301534Y0133676D01*
X0301689Y0133793D01*
X0301842Y0133914D01*
X0301992Y0134039D01*
X0302139Y0134167D01*
X0302282Y0134299D01*
X0302422Y0134434D01*
X0302559Y0134572D01*
X0302693Y0134714D01*
X0302823Y0134859D01*
X0302949Y0135008D01*
X0303072Y0135159D01*
X0303191Y0135313D01*
X0303306Y0135470D01*
X0303418Y0135630D01*
X0303525Y0135792D01*
X0303629Y0135957D01*
X0303728Y0136125D01*
X0303824Y0136295D01*
X0303915Y0136467D01*
X0304002Y0136641D01*
X0304084Y0136818D01*
X0304163Y0136996D01*
X0304237Y0137176D01*
X0304306Y0137358D01*
X0304372Y0137542D01*
X0304432Y0137727D01*
X0304488Y0137914D01*
X0304540Y0138102D01*
X0304587Y0138291D01*
X0304629Y0138481D01*
X0304667Y0138672D01*
X0304700Y0138864D01*
X0304728Y0139057D01*
X0304752Y0139250D01*
X0304771Y0139444D01*
X0304785Y0139638D01*
X0304795Y0139833D01*
X0304799Y0140028D01*
X0304799Y0140222D01*
X0304795Y0140417D01*
X0304785Y0140612D01*
X0304771Y0140806D01*
X0304752Y0141000D01*
X0304728Y0141193D01*
X0304700Y0141386D01*
X0304667Y0141578D01*
X0304629Y0141769D01*
X0304587Y0141959D01*
X0304540Y0142148D01*
X0304488Y0142336D01*
X0304432Y0142523D01*
X0304372Y0142708D01*
X0304306Y0142892D01*
X0304237Y0143074D01*
X0304163Y0143254D01*
X0304084Y0143432D01*
X0304002Y0143609D01*
X0303915Y0143783D01*
X0303824Y0143955D01*
X0303728Y0144125D01*
X0303629Y0144293D01*
X0303525Y0144458D01*
X0303418Y0144620D01*
X0303306Y0144780D01*
X0303191Y0144937D01*
X0303072Y0145091D01*
X0302949Y0145242D01*
X0302823Y0145391D01*
X0302693Y0145536D01*
X0302559Y0145678D01*
X0302422Y0145816D01*
X0302282Y0145951D01*
X0302139Y0146083D01*
X0301992Y0146211D01*
X0301842Y0146336D01*
X0301689Y0146457D01*
X0301534Y0146574D01*
X0301375Y0146688D01*
X0301214Y0146797D01*
X0301050Y0146902D01*
X0300884Y0147004D01*
X0300715Y0147101D01*
X0300544Y0147195D01*
X0300371Y0147284D01*
X0300196Y0147369D01*
X0300018Y0147449D01*
X0299839Y0147525D01*
X0299658Y0147597D01*
X0299475Y0147665D01*
X0299291Y0147727D01*
X0299105Y0147786D01*
X0298918Y0147840D01*
X0298729Y0147889D01*
X0298539Y0147934D01*
X0298349Y0147974D01*
X0298157Y0148009D01*
X0297965Y0148040D01*
X0297772Y0148066D01*
X0297578Y0148087D01*
X0297384Y0148104D01*
X0297190Y0148116D01*
X0296995Y0148123D01*
X0296800Y0148125D01*
X0293800Y0144625D02*
X0287300Y0144625D01*
X0287240Y0144627D01*
X0287179Y0144632D01*
X0287120Y0144641D01*
X0287061Y0144654D01*
X0287002Y0144670D01*
X0286945Y0144690D01*
X0286890Y0144713D01*
X0286835Y0144740D01*
X0286783Y0144769D01*
X0286732Y0144802D01*
X0286683Y0144838D01*
X0286637Y0144876D01*
X0286593Y0144918D01*
X0286551Y0144962D01*
X0286513Y0145008D01*
X0286477Y0145057D01*
X0286444Y0145108D01*
X0286415Y0145160D01*
X0286388Y0145215D01*
X0286365Y0145270D01*
X0286345Y0145327D01*
X0286329Y0145386D01*
X0286316Y0145445D01*
X0286307Y0145504D01*
X0286302Y0145565D01*
X0286300Y0145625D01*
X0286300Y0147125D02*
X0286302Y0147185D01*
X0286307Y0147246D01*
X0286316Y0147305D01*
X0286329Y0147364D01*
X0286345Y0147423D01*
X0286365Y0147480D01*
X0286388Y0147535D01*
X0286415Y0147590D01*
X0286444Y0147642D01*
X0286477Y0147693D01*
X0286513Y0147742D01*
X0286551Y0147788D01*
X0286593Y0147832D01*
X0286637Y0147874D01*
X0286683Y0147912D01*
X0286732Y0147948D01*
X0286783Y0147981D01*
X0286835Y0148010D01*
X0286890Y0148037D01*
X0286945Y0148060D01*
X0287002Y0148080D01*
X0287061Y0148096D01*
X0287120Y0148109D01*
X0287179Y0148118D01*
X0287240Y0148123D01*
X0287300Y0148125D01*
X0285800Y0151725D02*
X0305300Y0151725D01*
X0305300Y0167725D01*
X0285800Y0167725D01*
X0285800Y0151725D01*
X0286300Y0152725D02*
X0286300Y0166725D01*
X0286302Y0166785D01*
X0286307Y0166846D01*
X0286316Y0166905D01*
X0286329Y0166964D01*
X0286345Y0167023D01*
X0286365Y0167080D01*
X0286388Y0167135D01*
X0286415Y0167190D01*
X0286444Y0167242D01*
X0286477Y0167293D01*
X0286513Y0167342D01*
X0286551Y0167388D01*
X0286593Y0167432D01*
X0286637Y0167474D01*
X0286683Y0167512D01*
X0286732Y0167548D01*
X0286783Y0167581D01*
X0286835Y0167610D01*
X0286890Y0167637D01*
X0286945Y0167660D01*
X0287002Y0167680D01*
X0287061Y0167696D01*
X0287120Y0167709D01*
X0287179Y0167718D01*
X0287240Y0167723D01*
X0287300Y0167725D01*
X0286300Y0165225D02*
X0286302Y0165165D01*
X0286307Y0165104D01*
X0286316Y0165045D01*
X0286329Y0164986D01*
X0286345Y0164927D01*
X0286365Y0164870D01*
X0286388Y0164815D01*
X0286415Y0164760D01*
X0286444Y0164708D01*
X0286477Y0164657D01*
X0286513Y0164608D01*
X0286551Y0164562D01*
X0286593Y0164518D01*
X0286637Y0164476D01*
X0286683Y0164438D01*
X0286732Y0164402D01*
X0286783Y0164369D01*
X0286835Y0164340D01*
X0286890Y0164313D01*
X0286945Y0164290D01*
X0287002Y0164270D01*
X0287061Y0164254D01*
X0287120Y0164241D01*
X0287179Y0164232D01*
X0287240Y0164227D01*
X0287300Y0164225D01*
X0293800Y0164225D01*
X0296800Y0167725D02*
X0296995Y0167723D01*
X0297190Y0167716D01*
X0297384Y0167704D01*
X0297578Y0167687D01*
X0297772Y0167666D01*
X0297965Y0167640D01*
X0298157Y0167609D01*
X0298349Y0167574D01*
X0298539Y0167534D01*
X0298729Y0167489D01*
X0298918Y0167440D01*
X0299105Y0167386D01*
X0299291Y0167327D01*
X0299475Y0167265D01*
X0299658Y0167197D01*
X0299839Y0167125D01*
X0300018Y0167049D01*
X0300196Y0166969D01*
X0300371Y0166884D01*
X0300544Y0166795D01*
X0300715Y0166701D01*
X0300884Y0166604D01*
X0301050Y0166502D01*
X0301214Y0166397D01*
X0301375Y0166288D01*
X0301534Y0166174D01*
X0301689Y0166057D01*
X0301842Y0165936D01*
X0301992Y0165811D01*
X0302139Y0165683D01*
X0302282Y0165551D01*
X0302422Y0165416D01*
X0302559Y0165278D01*
X0302693Y0165136D01*
X0302823Y0164991D01*
X0302949Y0164842D01*
X0303072Y0164691D01*
X0303191Y0164537D01*
X0303306Y0164380D01*
X0303418Y0164220D01*
X0303525Y0164058D01*
X0303629Y0163893D01*
X0303728Y0163725D01*
X0303824Y0163555D01*
X0303915Y0163383D01*
X0304002Y0163209D01*
X0304084Y0163032D01*
X0304163Y0162854D01*
X0304237Y0162674D01*
X0304306Y0162492D01*
X0304372Y0162308D01*
X0304432Y0162123D01*
X0304488Y0161936D01*
X0304540Y0161748D01*
X0304587Y0161559D01*
X0304629Y0161369D01*
X0304667Y0161178D01*
X0304700Y0160986D01*
X0304728Y0160793D01*
X0304752Y0160600D01*
X0304771Y0160406D01*
X0304785Y0160212D01*
X0304795Y0160017D01*
X0304799Y0159822D01*
X0304799Y0159628D01*
X0304795Y0159433D01*
X0304785Y0159238D01*
X0304771Y0159044D01*
X0304752Y0158850D01*
X0304728Y0158657D01*
X0304700Y0158464D01*
X0304667Y0158272D01*
X0304629Y0158081D01*
X0304587Y0157891D01*
X0304540Y0157702D01*
X0304488Y0157514D01*
X0304432Y0157327D01*
X0304372Y0157142D01*
X0304306Y0156958D01*
X0304237Y0156776D01*
X0304163Y0156596D01*
X0304084Y0156418D01*
X0304002Y0156241D01*
X0303915Y0156067D01*
X0303824Y0155895D01*
X0303728Y0155725D01*
X0303629Y0155557D01*
X0303525Y0155392D01*
X0303418Y0155230D01*
X0303306Y0155070D01*
X0303191Y0154913D01*
X0303072Y0154759D01*
X0302949Y0154608D01*
X0302823Y0154459D01*
X0302693Y0154314D01*
X0302559Y0154172D01*
X0302422Y0154034D01*
X0302282Y0153899D01*
X0302139Y0153767D01*
X0301992Y0153639D01*
X0301842Y0153514D01*
X0301689Y0153393D01*
X0301534Y0153276D01*
X0301375Y0153162D01*
X0301214Y0153053D01*
X0301050Y0152948D01*
X0300884Y0152846D01*
X0300715Y0152749D01*
X0300544Y0152655D01*
X0300371Y0152566D01*
X0300196Y0152481D01*
X0300018Y0152401D01*
X0299839Y0152325D01*
X0299658Y0152253D01*
X0299475Y0152185D01*
X0299291Y0152123D01*
X0299105Y0152064D01*
X0298918Y0152010D01*
X0298729Y0151961D01*
X0298539Y0151916D01*
X0298349Y0151876D01*
X0298157Y0151841D01*
X0297965Y0151810D01*
X0297772Y0151784D01*
X0297578Y0151763D01*
X0297384Y0151746D01*
X0297190Y0151734D01*
X0296995Y0151727D01*
X0296800Y0151725D01*
X0293800Y0155225D02*
X0287300Y0155225D01*
X0287240Y0155223D01*
X0287179Y0155218D01*
X0287120Y0155209D01*
X0287061Y0155196D01*
X0287002Y0155180D01*
X0286945Y0155160D01*
X0286890Y0155137D01*
X0286835Y0155110D01*
X0286783Y0155081D01*
X0286732Y0155048D01*
X0286683Y0155012D01*
X0286637Y0154974D01*
X0286593Y0154932D01*
X0286551Y0154888D01*
X0286513Y0154842D01*
X0286477Y0154793D01*
X0286444Y0154742D01*
X0286415Y0154690D01*
X0286388Y0154635D01*
X0286365Y0154580D01*
X0286345Y0154523D01*
X0286329Y0154464D01*
X0286316Y0154405D01*
X0286307Y0154346D01*
X0286302Y0154285D01*
X0286300Y0154225D01*
X0286300Y0152725D02*
X0286302Y0152665D01*
X0286307Y0152604D01*
X0286316Y0152545D01*
X0286329Y0152486D01*
X0286345Y0152427D01*
X0286365Y0152370D01*
X0286388Y0152315D01*
X0286415Y0152260D01*
X0286444Y0152208D01*
X0286477Y0152157D01*
X0286513Y0152108D01*
X0286551Y0152062D01*
X0286593Y0152018D01*
X0286637Y0151976D01*
X0286683Y0151938D01*
X0286732Y0151902D01*
X0286783Y0151869D01*
X0286835Y0151840D01*
X0286890Y0151813D01*
X0286945Y0151790D01*
X0287002Y0151770D01*
X0287061Y0151754D01*
X0287120Y0151741D01*
X0287179Y0151732D01*
X0287240Y0151727D01*
X0287300Y0151725D01*
X0268300Y0158625D02*
X0268300Y0160625D01*
X0285800Y0171525D02*
X0285800Y0187525D01*
X0305300Y0187525D01*
X0305300Y0171525D01*
X0285800Y0171525D01*
X0286300Y0172525D02*
X0286300Y0186525D01*
X0286302Y0186585D01*
X0286307Y0186646D01*
X0286316Y0186705D01*
X0286329Y0186764D01*
X0286345Y0186823D01*
X0286365Y0186880D01*
X0286388Y0186935D01*
X0286415Y0186990D01*
X0286444Y0187042D01*
X0286477Y0187093D01*
X0286513Y0187142D01*
X0286551Y0187188D01*
X0286593Y0187232D01*
X0286637Y0187274D01*
X0286683Y0187312D01*
X0286732Y0187348D01*
X0286783Y0187381D01*
X0286835Y0187410D01*
X0286890Y0187437D01*
X0286945Y0187460D01*
X0287002Y0187480D01*
X0287061Y0187496D01*
X0287120Y0187509D01*
X0287179Y0187518D01*
X0287240Y0187523D01*
X0287300Y0187525D01*
X0286300Y0185025D02*
X0286302Y0184965D01*
X0286307Y0184904D01*
X0286316Y0184845D01*
X0286329Y0184786D01*
X0286345Y0184727D01*
X0286365Y0184670D01*
X0286388Y0184615D01*
X0286415Y0184560D01*
X0286444Y0184508D01*
X0286477Y0184457D01*
X0286513Y0184408D01*
X0286551Y0184362D01*
X0286593Y0184318D01*
X0286637Y0184276D01*
X0286683Y0184238D01*
X0286732Y0184202D01*
X0286783Y0184169D01*
X0286835Y0184140D01*
X0286890Y0184113D01*
X0286945Y0184090D01*
X0287002Y0184070D01*
X0287061Y0184054D01*
X0287120Y0184041D01*
X0287179Y0184032D01*
X0287240Y0184027D01*
X0287300Y0184025D01*
X0293800Y0184025D01*
X0296800Y0187525D02*
X0296995Y0187523D01*
X0297190Y0187516D01*
X0297384Y0187504D01*
X0297578Y0187487D01*
X0297772Y0187466D01*
X0297965Y0187440D01*
X0298157Y0187409D01*
X0298349Y0187374D01*
X0298539Y0187334D01*
X0298729Y0187289D01*
X0298918Y0187240D01*
X0299105Y0187186D01*
X0299291Y0187127D01*
X0299475Y0187065D01*
X0299658Y0186997D01*
X0299839Y0186925D01*
X0300018Y0186849D01*
X0300196Y0186769D01*
X0300371Y0186684D01*
X0300544Y0186595D01*
X0300715Y0186501D01*
X0300884Y0186404D01*
X0301050Y0186302D01*
X0301214Y0186197D01*
X0301375Y0186088D01*
X0301534Y0185974D01*
X0301689Y0185857D01*
X0301842Y0185736D01*
X0301992Y0185611D01*
X0302139Y0185483D01*
X0302282Y0185351D01*
X0302422Y0185216D01*
X0302559Y0185078D01*
X0302693Y0184936D01*
X0302823Y0184791D01*
X0302949Y0184642D01*
X0303072Y0184491D01*
X0303191Y0184337D01*
X0303306Y0184180D01*
X0303418Y0184020D01*
X0303525Y0183858D01*
X0303629Y0183693D01*
X0303728Y0183525D01*
X0303824Y0183355D01*
X0303915Y0183183D01*
X0304002Y0183009D01*
X0304084Y0182832D01*
X0304163Y0182654D01*
X0304237Y0182474D01*
X0304306Y0182292D01*
X0304372Y0182108D01*
X0304432Y0181923D01*
X0304488Y0181736D01*
X0304540Y0181548D01*
X0304587Y0181359D01*
X0304629Y0181169D01*
X0304667Y0180978D01*
X0304700Y0180786D01*
X0304728Y0180593D01*
X0304752Y0180400D01*
X0304771Y0180206D01*
X0304785Y0180012D01*
X0304795Y0179817D01*
X0304799Y0179622D01*
X0304799Y0179428D01*
X0304795Y0179233D01*
X0304785Y0179038D01*
X0304771Y0178844D01*
X0304752Y0178650D01*
X0304728Y0178457D01*
X0304700Y0178264D01*
X0304667Y0178072D01*
X0304629Y0177881D01*
X0304587Y0177691D01*
X0304540Y0177502D01*
X0304488Y0177314D01*
X0304432Y0177127D01*
X0304372Y0176942D01*
X0304306Y0176758D01*
X0304237Y0176576D01*
X0304163Y0176396D01*
X0304084Y0176218D01*
X0304002Y0176041D01*
X0303915Y0175867D01*
X0303824Y0175695D01*
X0303728Y0175525D01*
X0303629Y0175357D01*
X0303525Y0175192D01*
X0303418Y0175030D01*
X0303306Y0174870D01*
X0303191Y0174713D01*
X0303072Y0174559D01*
X0302949Y0174408D01*
X0302823Y0174259D01*
X0302693Y0174114D01*
X0302559Y0173972D01*
X0302422Y0173834D01*
X0302282Y0173699D01*
X0302139Y0173567D01*
X0301992Y0173439D01*
X0301842Y0173314D01*
X0301689Y0173193D01*
X0301534Y0173076D01*
X0301375Y0172962D01*
X0301214Y0172853D01*
X0301050Y0172748D01*
X0300884Y0172646D01*
X0300715Y0172549D01*
X0300544Y0172455D01*
X0300371Y0172366D01*
X0300196Y0172281D01*
X0300018Y0172201D01*
X0299839Y0172125D01*
X0299658Y0172053D01*
X0299475Y0171985D01*
X0299291Y0171923D01*
X0299105Y0171864D01*
X0298918Y0171810D01*
X0298729Y0171761D01*
X0298539Y0171716D01*
X0298349Y0171676D01*
X0298157Y0171641D01*
X0297965Y0171610D01*
X0297772Y0171584D01*
X0297578Y0171563D01*
X0297384Y0171546D01*
X0297190Y0171534D01*
X0296995Y0171527D01*
X0296800Y0171525D01*
X0293800Y0175025D02*
X0287300Y0175025D01*
X0287240Y0175023D01*
X0287179Y0175018D01*
X0287120Y0175009D01*
X0287061Y0174996D01*
X0287002Y0174980D01*
X0286945Y0174960D01*
X0286890Y0174937D01*
X0286835Y0174910D01*
X0286783Y0174881D01*
X0286732Y0174848D01*
X0286683Y0174812D01*
X0286637Y0174774D01*
X0286593Y0174732D01*
X0286551Y0174688D01*
X0286513Y0174642D01*
X0286477Y0174593D01*
X0286444Y0174542D01*
X0286415Y0174490D01*
X0286388Y0174435D01*
X0286365Y0174380D01*
X0286345Y0174323D01*
X0286329Y0174264D01*
X0286316Y0174205D01*
X0286307Y0174146D01*
X0286302Y0174085D01*
X0286300Y0174025D01*
X0286300Y0172525D02*
X0286302Y0172465D01*
X0286307Y0172404D01*
X0286316Y0172345D01*
X0286329Y0172286D01*
X0286345Y0172227D01*
X0286365Y0172170D01*
X0286388Y0172115D01*
X0286415Y0172060D01*
X0286444Y0172008D01*
X0286477Y0171957D01*
X0286513Y0171908D01*
X0286551Y0171862D01*
X0286593Y0171818D01*
X0286637Y0171776D01*
X0286683Y0171738D01*
X0286732Y0171702D01*
X0286783Y0171669D01*
X0286835Y0171640D01*
X0286890Y0171613D01*
X0286945Y0171590D01*
X0287002Y0171570D01*
X0287061Y0171554D01*
X0287120Y0171541D01*
X0287179Y0171532D01*
X0287240Y0171527D01*
X0287300Y0171525D01*
X0283300Y0189625D02*
X0283300Y0110225D01*
X0307800Y0110225D01*
X0305300Y0112325D02*
X0305300Y0128325D01*
X0285800Y0128325D01*
X0285800Y0112325D01*
X0305300Y0112325D01*
X0296800Y0112325D02*
X0296995Y0112327D01*
X0297190Y0112334D01*
X0297384Y0112346D01*
X0297578Y0112363D01*
X0297772Y0112384D01*
X0297965Y0112410D01*
X0298157Y0112441D01*
X0298349Y0112476D01*
X0298539Y0112516D01*
X0298729Y0112561D01*
X0298918Y0112610D01*
X0299105Y0112664D01*
X0299291Y0112723D01*
X0299475Y0112785D01*
X0299658Y0112853D01*
X0299839Y0112925D01*
X0300018Y0113001D01*
X0300196Y0113081D01*
X0300371Y0113166D01*
X0300544Y0113255D01*
X0300715Y0113349D01*
X0300884Y0113446D01*
X0301050Y0113548D01*
X0301214Y0113653D01*
X0301375Y0113762D01*
X0301534Y0113876D01*
X0301689Y0113993D01*
X0301842Y0114114D01*
X0301992Y0114239D01*
X0302139Y0114367D01*
X0302282Y0114499D01*
X0302422Y0114634D01*
X0302559Y0114772D01*
X0302693Y0114914D01*
X0302823Y0115059D01*
X0302949Y0115208D01*
X0303072Y0115359D01*
X0303191Y0115513D01*
X0303306Y0115670D01*
X0303418Y0115830D01*
X0303525Y0115992D01*
X0303629Y0116157D01*
X0303728Y0116325D01*
X0303824Y0116495D01*
X0303915Y0116667D01*
X0304002Y0116841D01*
X0304084Y0117018D01*
X0304163Y0117196D01*
X0304237Y0117376D01*
X0304306Y0117558D01*
X0304372Y0117742D01*
X0304432Y0117927D01*
X0304488Y0118114D01*
X0304540Y0118302D01*
X0304587Y0118491D01*
X0304629Y0118681D01*
X0304667Y0118872D01*
X0304700Y0119064D01*
X0304728Y0119257D01*
X0304752Y0119450D01*
X0304771Y0119644D01*
X0304785Y0119838D01*
X0304795Y0120033D01*
X0304799Y0120228D01*
X0304799Y0120422D01*
X0304795Y0120617D01*
X0304785Y0120812D01*
X0304771Y0121006D01*
X0304752Y0121200D01*
X0304728Y0121393D01*
X0304700Y0121586D01*
X0304667Y0121778D01*
X0304629Y0121969D01*
X0304587Y0122159D01*
X0304540Y0122348D01*
X0304488Y0122536D01*
X0304432Y0122723D01*
X0304372Y0122908D01*
X0304306Y0123092D01*
X0304237Y0123274D01*
X0304163Y0123454D01*
X0304084Y0123632D01*
X0304002Y0123809D01*
X0303915Y0123983D01*
X0303824Y0124155D01*
X0303728Y0124325D01*
X0303629Y0124493D01*
X0303525Y0124658D01*
X0303418Y0124820D01*
X0303306Y0124980D01*
X0303191Y0125137D01*
X0303072Y0125291D01*
X0302949Y0125442D01*
X0302823Y0125591D01*
X0302693Y0125736D01*
X0302559Y0125878D01*
X0302422Y0126016D01*
X0302282Y0126151D01*
X0302139Y0126283D01*
X0301992Y0126411D01*
X0301842Y0126536D01*
X0301689Y0126657D01*
X0301534Y0126774D01*
X0301375Y0126888D01*
X0301214Y0126997D01*
X0301050Y0127102D01*
X0300884Y0127204D01*
X0300715Y0127301D01*
X0300544Y0127395D01*
X0300371Y0127484D01*
X0300196Y0127569D01*
X0300018Y0127649D01*
X0299839Y0127725D01*
X0299658Y0127797D01*
X0299475Y0127865D01*
X0299291Y0127927D01*
X0299105Y0127986D01*
X0298918Y0128040D01*
X0298729Y0128089D01*
X0298539Y0128134D01*
X0298349Y0128174D01*
X0298157Y0128209D01*
X0297965Y0128240D01*
X0297772Y0128266D01*
X0297578Y0128287D01*
X0297384Y0128304D01*
X0297190Y0128316D01*
X0296995Y0128323D01*
X0296800Y0128325D01*
X0293800Y0124825D02*
X0287300Y0124825D01*
X0287240Y0124827D01*
X0287179Y0124832D01*
X0287120Y0124841D01*
X0287061Y0124854D01*
X0287002Y0124870D01*
X0286945Y0124890D01*
X0286890Y0124913D01*
X0286835Y0124940D01*
X0286783Y0124969D01*
X0286732Y0125002D01*
X0286683Y0125038D01*
X0286637Y0125076D01*
X0286593Y0125118D01*
X0286551Y0125162D01*
X0286513Y0125208D01*
X0286477Y0125257D01*
X0286444Y0125308D01*
X0286415Y0125360D01*
X0286388Y0125415D01*
X0286365Y0125470D01*
X0286345Y0125527D01*
X0286329Y0125586D01*
X0286316Y0125645D01*
X0286307Y0125704D01*
X0286302Y0125765D01*
X0286300Y0125825D01*
X0286300Y0127325D02*
X0286300Y0113325D01*
X0286302Y0113265D01*
X0286307Y0113204D01*
X0286316Y0113145D01*
X0286329Y0113086D01*
X0286345Y0113027D01*
X0286365Y0112970D01*
X0286388Y0112915D01*
X0286415Y0112860D01*
X0286444Y0112808D01*
X0286477Y0112757D01*
X0286513Y0112708D01*
X0286551Y0112662D01*
X0286593Y0112618D01*
X0286637Y0112576D01*
X0286683Y0112538D01*
X0286732Y0112502D01*
X0286783Y0112469D01*
X0286835Y0112440D01*
X0286890Y0112413D01*
X0286945Y0112390D01*
X0287002Y0112370D01*
X0287061Y0112354D01*
X0287120Y0112341D01*
X0287179Y0112332D01*
X0287240Y0112327D01*
X0287300Y0112325D01*
X0286300Y0114825D02*
X0286302Y0114885D01*
X0286307Y0114946D01*
X0286316Y0115005D01*
X0286329Y0115064D01*
X0286345Y0115123D01*
X0286365Y0115180D01*
X0286388Y0115235D01*
X0286415Y0115290D01*
X0286444Y0115342D01*
X0286477Y0115393D01*
X0286513Y0115442D01*
X0286551Y0115488D01*
X0286593Y0115532D01*
X0286637Y0115574D01*
X0286683Y0115612D01*
X0286732Y0115648D01*
X0286783Y0115681D01*
X0286835Y0115710D01*
X0286890Y0115737D01*
X0286945Y0115760D01*
X0287002Y0115780D01*
X0287061Y0115796D01*
X0287120Y0115809D01*
X0287179Y0115818D01*
X0287240Y0115823D01*
X0287300Y0115825D01*
X0293800Y0115825D01*
X0286300Y0127325D02*
X0286302Y0127385D01*
X0286307Y0127446D01*
X0286316Y0127505D01*
X0286329Y0127564D01*
X0286345Y0127623D01*
X0286365Y0127680D01*
X0286388Y0127735D01*
X0286415Y0127790D01*
X0286444Y0127842D01*
X0286477Y0127893D01*
X0286513Y0127942D01*
X0286551Y0127988D01*
X0286593Y0128032D01*
X0286637Y0128074D01*
X0286683Y0128112D01*
X0286732Y0128148D01*
X0286783Y0128181D01*
X0286835Y0128210D01*
X0286890Y0128237D01*
X0286945Y0128260D01*
X0287002Y0128280D01*
X0287061Y0128296D01*
X0287120Y0128309D01*
X0287179Y0128318D01*
X0287240Y0128323D01*
X0287300Y0128325D01*
D12*
X0279050Y0120923D02*
X0274546Y0120923D01*
X0276798Y0118671D01*
X0276798Y0121674D01*
X0275297Y0138471D02*
X0274546Y0139222D01*
X0274546Y0140723D01*
X0275297Y0141474D01*
X0276047Y0141474D01*
X0276798Y0140723D01*
X0277549Y0141474D01*
X0278299Y0141474D01*
X0279050Y0140723D01*
X0279050Y0139222D01*
X0278299Y0138471D01*
X0276798Y0139972D02*
X0276798Y0140723D01*
X0275297Y0157771D02*
X0274546Y0158522D01*
X0274546Y0160023D01*
X0275297Y0160774D01*
X0276047Y0160774D01*
X0279050Y0157771D01*
X0279050Y0160774D01*
X0279050Y0177871D02*
X0279050Y0180874D01*
X0279050Y0179372D02*
X0274546Y0179372D01*
X0276047Y0177871D01*
X0245410Y0169303D02*
X0243141Y0169303D01*
X0243141Y0167601D01*
X0244275Y0168169D01*
X0244843Y0168169D01*
X0245410Y0167601D01*
X0245410Y0166467D01*
X0244843Y0165900D01*
X0243708Y0165900D01*
X0243141Y0166467D01*
X0241819Y0165900D02*
X0240684Y0167034D01*
X0241251Y0167034D02*
X0239550Y0167034D01*
X0239550Y0165900D02*
X0239550Y0169303D01*
X0241251Y0169303D01*
X0241819Y0168736D01*
X0241819Y0167601D01*
X0241251Y0167034D01*
X0231300Y0167240D02*
X0231300Y0165739D01*
X0230549Y0164988D01*
X0227547Y0164988D01*
X0226796Y0165739D01*
X0226796Y0167240D01*
X0227547Y0167991D01*
X0228297Y0169592D02*
X0226796Y0171093D01*
X0231300Y0171093D01*
X0231300Y0169592D02*
X0231300Y0172595D01*
X0231300Y0174196D02*
X0228297Y0177199D01*
X0227547Y0177199D01*
X0226796Y0176448D01*
X0226796Y0174947D01*
X0227547Y0174196D01*
X0231300Y0174196D02*
X0231300Y0177199D01*
X0230549Y0167991D02*
X0231300Y0167240D01*
X0239550Y0185900D02*
X0239550Y0189303D01*
X0241251Y0189303D01*
X0241819Y0188736D01*
X0241819Y0187601D01*
X0241251Y0187034D01*
X0239550Y0187034D01*
X0240684Y0187034D02*
X0241819Y0185900D01*
X0243141Y0187601D02*
X0245410Y0187601D01*
X0244843Y0185900D02*
X0244843Y0189303D01*
X0243141Y0187601D01*
X0200010Y0186800D02*
X0197008Y0186800D01*
X0198509Y0186800D02*
X0198509Y0191304D01*
X0197008Y0189803D01*
X0195406Y0186800D02*
X0192404Y0186800D01*
X0193905Y0186800D02*
X0193905Y0191304D01*
X0192404Y0189803D01*
X0190803Y0190553D02*
X0190052Y0191304D01*
X0188551Y0191304D01*
X0187800Y0190553D01*
X0187800Y0187551D01*
X0188551Y0186800D01*
X0190052Y0186800D01*
X0190803Y0187551D01*
X0178323Y0163054D02*
X0176822Y0163054D01*
X0176071Y0162303D01*
X0177572Y0160802D02*
X0178323Y0160802D01*
X0179074Y0160051D01*
X0179074Y0159301D01*
X0178323Y0158550D01*
X0176822Y0158550D01*
X0176071Y0159301D01*
X0174470Y0158550D02*
X0171467Y0158550D01*
X0172968Y0158550D02*
X0172968Y0163054D01*
X0171467Y0161553D01*
X0169866Y0162303D02*
X0169115Y0163054D01*
X0167614Y0163054D01*
X0166863Y0162303D01*
X0166863Y0159301D01*
X0167614Y0158550D01*
X0169115Y0158550D01*
X0169866Y0159301D01*
X0178323Y0160802D02*
X0179074Y0161553D01*
X0179074Y0162303D01*
X0178323Y0163054D01*
X0152949Y0161803D02*
X0152198Y0162554D01*
X0150697Y0162554D01*
X0149946Y0161803D01*
X0148345Y0161803D02*
X0147594Y0162554D01*
X0146093Y0162554D01*
X0145342Y0161803D01*
X0145342Y0158801D01*
X0146093Y0158050D01*
X0147594Y0158050D01*
X0148345Y0158801D01*
X0149946Y0158050D02*
X0152949Y0161053D01*
X0152949Y0161803D01*
X0152949Y0158050D02*
X0149946Y0158050D01*
X0168425Y0142428D02*
X0168425Y0139426D01*
X0169176Y0138675D01*
X0170677Y0138675D01*
X0171428Y0139426D01*
X0173029Y0138675D02*
X0176031Y0138675D01*
X0174530Y0138675D02*
X0174530Y0143179D01*
X0173029Y0141678D01*
X0171428Y0142428D02*
X0170677Y0143179D01*
X0169176Y0143179D01*
X0168425Y0142428D01*
X0177633Y0143179D02*
X0180635Y0143179D01*
X0180635Y0142428D01*
X0177633Y0139426D01*
X0177633Y0138675D01*
X0178323Y0122429D02*
X0176822Y0122429D01*
X0176071Y0121678D01*
X0176071Y0120928D01*
X0176822Y0120177D01*
X0179074Y0120177D01*
X0179074Y0121678D02*
X0178323Y0122429D01*
X0179074Y0121678D02*
X0179074Y0118676D01*
X0178323Y0117925D01*
X0176822Y0117925D01*
X0176071Y0118676D01*
X0174470Y0117925D02*
X0171467Y0117925D01*
X0172968Y0117925D02*
X0172968Y0122429D01*
X0171467Y0120928D01*
X0169866Y0121678D02*
X0169115Y0122429D01*
X0167614Y0122429D01*
X0166863Y0121678D01*
X0166863Y0118676D01*
X0167614Y0117925D01*
X0169115Y0117925D01*
X0169866Y0118676D01*
X0187800Y0105553D02*
X0187800Y0102551D01*
X0188551Y0101800D01*
X0190052Y0101800D01*
X0190803Y0102551D01*
X0192404Y0102551D02*
X0192404Y0103301D01*
X0193155Y0104052D01*
X0194656Y0104052D01*
X0195406Y0103301D01*
X0195406Y0102551D01*
X0194656Y0101800D01*
X0193155Y0101800D01*
X0192404Y0102551D01*
X0193155Y0104052D02*
X0192404Y0104803D01*
X0192404Y0105553D01*
X0193155Y0106304D01*
X0194656Y0106304D01*
X0195406Y0105553D01*
X0195406Y0104803D01*
X0194656Y0104052D01*
X0190803Y0105553D02*
X0190052Y0106304D01*
X0188551Y0106304D01*
X0187800Y0105553D01*
X0177698Y0083054D02*
X0176197Y0083054D01*
X0175446Y0082303D01*
X0175446Y0079301D01*
X0178449Y0082303D01*
X0178449Y0079301D01*
X0177698Y0078550D01*
X0176197Y0078550D01*
X0175446Y0079301D01*
X0173845Y0078550D02*
X0170842Y0078550D01*
X0172343Y0078550D02*
X0172343Y0083054D01*
X0170842Y0081553D01*
X0169241Y0082303D02*
X0168490Y0083054D01*
X0166989Y0083054D01*
X0166238Y0082303D01*
X0166238Y0079301D01*
X0166989Y0078550D01*
X0168490Y0078550D01*
X0169241Y0079301D01*
X0177698Y0083054D02*
X0178449Y0082303D01*
X0164300Y0070948D02*
X0163549Y0071699D01*
X0162799Y0071699D01*
X0162048Y0070948D01*
X0162048Y0068696D01*
X0163549Y0068696D01*
X0164300Y0069447D01*
X0164300Y0070948D01*
X0162048Y0068696D02*
X0160547Y0070197D01*
X0159796Y0071699D01*
X0160547Y0067095D02*
X0159796Y0066344D01*
X0159796Y0064843D01*
X0160547Y0064092D01*
X0163549Y0064092D01*
X0164300Y0064843D01*
X0164300Y0066344D01*
X0163549Y0067095D01*
X0167926Y0058804D02*
X0167175Y0058053D01*
X0167175Y0055051D01*
X0167926Y0054300D01*
X0169427Y0054300D01*
X0170178Y0055051D01*
X0171779Y0054300D02*
X0174781Y0054300D01*
X0173280Y0054300D02*
X0173280Y0058804D01*
X0171779Y0057303D01*
X0170178Y0058053D02*
X0169427Y0058804D01*
X0167926Y0058804D01*
X0176383Y0056552D02*
X0179385Y0056552D01*
X0178635Y0054300D02*
X0178635Y0058804D01*
X0176383Y0056552D01*
X0154031Y0056926D02*
X0154031Y0056176D01*
X0153281Y0055425D01*
X0151780Y0055425D01*
X0151029Y0056176D01*
X0149428Y0056176D02*
X0148677Y0055425D01*
X0147176Y0055425D01*
X0146425Y0056176D01*
X0146425Y0059178D01*
X0147176Y0059929D01*
X0148677Y0059929D01*
X0149428Y0059178D01*
X0151029Y0059178D02*
X0151780Y0059929D01*
X0153281Y0059929D01*
X0154031Y0059178D01*
X0154031Y0058428D01*
X0153281Y0057677D01*
X0154031Y0056926D01*
X0153281Y0057677D02*
X0152530Y0057677D01*
X0135655Y0047929D02*
X0135655Y0043425D01*
X0134154Y0043425D02*
X0137156Y0043425D01*
X0134154Y0046428D02*
X0135655Y0047929D01*
X0132553Y0047178D02*
X0131802Y0047929D01*
X0130301Y0047929D01*
X0129550Y0047178D01*
X0129550Y0044176D01*
X0130301Y0043425D01*
X0131802Y0043425D01*
X0132553Y0044176D01*
X0101573Y0072550D02*
X0101573Y0077054D01*
X0099321Y0074802D01*
X0102324Y0074802D01*
X0097720Y0076303D02*
X0096969Y0077054D01*
X0095468Y0077054D01*
X0094717Y0076303D01*
X0094717Y0073301D01*
X0095468Y0072550D01*
X0096969Y0072550D01*
X0097720Y0073301D01*
X0121797Y0083925D02*
X0121797Y0085626D01*
X0122364Y0086194D01*
X0123499Y0086194D01*
X0124066Y0085626D01*
X0124066Y0083925D01*
X0125200Y0083925D02*
X0121797Y0083925D01*
X0124066Y0085059D02*
X0125200Y0086194D01*
X0125200Y0087516D02*
X0125200Y0089785D01*
X0125200Y0088650D02*
X0121797Y0088650D01*
X0122931Y0087516D01*
X0084925Y0127398D02*
X0084925Y0128899D01*
X0084925Y0128148D02*
X0080421Y0128148D01*
X0080421Y0127398D02*
X0080421Y0128899D01*
X0081172Y0130467D02*
X0080421Y0131218D01*
X0080421Y0132719D01*
X0081172Y0133470D01*
X0081172Y0135071D02*
X0080421Y0135822D01*
X0080421Y0137323D01*
X0081172Y0138074D01*
X0081922Y0138074D01*
X0084925Y0135071D01*
X0084925Y0138074D01*
X0084174Y0133470D02*
X0084925Y0132719D01*
X0084925Y0131218D01*
X0084174Y0130467D01*
X0081172Y0130467D01*
X0104046Y0153593D02*
X0104797Y0152842D01*
X0107799Y0152842D01*
X0108550Y0153593D01*
X0108550Y0155094D01*
X0107799Y0155845D01*
X0107799Y0157446D02*
X0108550Y0157446D01*
X0107799Y0157446D02*
X0104797Y0160449D01*
X0104046Y0160449D01*
X0104046Y0157446D01*
X0104797Y0155845D02*
X0104046Y0155094D01*
X0104046Y0153593D01*
X0073050Y0177092D02*
X0068546Y0177092D01*
X0068546Y0179344D01*
X0069297Y0180095D01*
X0072299Y0180095D01*
X0073050Y0179344D01*
X0073050Y0177092D01*
X0073050Y0181696D02*
X0073050Y0184699D01*
X0073050Y0183197D02*
X0068546Y0183197D01*
X0070047Y0181696D01*
X0039050Y0131699D02*
X0039050Y0128696D01*
X0039050Y0130197D02*
X0034546Y0130197D01*
X0036047Y0128696D01*
X0035297Y0127095D02*
X0036798Y0127095D01*
X0037549Y0126344D01*
X0037549Y0124092D01*
X0039050Y0124092D02*
X0034546Y0124092D01*
X0034546Y0126344D01*
X0035297Y0127095D01*
X0034546Y0122491D02*
X0034546Y0120989D01*
X0034546Y0121740D02*
X0038299Y0121740D01*
X0039050Y0120989D01*
X0039050Y0120239D01*
X0038299Y0119488D01*
X0145342Y0135676D02*
X0146093Y0134925D01*
X0147594Y0134925D01*
X0148345Y0135676D01*
X0149946Y0135676D02*
X0150697Y0134925D01*
X0152198Y0134925D01*
X0152949Y0135676D01*
X0152949Y0137177D01*
X0152198Y0137928D01*
X0151447Y0137928D01*
X0149946Y0137177D01*
X0149946Y0139429D01*
X0152949Y0139429D01*
X0148345Y0138678D02*
X0147594Y0139429D01*
X0146093Y0139429D01*
X0145342Y0138678D01*
X0145342Y0135676D01*
X0228046Y0134947D02*
X0228046Y0136448D01*
X0228797Y0137199D01*
X0229547Y0137199D01*
X0230298Y0136448D01*
X0230298Y0134947D01*
X0229547Y0134196D01*
X0228797Y0134196D01*
X0228046Y0134947D01*
X0230298Y0134947D02*
X0231049Y0134196D01*
X0231799Y0134196D01*
X0232550Y0134947D01*
X0232550Y0136448D01*
X0231799Y0137199D01*
X0231049Y0137199D01*
X0230298Y0136448D01*
X0232550Y0132595D02*
X0232550Y0129592D01*
X0232550Y0131093D02*
X0228046Y0131093D01*
X0229547Y0129592D01*
X0228797Y0127991D02*
X0228046Y0127240D01*
X0228046Y0125739D01*
X0228797Y0124988D01*
X0231799Y0124988D01*
X0232550Y0125739D01*
X0232550Y0127240D01*
X0231799Y0127991D01*
X0238300Y0127034D02*
X0240001Y0127034D01*
X0240569Y0127601D01*
X0240569Y0128736D01*
X0240001Y0129303D01*
X0238300Y0129303D01*
X0238300Y0125900D01*
X0239434Y0127034D02*
X0240569Y0125900D01*
X0241891Y0126467D02*
X0242458Y0125900D01*
X0243593Y0125900D01*
X0244160Y0126467D01*
X0244160Y0128736D01*
X0243593Y0129303D01*
X0242458Y0129303D01*
X0241891Y0128736D01*
X0241891Y0128169D01*
X0242458Y0127601D01*
X0244160Y0127601D01*
X0243593Y0145900D02*
X0242458Y0145900D01*
X0241891Y0146467D01*
X0241891Y0147034D01*
X0242458Y0147601D01*
X0243593Y0147601D01*
X0244160Y0147034D01*
X0244160Y0146467D01*
X0243593Y0145900D01*
X0243593Y0147601D02*
X0244160Y0148169D01*
X0244160Y0148736D01*
X0243593Y0149303D01*
X0242458Y0149303D01*
X0241891Y0148736D01*
X0241891Y0148169D01*
X0242458Y0147601D01*
X0240569Y0147601D02*
X0240569Y0148736D01*
X0240001Y0149303D01*
X0238300Y0149303D01*
X0238300Y0145900D01*
X0238300Y0147034D02*
X0240001Y0147034D01*
X0240569Y0147601D01*
X0239434Y0147034D02*
X0240569Y0145900D01*
X0241251Y0104303D02*
X0241819Y0103736D01*
X0241819Y0102601D01*
X0241251Y0102034D01*
X0239550Y0102034D01*
X0239550Y0100900D02*
X0239550Y0104303D01*
X0241251Y0104303D01*
X0243141Y0103736D02*
X0243708Y0104303D01*
X0244843Y0104303D01*
X0245410Y0103736D01*
X0245410Y0103169D01*
X0243141Y0100900D01*
X0245410Y0100900D01*
X0241819Y0100900D02*
X0240684Y0102034D01*
X0230549Y0092199D02*
X0227547Y0092199D01*
X0226796Y0091448D01*
X0226796Y0089947D01*
X0227547Y0089196D01*
X0228297Y0089196D01*
X0229048Y0089947D01*
X0229048Y0092199D01*
X0230549Y0092199D02*
X0231300Y0091448D01*
X0231300Y0089947D01*
X0230549Y0089196D01*
X0230549Y0087595D02*
X0231300Y0086844D01*
X0231300Y0085343D01*
X0230549Y0084592D01*
X0227547Y0084592D01*
X0226796Y0085343D01*
X0226796Y0086844D01*
X0227547Y0087595D01*
X0239550Y0084303D02*
X0239550Y0080900D01*
X0239550Y0082034D02*
X0241251Y0082034D01*
X0241819Y0082601D01*
X0241819Y0083736D01*
X0241251Y0084303D01*
X0239550Y0084303D01*
X0240684Y0082034D02*
X0241819Y0080900D01*
X0243141Y0081467D02*
X0243708Y0080900D01*
X0244843Y0080900D01*
X0245410Y0081467D01*
X0245410Y0082034D01*
X0244843Y0082601D01*
X0244275Y0082601D01*
X0244843Y0082601D02*
X0245410Y0083169D01*
X0245410Y0083736D01*
X0244843Y0084303D01*
X0243708Y0084303D01*
X0243141Y0083736D01*
X0241251Y0064303D02*
X0241819Y0063736D01*
X0241819Y0062601D01*
X0241251Y0062034D01*
X0239550Y0062034D01*
X0239550Y0060900D02*
X0239550Y0064303D01*
X0241251Y0064303D01*
X0243141Y0062601D02*
X0244843Y0062601D01*
X0245410Y0062034D01*
X0245410Y0061467D01*
X0244843Y0060900D01*
X0243708Y0060900D01*
X0243141Y0061467D01*
X0243141Y0062601D01*
X0244275Y0063736D01*
X0245410Y0064303D01*
X0241819Y0060900D02*
X0240684Y0062034D01*
X0231174Y0052199D02*
X0231925Y0051448D01*
X0231925Y0049947D01*
X0231174Y0049196D01*
X0229673Y0049196D02*
X0228922Y0050697D01*
X0228922Y0051448D01*
X0229673Y0052199D01*
X0231174Y0052199D01*
X0227421Y0052199D02*
X0227421Y0049196D01*
X0229673Y0049196D01*
X0231925Y0047595D02*
X0231925Y0044592D01*
X0231925Y0046093D02*
X0227421Y0046093D01*
X0228922Y0044592D01*
X0228172Y0042991D02*
X0227421Y0042240D01*
X0227421Y0040739D01*
X0228172Y0039988D01*
X0231174Y0039988D01*
X0231925Y0040739D01*
X0231925Y0042240D01*
X0231174Y0042991D01*
X0239550Y0042034D02*
X0241251Y0042034D01*
X0241819Y0042601D01*
X0241819Y0043736D01*
X0241251Y0044303D01*
X0239550Y0044303D01*
X0239550Y0040900D01*
X0240684Y0042034D02*
X0241819Y0040900D01*
X0243141Y0040900D02*
X0243141Y0041467D01*
X0245410Y0043736D01*
X0245410Y0044303D01*
X0243141Y0044303D01*
X0274546Y0037173D02*
X0276798Y0034921D01*
X0276798Y0037924D01*
X0279050Y0037173D02*
X0274546Y0037173D01*
X0275297Y0054721D02*
X0274546Y0055472D01*
X0274546Y0056973D01*
X0275297Y0057724D01*
X0276047Y0057724D01*
X0276798Y0056973D01*
X0277549Y0057724D01*
X0278299Y0057724D01*
X0279050Y0056973D01*
X0279050Y0055472D01*
X0278299Y0054721D01*
X0276798Y0056222D02*
X0276798Y0056973D01*
X0275297Y0074021D02*
X0274546Y0074772D01*
X0274546Y0076273D01*
X0275297Y0077024D01*
X0276047Y0077024D01*
X0279050Y0074021D01*
X0279050Y0077024D01*
X0279050Y0094121D02*
X0279050Y0097124D01*
X0279050Y0095622D02*
X0274546Y0095622D01*
X0276047Y0094121D01*
X0204199Y0028304D02*
X0202697Y0027553D01*
X0201196Y0026052D01*
X0203448Y0026052D01*
X0204199Y0025301D01*
X0204199Y0024551D01*
X0203448Y0023800D01*
X0201947Y0023800D01*
X0201196Y0024551D01*
X0201196Y0026052D01*
X0199595Y0023800D02*
X0196592Y0023800D01*
X0198093Y0023800D02*
X0198093Y0028304D01*
X0196592Y0026803D01*
X0194991Y0027553D02*
X0194240Y0028304D01*
X0192739Y0028304D01*
X0191988Y0027553D01*
X0191988Y0024551D01*
X0192739Y0023800D01*
X0194240Y0023800D01*
X0194991Y0024551D01*
D13*
X0194250Y0033050D02*
X0194250Y0035550D01*
X0194250Y0038050D01*
X0196750Y0038050D02*
X0196750Y0035550D01*
X0196750Y0033050D01*
X0218675Y0044250D02*
X0221175Y0044250D01*
X0223675Y0044250D01*
X0223675Y0046750D02*
X0221175Y0046750D01*
X0218675Y0046750D01*
X0196850Y0053050D02*
X0196850Y0055550D01*
X0196850Y0058050D01*
X0194350Y0058050D02*
X0194350Y0055550D01*
X0194350Y0053050D01*
X0194250Y0073050D02*
X0194250Y0075550D01*
X0194250Y0078050D01*
X0196750Y0078050D02*
X0196750Y0075550D01*
X0196750Y0073050D01*
X0218050Y0084250D02*
X0220550Y0084250D01*
X0223050Y0084250D01*
X0223050Y0086750D02*
X0220550Y0086750D01*
X0218050Y0086750D01*
X0196850Y0093050D02*
X0196850Y0095550D01*
X0196850Y0098050D01*
X0194350Y0098050D02*
X0194350Y0095550D01*
X0194350Y0093050D01*
X0194875Y0118050D02*
X0194875Y0120550D01*
X0194875Y0123050D01*
X0197375Y0123050D02*
X0197375Y0120550D01*
X0197375Y0118050D01*
X0219300Y0129250D02*
X0221800Y0129250D01*
X0224300Y0129250D01*
X0224300Y0131750D02*
X0221800Y0131750D01*
X0219300Y0131750D01*
X0197475Y0138050D02*
X0197475Y0140550D01*
X0197475Y0143050D01*
X0194975Y0143050D02*
X0194975Y0140550D01*
X0194975Y0138050D01*
X0194250Y0158050D02*
X0194250Y0160550D01*
X0194250Y0163050D01*
X0196750Y0163050D02*
X0196750Y0160550D01*
X0196750Y0158050D01*
X0218050Y0169250D02*
X0220550Y0169250D01*
X0223050Y0169250D01*
X0223050Y0171750D02*
X0220550Y0171750D01*
X0218050Y0171750D01*
X0196850Y0178050D02*
X0196850Y0180550D01*
X0196850Y0183050D01*
X0194350Y0183050D02*
X0194350Y0180550D01*
X0194350Y0178050D01*
X0119300Y0147375D02*
X0116800Y0147375D01*
X0114300Y0147375D01*
X0114300Y0144875D02*
X0116800Y0144875D01*
X0119300Y0144875D01*
X0119250Y0076800D02*
X0119250Y0074300D01*
X0119250Y0071800D01*
X0116750Y0071800D02*
X0116750Y0074300D01*
X0116750Y0076800D01*
X0138100Y0038675D02*
X0138100Y0036175D01*
X0138100Y0033675D01*
X0140600Y0033675D02*
X0140600Y0036175D01*
X0140600Y0038675D01*
D14*
X0125501Y0097282D02*
X0125501Y0113818D01*
X0163099Y0113818D01*
X0163099Y0097282D01*
X0125501Y0097282D01*
X0127137Y0101121D02*
X0127139Y0101206D01*
X0127145Y0101290D01*
X0127155Y0101375D01*
X0127169Y0101458D01*
X0127186Y0101541D01*
X0127208Y0101623D01*
X0127234Y0101704D01*
X0127263Y0101784D01*
X0127296Y0101862D01*
X0127332Y0101938D01*
X0127372Y0102013D01*
X0127416Y0102086D01*
X0127463Y0102157D01*
X0127513Y0102225D01*
X0127566Y0102291D01*
X0127623Y0102354D01*
X0127682Y0102415D01*
X0127744Y0102473D01*
X0127809Y0102528D01*
X0127876Y0102580D01*
X0127945Y0102628D01*
X0128017Y0102673D01*
X0128091Y0102715D01*
X0128167Y0102753D01*
X0128244Y0102788D01*
X0128323Y0102819D01*
X0128403Y0102847D01*
X0128485Y0102870D01*
X0128567Y0102890D01*
X0128650Y0102906D01*
X0128734Y0102918D01*
X0128819Y0102926D01*
X0128904Y0102930D01*
X0128988Y0102930D01*
X0129073Y0102926D01*
X0129158Y0102918D01*
X0129242Y0102906D01*
X0129325Y0102890D01*
X0129407Y0102870D01*
X0129489Y0102847D01*
X0129569Y0102819D01*
X0129648Y0102788D01*
X0129725Y0102753D01*
X0129801Y0102715D01*
X0129875Y0102673D01*
X0129947Y0102628D01*
X0130016Y0102580D01*
X0130083Y0102528D01*
X0130148Y0102473D01*
X0130210Y0102415D01*
X0130269Y0102354D01*
X0130326Y0102291D01*
X0130379Y0102225D01*
X0130429Y0102157D01*
X0130476Y0102086D01*
X0130520Y0102013D01*
X0130560Y0101938D01*
X0130596Y0101862D01*
X0130629Y0101784D01*
X0130658Y0101704D01*
X0130684Y0101623D01*
X0130706Y0101541D01*
X0130723Y0101458D01*
X0130737Y0101375D01*
X0130747Y0101290D01*
X0130753Y0101206D01*
X0130755Y0101121D01*
X0130753Y0101036D01*
X0130747Y0100952D01*
X0130737Y0100867D01*
X0130723Y0100784D01*
X0130706Y0100701D01*
X0130684Y0100619D01*
X0130658Y0100538D01*
X0130629Y0100458D01*
X0130596Y0100380D01*
X0130560Y0100304D01*
X0130520Y0100229D01*
X0130476Y0100156D01*
X0130429Y0100085D01*
X0130379Y0100017D01*
X0130326Y0099951D01*
X0130269Y0099888D01*
X0130210Y0099827D01*
X0130148Y0099769D01*
X0130083Y0099714D01*
X0130016Y0099662D01*
X0129947Y0099614D01*
X0129875Y0099569D01*
X0129801Y0099527D01*
X0129725Y0099489D01*
X0129648Y0099454D01*
X0129569Y0099423D01*
X0129489Y0099395D01*
X0129407Y0099372D01*
X0129325Y0099352D01*
X0129242Y0099336D01*
X0129158Y0099324D01*
X0129073Y0099316D01*
X0128988Y0099312D01*
X0128904Y0099312D01*
X0128819Y0099316D01*
X0128734Y0099324D01*
X0128650Y0099336D01*
X0128567Y0099352D01*
X0128485Y0099372D01*
X0128403Y0099395D01*
X0128323Y0099423D01*
X0128244Y0099454D01*
X0128167Y0099489D01*
X0128091Y0099527D01*
X0128017Y0099569D01*
X0127945Y0099614D01*
X0127876Y0099662D01*
X0127809Y0099714D01*
X0127744Y0099769D01*
X0127682Y0099827D01*
X0127623Y0099888D01*
X0127566Y0099951D01*
X0127513Y0100017D01*
X0127463Y0100085D01*
X0127416Y0100156D01*
X0127372Y0100229D01*
X0127332Y0100304D01*
X0127296Y0100380D01*
X0127263Y0100458D01*
X0127234Y0100538D01*
X0127208Y0100619D01*
X0127186Y0100701D01*
X0127169Y0100784D01*
X0127155Y0100867D01*
X0127145Y0100952D01*
X0127139Y0101036D01*
X0127137Y0101121D01*
X0053104Y0155196D02*
X0046805Y0155196D01*
X0053104Y0155196D02*
X0053104Y0211495D01*
X0019246Y0211495D01*
X0019246Y0180196D01*
X0019246Y0161495D02*
X0019246Y0155196D01*
X0025545Y0155196D01*
D15*
X0071175Y0064175D02*
X0071175Y0028175D01*
X0103675Y0028175D01*
X0103675Y0064175D01*
X0071175Y0064175D01*
X0281800Y0026475D02*
X0281800Y0105875D01*
X0284800Y0104775D02*
X0284800Y0086775D01*
X0306300Y0086775D01*
X0306300Y0104775D01*
X0284800Y0104775D01*
X0281800Y0110225D02*
X0281800Y0189625D01*
X0284800Y0188525D02*
X0284800Y0170525D01*
X0306300Y0170525D01*
X0306300Y0188525D01*
X0284800Y0188525D01*
X0284800Y0168725D02*
X0306300Y0168725D01*
X0306300Y0150725D01*
X0284800Y0150725D01*
X0284800Y0168725D01*
X0284800Y0149125D02*
X0284800Y0131125D01*
X0306300Y0131125D01*
X0306300Y0149125D01*
X0284800Y0149125D01*
X0284800Y0129325D02*
X0284800Y0111325D01*
X0306300Y0111325D01*
X0306300Y0129325D01*
X0284800Y0129325D01*
X0284800Y0084975D02*
X0306300Y0084975D01*
X0306300Y0066975D01*
X0284800Y0066975D01*
X0284800Y0084975D01*
X0284800Y0065375D02*
X0284800Y0047375D01*
X0306300Y0047375D01*
X0306300Y0065375D01*
X0284800Y0065375D01*
X0284800Y0045575D02*
X0284800Y0027575D01*
X0306300Y0027575D01*
X0306300Y0045575D01*
X0284800Y0045575D01*
D16*
X0107925Y0046175D03*
X0107925Y0036175D03*
X0107925Y0056175D03*
D17*
X0115825Y0028346D02*
X0115825Y0024142D01*
X0115825Y0026244D02*
X0109520Y0026244D01*
X0111621Y0024142D01*
X0110571Y0021901D02*
X0109520Y0020850D01*
X0109520Y0018748D01*
X0110571Y0017697D01*
X0114774Y0017697D01*
X0115825Y0018748D01*
X0115825Y0020850D01*
X0114774Y0021901D01*
X0115825Y0015502D02*
X0115825Y0013400D01*
X0115825Y0014451D02*
X0109520Y0014451D01*
X0109520Y0013400D02*
X0109520Y0015502D01*
X0259950Y0014275D02*
X0262052Y0014275D01*
X0261001Y0014275D02*
X0261001Y0020580D01*
X0259950Y0020580D02*
X0262052Y0020580D01*
X0264247Y0020580D02*
X0268451Y0014275D01*
X0268451Y0020580D01*
X0270692Y0017428D02*
X0274896Y0017428D01*
X0277138Y0018479D02*
X0279240Y0020580D01*
X0279240Y0014275D01*
X0277138Y0014275D02*
X0281342Y0014275D01*
X0264247Y0014275D02*
X0264247Y0020580D01*
X0262513Y0193650D02*
X0262513Y0199955D01*
X0266717Y0193650D01*
X0266717Y0199955D01*
X0268959Y0196803D02*
X0273163Y0196803D01*
X0275404Y0198904D02*
X0276455Y0199955D01*
X0278557Y0199955D01*
X0279608Y0198904D01*
X0279608Y0197854D01*
X0275404Y0193650D01*
X0279608Y0193650D01*
X0260318Y0193650D02*
X0258216Y0193650D01*
X0259267Y0193650D02*
X0259267Y0199955D01*
X0258216Y0199955D02*
X0260318Y0199955D01*
D18*
X0260050Y0180550D03*
X0238550Y0180550D03*
X0238550Y0160550D03*
X0260050Y0160550D03*
X0258800Y0140550D03*
X0237300Y0140550D03*
X0237300Y0120550D03*
X0258800Y0120550D03*
X0260050Y0095550D03*
X0238550Y0095550D03*
X0238550Y0075550D03*
X0260050Y0075550D03*
X0260050Y0055550D03*
X0238550Y0055550D03*
X0238550Y0035550D03*
X0260050Y0035550D03*
D19*
X0116800Y0089800D03*
X0116800Y0111300D03*
D20*
X0288550Y0120325D03*
X0288550Y0140125D03*
X0288550Y0159725D03*
X0288550Y0179525D03*
X0288550Y0095775D03*
X0288550Y0075975D03*
X0288550Y0056375D03*
X0288550Y0036575D03*
D21*
X0061800Y0183550D03*
D22*
X0061800Y0189800D03*
X0061800Y0166300D03*
M02*
