G75*
%MOMM*%
%OFA0B0*%
%FSLAX33Y33*%
%IPPOS*%
%LPD*%
%AMOC8*
5,1,8,0,0,1.08239X$1,22.5*
%
%ADD10C,1.321*%
%ADD11OC8,1.600*%
%ADD12OC8,1.676*%
%ADD13C,1.880*%
%ADD14C,0.406*%
D10*
X14224Y14834D02*
X14224Y16154D01*
X16764Y16154D02*
X16764Y14834D01*
X19304Y14834D02*
X19304Y16154D01*
X21844Y16154D02*
X21844Y14834D01*
X24384Y14834D02*
X24384Y16154D01*
X26924Y16154D02*
X26924Y14834D01*
X29464Y14834D02*
X29464Y16154D01*
X40894Y16154D02*
X40894Y14834D01*
X43434Y14834D02*
X43434Y16154D01*
X45974Y16154D02*
X45974Y14834D01*
X48514Y14834D02*
X48514Y16154D01*
X51054Y16154D02*
X51054Y14834D01*
X53594Y14834D02*
X53594Y16154D01*
X56134Y16154D02*
X56134Y14834D01*
X67564Y14834D02*
X67564Y16154D01*
X70104Y16154D02*
X70104Y14834D01*
X72644Y14834D02*
X72644Y16154D01*
X75184Y16154D02*
X75184Y14834D01*
X77724Y14834D02*
X77724Y16154D01*
X80264Y16154D02*
X80264Y14834D01*
X82804Y14834D02*
X82804Y16154D01*
X82804Y22454D02*
X82804Y23774D01*
X80264Y23774D02*
X80264Y22454D01*
X77724Y22454D02*
X77724Y23774D01*
X75184Y23774D02*
X75184Y22454D01*
X72644Y22454D02*
X72644Y23774D01*
X70104Y23774D02*
X70104Y22454D01*
X67564Y22454D02*
X67564Y23774D01*
X56134Y23774D02*
X56134Y22454D01*
X53594Y22454D02*
X53594Y23774D01*
X51054Y23774D02*
X51054Y22454D01*
X48514Y22454D02*
X48514Y23774D01*
X45974Y23774D02*
X45974Y22454D01*
X43434Y22454D02*
X43434Y23774D01*
X40894Y23774D02*
X40894Y22454D01*
X29464Y22454D02*
X29464Y23774D01*
X26924Y23774D02*
X26924Y22454D01*
X24384Y22454D02*
X24384Y23774D01*
X21844Y23774D02*
X21844Y22454D01*
X19304Y22454D02*
X19304Y23774D01*
X16764Y23774D02*
X16764Y22454D01*
X14224Y22454D02*
X14224Y23774D01*
D11*
X16764Y10414D03*
X23114Y10414D03*
X37084Y10414D03*
X43434Y10414D03*
X53594Y10414D03*
X61214Y10414D03*
X67564Y10414D03*
X77724Y10414D03*
X77724Y05334D03*
X67564Y05334D03*
X61214Y05334D03*
X53594Y05334D03*
X43434Y05334D03*
X37084Y05334D03*
X23114Y05334D03*
X16764Y05334D03*
D12*
X28194Y03302D03*
X10414Y09652D03*
X28194Y12446D03*
X33274Y14732D03*
X37084Y14732D03*
X48514Y12446D03*
X59944Y14732D03*
X63754Y14732D03*
X72644Y12446D03*
X82804Y12446D03*
X82804Y03302D03*
X72644Y03302D03*
X48514Y03302D03*
X10414Y18796D03*
X33274Y23876D03*
X37084Y23876D03*
X59944Y23876D03*
X63754Y23876D03*
D13*
X06274Y21844D02*
X04394Y21844D01*
X04394Y19304D02*
X06274Y19304D01*
X06274Y16764D02*
X04394Y16764D01*
X04394Y14224D02*
X06274Y14224D01*
X06274Y11684D02*
X04394Y11684D01*
X04394Y09144D02*
X06274Y09144D01*
D14*
X01524Y01524D02*
X85344Y01524D01*
X01524Y01524D01*
X01524Y26645D01*
X85344Y26645D01*
X85344Y01524D01*
X85344Y01929D02*
X01524Y01929D01*
X01524Y02334D02*
X27330Y02334D01*
X27657Y02007D02*
X26899Y02765D01*
X26899Y03302D01*
X28194Y03302D01*
X28194Y03302D01*
X28194Y04597D01*
X27657Y04597D01*
X26899Y03839D01*
X26899Y03302D01*
X28194Y03302D01*
X29489Y03302D01*
X29489Y03839D01*
X28731Y04597D01*
X28194Y04597D01*
X28194Y03302D01*
X28194Y03302D01*
X28194Y03302D01*
X29489Y03302D01*
X29489Y02765D01*
X28731Y02007D01*
X28194Y02007D01*
X28194Y03302D01*
X28194Y03302D01*
X28194Y02007D01*
X27657Y02007D01*
X28194Y02334D02*
X28194Y02334D01*
X28194Y02739D02*
X28194Y02739D01*
X29058Y02334D02*
X47650Y02334D01*
X47977Y02007D02*
X47219Y02765D01*
X47219Y03302D01*
X48514Y03302D01*
X48514Y03302D01*
X48514Y04597D01*
X47977Y04597D01*
X47219Y03839D01*
X47219Y03302D01*
X48514Y03302D01*
X49809Y03302D01*
X49809Y03839D01*
X49051Y04597D01*
X48514Y04597D01*
X48514Y03302D01*
X48514Y03302D01*
X48514Y03302D01*
X49809Y03302D01*
X49809Y02765D01*
X49051Y02007D01*
X48514Y02007D01*
X48514Y03302D01*
X48514Y03302D01*
X48514Y02007D01*
X47977Y02007D01*
X48514Y02334D02*
X48514Y02334D01*
X48514Y02739D02*
X48514Y02739D01*
X49378Y02334D02*
X71780Y02334D01*
X72107Y02007D02*
X71349Y02765D01*
X71349Y03302D01*
X72644Y03302D01*
X72644Y03302D01*
X72644Y04597D01*
X72107Y04597D01*
X71349Y03839D01*
X71349Y03302D01*
X72644Y03302D01*
X73939Y03302D01*
X73939Y03839D01*
X73181Y04597D01*
X72644Y04597D01*
X72644Y03302D01*
X72644Y03302D01*
X72644Y03302D01*
X73939Y03302D01*
X73939Y02765D01*
X73181Y02007D01*
X72644Y02007D01*
X72644Y03302D01*
X72644Y03302D01*
X72644Y02007D01*
X72107Y02007D01*
X72644Y02334D02*
X72644Y02334D01*
X72644Y02739D02*
X72644Y02739D01*
X73508Y02334D02*
X81868Y02334D01*
X82246Y01956D02*
X81458Y02744D01*
X81458Y03860D01*
X82246Y04648D01*
X83362Y04648D01*
X84150Y03860D01*
X84150Y02744D01*
X83362Y01956D01*
X82246Y01956D01*
X83740Y02334D02*
X85344Y02334D01*
X85344Y02739D02*
X84145Y02739D01*
X84150Y03144D02*
X85344Y03144D01*
X85344Y03548D02*
X84150Y03548D01*
X84056Y03953D02*
X85344Y03953D01*
X85344Y04358D02*
X83652Y04358D01*
X81956Y04358D02*
X78526Y04358D01*
X78245Y04077D02*
X77724Y04077D01*
X77724Y05334D01*
X77724Y05334D01*
X77724Y06591D01*
X77203Y06591D01*
X76467Y05855D01*
X76467Y05334D01*
X76467Y04813D01*
X77203Y04077D01*
X77724Y04077D01*
X77724Y05334D01*
X78981Y05334D01*
X77724Y05334D01*
X77724Y05334D01*
X77724Y05334D01*
X76467Y05334D01*
X77724Y05334D01*
X77724Y06591D01*
X78245Y06591D01*
X78981Y05855D01*
X78981Y05334D01*
X78981Y04813D01*
X78245Y04077D01*
X77724Y04358D02*
X77724Y04358D01*
X77724Y04763D02*
X77724Y04763D01*
X76922Y04358D02*
X73420Y04358D01*
X73825Y03953D02*
X81552Y03953D01*
X81458Y03548D02*
X73939Y03548D01*
X73939Y03144D02*
X81458Y03144D01*
X81463Y02739D02*
X73913Y02739D01*
X72644Y03144D02*
X72644Y03144D01*
X72644Y03548D02*
X72644Y03548D01*
X71349Y03548D02*
X49809Y03548D01*
X49809Y03144D02*
X71349Y03144D01*
X71375Y02739D02*
X49783Y02739D01*
X48514Y03144D02*
X48514Y03144D01*
X48514Y03548D02*
X48514Y03548D01*
X47219Y03548D02*
X29489Y03548D01*
X29489Y03144D02*
X47219Y03144D01*
X47245Y02739D02*
X29463Y02739D01*
X28194Y03144D02*
X28194Y03144D01*
X28194Y03548D02*
X28194Y03548D01*
X28194Y03953D02*
X28194Y03953D01*
X28194Y04358D02*
X28194Y04358D01*
X28970Y04358D02*
X36282Y04358D01*
X36563Y04077D02*
X35827Y04813D01*
X35827Y05334D01*
X37084Y05334D01*
X37084Y05334D01*
X37084Y06591D01*
X36563Y06591D01*
X35827Y05855D01*
X35827Y05334D01*
X37084Y05334D01*
X38341Y05334D01*
X37084Y05334D01*
X37084Y05334D01*
X37084Y05334D01*
X37084Y06591D01*
X37605Y06591D01*
X38341Y05855D01*
X38341Y05334D01*
X38341Y04813D01*
X37605Y04077D01*
X37084Y04077D01*
X37084Y05334D01*
X37084Y05334D01*
X37084Y04077D01*
X36563Y04077D01*
X37084Y04358D02*
X37084Y04358D01*
X37084Y04763D02*
X37084Y04763D01*
X37886Y04358D02*
X42632Y04358D01*
X42913Y04077D02*
X42177Y04813D01*
X42177Y05334D01*
X43434Y05334D01*
X43434Y05334D01*
X43434Y06591D01*
X42913Y06591D01*
X42177Y05855D01*
X42177Y05334D01*
X43434Y05334D01*
X44691Y05334D01*
X43434Y05334D01*
X43434Y05334D01*
X43434Y05334D01*
X43434Y06591D01*
X43955Y06591D01*
X44691Y05855D01*
X44691Y05334D01*
X44691Y04813D01*
X43955Y04077D01*
X43434Y04077D01*
X43434Y05334D01*
X43434Y05334D01*
X43434Y04077D01*
X42913Y04077D01*
X43434Y04358D02*
X43434Y04358D01*
X43434Y04763D02*
X43434Y04763D01*
X44236Y04358D02*
X47738Y04358D01*
X47333Y03953D02*
X29375Y03953D01*
X27418Y04358D02*
X23916Y04358D01*
X23635Y04077D02*
X23114Y04077D01*
X23114Y05334D01*
X23114Y05334D01*
X23114Y06591D01*
X22593Y06591D01*
X21857Y05855D01*
X21857Y05334D01*
X21857Y04813D01*
X22593Y04077D01*
X23114Y04077D01*
X23114Y05334D01*
X24371Y05334D01*
X23114Y05334D01*
X23114Y05334D01*
X23114Y05334D01*
X21857Y05334D01*
X23114Y05334D01*
X23114Y06591D01*
X23635Y06591D01*
X24371Y05855D01*
X24371Y05334D01*
X24371Y04813D01*
X23635Y04077D01*
X23114Y04358D02*
X23114Y04358D01*
X23114Y04763D02*
X23114Y04763D01*
X22312Y04358D02*
X17566Y04358D01*
X17285Y04077D02*
X18021Y04813D01*
X18021Y05334D01*
X16764Y05334D01*
X16764Y05334D01*
X16764Y06591D01*
X16243Y06591D01*
X15507Y05855D01*
X15507Y05334D01*
X15507Y04813D01*
X16243Y04077D01*
X16764Y04077D01*
X17285Y04077D01*
X16764Y04077D02*
X16764Y05334D01*
X18021Y05334D01*
X18021Y05855D01*
X17285Y06591D01*
X16764Y06591D01*
X16764Y05334D01*
X16764Y05334D01*
X16764Y05334D01*
X15507Y05334D01*
X16764Y05334D01*
X16764Y05334D01*
X16764Y04077D01*
X16764Y04358D02*
X16764Y04358D01*
X16764Y04763D02*
X16764Y04763D01*
X15962Y04358D02*
X01524Y04358D01*
X01524Y03953D02*
X27013Y03953D01*
X26899Y03548D02*
X01524Y03548D01*
X01524Y03144D02*
X26899Y03144D01*
X26925Y02739D02*
X01524Y02739D01*
X01524Y04763D02*
X15557Y04763D01*
X15507Y05168D02*
X01524Y05168D01*
X01524Y05573D02*
X15507Y05573D01*
X15630Y05978D02*
X01524Y05978D01*
X01524Y06383D02*
X16035Y06383D01*
X16764Y06383D02*
X16764Y06383D01*
X16764Y05978D02*
X16764Y05978D01*
X17493Y06383D02*
X22385Y06383D01*
X21980Y05978D02*
X17898Y05978D01*
X18021Y05573D02*
X21857Y05573D01*
X21857Y05168D02*
X18021Y05168D01*
X16764Y05168D02*
X16764Y05168D01*
X16764Y05573D02*
X16764Y05573D01*
X17971Y04763D02*
X21907Y04763D01*
X23114Y05168D02*
X23114Y05168D01*
X23114Y05334D02*
X23114Y05334D01*
X23114Y05573D02*
X23114Y05573D01*
X23114Y05978D02*
X23114Y05978D01*
X23114Y06383D02*
X23114Y06383D01*
X23843Y06383D02*
X36355Y06383D01*
X35950Y05978D02*
X24248Y05978D01*
X24371Y05573D02*
X35827Y05573D01*
X35827Y05168D02*
X24371Y05168D01*
X24321Y04763D02*
X35877Y04763D01*
X37084Y05168D02*
X37084Y05168D01*
X37084Y05573D02*
X37084Y05573D01*
X37084Y05978D02*
X37084Y05978D01*
X37084Y06383D02*
X37084Y06383D01*
X37813Y06383D02*
X42705Y06383D01*
X42300Y05978D02*
X38218Y05978D01*
X38341Y05573D02*
X42177Y05573D01*
X42177Y05168D02*
X38341Y05168D01*
X38291Y04763D02*
X42227Y04763D01*
X43434Y05168D02*
X43434Y05168D01*
X43434Y05573D02*
X43434Y05573D01*
X44691Y05573D02*
X52337Y05573D01*
X52337Y05334D02*
X53594Y05334D01*
X53594Y05334D01*
X53594Y06591D01*
X53073Y06591D01*
X52337Y05855D01*
X52337Y05334D01*
X52337Y04813D01*
X53073Y04077D01*
X53594Y04077D01*
X54115Y04077D01*
X54851Y04813D01*
X54851Y05334D01*
X53594Y05334D01*
X54851Y05334D01*
X54851Y05855D01*
X54115Y06591D01*
X53594Y06591D01*
X53594Y05334D01*
X53594Y05334D01*
X53594Y05334D01*
X53594Y04077D01*
X53594Y05334D01*
X53594Y05334D01*
X52337Y05334D01*
X52337Y05168D02*
X44691Y05168D01*
X44641Y04763D02*
X52387Y04763D01*
X52792Y04358D02*
X49290Y04358D01*
X49695Y03953D02*
X71463Y03953D01*
X71868Y04358D02*
X68366Y04358D01*
X68085Y04077D02*
X67564Y04077D01*
X67564Y05334D01*
X67564Y05334D01*
X67564Y06591D01*
X67043Y06591D01*
X66307Y05855D01*
X66307Y05334D01*
X66307Y04813D01*
X67043Y04077D01*
X67564Y04077D01*
X67564Y05334D01*
X68821Y05334D01*
X67564Y05334D01*
X67564Y05334D01*
X67564Y05334D01*
X66307Y05334D01*
X67564Y05334D01*
X67564Y06591D01*
X68085Y06591D01*
X68821Y05855D01*
X68821Y05334D01*
X68821Y04813D01*
X68085Y04077D01*
X67564Y04358D02*
X67564Y04358D01*
X67564Y04763D02*
X67564Y04763D01*
X66762Y04358D02*
X62016Y04358D01*
X61735Y04077D02*
X61214Y04077D01*
X61214Y05334D01*
X61214Y05334D01*
X61214Y06591D01*
X60693Y06591D01*
X59957Y05855D01*
X59957Y05334D01*
X59957Y04813D01*
X60693Y04077D01*
X61214Y04077D01*
X61214Y05334D01*
X62471Y05334D01*
X61214Y05334D01*
X61214Y05334D01*
X61214Y05334D01*
X59957Y05334D01*
X61214Y05334D01*
X61214Y06591D01*
X61735Y06591D01*
X62471Y05855D01*
X62471Y05334D01*
X62471Y04813D01*
X61735Y04077D01*
X61214Y04358D02*
X61214Y04358D01*
X61214Y04763D02*
X61214Y04763D01*
X60412Y04358D02*
X54396Y04358D01*
X54801Y04763D02*
X60007Y04763D01*
X59957Y05168D02*
X54851Y05168D01*
X54851Y05573D02*
X59957Y05573D01*
X61214Y05573D02*
X61214Y05573D01*
X61214Y05334D02*
X61214Y05334D01*
X61214Y05168D02*
X61214Y05168D01*
X62471Y05168D02*
X66307Y05168D01*
X66307Y05573D02*
X62471Y05573D01*
X62348Y05978D02*
X66430Y05978D01*
X66835Y06383D02*
X61943Y06383D01*
X61214Y06383D02*
X61214Y06383D01*
X61214Y05978D02*
X61214Y05978D01*
X60485Y06383D02*
X54323Y06383D01*
X54728Y05978D02*
X60080Y05978D01*
X62421Y04763D02*
X66357Y04763D01*
X67564Y05168D02*
X67564Y05168D01*
X67564Y05334D02*
X67564Y05334D01*
X67564Y05573D02*
X67564Y05573D01*
X67564Y05978D02*
X67564Y05978D01*
X67564Y06383D02*
X67564Y06383D01*
X68293Y06383D02*
X76995Y06383D01*
X76590Y05978D02*
X68698Y05978D01*
X68821Y05573D02*
X76467Y05573D01*
X76467Y05168D02*
X68821Y05168D01*
X68771Y04763D02*
X76517Y04763D01*
X77724Y05168D02*
X77724Y05168D01*
X77724Y05334D02*
X77724Y05334D01*
X77724Y05573D02*
X77724Y05573D01*
X78981Y05573D02*
X85344Y05573D01*
X85344Y05168D02*
X78981Y05168D01*
X78931Y04763D02*
X85344Y04763D01*
X85344Y05978D02*
X78858Y05978D01*
X78453Y06383D02*
X85344Y06383D01*
X85344Y06788D02*
X01524Y06788D01*
X01524Y07193D02*
X85344Y07193D01*
X85344Y07597D02*
X01524Y07597D01*
X01524Y08002D02*
X03589Y08002D01*
X03662Y07949D02*
X03858Y07849D01*
X04067Y07781D01*
X04284Y07747D01*
X05258Y07747D01*
X05258Y09068D01*
X05410Y09068D01*
X05410Y07747D01*
X06384Y07747D01*
X06601Y07781D01*
X06810Y07849D01*
X07006Y07949D01*
X07184Y08078D01*
X07339Y08234D01*
X07469Y08412D01*
X07568Y08608D01*
X07636Y08817D01*
X07671Y09034D01*
X07671Y09068D01*
X05410Y09068D01*
X05410Y09220D01*
X07671Y09220D01*
X07671Y09254D01*
X07636Y09471D01*
X07568Y09680D01*
X07469Y09876D01*
X07339Y10054D01*
X07184Y10210D01*
X07006Y10339D01*
X06918Y10384D01*
X07094Y10457D01*
X07501Y10864D01*
X07722Y11396D01*
X07722Y11972D01*
X07501Y12504D01*
X07094Y12911D01*
X06991Y12954D01*
X07094Y12997D01*
X07501Y13404D01*
X07722Y13936D01*
X07722Y14512D01*
X07501Y15044D01*
X07094Y15451D01*
X06918Y15524D01*
X07006Y15569D01*
X07184Y15698D01*
X07339Y15854D01*
X07469Y16032D01*
X07568Y16228D01*
X07636Y16437D01*
X07671Y16654D01*
X07671Y16688D01*
X05410Y16688D01*
X05410Y16840D01*
X07671Y16840D01*
X07671Y16874D01*
X07636Y17091D01*
X07568Y17300D01*
X07469Y17496D01*
X07339Y17674D01*
X07184Y17830D01*
X07006Y17959D01*
X06918Y18004D01*
X07094Y18077D01*
X07501Y18484D01*
X07722Y19016D01*
X07722Y19592D01*
X07501Y20124D01*
X07094Y20531D01*
X06918Y20604D01*
X07006Y20649D01*
X07184Y20778D01*
X07339Y20934D01*
X07469Y21112D01*
X07568Y21308D01*
X07636Y21517D01*
X07671Y21734D01*
X07671Y21768D01*
X05410Y21768D01*
X05410Y21920D01*
X05258Y21920D01*
X05258Y21768D01*
X02997Y21768D01*
X02997Y21734D01*
X03032Y21517D01*
X03100Y21308D01*
X03199Y21112D01*
X03329Y20934D01*
X03484Y20778D01*
X03662Y20649D01*
X03750Y20604D01*
X03574Y20531D01*
X03167Y20124D01*
X02946Y19592D01*
X02946Y19016D01*
X03167Y18484D01*
X03574Y18077D01*
X03750Y18004D01*
X03662Y17959D01*
X03484Y17830D01*
X03329Y17674D01*
X03199Y17496D01*
X03100Y17300D01*
X03032Y17091D01*
X02997Y16874D01*
X02997Y16840D01*
X05258Y16840D01*
X05258Y16688D01*
X02997Y16688D01*
X02997Y16654D01*
X03032Y16437D01*
X03100Y16228D01*
X03199Y16032D01*
X03329Y15854D01*
X03484Y15698D01*
X03662Y15569D01*
X03750Y15524D01*
X03574Y15451D01*
X03167Y15044D01*
X02946Y14512D01*
X02946Y13936D01*
X03167Y13404D01*
X03574Y12997D01*
X03677Y12954D01*
X03574Y12911D01*
X03167Y12504D01*
X02946Y11972D01*
X02946Y11396D01*
X03167Y10864D01*
X03574Y10457D01*
X03750Y10384D01*
X03662Y10339D01*
X03484Y10210D01*
X03329Y10054D01*
X03199Y09876D01*
X03100Y09680D01*
X03032Y09471D01*
X02997Y09254D01*
X02997Y09220D01*
X05258Y09220D01*
X05258Y09068D01*
X02997Y09068D01*
X02997Y09034D01*
X03032Y08817D01*
X03100Y08608D01*
X03199Y08412D01*
X03329Y08234D01*
X03484Y08078D01*
X03662Y07949D01*
X03203Y08407D02*
X01524Y08407D01*
X01524Y08812D02*
X03033Y08812D01*
X01524Y09217D02*
X05258Y09217D01*
X05410Y09217D02*
X09119Y09217D01*
X09119Y09115D02*
X09877Y08357D01*
X10414Y08357D01*
X10951Y08357D01*
X11709Y09115D01*
X11709Y09652D01*
X11709Y10189D01*
X10951Y10947D01*
X10414Y10947D01*
X09877Y10947D01*
X09119Y10189D01*
X09119Y09652D01*
X09119Y09115D01*
X09422Y08812D02*
X07635Y08812D01*
X07465Y08407D02*
X09827Y08407D01*
X10414Y08407D02*
X10414Y08407D01*
X10414Y08357D02*
X10414Y09652D01*
X10414Y09652D01*
X10414Y10947D01*
X10414Y09652D01*
X11709Y09652D01*
X10414Y09652D01*
X10414Y09652D01*
X10414Y09652D01*
X09119Y09652D01*
X10414Y09652D01*
X10414Y09652D01*
X10414Y08357D01*
X11001Y08407D02*
X85344Y08407D01*
X85344Y08002D02*
X07079Y08002D01*
X05410Y08002D02*
X05258Y08002D01*
X05258Y08407D02*
X05410Y08407D01*
X05410Y08812D02*
X05258Y08812D01*
X03081Y09622D02*
X01524Y09622D01*
X01524Y10027D02*
X03309Y10027D01*
X03634Y10432D02*
X01524Y10432D01*
X01524Y10837D02*
X03194Y10837D01*
X03010Y11242D02*
X01524Y11242D01*
X01524Y11646D02*
X02946Y11646D01*
X02979Y12051D02*
X01524Y12051D01*
X01524Y12456D02*
X03147Y12456D01*
X03524Y12861D02*
X01524Y12861D01*
X01524Y13266D02*
X03305Y13266D01*
X03056Y13671D02*
X01524Y13671D01*
X01524Y14076D02*
X02946Y14076D01*
X02946Y14481D02*
X01524Y14481D01*
X01524Y14886D02*
X03101Y14886D01*
X03413Y15291D02*
X01524Y15291D01*
X01524Y15695D02*
X03488Y15695D01*
X03164Y16100D02*
X01524Y16100D01*
X01524Y16505D02*
X03021Y16505D01*
X03003Y16910D02*
X01524Y16910D01*
X01524Y17315D02*
X03107Y17315D01*
X03375Y17720D02*
X01524Y17720D01*
X01524Y18125D02*
X03526Y18125D01*
X03148Y18530D02*
X01524Y18530D01*
X01524Y18935D02*
X02980Y18935D01*
X02946Y19340D02*
X01524Y19340D01*
X01524Y19745D02*
X03010Y19745D01*
X03192Y20149D02*
X01524Y20149D01*
X01524Y20554D02*
X03629Y20554D01*
X03310Y20959D02*
X01524Y20959D01*
X01524Y21364D02*
X03081Y21364D01*
X02997Y21920D02*
X05258Y21920D01*
X05258Y23241D01*
X04284Y23241D01*
X04067Y23207D01*
X03858Y23139D01*
X03662Y23039D01*
X03484Y22910D01*
X03329Y22754D01*
X03199Y22576D01*
X03100Y22380D01*
X03032Y22171D01*
X02997Y21954D01*
X02997Y21920D01*
X03032Y22174D02*
X01524Y22174D01*
X01524Y21769D02*
X05258Y21769D01*
X05410Y21769D02*
X13256Y21769D01*
X13233Y21792D02*
X13562Y21463D01*
X13992Y21285D01*
X14456Y21285D01*
X14886Y21463D01*
X15215Y21792D01*
X15392Y22221D01*
X15392Y24007D01*
X15215Y24436D01*
X14886Y24765D01*
X14456Y24943D01*
X13992Y24943D01*
X13562Y24765D01*
X13233Y24436D01*
X13056Y24007D01*
X13056Y22221D01*
X13233Y21792D01*
X13075Y22174D02*
X07635Y22174D01*
X07636Y22171D02*
X07568Y22380D01*
X07469Y22576D01*
X07339Y22754D01*
X07184Y22910D01*
X07006Y23039D01*
X06810Y23139D01*
X06601Y23207D01*
X06384Y23241D01*
X05410Y23241D01*
X05410Y21920D01*
X07671Y21920D01*
X07671Y21954D01*
X07636Y22171D01*
X07467Y22579D02*
X13056Y22579D01*
X13056Y22984D02*
X07082Y22984D01*
X05410Y22984D02*
X05258Y22984D01*
X05258Y22579D02*
X05410Y22579D01*
X05410Y22174D02*
X05258Y22174D01*
X03586Y22984D02*
X01524Y22984D01*
X01524Y22579D02*
X03201Y22579D01*
X01524Y23389D02*
X13056Y23389D01*
X13056Y23793D02*
X01524Y23793D01*
X01524Y24198D02*
X13135Y24198D01*
X13401Y24603D02*
X01524Y24603D01*
X01524Y25008D02*
X32502Y25008D01*
X32716Y25222D02*
X31928Y24434D01*
X31928Y23318D01*
X32716Y22530D01*
X33832Y22530D01*
X34620Y23318D01*
X34620Y24434D01*
X33832Y25222D01*
X32716Y25222D01*
X32097Y24603D02*
X30287Y24603D01*
X30126Y24765D02*
X29696Y24943D01*
X29232Y24943D01*
X28802Y24765D01*
X28473Y24436D01*
X28296Y24007D01*
X28296Y22221D01*
X28473Y21792D01*
X28802Y21463D01*
X29232Y21285D01*
X29696Y21285D01*
X30126Y21463D01*
X30455Y21792D01*
X30632Y22221D01*
X30632Y24007D01*
X30455Y24436D01*
X30126Y24765D01*
X30553Y24198D02*
X31928Y24198D01*
X31928Y23793D02*
X30632Y23793D01*
X30632Y23389D02*
X31928Y23389D01*
X32262Y22984D02*
X30632Y22984D01*
X30632Y22579D02*
X32667Y22579D01*
X33881Y22579D02*
X36477Y22579D01*
X36526Y22530D02*
X37642Y22530D01*
X38430Y23318D01*
X38430Y24434D01*
X37642Y25222D01*
X36526Y25222D01*
X35738Y24434D01*
X35738Y23318D01*
X36526Y22530D01*
X36072Y22984D02*
X34286Y22984D01*
X34620Y23389D02*
X35738Y23389D01*
X35738Y23793D02*
X34620Y23793D01*
X34620Y24198D02*
X35738Y24198D01*
X35907Y24603D02*
X34451Y24603D01*
X34046Y25008D02*
X36312Y25008D01*
X37856Y25008D02*
X59172Y25008D01*
X59386Y25222D02*
X58598Y24434D01*
X58598Y23318D01*
X59386Y22530D01*
X60502Y22530D01*
X61290Y23318D01*
X61290Y24434D01*
X60502Y25222D01*
X59386Y25222D01*
X60716Y25008D02*
X62982Y25008D01*
X63196Y25222D02*
X62408Y24434D01*
X62408Y23318D01*
X63196Y22530D01*
X64312Y22530D01*
X65100Y23318D01*
X65100Y24434D01*
X64312Y25222D01*
X63196Y25222D01*
X62577Y24603D02*
X61121Y24603D01*
X61290Y24198D02*
X62408Y24198D01*
X62408Y23793D02*
X61290Y23793D01*
X61290Y23389D02*
X62408Y23389D01*
X62742Y22984D02*
X60956Y22984D01*
X60551Y22579D02*
X63147Y22579D01*
X64361Y22579D02*
X66396Y22579D01*
X66396Y22221D02*
X66573Y21792D01*
X66902Y21463D01*
X67332Y21285D01*
X67796Y21285D01*
X68226Y21463D01*
X68555Y21792D01*
X68732Y22221D01*
X68732Y24007D01*
X68555Y24436D01*
X68226Y24765D01*
X67796Y24943D01*
X67332Y24943D01*
X66902Y24765D01*
X66573Y24436D01*
X66396Y24007D01*
X66396Y22221D01*
X66415Y22174D02*
X57283Y22174D01*
X57302Y22221D02*
X57125Y21792D01*
X56796Y21463D01*
X56366Y21285D01*
X55902Y21285D01*
X55472Y21463D01*
X55143Y21792D01*
X54966Y22221D01*
X54966Y24007D01*
X55143Y24436D01*
X55472Y24765D01*
X55902Y24943D01*
X56366Y24943D01*
X56796Y24765D01*
X57125Y24436D01*
X57302Y24007D01*
X57302Y22221D01*
X57302Y22579D02*
X59337Y22579D01*
X58932Y22984D02*
X57302Y22984D01*
X57302Y23389D02*
X58598Y23389D01*
X58598Y23793D02*
X57302Y23793D01*
X57223Y24198D02*
X58598Y24198D01*
X58767Y24603D02*
X56957Y24603D01*
X55311Y24603D02*
X54417Y24603D01*
X54256Y24765D02*
X53826Y24943D01*
X53362Y24943D01*
X52932Y24765D01*
X52603Y24436D01*
X52426Y24007D01*
X52426Y22221D01*
X52603Y21792D01*
X52932Y21463D01*
X53362Y21285D01*
X53826Y21285D01*
X54256Y21463D01*
X54585Y21792D01*
X54762Y22221D01*
X54762Y24007D01*
X54585Y24436D01*
X54256Y24765D01*
X54683Y24198D02*
X55045Y24198D01*
X54966Y23793D02*
X54762Y23793D01*
X54762Y23389D02*
X54966Y23389D01*
X54966Y22984D02*
X54762Y22984D01*
X54762Y22579D02*
X54966Y22579D01*
X54985Y22174D02*
X54743Y22174D01*
X54562Y21769D02*
X55166Y21769D01*
X55711Y21364D02*
X54017Y21364D01*
X53171Y21364D02*
X51477Y21364D01*
X51286Y21285D02*
X51716Y21463D01*
X52045Y21792D01*
X52222Y22221D01*
X52222Y24007D01*
X52045Y24436D01*
X51716Y24765D01*
X51286Y24943D01*
X50822Y24943D01*
X50392Y24765D01*
X50063Y24436D01*
X49886Y24007D01*
X49886Y22221D01*
X50063Y21792D01*
X50392Y21463D01*
X50822Y21285D01*
X51286Y21285D01*
X50631Y21364D02*
X48937Y21364D01*
X48746Y21285D02*
X49176Y21463D01*
X49505Y21792D01*
X49682Y22221D01*
X49682Y24007D01*
X49505Y24436D01*
X49176Y24765D01*
X48746Y24943D01*
X48282Y24943D01*
X47852Y24765D01*
X47523Y24436D01*
X47346Y24007D01*
X47346Y22221D01*
X47523Y21792D01*
X47852Y21463D01*
X48282Y21285D01*
X48746Y21285D01*
X48091Y21364D02*
X46397Y21364D01*
X46206Y21285D02*
X46636Y21463D01*
X46965Y21792D01*
X47142Y22221D01*
X47142Y24007D01*
X46965Y24436D01*
X46636Y24765D01*
X46206Y24943D01*
X45742Y24943D01*
X45312Y24765D01*
X44983Y24436D01*
X44806Y24007D01*
X44806Y22221D01*
X44983Y21792D01*
X45312Y21463D01*
X45742Y21285D01*
X46206Y21285D01*
X45551Y21364D02*
X43857Y21364D01*
X43666Y21285D02*
X44096Y21463D01*
X44425Y21792D01*
X44602Y22221D01*
X44602Y24007D01*
X44425Y24436D01*
X44096Y24765D01*
X43666Y24943D01*
X43202Y24943D01*
X42772Y24765D01*
X42443Y24436D01*
X42266Y24007D01*
X42266Y22221D01*
X42443Y21792D01*
X42772Y21463D01*
X43202Y21285D01*
X43666Y21285D01*
X43011Y21364D02*
X41317Y21364D01*
X41126Y21285D02*
X41556Y21463D01*
X41885Y21792D01*
X42062Y22221D01*
X42062Y24007D01*
X41885Y24436D01*
X41556Y24765D01*
X41126Y24943D01*
X40662Y24943D01*
X40232Y24765D01*
X39903Y24436D01*
X39726Y24007D01*
X39726Y22221D01*
X39903Y21792D01*
X40232Y21463D01*
X40662Y21285D01*
X41126Y21285D01*
X40471Y21364D02*
X29887Y21364D01*
X29041Y21364D02*
X27347Y21364D01*
X27156Y21285D02*
X27586Y21463D01*
X27915Y21792D01*
X28092Y22221D01*
X28092Y24007D01*
X27915Y24436D01*
X27586Y24765D01*
X27156Y24943D01*
X26692Y24943D01*
X26262Y24765D01*
X25933Y24436D01*
X25756Y24007D01*
X25756Y22221D01*
X25933Y21792D01*
X26262Y21463D01*
X26692Y21285D01*
X27156Y21285D01*
X26501Y21364D02*
X24807Y21364D01*
X24616Y21285D02*
X25046Y21463D01*
X25375Y21792D01*
X25552Y22221D01*
X25552Y24007D01*
X25375Y24436D01*
X25046Y24765D01*
X24616Y24943D01*
X24152Y24943D01*
X23722Y24765D01*
X23393Y24436D01*
X23216Y24007D01*
X23216Y22221D01*
X23393Y21792D01*
X23722Y21463D01*
X24152Y21285D01*
X24616Y21285D01*
X23961Y21364D02*
X22267Y21364D01*
X22076Y21285D02*
X22506Y21463D01*
X22835Y21792D01*
X23012Y22221D01*
X23012Y24007D01*
X22835Y24436D01*
X22506Y24765D01*
X22076Y24943D01*
X21612Y24943D01*
X21182Y24765D01*
X20853Y24436D01*
X20676Y24007D01*
X20676Y22221D01*
X20853Y21792D01*
X21182Y21463D01*
X21612Y21285D01*
X22076Y21285D01*
X21421Y21364D02*
X19727Y21364D01*
X19536Y21285D02*
X19966Y21463D01*
X20295Y21792D01*
X20472Y22221D01*
X20472Y24007D01*
X20295Y24436D01*
X19966Y24765D01*
X19536Y24943D01*
X19072Y24943D01*
X18642Y24765D01*
X18313Y24436D01*
X18136Y24007D01*
X18136Y22221D01*
X18313Y21792D01*
X18642Y21463D01*
X19072Y21285D01*
X19536Y21285D01*
X18881Y21364D02*
X17187Y21364D01*
X16996Y21285D02*
X17426Y21463D01*
X17755Y21792D01*
X17932Y22221D01*
X17932Y24007D01*
X17755Y24436D01*
X17426Y24765D01*
X16996Y24943D01*
X16532Y24943D01*
X16102Y24765D01*
X15773Y24436D01*
X15596Y24007D01*
X15596Y22221D01*
X15773Y21792D01*
X16102Y21463D01*
X16532Y21285D01*
X16996Y21285D01*
X16341Y21364D02*
X14647Y21364D01*
X13801Y21364D02*
X07587Y21364D01*
X07358Y20959D02*
X85344Y20959D01*
X85344Y20554D02*
X07039Y20554D01*
X07476Y20149D02*
X85344Y20149D01*
X85344Y19745D02*
X11369Y19745D01*
X11760Y19354D02*
X10972Y20142D01*
X09856Y20142D01*
X09068Y19354D01*
X09068Y18238D01*
X09856Y17450D01*
X10972Y17450D01*
X11760Y18238D01*
X11760Y19354D01*
X11760Y19340D02*
X85344Y19340D01*
X85344Y18935D02*
X11760Y18935D01*
X11760Y18530D02*
X85344Y18530D01*
X85344Y18125D02*
X11647Y18125D01*
X11242Y17720D02*
X85344Y17720D01*
X85344Y17315D02*
X80515Y17315D01*
X80496Y17323D02*
X80032Y17323D01*
X79602Y17145D01*
X79273Y16816D01*
X79096Y16387D01*
X79096Y14601D01*
X79273Y14172D01*
X79602Y13843D01*
X80032Y13665D01*
X80496Y13665D01*
X80926Y13843D01*
X81255Y14172D01*
X81432Y14601D01*
X81432Y16387D01*
X81255Y16816D01*
X80926Y17145D01*
X80496Y17323D01*
X80013Y17315D02*
X77975Y17315D01*
X77956Y17323D02*
X77492Y17323D01*
X77062Y17145D01*
X76733Y16816D01*
X76556Y16387D01*
X76556Y14601D01*
X76733Y14172D01*
X77062Y13843D01*
X77492Y13665D01*
X77956Y13665D01*
X78386Y13843D01*
X78715Y14172D01*
X78892Y14601D01*
X78892Y16387D01*
X78715Y16816D01*
X78386Y17145D01*
X77956Y17323D01*
X77473Y17315D02*
X75435Y17315D01*
X75416Y17323D02*
X74952Y17323D01*
X74522Y17145D01*
X74193Y16816D01*
X74016Y16387D01*
X74016Y14601D01*
X74193Y14172D01*
X74522Y13843D01*
X74952Y13665D01*
X75416Y13665D01*
X75846Y13843D01*
X76175Y14172D01*
X76352Y14601D01*
X76352Y16387D01*
X76175Y16816D01*
X75846Y17145D01*
X75416Y17323D01*
X74933Y17315D02*
X72895Y17315D01*
X72876Y17323D02*
X72412Y17323D01*
X71982Y17145D01*
X71653Y16816D01*
X71476Y16387D01*
X71476Y14601D01*
X71653Y14172D01*
X71982Y13843D01*
X72105Y13792D01*
X72086Y13792D01*
X71298Y13004D01*
X71298Y11888D01*
X72086Y11100D01*
X73202Y11100D01*
X73990Y11888D01*
X73990Y13004D01*
X73202Y13792D01*
X73183Y13792D01*
X73306Y13843D01*
X73635Y14172D01*
X73812Y14601D01*
X73812Y16387D01*
X73635Y16816D01*
X73306Y17145D01*
X72876Y17323D01*
X72393Y17315D02*
X70355Y17315D01*
X70336Y17323D02*
X70766Y17145D01*
X71095Y16816D01*
X71272Y16387D01*
X71272Y14601D01*
X71095Y14172D01*
X70766Y13843D01*
X70336Y13665D01*
X69872Y13665D01*
X69442Y13843D01*
X69113Y14172D01*
X68936Y14601D01*
X68936Y16387D01*
X69113Y16816D01*
X69442Y17145D01*
X69872Y17323D01*
X70336Y17323D01*
X69853Y17315D02*
X67815Y17315D01*
X67796Y17323D02*
X67332Y17323D01*
X66902Y17145D01*
X66573Y16816D01*
X66396Y16387D01*
X66396Y14601D01*
X66573Y14172D01*
X66902Y13843D01*
X67332Y13665D01*
X67796Y13665D01*
X68226Y13843D01*
X68555Y14172D01*
X68732Y14601D01*
X68732Y16387D01*
X68555Y16816D01*
X68226Y17145D01*
X67796Y17323D01*
X67313Y17315D02*
X53845Y17315D01*
X53826Y17323D02*
X53362Y17323D01*
X52932Y17145D01*
X52603Y16816D01*
X52426Y16387D01*
X52426Y14601D01*
X52603Y14172D01*
X52932Y13843D01*
X53362Y13665D01*
X53826Y13665D01*
X54256Y13843D01*
X54585Y14172D01*
X54762Y14601D01*
X54762Y16387D01*
X54585Y16816D01*
X54256Y17145D01*
X53826Y17323D01*
X53343Y17315D02*
X51305Y17315D01*
X51286Y17323D02*
X50822Y17323D01*
X50392Y17145D01*
X50063Y16816D01*
X49886Y16387D01*
X49886Y14601D01*
X50063Y14172D01*
X50392Y13843D01*
X50822Y13665D01*
X51286Y13665D01*
X51716Y13843D01*
X52045Y14172D01*
X52222Y14601D01*
X52222Y16387D01*
X52045Y16816D01*
X51716Y17145D01*
X51286Y17323D01*
X50803Y17315D02*
X48765Y17315D01*
X48746Y17323D02*
X48282Y17323D01*
X47852Y17145D01*
X47523Y16816D01*
X47346Y16387D01*
X47346Y14601D01*
X47523Y14172D01*
X47852Y13843D01*
X47975Y13792D01*
X47956Y13792D01*
X47168Y13004D01*
X47168Y11888D01*
X47956Y11100D01*
X49072Y11100D01*
X49860Y11888D01*
X49860Y13004D01*
X49072Y13792D01*
X49053Y13792D01*
X49176Y13843D01*
X49505Y14172D01*
X49682Y14601D01*
X49682Y16387D01*
X49505Y16816D01*
X49176Y17145D01*
X48746Y17323D01*
X48263Y17315D02*
X46225Y17315D01*
X46206Y17323D02*
X45742Y17323D01*
X45312Y17145D01*
X44983Y16816D01*
X44806Y16387D01*
X44806Y14601D01*
X44983Y14172D01*
X45312Y13843D01*
X45742Y13665D01*
X46206Y13665D01*
X46636Y13843D01*
X46965Y14172D01*
X47142Y14601D01*
X47142Y16387D01*
X46965Y16816D01*
X46636Y17145D01*
X46206Y17323D01*
X45723Y17315D02*
X43685Y17315D01*
X43666Y17323D02*
X43202Y17323D01*
X42772Y17145D01*
X42443Y16816D01*
X42266Y16387D01*
X42266Y14601D01*
X42443Y14172D01*
X42772Y13843D01*
X43202Y13665D01*
X43666Y13665D01*
X44096Y13843D01*
X44425Y14172D01*
X44602Y14601D01*
X44602Y16387D01*
X44425Y16816D01*
X44096Y17145D01*
X43666Y17323D01*
X43183Y17315D02*
X41145Y17315D01*
X41126Y17323D02*
X40662Y17323D01*
X40232Y17145D01*
X39903Y16816D01*
X39726Y16387D01*
X39726Y14601D01*
X39903Y14172D01*
X40232Y13843D01*
X40662Y13665D01*
X41126Y13665D01*
X41556Y13843D01*
X41885Y14172D01*
X42062Y14601D01*
X42062Y16387D01*
X41885Y16816D01*
X41556Y17145D01*
X41126Y17323D01*
X40643Y17315D02*
X27175Y17315D01*
X27156Y17323D02*
X26692Y17323D01*
X26262Y17145D01*
X25933Y16816D01*
X25756Y16387D01*
X25756Y14601D01*
X25933Y14172D01*
X26262Y13843D01*
X26692Y13665D01*
X27156Y13665D01*
X27586Y13843D01*
X27915Y14172D01*
X28092Y14601D01*
X28092Y16387D01*
X27915Y16816D01*
X27586Y17145D01*
X27156Y17323D01*
X26673Y17315D02*
X24635Y17315D01*
X24616Y17323D02*
X24152Y17323D01*
X23722Y17145D01*
X23393Y16816D01*
X23216Y16387D01*
X23216Y14601D01*
X23393Y14172D01*
X23722Y13843D01*
X24152Y13665D01*
X24616Y13665D01*
X25046Y13843D01*
X25375Y14172D01*
X25552Y14601D01*
X25552Y16387D01*
X25375Y16816D01*
X25046Y17145D01*
X24616Y17323D01*
X24133Y17315D02*
X22095Y17315D01*
X22076Y17323D02*
X21612Y17323D01*
X21182Y17145D01*
X20853Y16816D01*
X20676Y16387D01*
X20676Y14601D01*
X20853Y14172D01*
X21182Y13843D01*
X21612Y13665D01*
X22076Y13665D01*
X22506Y13843D01*
X22835Y14172D01*
X23012Y14601D01*
X23012Y16387D01*
X22835Y16816D01*
X22506Y17145D01*
X22076Y17323D01*
X21593Y17315D02*
X19555Y17315D01*
X19536Y17323D02*
X19072Y17323D01*
X18642Y17145D01*
X18313Y16816D01*
X18136Y16387D01*
X18136Y14601D01*
X18313Y14172D01*
X18642Y13843D01*
X19072Y13665D01*
X19536Y13665D01*
X19966Y13843D01*
X20295Y14172D01*
X20472Y14601D01*
X20472Y16387D01*
X20295Y16816D01*
X19966Y17145D01*
X19536Y17323D01*
X19053Y17315D02*
X17015Y17315D01*
X16996Y17323D02*
X16532Y17323D01*
X16102Y17145D01*
X15773Y16816D01*
X15596Y16387D01*
X15596Y14601D01*
X15773Y14172D01*
X16102Y13843D01*
X16532Y13665D01*
X16996Y13665D01*
X17426Y13843D01*
X17755Y14172D01*
X17932Y14601D01*
X17932Y16387D01*
X17755Y16816D01*
X17426Y17145D01*
X16996Y17323D01*
X16513Y17315D02*
X14475Y17315D01*
X14456Y17323D02*
X13992Y17323D01*
X13562Y17145D01*
X13233Y16816D01*
X13056Y16387D01*
X13056Y14601D01*
X13233Y14172D01*
X13562Y13843D01*
X13992Y13665D01*
X14456Y13665D01*
X14886Y13843D01*
X15215Y14172D01*
X15392Y14601D01*
X15392Y16387D01*
X15215Y16816D01*
X14886Y17145D01*
X14456Y17323D01*
X13973Y17315D02*
X07561Y17315D01*
X07665Y16910D02*
X13327Y16910D01*
X13105Y16505D02*
X07647Y16505D01*
X07504Y16100D02*
X13056Y16100D01*
X13056Y15695D02*
X07180Y15695D01*
X07255Y15291D02*
X13056Y15291D01*
X13056Y14886D02*
X07567Y14886D01*
X07722Y14481D02*
X13105Y14481D01*
X13329Y14076D02*
X07722Y14076D01*
X07612Y13671D02*
X13978Y13671D01*
X14470Y13671D02*
X16518Y13671D01*
X17010Y13671D02*
X19058Y13671D01*
X19550Y13671D02*
X21598Y13671D01*
X22090Y13671D02*
X24138Y13671D01*
X24630Y13671D02*
X26678Y13671D01*
X27170Y13671D02*
X27515Y13671D01*
X27636Y13792D02*
X26848Y13004D01*
X26848Y11888D01*
X27636Y11100D01*
X28752Y11100D01*
X29540Y11888D01*
X29540Y13004D01*
X28752Y13792D01*
X27636Y13792D01*
X27819Y14076D02*
X28641Y14076D01*
X28612Y14106D02*
X28736Y13981D01*
X28878Y13878D01*
X29035Y13798D01*
X29202Y13744D01*
X29376Y13716D01*
X29464Y13716D01*
X29552Y13716D01*
X29726Y13744D01*
X29893Y13798D01*
X30050Y13878D01*
X30192Y13981D01*
X30316Y14106D01*
X30420Y14248D01*
X30500Y14405D01*
X30554Y14572D01*
X30582Y14746D01*
X30582Y15494D01*
X30582Y16242D01*
X30554Y16416D01*
X30500Y16583D01*
X30420Y16740D01*
X30316Y16882D01*
X30192Y17007D01*
X30050Y17110D01*
X29893Y17190D01*
X29726Y17244D01*
X29552Y17272D01*
X29464Y17272D01*
X29464Y15494D01*
X30582Y15494D01*
X29464Y15494D01*
X29464Y15494D01*
X29464Y15494D01*
X29464Y13716D01*
X29464Y15494D01*
X29464Y15494D01*
X29464Y15494D01*
X28346Y15494D01*
X28346Y14746D01*
X28374Y14572D01*
X28428Y14405D01*
X28508Y14248D01*
X28612Y14106D01*
X28404Y14481D02*
X28043Y14481D01*
X28092Y14886D02*
X28346Y14886D01*
X29464Y14886D02*
X29464Y14886D01*
X29464Y14481D02*
X29464Y14481D01*
X29464Y14076D02*
X29464Y14076D01*
X30287Y14076D02*
X32026Y14076D01*
X31928Y14174D02*
X32716Y13386D01*
X33832Y13386D01*
X34620Y14174D01*
X34620Y15290D01*
X33832Y16078D01*
X32716Y16078D01*
X31928Y15290D01*
X31928Y14174D01*
X31928Y14481D02*
X30524Y14481D01*
X30582Y14886D02*
X31928Y14886D01*
X31929Y15291D02*
X30582Y15291D01*
X30582Y15695D02*
X32334Y15695D01*
X30582Y16100D02*
X39726Y16100D01*
X39775Y16505D02*
X30525Y16505D01*
X30289Y16910D02*
X39997Y16910D01*
X41791Y16910D02*
X42537Y16910D01*
X42315Y16505D02*
X42013Y16505D01*
X42062Y16100D02*
X42266Y16100D01*
X42266Y15695D02*
X42062Y15695D01*
X42062Y15291D02*
X42266Y15291D01*
X42266Y14886D02*
X42062Y14886D01*
X42013Y14481D02*
X42315Y14481D01*
X42539Y14076D02*
X41789Y14076D01*
X41140Y13671D02*
X43188Y13671D01*
X43680Y13671D02*
X45728Y13671D01*
X46220Y13671D02*
X47835Y13671D01*
X47430Y13266D02*
X29278Y13266D01*
X28873Y13671D02*
X32431Y13671D01*
X34117Y13671D02*
X36241Y13671D01*
X36526Y13386D02*
X37642Y13386D01*
X38430Y14174D01*
X38430Y15290D01*
X37642Y16078D01*
X36526Y16078D01*
X35738Y15290D01*
X35738Y14174D01*
X36526Y13386D01*
X37927Y13671D02*
X40648Y13671D01*
X39999Y14076D02*
X38332Y14076D01*
X38430Y14481D02*
X39775Y14481D01*
X39726Y14886D02*
X38430Y14886D01*
X38429Y15291D02*
X39726Y15291D01*
X39726Y15695D02*
X38024Y15695D01*
X36144Y15695D02*
X34214Y15695D01*
X34619Y15291D02*
X35739Y15291D01*
X35738Y14886D02*
X34620Y14886D01*
X34620Y14481D02*
X35738Y14481D01*
X35836Y14076D02*
X34522Y14076D01*
X29540Y12861D02*
X47168Y12861D01*
X47168Y12456D02*
X29540Y12456D01*
X29540Y12051D02*
X47168Y12051D01*
X47410Y11646D02*
X44051Y11646D01*
X43976Y11722D02*
X42892Y11722D01*
X42126Y10956D01*
X42126Y09872D01*
X42892Y09106D01*
X43976Y09106D01*
X44742Y09872D01*
X44742Y10956D01*
X43976Y11722D01*
X42817Y11646D02*
X37701Y11646D01*
X37626Y11722D02*
X36542Y11722D01*
X35776Y10956D01*
X35776Y09872D01*
X36542Y09106D01*
X37626Y09106D01*
X38392Y09872D01*
X38392Y10956D01*
X37626Y11722D01*
X38106Y11242D02*
X42412Y11242D01*
X42126Y10837D02*
X38392Y10837D01*
X38392Y10432D02*
X42126Y10432D01*
X42126Y10027D02*
X38392Y10027D01*
X38142Y09622D02*
X42376Y09622D01*
X42781Y09217D02*
X37737Y09217D01*
X36431Y09217D02*
X23767Y09217D01*
X23656Y09106D02*
X24422Y09872D01*
X24422Y10956D01*
X23656Y11722D01*
X22572Y11722D01*
X21806Y10956D01*
X21806Y09872D01*
X22572Y09106D01*
X23656Y09106D01*
X24172Y09622D02*
X36026Y09622D01*
X35776Y10027D02*
X24422Y10027D01*
X24422Y10432D02*
X35776Y10432D01*
X35776Y10837D02*
X24422Y10837D01*
X24136Y11242D02*
X27495Y11242D01*
X27090Y11646D02*
X23731Y11646D01*
X22497Y11646D02*
X17381Y11646D01*
X17306Y11722D02*
X16222Y11722D01*
X15456Y10956D01*
X15456Y09872D01*
X16222Y09106D01*
X17306Y09106D01*
X18072Y09872D01*
X18072Y10956D01*
X17306Y11722D01*
X16147Y11646D02*
X07722Y11646D01*
X07689Y12051D02*
X26848Y12051D01*
X26848Y12456D02*
X07521Y12456D01*
X07144Y12861D02*
X26848Y12861D01*
X27110Y13266D02*
X07363Y13266D01*
X07658Y11242D02*
X15742Y11242D01*
X15456Y10837D02*
X11061Y10837D01*
X11466Y10432D02*
X15456Y10432D01*
X15456Y10027D02*
X11709Y10027D01*
X11709Y09622D02*
X15706Y09622D01*
X16111Y09217D02*
X11709Y09217D01*
X11406Y08812D02*
X85344Y08812D01*
X85344Y09217D02*
X78377Y09217D01*
X78266Y09106D02*
X79032Y09872D01*
X79032Y10956D01*
X78266Y11722D01*
X77182Y11722D01*
X76416Y10956D01*
X76416Y09872D01*
X77182Y09106D01*
X78266Y09106D01*
X78782Y09622D02*
X85344Y09622D01*
X85344Y10027D02*
X79032Y10027D01*
X79032Y10432D02*
X85344Y10432D01*
X85344Y10837D02*
X79032Y10837D01*
X78746Y11242D02*
X82105Y11242D01*
X82246Y11100D02*
X83362Y11100D01*
X84150Y11888D01*
X84150Y13004D01*
X83362Y13792D01*
X83216Y13792D01*
X83233Y13798D01*
X83390Y13878D01*
X83532Y13981D01*
X83656Y14106D01*
X83760Y14248D01*
X83840Y14405D01*
X83894Y14572D01*
X83922Y14746D01*
X83922Y15494D01*
X83922Y16242D01*
X83894Y16416D01*
X83840Y16583D01*
X83760Y16740D01*
X83656Y16882D01*
X83532Y17007D01*
X83390Y17110D01*
X83233Y17190D01*
X83066Y17244D01*
X82892Y17272D01*
X82804Y17272D01*
X82804Y15494D01*
X83922Y15494D01*
X82804Y15494D01*
X82804Y15494D01*
X82804Y15494D01*
X82804Y15494D01*
X81686Y15494D01*
X81686Y14746D01*
X81714Y14572D01*
X81768Y14405D01*
X81848Y14248D01*
X81952Y14106D01*
X82076Y13981D01*
X82218Y13878D01*
X82375Y13798D01*
X82392Y13792D01*
X82246Y13792D01*
X81458Y13004D01*
X81458Y11888D01*
X82246Y11100D01*
X81700Y11646D02*
X78341Y11646D01*
X77107Y11646D02*
X73748Y11646D01*
X73990Y12051D02*
X81458Y12051D01*
X81458Y12456D02*
X73990Y12456D01*
X73990Y12861D02*
X81458Y12861D01*
X81720Y13266D02*
X73728Y13266D01*
X73323Y13671D02*
X74938Y13671D01*
X75430Y13671D02*
X77478Y13671D01*
X77970Y13671D02*
X80018Y13671D01*
X80510Y13671D02*
X82125Y13671D01*
X81981Y14076D02*
X81159Y14076D01*
X81383Y14481D02*
X81744Y14481D01*
X81686Y14886D02*
X81432Y14886D01*
X81432Y15291D02*
X81686Y15291D01*
X81686Y15494D02*
X82804Y15494D01*
X82804Y17272D01*
X82716Y17272D01*
X82542Y17244D01*
X82375Y17190D01*
X82218Y17110D01*
X82076Y17007D01*
X81952Y16882D01*
X81848Y16740D01*
X81768Y16583D01*
X81714Y16416D01*
X81686Y16242D01*
X81686Y15494D01*
X81686Y15695D02*
X81432Y15695D01*
X81432Y16100D02*
X81686Y16100D01*
X81743Y16505D02*
X81383Y16505D01*
X81161Y16910D02*
X81979Y16910D01*
X82804Y16910D02*
X82804Y16910D01*
X83629Y16910D02*
X85344Y16910D01*
X85344Y16505D02*
X83865Y16505D01*
X83922Y16100D02*
X85344Y16100D01*
X85344Y15695D02*
X83922Y15695D01*
X83922Y15291D02*
X85344Y15291D01*
X85344Y14886D02*
X83922Y14886D01*
X83864Y14481D02*
X85344Y14481D01*
X85344Y14076D02*
X83627Y14076D01*
X83483Y13671D02*
X85344Y13671D01*
X85344Y13266D02*
X83888Y13266D01*
X84150Y12861D02*
X85344Y12861D01*
X85344Y12456D02*
X84150Y12456D01*
X84150Y12051D02*
X85344Y12051D01*
X85344Y11646D02*
X83908Y11646D01*
X83503Y11242D02*
X85344Y11242D01*
X77071Y09217D02*
X68217Y09217D01*
X68106Y09106D02*
X68872Y09872D01*
X68872Y10956D01*
X68106Y11722D01*
X67022Y11722D01*
X66256Y10956D01*
X66256Y09872D01*
X67022Y09106D01*
X68106Y09106D01*
X66911Y09217D02*
X61867Y09217D01*
X61756Y09106D02*
X62522Y09872D01*
X62522Y10956D01*
X61756Y11722D01*
X60672Y11722D01*
X59906Y10956D01*
X59906Y09872D01*
X60672Y09106D01*
X61756Y09106D01*
X62272Y09622D02*
X66506Y09622D01*
X66256Y10027D02*
X62522Y10027D01*
X62522Y10432D02*
X66256Y10432D01*
X66256Y10837D02*
X62522Y10837D01*
X62236Y11242D02*
X66542Y11242D01*
X66947Y11646D02*
X61831Y11646D01*
X60597Y11646D02*
X54211Y11646D01*
X54136Y11722D02*
X53052Y11722D01*
X52286Y10956D01*
X52286Y09872D01*
X53052Y09106D01*
X54136Y09106D01*
X54902Y09872D01*
X54902Y10956D01*
X54136Y11722D01*
X54616Y11242D02*
X60192Y11242D01*
X59906Y10837D02*
X54902Y10837D01*
X54902Y10432D02*
X59906Y10432D01*
X59906Y10027D02*
X54902Y10027D01*
X54652Y09622D02*
X60156Y09622D01*
X60561Y09217D02*
X54247Y09217D01*
X52941Y09217D02*
X44087Y09217D01*
X44492Y09622D02*
X52536Y09622D01*
X52286Y10027D02*
X44742Y10027D01*
X44742Y10432D02*
X52286Y10432D01*
X52286Y10837D02*
X44742Y10837D01*
X44456Y11242D02*
X47815Y11242D01*
X49213Y11242D02*
X52572Y11242D01*
X52977Y11646D02*
X49618Y11646D01*
X49860Y12051D02*
X71298Y12051D01*
X71540Y11646D02*
X68181Y11646D01*
X68586Y11242D02*
X71945Y11242D01*
X73343Y11242D02*
X76702Y11242D01*
X76416Y10837D02*
X68872Y10837D01*
X68872Y10432D02*
X76416Y10432D01*
X76416Y10027D02*
X68872Y10027D01*
X68622Y09622D02*
X76666Y09622D01*
X71298Y12456D02*
X49860Y12456D01*
X49860Y12861D02*
X71298Y12861D01*
X71560Y13266D02*
X49598Y13266D01*
X49193Y13671D02*
X50808Y13671D01*
X51300Y13671D02*
X53348Y13671D01*
X53840Y13671D02*
X59101Y13671D01*
X59386Y13386D02*
X60502Y13386D01*
X61290Y14174D01*
X61290Y15290D01*
X60502Y16078D01*
X59386Y16078D01*
X58598Y15290D01*
X58598Y14174D01*
X59386Y13386D01*
X60787Y13671D02*
X62911Y13671D01*
X63196Y13386D02*
X64312Y13386D01*
X65100Y14174D01*
X65100Y15290D01*
X64312Y16078D01*
X63196Y16078D01*
X62408Y15290D01*
X62408Y14174D01*
X63196Y13386D01*
X64597Y13671D02*
X67318Y13671D01*
X67810Y13671D02*
X69858Y13671D01*
X70350Y13671D02*
X71965Y13671D01*
X71749Y14076D02*
X70999Y14076D01*
X71223Y14481D02*
X71525Y14481D01*
X71476Y14886D02*
X71272Y14886D01*
X71272Y15291D02*
X71476Y15291D01*
X71476Y15695D02*
X71272Y15695D01*
X71272Y16100D02*
X71476Y16100D01*
X71525Y16505D02*
X71223Y16505D01*
X71001Y16910D02*
X71747Y16910D01*
X73541Y16910D02*
X74287Y16910D01*
X74065Y16505D02*
X73763Y16505D01*
X73812Y16100D02*
X74016Y16100D01*
X74016Y15695D02*
X73812Y15695D01*
X73812Y15291D02*
X74016Y15291D01*
X74016Y14886D02*
X73812Y14886D01*
X73763Y14481D02*
X74065Y14481D01*
X74289Y14076D02*
X73539Y14076D01*
X76079Y14076D02*
X76829Y14076D01*
X76605Y14481D02*
X76303Y14481D01*
X76352Y14886D02*
X76556Y14886D01*
X76556Y15291D02*
X76352Y15291D01*
X76352Y15695D02*
X76556Y15695D01*
X76556Y16100D02*
X76352Y16100D01*
X76303Y16505D02*
X76605Y16505D01*
X76827Y16910D02*
X76081Y16910D01*
X78621Y16910D02*
X79367Y16910D01*
X79145Y16505D02*
X78843Y16505D01*
X78892Y16100D02*
X79096Y16100D01*
X79096Y15695D02*
X78892Y15695D01*
X78892Y15291D02*
X79096Y15291D01*
X79096Y14886D02*
X78892Y14886D01*
X78843Y14481D02*
X79145Y14481D01*
X79369Y14076D02*
X78619Y14076D01*
X82804Y15695D02*
X82804Y15695D01*
X82804Y16100D02*
X82804Y16100D01*
X82804Y16505D02*
X82804Y16505D01*
X69207Y16910D02*
X68461Y16910D01*
X68683Y16505D02*
X68985Y16505D01*
X68936Y16100D02*
X68732Y16100D01*
X68732Y15695D02*
X68936Y15695D01*
X68936Y15291D02*
X68732Y15291D01*
X68732Y14886D02*
X68936Y14886D01*
X68985Y14481D02*
X68683Y14481D01*
X68459Y14076D02*
X69209Y14076D01*
X66669Y14076D02*
X65002Y14076D01*
X65100Y14481D02*
X66445Y14481D01*
X66396Y14886D02*
X65100Y14886D01*
X65099Y15291D02*
X66396Y15291D01*
X66396Y15695D02*
X64694Y15695D01*
X66396Y16100D02*
X57252Y16100D01*
X57252Y16242D02*
X57224Y16416D01*
X57170Y16583D01*
X57090Y16740D01*
X56986Y16882D01*
X56862Y17007D01*
X56720Y17110D01*
X56563Y17190D01*
X56396Y17244D01*
X56222Y17272D01*
X56134Y17272D01*
X56134Y15494D01*
X57252Y15494D01*
X57252Y16242D01*
X57195Y16505D02*
X66445Y16505D01*
X66667Y16910D02*
X56959Y16910D01*
X56134Y16910D02*
X56134Y16910D01*
X56134Y17272D02*
X56046Y17272D01*
X55872Y17244D01*
X55705Y17190D01*
X55548Y17110D01*
X55406Y17007D01*
X55282Y16882D01*
X55178Y16740D01*
X55098Y16583D01*
X55044Y16416D01*
X55016Y16242D01*
X55016Y15494D01*
X55016Y14746D01*
X55044Y14572D01*
X55098Y14405D01*
X55178Y14248D01*
X55282Y14106D01*
X55406Y13981D01*
X55548Y13878D01*
X55705Y13798D01*
X55872Y13744D01*
X56046Y13716D01*
X56134Y13716D01*
X56222Y13716D01*
X56396Y13744D01*
X56563Y13798D01*
X56720Y13878D01*
X56862Y13981D01*
X56986Y14106D01*
X57090Y14248D01*
X57170Y14405D01*
X57224Y14572D01*
X57252Y14746D01*
X57252Y15494D01*
X56134Y15494D01*
X56134Y15494D01*
X56134Y15494D01*
X56134Y13716D01*
X56134Y15494D01*
X56134Y15494D01*
X56134Y15494D01*
X55016Y15494D01*
X56134Y15494D01*
X56134Y17272D01*
X55309Y16910D02*
X54491Y16910D01*
X54713Y16505D02*
X55073Y16505D01*
X55016Y16100D02*
X54762Y16100D01*
X56134Y16100D02*
X56134Y16100D01*
X56134Y16505D02*
X56134Y16505D01*
X56134Y15695D02*
X56134Y15695D01*
X56134Y15291D02*
X56134Y15291D01*
X57252Y15291D02*
X58599Y15291D01*
X59004Y15695D02*
X57252Y15695D01*
X55016Y15695D02*
X54762Y15695D01*
X54762Y15291D02*
X55016Y15291D01*
X55016Y14886D02*
X54762Y14886D01*
X54713Y14481D02*
X55074Y14481D01*
X55311Y14076D02*
X54489Y14076D01*
X56134Y14076D02*
X56134Y14076D01*
X56134Y14481D02*
X56134Y14481D01*
X56134Y14886D02*
X56134Y14886D01*
X57252Y14886D02*
X58598Y14886D01*
X58598Y14481D02*
X57194Y14481D01*
X56957Y14076D02*
X58696Y14076D01*
X61192Y14076D02*
X62506Y14076D01*
X62408Y14481D02*
X61290Y14481D01*
X61290Y14886D02*
X62408Y14886D01*
X62409Y15291D02*
X61289Y15291D01*
X60884Y15695D02*
X62814Y15695D01*
X52697Y16910D02*
X51951Y16910D01*
X52173Y16505D02*
X52475Y16505D01*
X52426Y16100D02*
X52222Y16100D01*
X52222Y15695D02*
X52426Y15695D01*
X52426Y15291D02*
X52222Y15291D01*
X52222Y14886D02*
X52426Y14886D01*
X52475Y14481D02*
X52173Y14481D01*
X51949Y14076D02*
X52699Y14076D01*
X50159Y14076D02*
X49409Y14076D01*
X49633Y14481D02*
X49935Y14481D01*
X49886Y14886D02*
X49682Y14886D01*
X49682Y15291D02*
X49886Y15291D01*
X49886Y15695D02*
X49682Y15695D01*
X49682Y16100D02*
X49886Y16100D01*
X49935Y16505D02*
X49633Y16505D01*
X49411Y16910D02*
X50157Y16910D01*
X47617Y16910D02*
X46871Y16910D01*
X47093Y16505D02*
X47395Y16505D01*
X47346Y16100D02*
X47142Y16100D01*
X47142Y15695D02*
X47346Y15695D01*
X47346Y15291D02*
X47142Y15291D01*
X47142Y14886D02*
X47346Y14886D01*
X47395Y14481D02*
X47093Y14481D01*
X46869Y14076D02*
X47619Y14076D01*
X45079Y14076D02*
X44329Y14076D01*
X44553Y14481D02*
X44855Y14481D01*
X44806Y14886D02*
X44602Y14886D01*
X44602Y15291D02*
X44806Y15291D01*
X44806Y15695D02*
X44602Y15695D01*
X44602Y16100D02*
X44806Y16100D01*
X44855Y16505D02*
X44553Y16505D01*
X44331Y16910D02*
X45077Y16910D01*
X56557Y21364D02*
X67141Y21364D01*
X67987Y21364D02*
X69681Y21364D01*
X69872Y21285D02*
X70336Y21285D01*
X70766Y21463D01*
X71095Y21792D01*
X71272Y22221D01*
X71272Y24007D01*
X71095Y24436D01*
X70766Y24765D01*
X70336Y24943D01*
X69872Y24943D01*
X69442Y24765D01*
X69113Y24436D01*
X68936Y24007D01*
X68936Y22221D01*
X69113Y21792D01*
X69442Y21463D01*
X69872Y21285D01*
X70527Y21364D02*
X72221Y21364D01*
X72412Y21285D02*
X72876Y21285D01*
X73306Y21463D01*
X73635Y21792D01*
X73812Y22221D01*
X73812Y24007D01*
X73635Y24436D01*
X73306Y24765D01*
X72876Y24943D01*
X72412Y24943D01*
X71982Y24765D01*
X71653Y24436D01*
X71476Y24007D01*
X71476Y22221D01*
X71653Y21792D01*
X71982Y21463D01*
X72412Y21285D01*
X73067Y21364D02*
X74761Y21364D01*
X74952Y21285D02*
X75416Y21285D01*
X75846Y21463D01*
X76175Y21792D01*
X76352Y22221D01*
X76352Y24007D01*
X76175Y24436D01*
X75846Y24765D01*
X75416Y24943D01*
X74952Y24943D01*
X74522Y24765D01*
X74193Y24436D01*
X74016Y24007D01*
X74016Y22221D01*
X74193Y21792D01*
X74522Y21463D01*
X74952Y21285D01*
X75607Y21364D02*
X77301Y21364D01*
X77492Y21285D02*
X77956Y21285D01*
X78386Y21463D01*
X78715Y21792D01*
X78892Y22221D01*
X78892Y24007D01*
X78715Y24436D01*
X78386Y24765D01*
X77956Y24943D01*
X77492Y24943D01*
X77062Y24765D01*
X76733Y24436D01*
X76556Y24007D01*
X76556Y22221D01*
X76733Y21792D01*
X77062Y21463D01*
X77492Y21285D01*
X78147Y21364D02*
X79841Y21364D01*
X80032Y21285D02*
X79602Y21463D01*
X79273Y21792D01*
X79096Y22221D01*
X79096Y24007D01*
X79273Y24436D01*
X79602Y24765D01*
X80032Y24943D01*
X80496Y24943D01*
X80926Y24765D01*
X81255Y24436D01*
X81432Y24007D01*
X81432Y22221D01*
X81255Y21792D01*
X80926Y21463D01*
X80496Y21285D01*
X80032Y21285D01*
X80687Y21364D02*
X82381Y21364D01*
X82572Y21285D02*
X82142Y21463D01*
X81813Y21792D01*
X81636Y22221D01*
X81636Y24007D01*
X81813Y24436D01*
X82142Y24765D01*
X82572Y24943D01*
X83036Y24943D01*
X83466Y24765D01*
X83795Y24436D01*
X83972Y24007D01*
X83972Y22221D01*
X83795Y21792D01*
X83466Y21463D01*
X83036Y21285D01*
X82572Y21285D01*
X83227Y21364D02*
X85344Y21364D01*
X85344Y21769D02*
X83772Y21769D01*
X83953Y22174D02*
X85344Y22174D01*
X85344Y22579D02*
X83972Y22579D01*
X83972Y22984D02*
X85344Y22984D01*
X85344Y23389D02*
X83972Y23389D01*
X83972Y23793D02*
X85344Y23793D01*
X85344Y24198D02*
X83893Y24198D01*
X83627Y24603D02*
X85344Y24603D01*
X85344Y25008D02*
X64526Y25008D01*
X64931Y24603D02*
X66741Y24603D01*
X66475Y24198D02*
X65100Y24198D01*
X65100Y23793D02*
X66396Y23793D01*
X66396Y23389D02*
X65100Y23389D01*
X64766Y22984D02*
X66396Y22984D01*
X68732Y22984D02*
X68936Y22984D01*
X68936Y22579D02*
X68732Y22579D01*
X68713Y22174D02*
X68955Y22174D01*
X69136Y21769D02*
X68532Y21769D01*
X66596Y21769D02*
X57102Y21769D01*
X52626Y21769D02*
X52022Y21769D01*
X52203Y22174D02*
X52445Y22174D01*
X52426Y22579D02*
X52222Y22579D01*
X52222Y22984D02*
X52426Y22984D01*
X52426Y23389D02*
X52222Y23389D01*
X52222Y23793D02*
X52426Y23793D01*
X52505Y24198D02*
X52143Y24198D01*
X51877Y24603D02*
X52771Y24603D01*
X50231Y24603D02*
X49337Y24603D01*
X49603Y24198D02*
X49965Y24198D01*
X49886Y23793D02*
X49682Y23793D01*
X49682Y23389D02*
X49886Y23389D01*
X49886Y22984D02*
X49682Y22984D01*
X49682Y22579D02*
X49886Y22579D01*
X49905Y22174D02*
X49663Y22174D01*
X49482Y21769D02*
X50086Y21769D01*
X47546Y21769D02*
X46942Y21769D01*
X47123Y22174D02*
X47365Y22174D01*
X47346Y22579D02*
X47142Y22579D01*
X47142Y22984D02*
X47346Y22984D01*
X47346Y23389D02*
X47142Y23389D01*
X47142Y23793D02*
X47346Y23793D01*
X47425Y24198D02*
X47063Y24198D01*
X46797Y24603D02*
X47691Y24603D01*
X45151Y24603D02*
X44257Y24603D01*
X44523Y24198D02*
X44885Y24198D01*
X44806Y23793D02*
X44602Y23793D01*
X44602Y23389D02*
X44806Y23389D01*
X44806Y22984D02*
X44602Y22984D01*
X44602Y22579D02*
X44806Y22579D01*
X44825Y22174D02*
X44583Y22174D01*
X44402Y21769D02*
X45006Y21769D01*
X42466Y21769D02*
X41862Y21769D01*
X42043Y22174D02*
X42285Y22174D01*
X42266Y22579D02*
X42062Y22579D01*
X42062Y22984D02*
X42266Y22984D01*
X42266Y23389D02*
X42062Y23389D01*
X42062Y23793D02*
X42266Y23793D01*
X42345Y24198D02*
X41983Y24198D01*
X41717Y24603D02*
X42611Y24603D01*
X40071Y24603D02*
X38261Y24603D01*
X38430Y24198D02*
X39805Y24198D01*
X39726Y23793D02*
X38430Y23793D01*
X38430Y23389D02*
X39726Y23389D01*
X39726Y22984D02*
X38096Y22984D01*
X37691Y22579D02*
X39726Y22579D01*
X39745Y22174D02*
X30613Y22174D01*
X30432Y21769D02*
X39926Y21769D01*
X28496Y21769D02*
X27892Y21769D01*
X28073Y22174D02*
X28315Y22174D01*
X28296Y22579D02*
X28092Y22579D01*
X28092Y22984D02*
X28296Y22984D01*
X28296Y23389D02*
X28092Y23389D01*
X28092Y23793D02*
X28296Y23793D01*
X28375Y24198D02*
X28013Y24198D01*
X27747Y24603D02*
X28641Y24603D01*
X26101Y24603D02*
X25207Y24603D01*
X25473Y24198D02*
X25835Y24198D01*
X25756Y23793D02*
X25552Y23793D01*
X25552Y23389D02*
X25756Y23389D01*
X25756Y22984D02*
X25552Y22984D01*
X25552Y22579D02*
X25756Y22579D01*
X25775Y22174D02*
X25533Y22174D01*
X25352Y21769D02*
X25956Y21769D01*
X23416Y21769D02*
X22812Y21769D01*
X22993Y22174D02*
X23235Y22174D01*
X23216Y22579D02*
X23012Y22579D01*
X23012Y22984D02*
X23216Y22984D01*
X23216Y23389D02*
X23012Y23389D01*
X23012Y23793D02*
X23216Y23793D01*
X23295Y24198D02*
X22933Y24198D01*
X22667Y24603D02*
X23561Y24603D01*
X21021Y24603D02*
X20127Y24603D01*
X20393Y24198D02*
X20755Y24198D01*
X20676Y23793D02*
X20472Y23793D01*
X20472Y23389D02*
X20676Y23389D01*
X20676Y22984D02*
X20472Y22984D01*
X20472Y22579D02*
X20676Y22579D01*
X20695Y22174D02*
X20453Y22174D01*
X20272Y21769D02*
X20876Y21769D01*
X18336Y21769D02*
X17732Y21769D01*
X17913Y22174D02*
X18155Y22174D01*
X18136Y22579D02*
X17932Y22579D01*
X17932Y22984D02*
X18136Y22984D01*
X18136Y23389D02*
X17932Y23389D01*
X17932Y23793D02*
X18136Y23793D01*
X18215Y24198D02*
X17853Y24198D01*
X17587Y24603D02*
X18481Y24603D01*
X15941Y24603D02*
X15047Y24603D01*
X15313Y24198D02*
X15675Y24198D01*
X15596Y23793D02*
X15392Y23793D01*
X15392Y23389D02*
X15596Y23389D01*
X15596Y22984D02*
X15392Y22984D01*
X15392Y22579D02*
X15596Y22579D01*
X15615Y22174D02*
X15373Y22174D01*
X15192Y21769D02*
X15796Y21769D01*
X09459Y19745D02*
X07658Y19745D01*
X07722Y19340D02*
X09068Y19340D01*
X09068Y18935D02*
X07688Y18935D01*
X07520Y18530D02*
X09068Y18530D01*
X09181Y18125D02*
X07142Y18125D01*
X07293Y17720D02*
X09586Y17720D01*
X15121Y16910D02*
X15867Y16910D01*
X15645Y16505D02*
X15343Y16505D01*
X15392Y16100D02*
X15596Y16100D01*
X15596Y15695D02*
X15392Y15695D01*
X15392Y15291D02*
X15596Y15291D01*
X15596Y14886D02*
X15392Y14886D01*
X15343Y14481D02*
X15645Y14481D01*
X15869Y14076D02*
X15119Y14076D01*
X17659Y14076D02*
X18409Y14076D01*
X18185Y14481D02*
X17883Y14481D01*
X17932Y14886D02*
X18136Y14886D01*
X18136Y15291D02*
X17932Y15291D01*
X17932Y15695D02*
X18136Y15695D01*
X18136Y16100D02*
X17932Y16100D01*
X17883Y16505D02*
X18185Y16505D01*
X18407Y16910D02*
X17661Y16910D01*
X20201Y16910D02*
X20947Y16910D01*
X20725Y16505D02*
X20423Y16505D01*
X20472Y16100D02*
X20676Y16100D01*
X20676Y15695D02*
X20472Y15695D01*
X20472Y15291D02*
X20676Y15291D01*
X20676Y14886D02*
X20472Y14886D01*
X20423Y14481D02*
X20725Y14481D01*
X20949Y14076D02*
X20199Y14076D01*
X22739Y14076D02*
X23489Y14076D01*
X23265Y14481D02*
X22963Y14481D01*
X23012Y14886D02*
X23216Y14886D01*
X23216Y15291D02*
X23012Y15291D01*
X23012Y15695D02*
X23216Y15695D01*
X23216Y16100D02*
X23012Y16100D01*
X22963Y16505D02*
X23265Y16505D01*
X23487Y16910D02*
X22741Y16910D01*
X25281Y16910D02*
X26027Y16910D01*
X25805Y16505D02*
X25503Y16505D01*
X25552Y16100D02*
X25756Y16100D01*
X25756Y15695D02*
X25552Y15695D01*
X25552Y15291D02*
X25756Y15291D01*
X25756Y14886D02*
X25552Y14886D01*
X25503Y14481D02*
X25805Y14481D01*
X26029Y14076D02*
X25279Y14076D01*
X28092Y15291D02*
X28346Y15291D01*
X28346Y15494D02*
X29464Y15494D01*
X29464Y17272D01*
X29376Y17272D01*
X29202Y17244D01*
X29035Y17190D01*
X28878Y17110D01*
X28736Y17007D01*
X28612Y16882D01*
X28508Y16740D01*
X28428Y16583D01*
X28374Y16416D01*
X28346Y16242D01*
X28346Y15494D01*
X28346Y15695D02*
X28092Y15695D01*
X29464Y15695D02*
X29464Y15695D01*
X29464Y15291D02*
X29464Y15291D01*
X29464Y16100D02*
X29464Y16100D01*
X29464Y16505D02*
X29464Y16505D01*
X28403Y16505D02*
X28043Y16505D01*
X28092Y16100D02*
X28346Y16100D01*
X28639Y16910D02*
X27821Y16910D01*
X29464Y16910D02*
X29464Y16910D01*
X29298Y11646D02*
X36467Y11646D01*
X36062Y11242D02*
X28893Y11242D01*
X22461Y09217D02*
X17417Y09217D01*
X17822Y09622D02*
X22056Y09622D01*
X21806Y10027D02*
X18072Y10027D01*
X18072Y10432D02*
X21806Y10432D01*
X21806Y10837D02*
X18072Y10837D01*
X17786Y11242D02*
X22092Y11242D01*
X10414Y10837D02*
X10414Y10837D01*
X10414Y10432D02*
X10414Y10432D01*
X09767Y10837D02*
X07474Y10837D01*
X07034Y10432D02*
X09362Y10432D01*
X09119Y10027D02*
X07359Y10027D01*
X07587Y09622D02*
X09119Y09622D01*
X10414Y09622D02*
X10414Y09622D01*
X10414Y10027D02*
X10414Y10027D01*
X10414Y09217D02*
X10414Y09217D01*
X10414Y08812D02*
X10414Y08812D01*
X43434Y06383D02*
X43434Y06383D01*
X43434Y05978D02*
X43434Y05978D01*
X44163Y06383D02*
X52865Y06383D01*
X52460Y05978D02*
X44568Y05978D01*
X48514Y04358D02*
X48514Y04358D01*
X48514Y03953D02*
X48514Y03953D01*
X53594Y04358D02*
X53594Y04358D01*
X53594Y04763D02*
X53594Y04763D01*
X53594Y05168D02*
X53594Y05168D01*
X53594Y05573D02*
X53594Y05573D01*
X53594Y05978D02*
X53594Y05978D01*
X53594Y06383D02*
X53594Y06383D01*
X72644Y04358D02*
X72644Y04358D01*
X72644Y03953D02*
X72644Y03953D01*
X77724Y05978D02*
X77724Y05978D01*
X77724Y06383D02*
X77724Y06383D01*
X76756Y21769D02*
X76152Y21769D01*
X76333Y22174D02*
X76575Y22174D01*
X76556Y22579D02*
X76352Y22579D01*
X76352Y22984D02*
X76556Y22984D01*
X76556Y23389D02*
X76352Y23389D01*
X76352Y23793D02*
X76556Y23793D01*
X76635Y24198D02*
X76273Y24198D01*
X76007Y24603D02*
X76901Y24603D01*
X78547Y24603D02*
X79441Y24603D01*
X79175Y24198D02*
X78813Y24198D01*
X78892Y23793D02*
X79096Y23793D01*
X79096Y23389D02*
X78892Y23389D01*
X78892Y22984D02*
X79096Y22984D01*
X79096Y22579D02*
X78892Y22579D01*
X78873Y22174D02*
X79115Y22174D01*
X79296Y21769D02*
X78692Y21769D01*
X81232Y21769D02*
X81836Y21769D01*
X81655Y22174D02*
X81413Y22174D01*
X81432Y22579D02*
X81636Y22579D01*
X81636Y22984D02*
X81432Y22984D01*
X81432Y23389D02*
X81636Y23389D01*
X81636Y23793D02*
X81432Y23793D01*
X81353Y24198D02*
X81715Y24198D01*
X81981Y24603D02*
X81087Y24603D01*
X85344Y25413D02*
X01524Y25413D01*
X01524Y25818D02*
X85344Y25818D01*
X85344Y26223D02*
X01524Y26223D01*
X01524Y26628D02*
X85344Y26628D01*
X74361Y24603D02*
X73467Y24603D01*
X73733Y24198D02*
X74095Y24198D01*
X74016Y23793D02*
X73812Y23793D01*
X73812Y23389D02*
X74016Y23389D01*
X74016Y22984D02*
X73812Y22984D01*
X73812Y22579D02*
X74016Y22579D01*
X74035Y22174D02*
X73793Y22174D01*
X73612Y21769D02*
X74216Y21769D01*
X71676Y21769D02*
X71072Y21769D01*
X71253Y22174D02*
X71495Y22174D01*
X71476Y22579D02*
X71272Y22579D01*
X71272Y22984D02*
X71476Y22984D01*
X71476Y23389D02*
X71272Y23389D01*
X71272Y23793D02*
X71476Y23793D01*
X71555Y24198D02*
X71193Y24198D01*
X70927Y24603D02*
X71821Y24603D01*
X69281Y24603D02*
X68387Y24603D01*
X68653Y24198D02*
X69015Y24198D01*
X68936Y23793D02*
X68732Y23793D01*
X68732Y23389D02*
X68936Y23389D01*
M02*
