G75*
%MOMM*%
%OFA0B0*%
%FSLAX33Y33*%
%IPPOS*%
%LPD*%
%AMOC8*
5,1,8,0,0,1.08239X$1,22.5*
%
%ADD10C,0.000*%
%ADD11C,0.051*%
%ADD12C,1.321*%
%ADD13OC8,1.600*%
%ADD14OC8,1.676*%
%ADD15C,1.880*%
%ADD16C,0.406*%
D10*
X00254Y00254D02*
X00254Y27864D01*
X86594Y27864D01*
X86594Y00254D01*
X00254Y00254D01*
D11*
X08339Y02633D02*
X08339Y03192D01*
X08619Y03192D01*
X08712Y03099D01*
X08712Y02913D01*
X08619Y02819D01*
X08339Y02819D01*
X08150Y02913D02*
X08150Y03099D01*
X08057Y03192D01*
X07871Y03192D01*
X07778Y03099D01*
X07778Y02913D01*
X07871Y02819D01*
X08057Y02819D01*
X08150Y02913D01*
X07590Y02819D02*
X07403Y02819D01*
X07497Y02819D02*
X07497Y03379D01*
X07403Y03379D01*
X07215Y03379D02*
X06842Y03006D01*
X06935Y03099D02*
X07215Y02819D01*
X06842Y02819D02*
X06842Y03379D01*
X06935Y03734D02*
X06935Y04293D01*
X06749Y04107D01*
X06560Y04200D02*
X06187Y03827D01*
X06280Y03734D01*
X06467Y03734D01*
X06560Y03827D01*
X06560Y04200D01*
X06467Y04293D01*
X06280Y04293D01*
X06187Y04200D01*
X06187Y03827D01*
X05999Y03734D02*
X05626Y03734D01*
X05999Y04107D01*
X05999Y04200D01*
X05906Y04293D01*
X05719Y04293D01*
X05626Y04200D01*
X05439Y03827D02*
X05439Y03734D01*
X05345Y03734D01*
X05345Y03827D01*
X05439Y03827D01*
X05157Y03734D02*
X04784Y03734D01*
X04970Y03734D02*
X04970Y04293D01*
X04784Y04107D01*
X04596Y04200D02*
X04223Y03827D01*
X04316Y03734D01*
X04502Y03734D01*
X04596Y03827D01*
X04596Y04200D01*
X04502Y04293D01*
X04316Y04293D01*
X04223Y04200D01*
X04223Y03827D01*
X04035Y03827D02*
X04035Y03734D01*
X03942Y03734D01*
X03942Y03827D01*
X04035Y03827D01*
X03754Y03827D02*
X03660Y03734D01*
X03474Y03734D01*
X03381Y03827D01*
X03192Y03734D02*
X02819Y03734D01*
X03006Y03734D02*
X03006Y04293D01*
X02819Y04107D01*
X03381Y04200D02*
X03474Y04293D01*
X03660Y04293D01*
X03754Y04200D01*
X03754Y04107D01*
X03660Y04013D01*
X03754Y03920D01*
X03754Y03827D01*
X03660Y04013D02*
X03567Y04013D01*
X03942Y04462D02*
X03942Y05021D01*
X04222Y05021D01*
X04315Y04928D01*
X04315Y04741D01*
X04222Y04648D01*
X03942Y04648D01*
X03754Y04648D02*
X03754Y04928D01*
X03660Y05021D01*
X03567Y04928D01*
X03567Y04648D01*
X03381Y04648D02*
X03381Y05021D01*
X03474Y05021D01*
X03567Y04928D01*
X03192Y04928D02*
X02819Y04928D01*
X02819Y05021D02*
X03006Y05207D01*
X03192Y05021D01*
X03192Y04648D01*
X02819Y04648D02*
X02819Y05021D01*
X04503Y05207D02*
X04597Y05207D01*
X04597Y04648D01*
X04690Y04648D02*
X04503Y04648D01*
X04878Y04648D02*
X05064Y04648D01*
X04971Y04648D02*
X04971Y05021D01*
X04878Y05021D01*
X04971Y05207D02*
X04971Y05301D01*
X05345Y05114D02*
X05438Y05207D01*
X05345Y05114D02*
X05345Y04648D01*
X05626Y04648D02*
X05812Y04648D01*
X05719Y04648D02*
X05719Y05021D01*
X05626Y05021D01*
X05719Y05207D02*
X05719Y05301D01*
X05438Y04928D02*
X05252Y04928D01*
X06000Y04928D02*
X06000Y04741D01*
X06093Y04648D01*
X06373Y04648D01*
X06561Y04741D02*
X06655Y04835D01*
X06934Y04835D01*
X06934Y04928D02*
X06934Y04648D01*
X06655Y04648D01*
X06561Y04741D01*
X06655Y05021D02*
X06841Y05021D01*
X06934Y04928D01*
X07123Y04928D02*
X07123Y04741D01*
X07216Y04648D01*
X07496Y04648D01*
X07496Y05207D01*
X07496Y05021D02*
X07216Y05021D01*
X07123Y04928D01*
X07684Y04928D02*
X07684Y04741D01*
X07777Y04648D01*
X07964Y04648D01*
X08057Y04741D01*
X08057Y04928D01*
X07964Y05021D01*
X07777Y05021D01*
X07684Y04928D01*
X08245Y05021D02*
X08245Y04648D01*
X08245Y04835D02*
X08432Y05021D01*
X08525Y05021D01*
X09274Y05114D02*
X09368Y05207D01*
X09554Y05207D01*
X09647Y05114D01*
X09647Y05021D01*
X09554Y04928D01*
X09647Y04835D01*
X09647Y04741D01*
X09554Y04648D01*
X09368Y04648D01*
X09274Y04741D01*
X09461Y04928D02*
X09554Y04928D01*
X10397Y04928D02*
X10584Y04928D01*
X10770Y05207D02*
X10397Y05207D01*
X10397Y04648D01*
X10770Y04648D01*
X10958Y04648D02*
X11238Y04648D01*
X11331Y04741D01*
X11238Y04835D01*
X11052Y04835D01*
X10958Y04928D01*
X11052Y05021D01*
X11331Y05021D01*
X11520Y05021D02*
X11706Y05021D01*
X11613Y05114D02*
X11613Y04741D01*
X11706Y04648D01*
X11894Y04741D02*
X11987Y04835D01*
X12267Y04835D01*
X12267Y04928D02*
X12267Y04648D01*
X11987Y04648D01*
X11894Y04741D01*
X11987Y05021D02*
X12174Y05021D01*
X12267Y04928D01*
X12455Y04928D02*
X12455Y04741D01*
X12548Y04648D01*
X12828Y04648D01*
X12828Y04555D02*
X12828Y05021D01*
X12548Y05021D01*
X12455Y04928D01*
X12828Y04555D02*
X12735Y04462D01*
X12642Y04462D01*
X13017Y04648D02*
X13203Y04648D01*
X13110Y04648D02*
X13110Y05021D01*
X13017Y05021D01*
X13110Y05207D02*
X13110Y05301D01*
X13391Y04928D02*
X13391Y04741D01*
X13484Y04648D01*
X13670Y04648D01*
X13764Y04741D01*
X13764Y04928D01*
X13670Y05021D01*
X13484Y05021D01*
X13391Y04928D01*
X13952Y04928D02*
X14045Y05021D01*
X14325Y05021D01*
X14232Y04835D02*
X14045Y04835D01*
X13952Y04928D01*
X13952Y04648D02*
X14232Y04648D01*
X14325Y04741D01*
X14232Y04835D01*
X11051Y03734D02*
X10678Y03734D01*
X10864Y03734D02*
X10864Y04293D01*
X10678Y04107D01*
X10489Y04200D02*
X10396Y04293D01*
X10210Y04293D01*
X10116Y04200D01*
X10116Y04107D01*
X10210Y04013D01*
X10396Y04013D01*
X10489Y03920D01*
X10489Y03827D01*
X10396Y03734D01*
X10210Y03734D01*
X10116Y03827D01*
X09928Y03920D02*
X09928Y04293D01*
X09555Y04293D02*
X09555Y03920D01*
X09742Y03734D01*
X09928Y03920D01*
X10023Y03379D02*
X10116Y03379D01*
X10116Y02819D01*
X10023Y02819D02*
X10209Y02819D01*
X09834Y03006D02*
X09462Y03006D01*
X09462Y02913D02*
X09462Y03099D01*
X09555Y03192D01*
X09741Y03192D01*
X09834Y03099D01*
X09834Y03006D01*
X09741Y02819D02*
X09555Y02819D01*
X09462Y02913D01*
X09273Y02913D02*
X09180Y02819D01*
X08900Y02819D01*
X08900Y02633D02*
X08900Y03192D01*
X09180Y03192D01*
X09273Y03099D01*
X09273Y02913D01*
X07683Y03827D02*
X07590Y03734D01*
X07403Y03734D01*
X07310Y03827D01*
X07310Y03920D01*
X07403Y04013D01*
X07590Y04013D01*
X07683Y03920D01*
X07683Y03827D01*
X07590Y04013D02*
X07683Y04107D01*
X07683Y04200D01*
X07590Y04293D01*
X07403Y04293D01*
X07310Y04200D01*
X07310Y04107D01*
X07403Y04013D01*
X07121Y03734D02*
X06749Y03734D01*
X05439Y03472D02*
X05439Y03379D01*
X05439Y03192D02*
X05439Y02819D01*
X05532Y02819D02*
X05345Y02819D01*
X05345Y03192D02*
X05439Y03192D01*
X05719Y03192D02*
X06092Y03192D01*
X05719Y02819D01*
X06092Y02819D01*
X05157Y03192D02*
X05064Y03192D01*
X04878Y03006D01*
X04878Y03192D02*
X04878Y02819D01*
X04690Y02819D02*
X04597Y02913D01*
X04597Y03285D01*
X04690Y03192D02*
X04503Y03192D01*
X04315Y03099D02*
X04315Y02819D01*
X04035Y02819D01*
X03942Y02913D01*
X04035Y03006D01*
X04315Y03006D01*
X04315Y03099D02*
X04222Y03192D01*
X04035Y03192D01*
X03754Y03099D02*
X03754Y03006D01*
X03381Y03006D01*
X03381Y02913D02*
X03381Y03099D01*
X03474Y03192D01*
X03660Y03192D01*
X03754Y03099D01*
X03660Y02819D02*
X03474Y02819D01*
X03381Y02913D01*
X03192Y02913D02*
X03099Y02819D01*
X02819Y02819D01*
X02819Y03379D01*
X03099Y03379D01*
X03192Y03285D01*
X03192Y03192D01*
X03099Y03099D01*
X02819Y03099D01*
X03099Y03099D02*
X03192Y03006D01*
X03192Y02913D01*
X08432Y04013D02*
X08805Y04013D01*
X06373Y05021D02*
X06093Y05021D01*
X06000Y04928D01*
D12*
X14224Y14834D02*
X14224Y16154D01*
X16764Y16154D02*
X16764Y14834D01*
X19304Y14834D02*
X19304Y16154D01*
X21844Y16154D02*
X21844Y14834D01*
X24384Y14834D02*
X24384Y16154D01*
X26924Y16154D02*
X26924Y14834D01*
X29464Y14834D02*
X29464Y16154D01*
X40894Y16154D02*
X40894Y14834D01*
X43434Y14834D02*
X43434Y16154D01*
X45974Y16154D02*
X45974Y14834D01*
X48514Y14834D02*
X48514Y16154D01*
X51054Y16154D02*
X51054Y14834D01*
X53594Y14834D02*
X53594Y16154D01*
X56134Y16154D02*
X56134Y14834D01*
X67564Y14834D02*
X67564Y16154D01*
X70104Y16154D02*
X70104Y14834D01*
X72644Y14834D02*
X72644Y16154D01*
X75184Y16154D02*
X75184Y14834D01*
X77724Y14834D02*
X77724Y16154D01*
X80264Y16154D02*
X80264Y14834D01*
X82804Y14834D02*
X82804Y16154D01*
X82804Y22454D02*
X82804Y23774D01*
X80264Y23774D02*
X80264Y22454D01*
X77724Y22454D02*
X77724Y23774D01*
X75184Y23774D02*
X75184Y22454D01*
X72644Y22454D02*
X72644Y23774D01*
X70104Y23774D02*
X70104Y22454D01*
X67564Y22454D02*
X67564Y23774D01*
X56134Y23774D02*
X56134Y22454D01*
X53594Y22454D02*
X53594Y23774D01*
X51054Y23774D02*
X51054Y22454D01*
X48514Y22454D02*
X48514Y23774D01*
X45974Y23774D02*
X45974Y22454D01*
X43434Y22454D02*
X43434Y23774D01*
X40894Y23774D02*
X40894Y22454D01*
X29464Y22454D02*
X29464Y23774D01*
X26924Y23774D02*
X26924Y22454D01*
X24384Y22454D02*
X24384Y23774D01*
X21844Y23774D02*
X21844Y22454D01*
X19304Y22454D02*
X19304Y23774D01*
X16764Y23774D02*
X16764Y22454D01*
X14224Y22454D02*
X14224Y23774D01*
D13*
X16764Y10414D03*
X23114Y10414D03*
X37084Y10414D03*
X43434Y10414D03*
X53594Y10414D03*
X61214Y10414D03*
X67564Y10414D03*
X77724Y10414D03*
X77724Y05334D03*
X67564Y05334D03*
X61214Y05334D03*
X53594Y05334D03*
X43434Y05334D03*
X37084Y05334D03*
X23114Y05334D03*
X16764Y05334D03*
D14*
X28194Y03302D03*
X10414Y09652D03*
X28194Y12446D03*
X33274Y14732D03*
X37084Y14732D03*
X48514Y12446D03*
X59944Y14732D03*
X63754Y14732D03*
X72644Y12446D03*
X82804Y12446D03*
X82804Y03302D03*
X72644Y03302D03*
X48514Y03302D03*
X10414Y18796D03*
X33274Y23876D03*
X37084Y23876D03*
X59944Y23876D03*
X63754Y23876D03*
D15*
X06274Y21844D02*
X04394Y21844D01*
X04394Y19304D02*
X06274Y19304D01*
X06274Y16764D02*
X04394Y16764D01*
X04394Y14224D02*
X06274Y14224D01*
X06274Y11684D02*
X04394Y11684D01*
X04394Y09144D02*
X06274Y09144D01*
D16*
X05410Y09217D02*
X09119Y09217D01*
X09119Y09115D02*
X09877Y08357D01*
X10414Y08357D01*
X10951Y08357D01*
X11709Y09115D01*
X11709Y09652D01*
X11709Y10189D01*
X10951Y10947D01*
X10414Y10947D01*
X09877Y10947D01*
X09119Y10189D01*
X09119Y09652D01*
X09119Y09115D01*
X09422Y08812D02*
X07635Y08812D01*
X07636Y08817D02*
X07671Y09034D01*
X07671Y09068D01*
X05410Y09068D01*
X05410Y07747D01*
X06384Y07747D01*
X06601Y07781D01*
X06810Y07849D01*
X07006Y07949D01*
X07184Y08078D01*
X07339Y08234D01*
X07469Y08412D01*
X07568Y08608D01*
X07636Y08817D01*
X07671Y09220D02*
X07671Y09254D01*
X07636Y09471D01*
X07568Y09680D01*
X07469Y09876D01*
X07339Y10054D01*
X07184Y10210D01*
X07006Y10339D01*
X06918Y10384D01*
X07094Y10457D01*
X07501Y10864D01*
X07722Y11396D01*
X07722Y11972D01*
X07501Y12504D01*
X07094Y12911D01*
X06991Y12954D01*
X07094Y12997D01*
X07501Y13404D01*
X07546Y13513D01*
X10119Y13513D01*
X12243Y11389D01*
X12243Y10273D01*
X12351Y10011D01*
X14891Y07471D01*
X15091Y07271D01*
X15353Y07163D01*
X29605Y07163D01*
X29867Y07271D01*
X36217Y13621D01*
X36254Y13658D01*
X36526Y13386D01*
X37642Y13386D01*
X38430Y14174D01*
X38430Y15290D01*
X37795Y15925D01*
X37795Y16469D01*
X39919Y18593D01*
X45263Y18593D01*
X45263Y17096D01*
X44983Y16816D01*
X44806Y16387D01*
X44806Y14601D01*
X44983Y14172D01*
X45312Y13843D01*
X45742Y13665D01*
X46206Y13665D01*
X46636Y13843D01*
X46965Y14172D01*
X47142Y14601D01*
X47142Y16387D01*
X46965Y16816D01*
X46685Y17096D01*
X46685Y18593D01*
X46949Y18593D01*
X48238Y17305D01*
X47852Y17145D01*
X47523Y16816D01*
X47346Y16387D01*
X47346Y14601D01*
X47523Y14172D01*
X47803Y13892D01*
X47803Y13639D01*
X47168Y13004D01*
X47168Y11888D01*
X47803Y11253D01*
X47803Y10273D01*
X47911Y10011D01*
X50451Y07471D01*
X50651Y07271D01*
X50913Y07163D01*
X56275Y07163D01*
X56537Y07271D01*
X59077Y09811D01*
X59277Y10011D01*
X59385Y10273D01*
X59385Y13167D01*
X59604Y13386D01*
X60502Y13386D01*
X61290Y14174D01*
X61290Y15290D01*
X60502Y16078D01*
X59386Y16078D01*
X58598Y15290D01*
X58598Y14392D01*
X58071Y13865D01*
X57963Y13603D01*
X57963Y10709D01*
X55839Y08585D01*
X51349Y08585D01*
X49225Y10709D01*
X49225Y11253D01*
X49860Y11888D01*
X49860Y13004D01*
X49225Y13639D01*
X49225Y13892D01*
X49505Y14172D01*
X49682Y14601D01*
X49682Y15860D01*
X49886Y15657D01*
X49886Y14601D01*
X50063Y14172D01*
X50343Y13892D01*
X50343Y12813D01*
X50451Y12551D01*
X52286Y10716D01*
X52286Y09872D01*
X53052Y09106D01*
X54136Y09106D01*
X54902Y09872D01*
X54902Y10956D01*
X54136Y11722D01*
X53292Y11722D01*
X51765Y13249D01*
X51765Y13892D01*
X52045Y14172D01*
X52222Y14601D01*
X52222Y16387D01*
X52045Y16816D01*
X51716Y17145D01*
X51286Y17323D01*
X50822Y17323D01*
X50404Y17150D01*
X47691Y19863D01*
X49489Y19863D01*
X51721Y17631D01*
X51921Y17431D01*
X52183Y17323D01*
X62625Y17323D01*
X62887Y17431D01*
X65319Y19863D01*
X65847Y19863D01*
X65691Y19707D01*
X63151Y17167D01*
X63043Y16905D01*
X63043Y15925D01*
X62408Y15290D01*
X62408Y14174D01*
X63188Y13394D01*
X61516Y11722D01*
X60672Y11722D01*
X59906Y10956D01*
X59906Y09872D01*
X60672Y09106D01*
X61756Y09106D01*
X62522Y09872D01*
X62522Y10716D01*
X64049Y12243D01*
X65165Y12243D01*
X65427Y12351D01*
X65627Y12551D01*
X66914Y13838D01*
X67288Y13683D01*
X67161Y13557D01*
X66961Y13357D01*
X66853Y13095D01*
X66853Y11553D01*
X66256Y10956D01*
X66256Y09872D01*
X67022Y09106D01*
X68106Y09106D01*
X68872Y09872D01*
X68872Y10956D01*
X68275Y11553D01*
X68275Y12659D01*
X69454Y13838D01*
X69872Y13665D01*
X70336Y13665D01*
X70766Y13843D01*
X71095Y14172D01*
X71272Y14601D01*
X71272Y16387D01*
X71095Y16816D01*
X70766Y17145D01*
X70336Y17323D01*
X69872Y17323D01*
X69442Y17145D01*
X69113Y16816D01*
X68936Y16387D01*
X68936Y15331D01*
X68732Y15128D01*
X68732Y16387D01*
X68555Y16816D01*
X68226Y17145D01*
X67796Y17323D01*
X67332Y17323D01*
X66902Y17145D01*
X66573Y16816D01*
X66396Y16387D01*
X66396Y15331D01*
X64729Y13665D01*
X64591Y13665D01*
X65100Y14174D01*
X65100Y15290D01*
X64465Y15925D01*
X64465Y16469D01*
X66589Y18593D01*
X73619Y18593D01*
X74908Y17305D01*
X74522Y17145D01*
X74193Y16816D01*
X74016Y16387D01*
X74016Y14823D01*
X73812Y14620D01*
X73812Y16387D01*
X73635Y16816D01*
X73306Y17145D01*
X72876Y17323D01*
X72412Y17323D01*
X71982Y17145D01*
X71653Y16816D01*
X71476Y16387D01*
X71476Y14601D01*
X71653Y14172D01*
X71982Y13843D01*
X72105Y13792D01*
X72086Y13792D01*
X71298Y13004D01*
X71298Y11888D01*
X72086Y11100D01*
X73202Y11100D01*
X73990Y11888D01*
X73990Y12786D01*
X74893Y13689D01*
X74952Y13665D01*
X75416Y13665D01*
X75846Y13843D01*
X76175Y14172D01*
X76352Y14601D01*
X76352Y15860D01*
X76556Y15657D01*
X76556Y14601D01*
X76733Y14172D01*
X77013Y13892D01*
X77013Y11553D01*
X76416Y10956D01*
X76416Y09872D01*
X77182Y09106D01*
X78026Y09106D01*
X82093Y05039D01*
X82093Y04495D01*
X81458Y03860D01*
X81458Y02744D01*
X82246Y01956D01*
X83362Y01956D01*
X84150Y02744D01*
X84150Y03860D01*
X83515Y04495D01*
X83515Y05475D01*
X83407Y05737D01*
X79032Y10112D01*
X79032Y10956D01*
X78435Y11553D01*
X78435Y13892D01*
X78715Y14172D01*
X78892Y14601D01*
X78892Y16387D01*
X78715Y16816D01*
X78386Y17145D01*
X77956Y17323D01*
X77492Y17323D01*
X77074Y17150D01*
X74361Y19863D01*
X75325Y19863D01*
X75587Y19971D01*
X77074Y21458D01*
X77125Y21437D01*
X80823Y17739D01*
X80823Y17188D01*
X80496Y17323D01*
X80032Y17323D01*
X79602Y17145D01*
X79273Y16816D01*
X79096Y16387D01*
X79096Y14601D01*
X79273Y14172D01*
X79602Y13843D01*
X80032Y13665D01*
X80496Y13665D01*
X80823Y13800D01*
X80823Y13575D01*
X80931Y13313D01*
X81458Y12786D01*
X81458Y11888D01*
X82246Y11100D01*
X83362Y11100D01*
X84150Y11888D01*
X84150Y13004D01*
X83362Y13792D01*
X83216Y13792D01*
X83233Y13798D01*
X83390Y13878D01*
X83532Y13981D01*
X83656Y14106D01*
X83760Y14248D01*
X83840Y14405D01*
X83894Y14572D01*
X83922Y14746D01*
X83922Y15494D01*
X83922Y16242D01*
X83894Y16416D01*
X83840Y16583D01*
X83760Y16740D01*
X83656Y16882D01*
X83532Y17007D01*
X83390Y17110D01*
X83233Y17190D01*
X83066Y17244D01*
X82892Y17272D01*
X82804Y17272D01*
X82804Y15494D01*
X82804Y15494D01*
X83922Y15494D01*
X82804Y15494D01*
X82804Y15494D01*
X82804Y17272D01*
X82716Y17272D01*
X82542Y17244D01*
X82375Y17190D01*
X82245Y17124D01*
X82245Y18175D01*
X82137Y18437D01*
X81937Y18637D01*
X78734Y21839D01*
X78892Y22221D01*
X78892Y24007D01*
X78715Y24436D01*
X78386Y24765D01*
X77956Y24943D01*
X77492Y24943D01*
X77062Y24765D01*
X76733Y24436D01*
X76556Y24007D01*
X76556Y22951D01*
X76352Y22748D01*
X76352Y24007D01*
X76175Y24436D01*
X75846Y24765D01*
X75416Y24943D01*
X74952Y24943D01*
X74534Y24770D01*
X73047Y26257D01*
X72785Y26365D01*
X50913Y26365D01*
X50651Y26257D01*
X50451Y26057D01*
X49164Y24770D01*
X48746Y24943D01*
X48282Y24943D01*
X47864Y24770D01*
X46377Y26257D01*
X46115Y26365D01*
X24243Y26365D01*
X23981Y26257D01*
X23781Y26057D01*
X22494Y24770D01*
X22076Y24943D01*
X21612Y24943D01*
X21194Y24770D01*
X19707Y26257D01*
X19445Y26365D01*
X05193Y26365D01*
X04931Y26257D01*
X04731Y26057D01*
X02191Y23517D01*
X02083Y23255D01*
X02083Y12813D01*
X02191Y12551D01*
X02391Y12351D01*
X02946Y11796D01*
X02946Y11396D01*
X03167Y10864D01*
X03574Y10457D01*
X03750Y10384D01*
X03662Y10339D01*
X03484Y10210D01*
X03329Y10054D01*
X03199Y09876D01*
X03100Y09680D01*
X03032Y09471D01*
X02997Y09254D01*
X02997Y09220D01*
X05258Y09220D01*
X05258Y09068D01*
X05410Y09068D01*
X05410Y09220D01*
X07671Y09220D01*
X07587Y09622D02*
X09119Y09622D01*
X09119Y09652D02*
X10414Y09652D01*
X10414Y09652D01*
X10414Y10947D01*
X10414Y09652D01*
X11709Y09652D01*
X10414Y09652D01*
X10414Y09652D01*
X10414Y09652D01*
X09119Y09652D01*
X09119Y10027D02*
X07359Y10027D01*
X07034Y10432D02*
X09362Y10432D01*
X09767Y10837D02*
X07474Y10837D01*
X07658Y11242D02*
X12243Y11242D01*
X12243Y10837D02*
X11061Y10837D01*
X11466Y10432D02*
X12243Y10432D01*
X12954Y10414D02*
X15494Y07874D01*
X29464Y07874D01*
X35814Y14224D01*
X35814Y19304D01*
X37084Y20574D01*
X49784Y20574D01*
X52324Y18034D01*
X62484Y18034D01*
X65024Y20574D01*
X75184Y20574D01*
X77724Y23114D01*
X77724Y21844D01*
X81534Y18034D01*
X81534Y13716D01*
X82804Y12446D01*
X84150Y12456D02*
X85344Y12456D01*
X85344Y12861D02*
X84150Y12861D01*
X83888Y13266D02*
X85344Y13266D01*
X85344Y13671D02*
X83483Y13671D01*
X83627Y14076D02*
X85344Y14076D01*
X85344Y14481D02*
X83864Y14481D01*
X83922Y14886D02*
X85344Y14886D01*
X85344Y15291D02*
X83922Y15291D01*
X83922Y15695D02*
X85344Y15695D01*
X85344Y16100D02*
X83922Y16100D01*
X83865Y16505D02*
X85344Y16505D01*
X85344Y16910D02*
X83629Y16910D01*
X82804Y16910D02*
X82804Y16910D01*
X82245Y17315D02*
X85344Y17315D01*
X85344Y17720D02*
X82245Y17720D01*
X82245Y18125D02*
X85344Y18125D01*
X85344Y18530D02*
X82044Y18530D01*
X81639Y18935D02*
X85344Y18935D01*
X85344Y19340D02*
X81234Y19340D01*
X80829Y19745D02*
X85344Y19745D01*
X85344Y20149D02*
X80424Y20149D01*
X80019Y20554D02*
X85344Y20554D01*
X85344Y20959D02*
X79615Y20959D01*
X79841Y21364D02*
X79210Y21364D01*
X79602Y21463D02*
X80032Y21285D01*
X80496Y21285D01*
X80926Y21463D01*
X81255Y21792D01*
X81432Y22221D01*
X81432Y24007D01*
X81255Y24436D01*
X80926Y24765D01*
X80496Y24943D01*
X80032Y24943D01*
X79602Y24765D01*
X79273Y24436D01*
X79096Y24007D01*
X79096Y22221D01*
X79273Y21792D01*
X79602Y21463D01*
X79296Y21769D02*
X78805Y21769D01*
X78873Y22174D02*
X79115Y22174D01*
X79096Y22579D02*
X78892Y22579D01*
X78892Y22984D02*
X79096Y22984D01*
X79096Y23389D02*
X78892Y23389D01*
X78892Y23793D02*
X79096Y23793D01*
X79175Y24198D02*
X78813Y24198D01*
X78547Y24603D02*
X79441Y24603D01*
X81087Y24603D02*
X81981Y24603D01*
X82142Y24765D02*
X81813Y24436D01*
X81636Y24007D01*
X81636Y22221D01*
X81813Y21792D01*
X82142Y21463D01*
X82572Y21285D01*
X83036Y21285D01*
X83466Y21463D01*
X83795Y21792D01*
X83972Y22221D01*
X83972Y24007D01*
X83795Y24436D01*
X83466Y24765D01*
X83036Y24943D01*
X82572Y24943D01*
X82142Y24765D01*
X81715Y24198D02*
X81353Y24198D01*
X81432Y23793D02*
X81636Y23793D01*
X81636Y23389D02*
X81432Y23389D01*
X81432Y22984D02*
X81636Y22984D01*
X81636Y22579D02*
X81432Y22579D01*
X81413Y22174D02*
X81655Y22174D01*
X81836Y21769D02*
X81232Y21769D01*
X80687Y21364D02*
X82381Y21364D01*
X83227Y21364D02*
X85344Y21364D01*
X85344Y21769D02*
X83772Y21769D01*
X83953Y22174D02*
X85344Y22174D01*
X85344Y22579D02*
X83972Y22579D01*
X83972Y22984D02*
X85344Y22984D01*
X85344Y23389D02*
X83972Y23389D01*
X83972Y23793D02*
X85344Y23793D01*
X85344Y24198D02*
X83893Y24198D01*
X83627Y24603D02*
X85344Y24603D01*
X85344Y25008D02*
X74296Y25008D01*
X73891Y25413D02*
X85344Y25413D01*
X85344Y25818D02*
X73486Y25818D01*
X72644Y25654D02*
X75184Y23114D01*
X76352Y22984D02*
X76556Y22984D01*
X76556Y23389D02*
X76352Y23389D01*
X76352Y23793D02*
X76556Y23793D01*
X76635Y24198D02*
X76273Y24198D01*
X76007Y24603D02*
X76901Y24603D01*
X74016Y23277D02*
X73812Y23480D01*
X73812Y22221D01*
X73635Y21792D01*
X73306Y21463D01*
X72876Y21285D01*
X72412Y21285D01*
X71982Y21463D01*
X71653Y21792D01*
X71476Y22221D01*
X71476Y24007D01*
X71653Y24436D01*
X71982Y24765D01*
X72368Y24925D01*
X72349Y24943D01*
X64591Y24943D01*
X65100Y24434D01*
X65100Y23318D01*
X64312Y22530D01*
X63196Y22530D01*
X62561Y23165D01*
X61137Y23165D01*
X60502Y22530D01*
X59604Y22530D01*
X57045Y19971D01*
X56783Y19863D01*
X52183Y19863D01*
X51921Y19971D01*
X51721Y20171D01*
X51721Y20171D01*
X50455Y21437D01*
X50392Y21463D01*
X50063Y21792D01*
X49886Y22221D01*
X49886Y23480D01*
X49682Y23277D01*
X49682Y22221D01*
X49505Y21792D01*
X49176Y21463D01*
X48746Y21285D01*
X48282Y21285D01*
X47852Y21463D01*
X47523Y21792D01*
X47346Y22221D01*
X47346Y23277D01*
X47142Y23480D01*
X47142Y22221D01*
X46965Y21792D01*
X46636Y21463D01*
X46206Y21285D01*
X45742Y21285D01*
X45312Y21463D01*
X44983Y21792D01*
X44806Y22221D01*
X44806Y24007D01*
X44983Y24436D01*
X45312Y24765D01*
X45698Y24925D01*
X45679Y24943D01*
X37921Y24943D01*
X38430Y24434D01*
X38430Y23318D01*
X37642Y22530D01*
X36526Y22530D01*
X35891Y23165D01*
X34467Y23165D01*
X33832Y22530D01*
X32934Y22530D01*
X30375Y19971D01*
X30113Y19863D01*
X25513Y19863D01*
X25251Y19971D01*
X23785Y21437D01*
X23722Y21463D01*
X23393Y21792D01*
X23216Y22221D01*
X23216Y23480D01*
X23012Y23277D01*
X23012Y22221D01*
X22835Y21792D01*
X22506Y21463D01*
X22076Y21285D01*
X21612Y21285D01*
X21182Y21463D01*
X20853Y21792D01*
X20676Y22221D01*
X20676Y23277D01*
X20472Y23480D01*
X20472Y22221D01*
X20295Y21792D01*
X19966Y21463D01*
X19536Y21285D01*
X19072Y21285D01*
X18642Y21463D01*
X18313Y21792D01*
X18136Y22221D01*
X18136Y24007D01*
X18313Y24436D01*
X18642Y24765D01*
X19028Y24925D01*
X19009Y24943D01*
X05629Y24943D01*
X03790Y23104D01*
X03858Y23139D01*
X04067Y23207D01*
X04284Y23241D01*
X05258Y23241D01*
X05258Y21920D01*
X05410Y21920D01*
X05410Y23241D01*
X06384Y23241D01*
X06601Y23207D01*
X06810Y23139D01*
X07006Y23039D01*
X07184Y22910D01*
X07339Y22754D01*
X07469Y22576D01*
X07568Y22380D01*
X07636Y22171D01*
X07671Y21954D01*
X07671Y21920D01*
X05410Y21920D01*
X05410Y21768D01*
X07671Y21768D01*
X07671Y21734D01*
X07636Y21517D01*
X07568Y21308D01*
X07469Y21112D01*
X07339Y20934D01*
X07184Y20778D01*
X07006Y20649D01*
X06918Y20604D01*
X07094Y20531D01*
X07501Y20124D01*
X07546Y20015D01*
X09285Y20015D01*
X09547Y19907D01*
X09584Y19870D01*
X09856Y20142D01*
X10972Y20142D01*
X11607Y19507D01*
X22493Y19507D01*
X22755Y19399D01*
X24983Y17171D01*
X25046Y17145D01*
X25375Y16816D01*
X25552Y16387D01*
X25552Y14601D01*
X25375Y14172D01*
X25046Y13843D01*
X24660Y13683D01*
X24679Y13665D01*
X27509Y13665D01*
X27636Y13792D01*
X28752Y13792D01*
X29387Y13157D01*
X30693Y13157D01*
X31928Y14392D01*
X31928Y15290D01*
X32716Y16078D01*
X33832Y16078D01*
X34620Y15290D01*
X34620Y14174D01*
X33832Y13386D01*
X32934Y13386D01*
X31391Y11843D01*
X31129Y11735D01*
X29387Y11735D01*
X28752Y11100D01*
X27636Y11100D01*
X26848Y11888D01*
X26848Y12243D01*
X24243Y12243D01*
X23981Y12351D01*
X23781Y12551D01*
X22494Y13838D01*
X22076Y13665D01*
X21612Y13665D01*
X21182Y13843D01*
X20853Y14172D01*
X20676Y14601D01*
X20676Y16387D01*
X20853Y16816D01*
X21182Y17145D01*
X21612Y17323D01*
X22076Y17323D01*
X22506Y17145D01*
X22835Y16816D01*
X23012Y16387D01*
X23012Y15331D01*
X23216Y15128D01*
X23216Y16387D01*
X23374Y16769D01*
X22057Y18085D01*
X11607Y18085D01*
X10972Y17450D01*
X09856Y17450D01*
X09068Y18238D01*
X09068Y18374D01*
X08849Y18593D01*
X07546Y18593D01*
X07501Y18484D01*
X07094Y18077D01*
X06918Y18004D01*
X07006Y17959D01*
X07184Y17830D01*
X07339Y17674D01*
X07469Y17496D01*
X07568Y17300D01*
X07636Y17091D01*
X07671Y16874D01*
X07671Y16840D01*
X05410Y16840D01*
X05410Y16688D01*
X07671Y16688D01*
X07671Y16654D01*
X07636Y16437D01*
X07568Y16228D01*
X07469Y16032D01*
X07339Y15854D01*
X07184Y15698D01*
X07006Y15569D01*
X06918Y15524D01*
X07094Y15451D01*
X07501Y15044D01*
X07546Y14935D01*
X10555Y14935D01*
X10817Y14827D01*
X13357Y12287D01*
X13557Y12087D01*
X13665Y11825D01*
X13665Y10709D01*
X15789Y08585D01*
X29169Y08585D01*
X35103Y14519D01*
X35103Y19445D01*
X35211Y19707D01*
X35411Y19907D01*
X35411Y19907D01*
X36481Y20977D01*
X36681Y21177D01*
X36943Y21285D01*
X49925Y21285D01*
X50187Y21177D01*
X52619Y18745D01*
X62189Y18745D01*
X64421Y20977D01*
X64621Y21177D01*
X64883Y21285D01*
X74889Y21285D01*
X74908Y21303D01*
X74522Y21463D01*
X74193Y21792D01*
X74016Y22221D01*
X74016Y23277D01*
X73904Y23389D02*
X73812Y23389D01*
X73812Y22984D02*
X74016Y22984D01*
X74016Y22579D02*
X73812Y22579D01*
X73793Y22174D02*
X74035Y22174D01*
X74216Y21769D02*
X73612Y21769D01*
X73067Y21364D02*
X74761Y21364D01*
X76170Y20554D02*
X78008Y20554D01*
X77603Y20959D02*
X76575Y20959D01*
X76980Y21364D02*
X77198Y21364D01*
X78413Y20149D02*
X75765Y20149D01*
X74479Y19745D02*
X78818Y19745D01*
X79223Y19340D02*
X74884Y19340D01*
X75289Y18935D02*
X79628Y18935D01*
X80032Y18530D02*
X75694Y18530D01*
X76099Y18125D02*
X80437Y18125D01*
X80823Y17720D02*
X76504Y17720D01*
X76909Y17315D02*
X77473Y17315D01*
X77975Y17315D02*
X80013Y17315D01*
X80515Y17315D02*
X80823Y17315D01*
X79367Y16910D02*
X78621Y16910D01*
X78843Y16505D02*
X79145Y16505D01*
X79096Y16100D02*
X78892Y16100D01*
X78892Y15695D02*
X79096Y15695D01*
X79096Y15291D02*
X78892Y15291D01*
X77724Y15494D02*
X73914Y19304D01*
X66294Y19304D01*
X63754Y16764D01*
X63754Y14732D01*
X65100Y14886D02*
X65950Y14886D01*
X65545Y14481D02*
X65100Y14481D01*
X65140Y14076D02*
X65002Y14076D01*
X64735Y13671D02*
X64597Y13671D01*
X65024Y12954D02*
X63754Y12954D01*
X61214Y10414D01*
X62522Y10432D02*
X66256Y10432D01*
X66256Y10837D02*
X62642Y10837D01*
X63047Y11242D02*
X66542Y11242D01*
X66853Y11646D02*
X63452Y11646D01*
X63857Y12051D02*
X66853Y12051D01*
X66853Y12456D02*
X65532Y12456D01*
X65937Y12861D02*
X66853Y12861D01*
X67564Y12954D02*
X67564Y10414D01*
X68872Y10432D02*
X76416Y10432D01*
X76416Y10837D02*
X68872Y10837D01*
X68586Y11242D02*
X71945Y11242D01*
X71540Y11646D02*
X68275Y11646D01*
X68275Y12051D02*
X71298Y12051D01*
X71298Y12456D02*
X68275Y12456D01*
X68477Y12861D02*
X71298Y12861D01*
X72644Y12446D02*
X75184Y14986D01*
X75184Y15494D01*
X76352Y15695D02*
X76517Y15695D01*
X76556Y15291D02*
X76352Y15291D01*
X76352Y14886D02*
X76556Y14886D01*
X76605Y14481D02*
X76303Y14481D01*
X76079Y14076D02*
X76829Y14076D01*
X77013Y13671D02*
X75430Y13671D01*
X74938Y13671D02*
X74875Y13671D01*
X74470Y13266D02*
X77013Y13266D01*
X77013Y12861D02*
X74065Y12861D01*
X73990Y12456D02*
X77013Y12456D01*
X77013Y12051D02*
X73990Y12051D01*
X73748Y11646D02*
X77013Y11646D01*
X76702Y11242D02*
X73343Y11242D01*
X76416Y10027D02*
X68872Y10027D01*
X68622Y09622D02*
X76666Y09622D01*
X77071Y09217D02*
X68217Y09217D01*
X66911Y09217D02*
X61867Y09217D01*
X62272Y09622D02*
X66506Y09622D01*
X66256Y10027D02*
X62522Y10027D01*
X60156Y09622D02*
X58888Y09622D01*
X59283Y10027D02*
X59906Y10027D01*
X59906Y10432D02*
X59385Y10432D01*
X59385Y10837D02*
X59906Y10837D01*
X60192Y11242D02*
X59385Y11242D01*
X59385Y11646D02*
X60597Y11646D01*
X59385Y12051D02*
X61846Y12051D01*
X62251Y12456D02*
X59385Y12456D01*
X59385Y12861D02*
X62655Y12861D01*
X63060Y13266D02*
X59484Y13266D01*
X58674Y13462D02*
X59944Y14732D01*
X61290Y14886D02*
X62408Y14886D01*
X62408Y14481D02*
X61290Y14481D01*
X61192Y14076D02*
X62506Y14076D01*
X62911Y13671D02*
X60787Y13671D01*
X58674Y13462D02*
X58674Y10414D01*
X56134Y07874D01*
X51054Y07874D01*
X48514Y10414D01*
X48514Y12446D01*
X48514Y15494D01*
X47346Y15695D02*
X47142Y15695D01*
X47142Y15291D02*
X47346Y15291D01*
X47346Y14886D02*
X47142Y14886D01*
X47093Y14481D02*
X47395Y14481D01*
X47619Y14076D02*
X46869Y14076D01*
X46220Y13671D02*
X47803Y13671D01*
X47430Y13266D02*
X44145Y13266D01*
X44145Y13671D02*
X45728Y13671D01*
X45079Y14076D02*
X44329Y14076D01*
X44425Y14172D02*
X44602Y14601D01*
X44602Y16387D01*
X44425Y16816D01*
X44096Y17145D01*
X43666Y17323D01*
X43202Y17323D01*
X42772Y17145D01*
X42443Y16816D01*
X42266Y16387D01*
X42266Y14601D01*
X42443Y14172D01*
X42723Y13892D01*
X42723Y11553D01*
X42126Y10956D01*
X42126Y09872D01*
X42892Y09106D01*
X43976Y09106D01*
X44742Y09872D01*
X44742Y10956D01*
X44145Y11553D01*
X44145Y13892D01*
X44425Y14172D01*
X44553Y14481D02*
X44855Y14481D01*
X44806Y14886D02*
X44602Y14886D01*
X44602Y15291D02*
X44806Y15291D01*
X44806Y15695D02*
X44602Y15695D01*
X43434Y15494D02*
X43434Y10414D01*
X44742Y10432D02*
X47803Y10432D01*
X47803Y10837D02*
X44742Y10837D01*
X44456Y11242D02*
X47803Y11242D01*
X49225Y11242D02*
X51761Y11242D01*
X52166Y10837D02*
X49225Y10837D01*
X49502Y10432D02*
X52286Y10432D01*
X53594Y10414D02*
X51054Y12954D01*
X51054Y15494D01*
X47244Y19304D01*
X46355Y19304D01*
X45974Y18923D01*
X45974Y18034D01*
X45974Y18923D01*
X45593Y19304D01*
X44704Y19304D01*
X45974Y19304D01*
X45974Y18923D01*
X45974Y19304D02*
X46355Y19304D01*
X47809Y19745D02*
X49608Y19745D01*
X51214Y20149D02*
X51743Y20149D01*
X51619Y19745D02*
X63189Y19745D01*
X63594Y20149D02*
X57223Y20149D01*
X57628Y20554D02*
X63999Y20554D01*
X64403Y20959D02*
X58033Y20959D01*
X58438Y21364D02*
X67141Y21364D01*
X67332Y21285D02*
X67796Y21285D01*
X68226Y21463D01*
X68555Y21792D01*
X68732Y22221D01*
X68732Y24007D01*
X68555Y24436D01*
X68226Y24765D01*
X67796Y24943D01*
X67332Y24943D01*
X66902Y24765D01*
X66573Y24436D01*
X66396Y24007D01*
X66396Y22221D01*
X66573Y21792D01*
X66902Y21463D01*
X67332Y21285D01*
X67987Y21364D02*
X69681Y21364D01*
X69872Y21285D02*
X70336Y21285D01*
X70766Y21463D01*
X71095Y21792D01*
X71272Y22221D01*
X71272Y24007D01*
X71095Y24436D01*
X70766Y24765D01*
X70336Y24943D01*
X69872Y24943D01*
X69442Y24765D01*
X69113Y24436D01*
X68936Y24007D01*
X68936Y22221D01*
X69113Y21792D01*
X69442Y21463D01*
X69872Y21285D01*
X70527Y21364D02*
X72221Y21364D01*
X71676Y21769D02*
X71072Y21769D01*
X71253Y22174D02*
X71495Y22174D01*
X71476Y22579D02*
X71272Y22579D01*
X71272Y22984D02*
X71476Y22984D01*
X71476Y23389D02*
X71272Y23389D01*
X71272Y23793D02*
X71476Y23793D01*
X71555Y24198D02*
X71193Y24198D01*
X70927Y24603D02*
X71821Y24603D01*
X69281Y24603D02*
X68387Y24603D01*
X68653Y24198D02*
X69015Y24198D01*
X68936Y23793D02*
X68732Y23793D01*
X68732Y23389D02*
X68936Y23389D01*
X68936Y22984D02*
X68732Y22984D01*
X68732Y22579D02*
X68936Y22579D01*
X68955Y22174D02*
X68713Y22174D01*
X68532Y21769D02*
X69136Y21769D01*
X66596Y21769D02*
X58843Y21769D01*
X59248Y22174D02*
X66415Y22174D01*
X66396Y22579D02*
X64361Y22579D01*
X64766Y22984D02*
X66396Y22984D01*
X66396Y23389D02*
X65100Y23389D01*
X65100Y23793D02*
X66396Y23793D01*
X66475Y24198D02*
X65100Y24198D01*
X64931Y24603D02*
X66741Y24603D01*
X63754Y23876D02*
X59944Y23876D01*
X56642Y20574D01*
X52324Y20574D01*
X51054Y21844D01*
X51054Y23114D01*
X49886Y22984D02*
X49682Y22984D01*
X49682Y22579D02*
X49886Y22579D01*
X49905Y22174D02*
X49663Y22174D01*
X49482Y21769D02*
X50086Y21769D01*
X50528Y21364D02*
X48937Y21364D01*
X48091Y21364D02*
X46397Y21364D01*
X45551Y21364D02*
X43857Y21364D01*
X43666Y21285D02*
X44096Y21463D01*
X44425Y21792D01*
X44602Y22221D01*
X44602Y24007D01*
X44425Y24436D01*
X44096Y24765D01*
X43666Y24943D01*
X43202Y24943D01*
X42772Y24765D01*
X42443Y24436D01*
X42266Y24007D01*
X42266Y22221D01*
X42443Y21792D01*
X42772Y21463D01*
X43202Y21285D01*
X43666Y21285D01*
X43011Y21364D02*
X41317Y21364D01*
X41126Y21285D02*
X41556Y21463D01*
X41885Y21792D01*
X42062Y22221D01*
X42062Y24007D01*
X41885Y24436D01*
X41556Y24765D01*
X41126Y24943D01*
X40662Y24943D01*
X40232Y24765D01*
X39903Y24436D01*
X39726Y24007D01*
X39726Y22221D01*
X39903Y21792D01*
X40232Y21463D01*
X40662Y21285D01*
X41126Y21285D01*
X40471Y21364D02*
X31768Y21364D01*
X31363Y20959D02*
X36463Y20959D01*
X36059Y20554D02*
X30958Y20554D01*
X29972Y20574D02*
X33274Y23876D01*
X37084Y23876D01*
X38430Y23793D02*
X39726Y23793D01*
X39726Y23389D02*
X38430Y23389D01*
X38096Y22984D02*
X39726Y22984D01*
X39726Y22579D02*
X37691Y22579D01*
X36477Y22579D02*
X33881Y22579D01*
X34286Y22984D02*
X36072Y22984D01*
X32578Y22174D02*
X39745Y22174D01*
X39926Y21769D02*
X32173Y21769D01*
X29972Y20574D02*
X25654Y20574D01*
X24384Y21844D01*
X24384Y23114D01*
X23216Y22984D02*
X23012Y22984D01*
X23012Y22579D02*
X23216Y22579D01*
X23235Y22174D02*
X22993Y22174D01*
X22812Y21769D02*
X23416Y21769D01*
X23858Y21364D02*
X22267Y21364D01*
X21421Y21364D02*
X19727Y21364D01*
X18881Y21364D02*
X17187Y21364D01*
X16996Y21285D02*
X17426Y21463D01*
X17755Y21792D01*
X17932Y22221D01*
X17932Y24007D01*
X17755Y24436D01*
X17426Y24765D01*
X16996Y24943D01*
X16532Y24943D01*
X16102Y24765D01*
X15773Y24436D01*
X15596Y24007D01*
X15596Y22221D01*
X15773Y21792D01*
X16102Y21463D01*
X16532Y21285D01*
X16996Y21285D01*
X16341Y21364D02*
X14647Y21364D01*
X14456Y21285D02*
X14886Y21463D01*
X15215Y21792D01*
X15392Y22221D01*
X15392Y24007D01*
X15215Y24436D01*
X14886Y24765D01*
X14456Y24943D01*
X13992Y24943D01*
X13562Y24765D01*
X13233Y24436D01*
X13056Y24007D01*
X13056Y22221D01*
X13233Y21792D01*
X13562Y21463D01*
X13992Y21285D01*
X14456Y21285D01*
X13801Y21364D02*
X07587Y21364D01*
X07358Y20959D02*
X24263Y20959D01*
X24668Y20554D02*
X07039Y20554D01*
X07476Y20149D02*
X25073Y20149D01*
X22814Y19340D02*
X35103Y19340D01*
X35103Y18935D02*
X23219Y18935D01*
X22352Y18796D02*
X24384Y16764D01*
X24384Y15494D01*
X25552Y15695D02*
X25756Y15695D01*
X25756Y15291D02*
X25552Y15291D01*
X25552Y14886D02*
X25756Y14886D01*
X25756Y14601D02*
X25933Y14172D01*
X26262Y13843D01*
X26692Y13665D01*
X27156Y13665D01*
X27586Y13843D01*
X27915Y14172D01*
X28092Y14601D01*
X28092Y16387D01*
X27915Y16816D01*
X27586Y17145D01*
X27156Y17323D01*
X26692Y17323D01*
X26262Y17145D01*
X25933Y16816D01*
X25756Y16387D01*
X25756Y14601D01*
X25805Y14481D02*
X25503Y14481D01*
X25279Y14076D02*
X26029Y14076D01*
X26678Y13671D02*
X24673Y13671D01*
X24384Y12954D02*
X27686Y12954D01*
X28194Y12446D01*
X30988Y12446D01*
X33274Y14732D01*
X34620Y14886D02*
X35103Y14886D01*
X35065Y14481D02*
X34620Y14481D01*
X34660Y14076D02*
X34522Y14076D01*
X34255Y13671D02*
X34117Y13671D01*
X33850Y13266D02*
X32814Y13266D01*
X32409Y12861D02*
X33445Y12861D01*
X33041Y12456D02*
X32004Y12456D01*
X31599Y12051D02*
X32636Y12051D01*
X32231Y11646D02*
X29298Y11646D01*
X28893Y11242D02*
X31826Y11242D01*
X31421Y10837D02*
X24422Y10837D01*
X24422Y10956D02*
X23656Y11722D01*
X22812Y11722D01*
X22247Y12287D01*
X21985Y12395D01*
X19599Y12395D01*
X17774Y14219D01*
X17932Y14601D01*
X17932Y16387D01*
X17755Y16816D01*
X17426Y17145D01*
X16996Y17323D01*
X16532Y17323D01*
X16102Y17145D01*
X15773Y16816D01*
X15596Y16387D01*
X15596Y14601D01*
X15773Y14172D01*
X16102Y13843D01*
X16165Y13817D01*
X18701Y11281D01*
X18901Y11081D01*
X19163Y10973D01*
X21549Y10973D01*
X21806Y10716D01*
X21806Y09872D01*
X22572Y09106D01*
X23656Y09106D01*
X24422Y09872D01*
X24422Y10956D01*
X24136Y11242D02*
X27495Y11242D01*
X27090Y11646D02*
X23731Y11646D01*
X22482Y12051D02*
X26848Y12051D01*
X23876Y12456D02*
X19537Y12456D01*
X19133Y12861D02*
X23471Y12861D01*
X24384Y12954D02*
X21844Y15494D01*
X23012Y15695D02*
X23216Y15695D01*
X23216Y15291D02*
X23053Y15291D01*
X23012Y16100D02*
X23216Y16100D01*
X23265Y16505D02*
X22963Y16505D01*
X22741Y16910D02*
X23232Y16910D01*
X22827Y17315D02*
X22095Y17315D01*
X21593Y17315D02*
X19555Y17315D01*
X19536Y17323D02*
X19072Y17323D01*
X18642Y17145D01*
X18313Y16816D01*
X18136Y16387D01*
X18136Y14601D01*
X18313Y14172D01*
X18642Y13843D01*
X19072Y13665D01*
X19536Y13665D01*
X19966Y13843D01*
X20295Y14172D01*
X20472Y14601D01*
X20472Y16387D01*
X20295Y16816D01*
X19966Y17145D01*
X19536Y17323D01*
X19053Y17315D02*
X17015Y17315D01*
X16513Y17315D02*
X14475Y17315D01*
X14456Y17323D02*
X13992Y17323D01*
X13562Y17145D01*
X13233Y16816D01*
X13056Y16387D01*
X13056Y14601D01*
X13233Y14172D01*
X13513Y13892D01*
X13513Y12813D01*
X13621Y12551D01*
X15456Y10716D01*
X15456Y09872D01*
X16222Y09106D01*
X17306Y09106D01*
X18072Y09872D01*
X18072Y10956D01*
X17306Y11722D01*
X16462Y11722D01*
X14935Y13249D01*
X14935Y13892D01*
X15215Y14172D01*
X15392Y14601D01*
X15392Y16387D01*
X15215Y16816D01*
X14886Y17145D01*
X14456Y17323D01*
X13973Y17315D02*
X07561Y17315D01*
X07665Y16910D02*
X13327Y16910D01*
X13105Y16505D02*
X07647Y16505D01*
X07504Y16100D02*
X13056Y16100D01*
X13056Y15695D02*
X07180Y15695D01*
X07255Y15291D02*
X13056Y15291D01*
X14224Y15494D02*
X14224Y12954D01*
X16764Y10414D01*
X18072Y10432D02*
X21806Y10432D01*
X21686Y10837D02*
X18072Y10837D01*
X17786Y11242D02*
X18741Y11242D01*
X18336Y11646D02*
X17381Y11646D01*
X17931Y12051D02*
X16132Y12051D01*
X15727Y12456D02*
X17526Y12456D01*
X17121Y12861D02*
X15323Y12861D01*
X14935Y13266D02*
X16716Y13266D01*
X16311Y13671D02*
X14935Y13671D01*
X15119Y14076D02*
X15869Y14076D01*
X15645Y14481D02*
X15343Y14481D01*
X15392Y14886D02*
X15596Y14886D01*
X15596Y15291D02*
X15392Y15291D01*
X15392Y15695D02*
X15596Y15695D01*
X15596Y16100D02*
X15392Y16100D01*
X15343Y16505D02*
X15645Y16505D01*
X15867Y16910D02*
X15121Y16910D01*
X17661Y16910D02*
X18407Y16910D01*
X18185Y16505D02*
X17883Y16505D01*
X17932Y16100D02*
X18136Y16100D01*
X18136Y15695D02*
X17932Y15695D01*
X17932Y15291D02*
X18136Y15291D01*
X16764Y15494D02*
X16764Y14224D01*
X19304Y11684D01*
X21844Y11684D01*
X23114Y10414D01*
X24422Y10432D02*
X31016Y10432D01*
X30611Y10027D02*
X24422Y10027D01*
X24172Y09622D02*
X30206Y09622D01*
X29801Y09217D02*
X23767Y09217D01*
X22461Y09217D02*
X17417Y09217D01*
X17822Y09622D02*
X22056Y09622D01*
X21806Y10027D02*
X18072Y10027D01*
X15706Y09622D02*
X14752Y09622D01*
X14347Y10027D02*
X15456Y10027D01*
X15456Y10432D02*
X13942Y10432D01*
X13665Y10837D02*
X15336Y10837D01*
X14931Y11242D02*
X13665Y11242D01*
X13665Y11646D02*
X14526Y11646D01*
X14121Y12051D02*
X13572Y12051D01*
X12954Y11684D02*
X12954Y10414D01*
X12345Y10027D02*
X11709Y10027D01*
X11709Y09622D02*
X12740Y09622D01*
X13145Y09217D02*
X11709Y09217D01*
X11406Y08812D02*
X13550Y08812D01*
X13955Y08407D02*
X11001Y08407D01*
X10414Y08407D02*
X10414Y08407D01*
X10414Y08357D02*
X10414Y09652D01*
X10414Y09652D01*
X10414Y08357D01*
X09827Y08407D02*
X07465Y08407D01*
X07079Y08002D02*
X14360Y08002D01*
X14765Y07597D02*
X01524Y07597D01*
X01524Y08002D02*
X03589Y08002D01*
X03662Y07949D02*
X03858Y07849D01*
X04067Y07781D01*
X04284Y07747D01*
X05258Y07747D01*
X05258Y09068D01*
X02997Y09068D01*
X02997Y09034D01*
X03032Y08817D01*
X03100Y08608D01*
X03199Y08412D01*
X03329Y08234D01*
X03484Y08078D01*
X03662Y07949D01*
X03203Y08407D02*
X01524Y08407D01*
X01524Y08812D02*
X03033Y08812D01*
X01524Y09217D02*
X05258Y09217D01*
X05258Y08812D02*
X05410Y08812D01*
X05410Y08407D02*
X05258Y08407D01*
X05258Y08002D02*
X05410Y08002D01*
X01524Y07193D02*
X15281Y07193D01*
X16243Y06591D02*
X15507Y05855D01*
X15507Y05334D01*
X15507Y04813D01*
X16243Y04077D01*
X16764Y04077D01*
X17285Y04077D01*
X18021Y04813D01*
X18021Y05334D01*
X16764Y05334D01*
X16764Y05334D01*
X16764Y06591D01*
X16243Y06591D01*
X16035Y06383D02*
X01524Y06383D01*
X01524Y05978D02*
X15630Y05978D01*
X15507Y05573D02*
X13592Y05573D01*
X13610Y05554D02*
X13331Y05834D01*
X12889Y05834D01*
X12609Y05554D01*
X11927Y05554D01*
X11834Y05648D01*
X11392Y05648D01*
X11299Y05554D01*
X11177Y05554D01*
X10991Y05741D01*
X10176Y05741D01*
X09976Y05540D01*
X09868Y05648D01*
X09775Y05741D01*
X09147Y05741D01*
X08853Y05447D01*
X08746Y05554D01*
X07903Y05554D01*
X07717Y05741D01*
X07275Y05741D01*
X07088Y05554D01*
X06220Y05554D01*
X05940Y05834D01*
X05498Y05834D01*
X05405Y05741D01*
X05285Y05741D01*
X05192Y05834D01*
X04750Y05834D01*
X04657Y05741D01*
X04282Y05741D01*
X04096Y05554D01*
X03413Y05554D01*
X03227Y05741D01*
X02785Y05741D01*
X02472Y05428D01*
X02286Y05242D01*
X02286Y04707D01*
X02286Y04427D01*
X02336Y04377D01*
X02286Y04328D01*
X02286Y02598D01*
X02598Y02286D01*
X05098Y02286D01*
X05111Y02299D01*
X05124Y02286D01*
X06313Y02286D01*
X06467Y02440D01*
X06621Y02286D01*
X07932Y02286D01*
X08118Y02100D01*
X08560Y02100D01*
X08620Y02159D01*
X08679Y02100D01*
X09121Y02100D01*
X09308Y02286D01*
X10430Y02286D01*
X10743Y02598D01*
X10743Y03040D01*
X10649Y03134D01*
X10649Y03200D01*
X11272Y03200D01*
X11584Y03513D01*
X11584Y03955D01*
X11424Y04115D01*
X11459Y04115D01*
X11472Y04128D01*
X11485Y04115D01*
X12234Y04115D01*
X12421Y03928D01*
X12956Y03928D01*
X13049Y04022D01*
X13142Y04115D01*
X14453Y04115D01*
X14546Y04208D01*
X14858Y04520D01*
X14858Y05242D01*
X14546Y05554D01*
X13610Y05554D01*
X12628Y05573D02*
X11909Y05573D01*
X11317Y05573D02*
X11159Y05573D01*
X10008Y05573D02*
X09943Y05573D01*
X08979Y05573D02*
X07884Y05573D01*
X07107Y05573D02*
X06201Y05573D01*
X04115Y05573D02*
X03395Y05573D01*
X02617Y05573D02*
X01524Y05573D01*
X01524Y05168D02*
X02286Y05168D01*
X02286Y04763D02*
X01524Y04763D01*
X01524Y04358D02*
X02317Y04358D01*
X02286Y03953D02*
X01524Y03953D01*
X01524Y03548D02*
X02286Y03548D01*
X02286Y03144D02*
X01524Y03144D01*
X01524Y02739D02*
X02286Y02739D01*
X02551Y02334D02*
X01524Y02334D01*
X01524Y01929D02*
X85344Y01929D01*
X85344Y01524D02*
X01524Y01524D01*
X85344Y01524D01*
X85344Y26645D01*
X01524Y26645D01*
X01524Y01524D01*
X06361Y02334D02*
X06573Y02334D01*
X10478Y02334D02*
X27330Y02334D01*
X27657Y02007D02*
X26899Y02765D01*
X26899Y03302D01*
X28194Y03302D01*
X28194Y03302D01*
X28194Y04597D01*
X27657Y04597D01*
X26899Y03839D01*
X26899Y03302D01*
X28194Y03302D01*
X29489Y03302D01*
X29489Y03839D01*
X28731Y04597D01*
X28194Y04597D01*
X28194Y03302D01*
X28194Y03302D01*
X28194Y03302D01*
X29489Y03302D01*
X29489Y02765D01*
X28731Y02007D01*
X28194Y02007D01*
X28194Y03302D01*
X28194Y03302D01*
X28194Y02007D01*
X27657Y02007D01*
X28194Y02334D02*
X28194Y02334D01*
X28194Y02739D02*
X28194Y02739D01*
X29058Y02334D02*
X47650Y02334D01*
X47977Y02007D02*
X47219Y02765D01*
X47219Y03302D01*
X48514Y03302D01*
X48514Y03302D01*
X48514Y04597D01*
X47977Y04597D01*
X47219Y03839D01*
X47219Y03302D01*
X48514Y03302D01*
X49809Y03302D01*
X49809Y03839D01*
X49051Y04597D01*
X48514Y04597D01*
X48514Y03302D01*
X48514Y03302D01*
X48514Y03302D01*
X49809Y03302D01*
X49809Y02765D01*
X49051Y02007D01*
X48514Y02007D01*
X48514Y03302D01*
X48514Y03302D01*
X48514Y02007D01*
X47977Y02007D01*
X48514Y02334D02*
X48514Y02334D01*
X48514Y02739D02*
X48514Y02739D01*
X49378Y02334D02*
X71780Y02334D01*
X72107Y02007D02*
X71349Y02765D01*
X71349Y03302D01*
X72644Y03302D01*
X72644Y03302D01*
X72644Y04597D01*
X72107Y04597D01*
X71349Y03839D01*
X71349Y03302D01*
X72644Y03302D01*
X73939Y03302D01*
X73939Y03839D01*
X73181Y04597D01*
X72644Y04597D01*
X72644Y03302D01*
X72644Y03302D01*
X72644Y03302D01*
X73939Y03302D01*
X73939Y02765D01*
X73181Y02007D01*
X72644Y02007D01*
X72644Y03302D01*
X72644Y03302D01*
X72644Y02007D01*
X72107Y02007D01*
X72644Y02334D02*
X72644Y02334D01*
X72644Y02739D02*
X72644Y02739D01*
X73508Y02334D02*
X81868Y02334D01*
X81463Y02739D02*
X73913Y02739D01*
X73939Y03144D02*
X81458Y03144D01*
X81458Y03548D02*
X73939Y03548D01*
X73825Y03953D02*
X81552Y03953D01*
X81956Y04358D02*
X78526Y04358D01*
X78245Y04077D02*
X77724Y04077D01*
X77724Y05334D01*
X77724Y05334D01*
X77724Y06591D01*
X77203Y06591D01*
X76467Y05855D01*
X76467Y05334D01*
X76467Y04813D01*
X77203Y04077D01*
X77724Y04077D01*
X77724Y05334D01*
X78981Y05334D01*
X77724Y05334D01*
X77724Y05334D01*
X77724Y05334D01*
X76467Y05334D01*
X77724Y05334D01*
X77724Y06591D01*
X78245Y06591D01*
X78981Y05855D01*
X78981Y05334D01*
X78981Y04813D01*
X78245Y04077D01*
X77724Y04358D02*
X77724Y04358D01*
X77724Y04763D02*
X77724Y04763D01*
X76922Y04358D02*
X73420Y04358D01*
X72644Y04358D02*
X72644Y04358D01*
X72644Y03953D02*
X72644Y03953D01*
X71868Y04358D02*
X68366Y04358D01*
X68085Y04077D02*
X67564Y04077D01*
X67564Y05334D01*
X67564Y05334D01*
X67564Y06591D01*
X67043Y06591D01*
X66307Y05855D01*
X66307Y05334D01*
X66307Y04813D01*
X67043Y04077D01*
X67564Y04077D01*
X67564Y05334D01*
X68821Y05334D01*
X67564Y05334D01*
X67564Y05334D01*
X67564Y05334D01*
X66307Y05334D01*
X67564Y05334D01*
X67564Y06591D01*
X68085Y06591D01*
X68821Y05855D01*
X68821Y05334D01*
X68821Y04813D01*
X68085Y04077D01*
X67564Y04358D02*
X67564Y04358D01*
X67564Y04763D02*
X67564Y04763D01*
X66762Y04358D02*
X62016Y04358D01*
X61735Y04077D02*
X61214Y04077D01*
X61214Y05334D01*
X61214Y05334D01*
X61214Y06591D01*
X60693Y06591D01*
X59957Y05855D01*
X59957Y05334D01*
X59957Y04813D01*
X60693Y04077D01*
X61214Y04077D01*
X61214Y05334D01*
X62471Y05334D01*
X61214Y05334D01*
X61214Y05334D01*
X61214Y05334D01*
X59957Y05334D01*
X61214Y05334D01*
X61214Y06591D01*
X61735Y06591D01*
X62471Y05855D01*
X62471Y05334D01*
X62471Y04813D01*
X61735Y04077D01*
X61214Y04358D02*
X61214Y04358D01*
X61214Y04763D02*
X61214Y04763D01*
X60412Y04358D02*
X54396Y04358D01*
X54115Y04077D02*
X53594Y04077D01*
X53594Y05334D01*
X53594Y05334D01*
X53594Y06591D01*
X53073Y06591D01*
X52337Y05855D01*
X52337Y05334D01*
X52337Y04813D01*
X53073Y04077D01*
X53594Y04077D01*
X53594Y05334D01*
X54851Y05334D01*
X53594Y05334D01*
X53594Y05334D01*
X53594Y05334D01*
X52337Y05334D01*
X53594Y05334D01*
X53594Y06591D01*
X54115Y06591D01*
X54851Y05855D01*
X54851Y05334D01*
X54851Y04813D01*
X54115Y04077D01*
X53594Y04358D02*
X53594Y04358D01*
X53594Y04763D02*
X53594Y04763D01*
X52792Y04358D02*
X49290Y04358D01*
X49695Y03953D02*
X71463Y03953D01*
X71349Y03548D02*
X49809Y03548D01*
X49809Y03144D02*
X71349Y03144D01*
X72644Y03144D02*
X72644Y03144D01*
X72644Y03548D02*
X72644Y03548D01*
X71375Y02739D02*
X49783Y02739D01*
X48514Y03144D02*
X48514Y03144D01*
X48514Y03548D02*
X48514Y03548D01*
X47219Y03548D02*
X29489Y03548D01*
X29489Y03144D02*
X47219Y03144D01*
X47245Y02739D02*
X29463Y02739D01*
X28194Y03144D02*
X28194Y03144D01*
X28194Y03548D02*
X28194Y03548D01*
X28194Y03953D02*
X28194Y03953D01*
X28194Y04358D02*
X28194Y04358D01*
X28970Y04358D02*
X36282Y04358D01*
X36563Y04077D02*
X35827Y04813D01*
X35827Y05334D01*
X37084Y05334D01*
X37084Y05334D01*
X37084Y06591D01*
X36563Y06591D01*
X35827Y05855D01*
X35827Y05334D01*
X37084Y05334D01*
X38341Y05334D01*
X37084Y05334D01*
X37084Y05334D01*
X37084Y05334D01*
X37084Y06591D01*
X37605Y06591D01*
X38341Y05855D01*
X38341Y05334D01*
X38341Y04813D01*
X37605Y04077D01*
X37084Y04077D01*
X37084Y05334D01*
X37084Y05334D01*
X37084Y04077D01*
X36563Y04077D01*
X37084Y04358D02*
X37084Y04358D01*
X37084Y04763D02*
X37084Y04763D01*
X37886Y04358D02*
X42632Y04358D01*
X42913Y04077D02*
X42177Y04813D01*
X42177Y05334D01*
X43434Y05334D01*
X43434Y05334D01*
X43434Y06591D01*
X42913Y06591D01*
X42177Y05855D01*
X42177Y05334D01*
X43434Y05334D01*
X44691Y05334D01*
X43434Y05334D01*
X43434Y05334D01*
X43434Y05334D01*
X43434Y06591D01*
X43955Y06591D01*
X44691Y05855D01*
X44691Y05334D01*
X44691Y04813D01*
X43955Y04077D01*
X43434Y04077D01*
X43434Y05334D01*
X43434Y05334D01*
X43434Y04077D01*
X42913Y04077D01*
X43434Y04358D02*
X43434Y04358D01*
X43434Y04763D02*
X43434Y04763D01*
X44236Y04358D02*
X47738Y04358D01*
X47333Y03953D02*
X29375Y03953D01*
X27418Y04358D02*
X23916Y04358D01*
X23635Y04077D02*
X23114Y04077D01*
X23114Y05334D01*
X23114Y05334D01*
X23114Y06591D01*
X22593Y06591D01*
X21857Y05855D01*
X21857Y05334D01*
X21857Y04813D01*
X22593Y04077D01*
X23114Y04077D01*
X23114Y05334D01*
X24371Y05334D01*
X23114Y05334D01*
X23114Y05334D01*
X23114Y05334D01*
X21857Y05334D01*
X23114Y05334D01*
X23114Y06591D01*
X23635Y06591D01*
X24371Y05855D01*
X24371Y05334D01*
X24371Y04813D01*
X23635Y04077D01*
X23114Y04358D02*
X23114Y04358D01*
X23114Y04763D02*
X23114Y04763D01*
X22312Y04358D02*
X17566Y04358D01*
X17971Y04763D02*
X21907Y04763D01*
X21857Y05168D02*
X18021Y05168D01*
X18021Y05334D02*
X18021Y05855D01*
X17285Y06591D01*
X16764Y06591D01*
X16764Y05334D01*
X18021Y05334D01*
X18021Y05573D02*
X21857Y05573D01*
X23114Y05573D02*
X23114Y05573D01*
X23114Y05334D02*
X23114Y05334D01*
X23114Y05168D02*
X23114Y05168D01*
X24371Y05168D02*
X35827Y05168D01*
X35827Y05573D02*
X24371Y05573D01*
X24248Y05978D02*
X35950Y05978D01*
X36355Y06383D02*
X23843Y06383D01*
X23114Y06383D02*
X23114Y06383D01*
X23114Y05978D02*
X23114Y05978D01*
X22385Y06383D02*
X17493Y06383D01*
X17898Y05978D02*
X21980Y05978D01*
X24321Y04763D02*
X35877Y04763D01*
X37084Y05168D02*
X37084Y05168D01*
X37084Y05573D02*
X37084Y05573D01*
X37084Y05978D02*
X37084Y05978D01*
X37084Y06383D02*
X37084Y06383D01*
X37813Y06383D02*
X42705Y06383D01*
X42300Y05978D02*
X38218Y05978D01*
X38341Y05573D02*
X42177Y05573D01*
X42177Y05168D02*
X38341Y05168D01*
X38291Y04763D02*
X42227Y04763D01*
X43434Y05168D02*
X43434Y05168D01*
X43434Y05573D02*
X43434Y05573D01*
X44691Y05573D02*
X52337Y05573D01*
X52337Y05168D02*
X44691Y05168D01*
X44641Y04763D02*
X52387Y04763D01*
X53594Y05168D02*
X53594Y05168D01*
X53594Y05334D02*
X53594Y05334D01*
X53594Y05573D02*
X53594Y05573D01*
X53594Y05978D02*
X53594Y05978D01*
X53594Y06383D02*
X53594Y06383D01*
X54323Y06383D02*
X60485Y06383D01*
X60080Y05978D02*
X54728Y05978D01*
X54851Y05573D02*
X59957Y05573D01*
X59957Y05168D02*
X54851Y05168D01*
X54801Y04763D02*
X60007Y04763D01*
X61214Y05168D02*
X61214Y05168D01*
X61214Y05334D02*
X61214Y05334D01*
X61214Y05573D02*
X61214Y05573D01*
X62471Y05573D02*
X66307Y05573D01*
X66307Y05168D02*
X62471Y05168D01*
X62421Y04763D02*
X66357Y04763D01*
X67564Y05168D02*
X67564Y05168D01*
X67564Y05334D02*
X67564Y05334D01*
X67564Y05573D02*
X67564Y05573D01*
X67564Y05978D02*
X67564Y05978D01*
X67564Y06383D02*
X67564Y06383D01*
X68293Y06383D02*
X76995Y06383D01*
X76590Y05978D02*
X68698Y05978D01*
X68821Y05573D02*
X76467Y05573D01*
X76467Y05168D02*
X68821Y05168D01*
X68771Y04763D02*
X76517Y04763D01*
X77724Y05168D02*
X77724Y05168D01*
X77724Y05334D02*
X77724Y05334D01*
X77724Y05573D02*
X77724Y05573D01*
X78981Y05573D02*
X81559Y05573D01*
X81964Y05168D02*
X78981Y05168D01*
X78931Y04763D02*
X82093Y04763D01*
X82804Y05334D02*
X77724Y10414D01*
X77724Y15494D01*
X78892Y14886D02*
X79096Y14886D01*
X79145Y14481D02*
X78843Y14481D01*
X78619Y14076D02*
X79369Y14076D01*
X80018Y13671D02*
X78435Y13671D01*
X78435Y13266D02*
X80978Y13266D01*
X80823Y13671D02*
X80510Y13671D01*
X81383Y12861D02*
X78435Y12861D01*
X78435Y12456D02*
X81458Y12456D01*
X81458Y12051D02*
X78435Y12051D01*
X78435Y11646D02*
X81700Y11646D01*
X82105Y11242D02*
X78746Y11242D01*
X79032Y10837D02*
X85344Y10837D01*
X85344Y11242D02*
X83503Y11242D01*
X83908Y11646D02*
X85344Y11646D01*
X85344Y12051D02*
X84150Y12051D01*
X85344Y10432D02*
X79032Y10432D01*
X79117Y10027D02*
X85344Y10027D01*
X85344Y09622D02*
X79522Y09622D01*
X79927Y09217D02*
X85344Y09217D01*
X85344Y08812D02*
X80332Y08812D01*
X80736Y08407D02*
X85344Y08407D01*
X85344Y08002D02*
X81141Y08002D01*
X81546Y07597D02*
X85344Y07597D01*
X85344Y07193D02*
X81951Y07193D01*
X82356Y06788D02*
X85344Y06788D01*
X85344Y06383D02*
X82761Y06383D01*
X83166Y05978D02*
X85344Y05978D01*
X85344Y05573D02*
X83475Y05573D01*
X83515Y05168D02*
X85344Y05168D01*
X85344Y04763D02*
X83515Y04763D01*
X83652Y04358D02*
X85344Y04358D01*
X85344Y03953D02*
X84056Y03953D01*
X84150Y03548D02*
X85344Y03548D01*
X85344Y03144D02*
X84150Y03144D01*
X82804Y03302D02*
X82804Y05334D01*
X81154Y05978D02*
X78858Y05978D01*
X78453Y06383D02*
X80749Y06383D01*
X80345Y06788D02*
X01524Y06788D01*
X01524Y09622D02*
X03081Y09622D01*
X03309Y10027D02*
X01524Y10027D01*
X01524Y10432D02*
X03634Y10432D01*
X03194Y10837D02*
X01524Y10837D01*
X01524Y11242D02*
X03010Y11242D01*
X02946Y11646D02*
X01524Y11646D01*
X01524Y12051D02*
X02691Y12051D01*
X02794Y12954D02*
X04064Y11684D01*
X05334Y11684D01*
X07689Y12051D02*
X11581Y12051D01*
X11986Y11646D02*
X07722Y11646D01*
X07521Y12456D02*
X11176Y12456D01*
X10771Y12861D02*
X07144Y12861D01*
X07363Y13266D02*
X10366Y13266D01*
X11973Y13671D02*
X13513Y13671D01*
X13513Y13266D02*
X12378Y13266D01*
X12783Y12861D02*
X13513Y12861D01*
X13716Y12456D02*
X13187Y12456D01*
X12954Y11684D02*
X10414Y14224D01*
X05334Y14224D01*
X02794Y12954D02*
X02794Y23114D01*
X05334Y25654D01*
X19304Y25654D01*
X21844Y23114D01*
X24384Y25654D01*
X45974Y25654D01*
X48514Y23114D01*
X51054Y25654D01*
X72644Y25654D01*
X73081Y26223D02*
X85344Y26223D01*
X85344Y26628D02*
X01524Y26628D01*
X01524Y26223D02*
X04897Y26223D01*
X04492Y25818D02*
X01524Y25818D01*
X01524Y25413D02*
X04087Y25413D01*
X03682Y25008D02*
X01524Y25008D01*
X01524Y24603D02*
X03278Y24603D01*
X02873Y24198D02*
X01524Y24198D01*
X01524Y23793D02*
X02468Y23793D01*
X02138Y23389D02*
X01524Y23389D01*
X01524Y22984D02*
X02083Y22984D01*
X02083Y22579D02*
X01524Y22579D01*
X01524Y22174D02*
X02083Y22174D01*
X02083Y21769D02*
X01524Y21769D01*
X01524Y21364D02*
X02083Y21364D01*
X02083Y20959D02*
X01524Y20959D01*
X01524Y20554D02*
X02083Y20554D01*
X02083Y20149D02*
X01524Y20149D01*
X01524Y19745D02*
X02083Y19745D01*
X02083Y19340D02*
X01524Y19340D01*
X01524Y18935D02*
X02083Y18935D01*
X02083Y18530D02*
X01524Y18530D01*
X01524Y18125D02*
X02083Y18125D01*
X02083Y17720D02*
X01524Y17720D01*
X01524Y17315D02*
X02083Y17315D01*
X02083Y16910D02*
X01524Y16910D01*
X01524Y16505D02*
X02083Y16505D01*
X02083Y16100D02*
X01524Y16100D01*
X01524Y15695D02*
X02083Y15695D01*
X02083Y15291D02*
X01524Y15291D01*
X01524Y14886D02*
X02083Y14886D01*
X02083Y14481D02*
X01524Y14481D01*
X01524Y14076D02*
X02083Y14076D01*
X02083Y13671D02*
X01524Y13671D01*
X01524Y13266D02*
X02083Y13266D01*
X02083Y12861D02*
X01524Y12861D01*
X01524Y12456D02*
X02286Y12456D01*
X10414Y10837D02*
X10414Y10837D01*
X10414Y10432D02*
X10414Y10432D01*
X10414Y10027D02*
X10414Y10027D01*
X10414Y09622D02*
X10414Y09622D01*
X10414Y09217D02*
X10414Y09217D01*
X10414Y08812D02*
X10414Y08812D01*
X15157Y09217D02*
X16111Y09217D01*
X15562Y08812D02*
X29396Y08812D01*
X31003Y08407D02*
X49515Y08407D01*
X49920Y08002D02*
X30598Y08002D01*
X30193Y07597D02*
X50325Y07597D01*
X50841Y07193D02*
X29677Y07193D01*
X31408Y08812D02*
X49110Y08812D01*
X48705Y09217D02*
X44087Y09217D01*
X42781Y09217D02*
X37737Y09217D01*
X37626Y09106D02*
X38392Y09872D01*
X38392Y10956D01*
X37877Y11471D01*
X40244Y13838D01*
X40662Y13665D01*
X41126Y13665D01*
X41556Y13843D01*
X41885Y14172D01*
X42062Y14601D01*
X42062Y16387D01*
X41885Y16816D01*
X41556Y17145D01*
X41126Y17323D01*
X40662Y17323D01*
X40232Y17145D01*
X39903Y16816D01*
X39726Y16387D01*
X39726Y15331D01*
X36681Y12287D01*
X36481Y12087D01*
X36373Y11825D01*
X36373Y11553D01*
X35776Y10956D01*
X35776Y09872D01*
X36542Y09106D01*
X37626Y09106D01*
X38142Y09622D02*
X42376Y09622D01*
X42126Y10027D02*
X38392Y10027D01*
X38392Y10432D02*
X42126Y10432D01*
X42126Y10837D02*
X38392Y10837D01*
X38106Y11242D02*
X42412Y11242D01*
X42723Y11646D02*
X38052Y11646D01*
X38457Y12051D02*
X42723Y12051D01*
X44145Y12051D02*
X47168Y12051D01*
X47410Y11646D02*
X44145Y11646D01*
X44145Y12456D02*
X47168Y12456D01*
X47168Y12861D02*
X44145Y12861D01*
X42723Y12861D02*
X39267Y12861D01*
X38862Y12456D02*
X42723Y12456D01*
X42723Y13266D02*
X39672Y13266D01*
X40077Y13671D02*
X40648Y13671D01*
X41140Y13671D02*
X42723Y13671D01*
X42539Y14076D02*
X41789Y14076D01*
X42013Y14481D02*
X42315Y14481D01*
X42266Y14886D02*
X42062Y14886D01*
X42062Y15291D02*
X42266Y15291D01*
X42266Y15695D02*
X42062Y15695D01*
X40894Y15494D02*
X37084Y11684D01*
X37084Y10414D01*
X35776Y10432D02*
X33028Y10432D01*
X33432Y10837D02*
X35776Y10837D01*
X36062Y11242D02*
X33837Y11242D01*
X34242Y11646D02*
X36373Y11646D01*
X36466Y12051D02*
X34647Y12051D01*
X35052Y12456D02*
X36851Y12456D01*
X37255Y12861D02*
X35457Y12861D01*
X35862Y13266D02*
X37660Y13266D01*
X37927Y13671D02*
X38065Y13671D01*
X38332Y14076D02*
X38470Y14076D01*
X38430Y14481D02*
X38875Y14481D01*
X39280Y14886D02*
X38430Y14886D01*
X38429Y15291D02*
X39685Y15291D01*
X39726Y15695D02*
X38024Y15695D01*
X37795Y16100D02*
X39726Y16100D01*
X39775Y16505D02*
X37831Y16505D01*
X37084Y16764D02*
X39624Y19304D01*
X44704Y19304D01*
X45263Y18530D02*
X39856Y18530D01*
X39451Y18125D02*
X45263Y18125D01*
X45263Y17720D02*
X39046Y17720D01*
X38641Y17315D02*
X40643Y17315D01*
X41145Y17315D02*
X43183Y17315D01*
X43685Y17315D02*
X45263Y17315D01*
X45077Y16910D02*
X44331Y16910D01*
X44553Y16505D02*
X44855Y16505D01*
X44806Y16100D02*
X44602Y16100D01*
X45974Y15494D02*
X45974Y18034D01*
X46685Y18125D02*
X47417Y18125D01*
X47012Y18530D02*
X46685Y18530D01*
X46685Y17720D02*
X47822Y17720D01*
X49429Y18125D02*
X51227Y18125D01*
X50822Y18530D02*
X49024Y18530D01*
X48619Y18935D02*
X50418Y18935D01*
X50013Y19340D02*
X48214Y19340D01*
X52024Y19340D02*
X62784Y19340D01*
X62379Y18935D02*
X52429Y18935D01*
X51632Y17720D02*
X49834Y17720D01*
X50239Y17315D02*
X50803Y17315D01*
X51305Y17315D02*
X53343Y17315D01*
X53362Y17323D02*
X52932Y17145D01*
X52603Y16816D01*
X52426Y16387D01*
X52426Y14601D01*
X52603Y14172D01*
X52932Y13843D01*
X53362Y13665D01*
X53826Y13665D01*
X54256Y13843D01*
X54585Y14172D01*
X54762Y14601D01*
X54762Y16387D01*
X54585Y16816D01*
X54256Y17145D01*
X53826Y17323D01*
X53362Y17323D01*
X53845Y17315D02*
X63299Y17315D01*
X63045Y16910D02*
X56959Y16910D01*
X56986Y16882D02*
X56862Y17007D01*
X56720Y17110D01*
X56563Y17190D01*
X56396Y17244D01*
X56222Y17272D01*
X56134Y17272D01*
X56134Y15494D01*
X57252Y15494D01*
X57252Y16242D01*
X57224Y16416D01*
X57170Y16583D01*
X57090Y16740D01*
X56986Y16882D01*
X56134Y16910D02*
X56134Y16910D01*
X56134Y17272D02*
X56046Y17272D01*
X55872Y17244D01*
X55705Y17190D01*
X55548Y17110D01*
X55406Y17007D01*
X55282Y16882D01*
X55178Y16740D01*
X55098Y16583D01*
X55044Y16416D01*
X55016Y16242D01*
X55016Y15494D01*
X55016Y14746D01*
X55044Y14572D01*
X55098Y14405D01*
X55178Y14248D01*
X55282Y14106D01*
X55406Y13981D01*
X55548Y13878D01*
X55705Y13798D01*
X55872Y13744D01*
X56046Y13716D01*
X56134Y13716D01*
X56222Y13716D01*
X56396Y13744D01*
X56563Y13798D01*
X56720Y13878D01*
X56862Y13981D01*
X56986Y14106D01*
X57090Y14248D01*
X57170Y14405D01*
X57224Y14572D01*
X57252Y14746D01*
X57252Y15494D01*
X56134Y15494D01*
X56134Y15494D01*
X56134Y15494D01*
X56134Y13716D01*
X56134Y15494D01*
X56134Y15494D01*
X56134Y15494D01*
X55016Y15494D01*
X56134Y15494D01*
X56134Y17272D01*
X55309Y16910D02*
X54491Y16910D01*
X54713Y16505D02*
X55073Y16505D01*
X55016Y16100D02*
X54762Y16100D01*
X56134Y16100D02*
X56134Y16100D01*
X56134Y16505D02*
X56134Y16505D01*
X57195Y16505D02*
X63043Y16505D01*
X63043Y16100D02*
X57252Y16100D01*
X57252Y15695D02*
X59004Y15695D01*
X58599Y15291D02*
X57252Y15291D01*
X56134Y15291D02*
X56134Y15291D01*
X56134Y15695D02*
X56134Y15695D01*
X55016Y15695D02*
X54762Y15695D01*
X54762Y15291D02*
X55016Y15291D01*
X55016Y14886D02*
X54762Y14886D01*
X54713Y14481D02*
X55074Y14481D01*
X55311Y14076D02*
X54489Y14076D01*
X53840Y13671D02*
X57991Y13671D01*
X57963Y13266D02*
X51765Y13266D01*
X51765Y13671D02*
X53348Y13671D01*
X52699Y14076D02*
X51949Y14076D01*
X52173Y14481D02*
X52475Y14481D01*
X52426Y14886D02*
X52222Y14886D01*
X52222Y15291D02*
X52426Y15291D01*
X52426Y15695D02*
X52222Y15695D01*
X52222Y16100D02*
X52426Y16100D01*
X52475Y16505D02*
X52173Y16505D01*
X51951Y16910D02*
X52697Y16910D01*
X49847Y15695D02*
X49682Y15695D01*
X49682Y15291D02*
X49886Y15291D01*
X49886Y14886D02*
X49682Y14886D01*
X49633Y14481D02*
X49935Y14481D01*
X50159Y14076D02*
X49409Y14076D01*
X49225Y13671D02*
X50343Y13671D01*
X50343Y13266D02*
X49598Y13266D01*
X49860Y12861D02*
X50343Y12861D01*
X50546Y12456D02*
X49860Y12456D01*
X49860Y12051D02*
X50951Y12051D01*
X51356Y11646D02*
X49618Y11646D01*
X52557Y12456D02*
X57963Y12456D01*
X57963Y12861D02*
X52153Y12861D01*
X52962Y12051D02*
X57963Y12051D01*
X57963Y11646D02*
X54211Y11646D01*
X54616Y11242D02*
X57963Y11242D01*
X57963Y10837D02*
X54902Y10837D01*
X54902Y10432D02*
X57686Y10432D01*
X57281Y10027D02*
X54902Y10027D01*
X54652Y09622D02*
X56876Y09622D01*
X56471Y09217D02*
X54247Y09217D01*
X52941Y09217D02*
X50717Y09217D01*
X51122Y08812D02*
X56066Y08812D01*
X57673Y08407D02*
X78725Y08407D01*
X79130Y08002D02*
X57268Y08002D01*
X56863Y07597D02*
X79535Y07597D01*
X79940Y07193D02*
X56347Y07193D01*
X52865Y06383D02*
X44163Y06383D01*
X44568Y05978D02*
X52460Y05978D01*
X48514Y04358D02*
X48514Y04358D01*
X48514Y03953D02*
X48514Y03953D01*
X43434Y05978D02*
X43434Y05978D01*
X43434Y06383D02*
X43434Y06383D01*
X36431Y09217D02*
X31813Y09217D01*
X32218Y09622D02*
X36026Y09622D01*
X35776Y10027D02*
X32623Y10027D01*
X30802Y13266D02*
X29278Y13266D01*
X29376Y13716D02*
X29464Y13716D01*
X29552Y13716D01*
X29726Y13744D01*
X29893Y13798D01*
X30050Y13878D01*
X30192Y13981D01*
X30316Y14106D01*
X30420Y14248D01*
X30500Y14405D01*
X30554Y14572D01*
X30582Y14746D01*
X30582Y15494D01*
X30582Y16242D01*
X30554Y16416D01*
X30500Y16583D01*
X30420Y16740D01*
X30316Y16882D01*
X30192Y17007D01*
X30050Y17110D01*
X29893Y17190D01*
X29726Y17244D01*
X29552Y17272D01*
X29464Y17272D01*
X29464Y15494D01*
X30582Y15494D01*
X29464Y15494D01*
X29464Y15494D01*
X29464Y15494D01*
X29464Y13716D01*
X29464Y15494D01*
X29464Y15494D01*
X29464Y15494D01*
X28346Y15494D01*
X28346Y14746D01*
X28374Y14572D01*
X28428Y14405D01*
X28508Y14248D01*
X28612Y14106D01*
X28736Y13981D01*
X28878Y13878D01*
X29035Y13798D01*
X29202Y13744D01*
X29376Y13716D01*
X28873Y13671D02*
X31207Y13671D01*
X31612Y14076D02*
X30287Y14076D01*
X30524Y14481D02*
X31928Y14481D01*
X31928Y14886D02*
X30582Y14886D01*
X30582Y15291D02*
X31929Y15291D01*
X32334Y15695D02*
X30582Y15695D01*
X30582Y16100D02*
X35103Y16100D01*
X35103Y16505D02*
X30525Y16505D01*
X30289Y16910D02*
X35103Y16910D01*
X35103Y17315D02*
X27175Y17315D01*
X26673Y17315D02*
X24839Y17315D01*
X25281Y16910D02*
X26027Y16910D01*
X25805Y16505D02*
X25503Y16505D01*
X25552Y16100D02*
X25756Y16100D01*
X27821Y16910D02*
X28639Y16910D01*
X28612Y16882D02*
X28508Y16740D01*
X28428Y16583D01*
X28374Y16416D01*
X28346Y16242D01*
X28346Y15494D01*
X29464Y15494D01*
X29464Y17272D01*
X29376Y17272D01*
X29202Y17244D01*
X29035Y17190D01*
X28878Y17110D01*
X28736Y17007D01*
X28612Y16882D01*
X29464Y16910D02*
X29464Y16910D01*
X29464Y16505D02*
X29464Y16505D01*
X29464Y16100D02*
X29464Y16100D01*
X28346Y16100D02*
X28092Y16100D01*
X28043Y16505D02*
X28403Y16505D01*
X28346Y15695D02*
X28092Y15695D01*
X28092Y15291D02*
X28346Y15291D01*
X29464Y15291D02*
X29464Y15291D01*
X29464Y15695D02*
X29464Y15695D01*
X29464Y14886D02*
X29464Y14886D01*
X29464Y14481D02*
X29464Y14481D01*
X29464Y14076D02*
X29464Y14076D01*
X28641Y14076D02*
X27819Y14076D01*
X28043Y14481D02*
X28404Y14481D01*
X28346Y14886D02*
X28092Y14886D01*
X27515Y13671D02*
X27170Y13671D01*
X23066Y13266D02*
X18728Y13266D01*
X19058Y13671D02*
X18323Y13671D01*
X19550Y13671D02*
X21598Y13671D01*
X22090Y13671D02*
X22661Y13671D01*
X20949Y14076D02*
X20199Y14076D01*
X20423Y14481D02*
X20725Y14481D01*
X20676Y14886D02*
X20472Y14886D01*
X20472Y15291D02*
X20676Y15291D01*
X20676Y15695D02*
X20472Y15695D01*
X20472Y16100D02*
X20676Y16100D01*
X20725Y16505D02*
X20423Y16505D01*
X20201Y16910D02*
X20947Y16910D01*
X22422Y17720D02*
X11242Y17720D01*
X09586Y17720D02*
X07293Y17720D01*
X07142Y18125D02*
X09181Y18125D01*
X08912Y18530D02*
X07520Y18530D01*
X09144Y19304D02*
X05334Y19304D01*
X09144Y19304D02*
X09652Y18796D01*
X10414Y18796D01*
X22352Y18796D01*
X23624Y18530D02*
X35103Y18530D01*
X35103Y18125D02*
X24029Y18125D01*
X24434Y17720D02*
X35103Y17720D01*
X37084Y16764D02*
X37084Y14732D01*
X35103Y15291D02*
X34619Y15291D01*
X34214Y15695D02*
X35103Y15695D01*
X38236Y16910D02*
X39997Y16910D01*
X41791Y16910D02*
X42537Y16910D01*
X42315Y16505D02*
X42013Y16505D01*
X42062Y16100D02*
X42266Y16100D01*
X46685Y17315D02*
X48227Y17315D01*
X47617Y16910D02*
X46871Y16910D01*
X47093Y16505D02*
X47395Y16505D01*
X47346Y16100D02*
X47142Y16100D01*
X56134Y14886D02*
X56134Y14886D01*
X56134Y14481D02*
X56134Y14481D01*
X56134Y14076D02*
X56134Y14076D01*
X56957Y14076D02*
X58282Y14076D01*
X58598Y14481D02*
X57194Y14481D01*
X57252Y14886D02*
X58598Y14886D01*
X60884Y15695D02*
X62814Y15695D01*
X62409Y15291D02*
X61289Y15291D01*
X64465Y16100D02*
X66396Y16100D01*
X66445Y16505D02*
X64501Y16505D01*
X64906Y16910D02*
X66667Y16910D01*
X67313Y17315D02*
X65311Y17315D01*
X65716Y17720D02*
X74492Y17720D01*
X74087Y18125D02*
X66121Y18125D01*
X66526Y18530D02*
X73682Y18530D01*
X72895Y17315D02*
X74897Y17315D01*
X74287Y16910D02*
X73541Y16910D01*
X72393Y17315D02*
X70355Y17315D01*
X69853Y17315D02*
X67815Y17315D01*
X68461Y16910D02*
X69207Y16910D01*
X68985Y16505D02*
X68683Y16505D01*
X68732Y16100D02*
X68936Y16100D01*
X68936Y15695D02*
X68732Y15695D01*
X68732Y15291D02*
X68895Y15291D01*
X70104Y15494D02*
X67564Y12954D01*
X66923Y13266D02*
X66342Y13266D01*
X66747Y13671D02*
X67275Y13671D01*
X68882Y13266D02*
X71560Y13266D01*
X71965Y13671D02*
X70350Y13671D01*
X69858Y13671D02*
X69287Y13671D01*
X70999Y14076D02*
X71749Y14076D01*
X71525Y14481D02*
X71223Y14481D01*
X71272Y14886D02*
X71476Y14886D01*
X71476Y15291D02*
X71272Y15291D01*
X71272Y15695D02*
X71476Y15695D01*
X71476Y16100D02*
X71272Y16100D01*
X71223Y16505D02*
X71525Y16505D01*
X71747Y16910D02*
X71001Y16910D01*
X73763Y16505D02*
X74065Y16505D01*
X74016Y16100D02*
X73812Y16100D01*
X73812Y15695D02*
X74016Y15695D01*
X74016Y15291D02*
X73812Y15291D01*
X73812Y14886D02*
X74016Y14886D01*
X67564Y15494D02*
X65024Y12954D01*
X65099Y15291D02*
X66355Y15291D01*
X66396Y15695D02*
X64694Y15695D01*
X63704Y17720D02*
X63176Y17720D01*
X63581Y18125D02*
X64109Y18125D01*
X63986Y18530D02*
X64514Y18530D01*
X64390Y18935D02*
X64919Y18935D01*
X64795Y19340D02*
X65324Y19340D01*
X65200Y19745D02*
X65729Y19745D01*
X63147Y22579D02*
X60551Y22579D01*
X60956Y22984D02*
X62742Y22984D01*
X51338Y20554D02*
X50809Y20554D01*
X50933Y20959D02*
X50405Y20959D01*
X47546Y21769D02*
X46942Y21769D01*
X47123Y22174D02*
X47365Y22174D01*
X47346Y22579D02*
X47142Y22579D01*
X47142Y22984D02*
X47346Y22984D01*
X47234Y23389D02*
X47142Y23389D01*
X44806Y23389D02*
X44602Y23389D01*
X44602Y23793D02*
X44806Y23793D01*
X44885Y24198D02*
X44523Y24198D01*
X44257Y24603D02*
X45151Y24603D01*
X42611Y24603D02*
X41717Y24603D01*
X41983Y24198D02*
X42345Y24198D01*
X42266Y23793D02*
X42062Y23793D01*
X42062Y23389D02*
X42266Y23389D01*
X42266Y22984D02*
X42062Y22984D01*
X42062Y22579D02*
X42266Y22579D01*
X42285Y22174D02*
X42043Y22174D01*
X41862Y21769D02*
X42466Y21769D01*
X44402Y21769D02*
X45006Y21769D01*
X44825Y22174D02*
X44583Y22174D01*
X44602Y22579D02*
X44806Y22579D01*
X44806Y22984D02*
X44602Y22984D01*
X40071Y24603D02*
X38261Y24603D01*
X38430Y24198D02*
X39805Y24198D01*
X46411Y26223D02*
X50617Y26223D01*
X50212Y25818D02*
X46816Y25818D01*
X47221Y25413D02*
X49807Y25413D01*
X49402Y25008D02*
X47626Y25008D01*
X49794Y23389D02*
X49886Y23389D01*
X35654Y20149D02*
X30553Y20149D01*
X35249Y19745D02*
X11369Y19745D01*
X13256Y21769D02*
X05410Y21769D01*
X05410Y22174D02*
X05258Y22174D01*
X05258Y22579D02*
X05410Y22579D01*
X05410Y22984D02*
X05258Y22984D01*
X04074Y23389D02*
X13056Y23389D01*
X13056Y23793D02*
X04479Y23793D01*
X04884Y24198D02*
X13135Y24198D01*
X13401Y24603D02*
X05289Y24603D01*
X07082Y22984D02*
X13056Y22984D01*
X13056Y22579D02*
X07467Y22579D01*
X07635Y22174D02*
X13075Y22174D01*
X15192Y21769D02*
X15796Y21769D01*
X15615Y22174D02*
X15373Y22174D01*
X15392Y22579D02*
X15596Y22579D01*
X15596Y22984D02*
X15392Y22984D01*
X15392Y23389D02*
X15596Y23389D01*
X15596Y23793D02*
X15392Y23793D01*
X15313Y24198D02*
X15675Y24198D01*
X15941Y24603D02*
X15047Y24603D01*
X17587Y24603D02*
X18481Y24603D01*
X18215Y24198D02*
X17853Y24198D01*
X17932Y23793D02*
X18136Y23793D01*
X18136Y23389D02*
X17932Y23389D01*
X17932Y22984D02*
X18136Y22984D01*
X18136Y22579D02*
X17932Y22579D01*
X17913Y22174D02*
X18155Y22174D01*
X18336Y21769D02*
X17732Y21769D01*
X20272Y21769D02*
X20876Y21769D01*
X20695Y22174D02*
X20453Y22174D01*
X20472Y22579D02*
X20676Y22579D01*
X20676Y22984D02*
X20472Y22984D01*
X20472Y23389D02*
X20564Y23389D01*
X23124Y23389D02*
X23216Y23389D01*
X22732Y25008D02*
X20956Y25008D01*
X20551Y25413D02*
X23137Y25413D01*
X23542Y25818D02*
X20146Y25818D01*
X19741Y26223D02*
X23947Y26223D01*
X18136Y14886D02*
X17932Y14886D01*
X17883Y14481D02*
X18185Y14481D01*
X18409Y14076D02*
X17918Y14076D01*
X13329Y14076D02*
X11568Y14076D01*
X11163Y14481D02*
X13105Y14481D01*
X13056Y14886D02*
X10675Y14886D01*
X16764Y06383D02*
X16764Y06383D01*
X16764Y05978D02*
X16764Y05978D01*
X16764Y05573D02*
X16764Y05573D01*
X16764Y05334D02*
X16764Y05334D01*
X16764Y05334D01*
X15507Y05334D01*
X16764Y05334D01*
X16764Y04077D01*
X16764Y05334D01*
X16764Y05334D01*
X16764Y05168D02*
X16764Y05168D01*
X16764Y04763D02*
X16764Y04763D01*
X16764Y04358D02*
X16764Y04358D01*
X15962Y04358D02*
X14696Y04358D01*
X14858Y04763D02*
X15557Y04763D01*
X15507Y05168D02*
X14858Y05168D01*
X12981Y03953D02*
X27013Y03953D01*
X26899Y03548D02*
X11584Y03548D01*
X10649Y03144D02*
X26899Y03144D01*
X26925Y02739D02*
X10743Y02739D01*
X11584Y03953D02*
X12396Y03953D01*
X44492Y09622D02*
X48300Y09622D01*
X47905Y10027D02*
X44742Y10027D01*
X49907Y10027D02*
X52286Y10027D01*
X52536Y09622D02*
X50312Y09622D01*
X58078Y08812D02*
X78320Y08812D01*
X77724Y06383D02*
X77724Y06383D01*
X77724Y05978D02*
X77724Y05978D01*
X84145Y02739D02*
X85344Y02739D01*
X85344Y02334D02*
X83740Y02334D01*
X66835Y06383D02*
X61943Y06383D01*
X62348Y05978D02*
X66430Y05978D01*
X61214Y05978D02*
X61214Y05978D01*
X61214Y06383D02*
X61214Y06383D01*
X60561Y09217D02*
X58483Y09217D01*
X82804Y15695D02*
X82804Y15695D01*
X82804Y16100D02*
X82804Y16100D01*
X82804Y16505D02*
X82804Y16505D01*
M02*
