G75*
%MOMM*%
%OFA0B0*%
%FSLAX33Y33*%
%IPPOS*%
%LPD*%
%AMOC8*
5,1,8,0,0,1.08239X$1,22.5*
%
%ADD10C,0.000*%
D10*
X00559Y00559D02*
X25559Y00559D01*
X13059Y00559D01*
X13059Y01059D01*
X13059Y50059D01*
X13059Y50559D01*
X13059Y99559D01*
X25059Y99559D01*
X25559Y99559D02*
X25559Y50559D01*
X25559Y49559D01*
X25559Y01559D01*
X25559Y00559D01*
X38059Y00559D01*
X38059Y01059D01*
X38059Y50059D01*
X38059Y50559D01*
X38059Y99559D01*
X50059Y99559D01*
X50559Y99559D02*
X50559Y50559D01*
X50559Y49559D01*
X50559Y01559D01*
X50559Y00559D01*
X38059Y00559D01*
X42059Y04059D02*
X42061Y04148D01*
X42067Y04237D01*
X42077Y04326D01*
X42091Y04414D01*
X42108Y04501D01*
X42130Y04587D01*
X42156Y04673D01*
X42185Y04757D01*
X42218Y04840D01*
X42254Y04921D01*
X42295Y05001D01*
X42338Y05078D01*
X42385Y05154D01*
X42436Y05227D01*
X42489Y05298D01*
X42546Y05367D01*
X42606Y05433D01*
X42669Y05497D01*
X42734Y05557D01*
X42802Y05615D01*
X42873Y05669D01*
X42946Y05720D01*
X43021Y05768D01*
X43098Y05813D01*
X43177Y05854D01*
X43258Y05891D01*
X43340Y05925D01*
X43424Y05956D01*
X43509Y05982D01*
X43595Y06005D01*
X43682Y06023D01*
X43770Y06038D01*
X43859Y06049D01*
X43948Y06056D01*
X44037Y06059D01*
X44126Y06058D01*
X44215Y06053D01*
X44303Y06044D01*
X44392Y06031D01*
X44479Y06014D01*
X44566Y05994D01*
X44652Y05969D01*
X44736Y05941D01*
X44819Y05909D01*
X44901Y05873D01*
X44981Y05834D01*
X45059Y05791D01*
X45135Y05745D01*
X45209Y05695D01*
X45281Y05642D01*
X45350Y05586D01*
X45417Y05527D01*
X45481Y05465D01*
X45542Y05401D01*
X45601Y05333D01*
X45656Y05263D01*
X45708Y05191D01*
X45757Y05116D01*
X45802Y05040D01*
X45844Y04961D01*
X45882Y04881D01*
X45917Y04799D01*
X45948Y04715D01*
X45976Y04630D01*
X45999Y04544D01*
X46019Y04457D01*
X46035Y04370D01*
X46047Y04281D01*
X46055Y04193D01*
X46059Y04104D01*
X46059Y04014D01*
X46055Y03925D01*
X46047Y03837D01*
X46035Y03748D01*
X46019Y03661D01*
X45999Y03574D01*
X45976Y03488D01*
X45948Y03403D01*
X45917Y03319D01*
X45882Y03237D01*
X45844Y03157D01*
X45802Y03078D01*
X45757Y03002D01*
X45708Y02927D01*
X45656Y02855D01*
X45601Y02785D01*
X45542Y02717D01*
X45481Y02653D01*
X45417Y02591D01*
X45350Y02532D01*
X45281Y02476D01*
X45209Y02423D01*
X45135Y02373D01*
X45059Y02327D01*
X44981Y02284D01*
X44901Y02245D01*
X44819Y02209D01*
X44736Y02177D01*
X44652Y02149D01*
X44566Y02124D01*
X44479Y02104D01*
X44392Y02087D01*
X44303Y02074D01*
X44215Y02065D01*
X44126Y02060D01*
X44037Y02059D01*
X43948Y02062D01*
X43859Y02069D01*
X43770Y02080D01*
X43682Y02095D01*
X43595Y02113D01*
X43509Y02136D01*
X43424Y02162D01*
X43340Y02193D01*
X43258Y02227D01*
X43177Y02264D01*
X43098Y02305D01*
X43021Y02350D01*
X42946Y02398D01*
X42873Y02449D01*
X42802Y02503D01*
X42734Y02561D01*
X42669Y02621D01*
X42606Y02685D01*
X42546Y02751D01*
X42489Y02820D01*
X42436Y02891D01*
X42385Y02964D01*
X42338Y03040D01*
X42295Y03117D01*
X42254Y03197D01*
X42218Y03278D01*
X42185Y03361D01*
X42156Y03445D01*
X42130Y03531D01*
X42108Y03617D01*
X42091Y03704D01*
X42077Y03792D01*
X42067Y03881D01*
X42061Y03970D01*
X42059Y04059D01*
X50559Y01559D02*
X50559Y01059D01*
X50559Y00559D02*
X63059Y00559D01*
X63059Y01059D01*
X63059Y50059D01*
X63059Y50559D01*
X63059Y99559D01*
X75059Y99559D01*
X75559Y99559D02*
X75559Y50559D01*
X75559Y49559D01*
X75559Y01559D01*
X75559Y00559D01*
X63059Y00559D01*
X67059Y04059D02*
X67061Y04148D01*
X67067Y04237D01*
X67077Y04326D01*
X67091Y04414D01*
X67108Y04501D01*
X67130Y04587D01*
X67156Y04673D01*
X67185Y04757D01*
X67218Y04840D01*
X67254Y04921D01*
X67295Y05001D01*
X67338Y05078D01*
X67385Y05154D01*
X67436Y05227D01*
X67489Y05298D01*
X67546Y05367D01*
X67606Y05433D01*
X67669Y05497D01*
X67734Y05557D01*
X67802Y05615D01*
X67873Y05669D01*
X67946Y05720D01*
X68021Y05768D01*
X68098Y05813D01*
X68177Y05854D01*
X68258Y05891D01*
X68340Y05925D01*
X68424Y05956D01*
X68509Y05982D01*
X68595Y06005D01*
X68682Y06023D01*
X68770Y06038D01*
X68859Y06049D01*
X68948Y06056D01*
X69037Y06059D01*
X69126Y06058D01*
X69215Y06053D01*
X69303Y06044D01*
X69392Y06031D01*
X69479Y06014D01*
X69566Y05994D01*
X69652Y05969D01*
X69736Y05941D01*
X69819Y05909D01*
X69901Y05873D01*
X69981Y05834D01*
X70059Y05791D01*
X70135Y05745D01*
X70209Y05695D01*
X70281Y05642D01*
X70350Y05586D01*
X70417Y05527D01*
X70481Y05465D01*
X70542Y05401D01*
X70601Y05333D01*
X70656Y05263D01*
X70708Y05191D01*
X70757Y05116D01*
X70802Y05040D01*
X70844Y04961D01*
X70882Y04881D01*
X70917Y04799D01*
X70948Y04715D01*
X70976Y04630D01*
X70999Y04544D01*
X71019Y04457D01*
X71035Y04370D01*
X71047Y04281D01*
X71055Y04193D01*
X71059Y04104D01*
X71059Y04014D01*
X71055Y03925D01*
X71047Y03837D01*
X71035Y03748D01*
X71019Y03661D01*
X70999Y03574D01*
X70976Y03488D01*
X70948Y03403D01*
X70917Y03319D01*
X70882Y03237D01*
X70844Y03157D01*
X70802Y03078D01*
X70757Y03002D01*
X70708Y02927D01*
X70656Y02855D01*
X70601Y02785D01*
X70542Y02717D01*
X70481Y02653D01*
X70417Y02591D01*
X70350Y02532D01*
X70281Y02476D01*
X70209Y02423D01*
X70135Y02373D01*
X70059Y02327D01*
X69981Y02284D01*
X69901Y02245D01*
X69819Y02209D01*
X69736Y02177D01*
X69652Y02149D01*
X69566Y02124D01*
X69479Y02104D01*
X69392Y02087D01*
X69303Y02074D01*
X69215Y02065D01*
X69126Y02060D01*
X69037Y02059D01*
X68948Y02062D01*
X68859Y02069D01*
X68770Y02080D01*
X68682Y02095D01*
X68595Y02113D01*
X68509Y02136D01*
X68424Y02162D01*
X68340Y02193D01*
X68258Y02227D01*
X68177Y02264D01*
X68098Y02305D01*
X68021Y02350D01*
X67946Y02398D01*
X67873Y02449D01*
X67802Y02503D01*
X67734Y02561D01*
X67669Y02621D01*
X67606Y02685D01*
X67546Y02751D01*
X67489Y02820D01*
X67436Y02891D01*
X67385Y02964D01*
X67338Y03040D01*
X67295Y03117D01*
X67254Y03197D01*
X67218Y03278D01*
X67185Y03361D01*
X67156Y03445D01*
X67130Y03531D01*
X67108Y03617D01*
X67091Y03704D01*
X67077Y03792D01*
X67067Y03881D01*
X67061Y03970D01*
X67059Y04059D01*
X75559Y01559D02*
X75559Y01059D01*
X75559Y00559D02*
X88059Y00559D01*
X88059Y01059D01*
X88059Y49559D01*
X88059Y50559D01*
X88059Y99559D01*
X99559Y99559D01*
X100559Y99559D01*
X100559Y50059D01*
X63059Y50059D01*
X38059Y50059D01*
X00559Y50059D01*
X00559Y50559D01*
X00559Y99559D01*
X99559Y99559D01*
X100059Y99559D01*
X87559Y99559D02*
X75559Y99559D01*
X62559Y99559D02*
X50559Y99559D01*
X37559Y99559D02*
X25559Y99559D01*
X12559Y99559D02*
X00559Y99559D01*
X00559Y50559D01*
X00559Y49559D01*
X00559Y50059D01*
X13059Y50059D01*
X38059Y50059D01*
X50059Y50059D01*
X50559Y50059D02*
X50559Y49559D01*
X50559Y50059D02*
X62559Y50059D01*
X63059Y50059D02*
X75059Y50059D01*
X75559Y50059D02*
X75559Y49559D01*
X75559Y50059D02*
X87559Y50059D01*
X88059Y50059D02*
X88059Y49559D01*
X88059Y50059D02*
X100059Y50059D01*
X100559Y50059D02*
X100559Y00559D01*
X88059Y00559D01*
X92059Y04059D02*
X92061Y04148D01*
X92067Y04237D01*
X92077Y04326D01*
X92091Y04414D01*
X92108Y04501D01*
X92130Y04587D01*
X92156Y04673D01*
X92185Y04757D01*
X92218Y04840D01*
X92254Y04921D01*
X92295Y05001D01*
X92338Y05078D01*
X92385Y05154D01*
X92436Y05227D01*
X92489Y05298D01*
X92546Y05367D01*
X92606Y05433D01*
X92669Y05497D01*
X92734Y05557D01*
X92802Y05615D01*
X92873Y05669D01*
X92946Y05720D01*
X93021Y05768D01*
X93098Y05813D01*
X93177Y05854D01*
X93258Y05891D01*
X93340Y05925D01*
X93424Y05956D01*
X93509Y05982D01*
X93595Y06005D01*
X93682Y06023D01*
X93770Y06038D01*
X93859Y06049D01*
X93948Y06056D01*
X94037Y06059D01*
X94126Y06058D01*
X94215Y06053D01*
X94303Y06044D01*
X94392Y06031D01*
X94479Y06014D01*
X94566Y05994D01*
X94652Y05969D01*
X94736Y05941D01*
X94819Y05909D01*
X94901Y05873D01*
X94981Y05834D01*
X95059Y05791D01*
X95135Y05745D01*
X95209Y05695D01*
X95281Y05642D01*
X95350Y05586D01*
X95417Y05527D01*
X95481Y05465D01*
X95542Y05401D01*
X95601Y05333D01*
X95656Y05263D01*
X95708Y05191D01*
X95757Y05116D01*
X95802Y05040D01*
X95844Y04961D01*
X95882Y04881D01*
X95917Y04799D01*
X95948Y04715D01*
X95976Y04630D01*
X95999Y04544D01*
X96019Y04457D01*
X96035Y04370D01*
X96047Y04281D01*
X96055Y04193D01*
X96059Y04104D01*
X96059Y04014D01*
X96055Y03925D01*
X96047Y03837D01*
X96035Y03748D01*
X96019Y03661D01*
X95999Y03574D01*
X95976Y03488D01*
X95948Y03403D01*
X95917Y03319D01*
X95882Y03237D01*
X95844Y03157D01*
X95802Y03078D01*
X95757Y03002D01*
X95708Y02927D01*
X95656Y02855D01*
X95601Y02785D01*
X95542Y02717D01*
X95481Y02653D01*
X95417Y02591D01*
X95350Y02532D01*
X95281Y02476D01*
X95209Y02423D01*
X95135Y02373D01*
X95059Y02327D01*
X94981Y02284D01*
X94901Y02245D01*
X94819Y02209D01*
X94736Y02177D01*
X94652Y02149D01*
X94566Y02124D01*
X94479Y02104D01*
X94392Y02087D01*
X94303Y02074D01*
X94215Y02065D01*
X94126Y02060D01*
X94037Y02059D01*
X93948Y02062D01*
X93859Y02069D01*
X93770Y02080D01*
X93682Y02095D01*
X93595Y02113D01*
X93509Y02136D01*
X93424Y02162D01*
X93340Y02193D01*
X93258Y02227D01*
X93177Y02264D01*
X93098Y02305D01*
X93021Y02350D01*
X92946Y02398D01*
X92873Y02449D01*
X92802Y02503D01*
X92734Y02561D01*
X92669Y02621D01*
X92606Y02685D01*
X92546Y02751D01*
X92489Y02820D01*
X92436Y02891D01*
X92385Y02964D01*
X92338Y03040D01*
X92295Y03117D01*
X92254Y03197D01*
X92218Y03278D01*
X92185Y03361D01*
X92156Y03445D01*
X92130Y03531D01*
X92108Y03617D01*
X92091Y03704D01*
X92077Y03792D01*
X92067Y03881D01*
X92061Y03970D01*
X92059Y04059D01*
X79559Y04059D02*
X79561Y04148D01*
X79567Y04237D01*
X79577Y04326D01*
X79591Y04414D01*
X79608Y04501D01*
X79630Y04587D01*
X79656Y04673D01*
X79685Y04757D01*
X79718Y04840D01*
X79754Y04921D01*
X79795Y05001D01*
X79838Y05078D01*
X79885Y05154D01*
X79936Y05227D01*
X79989Y05298D01*
X80046Y05367D01*
X80106Y05433D01*
X80169Y05497D01*
X80234Y05557D01*
X80302Y05615D01*
X80373Y05669D01*
X80446Y05720D01*
X80521Y05768D01*
X80598Y05813D01*
X80677Y05854D01*
X80758Y05891D01*
X80840Y05925D01*
X80924Y05956D01*
X81009Y05982D01*
X81095Y06005D01*
X81182Y06023D01*
X81270Y06038D01*
X81359Y06049D01*
X81448Y06056D01*
X81537Y06059D01*
X81626Y06058D01*
X81715Y06053D01*
X81803Y06044D01*
X81892Y06031D01*
X81979Y06014D01*
X82066Y05994D01*
X82152Y05969D01*
X82236Y05941D01*
X82319Y05909D01*
X82401Y05873D01*
X82481Y05834D01*
X82559Y05791D01*
X82635Y05745D01*
X82709Y05695D01*
X82781Y05642D01*
X82850Y05586D01*
X82917Y05527D01*
X82981Y05465D01*
X83042Y05401D01*
X83101Y05333D01*
X83156Y05263D01*
X83208Y05191D01*
X83257Y05116D01*
X83302Y05040D01*
X83344Y04961D01*
X83382Y04881D01*
X83417Y04799D01*
X83448Y04715D01*
X83476Y04630D01*
X83499Y04544D01*
X83519Y04457D01*
X83535Y04370D01*
X83547Y04281D01*
X83555Y04193D01*
X83559Y04104D01*
X83559Y04014D01*
X83555Y03925D01*
X83547Y03837D01*
X83535Y03748D01*
X83519Y03661D01*
X83499Y03574D01*
X83476Y03488D01*
X83448Y03403D01*
X83417Y03319D01*
X83382Y03237D01*
X83344Y03157D01*
X83302Y03078D01*
X83257Y03002D01*
X83208Y02927D01*
X83156Y02855D01*
X83101Y02785D01*
X83042Y02717D01*
X82981Y02653D01*
X82917Y02591D01*
X82850Y02532D01*
X82781Y02476D01*
X82709Y02423D01*
X82635Y02373D01*
X82559Y02327D01*
X82481Y02284D01*
X82401Y02245D01*
X82319Y02209D01*
X82236Y02177D01*
X82152Y02149D01*
X82066Y02124D01*
X81979Y02104D01*
X81892Y02087D01*
X81803Y02074D01*
X81715Y02065D01*
X81626Y02060D01*
X81537Y02059D01*
X81448Y02062D01*
X81359Y02069D01*
X81270Y02080D01*
X81182Y02095D01*
X81095Y02113D01*
X81009Y02136D01*
X80924Y02162D01*
X80840Y02193D01*
X80758Y02227D01*
X80677Y02264D01*
X80598Y02305D01*
X80521Y02350D01*
X80446Y02398D01*
X80373Y02449D01*
X80302Y02503D01*
X80234Y02561D01*
X80169Y02621D01*
X80106Y02685D01*
X80046Y02751D01*
X79989Y02820D01*
X79936Y02891D01*
X79885Y02964D01*
X79838Y03040D01*
X79795Y03117D01*
X79754Y03197D01*
X79718Y03278D01*
X79685Y03361D01*
X79656Y03445D01*
X79630Y03531D01*
X79608Y03617D01*
X79591Y03704D01*
X79577Y03792D01*
X79567Y03881D01*
X79561Y03970D01*
X79559Y04059D01*
X54559Y04059D02*
X54561Y04148D01*
X54567Y04237D01*
X54577Y04326D01*
X54591Y04414D01*
X54608Y04501D01*
X54630Y04587D01*
X54656Y04673D01*
X54685Y04757D01*
X54718Y04840D01*
X54754Y04921D01*
X54795Y05001D01*
X54838Y05078D01*
X54885Y05154D01*
X54936Y05227D01*
X54989Y05298D01*
X55046Y05367D01*
X55106Y05433D01*
X55169Y05497D01*
X55234Y05557D01*
X55302Y05615D01*
X55373Y05669D01*
X55446Y05720D01*
X55521Y05768D01*
X55598Y05813D01*
X55677Y05854D01*
X55758Y05891D01*
X55840Y05925D01*
X55924Y05956D01*
X56009Y05982D01*
X56095Y06005D01*
X56182Y06023D01*
X56270Y06038D01*
X56359Y06049D01*
X56448Y06056D01*
X56537Y06059D01*
X56626Y06058D01*
X56715Y06053D01*
X56803Y06044D01*
X56892Y06031D01*
X56979Y06014D01*
X57066Y05994D01*
X57152Y05969D01*
X57236Y05941D01*
X57319Y05909D01*
X57401Y05873D01*
X57481Y05834D01*
X57559Y05791D01*
X57635Y05745D01*
X57709Y05695D01*
X57781Y05642D01*
X57850Y05586D01*
X57917Y05527D01*
X57981Y05465D01*
X58042Y05401D01*
X58101Y05333D01*
X58156Y05263D01*
X58208Y05191D01*
X58257Y05116D01*
X58302Y05040D01*
X58344Y04961D01*
X58382Y04881D01*
X58417Y04799D01*
X58448Y04715D01*
X58476Y04630D01*
X58499Y04544D01*
X58519Y04457D01*
X58535Y04370D01*
X58547Y04281D01*
X58555Y04193D01*
X58559Y04104D01*
X58559Y04014D01*
X58555Y03925D01*
X58547Y03837D01*
X58535Y03748D01*
X58519Y03661D01*
X58499Y03574D01*
X58476Y03488D01*
X58448Y03403D01*
X58417Y03319D01*
X58382Y03237D01*
X58344Y03157D01*
X58302Y03078D01*
X58257Y03002D01*
X58208Y02927D01*
X58156Y02855D01*
X58101Y02785D01*
X58042Y02717D01*
X57981Y02653D01*
X57917Y02591D01*
X57850Y02532D01*
X57781Y02476D01*
X57709Y02423D01*
X57635Y02373D01*
X57559Y02327D01*
X57481Y02284D01*
X57401Y02245D01*
X57319Y02209D01*
X57236Y02177D01*
X57152Y02149D01*
X57066Y02124D01*
X56979Y02104D01*
X56892Y02087D01*
X56803Y02074D01*
X56715Y02065D01*
X56626Y02060D01*
X56537Y02059D01*
X56448Y02062D01*
X56359Y02069D01*
X56270Y02080D01*
X56182Y02095D01*
X56095Y02113D01*
X56009Y02136D01*
X55924Y02162D01*
X55840Y02193D01*
X55758Y02227D01*
X55677Y02264D01*
X55598Y02305D01*
X55521Y02350D01*
X55446Y02398D01*
X55373Y02449D01*
X55302Y02503D01*
X55234Y02561D01*
X55169Y02621D01*
X55106Y02685D01*
X55046Y02751D01*
X54989Y02820D01*
X54936Y02891D01*
X54885Y02964D01*
X54838Y03040D01*
X54795Y03117D01*
X54754Y03197D01*
X54718Y03278D01*
X54685Y03361D01*
X54656Y03445D01*
X54630Y03531D01*
X54608Y03617D01*
X54591Y03704D01*
X54577Y03792D01*
X54567Y03881D01*
X54561Y03970D01*
X54559Y04059D01*
X29559Y04059D02*
X29561Y04148D01*
X29567Y04237D01*
X29577Y04326D01*
X29591Y04414D01*
X29608Y04501D01*
X29630Y04587D01*
X29656Y04673D01*
X29685Y04757D01*
X29718Y04840D01*
X29754Y04921D01*
X29795Y05001D01*
X29838Y05078D01*
X29885Y05154D01*
X29936Y05227D01*
X29989Y05298D01*
X30046Y05367D01*
X30106Y05433D01*
X30169Y05497D01*
X30234Y05557D01*
X30302Y05615D01*
X30373Y05669D01*
X30446Y05720D01*
X30521Y05768D01*
X30598Y05813D01*
X30677Y05854D01*
X30758Y05891D01*
X30840Y05925D01*
X30924Y05956D01*
X31009Y05982D01*
X31095Y06005D01*
X31182Y06023D01*
X31270Y06038D01*
X31359Y06049D01*
X31448Y06056D01*
X31537Y06059D01*
X31626Y06058D01*
X31715Y06053D01*
X31803Y06044D01*
X31892Y06031D01*
X31979Y06014D01*
X32066Y05994D01*
X32152Y05969D01*
X32236Y05941D01*
X32319Y05909D01*
X32401Y05873D01*
X32481Y05834D01*
X32559Y05791D01*
X32635Y05745D01*
X32709Y05695D01*
X32781Y05642D01*
X32850Y05586D01*
X32917Y05527D01*
X32981Y05465D01*
X33042Y05401D01*
X33101Y05333D01*
X33156Y05263D01*
X33208Y05191D01*
X33257Y05116D01*
X33302Y05040D01*
X33344Y04961D01*
X33382Y04881D01*
X33417Y04799D01*
X33448Y04715D01*
X33476Y04630D01*
X33499Y04544D01*
X33519Y04457D01*
X33535Y04370D01*
X33547Y04281D01*
X33555Y04193D01*
X33559Y04104D01*
X33559Y04014D01*
X33555Y03925D01*
X33547Y03837D01*
X33535Y03748D01*
X33519Y03661D01*
X33499Y03574D01*
X33476Y03488D01*
X33448Y03403D01*
X33417Y03319D01*
X33382Y03237D01*
X33344Y03157D01*
X33302Y03078D01*
X33257Y03002D01*
X33208Y02927D01*
X33156Y02855D01*
X33101Y02785D01*
X33042Y02717D01*
X32981Y02653D01*
X32917Y02591D01*
X32850Y02532D01*
X32781Y02476D01*
X32709Y02423D01*
X32635Y02373D01*
X32559Y02327D01*
X32481Y02284D01*
X32401Y02245D01*
X32319Y02209D01*
X32236Y02177D01*
X32152Y02149D01*
X32066Y02124D01*
X31979Y02104D01*
X31892Y02087D01*
X31803Y02074D01*
X31715Y02065D01*
X31626Y02060D01*
X31537Y02059D01*
X31448Y02062D01*
X31359Y02069D01*
X31270Y02080D01*
X31182Y02095D01*
X31095Y02113D01*
X31009Y02136D01*
X30924Y02162D01*
X30840Y02193D01*
X30758Y02227D01*
X30677Y02264D01*
X30598Y02305D01*
X30521Y02350D01*
X30446Y02398D01*
X30373Y02449D01*
X30302Y02503D01*
X30234Y02561D01*
X30169Y02621D01*
X30106Y02685D01*
X30046Y02751D01*
X29989Y02820D01*
X29936Y02891D01*
X29885Y02964D01*
X29838Y03040D01*
X29795Y03117D01*
X29754Y03197D01*
X29718Y03278D01*
X29685Y03361D01*
X29656Y03445D01*
X29630Y03531D01*
X29608Y03617D01*
X29591Y03704D01*
X29577Y03792D01*
X29567Y03881D01*
X29561Y03970D01*
X29559Y04059D01*
X25559Y01559D02*
X25559Y01059D01*
X17059Y04059D02*
X17061Y04148D01*
X17067Y04237D01*
X17077Y04326D01*
X17091Y04414D01*
X17108Y04501D01*
X17130Y04587D01*
X17156Y04673D01*
X17185Y04757D01*
X17218Y04840D01*
X17254Y04921D01*
X17295Y05001D01*
X17338Y05078D01*
X17385Y05154D01*
X17436Y05227D01*
X17489Y05298D01*
X17546Y05367D01*
X17606Y05433D01*
X17669Y05497D01*
X17734Y05557D01*
X17802Y05615D01*
X17873Y05669D01*
X17946Y05720D01*
X18021Y05768D01*
X18098Y05813D01*
X18177Y05854D01*
X18258Y05891D01*
X18340Y05925D01*
X18424Y05956D01*
X18509Y05982D01*
X18595Y06005D01*
X18682Y06023D01*
X18770Y06038D01*
X18859Y06049D01*
X18948Y06056D01*
X19037Y06059D01*
X19126Y06058D01*
X19215Y06053D01*
X19303Y06044D01*
X19392Y06031D01*
X19479Y06014D01*
X19566Y05994D01*
X19652Y05969D01*
X19736Y05941D01*
X19819Y05909D01*
X19901Y05873D01*
X19981Y05834D01*
X20059Y05791D01*
X20135Y05745D01*
X20209Y05695D01*
X20281Y05642D01*
X20350Y05586D01*
X20417Y05527D01*
X20481Y05465D01*
X20542Y05401D01*
X20601Y05333D01*
X20656Y05263D01*
X20708Y05191D01*
X20757Y05116D01*
X20802Y05040D01*
X20844Y04961D01*
X20882Y04881D01*
X20917Y04799D01*
X20948Y04715D01*
X20976Y04630D01*
X20999Y04544D01*
X21019Y04457D01*
X21035Y04370D01*
X21047Y04281D01*
X21055Y04193D01*
X21059Y04104D01*
X21059Y04014D01*
X21055Y03925D01*
X21047Y03837D01*
X21035Y03748D01*
X21019Y03661D01*
X20999Y03574D01*
X20976Y03488D01*
X20948Y03403D01*
X20917Y03319D01*
X20882Y03237D01*
X20844Y03157D01*
X20802Y03078D01*
X20757Y03002D01*
X20708Y02927D01*
X20656Y02855D01*
X20601Y02785D01*
X20542Y02717D01*
X20481Y02653D01*
X20417Y02591D01*
X20350Y02532D01*
X20281Y02476D01*
X20209Y02423D01*
X20135Y02373D01*
X20059Y02327D01*
X19981Y02284D01*
X19901Y02245D01*
X19819Y02209D01*
X19736Y02177D01*
X19652Y02149D01*
X19566Y02124D01*
X19479Y02104D01*
X19392Y02087D01*
X19303Y02074D01*
X19215Y02065D01*
X19126Y02060D01*
X19037Y02059D01*
X18948Y02062D01*
X18859Y02069D01*
X18770Y02080D01*
X18682Y02095D01*
X18595Y02113D01*
X18509Y02136D01*
X18424Y02162D01*
X18340Y02193D01*
X18258Y02227D01*
X18177Y02264D01*
X18098Y02305D01*
X18021Y02350D01*
X17946Y02398D01*
X17873Y02449D01*
X17802Y02503D01*
X17734Y02561D01*
X17669Y02621D01*
X17606Y02685D01*
X17546Y02751D01*
X17489Y02820D01*
X17436Y02891D01*
X17385Y02964D01*
X17338Y03040D01*
X17295Y03117D01*
X17254Y03197D01*
X17218Y03278D01*
X17185Y03361D01*
X17156Y03445D01*
X17130Y03531D01*
X17108Y03617D01*
X17091Y03704D01*
X17077Y03792D01*
X17067Y03881D01*
X17061Y03970D01*
X17059Y04059D01*
X04559Y04059D02*
X04561Y04148D01*
X04567Y04237D01*
X04577Y04326D01*
X04591Y04414D01*
X04608Y04501D01*
X04630Y04587D01*
X04656Y04673D01*
X04685Y04757D01*
X04718Y04840D01*
X04754Y04921D01*
X04795Y05001D01*
X04838Y05078D01*
X04885Y05154D01*
X04936Y05227D01*
X04989Y05298D01*
X05046Y05367D01*
X05106Y05433D01*
X05169Y05497D01*
X05234Y05557D01*
X05302Y05615D01*
X05373Y05669D01*
X05446Y05720D01*
X05521Y05768D01*
X05598Y05813D01*
X05677Y05854D01*
X05758Y05891D01*
X05840Y05925D01*
X05924Y05956D01*
X06009Y05982D01*
X06095Y06005D01*
X06182Y06023D01*
X06270Y06038D01*
X06359Y06049D01*
X06448Y06056D01*
X06537Y06059D01*
X06626Y06058D01*
X06715Y06053D01*
X06803Y06044D01*
X06892Y06031D01*
X06979Y06014D01*
X07066Y05994D01*
X07152Y05969D01*
X07236Y05941D01*
X07319Y05909D01*
X07401Y05873D01*
X07481Y05834D01*
X07559Y05791D01*
X07635Y05745D01*
X07709Y05695D01*
X07781Y05642D01*
X07850Y05586D01*
X07917Y05527D01*
X07981Y05465D01*
X08042Y05401D01*
X08101Y05333D01*
X08156Y05263D01*
X08208Y05191D01*
X08257Y05116D01*
X08302Y05040D01*
X08344Y04961D01*
X08382Y04881D01*
X08417Y04799D01*
X08448Y04715D01*
X08476Y04630D01*
X08499Y04544D01*
X08519Y04457D01*
X08535Y04370D01*
X08547Y04281D01*
X08555Y04193D01*
X08559Y04104D01*
X08559Y04014D01*
X08555Y03925D01*
X08547Y03837D01*
X08535Y03748D01*
X08519Y03661D01*
X08499Y03574D01*
X08476Y03488D01*
X08448Y03403D01*
X08417Y03319D01*
X08382Y03237D01*
X08344Y03157D01*
X08302Y03078D01*
X08257Y03002D01*
X08208Y02927D01*
X08156Y02855D01*
X08101Y02785D01*
X08042Y02717D01*
X07981Y02653D01*
X07917Y02591D01*
X07850Y02532D01*
X07781Y02476D01*
X07709Y02423D01*
X07635Y02373D01*
X07559Y02327D01*
X07481Y02284D01*
X07401Y02245D01*
X07319Y02209D01*
X07236Y02177D01*
X07152Y02149D01*
X07066Y02124D01*
X06979Y02104D01*
X06892Y02087D01*
X06803Y02074D01*
X06715Y02065D01*
X06626Y02060D01*
X06537Y02059D01*
X06448Y02062D01*
X06359Y02069D01*
X06270Y02080D01*
X06182Y02095D01*
X06095Y02113D01*
X06009Y02136D01*
X05924Y02162D01*
X05840Y02193D01*
X05758Y02227D01*
X05677Y02264D01*
X05598Y02305D01*
X05521Y02350D01*
X05446Y02398D01*
X05373Y02449D01*
X05302Y02503D01*
X05234Y02561D01*
X05169Y02621D01*
X05106Y02685D01*
X05046Y02751D01*
X04989Y02820D01*
X04936Y02891D01*
X04885Y02964D01*
X04838Y03040D01*
X04795Y03117D01*
X04754Y03197D01*
X04718Y03278D01*
X04685Y03361D01*
X04656Y03445D01*
X04630Y03531D01*
X04608Y03617D01*
X04591Y03704D01*
X04577Y03792D01*
X04567Y03881D01*
X04561Y03970D01*
X04559Y04059D01*
X00559Y01059D02*
X00559Y49559D01*
X00559Y00559D01*
X00559Y49559D02*
X00559Y50059D01*
X04559Y53559D02*
X04561Y53648D01*
X04567Y53737D01*
X04577Y53826D01*
X04591Y53914D01*
X04608Y54001D01*
X04630Y54087D01*
X04656Y54173D01*
X04685Y54257D01*
X04718Y54340D01*
X04754Y54421D01*
X04795Y54501D01*
X04838Y54578D01*
X04885Y54654D01*
X04936Y54727D01*
X04989Y54798D01*
X05046Y54867D01*
X05106Y54933D01*
X05169Y54997D01*
X05234Y55057D01*
X05302Y55115D01*
X05373Y55169D01*
X05446Y55220D01*
X05521Y55268D01*
X05598Y55313D01*
X05677Y55354D01*
X05758Y55391D01*
X05840Y55425D01*
X05924Y55456D01*
X06009Y55482D01*
X06095Y55505D01*
X06182Y55523D01*
X06270Y55538D01*
X06359Y55549D01*
X06448Y55556D01*
X06537Y55559D01*
X06626Y55558D01*
X06715Y55553D01*
X06803Y55544D01*
X06892Y55531D01*
X06979Y55514D01*
X07066Y55494D01*
X07152Y55469D01*
X07236Y55441D01*
X07319Y55409D01*
X07401Y55373D01*
X07481Y55334D01*
X07559Y55291D01*
X07635Y55245D01*
X07709Y55195D01*
X07781Y55142D01*
X07850Y55086D01*
X07917Y55027D01*
X07981Y54965D01*
X08042Y54901D01*
X08101Y54833D01*
X08156Y54763D01*
X08208Y54691D01*
X08257Y54616D01*
X08302Y54540D01*
X08344Y54461D01*
X08382Y54381D01*
X08417Y54299D01*
X08448Y54215D01*
X08476Y54130D01*
X08499Y54044D01*
X08519Y53957D01*
X08535Y53870D01*
X08547Y53781D01*
X08555Y53693D01*
X08559Y53604D01*
X08559Y53514D01*
X08555Y53425D01*
X08547Y53337D01*
X08535Y53248D01*
X08519Y53161D01*
X08499Y53074D01*
X08476Y52988D01*
X08448Y52903D01*
X08417Y52819D01*
X08382Y52737D01*
X08344Y52657D01*
X08302Y52578D01*
X08257Y52502D01*
X08208Y52427D01*
X08156Y52355D01*
X08101Y52285D01*
X08042Y52217D01*
X07981Y52153D01*
X07917Y52091D01*
X07850Y52032D01*
X07781Y51976D01*
X07709Y51923D01*
X07635Y51873D01*
X07559Y51827D01*
X07481Y51784D01*
X07401Y51745D01*
X07319Y51709D01*
X07236Y51677D01*
X07152Y51649D01*
X07066Y51624D01*
X06979Y51604D01*
X06892Y51587D01*
X06803Y51574D01*
X06715Y51565D01*
X06626Y51560D01*
X06537Y51559D01*
X06448Y51562D01*
X06359Y51569D01*
X06270Y51580D01*
X06182Y51595D01*
X06095Y51613D01*
X06009Y51636D01*
X05924Y51662D01*
X05840Y51693D01*
X05758Y51727D01*
X05677Y51764D01*
X05598Y51805D01*
X05521Y51850D01*
X05446Y51898D01*
X05373Y51949D01*
X05302Y52003D01*
X05234Y52061D01*
X05169Y52121D01*
X05106Y52185D01*
X05046Y52251D01*
X04989Y52320D01*
X04936Y52391D01*
X04885Y52464D01*
X04838Y52540D01*
X04795Y52617D01*
X04754Y52697D01*
X04718Y52778D01*
X04685Y52861D01*
X04656Y52945D01*
X04630Y53031D01*
X04608Y53117D01*
X04591Y53204D01*
X04577Y53292D01*
X04567Y53381D01*
X04561Y53470D01*
X04559Y53559D01*
X17059Y53559D02*
X17061Y53648D01*
X17067Y53737D01*
X17077Y53826D01*
X17091Y53914D01*
X17108Y54001D01*
X17130Y54087D01*
X17156Y54173D01*
X17185Y54257D01*
X17218Y54340D01*
X17254Y54421D01*
X17295Y54501D01*
X17338Y54578D01*
X17385Y54654D01*
X17436Y54727D01*
X17489Y54798D01*
X17546Y54867D01*
X17606Y54933D01*
X17669Y54997D01*
X17734Y55057D01*
X17802Y55115D01*
X17873Y55169D01*
X17946Y55220D01*
X18021Y55268D01*
X18098Y55313D01*
X18177Y55354D01*
X18258Y55391D01*
X18340Y55425D01*
X18424Y55456D01*
X18509Y55482D01*
X18595Y55505D01*
X18682Y55523D01*
X18770Y55538D01*
X18859Y55549D01*
X18948Y55556D01*
X19037Y55559D01*
X19126Y55558D01*
X19215Y55553D01*
X19303Y55544D01*
X19392Y55531D01*
X19479Y55514D01*
X19566Y55494D01*
X19652Y55469D01*
X19736Y55441D01*
X19819Y55409D01*
X19901Y55373D01*
X19981Y55334D01*
X20059Y55291D01*
X20135Y55245D01*
X20209Y55195D01*
X20281Y55142D01*
X20350Y55086D01*
X20417Y55027D01*
X20481Y54965D01*
X20542Y54901D01*
X20601Y54833D01*
X20656Y54763D01*
X20708Y54691D01*
X20757Y54616D01*
X20802Y54540D01*
X20844Y54461D01*
X20882Y54381D01*
X20917Y54299D01*
X20948Y54215D01*
X20976Y54130D01*
X20999Y54044D01*
X21019Y53957D01*
X21035Y53870D01*
X21047Y53781D01*
X21055Y53693D01*
X21059Y53604D01*
X21059Y53514D01*
X21055Y53425D01*
X21047Y53337D01*
X21035Y53248D01*
X21019Y53161D01*
X20999Y53074D01*
X20976Y52988D01*
X20948Y52903D01*
X20917Y52819D01*
X20882Y52737D01*
X20844Y52657D01*
X20802Y52578D01*
X20757Y52502D01*
X20708Y52427D01*
X20656Y52355D01*
X20601Y52285D01*
X20542Y52217D01*
X20481Y52153D01*
X20417Y52091D01*
X20350Y52032D01*
X20281Y51976D01*
X20209Y51923D01*
X20135Y51873D01*
X20059Y51827D01*
X19981Y51784D01*
X19901Y51745D01*
X19819Y51709D01*
X19736Y51677D01*
X19652Y51649D01*
X19566Y51624D01*
X19479Y51604D01*
X19392Y51587D01*
X19303Y51574D01*
X19215Y51565D01*
X19126Y51560D01*
X19037Y51559D01*
X18948Y51562D01*
X18859Y51569D01*
X18770Y51580D01*
X18682Y51595D01*
X18595Y51613D01*
X18509Y51636D01*
X18424Y51662D01*
X18340Y51693D01*
X18258Y51727D01*
X18177Y51764D01*
X18098Y51805D01*
X18021Y51850D01*
X17946Y51898D01*
X17873Y51949D01*
X17802Y52003D01*
X17734Y52061D01*
X17669Y52121D01*
X17606Y52185D01*
X17546Y52251D01*
X17489Y52320D01*
X17436Y52391D01*
X17385Y52464D01*
X17338Y52540D01*
X17295Y52617D01*
X17254Y52697D01*
X17218Y52778D01*
X17185Y52861D01*
X17156Y52945D01*
X17130Y53031D01*
X17108Y53117D01*
X17091Y53204D01*
X17077Y53292D01*
X17067Y53381D01*
X17061Y53470D01*
X17059Y53559D01*
X25559Y50059D02*
X25559Y49559D01*
X29559Y53559D02*
X29561Y53648D01*
X29567Y53737D01*
X29577Y53826D01*
X29591Y53914D01*
X29608Y54001D01*
X29630Y54087D01*
X29656Y54173D01*
X29685Y54257D01*
X29718Y54340D01*
X29754Y54421D01*
X29795Y54501D01*
X29838Y54578D01*
X29885Y54654D01*
X29936Y54727D01*
X29989Y54798D01*
X30046Y54867D01*
X30106Y54933D01*
X30169Y54997D01*
X30234Y55057D01*
X30302Y55115D01*
X30373Y55169D01*
X30446Y55220D01*
X30521Y55268D01*
X30598Y55313D01*
X30677Y55354D01*
X30758Y55391D01*
X30840Y55425D01*
X30924Y55456D01*
X31009Y55482D01*
X31095Y55505D01*
X31182Y55523D01*
X31270Y55538D01*
X31359Y55549D01*
X31448Y55556D01*
X31537Y55559D01*
X31626Y55558D01*
X31715Y55553D01*
X31803Y55544D01*
X31892Y55531D01*
X31979Y55514D01*
X32066Y55494D01*
X32152Y55469D01*
X32236Y55441D01*
X32319Y55409D01*
X32401Y55373D01*
X32481Y55334D01*
X32559Y55291D01*
X32635Y55245D01*
X32709Y55195D01*
X32781Y55142D01*
X32850Y55086D01*
X32917Y55027D01*
X32981Y54965D01*
X33042Y54901D01*
X33101Y54833D01*
X33156Y54763D01*
X33208Y54691D01*
X33257Y54616D01*
X33302Y54540D01*
X33344Y54461D01*
X33382Y54381D01*
X33417Y54299D01*
X33448Y54215D01*
X33476Y54130D01*
X33499Y54044D01*
X33519Y53957D01*
X33535Y53870D01*
X33547Y53781D01*
X33555Y53693D01*
X33559Y53604D01*
X33559Y53514D01*
X33555Y53425D01*
X33547Y53337D01*
X33535Y53248D01*
X33519Y53161D01*
X33499Y53074D01*
X33476Y52988D01*
X33448Y52903D01*
X33417Y52819D01*
X33382Y52737D01*
X33344Y52657D01*
X33302Y52578D01*
X33257Y52502D01*
X33208Y52427D01*
X33156Y52355D01*
X33101Y52285D01*
X33042Y52217D01*
X32981Y52153D01*
X32917Y52091D01*
X32850Y52032D01*
X32781Y51976D01*
X32709Y51923D01*
X32635Y51873D01*
X32559Y51827D01*
X32481Y51784D01*
X32401Y51745D01*
X32319Y51709D01*
X32236Y51677D01*
X32152Y51649D01*
X32066Y51624D01*
X31979Y51604D01*
X31892Y51587D01*
X31803Y51574D01*
X31715Y51565D01*
X31626Y51560D01*
X31537Y51559D01*
X31448Y51562D01*
X31359Y51569D01*
X31270Y51580D01*
X31182Y51595D01*
X31095Y51613D01*
X31009Y51636D01*
X30924Y51662D01*
X30840Y51693D01*
X30758Y51727D01*
X30677Y51764D01*
X30598Y51805D01*
X30521Y51850D01*
X30446Y51898D01*
X30373Y51949D01*
X30302Y52003D01*
X30234Y52061D01*
X30169Y52121D01*
X30106Y52185D01*
X30046Y52251D01*
X29989Y52320D01*
X29936Y52391D01*
X29885Y52464D01*
X29838Y52540D01*
X29795Y52617D01*
X29754Y52697D01*
X29718Y52778D01*
X29685Y52861D01*
X29656Y52945D01*
X29630Y53031D01*
X29608Y53117D01*
X29591Y53204D01*
X29577Y53292D01*
X29567Y53381D01*
X29561Y53470D01*
X29559Y53559D01*
X42059Y53559D02*
X42061Y53648D01*
X42067Y53737D01*
X42077Y53826D01*
X42091Y53914D01*
X42108Y54001D01*
X42130Y54087D01*
X42156Y54173D01*
X42185Y54257D01*
X42218Y54340D01*
X42254Y54421D01*
X42295Y54501D01*
X42338Y54578D01*
X42385Y54654D01*
X42436Y54727D01*
X42489Y54798D01*
X42546Y54867D01*
X42606Y54933D01*
X42669Y54997D01*
X42734Y55057D01*
X42802Y55115D01*
X42873Y55169D01*
X42946Y55220D01*
X43021Y55268D01*
X43098Y55313D01*
X43177Y55354D01*
X43258Y55391D01*
X43340Y55425D01*
X43424Y55456D01*
X43509Y55482D01*
X43595Y55505D01*
X43682Y55523D01*
X43770Y55538D01*
X43859Y55549D01*
X43948Y55556D01*
X44037Y55559D01*
X44126Y55558D01*
X44215Y55553D01*
X44303Y55544D01*
X44392Y55531D01*
X44479Y55514D01*
X44566Y55494D01*
X44652Y55469D01*
X44736Y55441D01*
X44819Y55409D01*
X44901Y55373D01*
X44981Y55334D01*
X45059Y55291D01*
X45135Y55245D01*
X45209Y55195D01*
X45281Y55142D01*
X45350Y55086D01*
X45417Y55027D01*
X45481Y54965D01*
X45542Y54901D01*
X45601Y54833D01*
X45656Y54763D01*
X45708Y54691D01*
X45757Y54616D01*
X45802Y54540D01*
X45844Y54461D01*
X45882Y54381D01*
X45917Y54299D01*
X45948Y54215D01*
X45976Y54130D01*
X45999Y54044D01*
X46019Y53957D01*
X46035Y53870D01*
X46047Y53781D01*
X46055Y53693D01*
X46059Y53604D01*
X46059Y53514D01*
X46055Y53425D01*
X46047Y53337D01*
X46035Y53248D01*
X46019Y53161D01*
X45999Y53074D01*
X45976Y52988D01*
X45948Y52903D01*
X45917Y52819D01*
X45882Y52737D01*
X45844Y52657D01*
X45802Y52578D01*
X45757Y52502D01*
X45708Y52427D01*
X45656Y52355D01*
X45601Y52285D01*
X45542Y52217D01*
X45481Y52153D01*
X45417Y52091D01*
X45350Y52032D01*
X45281Y51976D01*
X45209Y51923D01*
X45135Y51873D01*
X45059Y51827D01*
X44981Y51784D01*
X44901Y51745D01*
X44819Y51709D01*
X44736Y51677D01*
X44652Y51649D01*
X44566Y51624D01*
X44479Y51604D01*
X44392Y51587D01*
X44303Y51574D01*
X44215Y51565D01*
X44126Y51560D01*
X44037Y51559D01*
X43948Y51562D01*
X43859Y51569D01*
X43770Y51580D01*
X43682Y51595D01*
X43595Y51613D01*
X43509Y51636D01*
X43424Y51662D01*
X43340Y51693D01*
X43258Y51727D01*
X43177Y51764D01*
X43098Y51805D01*
X43021Y51850D01*
X42946Y51898D01*
X42873Y51949D01*
X42802Y52003D01*
X42734Y52061D01*
X42669Y52121D01*
X42606Y52185D01*
X42546Y52251D01*
X42489Y52320D01*
X42436Y52391D01*
X42385Y52464D01*
X42338Y52540D01*
X42295Y52617D01*
X42254Y52697D01*
X42218Y52778D01*
X42185Y52861D01*
X42156Y52945D01*
X42130Y53031D01*
X42108Y53117D01*
X42091Y53204D01*
X42077Y53292D01*
X42067Y53381D01*
X42061Y53470D01*
X42059Y53559D01*
X54559Y53559D02*
X54561Y53648D01*
X54567Y53737D01*
X54577Y53826D01*
X54591Y53914D01*
X54608Y54001D01*
X54630Y54087D01*
X54656Y54173D01*
X54685Y54257D01*
X54718Y54340D01*
X54754Y54421D01*
X54795Y54501D01*
X54838Y54578D01*
X54885Y54654D01*
X54936Y54727D01*
X54989Y54798D01*
X55046Y54867D01*
X55106Y54933D01*
X55169Y54997D01*
X55234Y55057D01*
X55302Y55115D01*
X55373Y55169D01*
X55446Y55220D01*
X55521Y55268D01*
X55598Y55313D01*
X55677Y55354D01*
X55758Y55391D01*
X55840Y55425D01*
X55924Y55456D01*
X56009Y55482D01*
X56095Y55505D01*
X56182Y55523D01*
X56270Y55538D01*
X56359Y55549D01*
X56448Y55556D01*
X56537Y55559D01*
X56626Y55558D01*
X56715Y55553D01*
X56803Y55544D01*
X56892Y55531D01*
X56979Y55514D01*
X57066Y55494D01*
X57152Y55469D01*
X57236Y55441D01*
X57319Y55409D01*
X57401Y55373D01*
X57481Y55334D01*
X57559Y55291D01*
X57635Y55245D01*
X57709Y55195D01*
X57781Y55142D01*
X57850Y55086D01*
X57917Y55027D01*
X57981Y54965D01*
X58042Y54901D01*
X58101Y54833D01*
X58156Y54763D01*
X58208Y54691D01*
X58257Y54616D01*
X58302Y54540D01*
X58344Y54461D01*
X58382Y54381D01*
X58417Y54299D01*
X58448Y54215D01*
X58476Y54130D01*
X58499Y54044D01*
X58519Y53957D01*
X58535Y53870D01*
X58547Y53781D01*
X58555Y53693D01*
X58559Y53604D01*
X58559Y53514D01*
X58555Y53425D01*
X58547Y53337D01*
X58535Y53248D01*
X58519Y53161D01*
X58499Y53074D01*
X58476Y52988D01*
X58448Y52903D01*
X58417Y52819D01*
X58382Y52737D01*
X58344Y52657D01*
X58302Y52578D01*
X58257Y52502D01*
X58208Y52427D01*
X58156Y52355D01*
X58101Y52285D01*
X58042Y52217D01*
X57981Y52153D01*
X57917Y52091D01*
X57850Y52032D01*
X57781Y51976D01*
X57709Y51923D01*
X57635Y51873D01*
X57559Y51827D01*
X57481Y51784D01*
X57401Y51745D01*
X57319Y51709D01*
X57236Y51677D01*
X57152Y51649D01*
X57066Y51624D01*
X56979Y51604D01*
X56892Y51587D01*
X56803Y51574D01*
X56715Y51565D01*
X56626Y51560D01*
X56537Y51559D01*
X56448Y51562D01*
X56359Y51569D01*
X56270Y51580D01*
X56182Y51595D01*
X56095Y51613D01*
X56009Y51636D01*
X55924Y51662D01*
X55840Y51693D01*
X55758Y51727D01*
X55677Y51764D01*
X55598Y51805D01*
X55521Y51850D01*
X55446Y51898D01*
X55373Y51949D01*
X55302Y52003D01*
X55234Y52061D01*
X55169Y52121D01*
X55106Y52185D01*
X55046Y52251D01*
X54989Y52320D01*
X54936Y52391D01*
X54885Y52464D01*
X54838Y52540D01*
X54795Y52617D01*
X54754Y52697D01*
X54718Y52778D01*
X54685Y52861D01*
X54656Y52945D01*
X54630Y53031D01*
X54608Y53117D01*
X54591Y53204D01*
X54577Y53292D01*
X54567Y53381D01*
X54561Y53470D01*
X54559Y53559D01*
X67059Y53559D02*
X67061Y53648D01*
X67067Y53737D01*
X67077Y53826D01*
X67091Y53914D01*
X67108Y54001D01*
X67130Y54087D01*
X67156Y54173D01*
X67185Y54257D01*
X67218Y54340D01*
X67254Y54421D01*
X67295Y54501D01*
X67338Y54578D01*
X67385Y54654D01*
X67436Y54727D01*
X67489Y54798D01*
X67546Y54867D01*
X67606Y54933D01*
X67669Y54997D01*
X67734Y55057D01*
X67802Y55115D01*
X67873Y55169D01*
X67946Y55220D01*
X68021Y55268D01*
X68098Y55313D01*
X68177Y55354D01*
X68258Y55391D01*
X68340Y55425D01*
X68424Y55456D01*
X68509Y55482D01*
X68595Y55505D01*
X68682Y55523D01*
X68770Y55538D01*
X68859Y55549D01*
X68948Y55556D01*
X69037Y55559D01*
X69126Y55558D01*
X69215Y55553D01*
X69303Y55544D01*
X69392Y55531D01*
X69479Y55514D01*
X69566Y55494D01*
X69652Y55469D01*
X69736Y55441D01*
X69819Y55409D01*
X69901Y55373D01*
X69981Y55334D01*
X70059Y55291D01*
X70135Y55245D01*
X70209Y55195D01*
X70281Y55142D01*
X70350Y55086D01*
X70417Y55027D01*
X70481Y54965D01*
X70542Y54901D01*
X70601Y54833D01*
X70656Y54763D01*
X70708Y54691D01*
X70757Y54616D01*
X70802Y54540D01*
X70844Y54461D01*
X70882Y54381D01*
X70917Y54299D01*
X70948Y54215D01*
X70976Y54130D01*
X70999Y54044D01*
X71019Y53957D01*
X71035Y53870D01*
X71047Y53781D01*
X71055Y53693D01*
X71059Y53604D01*
X71059Y53514D01*
X71055Y53425D01*
X71047Y53337D01*
X71035Y53248D01*
X71019Y53161D01*
X70999Y53074D01*
X70976Y52988D01*
X70948Y52903D01*
X70917Y52819D01*
X70882Y52737D01*
X70844Y52657D01*
X70802Y52578D01*
X70757Y52502D01*
X70708Y52427D01*
X70656Y52355D01*
X70601Y52285D01*
X70542Y52217D01*
X70481Y52153D01*
X70417Y52091D01*
X70350Y52032D01*
X70281Y51976D01*
X70209Y51923D01*
X70135Y51873D01*
X70059Y51827D01*
X69981Y51784D01*
X69901Y51745D01*
X69819Y51709D01*
X69736Y51677D01*
X69652Y51649D01*
X69566Y51624D01*
X69479Y51604D01*
X69392Y51587D01*
X69303Y51574D01*
X69215Y51565D01*
X69126Y51560D01*
X69037Y51559D01*
X68948Y51562D01*
X68859Y51569D01*
X68770Y51580D01*
X68682Y51595D01*
X68595Y51613D01*
X68509Y51636D01*
X68424Y51662D01*
X68340Y51693D01*
X68258Y51727D01*
X68177Y51764D01*
X68098Y51805D01*
X68021Y51850D01*
X67946Y51898D01*
X67873Y51949D01*
X67802Y52003D01*
X67734Y52061D01*
X67669Y52121D01*
X67606Y52185D01*
X67546Y52251D01*
X67489Y52320D01*
X67436Y52391D01*
X67385Y52464D01*
X67338Y52540D01*
X67295Y52617D01*
X67254Y52697D01*
X67218Y52778D01*
X67185Y52861D01*
X67156Y52945D01*
X67130Y53031D01*
X67108Y53117D01*
X67091Y53204D01*
X67077Y53292D01*
X67067Y53381D01*
X67061Y53470D01*
X67059Y53559D01*
X79559Y53559D02*
X79561Y53648D01*
X79567Y53737D01*
X79577Y53826D01*
X79591Y53914D01*
X79608Y54001D01*
X79630Y54087D01*
X79656Y54173D01*
X79685Y54257D01*
X79718Y54340D01*
X79754Y54421D01*
X79795Y54501D01*
X79838Y54578D01*
X79885Y54654D01*
X79936Y54727D01*
X79989Y54798D01*
X80046Y54867D01*
X80106Y54933D01*
X80169Y54997D01*
X80234Y55057D01*
X80302Y55115D01*
X80373Y55169D01*
X80446Y55220D01*
X80521Y55268D01*
X80598Y55313D01*
X80677Y55354D01*
X80758Y55391D01*
X80840Y55425D01*
X80924Y55456D01*
X81009Y55482D01*
X81095Y55505D01*
X81182Y55523D01*
X81270Y55538D01*
X81359Y55549D01*
X81448Y55556D01*
X81537Y55559D01*
X81626Y55558D01*
X81715Y55553D01*
X81803Y55544D01*
X81892Y55531D01*
X81979Y55514D01*
X82066Y55494D01*
X82152Y55469D01*
X82236Y55441D01*
X82319Y55409D01*
X82401Y55373D01*
X82481Y55334D01*
X82559Y55291D01*
X82635Y55245D01*
X82709Y55195D01*
X82781Y55142D01*
X82850Y55086D01*
X82917Y55027D01*
X82981Y54965D01*
X83042Y54901D01*
X83101Y54833D01*
X83156Y54763D01*
X83208Y54691D01*
X83257Y54616D01*
X83302Y54540D01*
X83344Y54461D01*
X83382Y54381D01*
X83417Y54299D01*
X83448Y54215D01*
X83476Y54130D01*
X83499Y54044D01*
X83519Y53957D01*
X83535Y53870D01*
X83547Y53781D01*
X83555Y53693D01*
X83559Y53604D01*
X83559Y53514D01*
X83555Y53425D01*
X83547Y53337D01*
X83535Y53248D01*
X83519Y53161D01*
X83499Y53074D01*
X83476Y52988D01*
X83448Y52903D01*
X83417Y52819D01*
X83382Y52737D01*
X83344Y52657D01*
X83302Y52578D01*
X83257Y52502D01*
X83208Y52427D01*
X83156Y52355D01*
X83101Y52285D01*
X83042Y52217D01*
X82981Y52153D01*
X82917Y52091D01*
X82850Y52032D01*
X82781Y51976D01*
X82709Y51923D01*
X82635Y51873D01*
X82559Y51827D01*
X82481Y51784D01*
X82401Y51745D01*
X82319Y51709D01*
X82236Y51677D01*
X82152Y51649D01*
X82066Y51624D01*
X81979Y51604D01*
X81892Y51587D01*
X81803Y51574D01*
X81715Y51565D01*
X81626Y51560D01*
X81537Y51559D01*
X81448Y51562D01*
X81359Y51569D01*
X81270Y51580D01*
X81182Y51595D01*
X81095Y51613D01*
X81009Y51636D01*
X80924Y51662D01*
X80840Y51693D01*
X80758Y51727D01*
X80677Y51764D01*
X80598Y51805D01*
X80521Y51850D01*
X80446Y51898D01*
X80373Y51949D01*
X80302Y52003D01*
X80234Y52061D01*
X80169Y52121D01*
X80106Y52185D01*
X80046Y52251D01*
X79989Y52320D01*
X79936Y52391D01*
X79885Y52464D01*
X79838Y52540D01*
X79795Y52617D01*
X79754Y52697D01*
X79718Y52778D01*
X79685Y52861D01*
X79656Y52945D01*
X79630Y53031D01*
X79608Y53117D01*
X79591Y53204D01*
X79577Y53292D01*
X79567Y53381D01*
X79561Y53470D01*
X79559Y53559D01*
X92059Y53559D02*
X92061Y53648D01*
X92067Y53737D01*
X92077Y53826D01*
X92091Y53914D01*
X92108Y54001D01*
X92130Y54087D01*
X92156Y54173D01*
X92185Y54257D01*
X92218Y54340D01*
X92254Y54421D01*
X92295Y54501D01*
X92338Y54578D01*
X92385Y54654D01*
X92436Y54727D01*
X92489Y54798D01*
X92546Y54867D01*
X92606Y54933D01*
X92669Y54997D01*
X92734Y55057D01*
X92802Y55115D01*
X92873Y55169D01*
X92946Y55220D01*
X93021Y55268D01*
X93098Y55313D01*
X93177Y55354D01*
X93258Y55391D01*
X93340Y55425D01*
X93424Y55456D01*
X93509Y55482D01*
X93595Y55505D01*
X93682Y55523D01*
X93770Y55538D01*
X93859Y55549D01*
X93948Y55556D01*
X94037Y55559D01*
X94126Y55558D01*
X94215Y55553D01*
X94303Y55544D01*
X94392Y55531D01*
X94479Y55514D01*
X94566Y55494D01*
X94652Y55469D01*
X94736Y55441D01*
X94819Y55409D01*
X94901Y55373D01*
X94981Y55334D01*
X95059Y55291D01*
X95135Y55245D01*
X95209Y55195D01*
X95281Y55142D01*
X95350Y55086D01*
X95417Y55027D01*
X95481Y54965D01*
X95542Y54901D01*
X95601Y54833D01*
X95656Y54763D01*
X95708Y54691D01*
X95757Y54616D01*
X95802Y54540D01*
X95844Y54461D01*
X95882Y54381D01*
X95917Y54299D01*
X95948Y54215D01*
X95976Y54130D01*
X95999Y54044D01*
X96019Y53957D01*
X96035Y53870D01*
X96047Y53781D01*
X96055Y53693D01*
X96059Y53604D01*
X96059Y53514D01*
X96055Y53425D01*
X96047Y53337D01*
X96035Y53248D01*
X96019Y53161D01*
X95999Y53074D01*
X95976Y52988D01*
X95948Y52903D01*
X95917Y52819D01*
X95882Y52737D01*
X95844Y52657D01*
X95802Y52578D01*
X95757Y52502D01*
X95708Y52427D01*
X95656Y52355D01*
X95601Y52285D01*
X95542Y52217D01*
X95481Y52153D01*
X95417Y52091D01*
X95350Y52032D01*
X95281Y51976D01*
X95209Y51923D01*
X95135Y51873D01*
X95059Y51827D01*
X94981Y51784D01*
X94901Y51745D01*
X94819Y51709D01*
X94736Y51677D01*
X94652Y51649D01*
X94566Y51624D01*
X94479Y51604D01*
X94392Y51587D01*
X94303Y51574D01*
X94215Y51565D01*
X94126Y51560D01*
X94037Y51559D01*
X93948Y51562D01*
X93859Y51569D01*
X93770Y51580D01*
X93682Y51595D01*
X93595Y51613D01*
X93509Y51636D01*
X93424Y51662D01*
X93340Y51693D01*
X93258Y51727D01*
X93177Y51764D01*
X93098Y51805D01*
X93021Y51850D01*
X92946Y51898D01*
X92873Y51949D01*
X92802Y52003D01*
X92734Y52061D01*
X92669Y52121D01*
X92606Y52185D01*
X92546Y52251D01*
X92489Y52320D01*
X92436Y52391D01*
X92385Y52464D01*
X92338Y52540D01*
X92295Y52617D01*
X92254Y52697D01*
X92218Y52778D01*
X92185Y52861D01*
X92156Y52945D01*
X92130Y53031D01*
X92108Y53117D01*
X92091Y53204D01*
X92077Y53292D01*
X92067Y53381D01*
X92061Y53470D01*
X92059Y53559D01*
M02*
