G75*
%MOMM*%
%OFA0B0*%
%FSLAX33Y33*%
%IPPOS*%
%LPD*%
%AMOC8*
5,1,8,0,0,1.08239X$1,22.5*
%
%ADD10C,1.321*%
%ADD11OC8,1.600*%
%ADD12OC8,1.321*%
%ADD13C,1.981*%
%ADD14OC8,1.524*%
%ADD15C,1.524*%
%ADD16OC8,1.905*%
%ADD17C,1.321*%
%ADD18C,0.610*%
%ADD19C,0.254*%
%ADD20C,0.305*%
%ADD21C,1.006*%
%ADD22C,0.406*%
D10*
X21608Y12939D02*
X22929Y12939D01*
X22929Y15479D02*
X21608Y15479D01*
X21608Y18019D02*
X22929Y18019D01*
X22929Y20559D02*
X21608Y20559D01*
X21608Y23099D02*
X22929Y23099D01*
X22929Y25639D02*
X21608Y25639D01*
X21608Y28179D02*
X22929Y28179D01*
X29228Y28179D02*
X30549Y28179D01*
X30549Y25639D02*
X29228Y25639D01*
X29228Y23099D02*
X30549Y23099D01*
X30549Y20559D02*
X29228Y20559D01*
X29228Y18019D02*
X30549Y18019D01*
X30549Y15479D02*
X29228Y15479D01*
X29228Y12939D02*
X30549Y12939D01*
D11*
X49699Y20499D03*
X54779Y20499D03*
X67499Y20679D03*
X72579Y20679D03*
X77419Y20699D03*
X77479Y15779D03*
X72619Y15759D03*
X67539Y15759D03*
X67669Y10729D03*
X72749Y10729D03*
X77479Y10699D03*
X77419Y25779D03*
X72519Y25799D03*
X67439Y25799D03*
X67399Y32339D03*
X72479Y32339D03*
X77459Y32419D03*
X77459Y37499D03*
X72429Y37489D03*
X67349Y37489D03*
X67299Y42459D03*
X72379Y42459D03*
X77439Y42499D03*
X77439Y47579D03*
X72319Y47519D03*
X67239Y47519D03*
X53899Y35279D03*
X53899Y30199D03*
X38139Y28939D03*
X38139Y34019D03*
X29889Y49809D03*
X29889Y54889D03*
X06239Y54849D03*
X06239Y49769D03*
D12*
X23959Y52285D03*
X48109Y52285D03*
X32109Y34085D03*
X17849Y28169D03*
X17849Y20549D03*
X51785Y14759D03*
X59759Y28133D03*
X82399Y25759D03*
X82399Y20739D03*
X82469Y15769D03*
X90019Y20739D03*
X90089Y15769D03*
X90039Y10639D03*
X82419Y10639D03*
X90019Y25759D03*
X90019Y32479D03*
X90019Y37499D03*
X90019Y42519D03*
X90019Y47539D03*
X82399Y47539D03*
X82399Y42519D03*
X82399Y37499D03*
X82399Y32479D03*
D13*
X94168Y32470D02*
X96149Y32470D01*
X96149Y37500D02*
X94168Y37500D01*
X94168Y42478D02*
X96149Y42478D01*
X96149Y47507D02*
X94168Y47507D01*
X94168Y25677D02*
X96149Y25677D01*
X96149Y20648D02*
X94168Y20648D01*
X94168Y15670D02*
X96149Y15670D01*
X96149Y10640D02*
X94168Y10640D01*
D14*
X08479Y21849D03*
X05939Y21849D03*
X05939Y24389D03*
X05939Y26929D03*
X08479Y26929D03*
X08479Y24389D03*
X08479Y29469D03*
X05939Y29469D03*
D15*
X11789Y49517D02*
X11789Y51041D01*
X14329Y51041D02*
X14329Y49517D01*
X16869Y49517D02*
X16869Y51041D01*
X35789Y51041D02*
X35789Y49517D01*
X38329Y49517D02*
X38329Y51041D01*
X40869Y51041D02*
X40869Y49517D01*
D16*
X29994Y43649D03*
X26184Y43649D03*
X22374Y43649D03*
D17*
X23959Y50253D03*
X48109Y50253D03*
X32109Y32053D03*
X49753Y14759D03*
X59759Y30165D03*
D18*
X22269Y12939D02*
X19379Y12939D01*
X19302Y12941D01*
X19225Y12947D01*
X19149Y12957D01*
X19073Y12970D01*
X18998Y12988D01*
X18924Y13009D01*
X18851Y13034D01*
X18780Y13062D01*
X18710Y13094D01*
X18641Y13130D01*
X18575Y13169D01*
X18511Y13211D01*
X18449Y13257D01*
X18389Y13306D01*
X18332Y13357D01*
X18277Y13412D01*
X18226Y13469D01*
X18177Y13529D01*
X18131Y13591D01*
X18089Y13655D01*
X18050Y13721D01*
X18014Y13790D01*
X17982Y13860D01*
X17954Y13931D01*
X17929Y14004D01*
X17908Y14078D01*
X17890Y14153D01*
X17877Y14229D01*
X17867Y14305D01*
X17861Y14382D01*
X17859Y14459D01*
X17859Y20359D01*
X17861Y20376D01*
X17865Y20393D01*
X17872Y20409D01*
X17882Y20423D01*
X17895Y20436D01*
X17909Y20446D01*
X17925Y20453D01*
X17942Y20457D01*
X17959Y20459D01*
X17957Y20477D01*
X17952Y20493D01*
X17944Y20509D01*
X17933Y20523D01*
X17919Y20534D01*
X17903Y20542D01*
X17887Y20547D01*
X17869Y20549D01*
X17849Y20549D01*
X22269Y23099D02*
X22319Y23099D01*
X22329Y23098D01*
X22339Y23094D01*
X22347Y23087D01*
X22354Y23079D01*
X22358Y23069D01*
X22359Y23059D01*
X22361Y23076D01*
X22365Y23093D01*
X22372Y23109D01*
X22382Y23123D01*
X22395Y23136D01*
X22409Y23146D01*
X22425Y23153D01*
X22442Y23157D01*
X22459Y23159D01*
X25759Y23159D01*
X25826Y23157D01*
X25893Y23151D01*
X25960Y23142D01*
X26026Y23129D01*
X26091Y23112D01*
X26155Y23092D01*
X26218Y23068D01*
X26280Y23040D01*
X26339Y23009D01*
X26397Y22975D01*
X26453Y22938D01*
X26507Y22897D01*
X26559Y22854D01*
X26608Y22808D01*
X26654Y22759D01*
X26697Y22707D01*
X26738Y22653D01*
X26775Y22597D01*
X26809Y22539D01*
X26840Y22480D01*
X26868Y22418D01*
X26892Y22355D01*
X26912Y22291D01*
X26929Y22226D01*
X26942Y22160D01*
X26951Y22093D01*
X26957Y22026D01*
X26959Y21959D01*
X26959Y21759D01*
X26961Y21692D01*
X26967Y21625D01*
X26976Y21558D01*
X26989Y21492D01*
X27006Y21427D01*
X27026Y21363D01*
X27050Y21300D01*
X27078Y21238D01*
X27109Y21179D01*
X27143Y21121D01*
X27180Y21065D01*
X27221Y21011D01*
X27264Y20959D01*
X27310Y20910D01*
X27359Y20864D01*
X27411Y20821D01*
X27465Y20780D01*
X27521Y20743D01*
X27579Y20709D01*
X27638Y20678D01*
X27700Y20650D01*
X27763Y20626D01*
X27827Y20606D01*
X27892Y20589D01*
X27958Y20576D01*
X28025Y20567D01*
X28092Y20561D01*
X28159Y20559D01*
X26759Y20559D01*
X26695Y20557D01*
X26631Y20552D01*
X26568Y20542D01*
X26505Y20529D01*
X26444Y20513D01*
X26383Y20493D01*
X26323Y20469D01*
X26265Y20442D01*
X26209Y20412D01*
X26155Y20378D01*
X26102Y20341D01*
X26052Y20302D01*
X26004Y20259D01*
X25959Y20214D01*
X25916Y20166D01*
X25877Y20116D01*
X25840Y20063D01*
X25806Y20009D01*
X25776Y19953D01*
X25749Y19895D01*
X25725Y19835D01*
X25705Y19774D01*
X25689Y19713D01*
X25676Y19650D01*
X25666Y19587D01*
X25661Y19523D01*
X25659Y19459D01*
X25659Y15459D01*
X22359Y15459D01*
X22357Y15467D01*
X22353Y15473D01*
X22347Y15477D01*
X22339Y15479D01*
X22269Y15479D01*
X25659Y15459D02*
X25709Y15457D01*
X25759Y15452D01*
X25808Y15443D01*
X25856Y15431D01*
X25904Y15415D01*
X25950Y15396D01*
X25994Y15373D01*
X26037Y15348D01*
X26078Y15319D01*
X26117Y15288D01*
X26154Y15254D01*
X26188Y15217D01*
X26219Y15178D01*
X26248Y15137D01*
X26273Y15094D01*
X26296Y15050D01*
X26315Y15004D01*
X26331Y14956D01*
X26343Y14908D01*
X26352Y14859D01*
X26357Y14809D01*
X26359Y14759D01*
X26359Y14459D01*
X26361Y14382D01*
X26367Y14305D01*
X26377Y14229D01*
X26390Y14153D01*
X26408Y14078D01*
X26429Y14004D01*
X26454Y13931D01*
X26482Y13860D01*
X26514Y13790D01*
X26550Y13721D01*
X26589Y13655D01*
X26631Y13591D01*
X26677Y13529D01*
X26726Y13469D01*
X26777Y13412D01*
X26832Y13357D01*
X26889Y13306D01*
X26949Y13257D01*
X27011Y13211D01*
X27075Y13169D01*
X27141Y13130D01*
X27210Y13094D01*
X27280Y13062D01*
X27351Y13034D01*
X27424Y13009D01*
X27498Y12988D01*
X27573Y12970D01*
X27649Y12957D01*
X27725Y12947D01*
X27802Y12941D01*
X27879Y12939D01*
X29889Y12939D01*
X29889Y20559D02*
X28159Y20559D01*
X29889Y20559D02*
X32359Y20559D01*
X32426Y20561D01*
X32493Y20567D01*
X32560Y20576D01*
X32626Y20589D01*
X32691Y20606D01*
X32755Y20626D01*
X32818Y20650D01*
X32880Y20678D01*
X32939Y20709D01*
X32997Y20743D01*
X33053Y20780D01*
X33107Y20821D01*
X33159Y20864D01*
X33208Y20910D01*
X33254Y20959D01*
X33297Y21011D01*
X33338Y21065D01*
X33375Y21121D01*
X33409Y21179D01*
X33440Y21238D01*
X33468Y21300D01*
X33492Y21363D01*
X33512Y21427D01*
X33529Y21492D01*
X33542Y21558D01*
X33551Y21625D01*
X33557Y21692D01*
X33559Y21759D01*
X33559Y22459D01*
X33559Y24259D01*
X33559Y27059D01*
X33557Y27124D01*
X33551Y27189D01*
X33542Y27253D01*
X33529Y27317D01*
X33512Y27380D01*
X33491Y27442D01*
X33467Y27503D01*
X33440Y27562D01*
X33409Y27619D01*
X33375Y27674D01*
X33337Y27728D01*
X33297Y27779D01*
X33254Y27828D01*
X33208Y27874D01*
X33159Y27917D01*
X33108Y27957D01*
X33054Y27995D01*
X32999Y28029D01*
X32942Y28060D01*
X32883Y28087D01*
X32822Y28111D01*
X32760Y28132D01*
X32697Y28149D01*
X32633Y28162D01*
X32569Y28171D01*
X32504Y28177D01*
X32439Y28179D01*
X29889Y28179D01*
X27939Y28179D01*
X27857Y28181D01*
X27775Y28187D01*
X27693Y28196D01*
X27612Y28209D01*
X27531Y28226D01*
X27452Y28247D01*
X27373Y28271D01*
X27296Y28299D01*
X27220Y28331D01*
X27146Y28366D01*
X27073Y28404D01*
X27002Y28446D01*
X26933Y28491D01*
X26866Y28539D01*
X26802Y28590D01*
X26740Y28644D01*
X26680Y28700D01*
X26624Y28760D01*
X26570Y28822D01*
X26519Y28886D01*
X26471Y28953D01*
X26426Y29022D01*
X26384Y29093D01*
X26346Y29166D01*
X26311Y29240D01*
X26279Y29316D01*
X26251Y29393D01*
X26227Y29472D01*
X26206Y29551D01*
X26189Y29632D01*
X26176Y29713D01*
X26167Y29795D01*
X26161Y29877D01*
X26159Y29959D01*
X26159Y43759D01*
X26167Y43758D01*
X26174Y43754D01*
X26179Y43749D01*
X26183Y43742D01*
X26184Y43734D01*
X26184Y43649D01*
X26184Y51034D01*
X26182Y51106D01*
X26176Y51177D01*
X26167Y51248D01*
X26153Y51319D01*
X26136Y51388D01*
X26115Y51457D01*
X26090Y51524D01*
X26062Y51590D01*
X26030Y51655D01*
X25994Y51717D01*
X25956Y51778D01*
X25914Y51836D01*
X25869Y51892D01*
X25821Y51945D01*
X25770Y51996D01*
X25717Y52044D01*
X25661Y52089D01*
X25603Y52131D01*
X25542Y52169D01*
X25480Y52205D01*
X25415Y52237D01*
X25349Y52265D01*
X25282Y52290D01*
X25213Y52311D01*
X25144Y52328D01*
X25073Y52342D01*
X25002Y52351D01*
X24931Y52357D01*
X24859Y52359D01*
X24059Y52359D01*
X24058Y52345D01*
X24053Y52331D01*
X24047Y52318D01*
X24037Y52307D01*
X24026Y52297D01*
X24013Y52291D01*
X23999Y52286D01*
X23985Y52285D01*
X23959Y52285D01*
X23959Y52759D01*
X23957Y52803D01*
X23951Y52846D01*
X23942Y52888D01*
X23929Y52930D01*
X23912Y52970D01*
X23892Y53009D01*
X23869Y53046D01*
X23842Y53080D01*
X23813Y53113D01*
X23780Y53142D01*
X23746Y53169D01*
X23709Y53192D01*
X23670Y53212D01*
X23630Y53229D01*
X23588Y53242D01*
X23546Y53251D01*
X23503Y53257D01*
X23459Y53259D01*
X15459Y53259D01*
X15395Y53257D01*
X15331Y53252D01*
X15268Y53242D01*
X15205Y53229D01*
X15144Y53213D01*
X15083Y53193D01*
X15023Y53169D01*
X14965Y53142D01*
X14909Y53112D01*
X14855Y53078D01*
X14802Y53041D01*
X14752Y53002D01*
X14704Y52959D01*
X14659Y52914D01*
X14616Y52866D01*
X14577Y52816D01*
X14540Y52763D01*
X14506Y52709D01*
X14476Y52653D01*
X14449Y52595D01*
X14425Y52535D01*
X14405Y52474D01*
X14389Y52413D01*
X14376Y52350D01*
X14366Y52287D01*
X14361Y52223D01*
X14359Y52159D01*
X14359Y50459D01*
X14357Y50442D01*
X14353Y50425D01*
X14346Y50409D01*
X14336Y50395D01*
X14323Y50382D01*
X14309Y50372D01*
X14293Y50365D01*
X14276Y50361D01*
X14259Y50359D01*
X14275Y50357D01*
X14289Y50352D01*
X14303Y50344D01*
X14314Y50333D01*
X14322Y50319D01*
X14327Y50305D01*
X14329Y50289D01*
X14329Y50279D01*
X11859Y50259D02*
X11859Y45259D01*
X11857Y45180D01*
X11851Y45102D01*
X11842Y45024D01*
X11828Y44947D01*
X11811Y44870D01*
X11790Y44795D01*
X11765Y44720D01*
X11737Y44647D01*
X11705Y44575D01*
X11670Y44505D01*
X11631Y44436D01*
X11589Y44370D01*
X11544Y44306D01*
X11496Y44244D01*
X11445Y44185D01*
X11390Y44128D01*
X11333Y44073D01*
X11274Y44022D01*
X11212Y43974D01*
X11148Y43929D01*
X11082Y43887D01*
X11013Y43848D01*
X10943Y43813D01*
X10871Y43781D01*
X10798Y43753D01*
X10723Y43728D01*
X10648Y43707D01*
X10571Y43690D01*
X10494Y43676D01*
X10416Y43667D01*
X10338Y43661D01*
X10259Y43659D01*
X07859Y43659D01*
X07774Y43657D01*
X07689Y43651D01*
X07604Y43642D01*
X07520Y43628D01*
X07436Y43611D01*
X07354Y43591D01*
X07272Y43566D01*
X07191Y43538D01*
X07112Y43506D01*
X07035Y43471D01*
X06959Y43432D01*
X06884Y43390D01*
X06812Y43345D01*
X06742Y43296D01*
X06674Y43244D01*
X06609Y43190D01*
X06546Y43132D01*
X06486Y43072D01*
X06428Y43009D01*
X06374Y42944D01*
X06322Y42876D01*
X06273Y42806D01*
X06228Y42734D01*
X06186Y42659D01*
X06147Y42583D01*
X06112Y42506D01*
X06080Y42427D01*
X06052Y42346D01*
X06027Y42264D01*
X06007Y42182D01*
X05990Y42098D01*
X05976Y42014D01*
X05967Y41929D01*
X05961Y41844D01*
X05959Y41759D01*
X05959Y41659D01*
X05959Y29489D01*
X05957Y29481D01*
X05953Y29475D01*
X05947Y29471D01*
X05939Y29469D01*
X17849Y28169D02*
X22349Y28169D01*
X22354Y28168D01*
X22358Y28164D01*
X22359Y28159D01*
X22357Y28167D01*
X22353Y28173D01*
X22347Y28177D01*
X22339Y28179D01*
X22269Y28179D01*
X32109Y32053D02*
X39453Y32053D01*
X39527Y32055D01*
X39600Y32061D01*
X39673Y32070D01*
X39745Y32084D01*
X39817Y32101D01*
X39887Y32122D01*
X39957Y32146D01*
X40025Y32175D01*
X40091Y32206D01*
X40156Y32241D01*
X40219Y32280D01*
X40279Y32322D01*
X40338Y32366D01*
X40394Y32414D01*
X40447Y32465D01*
X40498Y32518D01*
X40546Y32574D01*
X40590Y32633D01*
X40632Y32693D01*
X40671Y32756D01*
X40706Y32821D01*
X40737Y32887D01*
X40766Y32955D01*
X40790Y33025D01*
X40811Y33095D01*
X40828Y33167D01*
X40842Y33239D01*
X40851Y33312D01*
X40857Y33385D01*
X40859Y33459D01*
X40859Y50259D01*
X40864Y50260D01*
X40868Y50264D01*
X40869Y50269D01*
X40869Y50279D01*
X48259Y50279D01*
X48259Y50253D01*
X48109Y50253D01*
X48259Y50253D02*
X48259Y50159D01*
X35789Y50279D02*
X35779Y50279D01*
X35771Y50277D01*
X35765Y50273D01*
X35761Y50267D01*
X35759Y50259D01*
X35759Y53259D01*
X35757Y53339D01*
X35751Y53419D01*
X35741Y53498D01*
X35728Y53577D01*
X35710Y53655D01*
X35689Y53732D01*
X35664Y53808D01*
X35635Y53883D01*
X35603Y53956D01*
X35567Y54027D01*
X35527Y54097D01*
X35484Y54165D01*
X35438Y54230D01*
X35389Y54293D01*
X35337Y54354D01*
X35282Y54412D01*
X35224Y54467D01*
X35163Y54519D01*
X35100Y54568D01*
X35035Y54614D01*
X34967Y54657D01*
X34897Y54697D01*
X34826Y54733D01*
X34753Y54765D01*
X34678Y54794D01*
X34602Y54819D01*
X34525Y54840D01*
X34447Y54858D01*
X34368Y54871D01*
X34289Y54881D01*
X34209Y54887D01*
X34129Y54889D01*
X29889Y54889D01*
X29929Y54889D01*
X29938Y54888D01*
X29947Y54883D01*
X29953Y54877D01*
X29958Y54868D01*
X29959Y54859D01*
X29957Y54876D01*
X29953Y54893D01*
X29946Y54909D01*
X29936Y54923D01*
X29923Y54936D01*
X29909Y54946D01*
X29893Y54953D01*
X29876Y54957D01*
X29859Y54959D01*
X14659Y54959D01*
X11759Y52659D02*
X11759Y50359D01*
X11768Y50358D01*
X11777Y50353D01*
X11783Y50347D01*
X11788Y50338D01*
X11789Y50329D01*
X11789Y50279D01*
X11789Y52089D01*
X11759Y52659D02*
X11757Y52750D01*
X11752Y52840D01*
X11742Y52930D01*
X11729Y53019D01*
X11712Y53108D01*
X11692Y53197D01*
X11668Y53284D01*
X11640Y53370D01*
X11609Y53455D01*
X11575Y53539D01*
X11536Y53621D01*
X11495Y53701D01*
X11450Y53780D01*
X11402Y53857D01*
X11351Y53932D01*
X11297Y54004D01*
X11240Y54074D01*
X11180Y54142D01*
X11118Y54208D01*
X11052Y54270D01*
X10984Y54330D01*
X10914Y54387D01*
X10842Y54441D01*
X10767Y54492D01*
X10690Y54540D01*
X10611Y54585D01*
X10531Y54626D01*
X10449Y54665D01*
X10365Y54699D01*
X10280Y54730D01*
X10194Y54758D01*
X10107Y54782D01*
X10018Y54802D01*
X09929Y54819D01*
X09840Y54832D01*
X09750Y54842D01*
X09660Y54847D01*
X09569Y54849D01*
X06239Y54849D01*
X11789Y50279D02*
X11839Y50279D01*
X11847Y50277D01*
X11853Y50273D01*
X11857Y50267D01*
X11859Y50259D01*
X11789Y52089D02*
X11791Y52194D01*
X11797Y52298D01*
X11806Y52403D01*
X11820Y52507D01*
X11837Y52610D01*
X11858Y52713D01*
X11882Y52815D01*
X11911Y52916D01*
X11943Y53016D01*
X11978Y53114D01*
X12018Y53211D01*
X12060Y53307D01*
X12107Y53401D01*
X12156Y53494D01*
X12209Y53584D01*
X12265Y53673D01*
X12325Y53759D01*
X12387Y53843D01*
X12453Y53925D01*
X12522Y54004D01*
X12593Y54081D01*
X12667Y54155D01*
X12744Y54226D01*
X12823Y54295D01*
X12905Y54361D01*
X12989Y54423D01*
X13075Y54483D01*
X13164Y54539D01*
X13254Y54592D01*
X13347Y54641D01*
X13441Y54688D01*
X13537Y54730D01*
X13634Y54770D01*
X13732Y54805D01*
X13832Y54837D01*
X13933Y54866D01*
X14035Y54890D01*
X14138Y54911D01*
X14241Y54928D01*
X14345Y54942D01*
X14450Y54951D01*
X14554Y54957D01*
X14659Y54959D01*
X16869Y50279D02*
X23959Y50279D01*
X23959Y50253D01*
X33559Y24259D02*
X33561Y24195D01*
X33566Y24131D01*
X33576Y24068D01*
X33589Y24005D01*
X33605Y23944D01*
X33625Y23883D01*
X33649Y23823D01*
X33676Y23765D01*
X33706Y23709D01*
X33740Y23655D01*
X33777Y23602D01*
X33816Y23552D01*
X33859Y23504D01*
X33904Y23459D01*
X33952Y23416D01*
X34002Y23377D01*
X34055Y23340D01*
X34109Y23306D01*
X34165Y23276D01*
X34223Y23249D01*
X34283Y23225D01*
X34344Y23205D01*
X34405Y23189D01*
X34468Y23176D01*
X34531Y23166D01*
X34595Y23161D01*
X34659Y23159D01*
X35459Y23159D01*
X34459Y23159D01*
X34259Y23159D01*
X34209Y23157D01*
X34159Y23152D01*
X34110Y23143D01*
X34062Y23131D01*
X34014Y23115D01*
X33968Y23096D01*
X33924Y23073D01*
X33881Y23048D01*
X33840Y23019D01*
X33801Y22988D01*
X33764Y22954D01*
X33730Y22917D01*
X33699Y22878D01*
X33670Y22837D01*
X33645Y22794D01*
X33622Y22750D01*
X33603Y22704D01*
X33587Y22656D01*
X33575Y22608D01*
X33566Y22559D01*
X33561Y22509D01*
X33559Y22459D01*
X35459Y23159D02*
X53559Y23159D01*
X53626Y23157D01*
X53693Y23151D01*
X53760Y23142D01*
X53826Y23129D01*
X53891Y23112D01*
X53955Y23092D01*
X54018Y23068D01*
X54080Y23040D01*
X54139Y23009D01*
X54197Y22975D01*
X54253Y22938D01*
X54307Y22897D01*
X54359Y22854D01*
X54408Y22808D01*
X54454Y22759D01*
X54497Y22707D01*
X54538Y22653D01*
X54575Y22597D01*
X54609Y22539D01*
X54640Y22480D01*
X54668Y22418D01*
X54692Y22355D01*
X54712Y22291D01*
X54729Y22226D01*
X54742Y22160D01*
X54751Y22093D01*
X54757Y22026D01*
X54759Y21959D01*
X54759Y20559D01*
X54767Y20557D01*
X54773Y20553D01*
X54777Y20547D01*
X54779Y20539D01*
X54779Y20499D01*
X54779Y20479D01*
X54777Y20471D01*
X54773Y20465D01*
X54767Y20461D01*
X54759Y20459D01*
X54776Y20457D01*
X54793Y20453D01*
X54809Y20446D01*
X54823Y20436D01*
X54836Y20423D01*
X54846Y20409D01*
X54853Y20393D01*
X54857Y20376D01*
X54859Y20359D01*
X54859Y15859D01*
X54857Y15795D01*
X54852Y15731D01*
X54842Y15668D01*
X54829Y15605D01*
X54813Y15544D01*
X54793Y15483D01*
X54769Y15423D01*
X54742Y15365D01*
X54712Y15309D01*
X54678Y15255D01*
X54641Y15202D01*
X54602Y15152D01*
X54559Y15104D01*
X54514Y15059D01*
X54466Y15016D01*
X54416Y14977D01*
X54363Y14940D01*
X54309Y14906D01*
X54253Y14876D01*
X54195Y14849D01*
X54135Y14825D01*
X54074Y14805D01*
X54013Y14789D01*
X53950Y14776D01*
X53887Y14766D01*
X53823Y14761D01*
X53759Y14759D01*
X51785Y14759D01*
X72359Y15659D02*
X72361Y15676D01*
X72365Y15693D01*
X72372Y15709D01*
X72382Y15723D01*
X72395Y15736D01*
X72409Y15746D01*
X72425Y15753D01*
X72442Y15757D01*
X72459Y15759D01*
X72619Y15759D01*
X72479Y15779D02*
X77479Y15779D01*
X82439Y15779D01*
X82447Y15777D01*
X82453Y15773D01*
X82457Y15767D01*
X82459Y15759D01*
X82460Y15764D01*
X82464Y15768D01*
X82469Y15769D01*
X82469Y15769D01*
X82359Y20659D02*
X82358Y20669D01*
X82354Y20679D01*
X82347Y20687D01*
X82339Y20694D01*
X82329Y20698D01*
X82319Y20699D01*
X77419Y20699D01*
X77417Y20712D01*
X77413Y20725D01*
X77406Y20736D01*
X77396Y20746D01*
X77385Y20753D01*
X77372Y20757D01*
X77359Y20759D01*
X77357Y20743D01*
X77353Y20728D01*
X77346Y20715D01*
X77336Y20702D01*
X77323Y20692D01*
X77310Y20685D01*
X77295Y20681D01*
X77279Y20679D01*
X72579Y20679D01*
X72479Y15779D02*
X72458Y15777D01*
X72438Y15772D01*
X72419Y15763D01*
X72402Y15751D01*
X72387Y15736D01*
X72375Y15719D01*
X72366Y15700D01*
X72361Y15680D01*
X72359Y15659D01*
X72659Y10859D02*
X72661Y10836D01*
X72665Y10814D01*
X72673Y10793D01*
X72684Y10772D01*
X72698Y10754D01*
X72714Y10738D01*
X72732Y10724D01*
X72753Y10713D01*
X72774Y10705D01*
X72796Y10701D01*
X72819Y10699D01*
X77479Y10699D01*
X82419Y10699D01*
X82429Y10698D01*
X82439Y10694D01*
X82447Y10687D01*
X82454Y10679D01*
X82458Y10669D01*
X82459Y10659D01*
X82457Y10651D01*
X82453Y10645D01*
X82447Y10641D01*
X82439Y10639D01*
X82419Y10639D01*
X90039Y10639D02*
X94879Y10639D01*
X94905Y10637D01*
X94930Y10632D01*
X94954Y10623D01*
X94976Y10610D01*
X94997Y10595D01*
X95015Y10577D01*
X95030Y10556D01*
X95043Y10534D01*
X95052Y10510D01*
X95057Y10485D01*
X95059Y10459D01*
X95076Y10461D01*
X95093Y10465D01*
X95109Y10472D01*
X95123Y10482D01*
X95136Y10495D01*
X95146Y10509D01*
X95153Y10525D01*
X95157Y10542D01*
X95159Y10559D01*
X95159Y10640D01*
X95170Y15670D02*
X95159Y15670D01*
X95170Y15670D02*
X95187Y15672D01*
X95204Y15677D01*
X95219Y15685D01*
X95233Y15696D01*
X95244Y15710D01*
X95252Y15725D01*
X95257Y15742D01*
X95259Y15759D01*
X95258Y15764D01*
X95254Y15768D01*
X95249Y15769D01*
X90089Y15769D01*
X90019Y20739D02*
X95279Y20739D01*
X95295Y20737D01*
X95310Y20733D01*
X95323Y20726D01*
X95336Y20716D01*
X95346Y20703D01*
X95353Y20690D01*
X95357Y20675D01*
X95359Y20659D01*
X95358Y20654D01*
X95354Y20649D01*
X95348Y20648D01*
X95159Y20648D01*
X95140Y25677D02*
X95159Y25677D01*
X95140Y25677D02*
X95124Y25679D01*
X95109Y25683D01*
X95094Y25691D01*
X95082Y25701D01*
X95072Y25713D01*
X95064Y25728D01*
X95060Y25743D01*
X95058Y25759D01*
X95059Y25759D02*
X90019Y25759D01*
X82399Y25819D02*
X82399Y25759D01*
X82399Y25819D02*
X82398Y25829D01*
X82394Y25839D01*
X82387Y25847D01*
X82379Y25854D01*
X82369Y25858D01*
X82359Y25859D01*
X82357Y25843D01*
X82353Y25828D01*
X82346Y25815D01*
X82336Y25802D01*
X82323Y25792D01*
X82310Y25785D01*
X82295Y25781D01*
X82279Y25779D01*
X77419Y25779D01*
X72639Y25779D01*
X72623Y25781D01*
X72608Y25785D01*
X72595Y25792D01*
X72582Y25802D01*
X72572Y25815D01*
X72565Y25828D01*
X72561Y25843D01*
X72559Y25859D01*
X72549Y25858D01*
X72539Y25854D01*
X72531Y25847D01*
X72524Y25839D01*
X72520Y25829D01*
X72519Y25819D01*
X72519Y25799D01*
X72479Y32339D02*
X72479Y32359D01*
X77459Y32359D01*
X77459Y32419D01*
X82419Y32419D01*
X82429Y32420D01*
X82439Y32424D01*
X82447Y32431D01*
X82454Y32439D01*
X82458Y32449D01*
X82459Y32459D01*
X82457Y32467D01*
X82453Y32473D01*
X82447Y32477D01*
X82439Y32479D01*
X82399Y32479D01*
X82459Y37459D02*
X82458Y37469D01*
X82454Y37479D01*
X82447Y37487D01*
X82439Y37494D01*
X82429Y37498D01*
X82419Y37499D01*
X77459Y37499D01*
X77459Y37659D01*
X72429Y37659D01*
X72429Y37489D01*
X72379Y42459D02*
X77439Y42459D01*
X77439Y42499D01*
X82219Y42499D01*
X82229Y42498D01*
X82239Y42494D01*
X82247Y42487D01*
X82254Y42479D01*
X82258Y42469D01*
X82259Y42459D01*
X82261Y42472D01*
X82265Y42485D01*
X82272Y42496D01*
X82282Y42506D01*
X82293Y42513D01*
X82306Y42517D01*
X82319Y42519D01*
X82399Y42519D01*
X82159Y47459D02*
X82161Y47475D01*
X82165Y47490D01*
X82172Y47503D01*
X82182Y47516D01*
X82195Y47526D01*
X82208Y47533D01*
X82223Y47537D01*
X82239Y47539D01*
X82399Y47539D01*
X82039Y47579D02*
X77439Y47579D01*
X77439Y47659D01*
X72319Y47659D01*
X72319Y47519D01*
X72359Y42459D02*
X72259Y42459D01*
X72359Y42459D02*
X72379Y42459D01*
X82039Y47579D02*
X82060Y47577D01*
X82080Y47572D01*
X82099Y47563D01*
X82116Y47551D01*
X82131Y47536D01*
X82143Y47519D01*
X82152Y47500D01*
X82157Y47480D01*
X82159Y47459D01*
X90019Y47539D02*
X95179Y47539D01*
X95159Y47507D02*
X95210Y47507D01*
X95222Y47505D01*
X95234Y47501D01*
X95244Y47493D01*
X95252Y47483D01*
X95256Y47471D01*
X95258Y47459D01*
X95259Y47459D02*
X95257Y47475D01*
X95253Y47490D01*
X95246Y47503D01*
X95236Y47516D01*
X95223Y47526D01*
X95210Y47533D01*
X95195Y47537D01*
X95179Y47539D01*
X94999Y42519D02*
X90019Y42519D01*
X94999Y42519D02*
X95012Y42517D01*
X95025Y42513D01*
X95036Y42506D01*
X95046Y42496D01*
X95053Y42485D01*
X95057Y42472D01*
X95059Y42459D01*
X95060Y42466D01*
X95065Y42472D01*
X95071Y42477D01*
X95078Y42478D01*
X95159Y42478D01*
X95159Y37500D02*
X95159Y37459D01*
X95158Y37469D01*
X95154Y37479D01*
X95147Y37487D01*
X95139Y37494D01*
X95129Y37498D01*
X95119Y37499D01*
X90019Y37499D01*
X90019Y32479D02*
X95139Y32479D01*
X95159Y32470D02*
X95159Y32459D01*
X95161Y32442D01*
X95165Y32425D01*
X95172Y32409D01*
X95182Y32395D01*
X95195Y32382D01*
X95209Y32372D01*
X95225Y32365D01*
X95242Y32361D01*
X95259Y32359D01*
X95257Y32380D01*
X95252Y32400D01*
X95243Y32419D01*
X95231Y32436D01*
X95216Y32451D01*
X95199Y32463D01*
X95180Y32472D01*
X95160Y32477D01*
X95139Y32479D01*
X82459Y37459D02*
X82458Y37469D01*
X82454Y37479D01*
X82447Y37487D01*
X82439Y37494D01*
X82429Y37498D01*
X82419Y37499D01*
X82399Y37499D01*
X82399Y20739D02*
X82399Y20699D01*
X82398Y20689D01*
X82394Y20679D01*
X82387Y20671D01*
X82379Y20664D01*
X82369Y20660D01*
X82359Y20659D01*
X72749Y10769D02*
X72749Y10729D01*
X72749Y10769D02*
X72747Y10787D01*
X72742Y10803D01*
X72734Y10819D01*
X72723Y10833D01*
X72709Y10844D01*
X72693Y10852D01*
X72677Y10857D01*
X72659Y10859D01*
D19*
X71553Y11994D02*
X31867Y11994D01*
X31906Y12032D02*
X32149Y12620D01*
X32149Y13257D01*
X31906Y13845D01*
X31542Y14209D01*
X31906Y14572D01*
X32149Y15160D01*
X32149Y15797D01*
X31906Y16385D01*
X31542Y16749D01*
X31906Y17112D01*
X32149Y17700D01*
X32149Y18337D01*
X31906Y18925D01*
X31542Y19289D01*
X31568Y19314D01*
X32746Y19314D01*
X33482Y19553D01*
X34109Y20009D01*
X34564Y20635D01*
X34803Y21372D01*
X34803Y21914D01*
X48654Y21914D01*
X47959Y21219D01*
X47959Y19778D01*
X48978Y18759D01*
X50419Y18759D01*
X51439Y19778D01*
X51439Y21219D01*
X50744Y21914D01*
X53514Y21914D01*
X53514Y21695D01*
X53039Y21219D01*
X53039Y19778D01*
X53614Y19203D01*
X53614Y16003D01*
X52803Y16003D01*
X52448Y16359D01*
X51122Y16359D01*
X50769Y16006D01*
X50659Y16115D01*
X50071Y16359D01*
X49434Y16359D01*
X48846Y16115D01*
X48396Y15665D01*
X48153Y15077D01*
X48153Y14440D01*
X48396Y13852D01*
X48846Y13402D01*
X49434Y13159D01*
X50071Y13159D01*
X50659Y13402D01*
X50769Y13512D01*
X51122Y13159D01*
X52448Y13159D01*
X52803Y13514D01*
X54130Y13514D01*
X54836Y13744D01*
X55437Y14180D01*
X55874Y14781D01*
X56103Y15487D01*
X56103Y19363D01*
X56519Y19778D01*
X56519Y21219D01*
X56003Y21735D01*
X56003Y22346D01*
X55764Y23082D01*
X55764Y23082D01*
X55309Y23709D01*
X55309Y23709D01*
X55309Y23709D01*
X54682Y24164D01*
X53946Y24403D01*
X34803Y24403D01*
X34803Y27433D01*
X34572Y28146D01*
X34132Y28752D01*
X34132Y28752D01*
X34132Y28752D01*
X33526Y29192D01*
X33526Y29192D01*
X32813Y29423D01*
X31568Y29423D01*
X31456Y29535D01*
X30867Y29779D01*
X29131Y29779D01*
X29041Y42715D01*
X29441Y42315D01*
X29918Y42315D01*
X29918Y43573D01*
X30070Y43573D01*
X30070Y43725D01*
X29918Y43725D01*
X29918Y44982D01*
X29441Y44982D01*
X29029Y44569D01*
X28998Y49030D01*
X29400Y48628D01*
X29813Y48628D01*
X29813Y49733D01*
X29965Y49733D01*
X29965Y49885D01*
X29813Y49885D01*
X29813Y50990D01*
X29400Y50990D01*
X28987Y50577D01*
X28968Y53349D01*
X29168Y53149D01*
X30609Y53149D01*
X31105Y53644D01*
X34129Y53644D01*
X34189Y53639D01*
X34304Y53602D01*
X34401Y53531D01*
X34472Y53434D01*
X34509Y53319D01*
X34514Y53259D01*
X34514Y52173D01*
X34346Y52005D01*
X34087Y51379D01*
X34087Y49178D01*
X34346Y48553D01*
X34825Y48074D01*
X35450Y47815D01*
X36127Y47815D01*
X36753Y48074D01*
X37232Y48553D01*
X37371Y48890D01*
X37457Y48772D01*
X37584Y48645D01*
X37730Y48539D01*
X37890Y48458D01*
X38061Y48402D01*
X38202Y48380D01*
X38202Y50152D01*
X38456Y50152D01*
X38456Y48380D01*
X38596Y48402D01*
X38768Y48458D01*
X38928Y48539D01*
X39073Y48645D01*
X39201Y48772D01*
X39286Y48890D01*
X39426Y48553D01*
X39614Y48365D01*
X39614Y33459D01*
X39612Y33434D01*
X39597Y33386D01*
X39567Y33345D01*
X39526Y33315D01*
X39478Y33299D01*
X39453Y33297D01*
X39088Y33297D01*
X39320Y33530D01*
X39320Y33943D01*
X38215Y33943D01*
X38215Y34095D01*
X38063Y34095D01*
X38063Y35200D01*
X37650Y35200D01*
X36958Y34508D01*
X36958Y34095D01*
X38063Y34095D01*
X38063Y33943D01*
X36958Y33943D01*
X36958Y33530D01*
X37190Y33297D01*
X33127Y33297D01*
X33015Y33409D01*
X32938Y33441D01*
X33150Y33653D01*
X33150Y34009D01*
X32185Y34009D01*
X32185Y34161D01*
X32033Y34161D01*
X32033Y35126D01*
X31677Y35126D01*
X31067Y34516D01*
X31067Y34161D01*
X32033Y34161D01*
X32033Y34009D01*
X31067Y34009D01*
X31067Y33653D01*
X31280Y33441D01*
X31202Y33409D01*
X30752Y32959D01*
X30509Y32371D01*
X30509Y31734D01*
X30752Y31146D01*
X31202Y30696D01*
X31790Y30453D01*
X32427Y30453D01*
X33015Y30696D01*
X33127Y30808D01*
X39873Y30808D01*
X40671Y31068D01*
X41350Y31561D01*
X41350Y31561D01*
X41350Y31561D01*
X41844Y32240D01*
X41844Y32240D01*
X42103Y33039D01*
X42103Y48345D01*
X42312Y48553D01*
X42511Y49034D01*
X47064Y49034D01*
X47202Y48896D01*
X47790Y48653D01*
X48427Y48653D01*
X49015Y48896D01*
X49465Y49346D01*
X49709Y49934D01*
X49709Y50571D01*
X49465Y51159D01*
X49015Y51609D01*
X48938Y51641D01*
X49150Y51853D01*
X49150Y52209D01*
X48185Y52209D01*
X48185Y52361D01*
X48033Y52361D01*
X48033Y53326D01*
X47677Y53326D01*
X47067Y52716D01*
X47067Y52361D01*
X48033Y52361D01*
X48033Y52209D01*
X47067Y52209D01*
X47067Y51853D01*
X47280Y51641D01*
X47202Y51609D01*
X47116Y51523D01*
X42511Y51523D01*
X42312Y52005D01*
X41833Y52484D01*
X41207Y52743D01*
X40530Y52743D01*
X39905Y52484D01*
X39426Y52005D01*
X39286Y51667D01*
X39201Y51785D01*
X39073Y51913D01*
X38928Y52018D01*
X38768Y52100D01*
X38596Y52156D01*
X38456Y52178D01*
X38456Y50406D01*
X38202Y50406D01*
X38202Y52178D01*
X38061Y52156D01*
X37890Y52100D01*
X37730Y52018D01*
X37584Y51913D01*
X37457Y51785D01*
X37371Y51667D01*
X37232Y52005D01*
X37003Y52233D01*
X37003Y53714D01*
X36722Y54580D01*
X36722Y54580D01*
X36187Y55317D01*
X36187Y55317D01*
X36187Y55317D01*
X35450Y55852D01*
X34584Y56133D01*
X31105Y56133D01*
X30609Y56629D01*
X29168Y56629D01*
X28947Y56407D01*
X28859Y69109D01*
X29610Y69111D01*
X34919Y69111D01*
X34223Y68415D01*
X33548Y67245D01*
X33198Y65940D01*
X33198Y64589D01*
X33548Y63284D01*
X34223Y62114D01*
X35178Y61159D01*
X36348Y60484D01*
X37653Y60134D01*
X39004Y60134D01*
X40309Y60484D01*
X41479Y61159D01*
X42434Y62114D01*
X43110Y63284D01*
X43460Y64589D01*
X43460Y65940D01*
X43110Y67245D01*
X42434Y68415D01*
X41739Y69111D01*
X97059Y69111D01*
X97105Y49201D01*
X96533Y49438D01*
X93784Y49438D01*
X93075Y49144D01*
X92714Y48783D01*
X91037Y48783D01*
X90682Y49139D01*
X89356Y49139D01*
X88419Y48202D01*
X88419Y46876D01*
X89356Y45939D01*
X90682Y45939D01*
X91037Y46294D01*
X92651Y46294D01*
X93075Y45871D01*
X93784Y45577D01*
X96533Y45577D01*
X97113Y45817D01*
X97117Y44167D01*
X96533Y44408D01*
X93784Y44408D01*
X93075Y44115D01*
X92724Y43763D01*
X91037Y43763D01*
X90682Y44119D01*
X89356Y44119D01*
X88419Y43182D01*
X88419Y41856D01*
X89356Y40919D01*
X90682Y40919D01*
X91037Y41274D01*
X92642Y41274D01*
X93075Y40841D01*
X93784Y40548D01*
X96533Y40548D01*
X97124Y40792D01*
X97128Y39184D01*
X96533Y39430D01*
X93784Y39430D01*
X93075Y39136D01*
X92682Y38743D01*
X91037Y38743D01*
X90682Y39099D01*
X89356Y39099D01*
X88419Y38162D01*
X88419Y36836D01*
X89356Y35899D01*
X90682Y35899D01*
X91037Y36254D01*
X92684Y36254D01*
X93075Y35863D01*
X93784Y35569D01*
X96533Y35569D01*
X97136Y35819D01*
X97140Y34150D01*
X96533Y34401D01*
X93784Y34401D01*
X93075Y34107D01*
X92691Y33723D01*
X91037Y33723D01*
X90682Y34079D01*
X89356Y34079D01*
X88419Y33142D01*
X88419Y31816D01*
X89356Y30879D01*
X90682Y30879D01*
X91037Y31234D01*
X92674Y31234D01*
X93075Y30834D01*
X93784Y30540D01*
X96533Y30540D01*
X97147Y30794D01*
X97155Y27350D01*
X96533Y27608D01*
X93784Y27608D01*
X93075Y27314D01*
X92764Y27003D01*
X91037Y27003D01*
X90682Y27359D01*
X89356Y27359D01*
X88419Y26422D01*
X88419Y25096D01*
X89356Y24159D01*
X90682Y24159D01*
X91037Y24514D01*
X92601Y24514D01*
X93075Y24041D01*
X93784Y23747D01*
X96533Y23747D01*
X97163Y24008D01*
X97167Y22316D01*
X96533Y22578D01*
X93784Y22578D01*
X93075Y22285D01*
X92774Y21983D01*
X91037Y21983D01*
X90682Y22339D01*
X89356Y22339D01*
X88419Y21402D01*
X88419Y20076D01*
X89356Y19139D01*
X90682Y19139D01*
X91037Y19494D01*
X92592Y19494D01*
X93075Y19011D01*
X93784Y18718D01*
X96533Y18718D01*
X97174Y18983D01*
X97178Y17333D01*
X96533Y17600D01*
X93784Y17600D01*
X93075Y17306D01*
X92782Y17013D01*
X91107Y17013D01*
X90752Y17369D01*
X89426Y17369D01*
X88489Y16432D01*
X88489Y15106D01*
X89426Y14169D01*
X90752Y14169D01*
X91107Y14524D01*
X92584Y14524D01*
X93075Y14033D01*
X93784Y13739D01*
X96533Y13739D01*
X97186Y14009D01*
X97190Y12299D01*
X96533Y12571D01*
X93784Y12571D01*
X93075Y12277D01*
X92681Y11883D01*
X91057Y11883D01*
X90702Y12239D01*
X89376Y12239D01*
X88439Y11302D01*
X88439Y09976D01*
X89376Y09039D01*
X90702Y09039D01*
X91057Y09394D01*
X92684Y09394D01*
X93075Y09004D01*
X93784Y08710D01*
X96533Y08710D01*
X97197Y08985D01*
X97209Y04059D01*
X29309Y04059D01*
X29258Y11339D01*
X30867Y11339D01*
X31456Y11582D01*
X31906Y12032D01*
X31994Y12246D02*
X71806Y12246D01*
X72028Y12469D02*
X71009Y11449D01*
X71009Y10008D01*
X72028Y08989D01*
X73469Y08989D01*
X73935Y09454D01*
X76263Y09454D01*
X76758Y08959D01*
X78199Y08959D01*
X78695Y09454D01*
X81340Y09454D01*
X81756Y09039D01*
X83082Y09039D01*
X84019Y09976D01*
X84019Y11302D01*
X83082Y12239D01*
X81756Y12239D01*
X81460Y11943D01*
X78695Y11943D01*
X78199Y12439D01*
X76758Y12439D01*
X76263Y11943D01*
X73995Y11943D01*
X73469Y12469D01*
X72028Y12469D01*
X71301Y11741D02*
X68327Y11741D01*
X68158Y11910D02*
X68850Y11218D01*
X68850Y10805D01*
X67745Y10805D01*
X67745Y10653D01*
X68850Y10653D01*
X68850Y10240D01*
X68158Y09548D01*
X67745Y09548D01*
X67745Y10653D01*
X67593Y10653D01*
X67593Y09548D01*
X67180Y09548D01*
X66488Y10240D01*
X66488Y10653D01*
X67593Y10653D01*
X67593Y10805D01*
X67593Y11910D01*
X67180Y11910D01*
X66488Y11218D01*
X66488Y10805D01*
X67593Y10805D01*
X67745Y10805D01*
X67745Y11910D01*
X68158Y11910D01*
X67745Y11741D02*
X67593Y11741D01*
X67593Y11489D02*
X67745Y11489D01*
X67745Y11236D02*
X67593Y11236D01*
X67593Y10984D02*
X67745Y10984D01*
X67745Y10731D02*
X71009Y10731D01*
X71009Y10479D02*
X68850Y10479D01*
X68837Y10226D02*
X71009Y10226D01*
X71043Y09974D02*
X68584Y09974D01*
X68332Y09721D02*
X71296Y09721D01*
X71548Y09469D02*
X29271Y09469D01*
X29270Y09721D02*
X67006Y09721D01*
X66753Y09974D02*
X29268Y09974D01*
X29266Y10226D02*
X66501Y10226D01*
X66488Y10479D02*
X29264Y10479D01*
X29263Y10731D02*
X67593Y10731D01*
X67593Y10479D02*
X67745Y10479D01*
X67745Y10226D02*
X67593Y10226D01*
X67593Y09974D02*
X67745Y09974D01*
X67745Y09721D02*
X67593Y09721D01*
X66488Y10984D02*
X29261Y10984D01*
X29259Y11236D02*
X66506Y11236D01*
X66758Y11489D02*
X31230Y11489D01*
X31615Y11741D02*
X67011Y11741D01*
X68579Y11489D02*
X71048Y11489D01*
X71009Y11236D02*
X68832Y11236D01*
X68850Y10984D02*
X71009Y10984D01*
X71801Y09216D02*
X29273Y09216D01*
X29275Y08964D02*
X76753Y08964D01*
X76501Y09216D02*
X73697Y09216D01*
X73944Y11994D02*
X76313Y11994D01*
X76566Y12246D02*
X73692Y12246D01*
X73339Y14019D02*
X71898Y14019D01*
X70879Y15038D01*
X70879Y16479D01*
X71898Y17499D01*
X73339Y17499D01*
X73815Y17023D01*
X76263Y17023D01*
X76758Y17519D01*
X78199Y17519D01*
X78695Y17023D01*
X81460Y17023D01*
X81806Y17369D01*
X83132Y17369D01*
X84069Y16432D01*
X84069Y15106D01*
X83132Y14169D01*
X81806Y14169D01*
X81440Y14534D01*
X78695Y14534D01*
X78199Y14039D01*
X76758Y14039D01*
X76263Y14534D01*
X73855Y14534D01*
X73339Y14019D01*
X73587Y14266D02*
X76531Y14266D01*
X76278Y14519D02*
X73839Y14519D01*
X71651Y14266D02*
X55500Y14266D01*
X55437Y14180D02*
X55437Y14180D01*
X55208Y14014D02*
X93121Y14014D01*
X92841Y14266D02*
X90849Y14266D01*
X91102Y14519D02*
X92589Y14519D01*
X93731Y13761D02*
X54861Y13761D01*
X54836Y13744D02*
X54836Y13744D01*
X55683Y14519D02*
X71398Y14519D01*
X71146Y14771D02*
X68222Y14771D01*
X68028Y14578D02*
X68720Y15270D01*
X68720Y15683D01*
X67615Y15683D01*
X67615Y15835D01*
X68720Y15835D01*
X68720Y16248D01*
X68028Y16940D01*
X67615Y16940D01*
X67615Y15835D01*
X67463Y15835D01*
X67463Y16940D01*
X67050Y16940D01*
X66358Y16248D01*
X66358Y15835D01*
X67463Y15835D01*
X67463Y15683D01*
X67615Y15683D01*
X67615Y14578D01*
X68028Y14578D01*
X67615Y14771D02*
X67463Y14771D01*
X67463Y14578D02*
X67463Y15683D01*
X66358Y15683D01*
X66358Y15270D01*
X67050Y14578D01*
X67463Y14578D01*
X67463Y15024D02*
X67615Y15024D01*
X67615Y15276D02*
X67463Y15276D01*
X67463Y15529D02*
X67615Y15529D01*
X67615Y15781D02*
X70879Y15781D01*
X70879Y15529D02*
X68720Y15529D01*
X68720Y15276D02*
X70879Y15276D01*
X70893Y15024D02*
X68474Y15024D01*
X68720Y16034D02*
X70879Y16034D01*
X70879Y16286D02*
X68682Y16286D01*
X68429Y16539D02*
X70938Y16539D01*
X71191Y16791D02*
X68177Y16791D01*
X67615Y16791D02*
X67463Y16791D01*
X67463Y16539D02*
X67615Y16539D01*
X67615Y16286D02*
X67463Y16286D01*
X67463Y16034D02*
X67615Y16034D01*
X67463Y15781D02*
X56103Y15781D01*
X56103Y15529D02*
X66358Y15529D01*
X66358Y15276D02*
X56035Y15276D01*
X55953Y15024D02*
X66603Y15024D01*
X66856Y14771D02*
X55867Y14771D01*
X56103Y16034D02*
X66358Y16034D01*
X66396Y16286D02*
X56103Y16286D01*
X56103Y16539D02*
X66648Y16539D01*
X66901Y16791D02*
X56103Y16791D01*
X56103Y17044D02*
X71443Y17044D01*
X71696Y17296D02*
X56103Y17296D01*
X56103Y17549D02*
X93661Y17549D01*
X93065Y17296D02*
X90824Y17296D01*
X91077Y17044D02*
X92812Y17044D01*
X93558Y18811D02*
X56103Y18811D01*
X56103Y18559D02*
X97175Y18559D01*
X97175Y18811D02*
X96760Y18811D01*
X97176Y18306D02*
X56103Y18306D01*
X56103Y18054D02*
X97177Y18054D01*
X97177Y17801D02*
X56103Y17801D01*
X56103Y19064D02*
X71733Y19064D01*
X71858Y18939D02*
X73299Y18939D01*
X73795Y19434D01*
X76223Y19434D01*
X76698Y18959D01*
X78139Y18959D01*
X78635Y19454D01*
X81420Y19454D01*
X81736Y19139D01*
X83062Y19139D01*
X83999Y20076D01*
X83999Y21402D01*
X83062Y22339D01*
X81736Y22339D01*
X81340Y21943D01*
X78635Y21943D01*
X78139Y22439D01*
X76698Y22439D01*
X76183Y21923D01*
X73795Y21923D01*
X73651Y22067D01*
X73651Y22675D01*
X73332Y23444D01*
X72744Y24032D01*
X72680Y24059D01*
X73239Y24059D01*
X73715Y24534D01*
X76203Y24534D01*
X76698Y24039D01*
X78139Y24039D01*
X78635Y24534D01*
X81360Y24534D01*
X81736Y24159D01*
X83062Y24159D01*
X83999Y25096D01*
X83999Y26422D01*
X83062Y27359D01*
X81736Y27359D01*
X81400Y27023D01*
X78635Y27023D01*
X78139Y27519D01*
X76698Y27519D01*
X76203Y27023D01*
X73755Y27023D01*
X73651Y27127D01*
X73651Y28155D01*
X73348Y28887D01*
X73348Y28887D01*
X72787Y29448D01*
X72055Y29751D01*
X65851Y29751D01*
X65851Y38542D01*
X65851Y39245D01*
X65599Y40184D01*
X65113Y41026D01*
X64426Y41713D01*
X64426Y41713D01*
X63584Y42199D01*
X62645Y42451D01*
X47207Y42451D01*
X47076Y42582D01*
X46546Y42802D01*
X45972Y42802D01*
X45441Y42582D01*
X45035Y42176D01*
X44816Y41646D01*
X44816Y41072D01*
X45035Y40541D01*
X45441Y40135D01*
X45972Y39916D01*
X46546Y39916D01*
X47076Y40135D01*
X47207Y40267D01*
X62159Y40267D01*
X62356Y40254D01*
X62356Y40254D01*
X62736Y40152D01*
X63077Y39955D01*
X63355Y39677D01*
X63552Y39336D01*
X63569Y39273D01*
X63022Y39451D01*
X46007Y39451D01*
X45876Y39582D01*
X45346Y39802D01*
X44772Y39802D01*
X44241Y39582D01*
X43835Y39176D01*
X43616Y38646D01*
X43616Y38072D01*
X43835Y37541D01*
X44241Y37135D01*
X44772Y36916D01*
X45346Y36916D01*
X45876Y37135D01*
X46007Y37267D01*
X62659Y37267D01*
X62676Y37265D01*
X62708Y37255D01*
X62735Y37235D01*
X62755Y37208D01*
X62765Y37176D01*
X62767Y37159D01*
X62767Y24264D01*
X63011Y23513D01*
X63475Y22875D01*
X64113Y22411D01*
X64864Y22167D01*
X71467Y22167D01*
X71467Y22027D01*
X70839Y21399D01*
X70839Y19958D01*
X71858Y18939D01*
X71481Y19316D02*
X56103Y19316D01*
X56309Y19569D02*
X66938Y19569D01*
X67010Y19498D02*
X67423Y19498D01*
X67423Y20603D01*
X67575Y20603D01*
X67575Y20755D01*
X68680Y20755D01*
X68680Y21168D01*
X67988Y21860D01*
X67575Y21860D01*
X67575Y20755D01*
X67423Y20755D01*
X67423Y21860D01*
X67010Y21860D01*
X66318Y21168D01*
X66318Y20755D01*
X67423Y20755D01*
X67423Y20603D01*
X66318Y20603D01*
X66318Y20190D01*
X67010Y19498D01*
X67423Y19569D02*
X67575Y19569D01*
X67575Y19498D02*
X67988Y19498D01*
X68680Y20190D01*
X68680Y20603D01*
X67575Y20603D01*
X67575Y19498D01*
X67575Y19821D02*
X67423Y19821D01*
X67423Y20074D02*
X67575Y20074D01*
X67575Y20326D02*
X67423Y20326D01*
X67423Y20579D02*
X67575Y20579D01*
X67575Y20831D02*
X67423Y20831D01*
X67423Y21084D02*
X67575Y21084D01*
X67575Y21336D02*
X67423Y21336D01*
X67423Y21589D02*
X67575Y21589D01*
X67575Y21841D02*
X67423Y21841D01*
X66991Y21841D02*
X56003Y21841D01*
X56003Y22094D02*
X71467Y22094D01*
X71281Y21841D02*
X68007Y21841D01*
X68259Y21589D02*
X71028Y21589D01*
X70839Y21336D02*
X68512Y21336D01*
X68680Y21084D02*
X70839Y21084D01*
X70839Y20831D02*
X68680Y20831D01*
X68680Y20579D02*
X70839Y20579D01*
X70839Y20326D02*
X68680Y20326D01*
X68564Y20074D02*
X70839Y20074D01*
X70976Y19821D02*
X68312Y19821D01*
X68059Y19569D02*
X71228Y19569D01*
X73424Y19064D02*
X76593Y19064D01*
X76341Y19316D02*
X73677Y19316D01*
X73542Y17296D02*
X76536Y17296D01*
X76283Y17044D02*
X73794Y17044D01*
X78422Y17296D02*
X81733Y17296D01*
X81481Y17044D02*
X78674Y17044D01*
X78244Y19064D02*
X93022Y19064D01*
X92770Y19316D02*
X90859Y19316D01*
X89178Y19316D02*
X83239Y19316D01*
X83492Y19569D02*
X88926Y19569D01*
X88673Y19821D02*
X83744Y19821D01*
X83997Y20074D02*
X88421Y20074D01*
X88419Y20326D02*
X83999Y20326D01*
X83999Y20579D02*
X88419Y20579D01*
X88419Y20831D02*
X83999Y20831D01*
X83999Y21084D02*
X88419Y21084D01*
X88419Y21336D02*
X83999Y21336D01*
X83812Y21589D02*
X88606Y21589D01*
X88858Y21841D02*
X83559Y21841D01*
X83307Y22094D02*
X89111Y22094D01*
X90927Y22094D02*
X92884Y22094D01*
X93224Y22346D02*
X78232Y22346D01*
X78484Y22094D02*
X81491Y22094D01*
X81528Y24366D02*
X78467Y24366D01*
X78214Y24114D02*
X93002Y24114D01*
X92749Y24366D02*
X90889Y24366D01*
X89148Y24366D02*
X83269Y24366D01*
X83522Y24619D02*
X88896Y24619D01*
X88643Y24871D02*
X83774Y24871D01*
X83999Y25124D02*
X88419Y25124D01*
X88419Y25376D02*
X83999Y25376D01*
X83999Y25629D02*
X88419Y25629D01*
X88419Y25881D02*
X83999Y25881D01*
X83999Y26134D02*
X88419Y26134D01*
X88419Y26386D02*
X83999Y26386D01*
X83782Y26639D02*
X88636Y26639D01*
X88888Y26891D02*
X83529Y26891D01*
X83277Y27144D02*
X89141Y27144D01*
X90897Y27144D02*
X92905Y27144D01*
X93274Y27396D02*
X78262Y27396D01*
X78514Y27144D02*
X81521Y27144D01*
X81736Y30879D02*
X83062Y30879D01*
X83999Y31816D01*
X83999Y33142D01*
X83062Y34079D01*
X81736Y34079D01*
X81320Y33663D01*
X78675Y33663D01*
X78179Y34159D01*
X76738Y34159D01*
X76183Y33603D01*
X73675Y33603D01*
X73199Y34079D01*
X71758Y34079D01*
X70739Y33059D01*
X70739Y31618D01*
X71758Y30599D01*
X73199Y30599D01*
X73715Y31114D01*
X76303Y31114D01*
X76738Y30679D01*
X78179Y30679D01*
X78675Y31174D01*
X81440Y31174D01*
X81736Y30879D01*
X81683Y30931D02*
X78432Y30931D01*
X76486Y30931D02*
X73532Y30931D01*
X73279Y30679D02*
X93449Y30679D01*
X92977Y30931D02*
X90734Y30931D01*
X90987Y31184D02*
X92725Y31184D01*
X89303Y30931D02*
X83114Y30931D01*
X83367Y31184D02*
X89051Y31184D01*
X88798Y31436D02*
X83619Y31436D01*
X83872Y31689D02*
X88546Y31689D01*
X88419Y31941D02*
X83999Y31941D01*
X83999Y32194D02*
X88419Y32194D01*
X88419Y32446D02*
X83999Y32446D01*
X83999Y32699D02*
X88419Y32699D01*
X88419Y32951D02*
X83999Y32951D01*
X83937Y33204D02*
X88481Y33204D01*
X88733Y33456D02*
X83684Y33456D01*
X83432Y33709D02*
X88986Y33709D01*
X89238Y33961D02*
X83179Y33961D01*
X81618Y33961D02*
X78377Y33961D01*
X78629Y33709D02*
X81366Y33709D01*
X81736Y35899D02*
X83062Y35899D01*
X83999Y36836D01*
X83999Y38162D01*
X83062Y39099D01*
X81736Y39099D01*
X81380Y38743D01*
X78675Y38743D01*
X78179Y39239D01*
X76738Y39239D01*
X76403Y38903D01*
X73475Y38903D01*
X73149Y39229D01*
X71708Y39229D01*
X70689Y38209D01*
X70689Y36768D01*
X71708Y35749D01*
X73149Y35749D01*
X73815Y36414D01*
X76083Y36414D01*
X76738Y35759D01*
X78179Y35759D01*
X78675Y36254D01*
X81380Y36254D01*
X81736Y35899D01*
X81653Y35981D02*
X78402Y35981D01*
X78654Y36234D02*
X81401Y36234D01*
X83144Y35981D02*
X89273Y35981D01*
X89021Y36234D02*
X83397Y36234D01*
X83649Y36486D02*
X88768Y36486D01*
X88516Y36739D02*
X83902Y36739D01*
X83999Y36991D02*
X88419Y36991D01*
X88419Y37244D02*
X83999Y37244D01*
X83999Y37496D02*
X88419Y37496D01*
X88419Y37749D02*
X83999Y37749D01*
X83999Y38001D02*
X88419Y38001D01*
X88511Y38254D02*
X83907Y38254D01*
X83654Y38506D02*
X88763Y38506D01*
X89016Y38759D02*
X83402Y38759D01*
X83149Y39011D02*
X89268Y39011D01*
X90769Y39011D02*
X92950Y39011D01*
X92697Y38759D02*
X91022Y38759D01*
X90794Y41031D02*
X92885Y41031D01*
X93226Y40779D02*
X78179Y40779D01*
X78159Y40759D02*
X78655Y41254D01*
X81400Y41254D01*
X81736Y40919D01*
X83062Y40919D01*
X83999Y41856D01*
X83999Y43182D01*
X83062Y44119D01*
X81736Y44119D01*
X81360Y43743D01*
X78655Y43743D01*
X78159Y44239D01*
X76718Y44239D01*
X76183Y43703D01*
X73595Y43703D01*
X73099Y44199D01*
X72846Y44199D01*
X72665Y44448D01*
X73148Y44930D01*
X73451Y45663D01*
X73451Y46190D01*
X73675Y46414D01*
X76143Y46414D01*
X76718Y45839D01*
X78159Y45839D01*
X78655Y46334D01*
X81340Y46334D01*
X81736Y45939D01*
X83062Y45939D01*
X83999Y46876D01*
X83999Y48202D01*
X83062Y49139D01*
X81736Y49139D01*
X81420Y48823D01*
X78655Y48823D01*
X78159Y49319D01*
X76718Y49319D01*
X76303Y48903D01*
X73395Y48903D01*
X73039Y49259D01*
X71598Y49259D01*
X70579Y48239D01*
X70579Y46798D01*
X71126Y46251D01*
X45307Y46251D01*
X45176Y46382D01*
X44646Y46602D01*
X44072Y46602D01*
X43541Y46382D01*
X43135Y45976D01*
X42916Y45446D01*
X42916Y44872D01*
X43096Y44437D01*
X43035Y44376D01*
X42816Y43846D01*
X42816Y43272D01*
X43035Y42741D01*
X43441Y42335D01*
X43972Y42116D01*
X44546Y42116D01*
X45076Y42335D01*
X45482Y42741D01*
X45617Y43067D01*
X66236Y43067D01*
X66118Y42948D01*
X66118Y42535D01*
X67223Y42535D01*
X67223Y42383D01*
X67375Y42383D01*
X67375Y42535D01*
X68480Y42535D01*
X68480Y42948D01*
X68361Y43067D01*
X70639Y43067D01*
X70639Y41738D01*
X71658Y40719D01*
X73099Y40719D01*
X73595Y41214D01*
X76263Y41214D01*
X76718Y40759D01*
X78159Y40759D01*
X78432Y41031D02*
X81623Y41031D01*
X83174Y41031D02*
X89243Y41031D01*
X88991Y41284D02*
X83427Y41284D01*
X83679Y41536D02*
X88738Y41536D01*
X88486Y41789D02*
X83932Y41789D01*
X83999Y42041D02*
X88419Y42041D01*
X88419Y42294D02*
X83999Y42294D01*
X83999Y42546D02*
X88419Y42546D01*
X88419Y42799D02*
X83999Y42799D01*
X83999Y43051D02*
X88419Y43051D01*
X88541Y43304D02*
X83877Y43304D01*
X83624Y43556D02*
X88793Y43556D01*
X89046Y43809D02*
X83372Y43809D01*
X83119Y44061D02*
X89298Y44061D01*
X90739Y44061D02*
X93022Y44061D01*
X92769Y43809D02*
X90992Y43809D01*
X90824Y46081D02*
X92864Y46081D01*
X93176Y45829D02*
X73451Y45829D01*
X73451Y46081D02*
X76476Y46081D01*
X76223Y46334D02*
X73594Y46334D01*
X73415Y45576D02*
X97113Y45576D01*
X97114Y45324D02*
X73311Y45324D01*
X73206Y45071D02*
X97115Y45071D01*
X97115Y44819D02*
X73036Y44819D01*
X73148Y44930D02*
X73148Y44930D01*
X72784Y44566D02*
X97116Y44566D01*
X97116Y44314D02*
X96762Y44314D01*
X93556Y44314D02*
X72762Y44314D01*
X73237Y44061D02*
X76541Y44061D01*
X76288Y43809D02*
X73489Y43809D01*
X70639Y43051D02*
X68377Y43051D01*
X68480Y42799D02*
X70639Y42799D01*
X70639Y42546D02*
X68480Y42546D01*
X68480Y42383D02*
X67375Y42383D01*
X67375Y41278D01*
X67788Y41278D01*
X68480Y41970D01*
X68480Y42383D01*
X68480Y42294D02*
X70639Y42294D01*
X70639Y42041D02*
X68480Y42041D01*
X68299Y41789D02*
X70639Y41789D01*
X70841Y41536D02*
X68047Y41536D01*
X67794Y41284D02*
X71093Y41284D01*
X71346Y41031D02*
X65108Y41031D01*
X65113Y41026D02*
X65113Y41026D01*
X65256Y40779D02*
X71598Y40779D01*
X73159Y40779D02*
X76698Y40779D01*
X76446Y41031D02*
X73412Y41031D01*
X73367Y39011D02*
X76511Y39011D01*
X78407Y39011D02*
X81648Y39011D01*
X81396Y38759D02*
X78659Y38759D01*
X76263Y36234D02*
X73634Y36234D01*
X73382Y35981D02*
X76516Y35981D01*
X76541Y33961D02*
X73317Y33961D01*
X73569Y33709D02*
X76288Y33709D01*
X71641Y33961D02*
X65851Y33961D01*
X65851Y33709D02*
X71388Y33709D01*
X71136Y33456D02*
X67952Y33456D01*
X67888Y33520D02*
X67475Y33520D01*
X67475Y32415D01*
X68580Y32415D01*
X68580Y32828D01*
X67888Y33520D01*
X67475Y33456D02*
X67323Y33456D01*
X67323Y33520D02*
X66910Y33520D01*
X66218Y32828D01*
X66218Y32415D01*
X67323Y32415D01*
X67323Y33520D01*
X67323Y33204D02*
X67475Y33204D01*
X67475Y32951D02*
X67323Y32951D01*
X67323Y32699D02*
X67475Y32699D01*
X67475Y32446D02*
X67323Y32446D01*
X67323Y32415D02*
X67475Y32415D01*
X67475Y32263D01*
X68580Y32263D01*
X68580Y31850D01*
X67888Y31158D01*
X67475Y31158D01*
X67475Y32263D01*
X67323Y32263D01*
X67323Y31158D01*
X66910Y31158D01*
X66218Y31850D01*
X66218Y32263D01*
X67323Y32263D01*
X67323Y32415D01*
X67323Y32194D02*
X67475Y32194D01*
X67475Y31941D02*
X67323Y31941D01*
X67323Y31689D02*
X67475Y31689D01*
X67475Y31436D02*
X67323Y31436D01*
X67323Y31184D02*
X67475Y31184D01*
X67914Y31184D02*
X71173Y31184D01*
X70921Y31436D02*
X68167Y31436D01*
X68419Y31689D02*
X70739Y31689D01*
X70739Y31941D02*
X68580Y31941D01*
X68580Y32194D02*
X70739Y32194D01*
X70739Y32446D02*
X68580Y32446D01*
X68580Y32699D02*
X70739Y32699D01*
X70739Y32951D02*
X68457Y32951D01*
X68204Y33204D02*
X70883Y33204D01*
X71426Y30931D02*
X65851Y30931D01*
X65851Y30679D02*
X71678Y30679D01*
X72254Y29669D02*
X97150Y29669D01*
X97149Y29921D02*
X65851Y29921D01*
X65851Y30174D02*
X97149Y30174D01*
X97148Y30426D02*
X65851Y30426D01*
X65851Y31184D02*
X66883Y31184D01*
X66631Y31436D02*
X65851Y31436D01*
X65851Y31689D02*
X66378Y31689D01*
X66218Y31941D02*
X65851Y31941D01*
X65851Y32194D02*
X66218Y32194D01*
X66218Y32446D02*
X65851Y32446D01*
X65851Y32699D02*
X66218Y32699D01*
X66341Y32951D02*
X65851Y32951D01*
X65851Y33204D02*
X66593Y33204D01*
X66846Y33456D02*
X65851Y33456D01*
X65851Y34214D02*
X93333Y34214D01*
X92929Y33961D02*
X90799Y33961D01*
X90764Y35981D02*
X92956Y35981D01*
X92704Y36234D02*
X91017Y36234D01*
X93399Y35729D02*
X65851Y35729D01*
X65851Y35981D02*
X71476Y35981D01*
X71223Y36234D02*
X65851Y36234D01*
X65851Y36486D02*
X66681Y36486D01*
X66860Y36308D02*
X67273Y36308D01*
X67273Y37413D01*
X67425Y37413D01*
X67425Y37565D01*
X68530Y37565D01*
X68530Y37978D01*
X67838Y38670D01*
X67425Y38670D01*
X67425Y37565D01*
X67273Y37565D01*
X67273Y38670D01*
X66860Y38670D01*
X66168Y37978D01*
X66168Y37565D01*
X67273Y37565D01*
X67273Y37413D01*
X66168Y37413D01*
X66168Y37000D01*
X66860Y36308D01*
X67273Y36486D02*
X67425Y36486D01*
X67425Y36308D02*
X67838Y36308D01*
X68530Y37000D01*
X68530Y37413D01*
X67425Y37413D01*
X67425Y36308D01*
X67425Y36739D02*
X67273Y36739D01*
X67273Y36991D02*
X67425Y36991D01*
X67425Y37244D02*
X67273Y37244D01*
X67273Y37496D02*
X65851Y37496D01*
X65851Y37244D02*
X66168Y37244D01*
X66176Y36991D02*
X65851Y36991D01*
X65851Y36739D02*
X66428Y36739D01*
X67425Y37496D02*
X70689Y37496D01*
X70689Y37244D02*
X68530Y37244D01*
X68522Y36991D02*
X70689Y36991D01*
X70718Y36739D02*
X68269Y36739D01*
X68017Y36486D02*
X70971Y36486D01*
X70689Y37749D02*
X68530Y37749D01*
X68507Y38001D02*
X70689Y38001D01*
X70733Y38254D02*
X68254Y38254D01*
X68002Y38506D02*
X70986Y38506D01*
X71238Y38759D02*
X65851Y38759D01*
X65851Y39011D02*
X71491Y39011D01*
X67425Y38506D02*
X67273Y38506D01*
X67273Y38254D02*
X67425Y38254D01*
X67425Y38001D02*
X67273Y38001D01*
X67273Y37749D02*
X67425Y37749D01*
X66696Y38506D02*
X65851Y38506D01*
X65851Y38254D02*
X66443Y38254D01*
X66191Y38001D02*
X65851Y38001D01*
X65851Y37749D02*
X66168Y37749D01*
X65846Y39264D02*
X93383Y39264D01*
X96935Y39264D02*
X97128Y39264D01*
X97127Y39516D02*
X65778Y39516D01*
X65711Y39769D02*
X97127Y39769D01*
X97126Y40021D02*
X65643Y40021D01*
X65599Y40184D02*
X65599Y40184D01*
X65548Y40274D02*
X97126Y40274D01*
X97125Y40526D02*
X65402Y40526D01*
X64855Y41284D02*
X66803Y41284D01*
X66810Y41278D02*
X67223Y41278D01*
X67223Y42383D01*
X66118Y42383D01*
X66118Y41970D01*
X66810Y41278D01*
X66551Y41536D02*
X64603Y41536D01*
X64295Y41789D02*
X66298Y41789D01*
X66118Y42041D02*
X63858Y42041D01*
X63584Y42199D02*
X63584Y42199D01*
X63232Y42294D02*
X66118Y42294D01*
X66118Y42546D02*
X47112Y42546D01*
X46553Y42799D02*
X66118Y42799D01*
X66221Y43051D02*
X45610Y43051D01*
X45506Y42799D02*
X45965Y42799D01*
X45406Y42546D02*
X45287Y42546D01*
X45153Y42294D02*
X44976Y42294D01*
X44980Y42041D02*
X42103Y42041D01*
X42103Y41789D02*
X44875Y41789D01*
X44816Y41536D02*
X42103Y41536D01*
X42103Y41284D02*
X44816Y41284D01*
X44833Y41031D02*
X42103Y41031D01*
X42103Y40779D02*
X44937Y40779D01*
X45051Y40526D02*
X42103Y40526D01*
X42103Y40274D02*
X45303Y40274D01*
X45717Y40021D02*
X42103Y40021D01*
X42103Y39769D02*
X44692Y39769D01*
X44176Y39516D02*
X42103Y39516D01*
X42103Y39264D02*
X43923Y39264D01*
X43767Y39011D02*
X42103Y39011D01*
X42103Y38759D02*
X43663Y38759D01*
X43616Y38506D02*
X42103Y38506D01*
X42103Y38254D02*
X43616Y38254D01*
X43645Y38001D02*
X42103Y38001D01*
X42103Y37749D02*
X43750Y37749D01*
X43881Y37496D02*
X42103Y37496D01*
X42103Y37244D02*
X44133Y37244D01*
X44589Y36991D02*
X42103Y36991D01*
X42103Y36739D02*
X62767Y36739D01*
X62767Y36991D02*
X45528Y36991D01*
X45985Y37244D02*
X62723Y37244D01*
X62767Y36486D02*
X42103Y36486D01*
X42103Y36234D02*
X53183Y36234D01*
X53410Y36460D02*
X52718Y35768D01*
X52718Y35355D01*
X53823Y35355D01*
X53823Y36460D01*
X53410Y36460D01*
X53823Y36234D02*
X53975Y36234D01*
X53975Y36460D02*
X53975Y35355D01*
X53823Y35355D01*
X53823Y35203D01*
X52718Y35203D01*
X52718Y34790D01*
X53410Y34098D01*
X53823Y34098D01*
X53823Y35203D01*
X53975Y35203D01*
X53975Y35355D01*
X55080Y35355D01*
X55080Y35768D01*
X54388Y36460D01*
X53975Y36460D01*
X53975Y35981D02*
X53823Y35981D01*
X53823Y35729D02*
X53975Y35729D01*
X53975Y35476D02*
X53823Y35476D01*
X53823Y35224D02*
X42103Y35224D01*
X42103Y35476D02*
X52718Y35476D01*
X52718Y35729D02*
X42103Y35729D01*
X42103Y35981D02*
X52931Y35981D01*
X52718Y34971D02*
X42103Y34971D01*
X42103Y34719D02*
X52788Y34719D01*
X53041Y34466D02*
X42103Y34466D01*
X42103Y34214D02*
X53293Y34214D01*
X53823Y34214D02*
X53975Y34214D01*
X53975Y34098D02*
X54388Y34098D01*
X55080Y34790D01*
X55080Y35203D01*
X53975Y35203D01*
X53975Y34098D01*
X53975Y34466D02*
X53823Y34466D01*
X53823Y34719D02*
X53975Y34719D01*
X53975Y34971D02*
X53823Y34971D01*
X53975Y35224D02*
X62767Y35224D01*
X62767Y35476D02*
X55080Y35476D01*
X55080Y35729D02*
X62767Y35729D01*
X62767Y35981D02*
X54867Y35981D01*
X54614Y36234D02*
X62767Y36234D01*
X62767Y34971D02*
X55080Y34971D01*
X55009Y34719D02*
X62767Y34719D01*
X62767Y34466D02*
X54757Y34466D01*
X54504Y34214D02*
X62767Y34214D01*
X62767Y33961D02*
X42103Y33961D01*
X42103Y33709D02*
X62767Y33709D01*
X62767Y33456D02*
X42103Y33456D01*
X42103Y33204D02*
X62767Y33204D01*
X62767Y32951D02*
X42075Y32951D01*
X41993Y32699D02*
X62767Y32699D01*
X62767Y32446D02*
X41911Y32446D01*
X41810Y32194D02*
X62767Y32194D01*
X62767Y31941D02*
X41627Y31941D01*
X41443Y31689D02*
X52928Y31689D01*
X53178Y31939D02*
X52159Y30919D01*
X52159Y29478D01*
X53178Y28459D01*
X54619Y28459D01*
X55639Y29478D01*
X55639Y30919D01*
X54619Y31939D01*
X53178Y31939D01*
X52676Y31436D02*
X41179Y31436D01*
X40831Y31184D02*
X52423Y31184D01*
X52171Y30931D02*
X40251Y30931D01*
X40671Y31068D02*
X40671Y31068D01*
X39617Y29921D02*
X52159Y29921D01*
X52159Y29669D02*
X39869Y29669D01*
X39879Y29659D02*
X38859Y30679D01*
X37418Y30679D01*
X36399Y29659D01*
X36399Y28218D01*
X37418Y27199D01*
X38859Y27199D01*
X39879Y28218D01*
X39879Y29659D01*
X39879Y29416D02*
X52221Y29416D01*
X52473Y29164D02*
X39879Y29164D01*
X39879Y28911D02*
X52726Y28911D01*
X52978Y28659D02*
X39879Y28659D01*
X39879Y28406D02*
X58717Y28406D01*
X58717Y28564D02*
X58717Y28209D01*
X59683Y28209D01*
X59683Y28057D01*
X58717Y28057D01*
X58717Y27701D01*
X59327Y27091D01*
X59683Y27091D01*
X59683Y28057D01*
X59835Y28057D01*
X59835Y28209D01*
X60800Y28209D01*
X60800Y28564D01*
X60588Y28776D01*
X60665Y28808D01*
X61115Y29258D01*
X61359Y29846D01*
X61359Y30483D01*
X61115Y31071D01*
X60665Y31521D01*
X60077Y31765D01*
X59440Y31765D01*
X58852Y31521D01*
X58402Y31071D01*
X58159Y30483D01*
X58159Y29846D01*
X58402Y29258D01*
X58852Y28808D01*
X58930Y28776D01*
X58717Y28564D01*
X58812Y28659D02*
X54819Y28659D01*
X55072Y28911D02*
X58749Y28911D01*
X58497Y29164D02*
X55324Y29164D01*
X55577Y29416D02*
X58337Y29416D01*
X58232Y29669D02*
X55639Y29669D01*
X55639Y29921D02*
X58159Y29921D01*
X58159Y30174D02*
X55639Y30174D01*
X55639Y30426D02*
X58159Y30426D01*
X58240Y30679D02*
X55639Y30679D01*
X55627Y30931D02*
X58344Y30931D01*
X58515Y31184D02*
X55374Y31184D01*
X55122Y31436D02*
X58767Y31436D01*
X59257Y31689D02*
X54869Y31689D01*
X52159Y30679D02*
X32973Y30679D01*
X31244Y30679D02*
X29125Y30679D01*
X29123Y30931D02*
X30967Y30931D01*
X30737Y31184D02*
X29121Y31184D01*
X29119Y31436D02*
X30632Y31436D01*
X30528Y31689D02*
X29118Y31689D01*
X29116Y31941D02*
X30509Y31941D01*
X30509Y32194D02*
X29114Y32194D01*
X29112Y32446D02*
X30540Y32446D01*
X30644Y32699D02*
X29111Y32699D01*
X29109Y32951D02*
X30749Y32951D01*
X30997Y33204D02*
X29107Y33204D01*
X29105Y33456D02*
X31265Y33456D01*
X31067Y33709D02*
X29104Y33709D01*
X29102Y33961D02*
X31067Y33961D01*
X31067Y34214D02*
X29100Y34214D01*
X29098Y34466D02*
X31067Y34466D01*
X31270Y34719D02*
X29097Y34719D01*
X29095Y34971D02*
X31523Y34971D01*
X32033Y34971D02*
X32185Y34971D01*
X32185Y35126D02*
X32185Y34161D01*
X33150Y34161D01*
X33150Y34516D01*
X32540Y35126D01*
X32185Y35126D01*
X32185Y34719D02*
X32033Y34719D01*
X32033Y34466D02*
X32185Y34466D01*
X32185Y34214D02*
X32033Y34214D01*
X32695Y34971D02*
X37421Y34971D01*
X37168Y34719D02*
X32948Y34719D01*
X33150Y34466D02*
X36958Y34466D01*
X36958Y34214D02*
X33150Y34214D01*
X33150Y33961D02*
X38063Y33961D01*
X38215Y33961D02*
X39614Y33961D01*
X39614Y33709D02*
X39320Y33709D01*
X39247Y33456D02*
X39614Y33456D01*
X39612Y33434D02*
X39612Y33434D01*
X39320Y34095D02*
X39320Y34508D01*
X38628Y35200D01*
X38215Y35200D01*
X38215Y34095D01*
X39320Y34095D01*
X39320Y34214D02*
X39614Y34214D01*
X39614Y34466D02*
X39320Y34466D01*
X39109Y34719D02*
X39614Y34719D01*
X39614Y34971D02*
X38857Y34971D01*
X38215Y34971D02*
X38063Y34971D01*
X38063Y34719D02*
X38215Y34719D01*
X38215Y34466D02*
X38063Y34466D01*
X38063Y34214D02*
X38215Y34214D01*
X36958Y33709D02*
X33150Y33709D01*
X32953Y33456D02*
X37031Y33456D01*
X39614Y35224D02*
X29093Y35224D01*
X29091Y35476D02*
X39614Y35476D01*
X39614Y35729D02*
X29090Y35729D01*
X29088Y35981D02*
X39614Y35981D01*
X39614Y36234D02*
X29086Y36234D01*
X29084Y36486D02*
X39614Y36486D01*
X39614Y36739D02*
X29083Y36739D01*
X29081Y36991D02*
X39614Y36991D01*
X39614Y37244D02*
X29079Y37244D01*
X29077Y37496D02*
X39614Y37496D01*
X39614Y37749D02*
X29076Y37749D01*
X29074Y38001D02*
X39614Y38001D01*
X39614Y38254D02*
X29072Y38254D01*
X29070Y38506D02*
X39614Y38506D01*
X39614Y38759D02*
X29069Y38759D01*
X29067Y39011D02*
X39614Y39011D01*
X39614Y39264D02*
X29065Y39264D01*
X29064Y39516D02*
X39614Y39516D01*
X39614Y39769D02*
X29062Y39769D01*
X29060Y40021D02*
X39614Y40021D01*
X39614Y40274D02*
X29058Y40274D01*
X29057Y40526D02*
X39614Y40526D01*
X39614Y40779D02*
X29055Y40779D01*
X29053Y41031D02*
X39614Y41031D01*
X39614Y41284D02*
X29051Y41284D01*
X29050Y41536D02*
X39614Y41536D01*
X39614Y41789D02*
X29048Y41789D01*
X29046Y42041D02*
X39614Y42041D01*
X39614Y42294D02*
X29044Y42294D01*
X29043Y42546D02*
X29210Y42546D01*
X29918Y42546D02*
X30070Y42546D01*
X30070Y42315D02*
X30546Y42315D01*
X31327Y43096D01*
X31327Y43573D01*
X30070Y43573D01*
X30070Y42315D01*
X30070Y42799D02*
X29918Y42799D01*
X29918Y43051D02*
X30070Y43051D01*
X30070Y43304D02*
X29918Y43304D01*
X29918Y43556D02*
X30070Y43556D01*
X30070Y43725D02*
X31327Y43725D01*
X31327Y44201D01*
X30546Y44982D01*
X30070Y44982D01*
X30070Y43725D01*
X30070Y43809D02*
X29918Y43809D01*
X29918Y44061D02*
X30070Y44061D01*
X30070Y44314D02*
X29918Y44314D01*
X29918Y44566D02*
X30070Y44566D01*
X30070Y44819D02*
X29918Y44819D01*
X29278Y44819D02*
X29027Y44819D01*
X29025Y45071D02*
X39614Y45071D01*
X39614Y44819D02*
X30710Y44819D01*
X30962Y44566D02*
X39614Y44566D01*
X39614Y44314D02*
X31215Y44314D01*
X31327Y44061D02*
X39614Y44061D01*
X39614Y43809D02*
X31327Y43809D01*
X31327Y43556D02*
X39614Y43556D01*
X39614Y43304D02*
X31327Y43304D01*
X31282Y43051D02*
X39614Y43051D01*
X39614Y42799D02*
X31030Y42799D01*
X30777Y42546D02*
X39614Y42546D01*
X42103Y42546D02*
X43231Y42546D01*
X43012Y42799D02*
X42103Y42799D01*
X42103Y43051D02*
X42907Y43051D01*
X42816Y43304D02*
X42103Y43304D01*
X42103Y43556D02*
X42816Y43556D01*
X42816Y43809D02*
X42103Y43809D01*
X42103Y44061D02*
X42905Y44061D01*
X43010Y44314D02*
X42103Y44314D01*
X42103Y44566D02*
X43042Y44566D01*
X42938Y44819D02*
X42103Y44819D01*
X42103Y45071D02*
X42916Y45071D01*
X42916Y45324D02*
X42103Y45324D01*
X42103Y45576D02*
X42970Y45576D01*
X43074Y45829D02*
X42103Y45829D01*
X42103Y46081D02*
X43241Y46081D01*
X43493Y46334D02*
X42103Y46334D01*
X42103Y46586D02*
X44034Y46586D01*
X44683Y46586D02*
X66501Y46586D01*
X66750Y46338D02*
X67163Y46338D01*
X67163Y47443D01*
X67315Y47443D01*
X67315Y47595D01*
X68420Y47595D01*
X68420Y48008D01*
X67728Y48700D01*
X67315Y48700D01*
X67315Y47595D01*
X67163Y47595D01*
X67163Y48700D01*
X66750Y48700D01*
X66058Y48008D01*
X66058Y47595D01*
X67163Y47595D01*
X67163Y47443D01*
X66058Y47443D01*
X66058Y47030D01*
X66750Y46338D01*
X67163Y46586D02*
X67315Y46586D01*
X67315Y46338D02*
X67728Y46338D01*
X68420Y47030D01*
X68420Y47443D01*
X67315Y47443D01*
X67315Y46338D01*
X67315Y46839D02*
X67163Y46839D01*
X67163Y47091D02*
X67315Y47091D01*
X67315Y47344D02*
X67163Y47344D01*
X67163Y47596D02*
X67315Y47596D01*
X67315Y47849D02*
X67163Y47849D01*
X67163Y48101D02*
X67315Y48101D01*
X67315Y48354D02*
X67163Y48354D01*
X67163Y48606D02*
X67315Y48606D01*
X67822Y48606D02*
X70946Y48606D01*
X70693Y48354D02*
X68074Y48354D01*
X68327Y48101D02*
X70579Y48101D01*
X70579Y47849D02*
X68420Y47849D01*
X68420Y47596D02*
X70579Y47596D01*
X70579Y47344D02*
X68420Y47344D01*
X68420Y47091D02*
X70579Y47091D01*
X70579Y46839D02*
X68229Y46839D01*
X67977Y46586D02*
X70791Y46586D01*
X71043Y46334D02*
X45225Y46334D01*
X42103Y46839D02*
X66248Y46839D01*
X66058Y47091D02*
X42103Y47091D01*
X42103Y47344D02*
X66058Y47344D01*
X66058Y47596D02*
X42103Y47596D01*
X42103Y47849D02*
X66058Y47849D01*
X66151Y48101D02*
X42103Y48101D01*
X42113Y48354D02*
X66403Y48354D01*
X66656Y48606D02*
X42334Y48606D01*
X42438Y48859D02*
X47293Y48859D01*
X48925Y48859D02*
X71198Y48859D01*
X71451Y49111D02*
X49230Y49111D01*
X49473Y49364D02*
X93606Y49364D01*
X93042Y49111D02*
X90709Y49111D01*
X90962Y48859D02*
X92790Y48859D01*
X89328Y49111D02*
X83089Y49111D01*
X83342Y48859D02*
X89076Y48859D01*
X88823Y48606D02*
X83594Y48606D01*
X83847Y48354D02*
X88571Y48354D01*
X88419Y48101D02*
X83999Y48101D01*
X83999Y47849D02*
X88419Y47849D01*
X88419Y47596D02*
X83999Y47596D01*
X83999Y47344D02*
X88419Y47344D01*
X88419Y47091D02*
X83999Y47091D01*
X83962Y46839D02*
X88456Y46839D01*
X88708Y46586D02*
X83709Y46586D01*
X83457Y46334D02*
X88961Y46334D01*
X89213Y46081D02*
X83204Y46081D01*
X81593Y46081D02*
X78402Y46081D01*
X78654Y46334D02*
X81341Y46334D01*
X81456Y48859D02*
X78619Y48859D01*
X78367Y49111D02*
X81708Y49111D01*
X76511Y49111D02*
X73187Y49111D01*
X78337Y44061D02*
X81678Y44061D01*
X81426Y43809D02*
X78589Y43809D01*
X67375Y42294D02*
X67223Y42294D01*
X67223Y42041D02*
X67375Y42041D01*
X67375Y41789D02*
X67223Y41789D01*
X67223Y41536D02*
X67375Y41536D01*
X67375Y41284D02*
X67223Y41284D01*
X63448Y39516D02*
X45942Y39516D01*
X45425Y39769D02*
X63263Y39769D01*
X62962Y40021D02*
X46801Y40021D01*
X43542Y42294D02*
X42103Y42294D01*
X39614Y45324D02*
X29023Y45324D01*
X29022Y45576D02*
X39614Y45576D01*
X39614Y45829D02*
X29020Y45829D01*
X29018Y46081D02*
X39614Y46081D01*
X39614Y46334D02*
X29016Y46334D01*
X29015Y46586D02*
X39614Y46586D01*
X39614Y46839D02*
X29013Y46839D01*
X29011Y47091D02*
X39614Y47091D01*
X39614Y47344D02*
X29009Y47344D01*
X29008Y47596D02*
X39614Y47596D01*
X39614Y47849D02*
X36209Y47849D01*
X36780Y48101D02*
X39614Y48101D01*
X39614Y48354D02*
X37033Y48354D01*
X37254Y48606D02*
X37637Y48606D01*
X37394Y48859D02*
X37358Y48859D01*
X38202Y48859D02*
X38456Y48859D01*
X38456Y49111D02*
X38202Y49111D01*
X38202Y49364D02*
X38456Y49364D01*
X38456Y49616D02*
X38202Y49616D01*
X38202Y49869D02*
X38456Y49869D01*
X38456Y50121D02*
X38202Y50121D01*
X38202Y50626D02*
X38456Y50626D01*
X38456Y50879D02*
X38202Y50879D01*
X38202Y51131D02*
X38456Y51131D01*
X38456Y51384D02*
X38202Y51384D01*
X38202Y51636D02*
X38456Y51636D01*
X38456Y51889D02*
X38202Y51889D01*
X38202Y52141D02*
X38456Y52141D01*
X38641Y52141D02*
X39563Y52141D01*
X39378Y51889D02*
X39097Y51889D01*
X39815Y52394D02*
X37003Y52394D01*
X37003Y52646D02*
X40298Y52646D01*
X41440Y52646D02*
X47067Y52646D01*
X47067Y52394D02*
X41923Y52394D01*
X42175Y52141D02*
X47067Y52141D01*
X47067Y51889D02*
X42360Y51889D01*
X42464Y51636D02*
X47267Y51636D01*
X48033Y52394D02*
X48185Y52394D01*
X48185Y52361D02*
X48185Y53326D01*
X48540Y53326D01*
X49150Y52716D01*
X49150Y52361D01*
X48185Y52361D01*
X48185Y52646D02*
X48033Y52646D01*
X48033Y52899D02*
X48185Y52899D01*
X48185Y53151D02*
X48033Y53151D01*
X47503Y53151D02*
X37003Y53151D01*
X37003Y52899D02*
X47250Y52899D01*
X48715Y53151D02*
X97096Y53151D01*
X97097Y52899D02*
X48968Y52899D01*
X49150Y52646D02*
X97097Y52646D01*
X97098Y52394D02*
X49150Y52394D01*
X49150Y52141D02*
X97098Y52141D01*
X97099Y51889D02*
X49150Y51889D01*
X48950Y51636D02*
X97099Y51636D01*
X97100Y51384D02*
X49241Y51384D01*
X49477Y51131D02*
X97101Y51131D01*
X97101Y50879D02*
X49582Y50879D01*
X49686Y50626D02*
X97102Y50626D01*
X97102Y50374D02*
X49709Y50374D01*
X49709Y50121D02*
X97103Y50121D01*
X97103Y49869D02*
X49682Y49869D01*
X49577Y49616D02*
X97104Y49616D01*
X97105Y49364D02*
X96712Y49364D01*
X97095Y53404D02*
X37003Y53404D01*
X37003Y53656D02*
X97095Y53656D01*
X97094Y53909D02*
X36940Y53909D01*
X36858Y54161D02*
X97094Y54161D01*
X97093Y54414D02*
X36776Y54414D01*
X36659Y54666D02*
X97092Y54666D01*
X97092Y54919D02*
X36476Y54919D01*
X36292Y55171D02*
X97091Y55171D01*
X97091Y55424D02*
X36039Y55424D01*
X35692Y55676D02*
X97090Y55676D01*
X97090Y55929D02*
X35214Y55929D01*
X35450Y55852D02*
X35450Y55852D01*
X34482Y53404D02*
X30864Y53404D01*
X30612Y53151D02*
X34514Y53151D01*
X34514Y52899D02*
X28971Y52899D01*
X28969Y53151D02*
X29166Y53151D01*
X28973Y52646D02*
X34514Y52646D01*
X34514Y52394D02*
X28974Y52394D01*
X28976Y52141D02*
X34483Y52141D01*
X34298Y51889D02*
X28978Y51889D01*
X28980Y51636D02*
X34193Y51636D01*
X34089Y51384D02*
X28981Y51384D01*
X28983Y51131D02*
X34087Y51131D01*
X34087Y50879D02*
X30489Y50879D01*
X30378Y50990D02*
X29965Y50990D01*
X29965Y49885D01*
X31070Y49885D01*
X31070Y50298D01*
X30378Y50990D01*
X29965Y50879D02*
X29813Y50879D01*
X29813Y50626D02*
X29965Y50626D01*
X29965Y50374D02*
X29813Y50374D01*
X29813Y50121D02*
X29965Y50121D01*
X29965Y49869D02*
X34087Y49869D01*
X34087Y50121D02*
X31070Y50121D01*
X30994Y50374D02*
X34087Y50374D01*
X34087Y50626D02*
X30742Y50626D01*
X29288Y50879D02*
X28985Y50879D01*
X28987Y50626D02*
X29036Y50626D01*
X29813Y49616D02*
X29965Y49616D01*
X29965Y49733D02*
X29965Y48628D01*
X30378Y48628D01*
X31070Y49320D01*
X31070Y49733D01*
X29965Y49733D01*
X29965Y49364D02*
X29813Y49364D01*
X29813Y49111D02*
X29965Y49111D01*
X29965Y48859D02*
X29813Y48859D01*
X29168Y48859D02*
X28999Y48859D01*
X29001Y48606D02*
X34324Y48606D01*
X34219Y48859D02*
X30609Y48859D01*
X30862Y49111D02*
X34115Y49111D01*
X34087Y49364D02*
X31070Y49364D01*
X31070Y49616D02*
X34087Y49616D01*
X34545Y48354D02*
X29002Y48354D01*
X29004Y48101D02*
X34798Y48101D01*
X35369Y47849D02*
X29006Y47849D01*
X37095Y52141D02*
X38017Y52141D01*
X37560Y51889D02*
X37280Y51889D01*
X38202Y48606D02*
X38456Y48606D01*
X39020Y48606D02*
X39404Y48606D01*
X39299Y48859D02*
X39264Y48859D01*
X31057Y56181D02*
X97089Y56181D01*
X97088Y56434D02*
X30804Y56434D01*
X28973Y56434D02*
X28946Y56434D01*
X28945Y56686D02*
X97088Y56686D01*
X97087Y56939D02*
X28943Y56939D01*
X28941Y57191D02*
X97087Y57191D01*
X97086Y57444D02*
X28939Y57444D01*
X28938Y57696D02*
X97085Y57696D01*
X97085Y57949D02*
X28936Y57949D01*
X28934Y58201D02*
X97084Y58201D01*
X97084Y58454D02*
X28933Y58454D01*
X28931Y58706D02*
X97083Y58706D01*
X97083Y58959D02*
X28929Y58959D01*
X28927Y59211D02*
X97082Y59211D01*
X97081Y59464D02*
X28926Y59464D01*
X28924Y59716D02*
X97081Y59716D01*
X97080Y59969D02*
X28922Y59969D01*
X28920Y60221D02*
X37328Y60221D01*
X36385Y60474D02*
X28919Y60474D01*
X28917Y60726D02*
X35928Y60726D01*
X35491Y60979D02*
X28915Y60979D01*
X28913Y61231D02*
X35106Y61231D01*
X34854Y61484D02*
X28912Y61484D01*
X28910Y61736D02*
X34601Y61736D01*
X34349Y61989D02*
X28908Y61989D01*
X28906Y62241D02*
X34150Y62241D01*
X34004Y62494D02*
X28905Y62494D01*
X28903Y62746D02*
X33858Y62746D01*
X33713Y62999D02*
X28901Y62999D01*
X28899Y63251D02*
X33567Y63251D01*
X33489Y63504D02*
X28898Y63504D01*
X28896Y63756D02*
X33421Y63756D01*
X33354Y64009D02*
X28894Y64009D01*
X28892Y64261D02*
X33286Y64261D01*
X33218Y64514D02*
X28891Y64514D01*
X28889Y64766D02*
X33198Y64766D01*
X33198Y65019D02*
X28887Y65019D01*
X28885Y65271D02*
X33198Y65271D01*
X33198Y65524D02*
X28884Y65524D01*
X28882Y65776D02*
X33198Y65776D01*
X33222Y66029D02*
X28880Y66029D01*
X28878Y66281D02*
X33289Y66281D01*
X33357Y66534D02*
X28877Y66534D01*
X28875Y66786D02*
X33425Y66786D01*
X33492Y67039D02*
X28873Y67039D01*
X28871Y67291D02*
X33574Y67291D01*
X33720Y67544D02*
X28870Y67544D01*
X28868Y67796D02*
X33866Y67796D01*
X34012Y68049D02*
X28866Y68049D01*
X28864Y68301D02*
X34157Y68301D01*
X34362Y68554D02*
X28863Y68554D01*
X28861Y68806D02*
X34614Y68806D01*
X34867Y69059D02*
X28859Y69059D01*
X40272Y60474D02*
X97079Y60474D01*
X97079Y60726D02*
X40729Y60726D01*
X41167Y60979D02*
X97078Y60979D01*
X97077Y61231D02*
X41551Y61231D01*
X41804Y61484D02*
X97077Y61484D01*
X97076Y61736D02*
X42056Y61736D01*
X42309Y61989D02*
X97076Y61989D01*
X97075Y62241D02*
X42508Y62241D01*
X42653Y62494D02*
X97074Y62494D01*
X97074Y62746D02*
X42799Y62746D01*
X42945Y62999D02*
X97073Y62999D01*
X97073Y63251D02*
X43091Y63251D01*
X43169Y63504D02*
X97072Y63504D01*
X97072Y63756D02*
X43236Y63756D01*
X43304Y64009D02*
X97071Y64009D01*
X97070Y64261D02*
X43372Y64261D01*
X43439Y64514D02*
X97070Y64514D01*
X97069Y64766D02*
X43460Y64766D01*
X43460Y65019D02*
X97069Y65019D01*
X97068Y65271D02*
X43460Y65271D01*
X43460Y65524D02*
X97067Y65524D01*
X97067Y65776D02*
X43460Y65776D01*
X43436Y66029D02*
X97066Y66029D01*
X97066Y66281D02*
X43368Y66281D01*
X43301Y66534D02*
X97065Y66534D01*
X97065Y66786D02*
X43233Y66786D01*
X43165Y67039D02*
X97064Y67039D01*
X97063Y67291D02*
X43083Y67291D01*
X42938Y67544D02*
X97063Y67544D01*
X97062Y67796D02*
X42792Y67796D01*
X42646Y68049D02*
X97062Y68049D01*
X97061Y68301D02*
X42500Y68301D01*
X42296Y68554D02*
X97061Y68554D01*
X97060Y68806D02*
X42043Y68806D01*
X41791Y69059D02*
X97059Y69059D01*
X97080Y60221D02*
X39330Y60221D01*
X65851Y35476D02*
X97137Y35476D01*
X97137Y35224D02*
X65851Y35224D01*
X65851Y34971D02*
X97138Y34971D01*
X97138Y34719D02*
X65851Y34719D01*
X65851Y34466D02*
X97139Y34466D01*
X97139Y34214D02*
X96985Y34214D01*
X96919Y35729D02*
X97136Y35729D01*
X97092Y40779D02*
X97124Y40779D01*
X97148Y30679D02*
X96868Y30679D01*
X97151Y29416D02*
X72819Y29416D01*
X72787Y29448D02*
X72787Y29448D01*
X73071Y29164D02*
X97151Y29164D01*
X97152Y28911D02*
X73324Y28911D01*
X73442Y28659D02*
X97152Y28659D01*
X97153Y28406D02*
X73547Y28406D01*
X73651Y28154D02*
X97153Y28154D01*
X97154Y27901D02*
X73651Y27901D01*
X73651Y27649D02*
X97155Y27649D01*
X97155Y27396D02*
X97043Y27396D01*
X97163Y23861D02*
X96810Y23861D01*
X97164Y23609D02*
X73168Y23609D01*
X73332Y23444D02*
X73332Y23444D01*
X73369Y23356D02*
X97164Y23356D01*
X97165Y23104D02*
X73473Y23104D01*
X73578Y22851D02*
X97166Y22851D01*
X97166Y22599D02*
X73651Y22599D01*
X73651Y22346D02*
X76606Y22346D01*
X76353Y22094D02*
X73651Y22094D01*
X72915Y23861D02*
X93508Y23861D01*
X97094Y22346D02*
X97167Y22346D01*
X97178Y17549D02*
X96657Y17549D01*
X96587Y13761D02*
X97186Y13761D01*
X97187Y13509D02*
X52798Y13509D01*
X52545Y13256D02*
X97188Y13256D01*
X97188Y13004D02*
X32149Y13004D01*
X32149Y13256D02*
X49199Y13256D01*
X48740Y13509D02*
X32045Y13509D01*
X31941Y13761D02*
X48487Y13761D01*
X48329Y14014D02*
X31737Y14014D01*
X31600Y14266D02*
X48225Y14266D01*
X48153Y14519D02*
X31852Y14519D01*
X31988Y14771D02*
X48153Y14771D01*
X48153Y15024D02*
X32093Y15024D01*
X32149Y15276D02*
X48235Y15276D01*
X48340Y15529D02*
X32149Y15529D01*
X32149Y15781D02*
X48512Y15781D01*
X48765Y16034D02*
X32051Y16034D01*
X31947Y16286D02*
X49259Y16286D01*
X50247Y16286D02*
X51049Y16286D01*
X50797Y16034D02*
X50741Y16034D01*
X52520Y16286D02*
X53614Y16286D01*
X53614Y16034D02*
X52773Y16034D01*
X53614Y16539D02*
X31752Y16539D01*
X31585Y16791D02*
X53614Y16791D01*
X53614Y17044D02*
X31837Y17044D01*
X31982Y17296D02*
X53614Y17296D01*
X53614Y17549D02*
X32087Y17549D01*
X32149Y17801D02*
X53614Y17801D01*
X53614Y18054D02*
X32149Y18054D01*
X32149Y18306D02*
X53614Y18306D01*
X53614Y18559D02*
X32058Y18559D01*
X31953Y18811D02*
X48926Y18811D01*
X48673Y19064D02*
X31767Y19064D01*
X32752Y19316D02*
X48421Y19316D01*
X48168Y19569D02*
X33504Y19569D01*
X33482Y19553D02*
X33482Y19553D01*
X33851Y19821D02*
X47959Y19821D01*
X47959Y20074D02*
X34156Y20074D01*
X34109Y20009D02*
X34109Y20009D01*
X34109Y20009D01*
X34340Y20326D02*
X47959Y20326D01*
X47959Y20579D02*
X34523Y20579D01*
X34564Y20635D02*
X34564Y20635D01*
X34628Y20831D02*
X47959Y20831D01*
X47959Y21084D02*
X34710Y21084D01*
X34792Y21336D02*
X48076Y21336D01*
X48328Y21589D02*
X34803Y21589D01*
X34803Y21841D02*
X48581Y21841D01*
X50817Y21841D02*
X53514Y21841D01*
X53408Y21589D02*
X51069Y21589D01*
X51322Y21336D02*
X53156Y21336D01*
X53039Y21084D02*
X51439Y21084D01*
X51439Y20831D02*
X53039Y20831D01*
X53039Y20579D02*
X51439Y20579D01*
X51439Y20326D02*
X53039Y20326D01*
X53039Y20074D02*
X51439Y20074D01*
X51439Y19821D02*
X53039Y19821D01*
X53248Y19569D02*
X51229Y19569D01*
X50977Y19316D02*
X53501Y19316D01*
X53614Y19064D02*
X50724Y19064D01*
X50472Y18811D02*
X53614Y18811D01*
X56519Y19821D02*
X66686Y19821D01*
X66433Y20074D02*
X56519Y20074D01*
X56519Y20326D02*
X66318Y20326D01*
X66318Y20579D02*
X56519Y20579D01*
X56519Y20831D02*
X66318Y20831D01*
X66318Y21084D02*
X56519Y21084D01*
X56402Y21336D02*
X66486Y21336D01*
X66738Y21589D02*
X56149Y21589D01*
X56003Y22346D02*
X64311Y22346D01*
X64113Y22411D02*
X64113Y22411D01*
X63854Y22599D02*
X55921Y22599D01*
X55839Y22851D02*
X63507Y22851D01*
X63475Y22875D02*
X63475Y22875D01*
X63475Y22875D01*
X63308Y23104D02*
X55749Y23104D01*
X55565Y23356D02*
X63125Y23356D01*
X63011Y23513D02*
X63011Y23513D01*
X62980Y23609D02*
X55382Y23609D01*
X55099Y23861D02*
X62897Y23861D01*
X62815Y24114D02*
X54752Y24114D01*
X54682Y24164D02*
X54682Y24164D01*
X54060Y24366D02*
X62767Y24366D01*
X62767Y24619D02*
X34803Y24619D01*
X34803Y24871D02*
X62767Y24871D01*
X62767Y25124D02*
X34803Y25124D01*
X34803Y25376D02*
X62767Y25376D01*
X62767Y25629D02*
X34803Y25629D01*
X34803Y25881D02*
X62767Y25881D01*
X62767Y26134D02*
X34803Y26134D01*
X34803Y26386D02*
X62767Y26386D01*
X62767Y26639D02*
X34803Y26639D01*
X34803Y26891D02*
X62767Y26891D01*
X62767Y27144D02*
X60243Y27144D01*
X60190Y27091D02*
X60800Y27701D01*
X60800Y28057D01*
X59835Y28057D01*
X59835Y27091D01*
X60190Y27091D01*
X59835Y27144D02*
X59683Y27144D01*
X59683Y27396D02*
X59835Y27396D01*
X59835Y27649D02*
X59683Y27649D01*
X59683Y27901D02*
X59835Y27901D01*
X59835Y28154D02*
X62767Y28154D01*
X62767Y28406D02*
X60800Y28406D01*
X60706Y28659D02*
X62767Y28659D01*
X62767Y28911D02*
X60768Y28911D01*
X61021Y29164D02*
X62767Y29164D01*
X62767Y29416D02*
X61181Y29416D01*
X61285Y29669D02*
X62767Y29669D01*
X62767Y29921D02*
X61359Y29921D01*
X61359Y30174D02*
X62767Y30174D01*
X62767Y30426D02*
X61359Y30426D01*
X61278Y30679D02*
X62767Y30679D01*
X62767Y30931D02*
X61173Y30931D01*
X61003Y31184D02*
X62767Y31184D01*
X62767Y31436D02*
X60750Y31436D01*
X60261Y31689D02*
X62767Y31689D01*
X62767Y27901D02*
X60800Y27901D01*
X60748Y27649D02*
X62767Y27649D01*
X62767Y27396D02*
X60495Y27396D01*
X59683Y28154D02*
X39814Y28154D01*
X39562Y27901D02*
X58717Y27901D01*
X58770Y27649D02*
X39309Y27649D01*
X39057Y27396D02*
X59023Y27396D01*
X59275Y27144D02*
X34803Y27144D01*
X34803Y27396D02*
X37221Y27396D01*
X36968Y27649D02*
X34733Y27649D01*
X34651Y27901D02*
X36716Y27901D01*
X36463Y28154D02*
X34566Y28154D01*
X34572Y28146D02*
X34572Y28146D01*
X34383Y28406D02*
X36399Y28406D01*
X36399Y28659D02*
X34199Y28659D01*
X33912Y28911D02*
X36399Y28911D01*
X36399Y29164D02*
X33564Y29164D01*
X32835Y29416D02*
X36399Y29416D01*
X36408Y29669D02*
X31134Y29669D01*
X29130Y29921D02*
X36661Y29921D01*
X36913Y30174D02*
X29128Y30174D01*
X29126Y30426D02*
X37166Y30426D01*
X39112Y30426D02*
X52159Y30426D01*
X52159Y30174D02*
X39364Y30174D01*
X50307Y13256D02*
X51024Y13256D01*
X50772Y13509D02*
X50766Y13509D01*
X65041Y24441D02*
X64985Y24519D01*
X64955Y24611D01*
X64951Y24659D01*
X64951Y27629D01*
X65102Y27567D01*
X71467Y27567D01*
X71467Y27207D01*
X70779Y26519D01*
X70779Y25078D01*
X71506Y24351D01*
X65259Y24351D01*
X65211Y24355D01*
X65119Y24385D01*
X65041Y24441D01*
X65175Y24366D02*
X71491Y24366D01*
X71238Y24619D02*
X67929Y24619D01*
X67928Y24618D02*
X68620Y25310D01*
X68620Y25723D01*
X67515Y25723D01*
X67515Y25875D01*
X68620Y25875D01*
X68620Y26288D01*
X67928Y26980D01*
X67515Y26980D01*
X67515Y25875D01*
X67363Y25875D01*
X67363Y26980D01*
X66950Y26980D01*
X66258Y26288D01*
X66258Y25875D01*
X67363Y25875D01*
X67363Y25723D01*
X67515Y25723D01*
X67515Y24618D01*
X67928Y24618D01*
X68182Y24871D02*
X70986Y24871D01*
X70779Y25124D02*
X68434Y25124D01*
X68620Y25376D02*
X70779Y25376D01*
X70779Y25629D02*
X68620Y25629D01*
X68620Y25881D02*
X70779Y25881D01*
X70779Y26134D02*
X68620Y26134D01*
X68522Y26386D02*
X70779Y26386D01*
X70898Y26639D02*
X68269Y26639D01*
X68017Y26891D02*
X71151Y26891D01*
X71403Y27144D02*
X64951Y27144D01*
X64951Y27396D02*
X71467Y27396D01*
X73651Y27396D02*
X76576Y27396D01*
X76323Y27144D02*
X73651Y27144D01*
X73547Y24366D02*
X76371Y24366D01*
X76623Y24114D02*
X73294Y24114D01*
X72744Y24032D02*
X72744Y24032D01*
X67515Y24619D02*
X67363Y24619D01*
X67363Y24618D02*
X67363Y25723D01*
X66258Y25723D01*
X66258Y25310D01*
X66950Y24618D01*
X67363Y24618D01*
X67363Y24871D02*
X67515Y24871D01*
X67515Y25124D02*
X67363Y25124D01*
X67363Y25376D02*
X67515Y25376D01*
X67515Y25629D02*
X67363Y25629D01*
X67363Y25881D02*
X67515Y25881D01*
X67515Y26134D02*
X67363Y26134D01*
X67363Y26386D02*
X67515Y26386D01*
X67515Y26639D02*
X67363Y26639D01*
X67363Y26891D02*
X67515Y26891D01*
X66861Y26891D02*
X64951Y26891D01*
X64951Y26639D02*
X66608Y26639D01*
X66356Y26386D02*
X64951Y26386D01*
X64951Y26134D02*
X66258Y26134D01*
X66258Y25881D02*
X64951Y25881D01*
X64951Y25629D02*
X66258Y25629D01*
X66258Y25376D02*
X64951Y25376D01*
X64951Y25124D02*
X66443Y25124D01*
X66696Y24871D02*
X64951Y24871D01*
X64954Y24619D02*
X66948Y24619D01*
X65211Y24355D02*
X65211Y24355D01*
X78497Y19316D02*
X81558Y19316D01*
X83204Y17296D02*
X89353Y17296D01*
X89101Y17044D02*
X83457Y17044D01*
X83709Y16791D02*
X88848Y16791D01*
X88596Y16539D02*
X83962Y16539D01*
X84069Y16286D02*
X88489Y16286D01*
X88489Y16034D02*
X84069Y16034D01*
X84069Y15781D02*
X88489Y15781D01*
X88489Y15529D02*
X84069Y15529D01*
X84069Y15276D02*
X88489Y15276D01*
X88571Y15024D02*
X83987Y15024D01*
X83734Y14771D02*
X88823Y14771D01*
X89076Y14519D02*
X83482Y14519D01*
X83229Y14266D02*
X89328Y14266D01*
X93044Y12246D02*
X78392Y12246D01*
X78644Y11994D02*
X81511Y11994D01*
X83327Y11994D02*
X89131Y11994D01*
X88878Y11741D02*
X83579Y11741D01*
X83832Y11489D02*
X88626Y11489D01*
X88439Y11236D02*
X84019Y11236D01*
X84019Y10984D02*
X88439Y10984D01*
X88439Y10731D02*
X84019Y10731D01*
X84019Y10479D02*
X88439Y10479D01*
X88439Y10226D02*
X84019Y10226D01*
X84017Y09974D02*
X88441Y09974D01*
X88693Y09721D02*
X83764Y09721D01*
X83512Y09469D02*
X88946Y09469D01*
X89198Y09216D02*
X83259Y09216D01*
X81578Y09216D02*
X78457Y09216D01*
X78204Y08964D02*
X93171Y08964D01*
X92862Y09216D02*
X90879Y09216D01*
X93781Y08711D02*
X29277Y08711D01*
X29278Y08459D02*
X97199Y08459D01*
X97198Y08711D02*
X96537Y08711D01*
X97146Y08964D02*
X97198Y08964D01*
X97199Y08206D02*
X29280Y08206D01*
X29282Y07954D02*
X97200Y07954D01*
X97200Y07701D02*
X29284Y07701D01*
X29285Y07449D02*
X97201Y07449D01*
X97202Y07196D02*
X29287Y07196D01*
X29289Y06944D02*
X97202Y06944D01*
X97203Y06691D02*
X29291Y06691D01*
X29292Y06439D02*
X97203Y06439D01*
X97204Y06186D02*
X29294Y06186D01*
X29296Y05934D02*
X97204Y05934D01*
X97205Y05681D02*
X29298Y05681D01*
X29299Y05429D02*
X97206Y05429D01*
X97206Y05176D02*
X29301Y05176D01*
X29303Y04924D02*
X97207Y04924D01*
X97207Y04671D02*
X29305Y04671D01*
X29306Y04419D02*
X97208Y04419D01*
X97209Y04166D02*
X29308Y04166D01*
X32099Y12499D02*
X93610Y12499D01*
X92792Y11994D02*
X90947Y11994D01*
X96707Y12499D02*
X97189Y12499D01*
X97189Y12751D02*
X32149Y12751D01*
X78427Y14266D02*
X81708Y14266D01*
X81456Y14519D02*
X78679Y14519D01*
D20*
X72579Y20479D02*
X72579Y20679D01*
X72579Y20479D02*
X72577Y20471D01*
X72573Y20465D01*
X72567Y20461D01*
X72559Y20459D01*
X72559Y22259D01*
X72557Y22319D01*
X72552Y22380D01*
X72543Y22439D01*
X72530Y22498D01*
X72514Y22557D01*
X72494Y22614D01*
X72471Y22669D01*
X72444Y22724D01*
X72415Y22776D01*
X72382Y22827D01*
X72346Y22876D01*
X72308Y22922D01*
X72266Y22966D01*
X72222Y23008D01*
X72176Y23046D01*
X72127Y23082D01*
X72076Y23115D01*
X72024Y23144D01*
X71969Y23171D01*
X71914Y23194D01*
X71857Y23214D01*
X71798Y23230D01*
X71739Y23243D01*
X71680Y23252D01*
X71619Y23257D01*
X71559Y23259D01*
X65259Y23259D01*
X65186Y23261D01*
X65113Y23267D01*
X65040Y23276D01*
X64968Y23290D01*
X64897Y23307D01*
X64826Y23328D01*
X64757Y23352D01*
X64690Y23380D01*
X64623Y23412D01*
X64559Y23447D01*
X64497Y23485D01*
X64436Y23526D01*
X64378Y23571D01*
X64322Y23619D01*
X64269Y23669D01*
X64219Y23722D01*
X64171Y23778D01*
X64126Y23836D01*
X64085Y23897D01*
X64047Y23959D01*
X64012Y24023D01*
X63980Y24090D01*
X63952Y24157D01*
X63928Y24226D01*
X63907Y24297D01*
X63890Y24368D01*
X63876Y24440D01*
X63867Y24513D01*
X63861Y24586D01*
X63859Y24659D01*
X63859Y37159D01*
X63857Y37226D01*
X63851Y37293D01*
X63842Y37360D01*
X63829Y37426D01*
X63812Y37491D01*
X63792Y37555D01*
X63768Y37618D01*
X63740Y37680D01*
X63709Y37739D01*
X63675Y37797D01*
X63638Y37853D01*
X63597Y37907D01*
X63554Y37959D01*
X63508Y38008D01*
X63459Y38054D01*
X63407Y38097D01*
X63353Y38138D01*
X63297Y38175D01*
X63239Y38209D01*
X63180Y38240D01*
X63118Y38268D01*
X63055Y38292D01*
X62991Y38312D01*
X62926Y38329D01*
X62860Y38342D01*
X62793Y38351D01*
X62726Y38357D01*
X62659Y38359D01*
X45059Y38359D01*
X46259Y41359D02*
X62159Y41359D01*
X62259Y41357D01*
X62358Y41351D01*
X62457Y41342D01*
X62556Y41329D01*
X62654Y41311D01*
X62751Y41291D01*
X62848Y41266D01*
X62943Y41238D01*
X63038Y41206D01*
X63131Y41171D01*
X63223Y41132D01*
X63313Y41089D01*
X63401Y41043D01*
X63488Y40994D01*
X63572Y40941D01*
X63655Y40886D01*
X63735Y40827D01*
X63813Y40765D01*
X63889Y40700D01*
X63962Y40632D01*
X64032Y40562D01*
X64100Y40489D01*
X64165Y40413D01*
X64227Y40335D01*
X64286Y40255D01*
X64341Y40172D01*
X64394Y40088D01*
X64443Y40001D01*
X64489Y39913D01*
X64532Y39823D01*
X64571Y39731D01*
X64606Y39638D01*
X64638Y39543D01*
X64666Y39448D01*
X64691Y39351D01*
X64711Y39254D01*
X64729Y39156D01*
X64742Y39057D01*
X64751Y38958D01*
X64757Y38859D01*
X64759Y38759D01*
X64759Y29359D01*
X64761Y29309D01*
X64766Y29259D01*
X64775Y29210D01*
X64787Y29162D01*
X64803Y29114D01*
X64822Y29068D01*
X64845Y29024D01*
X64870Y28981D01*
X64899Y28940D01*
X64930Y28901D01*
X64964Y28864D01*
X65001Y28830D01*
X65040Y28799D01*
X65081Y28770D01*
X65124Y28745D01*
X65168Y28722D01*
X65214Y28703D01*
X65262Y28687D01*
X65310Y28675D01*
X65359Y28666D01*
X65409Y28661D01*
X65459Y28659D01*
X71659Y28659D01*
X71718Y28657D01*
X71776Y28651D01*
X71835Y28642D01*
X71892Y28628D01*
X71948Y28611D01*
X72003Y28590D01*
X72057Y28566D01*
X72109Y28538D01*
X72159Y28507D01*
X72207Y28473D01*
X72252Y28436D01*
X72295Y28395D01*
X72336Y28352D01*
X72373Y28307D01*
X72407Y28259D01*
X72438Y28209D01*
X72466Y28157D01*
X72490Y28103D01*
X72511Y28048D01*
X72528Y27992D01*
X72542Y27935D01*
X72551Y27876D01*
X72557Y27818D01*
X72559Y27759D01*
X72559Y25859D01*
X72519Y25799D02*
X72499Y25799D01*
X72489Y25798D01*
X72479Y25794D01*
X72471Y25787D01*
X72464Y25779D01*
X72460Y25769D01*
X72459Y25759D01*
X72476Y25761D01*
X72493Y25765D01*
X72509Y25772D01*
X72523Y25782D01*
X72536Y25795D01*
X72546Y25809D01*
X72553Y25825D01*
X72557Y25842D01*
X72559Y25859D01*
X72359Y42459D02*
X72357Y42540D01*
X72351Y42621D01*
X72342Y42701D01*
X72328Y42781D01*
X72311Y42860D01*
X72290Y42938D01*
X72266Y43015D01*
X72237Y43091D01*
X72205Y43165D01*
X72170Y43238D01*
X72131Y43309D01*
X72089Y43378D01*
X72044Y43445D01*
X71995Y43510D01*
X71944Y43572D01*
X71889Y43632D01*
X71832Y43689D01*
X71772Y43744D01*
X71710Y43795D01*
X71645Y43844D01*
X71578Y43889D01*
X71509Y43931D01*
X71438Y43970D01*
X71365Y44005D01*
X71291Y44037D01*
X71215Y44066D01*
X71138Y44090D01*
X71060Y44111D01*
X70981Y44128D01*
X70901Y44142D01*
X70821Y44151D01*
X70740Y44157D01*
X70659Y44159D01*
X44859Y44159D01*
X44812Y44157D01*
X44765Y44152D01*
X44719Y44142D01*
X44674Y44130D01*
X44629Y44113D01*
X44587Y44094D01*
X44546Y44071D01*
X44506Y44044D01*
X44469Y44015D01*
X44435Y43983D01*
X44403Y43949D01*
X44374Y43912D01*
X44347Y43872D01*
X44324Y43831D01*
X44305Y43789D01*
X44288Y43744D01*
X44276Y43699D01*
X44266Y43653D01*
X44261Y43606D01*
X44259Y43559D01*
X44359Y45159D02*
X71459Y45159D01*
X71518Y45161D01*
X71576Y45167D01*
X71635Y45176D01*
X71692Y45190D01*
X71748Y45207D01*
X71803Y45228D01*
X71857Y45252D01*
X71909Y45280D01*
X71959Y45311D01*
X72007Y45345D01*
X72052Y45382D01*
X72095Y45423D01*
X72136Y45466D01*
X72173Y45511D01*
X72207Y45559D01*
X72238Y45609D01*
X72266Y45661D01*
X72290Y45715D01*
X72311Y45770D01*
X72328Y45826D01*
X72342Y45883D01*
X72351Y45942D01*
X72357Y46000D01*
X72359Y46059D01*
X72359Y47459D01*
X72319Y47519D02*
X72419Y47519D01*
X72429Y47520D01*
X72439Y47524D01*
X72447Y47531D01*
X72454Y47539D01*
X72458Y47549D01*
X72459Y47559D01*
X72442Y47557D01*
X72425Y47553D01*
X72409Y47546D01*
X72395Y47536D01*
X72382Y47523D01*
X72372Y47509D01*
X72365Y47493D01*
X72361Y47476D01*
X72359Y47459D01*
X28629Y24359D02*
X15159Y24359D01*
X13559Y24359D01*
X12459Y22159D02*
X12386Y22161D01*
X12313Y22167D01*
X12240Y22176D01*
X12168Y22190D01*
X12097Y22207D01*
X12026Y22228D01*
X11957Y22252D01*
X11890Y22280D01*
X11823Y22312D01*
X11759Y22347D01*
X11697Y22385D01*
X11636Y22426D01*
X11578Y22471D01*
X11522Y22519D01*
X11469Y22569D01*
X11419Y22622D01*
X11371Y22678D01*
X11326Y22736D01*
X11285Y22797D01*
X11247Y22859D01*
X11212Y22923D01*
X11180Y22990D01*
X11152Y23057D01*
X11128Y23126D01*
X11107Y23197D01*
X11090Y23268D01*
X11076Y23340D01*
X11067Y23413D01*
X11061Y23486D01*
X11059Y23559D01*
X11057Y23616D01*
X11051Y23672D01*
X11042Y23728D01*
X11028Y23783D01*
X11011Y23837D01*
X10990Y23890D01*
X10966Y23941D01*
X10938Y23990D01*
X10907Y24038D01*
X10873Y24083D01*
X10836Y24126D01*
X10796Y24166D01*
X10753Y24203D01*
X10708Y24237D01*
X10660Y24268D01*
X10611Y24296D01*
X10560Y24320D01*
X10507Y24341D01*
X10453Y24358D01*
X10398Y24372D01*
X10342Y24381D01*
X10286Y24387D01*
X10229Y24389D01*
X08479Y24389D01*
X10989Y26929D02*
X11046Y26927D01*
X11103Y26922D01*
X11159Y26912D01*
X11214Y26899D01*
X11269Y26883D01*
X11322Y26863D01*
X11374Y26839D01*
X11424Y26812D01*
X11472Y26782D01*
X11519Y26749D01*
X11563Y26713D01*
X11604Y26674D01*
X11643Y26633D01*
X11679Y26589D01*
X11712Y26542D01*
X11742Y26494D01*
X11769Y26444D01*
X11793Y26392D01*
X11813Y26339D01*
X11829Y26284D01*
X11842Y26229D01*
X11852Y26173D01*
X11857Y26116D01*
X11859Y26059D01*
X10989Y26929D02*
X08479Y26929D01*
X11849Y29469D02*
X11920Y29467D01*
X11991Y29461D01*
X12061Y29452D01*
X12131Y29438D01*
X12199Y29421D01*
X12267Y29400D01*
X12334Y29376D01*
X12399Y29348D01*
X12463Y29316D01*
X12524Y29281D01*
X12584Y29243D01*
X12642Y29202D01*
X12697Y29157D01*
X12750Y29110D01*
X12800Y29060D01*
X12847Y29007D01*
X12892Y28952D01*
X12933Y28894D01*
X12971Y28834D01*
X13006Y28773D01*
X13038Y28709D01*
X13066Y28644D01*
X13090Y28577D01*
X13111Y28509D01*
X13128Y28441D01*
X13142Y28371D01*
X13151Y28301D01*
X13157Y28230D01*
X13159Y28159D01*
X13161Y28076D01*
X13167Y27993D01*
X13176Y27910D01*
X13190Y27828D01*
X13207Y27747D01*
X13228Y27666D01*
X13252Y27587D01*
X13281Y27509D01*
X13312Y27432D01*
X13348Y27357D01*
X13386Y27283D01*
X13429Y27211D01*
X13474Y27142D01*
X13523Y27074D01*
X13574Y27009D01*
X13629Y26946D01*
X13686Y26886D01*
X13746Y26829D01*
X13809Y26774D01*
X13874Y26723D01*
X13942Y26674D01*
X14011Y26629D01*
X14083Y26586D01*
X14157Y26548D01*
X14232Y26512D01*
X14309Y26481D01*
X14387Y26452D01*
X14466Y26428D01*
X14547Y26407D01*
X14628Y26390D01*
X14710Y26376D01*
X14793Y26367D01*
X14876Y26361D01*
X14959Y26359D01*
X16159Y26359D01*
X21319Y26359D01*
X21375Y26357D01*
X21431Y26351D01*
X21486Y26342D01*
X21540Y26329D01*
X21594Y26312D01*
X21646Y26291D01*
X21696Y26267D01*
X21745Y26240D01*
X21792Y26209D01*
X21836Y26175D01*
X21879Y26138D01*
X21918Y26099D01*
X21955Y26056D01*
X21989Y26012D01*
X22020Y25965D01*
X22047Y25916D01*
X22071Y25866D01*
X22092Y25814D01*
X22109Y25760D01*
X22122Y25706D01*
X22131Y25651D01*
X22137Y25595D01*
X22139Y25539D01*
X20669Y22159D02*
X13459Y22159D01*
X12459Y22159D01*
X13559Y24359D02*
X13478Y24361D01*
X13397Y24367D01*
X13317Y24376D01*
X13237Y24390D01*
X13158Y24407D01*
X13080Y24428D01*
X13003Y24452D01*
X12927Y24481D01*
X12853Y24513D01*
X12780Y24548D01*
X12709Y24587D01*
X12640Y24629D01*
X12573Y24674D01*
X12508Y24723D01*
X12446Y24774D01*
X12386Y24829D01*
X12329Y24886D01*
X12274Y24946D01*
X12223Y25008D01*
X12174Y25073D01*
X12129Y25140D01*
X12087Y25209D01*
X12048Y25280D01*
X12013Y25353D01*
X11981Y25427D01*
X11952Y25503D01*
X11928Y25580D01*
X11907Y25658D01*
X11890Y25737D01*
X11876Y25817D01*
X11867Y25897D01*
X11861Y25978D01*
X11859Y26059D01*
X11849Y29469D02*
X08479Y29469D01*
X20669Y22159D02*
X20748Y22157D01*
X20826Y22151D01*
X20904Y22142D01*
X20981Y22128D01*
X21058Y22111D01*
X21133Y22090D01*
X21208Y22065D01*
X21281Y22037D01*
X21353Y22005D01*
X21423Y21970D01*
X21492Y21931D01*
X21558Y21889D01*
X21622Y21844D01*
X21684Y21796D01*
X21743Y21745D01*
X21800Y21690D01*
X21855Y21633D01*
X21906Y21574D01*
X21954Y21512D01*
X21999Y21448D01*
X22041Y21382D01*
X22080Y21313D01*
X22115Y21243D01*
X22147Y21171D01*
X22175Y21098D01*
X22200Y21023D01*
X22221Y20948D01*
X22238Y20871D01*
X22252Y20794D01*
X22261Y20716D01*
X22267Y20638D01*
X22269Y20559D01*
X28629Y24359D02*
X28697Y24357D01*
X28765Y24352D01*
X28833Y24342D01*
X28900Y24330D01*
X28966Y24313D01*
X29031Y24293D01*
X29095Y24270D01*
X29158Y24243D01*
X29219Y24212D01*
X29279Y24179D01*
X29336Y24142D01*
X29392Y24102D01*
X29445Y24059D01*
X29496Y24014D01*
X29544Y23966D01*
X29589Y23915D01*
X29632Y23862D01*
X29672Y23806D01*
X29709Y23749D01*
X29742Y23689D01*
X29773Y23628D01*
X29800Y23565D01*
X29823Y23501D01*
X29843Y23436D01*
X29860Y23370D01*
X29872Y23303D01*
X29882Y23235D01*
X29887Y23167D01*
X29889Y23099D01*
D21*
X45059Y38359D03*
X46259Y41359D03*
X44259Y43559D03*
X44359Y45159D03*
D22*
X26859Y21659D02*
X26859Y21159D01*
X26857Y21109D01*
X26852Y21059D01*
X26843Y21010D01*
X26831Y20962D01*
X26815Y20914D01*
X26796Y20868D01*
X26773Y20824D01*
X26748Y20781D01*
X26719Y20740D01*
X26688Y20701D01*
X26654Y20664D01*
X26617Y20630D01*
X26578Y20599D01*
X26537Y20570D01*
X26494Y20545D01*
X26450Y20522D01*
X26404Y20503D01*
X26356Y20487D01*
X26308Y20475D01*
X26259Y20466D01*
X26209Y20461D01*
X26159Y20459D01*
M02*
