G75*
%MOMM*%
%OFA0B0*%
%FSLAX33Y33*%
%IPPOS*%
%LPD*%
%AMOC8*
5,1,8,0,0,1.08239X$1,22.5*
%
%ADD10C,0.152*%
%ADD11R,1.200X0.350*%
%ADD12C,1.321*%
%ADD13OC8,1.600*%
%ADD14OC8,1.321*%
%ADD15C,1.981*%
%ADD16OC8,1.524*%
%ADD17C,1.524*%
%ADD18OC8,1.905*%
%ADD19C,1.321*%
%ADD20C,0.305*%
%ADD21C,0.610*%
%ADD22C,1.006*%
D10*
X63835Y66635D02*
X63835Y67720D01*
X64377Y68262D01*
X64920Y67720D01*
X64920Y66635D01*
X65472Y66635D02*
X66286Y66635D01*
X66557Y66906D01*
X66557Y67991D01*
X66286Y68262D01*
X65472Y68262D01*
X65472Y66635D01*
X64920Y67448D02*
X63835Y67448D01*
X67109Y67720D02*
X67380Y67448D01*
X67923Y67448D01*
X68194Y67177D01*
X68194Y66906D01*
X67923Y66635D01*
X67380Y66635D01*
X67109Y66906D01*
X67109Y67720D02*
X67109Y67991D01*
X67380Y68262D01*
X67923Y68262D01*
X68194Y67991D01*
X68746Y67720D02*
X69289Y68262D01*
X69289Y66635D01*
X69831Y66635D02*
X68746Y66635D01*
X70384Y66635D02*
X71468Y67720D01*
X71468Y67991D01*
X71197Y68262D01*
X70655Y68262D01*
X70384Y67991D01*
X70384Y66635D02*
X71468Y66635D01*
X72021Y67448D02*
X73105Y67448D01*
X73658Y67177D02*
X73929Y67448D01*
X74471Y67448D01*
X74743Y67177D01*
X74743Y66906D01*
X74471Y66635D01*
X73929Y66635D01*
X73658Y66906D01*
X73658Y67177D01*
X73929Y67448D02*
X73658Y67720D01*
X73658Y67991D01*
X73929Y68262D01*
X74471Y68262D01*
X74743Y67991D01*
X74743Y67720D01*
X74471Y67448D01*
X72834Y66635D02*
X72834Y68262D01*
X72021Y67448D01*
X76932Y67448D02*
X78017Y67448D01*
X80207Y67991D02*
X80478Y68262D01*
X81020Y68262D01*
X81291Y67991D01*
X81291Y67720D01*
X80207Y66635D01*
X81291Y66635D01*
X81844Y66906D02*
X82115Y66635D01*
X82657Y66635D01*
X82928Y66906D01*
X82928Y67448D01*
X82657Y67720D01*
X82386Y67720D01*
X81844Y67448D01*
X81844Y68262D01*
X82928Y68262D01*
X84299Y67991D02*
X84299Y66906D01*
X85384Y67991D01*
X85384Y66906D01*
X85113Y66635D01*
X84571Y66635D01*
X84299Y66906D01*
X83752Y66906D02*
X83752Y66635D01*
X83481Y66635D01*
X83481Y66906D01*
X83752Y66906D01*
X84299Y67991D02*
X84571Y68262D01*
X85113Y68262D01*
X85384Y67991D01*
X85937Y67991D02*
X85937Y67720D01*
X86208Y67448D01*
X87021Y67448D01*
X87021Y66906D02*
X87021Y67991D01*
X86750Y68262D01*
X86208Y68262D01*
X85937Y67991D01*
X85937Y66906D02*
X86208Y66635D01*
X86750Y66635D01*
X87021Y66906D01*
X87574Y66906D02*
X87845Y66906D01*
X87845Y66635D01*
X87574Y66635D01*
X87574Y66906D01*
X88392Y66635D02*
X89477Y66635D01*
X88935Y66635D02*
X88935Y68262D01*
X88392Y67720D01*
X90029Y68262D02*
X91114Y68262D01*
X91114Y67991D01*
X90029Y66906D01*
X90029Y66635D01*
X93304Y67177D02*
X93846Y66635D01*
X94388Y67177D01*
X94388Y68262D01*
X94941Y67991D02*
X94941Y67720D01*
X95212Y67448D01*
X95754Y67448D01*
X96026Y67177D01*
X96026Y66906D01*
X95754Y66635D01*
X95212Y66635D01*
X94941Y66906D01*
X94941Y67991D02*
X95212Y68262D01*
X95754Y68262D01*
X96026Y67991D01*
X93304Y68262D02*
X93304Y67177D01*
D11*
X49624Y33454D03*
X49624Y32804D03*
X49624Y32154D03*
X49624Y31504D03*
X49624Y30854D03*
X49624Y30204D03*
X49624Y29554D03*
X49624Y28904D03*
X49624Y28254D03*
X49624Y27604D03*
X49624Y26954D03*
X49624Y26304D03*
X49624Y25654D03*
X49624Y25004D03*
X43674Y25004D03*
X43674Y25654D03*
X43674Y26304D03*
X43674Y26954D03*
X43674Y27604D03*
X43674Y28254D03*
X43674Y28904D03*
X43674Y29554D03*
X43674Y30204D03*
X43674Y30854D03*
X43674Y31504D03*
X43674Y32154D03*
X43674Y32804D03*
X43674Y33454D03*
D12*
X22929Y12939D02*
X21608Y12939D01*
X21608Y15479D02*
X22929Y15479D01*
X22929Y18019D02*
X21608Y18019D01*
X21608Y20559D02*
X22929Y20559D01*
X22929Y23099D02*
X21608Y23099D01*
X21608Y25639D02*
X22929Y25639D01*
X22929Y28179D02*
X21608Y28179D01*
X29228Y28179D02*
X30549Y28179D01*
X30549Y25639D02*
X29228Y25639D01*
X29228Y23099D02*
X30549Y23099D01*
X30549Y20559D02*
X29228Y20559D01*
X29228Y18019D02*
X30549Y18019D01*
X30549Y15479D02*
X29228Y15479D01*
X29228Y12939D02*
X30549Y12939D01*
D13*
X49699Y20499D03*
X54779Y20499D03*
X67499Y20679D03*
X72579Y20679D03*
X77419Y20699D03*
X77479Y15779D03*
X72619Y15759D03*
X67539Y15759D03*
X67669Y10729D03*
X72749Y10729D03*
X77479Y10699D03*
X77419Y25779D03*
X72519Y25799D03*
X67439Y25799D03*
X67399Y32339D03*
X72479Y32339D03*
X77459Y32419D03*
X77459Y37499D03*
X72429Y37489D03*
X67349Y37489D03*
X67299Y42459D03*
X72379Y42459D03*
X77439Y42499D03*
X77439Y47579D03*
X72319Y47519D03*
X67239Y47519D03*
X53899Y35279D03*
X53899Y30199D03*
X38139Y28939D03*
X38139Y34019D03*
X29889Y49809D03*
X29889Y54889D03*
X06239Y54849D03*
X06239Y49769D03*
D14*
X23959Y52285D03*
X48109Y52285D03*
X32109Y34085D03*
X17849Y28169D03*
X17849Y20549D03*
X51785Y14759D03*
X59759Y28133D03*
X82399Y25759D03*
X82399Y20739D03*
X82469Y15769D03*
X90019Y20739D03*
X90089Y15769D03*
X90039Y10639D03*
X82419Y10639D03*
X90019Y25759D03*
X90019Y32479D03*
X90019Y37499D03*
X90019Y42519D03*
X90019Y47539D03*
X82399Y47539D03*
X82399Y42519D03*
X82399Y37499D03*
X82399Y32479D03*
D15*
X94168Y32470D02*
X96149Y32470D01*
X96149Y37500D02*
X94168Y37500D01*
X94168Y42478D02*
X96149Y42478D01*
X96149Y47507D02*
X94168Y47507D01*
X94168Y25677D02*
X96149Y25677D01*
X96149Y20648D02*
X94168Y20648D01*
X94168Y15670D02*
X96149Y15670D01*
X96149Y10640D02*
X94168Y10640D01*
D16*
X08479Y21849D03*
X05939Y21849D03*
X05939Y24389D03*
X05939Y26929D03*
X08479Y26929D03*
X08479Y24389D03*
X08479Y29469D03*
X05939Y29469D03*
D17*
X11789Y49517D02*
X11789Y51041D01*
X14329Y51041D02*
X14329Y49517D01*
X16869Y49517D02*
X16869Y51041D01*
X35789Y51041D02*
X35789Y49517D01*
X38329Y49517D02*
X38329Y51041D01*
X40869Y51041D02*
X40869Y49517D01*
D18*
X29994Y43649D03*
X26184Y43649D03*
X22374Y43649D03*
D19*
X23959Y50253D03*
X48109Y50253D03*
X32109Y32053D03*
X49753Y14759D03*
X59759Y30165D03*
D20*
X59759Y30159D01*
X53899Y30159D01*
X53899Y30199D01*
X53899Y30159D02*
X49724Y30159D01*
X49624Y30204D01*
X49624Y30854D02*
X48564Y30854D01*
X48537Y30856D01*
X48511Y30861D01*
X48486Y30870D01*
X48462Y30881D01*
X48439Y30896D01*
X48419Y30914D01*
X48401Y30934D01*
X48386Y30957D01*
X48375Y30981D01*
X48366Y31006D01*
X48361Y31032D01*
X48359Y31059D01*
X48359Y34959D01*
X48361Y34993D01*
X48367Y35026D01*
X48376Y35058D01*
X48389Y35089D01*
X48405Y35119D01*
X48424Y35146D01*
X48447Y35171D01*
X48472Y35194D01*
X48499Y35213D01*
X48529Y35229D01*
X48560Y35242D01*
X48592Y35251D01*
X48625Y35257D01*
X48659Y35259D01*
X53859Y35259D01*
X53861Y35267D01*
X53865Y35273D01*
X53871Y35277D01*
X53879Y35279D01*
X53899Y35279D01*
X54954Y33454D02*
X55015Y33456D01*
X55075Y33461D01*
X55135Y33470D01*
X55195Y33483D01*
X55253Y33500D01*
X55310Y33519D01*
X55366Y33543D01*
X55421Y33569D01*
X55474Y33599D01*
X55525Y33632D01*
X55574Y33668D01*
X55620Y33707D01*
X55665Y33748D01*
X55706Y33793D01*
X55745Y33839D01*
X55781Y33888D01*
X55814Y33939D01*
X55844Y33992D01*
X55870Y34047D01*
X55894Y34103D01*
X55913Y34160D01*
X55930Y34218D01*
X55943Y34278D01*
X55952Y34338D01*
X55957Y34398D01*
X55959Y34459D01*
X55959Y38659D01*
X55961Y38706D01*
X55966Y38753D01*
X55976Y38799D01*
X55988Y38844D01*
X56005Y38889D01*
X56024Y38931D01*
X56047Y38972D01*
X56074Y39012D01*
X56103Y39049D01*
X56135Y39083D01*
X56169Y39115D01*
X56206Y39144D01*
X56246Y39171D01*
X56287Y39194D01*
X56329Y39213D01*
X56374Y39230D01*
X56419Y39242D01*
X56465Y39252D01*
X56512Y39257D01*
X56559Y39259D01*
X71759Y39259D01*
X71809Y39257D01*
X71859Y39252D01*
X71908Y39243D01*
X71956Y39231D01*
X72004Y39215D01*
X72050Y39196D01*
X72094Y39173D01*
X72137Y39148D01*
X72178Y39119D01*
X72217Y39088D01*
X72254Y39054D01*
X72288Y39017D01*
X72319Y38978D01*
X72348Y38937D01*
X72373Y38894D01*
X72396Y38850D01*
X72415Y38804D01*
X72431Y38756D01*
X72443Y38708D01*
X72452Y38659D01*
X72457Y38609D01*
X72459Y38559D01*
X72459Y37459D01*
X72450Y37460D01*
X72441Y37465D01*
X72435Y37471D01*
X72430Y37480D01*
X72429Y37489D01*
X71159Y34759D02*
X57459Y34759D01*
X57412Y34757D01*
X57365Y34752D01*
X57319Y34742D01*
X57274Y34730D01*
X57229Y34713D01*
X57187Y34694D01*
X57146Y34671D01*
X57106Y34644D01*
X57069Y34615D01*
X57035Y34583D01*
X57003Y34549D01*
X56974Y34512D01*
X56947Y34472D01*
X56924Y34431D01*
X56905Y34389D01*
X56888Y34344D01*
X56876Y34299D01*
X56866Y34253D01*
X56861Y34206D01*
X56859Y34159D01*
X56859Y33859D01*
X56857Y33795D01*
X56851Y33732D01*
X56842Y33669D01*
X56828Y33607D01*
X56811Y33545D01*
X56790Y33485D01*
X56766Y33426D01*
X56738Y33369D01*
X56707Y33313D01*
X56672Y33260D01*
X56634Y33208D01*
X56594Y33159D01*
X56550Y33113D01*
X56504Y33069D01*
X56455Y33029D01*
X56403Y32991D01*
X56350Y32956D01*
X56294Y32925D01*
X56237Y32897D01*
X56178Y32873D01*
X56118Y32852D01*
X56056Y32835D01*
X55994Y32821D01*
X55931Y32812D01*
X55868Y32806D01*
X55804Y32804D01*
X49624Y32804D01*
X49624Y33454D02*
X54954Y33454D01*
X53959Y30159D02*
X53899Y30159D01*
X49624Y31504D02*
X61114Y31504D01*
X61167Y31502D01*
X61220Y31496D01*
X61272Y31487D01*
X61324Y31474D01*
X61374Y31457D01*
X61423Y31437D01*
X61471Y31413D01*
X61517Y31386D01*
X61560Y31355D01*
X61602Y31322D01*
X61641Y31286D01*
X61677Y31247D01*
X61710Y31205D01*
X61741Y31162D01*
X61768Y31116D01*
X61792Y31068D01*
X61812Y31019D01*
X61829Y30969D01*
X61842Y30917D01*
X61851Y30865D01*
X61857Y30812D01*
X61859Y30759D01*
X61859Y14459D01*
X61861Y14392D01*
X61867Y14325D01*
X61876Y14258D01*
X61889Y14192D01*
X61906Y14127D01*
X61926Y14063D01*
X61950Y14000D01*
X61978Y13938D01*
X62009Y13879D01*
X62043Y13821D01*
X62080Y13765D01*
X62121Y13711D01*
X62164Y13659D01*
X62210Y13610D01*
X62259Y13564D01*
X62311Y13521D01*
X62365Y13480D01*
X62421Y13443D01*
X62479Y13409D01*
X62538Y13378D01*
X62600Y13350D01*
X62663Y13326D01*
X62727Y13306D01*
X62792Y13289D01*
X62858Y13276D01*
X62925Y13267D01*
X62992Y13261D01*
X63059Y13259D01*
X71759Y13259D01*
X71819Y13257D01*
X71880Y13252D01*
X71939Y13243D01*
X71998Y13230D01*
X72057Y13214D01*
X72114Y13194D01*
X72169Y13171D01*
X72224Y13144D01*
X72276Y13115D01*
X72327Y13082D01*
X72376Y13046D01*
X72422Y13008D01*
X72466Y12966D01*
X72508Y12922D01*
X72546Y12876D01*
X72582Y12827D01*
X72615Y12776D01*
X72644Y12724D01*
X72671Y12669D01*
X72694Y12614D01*
X72714Y12557D01*
X72730Y12498D01*
X72743Y12439D01*
X72752Y12380D01*
X72757Y12319D01*
X72759Y12259D01*
X72759Y10759D01*
X72754Y10758D01*
X72750Y10754D01*
X72749Y10749D01*
X72749Y10729D01*
X72659Y15659D02*
X72649Y15660D01*
X72639Y15664D01*
X72631Y15671D01*
X72624Y15679D01*
X72620Y15689D01*
X72619Y15699D01*
X72619Y15759D01*
X72559Y15759D02*
X72561Y15742D01*
X72565Y15725D01*
X72572Y15709D01*
X72582Y15695D01*
X72595Y15682D01*
X72609Y15672D01*
X72625Y15665D01*
X72642Y15661D01*
X72659Y15659D01*
X72559Y15759D02*
X72559Y17759D01*
X72557Y17793D01*
X72551Y17826D01*
X72542Y17858D01*
X72529Y17889D01*
X72513Y17919D01*
X72494Y17946D01*
X72471Y17971D01*
X72446Y17994D01*
X72419Y18013D01*
X72389Y18029D01*
X72358Y18042D01*
X72326Y18051D01*
X72293Y18057D01*
X72259Y18059D01*
X64159Y18059D01*
X64100Y18061D01*
X64042Y18067D01*
X63983Y18076D01*
X63926Y18090D01*
X63870Y18107D01*
X63815Y18128D01*
X63761Y18152D01*
X63709Y18180D01*
X63659Y18211D01*
X63611Y18245D01*
X63566Y18282D01*
X63523Y18323D01*
X63482Y18366D01*
X63445Y18411D01*
X63411Y18459D01*
X63380Y18509D01*
X63352Y18561D01*
X63328Y18615D01*
X63307Y18670D01*
X63290Y18726D01*
X63276Y18783D01*
X63267Y18842D01*
X63261Y18900D01*
X63259Y18959D01*
X63259Y31759D01*
X63257Y31798D01*
X63251Y31836D01*
X63242Y31874D01*
X63229Y31910D01*
X63212Y31945D01*
X63192Y31978D01*
X63169Y32010D01*
X63143Y32038D01*
X63115Y32064D01*
X63083Y32087D01*
X63050Y32107D01*
X63015Y32124D01*
X62979Y32137D01*
X62941Y32146D01*
X62903Y32152D01*
X62864Y32154D01*
X49624Y32154D01*
X46259Y32159D02*
X46259Y41359D01*
X44259Y43559D02*
X44215Y43561D01*
X44170Y43560D01*
X44126Y43555D01*
X44083Y43546D01*
X44040Y43534D01*
X43998Y43518D01*
X43958Y43499D01*
X43920Y43477D01*
X43884Y43451D01*
X43849Y43423D01*
X43818Y43392D01*
X43789Y43358D01*
X43763Y43322D01*
X43739Y43285D01*
X43720Y43245D01*
X43703Y43204D01*
X43690Y43161D01*
X43680Y43118D01*
X43674Y43074D01*
X43674Y33454D01*
X43674Y32804D02*
X42914Y32804D01*
X42874Y32806D01*
X42835Y32811D01*
X42796Y32820D01*
X42758Y32831D01*
X42722Y32847D01*
X42687Y32865D01*
X42653Y32886D01*
X42622Y32910D01*
X42592Y32937D01*
X42565Y32967D01*
X42541Y32998D01*
X42520Y33032D01*
X42502Y33067D01*
X42486Y33103D01*
X42475Y33141D01*
X42466Y33180D01*
X42461Y33219D01*
X42459Y33259D01*
X42459Y43259D01*
X42461Y43344D01*
X42467Y43429D01*
X42476Y43514D01*
X42490Y43598D01*
X42507Y43682D01*
X42527Y43764D01*
X42552Y43846D01*
X42580Y43927D01*
X42612Y44006D01*
X42647Y44083D01*
X42686Y44159D01*
X42728Y44234D01*
X42773Y44306D01*
X42822Y44376D01*
X42874Y44444D01*
X42928Y44509D01*
X42986Y44572D01*
X43046Y44632D01*
X43109Y44690D01*
X43174Y44744D01*
X43242Y44796D01*
X43312Y44845D01*
X43384Y44890D01*
X43459Y44932D01*
X43535Y44971D01*
X43612Y45006D01*
X43691Y45038D01*
X43772Y45066D01*
X43854Y45091D01*
X43936Y45111D01*
X44020Y45128D01*
X44104Y45142D01*
X44189Y45151D01*
X44274Y45157D01*
X44359Y45159D01*
X45059Y38359D02*
X45059Y32659D01*
X45057Y32615D01*
X45051Y32571D01*
X45042Y32528D01*
X45029Y32486D01*
X45012Y32446D01*
X44991Y32407D01*
X44968Y32369D01*
X44941Y32334D01*
X44911Y32302D01*
X44879Y32272D01*
X44844Y32245D01*
X44807Y32222D01*
X44767Y32201D01*
X44727Y32184D01*
X44685Y32171D01*
X44642Y32162D01*
X44598Y32156D01*
X44554Y32154D01*
X43674Y32154D01*
X43674Y31504D02*
X45604Y31504D01*
X45653Y31506D01*
X45702Y31511D01*
X45750Y31520D01*
X45797Y31533D01*
X45843Y31549D01*
X45888Y31569D01*
X45932Y31592D01*
X45973Y31618D01*
X46012Y31647D01*
X46050Y31679D01*
X46084Y31713D01*
X46116Y31751D01*
X46145Y31790D01*
X46171Y31832D01*
X46194Y31875D01*
X46214Y31920D01*
X46230Y31966D01*
X46243Y32013D01*
X46252Y32061D01*
X46257Y32110D01*
X46259Y32159D01*
X43674Y29554D02*
X41164Y29554D01*
X41117Y29556D01*
X41069Y29561D01*
X41023Y29571D01*
X40977Y29584D01*
X40932Y29600D01*
X40889Y29620D01*
X40848Y29643D01*
X40808Y29670D01*
X40771Y29699D01*
X40736Y29731D01*
X40704Y29766D01*
X40675Y29803D01*
X40648Y29843D01*
X40625Y29884D01*
X40605Y29927D01*
X40589Y29972D01*
X40576Y30018D01*
X40566Y30064D01*
X40561Y30112D01*
X40559Y30159D01*
X40559Y33759D01*
X40557Y33793D01*
X40551Y33826D01*
X40542Y33858D01*
X40529Y33889D01*
X40513Y33919D01*
X40494Y33946D01*
X40471Y33971D01*
X40446Y33994D01*
X40419Y34013D01*
X40389Y34029D01*
X40358Y34042D01*
X40326Y34051D01*
X40293Y34057D01*
X40259Y34059D01*
X38159Y34059D01*
X38151Y34057D01*
X38145Y34053D01*
X38141Y34047D01*
X38139Y34039D01*
X38139Y34019D01*
X36959Y32059D02*
X32159Y32059D01*
X32109Y32053D02*
X32109Y32109D01*
X32107Y32132D01*
X32102Y32155D01*
X32093Y32177D01*
X32080Y32197D01*
X32065Y32215D01*
X32047Y32230D01*
X32027Y32243D01*
X32005Y32252D01*
X31982Y32257D01*
X31959Y32259D01*
X31961Y32233D01*
X31966Y32207D01*
X31974Y32182D01*
X31986Y32159D01*
X32000Y32137D01*
X32018Y32118D01*
X32037Y32100D01*
X32059Y32086D01*
X32082Y32074D01*
X32107Y32066D01*
X32133Y32061D01*
X32159Y32059D01*
X34259Y29659D02*
X22759Y29659D01*
X22715Y29657D01*
X22672Y29651D01*
X22630Y29642D01*
X22588Y29629D01*
X22548Y29612D01*
X22509Y29592D01*
X22472Y29569D01*
X22438Y29542D01*
X22405Y29513D01*
X22376Y29480D01*
X22349Y29446D01*
X22326Y29409D01*
X22306Y29370D01*
X22289Y29330D01*
X22276Y29288D01*
X22267Y29246D01*
X22261Y29203D01*
X22259Y29159D01*
X22259Y28059D01*
X22264Y28060D01*
X22268Y28064D01*
X22269Y28069D01*
X22269Y28179D01*
X24359Y25759D02*
X24359Y18559D01*
X24357Y18515D01*
X24351Y18472D01*
X24342Y18430D01*
X24329Y18388D01*
X24312Y18348D01*
X24292Y18309D01*
X24269Y18272D01*
X24242Y18238D01*
X24213Y18205D01*
X24180Y18176D01*
X24146Y18149D01*
X24109Y18126D01*
X24070Y18106D01*
X24030Y18089D01*
X23988Y18076D01*
X23946Y18067D01*
X23903Y18061D01*
X23859Y18059D01*
X22259Y18059D01*
X22264Y18058D01*
X22268Y18054D01*
X22269Y18049D01*
X22269Y18019D01*
X20259Y16659D02*
X13459Y16659D01*
X10659Y16659D01*
X10568Y16661D01*
X10477Y16667D01*
X10387Y16676D01*
X10297Y16689D01*
X10208Y16706D01*
X10119Y16726D01*
X10031Y16750D01*
X09945Y16778D01*
X09859Y16809D01*
X09775Y16844D01*
X09693Y16883D01*
X09612Y16924D01*
X09533Y16969D01*
X09456Y17017D01*
X09381Y17069D01*
X09308Y17123D01*
X09237Y17180D01*
X09169Y17240D01*
X09103Y17303D01*
X09040Y17369D01*
X08980Y17437D01*
X08923Y17508D01*
X08869Y17581D01*
X08817Y17656D01*
X08769Y17733D01*
X08724Y17812D01*
X08683Y17893D01*
X08644Y17975D01*
X08609Y18059D01*
X08578Y18145D01*
X08550Y18231D01*
X08526Y18319D01*
X08506Y18408D01*
X08489Y18497D01*
X08476Y18587D01*
X08467Y18677D01*
X08461Y18768D01*
X08459Y18859D01*
X08459Y21829D01*
X08461Y21837D01*
X08465Y21843D01*
X08471Y21847D01*
X08479Y21849D01*
X20259Y16659D02*
X28859Y16659D01*
X28926Y16657D01*
X28993Y16651D01*
X29060Y16642D01*
X29126Y16629D01*
X29191Y16612D01*
X29255Y16592D01*
X29318Y16568D01*
X29380Y16540D01*
X29439Y16509D01*
X29497Y16475D01*
X29553Y16438D01*
X29607Y16397D01*
X29659Y16354D01*
X29708Y16308D01*
X29754Y16259D01*
X29797Y16207D01*
X29838Y16153D01*
X29875Y16097D01*
X29909Y16039D01*
X29940Y15980D01*
X29968Y15918D01*
X29992Y15855D01*
X30012Y15791D01*
X30029Y15726D01*
X30042Y15660D01*
X30051Y15593D01*
X30057Y15526D01*
X30059Y15459D01*
X30057Y15467D01*
X30053Y15473D01*
X30047Y15477D01*
X30039Y15479D01*
X29889Y15479D01*
X29959Y17959D02*
X29957Y17972D01*
X29953Y17985D01*
X29946Y17996D01*
X29936Y18006D01*
X29925Y18013D01*
X29912Y18017D01*
X29899Y18019D01*
X29889Y18019D01*
X30059Y18059D02*
X40859Y18059D01*
X40923Y18061D01*
X40987Y18066D01*
X41050Y18076D01*
X41113Y18089D01*
X41174Y18105D01*
X41235Y18125D01*
X41295Y18149D01*
X41353Y18176D01*
X41409Y18206D01*
X41463Y18240D01*
X41516Y18277D01*
X41566Y18316D01*
X41614Y18359D01*
X41659Y18404D01*
X41702Y18452D01*
X41741Y18502D01*
X41778Y18555D01*
X41812Y18609D01*
X41842Y18665D01*
X41869Y18723D01*
X41893Y18783D01*
X41913Y18844D01*
X41929Y18905D01*
X41942Y18968D01*
X41952Y19031D01*
X41957Y19095D01*
X41959Y19159D01*
X41959Y24059D01*
X41961Y24118D01*
X41966Y24177D01*
X41976Y24236D01*
X41989Y24294D01*
X42005Y24351D01*
X42025Y24407D01*
X42049Y24461D01*
X42076Y24514D01*
X42106Y24565D01*
X42139Y24614D01*
X42176Y24661D01*
X42215Y24706D01*
X42257Y24748D01*
X42302Y24787D01*
X42349Y24824D01*
X42398Y24857D01*
X42449Y24887D01*
X42502Y24914D01*
X42556Y24938D01*
X42612Y24958D01*
X42669Y24974D01*
X42727Y24987D01*
X42786Y24997D01*
X42845Y25002D01*
X42904Y25004D01*
X43674Y25004D01*
X43739Y25639D02*
X29889Y25639D01*
X25559Y26959D02*
X25492Y26957D01*
X25425Y26951D01*
X25358Y26942D01*
X25292Y26929D01*
X25227Y26912D01*
X25163Y26892D01*
X25100Y26868D01*
X25038Y26840D01*
X24979Y26809D01*
X24921Y26775D01*
X24865Y26738D01*
X24811Y26697D01*
X24759Y26654D01*
X24710Y26608D01*
X24664Y26559D01*
X24621Y26507D01*
X24580Y26453D01*
X24543Y26397D01*
X24509Y26339D01*
X24478Y26280D01*
X24450Y26218D01*
X24426Y26155D01*
X24406Y26091D01*
X24389Y26026D01*
X24376Y25960D01*
X24367Y25893D01*
X24361Y25826D01*
X24359Y25759D01*
X25559Y26959D02*
X34659Y26959D01*
X34698Y26957D01*
X34737Y26951D01*
X34775Y26942D01*
X34812Y26929D01*
X34848Y26912D01*
X34881Y26892D01*
X34913Y26868D01*
X34942Y26842D01*
X34968Y26813D01*
X34992Y26781D01*
X35012Y26748D01*
X35029Y26712D01*
X35042Y26675D01*
X35051Y26637D01*
X35057Y26598D01*
X35059Y26559D01*
X35059Y26459D01*
X35061Y26437D01*
X35065Y26415D01*
X35073Y26395D01*
X35084Y26375D01*
X35097Y26357D01*
X35112Y26342D01*
X35130Y26329D01*
X35150Y26318D01*
X35170Y26310D01*
X35192Y26306D01*
X35214Y26304D01*
X43674Y26304D01*
X43759Y25659D02*
X43757Y25651D01*
X43753Y25645D01*
X43747Y25641D01*
X43739Y25639D01*
X43764Y25654D02*
X43674Y25654D01*
X43759Y25659D02*
X43760Y25657D01*
X43762Y25655D01*
X43764Y25654D01*
X43674Y27604D02*
X35114Y27604D01*
X35074Y27606D01*
X35035Y27611D01*
X34996Y27620D01*
X34958Y27631D01*
X34922Y27647D01*
X34887Y27665D01*
X34853Y27686D01*
X34822Y27710D01*
X34792Y27737D01*
X34765Y27767D01*
X34741Y27798D01*
X34720Y27832D01*
X34702Y27867D01*
X34686Y27903D01*
X34675Y27941D01*
X34666Y27980D01*
X34661Y28019D01*
X34659Y28059D01*
X34659Y29259D01*
X34657Y29298D01*
X34651Y29337D01*
X34642Y29375D01*
X34629Y29412D01*
X34612Y29448D01*
X34592Y29481D01*
X34568Y29513D01*
X34542Y29542D01*
X34513Y29568D01*
X34481Y29592D01*
X34448Y29612D01*
X34412Y29629D01*
X34375Y29642D01*
X34337Y29651D01*
X34298Y29657D01*
X34259Y29659D01*
X36959Y32059D02*
X37026Y32057D01*
X37093Y32051D01*
X37160Y32042D01*
X37226Y32029D01*
X37291Y32012D01*
X37355Y31992D01*
X37418Y31968D01*
X37480Y31940D01*
X37539Y31909D01*
X37597Y31875D01*
X37653Y31838D01*
X37707Y31797D01*
X37759Y31754D01*
X37808Y31708D01*
X37854Y31659D01*
X37897Y31607D01*
X37938Y31553D01*
X37975Y31497D01*
X38009Y31439D01*
X38040Y31380D01*
X38068Y31318D01*
X38092Y31255D01*
X38112Y31191D01*
X38129Y31126D01*
X38142Y31060D01*
X38151Y30993D01*
X38157Y30926D01*
X38159Y30859D01*
X38159Y28959D01*
X38151Y28957D01*
X38145Y28953D01*
X38141Y28947D01*
X38139Y28939D01*
X38159Y28959D02*
X38160Y28947D01*
X38164Y28935D01*
X38171Y28925D01*
X38180Y28916D01*
X38190Y28909D01*
X38202Y28905D01*
X38214Y28904D01*
X43674Y28904D01*
X43674Y28254D02*
X47354Y28254D01*
X47357Y28255D01*
X47358Y28257D01*
X47359Y28259D01*
X47459Y28259D01*
X47459Y26959D02*
X47460Y26957D01*
X47462Y26955D01*
X47464Y26954D01*
X49624Y26954D01*
X49624Y26304D02*
X49624Y25694D01*
X49626Y25683D01*
X49631Y25673D01*
X49638Y25666D01*
X49648Y25661D01*
X49659Y25659D01*
X52959Y25659D01*
X53043Y25657D01*
X53127Y25651D01*
X53210Y25642D01*
X53293Y25628D01*
X53376Y25611D01*
X53457Y25590D01*
X53537Y25565D01*
X53616Y25536D01*
X53694Y25504D01*
X53770Y25468D01*
X53845Y25429D01*
X53917Y25386D01*
X53988Y25340D01*
X54056Y25291D01*
X54122Y25239D01*
X54185Y25184D01*
X54246Y25126D01*
X54304Y25065D01*
X54359Y25002D01*
X54411Y24936D01*
X54460Y24868D01*
X54506Y24797D01*
X54549Y24725D01*
X54588Y24650D01*
X54624Y24574D01*
X54656Y24496D01*
X54685Y24417D01*
X54710Y24337D01*
X54731Y24256D01*
X54748Y24173D01*
X54762Y24090D01*
X54771Y24007D01*
X54777Y23923D01*
X54779Y23839D01*
X54779Y20499D01*
X49759Y20459D02*
X49756Y20458D01*
X49754Y20456D01*
X49753Y20453D01*
X49753Y14759D01*
X49753Y24865D01*
X49699Y24919D02*
X49699Y20499D01*
X49719Y20499D01*
X49729Y20498D01*
X49739Y20494D01*
X49747Y20487D01*
X49754Y20479D01*
X49758Y20469D01*
X49759Y20459D01*
X49753Y24865D02*
X49751Y24883D01*
X49746Y24901D01*
X49737Y24917D01*
X49725Y24931D01*
X49711Y24943D01*
X49695Y24952D01*
X49677Y24957D01*
X49659Y24959D01*
X47459Y24959D01*
X49624Y25004D02*
X49704Y25004D01*
X49692Y25002D01*
X49682Y24998D01*
X49672Y24991D01*
X49665Y24982D01*
X49661Y24971D01*
X49659Y24959D01*
X49669Y24958D01*
X49679Y24954D01*
X49687Y24947D01*
X49694Y24939D01*
X49698Y24929D01*
X49699Y24919D01*
X49654Y25654D02*
X49624Y25654D01*
X49624Y26304D01*
X49659Y25659D02*
X49658Y25657D01*
X49657Y25655D01*
X49654Y25654D01*
X30059Y18059D02*
X30042Y18057D01*
X30025Y18053D01*
X30009Y18046D01*
X29995Y18036D01*
X29982Y18023D01*
X29972Y18009D01*
X29965Y17993D01*
X29961Y17976D01*
X29959Y17959D01*
X71159Y34759D02*
X71229Y34757D01*
X71300Y34751D01*
X71369Y34742D01*
X71438Y34729D01*
X71507Y34712D01*
X71574Y34691D01*
X71640Y34667D01*
X71705Y34639D01*
X71768Y34608D01*
X71829Y34573D01*
X71889Y34535D01*
X71946Y34494D01*
X72001Y34450D01*
X72053Y34403D01*
X72103Y34353D01*
X72150Y34301D01*
X72194Y34246D01*
X72235Y34189D01*
X72273Y34129D01*
X72308Y34068D01*
X72339Y34005D01*
X72367Y33940D01*
X72391Y33874D01*
X72412Y33807D01*
X72429Y33738D01*
X72442Y33669D01*
X72451Y33600D01*
X72457Y33529D01*
X72459Y33459D01*
X72459Y32459D01*
X72461Y32442D01*
X72465Y32425D01*
X72472Y32409D01*
X72482Y32395D01*
X72495Y32382D01*
X72509Y32372D01*
X72525Y32365D01*
X72542Y32361D01*
X72559Y32359D01*
X72557Y32351D01*
X72553Y32345D01*
X72547Y32341D01*
X72539Y32339D01*
X72479Y32339D01*
D21*
X67439Y25799D02*
X67439Y20779D01*
X67441Y20771D01*
X67445Y20765D01*
X67451Y20761D01*
X67459Y20759D01*
X67469Y20758D01*
X67479Y20754D01*
X67487Y20747D01*
X67494Y20739D01*
X67498Y20729D01*
X67499Y20719D01*
X67499Y20679D01*
X47459Y24959D02*
X47459Y13959D01*
X47457Y13845D01*
X47451Y13732D01*
X47442Y13619D01*
X47429Y13506D01*
X47412Y13393D01*
X47391Y13282D01*
X47366Y13171D01*
X47338Y13061D01*
X47306Y12952D01*
X47271Y12844D01*
X47232Y12737D01*
X47189Y12632D01*
X47143Y12528D01*
X47094Y12426D01*
X47041Y12325D01*
X46984Y12226D01*
X46925Y12130D01*
X46862Y12035D01*
X46796Y11942D01*
X46727Y11852D01*
X46655Y11764D01*
X46581Y11678D01*
X46503Y11595D01*
X46423Y11515D01*
X46340Y11437D01*
X46254Y11363D01*
X46166Y11291D01*
X46076Y11222D01*
X45983Y11156D01*
X45888Y11093D01*
X45792Y11034D01*
X45693Y10977D01*
X45592Y10924D01*
X45490Y10875D01*
X45386Y10829D01*
X45281Y10786D01*
X45174Y10747D01*
X45066Y10712D01*
X44957Y10680D01*
X44847Y10652D01*
X44736Y10627D01*
X44625Y10606D01*
X44512Y10589D01*
X44399Y10576D01*
X44286Y10567D01*
X44173Y10561D01*
X44059Y10559D01*
X24459Y10559D01*
X24368Y10561D01*
X24277Y10567D01*
X24187Y10576D01*
X24097Y10589D01*
X24008Y10606D01*
X23919Y10626D01*
X23831Y10650D01*
X23745Y10678D01*
X23659Y10709D01*
X23575Y10744D01*
X23493Y10783D01*
X23412Y10824D01*
X23333Y10869D01*
X23256Y10917D01*
X23181Y10969D01*
X23108Y11023D01*
X23037Y11080D01*
X22969Y11140D01*
X22903Y11203D01*
X22840Y11269D01*
X22780Y11337D01*
X22723Y11408D01*
X22669Y11481D01*
X22617Y11556D01*
X22569Y11633D01*
X22524Y11712D01*
X22483Y11793D01*
X22444Y11875D01*
X22409Y11959D01*
X22378Y12045D01*
X22350Y12131D01*
X22326Y12219D01*
X22306Y12308D01*
X22289Y12397D01*
X22276Y12487D01*
X22267Y12577D01*
X22261Y12668D01*
X22259Y12759D01*
X22264Y12760D01*
X22268Y12764D01*
X22269Y12769D01*
X22269Y12939D01*
X05939Y24389D02*
X05939Y26929D01*
X05938Y26938D01*
X05933Y26947D01*
X05927Y26953D01*
X05918Y26958D01*
X05909Y26959D01*
X04159Y26959D01*
X04109Y26961D01*
X04059Y26966D01*
X04010Y26975D01*
X03962Y26987D01*
X03914Y27003D01*
X03868Y27022D01*
X03824Y27045D01*
X03781Y27070D01*
X03740Y27099D01*
X03701Y27130D01*
X03664Y27164D01*
X03630Y27201D01*
X03599Y27240D01*
X03570Y27281D01*
X03545Y27324D01*
X03522Y27368D01*
X03503Y27414D01*
X03487Y27462D01*
X03475Y27510D01*
X03466Y27559D01*
X03461Y27609D01*
X03459Y27659D01*
X03459Y42359D01*
X03461Y42429D01*
X03467Y42500D01*
X03476Y42569D01*
X03489Y42638D01*
X03506Y42707D01*
X03527Y42774D01*
X03551Y42840D01*
X03579Y42905D01*
X03610Y42968D01*
X03645Y43029D01*
X03683Y43089D01*
X03724Y43146D01*
X03768Y43201D01*
X03815Y43253D01*
X03865Y43303D01*
X03917Y43350D01*
X03972Y43394D01*
X04029Y43435D01*
X04089Y43473D01*
X04150Y43508D01*
X04213Y43539D01*
X04278Y43567D01*
X04344Y43591D01*
X04411Y43612D01*
X04480Y43629D01*
X04549Y43642D01*
X04618Y43651D01*
X04689Y43657D01*
X04759Y43659D01*
X22359Y43659D01*
X22374Y43649D02*
X22374Y43674D01*
X22376Y43691D01*
X22380Y43707D01*
X22388Y43721D01*
X22399Y43734D01*
X22412Y43745D01*
X22426Y43753D01*
X22442Y43757D01*
X22459Y43759D01*
X22457Y43742D01*
X22453Y43725D01*
X22446Y43709D01*
X22436Y43695D01*
X22423Y43682D01*
X22409Y43672D01*
X22393Y43665D01*
X22376Y43661D01*
X22359Y43659D01*
X25259Y46959D02*
X44159Y46959D01*
X44272Y46957D01*
X44384Y46951D01*
X44496Y46942D01*
X44608Y46928D01*
X44720Y46911D01*
X44830Y46890D01*
X44940Y46865D01*
X45049Y46837D01*
X45157Y46804D01*
X45264Y46768D01*
X45370Y46729D01*
X45474Y46686D01*
X45576Y46639D01*
X45677Y46589D01*
X45776Y46535D01*
X45874Y46479D01*
X45969Y46418D01*
X46062Y46355D01*
X46153Y46288D01*
X46242Y46219D01*
X46328Y46146D01*
X46411Y46071D01*
X46492Y45992D01*
X46571Y45911D01*
X46646Y45828D01*
X46719Y45742D01*
X46788Y45653D01*
X46855Y45562D01*
X46918Y45469D01*
X46979Y45374D01*
X47035Y45276D01*
X47089Y45177D01*
X47139Y45076D01*
X47186Y44974D01*
X47229Y44870D01*
X47268Y44764D01*
X47304Y44657D01*
X47337Y44549D01*
X47365Y44440D01*
X47390Y44330D01*
X47411Y44220D01*
X47428Y44108D01*
X47442Y43996D01*
X47451Y43884D01*
X47457Y43772D01*
X47459Y43659D01*
X47459Y28259D01*
X47459Y26959D01*
X47459Y24959D01*
X25259Y46959D02*
X25189Y46961D01*
X25118Y46967D01*
X25049Y46976D01*
X24980Y46989D01*
X24911Y47006D01*
X24844Y47027D01*
X24778Y47051D01*
X24713Y47079D01*
X24650Y47110D01*
X24589Y47145D01*
X24529Y47183D01*
X24472Y47224D01*
X24417Y47268D01*
X24365Y47315D01*
X24315Y47365D01*
X24268Y47417D01*
X24224Y47472D01*
X24183Y47529D01*
X24145Y47589D01*
X24110Y47650D01*
X24079Y47713D01*
X24051Y47778D01*
X24027Y47844D01*
X24006Y47911D01*
X23989Y47980D01*
X23976Y48049D01*
X23967Y48118D01*
X23961Y48189D01*
X23959Y48259D01*
X23959Y50253D01*
X14559Y50159D02*
X14520Y50157D01*
X14481Y50151D01*
X14443Y50142D01*
X14406Y50129D01*
X14370Y50112D01*
X14337Y50092D01*
X14305Y50068D01*
X14276Y50042D01*
X14250Y50013D01*
X14226Y49981D01*
X14206Y49948D01*
X14189Y49912D01*
X14176Y49875D01*
X14167Y49837D01*
X14161Y49798D01*
X14159Y49759D01*
X14159Y48259D01*
X14157Y48199D01*
X14152Y48138D01*
X14143Y48079D01*
X14130Y48020D01*
X14114Y47961D01*
X14094Y47904D01*
X14071Y47849D01*
X14044Y47794D01*
X14015Y47742D01*
X13982Y47691D01*
X13946Y47642D01*
X13908Y47596D01*
X13866Y47552D01*
X13822Y47510D01*
X13776Y47472D01*
X13727Y47436D01*
X13676Y47403D01*
X13624Y47374D01*
X13569Y47347D01*
X13514Y47324D01*
X13457Y47304D01*
X13398Y47288D01*
X13339Y47275D01*
X13280Y47266D01*
X13219Y47261D01*
X13159Y47259D01*
X07159Y47259D01*
X07101Y47261D01*
X07044Y47266D01*
X06987Y47275D01*
X06930Y47288D01*
X06875Y47304D01*
X06820Y47324D01*
X06767Y47347D01*
X06716Y47373D01*
X06666Y47402D01*
X06618Y47435D01*
X06573Y47470D01*
X06529Y47508D01*
X06488Y47549D01*
X06450Y47593D01*
X06415Y47638D01*
X06382Y47686D01*
X06353Y47736D01*
X06327Y47787D01*
X06304Y47840D01*
X06284Y47895D01*
X06268Y47950D01*
X06255Y48007D01*
X06246Y48064D01*
X06241Y48121D01*
X06239Y48179D01*
X06239Y49769D01*
X14329Y50279D02*
X14439Y50279D01*
X14460Y50277D01*
X14480Y50272D01*
X14499Y50263D01*
X14516Y50251D01*
X14531Y50236D01*
X14543Y50219D01*
X14552Y50200D01*
X14557Y50180D01*
X14559Y50159D01*
D22*
X44359Y45159D03*
X44259Y43559D03*
X46259Y41359D03*
X45059Y38359D03*
M02*
