G75*
%MOIN*%
%OFA0B0*%
%FSLAX25Y25*%
%IPPOS*%
%LPD*%
%AMOC8*
5,1,8,0,0,1.08239X$1,22.5*
%
%ADD10C,0.00000*%
%ADD11OC8,0.05200*%
%ADD12OC8,0.10000*%
%ADD13R,0.01575X0.04724*%
%ADD14C,0.01600*%
%ADD15C,0.01200*%
D10*
X0001800Y0001800D02*
X0001800Y0066761D01*
X0089251Y0066761D01*
X0089251Y0001800D01*
X0001800Y0001800D01*
X0010619Y0013050D02*
X0010621Y0013119D01*
X0010627Y0013187D01*
X0010637Y0013255D01*
X0010651Y0013322D01*
X0010669Y0013389D01*
X0010690Y0013454D01*
X0010716Y0013518D01*
X0010745Y0013580D01*
X0010777Y0013640D01*
X0010813Y0013699D01*
X0010853Y0013755D01*
X0010895Y0013809D01*
X0010941Y0013860D01*
X0010990Y0013909D01*
X0011041Y0013955D01*
X0011095Y0013997D01*
X0011151Y0014037D01*
X0011209Y0014073D01*
X0011270Y0014105D01*
X0011332Y0014134D01*
X0011396Y0014160D01*
X0011461Y0014181D01*
X0011528Y0014199D01*
X0011595Y0014213D01*
X0011663Y0014223D01*
X0011731Y0014229D01*
X0011800Y0014231D01*
X0011869Y0014229D01*
X0011937Y0014223D01*
X0012005Y0014213D01*
X0012072Y0014199D01*
X0012139Y0014181D01*
X0012204Y0014160D01*
X0012268Y0014134D01*
X0012330Y0014105D01*
X0012390Y0014073D01*
X0012449Y0014037D01*
X0012505Y0013997D01*
X0012559Y0013955D01*
X0012610Y0013909D01*
X0012659Y0013860D01*
X0012705Y0013809D01*
X0012747Y0013755D01*
X0012787Y0013699D01*
X0012823Y0013640D01*
X0012855Y0013580D01*
X0012884Y0013518D01*
X0012910Y0013454D01*
X0012931Y0013389D01*
X0012949Y0013322D01*
X0012963Y0013255D01*
X0012973Y0013187D01*
X0012979Y0013119D01*
X0012981Y0013050D01*
X0012979Y0012981D01*
X0012973Y0012913D01*
X0012963Y0012845D01*
X0012949Y0012778D01*
X0012931Y0012711D01*
X0012910Y0012646D01*
X0012884Y0012582D01*
X0012855Y0012520D01*
X0012823Y0012459D01*
X0012787Y0012401D01*
X0012747Y0012345D01*
X0012705Y0012291D01*
X0012659Y0012240D01*
X0012610Y0012191D01*
X0012559Y0012145D01*
X0012505Y0012103D01*
X0012449Y0012063D01*
X0012391Y0012027D01*
X0012330Y0011995D01*
X0012268Y0011966D01*
X0012204Y0011940D01*
X0012139Y0011919D01*
X0012072Y0011901D01*
X0012005Y0011887D01*
X0011937Y0011877D01*
X0011869Y0011871D01*
X0011800Y0011869D01*
X0011731Y0011871D01*
X0011663Y0011877D01*
X0011595Y0011887D01*
X0011528Y0011901D01*
X0011461Y0011919D01*
X0011396Y0011940D01*
X0011332Y0011966D01*
X0011270Y0011995D01*
X0011209Y0012027D01*
X0011151Y0012063D01*
X0011095Y0012103D01*
X0011041Y0012145D01*
X0010990Y0012191D01*
X0010941Y0012240D01*
X0010895Y0012291D01*
X0010853Y0012345D01*
X0010813Y0012401D01*
X0010777Y0012459D01*
X0010745Y0012520D01*
X0010716Y0012582D01*
X0010690Y0012646D01*
X0010669Y0012711D01*
X0010651Y0012778D01*
X0010637Y0012845D01*
X0010627Y0012913D01*
X0010621Y0012981D01*
X0010619Y0013050D01*
X0074369Y0056800D02*
X0074371Y0056869D01*
X0074377Y0056937D01*
X0074387Y0057005D01*
X0074401Y0057072D01*
X0074419Y0057139D01*
X0074440Y0057204D01*
X0074466Y0057268D01*
X0074495Y0057330D01*
X0074527Y0057390D01*
X0074563Y0057449D01*
X0074603Y0057505D01*
X0074645Y0057559D01*
X0074691Y0057610D01*
X0074740Y0057659D01*
X0074791Y0057705D01*
X0074845Y0057747D01*
X0074901Y0057787D01*
X0074959Y0057823D01*
X0075020Y0057855D01*
X0075082Y0057884D01*
X0075146Y0057910D01*
X0075211Y0057931D01*
X0075278Y0057949D01*
X0075345Y0057963D01*
X0075413Y0057973D01*
X0075481Y0057979D01*
X0075550Y0057981D01*
X0075619Y0057979D01*
X0075687Y0057973D01*
X0075755Y0057963D01*
X0075822Y0057949D01*
X0075889Y0057931D01*
X0075954Y0057910D01*
X0076018Y0057884D01*
X0076080Y0057855D01*
X0076140Y0057823D01*
X0076199Y0057787D01*
X0076255Y0057747D01*
X0076309Y0057705D01*
X0076360Y0057659D01*
X0076409Y0057610D01*
X0076455Y0057559D01*
X0076497Y0057505D01*
X0076537Y0057449D01*
X0076573Y0057390D01*
X0076605Y0057330D01*
X0076634Y0057268D01*
X0076660Y0057204D01*
X0076681Y0057139D01*
X0076699Y0057072D01*
X0076713Y0057005D01*
X0076723Y0056937D01*
X0076729Y0056869D01*
X0076731Y0056800D01*
X0076729Y0056731D01*
X0076723Y0056663D01*
X0076713Y0056595D01*
X0076699Y0056528D01*
X0076681Y0056461D01*
X0076660Y0056396D01*
X0076634Y0056332D01*
X0076605Y0056270D01*
X0076573Y0056209D01*
X0076537Y0056151D01*
X0076497Y0056095D01*
X0076455Y0056041D01*
X0076409Y0055990D01*
X0076360Y0055941D01*
X0076309Y0055895D01*
X0076255Y0055853D01*
X0076199Y0055813D01*
X0076141Y0055777D01*
X0076080Y0055745D01*
X0076018Y0055716D01*
X0075954Y0055690D01*
X0075889Y0055669D01*
X0075822Y0055651D01*
X0075755Y0055637D01*
X0075687Y0055627D01*
X0075619Y0055621D01*
X0075550Y0055619D01*
X0075481Y0055621D01*
X0075413Y0055627D01*
X0075345Y0055637D01*
X0075278Y0055651D01*
X0075211Y0055669D01*
X0075146Y0055690D01*
X0075082Y0055716D01*
X0075020Y0055745D01*
X0074959Y0055777D01*
X0074901Y0055813D01*
X0074845Y0055853D01*
X0074791Y0055895D01*
X0074740Y0055941D01*
X0074691Y0055990D01*
X0074645Y0056041D01*
X0074603Y0056095D01*
X0074563Y0056151D01*
X0074527Y0056209D01*
X0074495Y0056270D01*
X0074466Y0056332D01*
X0074440Y0056396D01*
X0074419Y0056461D01*
X0074401Y0056528D01*
X0074387Y0056595D01*
X0074377Y0056663D01*
X0074371Y0056731D01*
X0074369Y0056800D01*
D11*
X0061800Y0053050D03*
X0049300Y0053050D03*
X0031800Y0053050D03*
X0021800Y0053050D03*
X0026800Y0018050D03*
X0036800Y0018050D03*
X0049300Y0013050D03*
X0061800Y0013050D03*
D12*
X0074300Y0025550D03*
X0074300Y0040550D03*
X0014300Y0040550D03*
X0014300Y0025550D03*
D13*
X0027961Y0027479D03*
X0030520Y0027479D03*
X0033080Y0027479D03*
X0035639Y0027479D03*
X0035639Y0043621D03*
X0033080Y0043621D03*
X0030520Y0043621D03*
X0027961Y0043621D03*
D14*
X0017371Y0043621D01*
X0014300Y0040550D01*
X0027961Y0043621D02*
X0030520Y0043621D01*
X0031800Y0044900D01*
X0031800Y0053050D01*
X0035550Y0048050D02*
X0035550Y0043709D01*
X0035639Y0043621D01*
X0033080Y0043621D02*
X0030520Y0043621D01*
X0035550Y0048050D02*
X0040550Y0053050D01*
X0049300Y0053050D01*
X0061800Y0053050D01*
X0059300Y0040550D02*
X0055550Y0036800D01*
X0055550Y0015550D01*
X0053050Y0013050D01*
X0049300Y0013050D01*
X0038050Y0013050D01*
X0036800Y0014300D01*
X0036800Y0018050D01*
X0034300Y0018050D01*
X0031800Y0020550D01*
X0031800Y0026200D01*
X0030520Y0027479D01*
X0033080Y0027479D01*
X0030520Y0027479D02*
X0027961Y0027479D01*
X0059300Y0040550D02*
X0074300Y0040550D01*
D15*
X0079063Y0036262D02*
X0084651Y0036262D01*
X0084651Y0037461D02*
X0080262Y0037461D01*
X0080700Y0037899D02*
X0080700Y0043201D01*
X0076951Y0046950D01*
X0071649Y0046950D01*
X0067900Y0043201D01*
X0067900Y0042750D01*
X0058389Y0042750D01*
X0054639Y0039000D01*
X0053350Y0037711D01*
X0053350Y0016461D01*
X0052448Y0015559D01*
X0050957Y0017050D01*
X0047643Y0017050D01*
X0045843Y0015250D01*
X0039657Y0015250D01*
X0040800Y0016393D01*
X0040800Y0019707D01*
X0038457Y0022050D01*
X0035143Y0022050D01*
X0034277Y0021184D01*
X0034000Y0021461D01*
X0034000Y0023717D01*
X0034076Y0023717D01*
X0034234Y0023626D01*
X0034641Y0023517D01*
X0035639Y0023517D01*
X0036637Y0023517D01*
X0037044Y0023626D01*
X0037408Y0023837D01*
X0037706Y0024134D01*
X0037917Y0024499D01*
X0038026Y0024906D01*
X0038026Y0027479D01*
X0035639Y0027479D01*
X0035639Y0027479D01*
X0038026Y0027479D01*
X0038026Y0030052D01*
X0037917Y0030459D01*
X0037706Y0030824D01*
X0037408Y0031122D01*
X0037044Y0031332D01*
X0036637Y0031441D01*
X0035639Y0031441D01*
X0035639Y0027479D01*
X0035639Y0023517D01*
X0035639Y0027479D01*
X0035639Y0027479D01*
X0035639Y0027479D01*
X0035639Y0031441D01*
X0034641Y0031441D01*
X0034234Y0031332D01*
X0034076Y0031241D01*
X0026594Y0031241D01*
X0025774Y0030421D01*
X0025774Y0028403D01*
X0025761Y0028390D01*
X0025761Y0026568D01*
X0025774Y0026555D01*
X0025774Y0024537D01*
X0026594Y0023717D01*
X0029600Y0023717D01*
X0029600Y0021190D01*
X0028540Y0022250D01*
X0027000Y0022250D01*
X0027000Y0018250D01*
X0030989Y0018250D01*
X0032800Y0016439D01*
X0032800Y0016393D01*
X0034600Y0014593D01*
X0034600Y0013389D01*
X0035889Y0012100D01*
X0037139Y0010850D01*
X0045843Y0010850D01*
X0047643Y0009050D01*
X0050957Y0009050D01*
X0052757Y0010850D01*
X0053961Y0010850D01*
X0055250Y0012139D01*
X0057600Y0014489D01*
X0057600Y0013250D01*
X0061600Y0013250D01*
X0061600Y0017250D01*
X0060060Y0017250D01*
X0057750Y0014940D01*
X0057750Y0035889D01*
X0060211Y0038350D01*
X0067900Y0038350D01*
X0067900Y0037899D01*
X0071649Y0034150D01*
X0076951Y0034150D01*
X0080700Y0037899D01*
X0080700Y0038659D02*
X0084651Y0038659D01*
X0084651Y0039858D02*
X0080700Y0039858D01*
X0080700Y0041056D02*
X0084651Y0041056D01*
X0084651Y0042255D02*
X0080700Y0042255D01*
X0080448Y0043453D02*
X0084651Y0043453D01*
X0084651Y0044652D02*
X0079249Y0044652D01*
X0078051Y0045850D02*
X0084651Y0045850D01*
X0084651Y0047049D02*
X0037750Y0047049D01*
X0037750Y0047139D02*
X0041461Y0050850D01*
X0045843Y0050850D01*
X0047643Y0049050D01*
X0050957Y0049050D01*
X0052757Y0050850D01*
X0058343Y0050850D01*
X0060143Y0049050D01*
X0063457Y0049050D01*
X0065800Y0051393D01*
X0065800Y0054707D01*
X0063457Y0057050D01*
X0060143Y0057050D01*
X0058343Y0055250D01*
X0052757Y0055250D01*
X0050957Y0057050D01*
X0047643Y0057050D01*
X0045843Y0055250D01*
X0039639Y0055250D01*
X0035800Y0051411D01*
X0035800Y0054707D01*
X0033457Y0057050D01*
X0030143Y0057050D01*
X0027800Y0054707D01*
X0027800Y0051393D01*
X0029600Y0049593D01*
X0029600Y0047383D01*
X0026594Y0047383D01*
X0025774Y0046563D01*
X0025774Y0045821D01*
X0018080Y0045821D01*
X0016951Y0046950D01*
X0011649Y0046950D01*
X0007900Y0043201D01*
X0007900Y0037899D01*
X0011649Y0034150D01*
X0016951Y0034150D01*
X0020700Y0037899D01*
X0020700Y0041421D01*
X0025774Y0041421D01*
X0025774Y0040679D01*
X0026594Y0039859D01*
X0037006Y0039859D01*
X0037826Y0040679D01*
X0037826Y0042697D01*
X0037839Y0042710D01*
X0037839Y0044532D01*
X0037826Y0044545D01*
X0037826Y0046563D01*
X0037750Y0046639D01*
X0037750Y0047139D01*
X0037826Y0045850D02*
X0070549Y0045850D01*
X0069351Y0044652D02*
X0037826Y0044652D01*
X0037839Y0043453D02*
X0068152Y0043453D01*
X0063853Y0049446D02*
X0084651Y0049446D01*
X0084651Y0048247D02*
X0038859Y0048247D01*
X0040057Y0049446D02*
X0047247Y0049446D01*
X0046049Y0050644D02*
X0041256Y0050644D01*
X0037430Y0053041D02*
X0035800Y0053041D01*
X0035800Y0051843D02*
X0036232Y0051843D01*
X0035800Y0054240D02*
X0038629Y0054240D01*
X0035068Y0055438D02*
X0046032Y0055438D01*
X0047230Y0056637D02*
X0033870Y0056637D01*
X0029730Y0056637D02*
X0024153Y0056637D01*
X0023540Y0057250D02*
X0022000Y0057250D01*
X0022000Y0053250D01*
X0026000Y0053250D01*
X0026000Y0054790D01*
X0023540Y0057250D01*
X0022000Y0056637D02*
X0021600Y0056637D01*
X0021600Y0057250D02*
X0020060Y0057250D01*
X0017600Y0054790D01*
X0017600Y0053250D01*
X0021600Y0053250D01*
X0021600Y0057250D01*
X0021600Y0055438D02*
X0022000Y0055438D01*
X0022000Y0054240D02*
X0021600Y0054240D01*
X0021600Y0053250D02*
X0022000Y0053250D01*
X0022000Y0052850D01*
X0026000Y0052850D01*
X0026000Y0051310D01*
X0023540Y0048850D01*
X0022000Y0048850D01*
X0022000Y0052850D01*
X0021600Y0052850D01*
X0021600Y0048850D01*
X0020060Y0048850D01*
X0017600Y0051310D01*
X0017600Y0052850D01*
X0021600Y0052850D01*
X0021600Y0053250D01*
X0021600Y0053041D02*
X0006400Y0053041D01*
X0006400Y0051843D02*
X0017600Y0051843D01*
X0018266Y0050644D02*
X0006400Y0050644D01*
X0006400Y0049446D02*
X0019465Y0049446D01*
X0021600Y0049446D02*
X0022000Y0049446D01*
X0022000Y0050644D02*
X0021600Y0050644D01*
X0021600Y0051843D02*
X0022000Y0051843D01*
X0022000Y0053041D02*
X0027800Y0053041D01*
X0027800Y0051843D02*
X0026000Y0051843D01*
X0025334Y0050644D02*
X0028549Y0050644D01*
X0029600Y0049446D02*
X0024135Y0049446D01*
X0026260Y0047049D02*
X0006400Y0047049D01*
X0006400Y0048247D02*
X0029600Y0048247D01*
X0025774Y0045850D02*
X0018051Y0045850D01*
X0020700Y0041056D02*
X0025774Y0041056D01*
X0020700Y0039858D02*
X0055496Y0039858D01*
X0054298Y0038659D02*
X0020700Y0038659D01*
X0020262Y0037461D02*
X0053350Y0037461D01*
X0053350Y0036262D02*
X0019063Y0036262D01*
X0017865Y0035064D02*
X0053350Y0035064D01*
X0053350Y0033865D02*
X0006400Y0033865D01*
X0006400Y0032667D02*
X0053350Y0032667D01*
X0053350Y0031468D02*
X0017716Y0031468D01*
X0017034Y0032150D02*
X0014600Y0032150D01*
X0014600Y0025850D01*
X0020900Y0025850D01*
X0020900Y0028284D01*
X0017034Y0032150D01*
X0014600Y0031468D02*
X0014000Y0031468D01*
X0014000Y0032150D02*
X0011566Y0032150D01*
X0007700Y0028284D01*
X0007700Y0025850D01*
X0014000Y0025850D01*
X0014000Y0032150D01*
X0014000Y0030270D02*
X0014600Y0030270D01*
X0014600Y0029071D02*
X0014000Y0029071D01*
X0014000Y0027873D02*
X0014600Y0027873D01*
X0014600Y0026674D02*
X0014000Y0026674D01*
X0014000Y0025850D02*
X0014600Y0025850D01*
X0014600Y0025250D01*
X0020900Y0025250D01*
X0020900Y0022816D01*
X0017034Y0018950D01*
X0014600Y0018950D01*
X0014600Y0025250D01*
X0014000Y0025250D01*
X0014000Y0018950D01*
X0011566Y0018950D01*
X0007700Y0022816D01*
X0007700Y0025250D01*
X0014000Y0025250D01*
X0014000Y0025850D01*
X0014000Y0025476D02*
X0006400Y0025476D01*
X0006400Y0024277D02*
X0007700Y0024277D01*
X0007700Y0023079D02*
X0006400Y0023079D01*
X0006400Y0021880D02*
X0008636Y0021880D01*
X0009835Y0020682D02*
X0006400Y0020682D01*
X0006400Y0019483D02*
X0011033Y0019483D01*
X0010650Y0018831D02*
X0008525Y0017951D01*
X0006899Y0016325D01*
X0006400Y0015120D01*
X0006400Y0062161D01*
X0073385Y0062161D01*
X0072275Y0061701D01*
X0070649Y0060075D01*
X0069769Y0057950D01*
X0069769Y0055650D01*
X0070649Y0053525D01*
X0072275Y0051899D01*
X0074400Y0051019D01*
X0076700Y0051019D01*
X0078825Y0051899D01*
X0080451Y0053525D01*
X0081331Y0055650D01*
X0081331Y0057950D01*
X0080451Y0060075D01*
X0078825Y0061701D01*
X0077715Y0062161D01*
X0084651Y0062161D01*
X0084651Y0006400D01*
X0006400Y0006400D01*
X0006400Y0010980D01*
X0006899Y0009775D01*
X0008525Y0008149D01*
X0010650Y0007269D01*
X0012950Y0007269D01*
X0015075Y0008149D01*
X0016701Y0009775D01*
X0017581Y0011900D01*
X0017581Y0014200D01*
X0016701Y0016325D01*
X0015075Y0017951D01*
X0012950Y0018831D01*
X0010650Y0018831D01*
X0009330Y0018284D02*
X0006400Y0018284D01*
X0006400Y0017086D02*
X0007660Y0017086D01*
X0006718Y0015887D02*
X0006400Y0015887D01*
X0014270Y0018284D02*
X0022600Y0018284D01*
X0022600Y0018250D02*
X0026600Y0018250D01*
X0026600Y0022250D01*
X0025060Y0022250D01*
X0022600Y0019790D01*
X0022600Y0018250D01*
X0022600Y0017850D02*
X0022600Y0016310D01*
X0025060Y0013850D01*
X0026600Y0013850D01*
X0026600Y0017850D01*
X0027000Y0017850D01*
X0027000Y0018250D01*
X0026600Y0018250D01*
X0026600Y0017850D01*
X0022600Y0017850D01*
X0022600Y0017086D02*
X0015940Y0017086D01*
X0016882Y0015887D02*
X0023023Y0015887D01*
X0024221Y0014689D02*
X0017379Y0014689D01*
X0017581Y0013490D02*
X0034600Y0013490D01*
X0034504Y0014689D02*
X0029379Y0014689D01*
X0028540Y0013850D02*
X0031000Y0016310D01*
X0031000Y0017850D01*
X0027000Y0017850D01*
X0027000Y0013850D01*
X0028540Y0013850D01*
X0027000Y0014689D02*
X0026600Y0014689D01*
X0026600Y0015887D02*
X0027000Y0015887D01*
X0027000Y0017086D02*
X0026600Y0017086D01*
X0026600Y0018284D02*
X0027000Y0018284D01*
X0027000Y0019483D02*
X0026600Y0019483D01*
X0026600Y0020682D02*
X0027000Y0020682D01*
X0027000Y0021880D02*
X0026600Y0021880D01*
X0024690Y0021880D02*
X0019964Y0021880D01*
X0018765Y0020682D02*
X0023492Y0020682D01*
X0022600Y0019483D02*
X0017567Y0019483D01*
X0014600Y0019483D02*
X0014000Y0019483D01*
X0014000Y0020682D02*
X0014600Y0020682D01*
X0014600Y0021880D02*
X0014000Y0021880D01*
X0014000Y0023079D02*
X0014600Y0023079D01*
X0014600Y0024277D02*
X0014000Y0024277D01*
X0014600Y0025476D02*
X0025774Y0025476D01*
X0026034Y0024277D02*
X0020900Y0024277D01*
X0020900Y0023079D02*
X0029600Y0023079D01*
X0029600Y0021880D02*
X0028910Y0021880D01*
X0034000Y0021880D02*
X0034973Y0021880D01*
X0034000Y0023079D02*
X0053350Y0023079D01*
X0053350Y0024277D02*
X0037789Y0024277D01*
X0038026Y0025476D02*
X0053350Y0025476D01*
X0053350Y0026674D02*
X0038026Y0026674D01*
X0038026Y0027873D02*
X0053350Y0027873D01*
X0053350Y0029071D02*
X0038026Y0029071D01*
X0037968Y0030270D02*
X0053350Y0030270D01*
X0057750Y0030270D02*
X0069686Y0030270D01*
X0068487Y0029071D02*
X0057750Y0029071D01*
X0057750Y0027873D02*
X0067700Y0027873D01*
X0067700Y0028284D02*
X0067700Y0025850D01*
X0074000Y0025850D01*
X0074000Y0032150D01*
X0071566Y0032150D01*
X0067700Y0028284D01*
X0067700Y0026674D02*
X0057750Y0026674D01*
X0057750Y0025476D02*
X0074000Y0025476D01*
X0074000Y0025250D02*
X0067700Y0025250D01*
X0067700Y0022816D01*
X0071566Y0018950D01*
X0074000Y0018950D01*
X0074000Y0025250D01*
X0074600Y0025250D01*
X0074600Y0025850D01*
X0080900Y0025850D01*
X0080900Y0028284D01*
X0077034Y0032150D01*
X0074600Y0032150D01*
X0074600Y0025850D01*
X0074000Y0025850D01*
X0074000Y0025250D01*
X0074600Y0025250D02*
X0074600Y0018950D01*
X0077034Y0018950D01*
X0080900Y0022816D01*
X0080900Y0025250D01*
X0074600Y0025250D01*
X0074600Y0025476D02*
X0084651Y0025476D01*
X0084651Y0024277D02*
X0080900Y0024277D01*
X0080900Y0023079D02*
X0084651Y0023079D01*
X0084651Y0021880D02*
X0079964Y0021880D01*
X0078765Y0020682D02*
X0084651Y0020682D01*
X0084651Y0019483D02*
X0077567Y0019483D01*
X0074600Y0019483D02*
X0074000Y0019483D01*
X0074000Y0020682D02*
X0074600Y0020682D01*
X0074600Y0021880D02*
X0074000Y0021880D01*
X0074000Y0023079D02*
X0074600Y0023079D01*
X0074600Y0024277D02*
X0074000Y0024277D01*
X0074000Y0026674D02*
X0074600Y0026674D01*
X0074600Y0027873D02*
X0074000Y0027873D01*
X0074000Y0029071D02*
X0074600Y0029071D01*
X0074600Y0030270D02*
X0074000Y0030270D01*
X0074000Y0031468D02*
X0074600Y0031468D01*
X0077716Y0031468D02*
X0084651Y0031468D01*
X0084651Y0030270D02*
X0078914Y0030270D01*
X0080113Y0029071D02*
X0084651Y0029071D01*
X0084651Y0027873D02*
X0080900Y0027873D01*
X0080900Y0026674D02*
X0084651Y0026674D01*
X0084651Y0032667D02*
X0057750Y0032667D01*
X0057750Y0033865D02*
X0084651Y0033865D01*
X0084651Y0035064D02*
X0077865Y0035064D01*
X0070735Y0035064D02*
X0057750Y0035064D01*
X0058123Y0036262D02*
X0069537Y0036262D01*
X0068338Y0037461D02*
X0059322Y0037461D01*
X0056695Y0041056D02*
X0037826Y0041056D01*
X0037826Y0042255D02*
X0057893Y0042255D01*
X0059747Y0049446D02*
X0051353Y0049446D01*
X0052551Y0050644D02*
X0058549Y0050644D01*
X0058532Y0055438D02*
X0052568Y0055438D01*
X0051370Y0056637D02*
X0059730Y0056637D01*
X0063870Y0056637D02*
X0069769Y0056637D01*
X0069857Y0055438D02*
X0065068Y0055438D01*
X0065800Y0054240D02*
X0070353Y0054240D01*
X0071133Y0053041D02*
X0065800Y0053041D01*
X0065800Y0051843D02*
X0072411Y0051843D01*
X0078689Y0051843D02*
X0084651Y0051843D01*
X0084651Y0053041D02*
X0079967Y0053041D01*
X0080747Y0054240D02*
X0084651Y0054240D01*
X0084651Y0055438D02*
X0081243Y0055438D01*
X0081331Y0056637D02*
X0084651Y0056637D01*
X0084651Y0057835D02*
X0081331Y0057835D01*
X0080882Y0059034D02*
X0084651Y0059034D01*
X0084651Y0060232D02*
X0080293Y0060232D01*
X0079095Y0061431D02*
X0084651Y0061431D01*
X0072005Y0061431D02*
X0006400Y0061431D01*
X0006400Y0060232D02*
X0070807Y0060232D01*
X0070218Y0059034D02*
X0006400Y0059034D01*
X0006400Y0057835D02*
X0069769Y0057835D01*
X0065051Y0050644D02*
X0084651Y0050644D01*
X0070884Y0031468D02*
X0057750Y0031468D01*
X0057750Y0024277D02*
X0067700Y0024277D01*
X0067700Y0023079D02*
X0057750Y0023079D01*
X0057750Y0021880D02*
X0068636Y0021880D01*
X0069835Y0020682D02*
X0057750Y0020682D01*
X0057750Y0019483D02*
X0071033Y0019483D01*
X0064902Y0015887D02*
X0084651Y0015887D01*
X0084651Y0014689D02*
X0066000Y0014689D01*
X0066000Y0014790D02*
X0063540Y0017250D01*
X0062000Y0017250D01*
X0062000Y0013250D01*
X0061600Y0013250D01*
X0061600Y0012850D01*
X0062000Y0012850D01*
X0062000Y0013250D01*
X0066000Y0013250D01*
X0066000Y0014790D01*
X0066000Y0013490D02*
X0084651Y0013490D01*
X0084651Y0012292D02*
X0066000Y0012292D01*
X0066000Y0012850D02*
X0062000Y0012850D01*
X0062000Y0008850D01*
X0063540Y0008850D01*
X0066000Y0011310D01*
X0066000Y0012850D01*
X0065783Y0011093D02*
X0084651Y0011093D01*
X0084651Y0009895D02*
X0064585Y0009895D01*
X0062000Y0009895D02*
X0061600Y0009895D01*
X0061600Y0008850D02*
X0061600Y0012850D01*
X0057600Y0012850D01*
X0057600Y0011310D01*
X0060060Y0008850D01*
X0061600Y0008850D01*
X0061600Y0011093D02*
X0062000Y0011093D01*
X0062000Y0012292D02*
X0061600Y0012292D01*
X0061600Y0013490D02*
X0062000Y0013490D01*
X0062000Y0014689D02*
X0061600Y0014689D01*
X0061600Y0015887D02*
X0062000Y0015887D01*
X0062000Y0017086D02*
X0061600Y0017086D01*
X0059896Y0017086D02*
X0057750Y0017086D01*
X0057750Y0018284D02*
X0084651Y0018284D01*
X0084651Y0017086D02*
X0063704Y0017086D01*
X0058698Y0015887D02*
X0057750Y0015887D01*
X0057600Y0013490D02*
X0056602Y0013490D01*
X0057600Y0012292D02*
X0055403Y0012292D01*
X0054205Y0011093D02*
X0057817Y0011093D01*
X0059015Y0009895D02*
X0051802Y0009895D01*
X0046798Y0009895D02*
X0016751Y0009895D01*
X0015622Y0008696D02*
X0084651Y0008696D01*
X0084651Y0007498D02*
X0013503Y0007498D01*
X0010097Y0007498D02*
X0006400Y0007498D01*
X0006400Y0008696D02*
X0007978Y0008696D01*
X0006849Y0009895D02*
X0006400Y0009895D01*
X0017247Y0011093D02*
X0036895Y0011093D01*
X0035697Y0012292D02*
X0017581Y0012292D01*
X0030577Y0015887D02*
X0033306Y0015887D01*
X0032153Y0017086D02*
X0031000Y0017086D01*
X0038627Y0021880D02*
X0053350Y0021880D01*
X0053350Y0020682D02*
X0039825Y0020682D01*
X0040800Y0019483D02*
X0053350Y0019483D01*
X0053350Y0018284D02*
X0040800Y0018284D01*
X0040800Y0017086D02*
X0053350Y0017086D01*
X0052776Y0015887D02*
X0052119Y0015887D01*
X0046481Y0015887D02*
X0040294Y0015887D01*
X0035639Y0024277D02*
X0035639Y0024277D01*
X0035639Y0025476D02*
X0035639Y0025476D01*
X0035639Y0026674D02*
X0035639Y0026674D01*
X0035639Y0027873D02*
X0035639Y0027873D01*
X0035639Y0029071D02*
X0035639Y0029071D01*
X0035639Y0030270D02*
X0035639Y0030270D01*
X0025774Y0030270D02*
X0018914Y0030270D01*
X0020113Y0029071D02*
X0025774Y0029071D01*
X0025761Y0027873D02*
X0020900Y0027873D01*
X0020900Y0026674D02*
X0025761Y0026674D01*
X0010884Y0031468D02*
X0006400Y0031468D01*
X0006400Y0030270D02*
X0009686Y0030270D01*
X0008487Y0029071D02*
X0006400Y0029071D01*
X0006400Y0027873D02*
X0007700Y0027873D01*
X0007700Y0026674D02*
X0006400Y0026674D01*
X0006400Y0035064D02*
X0010735Y0035064D01*
X0009537Y0036262D02*
X0006400Y0036262D01*
X0006400Y0037461D02*
X0008338Y0037461D01*
X0007900Y0038659D02*
X0006400Y0038659D01*
X0006400Y0039858D02*
X0007900Y0039858D01*
X0007900Y0041056D02*
X0006400Y0041056D01*
X0006400Y0042255D02*
X0007900Y0042255D01*
X0008152Y0043453D02*
X0006400Y0043453D01*
X0006400Y0044652D02*
X0009351Y0044652D01*
X0010549Y0045850D02*
X0006400Y0045850D01*
X0006400Y0054240D02*
X0017600Y0054240D01*
X0018249Y0055438D02*
X0006400Y0055438D01*
X0006400Y0056637D02*
X0019447Y0056637D01*
X0025351Y0055438D02*
X0028532Y0055438D01*
X0027800Y0054240D02*
X0026000Y0054240D01*
M02*
