G75*
%MOIN*%
%OFA0B0*%
%FSLAX25Y25*%
%IPPOS*%
%LPD*%
%AMOC8*
5,1,8,0,0,1.08239X$1,22.5*
%
%ADD10C,0.00000*%
%ADD11C,0.00200*%
%ADD12C,0.05200*%
%ADD13OC8,0.06300*%
%ADD14OC8,0.06600*%
%ADD15C,0.07400*%
%ADD16C,0.01600*%
D10*
X0001000Y0001000D02*
X0001000Y0109701D01*
X0340921Y0109701D01*
X0340921Y0001000D01*
X0001000Y0001000D01*
D11*
X0032830Y0010366D02*
X0032830Y0012568D01*
X0033931Y0012568D01*
X0034298Y0012201D01*
X0034298Y0011467D01*
X0033931Y0011100D01*
X0032830Y0011100D01*
X0032089Y0011467D02*
X0032089Y0012201D01*
X0031722Y0012568D01*
X0030988Y0012568D01*
X0030621Y0012201D01*
X0030621Y0011467D01*
X0030988Y0011100D01*
X0031722Y0011100D01*
X0032089Y0011467D01*
X0029881Y0011100D02*
X0029147Y0011100D01*
X0029514Y0011100D02*
X0029514Y0013302D01*
X0029147Y0013302D01*
X0028405Y0013302D02*
X0026937Y0011834D01*
X0027304Y0012201D02*
X0028405Y0011100D01*
X0026937Y0011100D02*
X0026937Y0013302D01*
X0027303Y0014700D02*
X0027303Y0016902D01*
X0026569Y0016168D01*
X0025827Y0016535D02*
X0024359Y0015067D01*
X0024726Y0014700D01*
X0025460Y0014700D01*
X0025827Y0015067D01*
X0025827Y0016535D01*
X0025460Y0016902D01*
X0024726Y0016902D01*
X0024359Y0016535D01*
X0024359Y0015067D01*
X0023617Y0014700D02*
X0022149Y0014700D01*
X0023617Y0016168D01*
X0023617Y0016535D01*
X0023250Y0016902D01*
X0022516Y0016902D01*
X0022149Y0016535D01*
X0021411Y0015067D02*
X0021411Y0014700D01*
X0021044Y0014700D01*
X0021044Y0015067D01*
X0021411Y0015067D01*
X0020302Y0014700D02*
X0018835Y0014700D01*
X0019569Y0014700D02*
X0019569Y0016902D01*
X0018835Y0016168D01*
X0018093Y0016535D02*
X0016625Y0015067D01*
X0016992Y0014700D01*
X0017726Y0014700D01*
X0018093Y0015067D01*
X0018093Y0016535D01*
X0017726Y0016902D01*
X0016992Y0016902D01*
X0016625Y0016535D01*
X0016625Y0015067D01*
X0015887Y0015067D02*
X0015887Y0014700D01*
X0015520Y0014700D01*
X0015520Y0015067D01*
X0015887Y0015067D01*
X0014778Y0015067D02*
X0014411Y0014700D01*
X0013677Y0014700D01*
X0013310Y0015067D01*
X0012568Y0014700D02*
X0011100Y0014700D01*
X0011834Y0014700D02*
X0011834Y0016902D01*
X0011100Y0016168D01*
X0013310Y0016535D02*
X0013677Y0016902D01*
X0014411Y0016902D01*
X0014778Y0016535D01*
X0014778Y0016168D01*
X0014411Y0015801D01*
X0014778Y0015434D01*
X0014778Y0015067D01*
X0014411Y0015801D02*
X0014044Y0015801D01*
X0015520Y0017566D02*
X0015520Y0019768D01*
X0016621Y0019768D01*
X0016988Y0019401D01*
X0016988Y0018667D01*
X0016621Y0018300D01*
X0015520Y0018300D01*
X0014778Y0018300D02*
X0014778Y0019401D01*
X0014411Y0019768D01*
X0014044Y0019401D01*
X0014044Y0018300D01*
X0013310Y0018300D02*
X0013310Y0019768D01*
X0013677Y0019768D01*
X0014044Y0019401D01*
X0012568Y0019401D02*
X0011100Y0019401D01*
X0011100Y0019768D02*
X0011834Y0020502D01*
X0012568Y0019768D01*
X0012568Y0018300D01*
X0011100Y0018300D02*
X0011100Y0019768D01*
X0017730Y0020502D02*
X0018097Y0020502D01*
X0018097Y0018300D01*
X0017730Y0018300D02*
X0018464Y0018300D01*
X0019203Y0018300D02*
X0019937Y0018300D01*
X0019570Y0018300D02*
X0019570Y0019768D01*
X0019203Y0019768D01*
X0019570Y0020502D02*
X0019570Y0020869D01*
X0021043Y0020135D02*
X0021410Y0020502D01*
X0021043Y0020135D02*
X0021043Y0018300D01*
X0022149Y0018300D02*
X0022883Y0018300D01*
X0022516Y0018300D02*
X0022516Y0019768D01*
X0022149Y0019768D01*
X0022516Y0020502D02*
X0022516Y0020869D01*
X0021410Y0019401D02*
X0020676Y0019401D01*
X0023623Y0019401D02*
X0023623Y0018667D01*
X0023990Y0018300D01*
X0025091Y0018300D01*
X0025833Y0018667D02*
X0026200Y0019034D01*
X0027300Y0019034D01*
X0027300Y0019401D02*
X0027300Y0018300D01*
X0026200Y0018300D01*
X0025833Y0018667D01*
X0026200Y0019768D02*
X0026933Y0019768D01*
X0027300Y0019401D01*
X0028042Y0019401D02*
X0028042Y0018667D01*
X0028409Y0018300D01*
X0029510Y0018300D01*
X0029510Y0020502D01*
X0029510Y0019768D02*
X0028409Y0019768D01*
X0028042Y0019401D01*
X0030252Y0019401D02*
X0030252Y0018667D01*
X0030619Y0018300D01*
X0031353Y0018300D01*
X0031720Y0018667D01*
X0031720Y0019401D01*
X0031353Y0019768D01*
X0030619Y0019768D01*
X0030252Y0019401D01*
X0032462Y0019768D02*
X0032462Y0018300D01*
X0032462Y0019034D02*
X0033196Y0019768D01*
X0033563Y0019768D01*
X0036514Y0020135D02*
X0036881Y0020502D01*
X0037615Y0020502D01*
X0037982Y0020135D01*
X0037982Y0019768D01*
X0037615Y0019401D01*
X0037982Y0019034D01*
X0037982Y0018667D01*
X0037615Y0018300D01*
X0036881Y0018300D01*
X0036514Y0018667D01*
X0037248Y0019401D02*
X0037615Y0019401D01*
X0040933Y0019401D02*
X0041667Y0019401D01*
X0040933Y0020502D02*
X0040933Y0018300D01*
X0042401Y0018300D01*
X0043143Y0018300D02*
X0044244Y0018300D01*
X0044611Y0018667D01*
X0044244Y0019034D01*
X0043510Y0019034D01*
X0043143Y0019401D01*
X0043510Y0019768D01*
X0044611Y0019768D01*
X0045353Y0019768D02*
X0046087Y0019768D01*
X0045720Y0020135D02*
X0045720Y0018667D01*
X0046087Y0018300D01*
X0046826Y0018667D02*
X0047193Y0019034D01*
X0048294Y0019034D01*
X0048294Y0019401D02*
X0048294Y0018300D01*
X0047193Y0018300D01*
X0046826Y0018667D01*
X0047193Y0019768D02*
X0047927Y0019768D01*
X0048294Y0019401D01*
X0049036Y0019401D02*
X0049036Y0018667D01*
X0049403Y0018300D01*
X0050504Y0018300D01*
X0050504Y0017933D02*
X0050504Y0019768D01*
X0049403Y0019768D01*
X0049036Y0019401D01*
X0050504Y0017933D02*
X0050137Y0017566D01*
X0049770Y0017566D01*
X0051246Y0018300D02*
X0051980Y0018300D01*
X0051613Y0018300D02*
X0051613Y0019768D01*
X0051246Y0019768D01*
X0051613Y0020502D02*
X0051613Y0020869D01*
X0052719Y0019401D02*
X0052719Y0018667D01*
X0053086Y0018300D01*
X0053820Y0018300D01*
X0054187Y0018667D01*
X0054187Y0019401D01*
X0053820Y0019768D01*
X0053086Y0019768D01*
X0052719Y0019401D01*
X0054929Y0019401D02*
X0055296Y0019768D01*
X0056397Y0019768D01*
X0056030Y0019034D02*
X0055296Y0019034D01*
X0054929Y0019401D01*
X0054929Y0018300D02*
X0056030Y0018300D01*
X0056397Y0018667D01*
X0056030Y0019034D01*
X0043506Y0014700D02*
X0042038Y0014700D01*
X0042772Y0014700D02*
X0042772Y0016902D01*
X0042038Y0016168D01*
X0041296Y0016535D02*
X0040929Y0016902D01*
X0040195Y0016902D01*
X0039828Y0016535D01*
X0039828Y0016168D01*
X0040195Y0015801D01*
X0040929Y0015801D01*
X0041296Y0015434D01*
X0041296Y0015067D01*
X0040929Y0014700D01*
X0040195Y0014700D01*
X0039828Y0015067D01*
X0039086Y0015434D02*
X0039086Y0016902D01*
X0037619Y0016902D02*
X0037619Y0015434D01*
X0038352Y0014700D01*
X0039086Y0015434D01*
X0039460Y0013302D02*
X0039827Y0013302D01*
X0039827Y0011100D01*
X0039460Y0011100D02*
X0040194Y0011100D01*
X0038718Y0011834D02*
X0037250Y0011834D01*
X0037250Y0011467D02*
X0037250Y0012201D01*
X0037617Y0012568D01*
X0038351Y0012568D01*
X0038718Y0012201D01*
X0038718Y0011834D01*
X0038351Y0011100D02*
X0037617Y0011100D01*
X0037250Y0011467D01*
X0036508Y0011467D02*
X0036141Y0011100D01*
X0035040Y0011100D01*
X0035040Y0010366D02*
X0035040Y0012568D01*
X0036141Y0012568D01*
X0036508Y0012201D01*
X0036508Y0011467D01*
X0030247Y0015067D02*
X0029880Y0014700D01*
X0029146Y0014700D01*
X0028779Y0015067D01*
X0028779Y0015434D01*
X0029146Y0015801D01*
X0029880Y0015801D01*
X0030247Y0015434D01*
X0030247Y0015067D01*
X0029880Y0015801D02*
X0030247Y0016168D01*
X0030247Y0016535D01*
X0029880Y0016902D01*
X0029146Y0016902D01*
X0028779Y0016535D01*
X0028779Y0016168D01*
X0029146Y0015801D01*
X0028037Y0014700D02*
X0026569Y0014700D01*
X0021411Y0013669D02*
X0021411Y0013302D01*
X0021411Y0012568D02*
X0021411Y0011100D01*
X0021044Y0011100D02*
X0021778Y0011100D01*
X0022518Y0011100D02*
X0023986Y0011100D01*
X0023986Y0012568D02*
X0022518Y0012568D01*
X0021411Y0012568D02*
X0021044Y0012568D01*
X0020304Y0012568D02*
X0019937Y0012568D01*
X0019203Y0011834D01*
X0019203Y0011100D02*
X0019203Y0012568D01*
X0018464Y0012568D02*
X0017730Y0012568D01*
X0018097Y0012935D02*
X0018097Y0011467D01*
X0018464Y0011100D01*
X0016988Y0011100D02*
X0016988Y0012201D01*
X0016621Y0012568D01*
X0015887Y0012568D01*
X0015887Y0011834D02*
X0016988Y0011834D01*
X0016988Y0011100D02*
X0015887Y0011100D01*
X0015520Y0011467D01*
X0015887Y0011834D01*
X0014778Y0011834D02*
X0013310Y0011834D01*
X0013310Y0011467D02*
X0013310Y0012201D01*
X0013677Y0012568D01*
X0014411Y0012568D01*
X0014778Y0012201D01*
X0014778Y0011834D01*
X0014411Y0011100D02*
X0013677Y0011100D01*
X0013310Y0011467D01*
X0012568Y0011467D02*
X0012201Y0011100D01*
X0011100Y0011100D01*
X0011100Y0013302D01*
X0012201Y0013302D01*
X0012568Y0012935D01*
X0012568Y0012568D01*
X0012201Y0012201D01*
X0011100Y0012201D01*
X0012201Y0012201D02*
X0012568Y0011834D01*
X0012568Y0011467D01*
X0022518Y0011100D02*
X0023986Y0012568D01*
X0033199Y0015801D02*
X0034667Y0015801D01*
X0025091Y0019768D02*
X0023990Y0019768D01*
X0023623Y0019401D01*
X0040933Y0020502D02*
X0042401Y0020502D01*
D12*
X0056000Y0058400D02*
X0056000Y0063600D01*
X0066000Y0063600D02*
X0066000Y0058400D01*
X0076000Y0058400D02*
X0076000Y0063600D01*
X0086000Y0063600D02*
X0086000Y0058400D01*
X0096000Y0058400D02*
X0096000Y0063600D01*
X0106000Y0063600D02*
X0106000Y0058400D01*
X0116000Y0058400D02*
X0116000Y0063600D01*
X0161000Y0063600D02*
X0161000Y0058400D01*
X0171000Y0058400D02*
X0171000Y0063600D01*
X0181000Y0063600D02*
X0181000Y0058400D01*
X0191000Y0058400D02*
X0191000Y0063600D01*
X0201000Y0063600D02*
X0201000Y0058400D01*
X0211000Y0058400D02*
X0211000Y0063600D01*
X0221000Y0063600D02*
X0221000Y0058400D01*
X0266000Y0058400D02*
X0266000Y0063600D01*
X0276000Y0063600D02*
X0276000Y0058400D01*
X0286000Y0058400D02*
X0286000Y0063600D01*
X0296000Y0063600D02*
X0296000Y0058400D01*
X0306000Y0058400D02*
X0306000Y0063600D01*
X0316000Y0063600D02*
X0316000Y0058400D01*
X0326000Y0058400D02*
X0326000Y0063600D01*
X0326000Y0088400D02*
X0326000Y0093600D01*
X0316000Y0093600D02*
X0316000Y0088400D01*
X0306000Y0088400D02*
X0306000Y0093600D01*
X0296000Y0093600D02*
X0296000Y0088400D01*
X0286000Y0088400D02*
X0286000Y0093600D01*
X0276000Y0093600D02*
X0276000Y0088400D01*
X0266000Y0088400D02*
X0266000Y0093600D01*
X0221000Y0093600D02*
X0221000Y0088400D01*
X0211000Y0088400D02*
X0211000Y0093600D01*
X0201000Y0093600D02*
X0201000Y0088400D01*
X0191000Y0088400D02*
X0191000Y0093600D01*
X0181000Y0093600D02*
X0181000Y0088400D01*
X0171000Y0088400D02*
X0171000Y0093600D01*
X0161000Y0093600D02*
X0161000Y0088400D01*
X0116000Y0088400D02*
X0116000Y0093600D01*
X0106000Y0093600D02*
X0106000Y0088400D01*
X0096000Y0088400D02*
X0096000Y0093600D01*
X0086000Y0093600D02*
X0086000Y0088400D01*
X0076000Y0088400D02*
X0076000Y0093600D01*
X0066000Y0093600D02*
X0066000Y0088400D01*
X0056000Y0088400D02*
X0056000Y0093600D01*
D13*
X0066000Y0041000D03*
X0091000Y0041000D03*
X0146000Y0041000D03*
X0171000Y0041000D03*
X0211000Y0041000D03*
X0241000Y0041000D03*
X0266000Y0041000D03*
X0306000Y0041000D03*
X0306000Y0021000D03*
X0266000Y0021000D03*
X0241000Y0021000D03*
X0211000Y0021000D03*
X0171000Y0021000D03*
X0146000Y0021000D03*
X0091000Y0021000D03*
X0066000Y0021000D03*
D14*
X0111000Y0013000D03*
X0041000Y0038000D03*
X0111000Y0049000D03*
X0131000Y0058000D03*
X0146000Y0058000D03*
X0191000Y0049000D03*
X0236000Y0058000D03*
X0251000Y0058000D03*
X0286000Y0049000D03*
X0326000Y0049000D03*
X0326000Y0013000D03*
X0286000Y0013000D03*
X0191000Y0013000D03*
X0041000Y0074000D03*
X0131000Y0094000D03*
X0146000Y0094000D03*
X0236000Y0094000D03*
X0251000Y0094000D03*
D15*
X0024700Y0086000D02*
X0017300Y0086000D01*
X0017300Y0076000D02*
X0024700Y0076000D01*
X0024700Y0066000D02*
X0017300Y0066000D01*
X0017300Y0056000D02*
X0024700Y0056000D01*
X0024700Y0046000D02*
X0017300Y0046000D01*
X0017300Y0036000D02*
X0024700Y0036000D01*
D16*
X0021300Y0036300D02*
X0030200Y0036300D01*
X0030200Y0036433D01*
X0030065Y0037288D01*
X0029797Y0038111D01*
X0029404Y0038883D01*
X0028895Y0039583D01*
X0028283Y0040195D01*
X0027583Y0040704D01*
X0027236Y0040881D01*
X0027929Y0041168D01*
X0029532Y0042771D01*
X0030400Y0044866D01*
X0030400Y0047134D01*
X0029532Y0049229D01*
X0027929Y0050832D01*
X0027524Y0051000D01*
X0027929Y0051168D01*
X0029532Y0052771D01*
X0029710Y0053200D01*
X0039840Y0053200D01*
X0048200Y0044840D01*
X0048200Y0040443D01*
X0048626Y0039414D01*
X0058626Y0029414D01*
X0059414Y0028626D01*
X0060443Y0028200D01*
X0116557Y0028200D01*
X0117586Y0028626D01*
X0142586Y0053626D01*
X0142732Y0053772D01*
X0143805Y0052700D01*
X0148195Y0052700D01*
X0151300Y0055805D01*
X0151300Y0060195D01*
X0148800Y0062695D01*
X0148800Y0064840D01*
X0157160Y0073200D01*
X0178200Y0073200D01*
X0178200Y0067305D01*
X0177100Y0066206D01*
X0176400Y0064515D01*
X0176400Y0057485D01*
X0177100Y0055794D01*
X0178394Y0054500D01*
X0180085Y0053800D01*
X0181915Y0053800D01*
X0183606Y0054500D01*
X0184900Y0055794D01*
X0185600Y0057485D01*
X0185600Y0064515D01*
X0184900Y0066206D01*
X0183800Y0067305D01*
X0183800Y0073200D01*
X0184840Y0073200D01*
X0189912Y0068128D01*
X0188394Y0067500D01*
X0187100Y0066206D01*
X0186400Y0064515D01*
X0186400Y0057485D01*
X0187100Y0055794D01*
X0188200Y0054695D01*
X0188200Y0053695D01*
X0185700Y0051195D01*
X0185700Y0046805D01*
X0188200Y0044305D01*
X0188200Y0040443D01*
X0188626Y0039414D01*
X0198626Y0029414D01*
X0199414Y0028626D01*
X0200443Y0028200D01*
X0221557Y0028200D01*
X0222586Y0028626D01*
X0232586Y0038626D01*
X0233374Y0039414D01*
X0233800Y0040443D01*
X0233800Y0051840D01*
X0234660Y0052700D01*
X0238195Y0052700D01*
X0241300Y0055805D01*
X0241300Y0060195D01*
X0238195Y0063300D01*
X0233805Y0063300D01*
X0230700Y0060195D01*
X0230700Y0056660D01*
X0228626Y0054586D01*
X0228200Y0053557D01*
X0228200Y0042160D01*
X0219840Y0033800D01*
X0202160Y0033800D01*
X0193800Y0042160D01*
X0193800Y0044305D01*
X0196300Y0046805D01*
X0196300Y0051195D01*
X0193800Y0053695D01*
X0193800Y0054695D01*
X0194900Y0055794D01*
X0195600Y0057485D01*
X0195600Y0062440D01*
X0196400Y0061640D01*
X0196400Y0057485D01*
X0197100Y0055794D01*
X0198200Y0054695D01*
X0198200Y0050443D01*
X0198626Y0049414D01*
X0205850Y0042190D01*
X0205850Y0038867D01*
X0208867Y0035850D01*
X0213133Y0035850D01*
X0216150Y0038867D01*
X0216150Y0043133D01*
X0213133Y0046150D01*
X0209810Y0046150D01*
X0203800Y0052160D01*
X0203800Y0054695D01*
X0204900Y0055794D01*
X0205600Y0057485D01*
X0205600Y0064515D01*
X0204900Y0066206D01*
X0203606Y0067500D01*
X0201915Y0068200D01*
X0200085Y0068200D01*
X0198441Y0067519D01*
X0187760Y0078200D01*
X0194840Y0078200D01*
X0203626Y0069414D01*
X0204414Y0068626D01*
X0205443Y0068200D01*
X0246557Y0068200D01*
X0247586Y0068626D01*
X0257160Y0078200D01*
X0259240Y0078200D01*
X0258626Y0077586D01*
X0248626Y0067586D01*
X0248200Y0066557D01*
X0248200Y0062695D01*
X0245700Y0060195D01*
X0245700Y0055805D01*
X0248772Y0052732D01*
X0242190Y0046150D01*
X0238867Y0046150D01*
X0235850Y0043133D01*
X0235850Y0038867D01*
X0238867Y0035850D01*
X0243133Y0035850D01*
X0246150Y0038867D01*
X0246150Y0042190D01*
X0252160Y0048200D01*
X0256557Y0048200D01*
X0257586Y0048626D01*
X0258374Y0049414D01*
X0263441Y0054481D01*
X0264912Y0053872D01*
X0264414Y0053374D01*
X0263626Y0052586D01*
X0263200Y0051557D01*
X0263200Y0045483D01*
X0260850Y0043133D01*
X0260850Y0038867D01*
X0263867Y0035850D01*
X0268133Y0035850D01*
X0271150Y0038867D01*
X0271150Y0043133D01*
X0268800Y0045483D01*
X0268800Y0049840D01*
X0273441Y0054481D01*
X0275085Y0053800D01*
X0276915Y0053800D01*
X0278606Y0054500D01*
X0279900Y0055794D01*
X0280600Y0057485D01*
X0280600Y0064515D01*
X0279900Y0066206D01*
X0278606Y0067500D01*
X0276915Y0068200D01*
X0275085Y0068200D01*
X0273394Y0067500D01*
X0272100Y0066206D01*
X0271400Y0064515D01*
X0271400Y0060360D01*
X0270600Y0059560D01*
X0270600Y0064515D01*
X0269900Y0066206D01*
X0268606Y0067500D01*
X0266915Y0068200D01*
X0265085Y0068200D01*
X0263394Y0067500D01*
X0262100Y0066206D01*
X0261400Y0064515D01*
X0261400Y0060360D01*
X0254840Y0053800D01*
X0254295Y0053800D01*
X0256300Y0055805D01*
X0256300Y0060195D01*
X0253800Y0062695D01*
X0253800Y0064840D01*
X0262160Y0073200D01*
X0289840Y0073200D01*
X0294912Y0068128D01*
X0293394Y0067500D01*
X0292100Y0066206D01*
X0291400Y0064515D01*
X0291400Y0058360D01*
X0290600Y0057560D01*
X0290600Y0064515D01*
X0289900Y0066206D01*
X0288606Y0067500D01*
X0286915Y0068200D01*
X0285085Y0068200D01*
X0283394Y0067500D01*
X0282100Y0066206D01*
X0281400Y0064515D01*
X0281400Y0057485D01*
X0282100Y0055794D01*
X0283394Y0054500D01*
X0283878Y0054300D01*
X0283805Y0054300D01*
X0280700Y0051195D01*
X0280700Y0046805D01*
X0283805Y0043700D01*
X0288195Y0043700D01*
X0291300Y0046805D01*
X0291300Y0050340D01*
X0294855Y0053895D01*
X0295085Y0053800D01*
X0296915Y0053800D01*
X0298606Y0054500D01*
X0299900Y0055794D01*
X0300600Y0057485D01*
X0300600Y0062440D01*
X0301400Y0061640D01*
X0301400Y0057485D01*
X0302100Y0055794D01*
X0303200Y0054695D01*
X0303200Y0045483D01*
X0300850Y0043133D01*
X0300850Y0038867D01*
X0303867Y0035850D01*
X0307190Y0035850D01*
X0323200Y0019840D01*
X0323200Y0017695D01*
X0320700Y0015195D01*
X0320700Y0010805D01*
X0323805Y0007700D01*
X0328195Y0007700D01*
X0331300Y0010805D01*
X0331300Y0015195D01*
X0328800Y0017695D01*
X0328800Y0021557D01*
X0328374Y0022586D01*
X0311150Y0039810D01*
X0311150Y0043133D01*
X0308800Y0045483D01*
X0308800Y0054695D01*
X0309900Y0055794D01*
X0310600Y0057485D01*
X0310600Y0064515D01*
X0309900Y0066206D01*
X0308606Y0067500D01*
X0306915Y0068200D01*
X0305085Y0068200D01*
X0303441Y0067519D01*
X0292760Y0078200D01*
X0296557Y0078200D01*
X0297586Y0078626D01*
X0303441Y0084481D01*
X0303643Y0084397D01*
X0318200Y0069840D01*
X0318200Y0067668D01*
X0316915Y0068200D01*
X0315085Y0068200D01*
X0313394Y0067500D01*
X0312100Y0066206D01*
X0311400Y0064515D01*
X0311400Y0057485D01*
X0312100Y0055794D01*
X0313394Y0054500D01*
X0315085Y0053800D01*
X0316915Y0053800D01*
X0318200Y0054332D01*
X0318200Y0053443D01*
X0318626Y0052414D01*
X0320700Y0050340D01*
X0320700Y0046805D01*
X0323805Y0043700D01*
X0328195Y0043700D01*
X0331300Y0046805D01*
X0331300Y0051195D01*
X0328195Y0054300D01*
X0327620Y0054300D01*
X0327689Y0054322D01*
X0328306Y0054637D01*
X0328866Y0055044D01*
X0329356Y0055534D01*
X0329763Y0056094D01*
X0330078Y0056711D01*
X0330292Y0057370D01*
X0330400Y0058054D01*
X0330400Y0061000D01*
X0330400Y0063946D01*
X0330292Y0064630D01*
X0330078Y0065289D01*
X0329763Y0065906D01*
X0329356Y0066466D01*
X0328866Y0066956D01*
X0328306Y0067363D01*
X0327689Y0067678D01*
X0327030Y0067892D01*
X0326346Y0068000D01*
X0326000Y0068000D01*
X0326000Y0061000D01*
X0326000Y0061000D01*
X0330400Y0061000D01*
X0326000Y0061000D01*
X0326000Y0061000D01*
X0326000Y0068000D01*
X0325654Y0068000D01*
X0324970Y0067892D01*
X0324311Y0067678D01*
X0323800Y0067417D01*
X0323800Y0071557D01*
X0323374Y0072586D01*
X0322586Y0073374D01*
X0309978Y0085982D01*
X0310600Y0087485D01*
X0310600Y0094515D01*
X0309900Y0096206D01*
X0308606Y0097500D01*
X0306915Y0098200D01*
X0305085Y0098200D01*
X0303394Y0097500D01*
X0302100Y0096206D01*
X0301400Y0094515D01*
X0301400Y0090360D01*
X0300600Y0089560D01*
X0300600Y0094515D01*
X0299900Y0096206D01*
X0298606Y0097500D01*
X0296915Y0098200D01*
X0295085Y0098200D01*
X0293441Y0097519D01*
X0287586Y0103374D01*
X0286557Y0103800D01*
X0200443Y0103800D01*
X0199414Y0103374D01*
X0198626Y0102586D01*
X0193559Y0097519D01*
X0191915Y0098200D01*
X0190085Y0098200D01*
X0188441Y0097519D01*
X0182586Y0103374D01*
X0181557Y0103800D01*
X0095443Y0103800D01*
X0094414Y0103374D01*
X0093626Y0102586D01*
X0088559Y0097519D01*
X0086915Y0098200D01*
X0085085Y0098200D01*
X0083441Y0097519D01*
X0077586Y0103374D01*
X0076557Y0103800D01*
X0020443Y0103800D01*
X0019414Y0103374D01*
X0018626Y0102586D01*
X0008626Y0092586D01*
X0008200Y0091557D01*
X0008200Y0050443D01*
X0008626Y0049414D01*
X0009414Y0048626D01*
X0011600Y0046440D01*
X0011600Y0044866D01*
X0012468Y0042771D01*
X0014071Y0041168D01*
X0014764Y0040881D01*
X0014417Y0040704D01*
X0013717Y0040195D01*
X0013105Y0039583D01*
X0012596Y0038883D01*
X0012203Y0038111D01*
X0011935Y0037288D01*
X0011800Y0036433D01*
X0011800Y0036300D01*
X0020700Y0036300D01*
X0020700Y0035700D01*
X0021300Y0035700D01*
X0021300Y0036300D01*
X0021300Y0035700D02*
X0030200Y0035700D01*
X0030200Y0035567D01*
X0030065Y0034712D01*
X0029797Y0033889D01*
X0029404Y0033117D01*
X0028895Y0032417D01*
X0028283Y0031805D01*
X0027583Y0031296D01*
X0026811Y0030903D01*
X0025988Y0030635D01*
X0025133Y0030500D01*
X0021300Y0030500D01*
X0021300Y0035700D01*
X0020700Y0035700D02*
X0020700Y0030500D01*
X0016867Y0030500D01*
X0016012Y0030635D01*
X0015189Y0030903D01*
X0014417Y0031296D01*
X0013717Y0031805D01*
X0013105Y0032417D01*
X0012596Y0033117D01*
X0012203Y0033889D01*
X0011935Y0034712D01*
X0011800Y0035567D01*
X0011800Y0035700D01*
X0020700Y0035700D01*
X0020700Y0034773D02*
X0021300Y0034773D01*
X0021300Y0033175D02*
X0020700Y0033175D01*
X0020700Y0031576D02*
X0021300Y0031576D01*
X0027968Y0031576D02*
X0056464Y0031576D01*
X0058063Y0029978D02*
X0006000Y0029978D01*
X0006000Y0031576D02*
X0014032Y0031576D01*
X0012567Y0033175D02*
X0006000Y0033175D01*
X0006000Y0034773D02*
X0011926Y0034773D01*
X0011800Y0036372D02*
X0006000Y0036372D01*
X0006000Y0037970D02*
X0012157Y0037970D01*
X0013094Y0039569D02*
X0006000Y0039569D01*
X0006000Y0041167D02*
X0014072Y0041167D01*
X0012473Y0042766D02*
X0006000Y0042766D01*
X0006000Y0044364D02*
X0011808Y0044364D01*
X0011600Y0045963D02*
X0006000Y0045963D01*
X0006000Y0047561D02*
X0010479Y0047561D01*
X0011000Y0051000D02*
X0016000Y0046000D01*
X0021000Y0046000D01*
X0030192Y0044364D02*
X0048200Y0044364D01*
X0047077Y0045963D02*
X0030400Y0045963D01*
X0030223Y0047561D02*
X0045479Y0047561D01*
X0051000Y0046000D02*
X0051000Y0041000D01*
X0061000Y0031000D01*
X0116000Y0031000D01*
X0141000Y0056000D01*
X0141000Y0076000D01*
X0146000Y0081000D01*
X0196000Y0081000D01*
X0206000Y0071000D01*
X0246000Y0071000D01*
X0256000Y0081000D01*
X0296000Y0081000D01*
X0306000Y0091000D01*
X0306000Y0086000D01*
X0321000Y0071000D01*
X0321000Y0054000D01*
X0326000Y0049000D01*
X0331300Y0049160D02*
X0336000Y0049160D01*
X0336000Y0050758D02*
X0331300Y0050758D01*
X0330138Y0052357D02*
X0336000Y0052357D01*
X0336000Y0053955D02*
X0328540Y0053955D01*
X0329371Y0055554D02*
X0336000Y0055554D01*
X0336000Y0057152D02*
X0330221Y0057152D01*
X0330400Y0058751D02*
X0336000Y0058751D01*
X0336000Y0060349D02*
X0330400Y0060349D01*
X0330400Y0061948D02*
X0336000Y0061948D01*
X0336000Y0063546D02*
X0330400Y0063546D01*
X0330124Y0065145D02*
X0336000Y0065145D01*
X0336000Y0066743D02*
X0329079Y0066743D01*
X0326000Y0066743D02*
X0326000Y0066743D01*
X0323800Y0068342D02*
X0336000Y0068342D01*
X0336000Y0069940D02*
X0323800Y0069940D01*
X0323800Y0071539D02*
X0336000Y0071539D01*
X0336000Y0073137D02*
X0322822Y0073137D01*
X0321224Y0074736D02*
X0336000Y0074736D01*
X0336000Y0076334D02*
X0319625Y0076334D01*
X0318027Y0077933D02*
X0336000Y0077933D01*
X0336000Y0079532D02*
X0316428Y0079532D01*
X0314830Y0081130D02*
X0336000Y0081130D01*
X0336000Y0082729D02*
X0313231Y0082729D01*
X0313394Y0084500D02*
X0315085Y0083800D01*
X0316915Y0083800D01*
X0318606Y0084500D01*
X0319900Y0085794D01*
X0320600Y0087485D01*
X0320600Y0094515D01*
X0319900Y0096206D01*
X0318606Y0097500D01*
X0316915Y0098200D01*
X0315085Y0098200D01*
X0313394Y0097500D01*
X0312100Y0096206D01*
X0311400Y0094515D01*
X0311400Y0087485D01*
X0312100Y0085794D01*
X0313394Y0084500D01*
X0313813Y0084327D02*
X0311633Y0084327D01*
X0312046Y0085926D02*
X0310034Y0085926D01*
X0310600Y0087524D02*
X0311400Y0087524D01*
X0311400Y0089123D02*
X0310600Y0089123D01*
X0310600Y0090721D02*
X0311400Y0090721D01*
X0311400Y0092320D02*
X0310600Y0092320D01*
X0310600Y0093918D02*
X0311400Y0093918D01*
X0311815Y0095517D02*
X0310185Y0095517D01*
X0308990Y0097115D02*
X0313010Y0097115D01*
X0318990Y0097115D02*
X0323010Y0097115D01*
X0323394Y0097500D02*
X0322100Y0096206D01*
X0321400Y0094515D01*
X0321400Y0087485D01*
X0322100Y0085794D01*
X0323394Y0084500D01*
X0325085Y0083800D01*
X0326915Y0083800D01*
X0328606Y0084500D01*
X0329900Y0085794D01*
X0330600Y0087485D01*
X0330600Y0094515D01*
X0329900Y0096206D01*
X0328606Y0097500D01*
X0326915Y0098200D01*
X0325085Y0098200D01*
X0323394Y0097500D01*
X0321815Y0095517D02*
X0320185Y0095517D01*
X0320600Y0093918D02*
X0321400Y0093918D01*
X0321400Y0092320D02*
X0320600Y0092320D01*
X0320600Y0090721D02*
X0321400Y0090721D01*
X0321400Y0089123D02*
X0320600Y0089123D01*
X0320600Y0087524D02*
X0321400Y0087524D01*
X0322046Y0085926D02*
X0319954Y0085926D01*
X0318187Y0084327D02*
X0323813Y0084327D01*
X0328187Y0084327D02*
X0336000Y0084327D01*
X0336000Y0085926D02*
X0329954Y0085926D01*
X0330600Y0087524D02*
X0336000Y0087524D01*
X0336000Y0089123D02*
X0330600Y0089123D01*
X0330600Y0090721D02*
X0336000Y0090721D01*
X0336000Y0092320D02*
X0330600Y0092320D01*
X0330600Y0093918D02*
X0336000Y0093918D01*
X0336000Y0095517D02*
X0330185Y0095517D01*
X0328990Y0097115D02*
X0336000Y0097115D01*
X0336000Y0098714D02*
X0292246Y0098714D01*
X0290648Y0100312D02*
X0336000Y0100312D01*
X0336000Y0101911D02*
X0289049Y0101911D01*
X0287259Y0103509D02*
X0336000Y0103509D01*
X0336000Y0104901D02*
X0336000Y0006000D01*
X0006000Y0006000D01*
X0336000Y0006000D01*
X0336000Y0007599D02*
X0006000Y0007599D01*
X0006000Y0006000D02*
X0006000Y0104901D01*
X0336000Y0104901D01*
X0303010Y0097115D02*
X0298990Y0097115D01*
X0300185Y0095517D02*
X0301815Y0095517D01*
X0301400Y0093918D02*
X0300600Y0093918D01*
X0300600Y0092320D02*
X0301400Y0092320D01*
X0301400Y0090721D02*
X0300600Y0090721D01*
X0296000Y0091000D02*
X0286000Y0101000D01*
X0201000Y0101000D01*
X0191000Y0091000D01*
X0181000Y0101000D01*
X0096000Y0101000D01*
X0086000Y0091000D01*
X0076000Y0101000D01*
X0021000Y0101000D01*
X0011000Y0091000D01*
X0011000Y0051000D01*
X0008200Y0050758D02*
X0006000Y0050758D01*
X0006000Y0049160D02*
X0008880Y0049160D01*
X0008200Y0052357D02*
X0006000Y0052357D01*
X0006000Y0053955D02*
X0008200Y0053955D01*
X0008200Y0055554D02*
X0006000Y0055554D01*
X0006000Y0057152D02*
X0008200Y0057152D01*
X0008200Y0058751D02*
X0006000Y0058751D01*
X0006000Y0060349D02*
X0008200Y0060349D01*
X0008200Y0061948D02*
X0006000Y0061948D01*
X0006000Y0063546D02*
X0008200Y0063546D01*
X0008200Y0065145D02*
X0006000Y0065145D01*
X0006000Y0066743D02*
X0008200Y0066743D01*
X0008200Y0068342D02*
X0006000Y0068342D01*
X0006000Y0069940D02*
X0008200Y0069940D01*
X0008200Y0071539D02*
X0006000Y0071539D01*
X0006000Y0073137D02*
X0008200Y0073137D01*
X0008200Y0074736D02*
X0006000Y0074736D01*
X0006000Y0076334D02*
X0008200Y0076334D01*
X0008200Y0077933D02*
X0006000Y0077933D01*
X0006000Y0079532D02*
X0008200Y0079532D01*
X0008200Y0081130D02*
X0006000Y0081130D01*
X0006000Y0082729D02*
X0008200Y0082729D01*
X0008200Y0084327D02*
X0006000Y0084327D01*
X0006000Y0085926D02*
X0008200Y0085926D01*
X0008200Y0087524D02*
X0006000Y0087524D01*
X0006000Y0089123D02*
X0008200Y0089123D01*
X0008200Y0090721D02*
X0006000Y0090721D01*
X0006000Y0092320D02*
X0008516Y0092320D01*
X0009958Y0093918D02*
X0006000Y0093918D01*
X0006000Y0095517D02*
X0011557Y0095517D01*
X0013155Y0097115D02*
X0006000Y0097115D01*
X0006000Y0098714D02*
X0014754Y0098714D01*
X0016352Y0100312D02*
X0006000Y0100312D01*
X0006000Y0101911D02*
X0017951Y0101911D01*
X0019741Y0103509D02*
X0006000Y0103509D01*
X0014920Y0090960D02*
X0022160Y0098200D01*
X0074840Y0098200D01*
X0074912Y0098128D01*
X0073394Y0097500D01*
X0072100Y0096206D01*
X0071400Y0094515D01*
X0071400Y0087485D01*
X0072100Y0085794D01*
X0073394Y0084500D01*
X0075085Y0083800D01*
X0076915Y0083800D01*
X0078606Y0084500D01*
X0079900Y0085794D01*
X0080600Y0087485D01*
X0080600Y0092440D01*
X0081400Y0091640D01*
X0081400Y0087485D01*
X0082100Y0085794D01*
X0083394Y0084500D01*
X0085085Y0083800D01*
X0086915Y0083800D01*
X0088606Y0084500D01*
X0089900Y0085794D01*
X0090600Y0087485D01*
X0090600Y0091640D01*
X0091400Y0092440D01*
X0091400Y0087485D01*
X0092100Y0085794D01*
X0093394Y0084500D01*
X0093643Y0084397D01*
X0099414Y0078626D01*
X0100443Y0078200D01*
X0118557Y0078200D01*
X0119586Y0078626D01*
X0129660Y0088700D01*
X0133195Y0088700D01*
X0135695Y0091200D01*
X0141305Y0091200D01*
X0143805Y0088700D01*
X0148195Y0088700D01*
X0151300Y0091805D01*
X0151300Y0096195D01*
X0149295Y0098200D01*
X0179840Y0098200D01*
X0179912Y0098128D01*
X0178394Y0097500D01*
X0177100Y0096206D01*
X0176400Y0094515D01*
X0176400Y0087485D01*
X0177100Y0085794D01*
X0178394Y0084500D01*
X0180085Y0083800D01*
X0181915Y0083800D01*
X0183606Y0084500D01*
X0184900Y0085794D01*
X0185600Y0087485D01*
X0185600Y0092440D01*
X0186400Y0091640D01*
X0186400Y0087485D01*
X0187100Y0085794D01*
X0188394Y0084500D01*
X0190085Y0083800D01*
X0191915Y0083800D01*
X0193606Y0084500D01*
X0194900Y0085794D01*
X0195600Y0087485D01*
X0195600Y0091640D01*
X0196400Y0092440D01*
X0196400Y0087485D01*
X0197100Y0085794D01*
X0198394Y0084500D01*
X0198643Y0084397D01*
X0203626Y0079414D01*
X0204414Y0078626D01*
X0205443Y0078200D01*
X0223557Y0078200D01*
X0224586Y0078626D01*
X0234660Y0088700D01*
X0238195Y0088700D01*
X0240695Y0091200D01*
X0246305Y0091200D01*
X0248805Y0088700D01*
X0253195Y0088700D01*
X0256300Y0091805D01*
X0256300Y0096195D01*
X0254295Y0098200D01*
X0284840Y0098200D01*
X0284912Y0098128D01*
X0283394Y0097500D01*
X0282100Y0096206D01*
X0281400Y0094515D01*
X0281400Y0087485D01*
X0282100Y0085794D01*
X0283394Y0084500D01*
X0285085Y0083800D01*
X0286915Y0083800D01*
X0288606Y0084500D01*
X0289900Y0085794D01*
X0290600Y0087485D01*
X0290600Y0092440D01*
X0291400Y0091640D01*
X0291400Y0087485D01*
X0292100Y0085794D01*
X0293394Y0084500D01*
X0294912Y0083872D01*
X0294840Y0083800D01*
X0255443Y0083800D01*
X0254414Y0083374D01*
X0253626Y0082586D01*
X0244840Y0073800D01*
X0207160Y0073800D01*
X0197586Y0083374D01*
X0196557Y0083800D01*
X0145443Y0083800D01*
X0144414Y0083374D01*
X0143626Y0082586D01*
X0139414Y0078374D01*
X0138626Y0077586D01*
X0138200Y0076557D01*
X0138200Y0057160D01*
X0114840Y0033800D01*
X0062160Y0033800D01*
X0053800Y0042160D01*
X0053800Y0046557D01*
X0053374Y0047586D01*
X0052586Y0048374D01*
X0042586Y0058374D01*
X0041557Y0058800D01*
X0029710Y0058800D01*
X0029532Y0059229D01*
X0027929Y0060832D01*
X0027236Y0061119D01*
X0027583Y0061296D01*
X0028283Y0061805D01*
X0028895Y0062417D01*
X0029404Y0063117D01*
X0029797Y0063889D01*
X0030065Y0064712D01*
X0030200Y0065567D01*
X0030200Y0065700D01*
X0021300Y0065700D01*
X0021300Y0066300D01*
X0030200Y0066300D01*
X0030200Y0066433D01*
X0030065Y0067288D01*
X0029797Y0068111D01*
X0029404Y0068883D01*
X0028895Y0069583D01*
X0028283Y0070195D01*
X0027583Y0070704D01*
X0027236Y0070881D01*
X0027929Y0071168D01*
X0029532Y0072771D01*
X0029710Y0073200D01*
X0034840Y0073200D01*
X0035700Y0072340D01*
X0035700Y0071805D01*
X0038805Y0068700D01*
X0043195Y0068700D01*
X0045695Y0071200D01*
X0086840Y0071200D01*
X0092022Y0066018D01*
X0091400Y0064515D01*
X0091400Y0059560D01*
X0090600Y0060360D01*
X0090600Y0064515D01*
X0089900Y0066206D01*
X0088606Y0067500D01*
X0086915Y0068200D01*
X0085085Y0068200D01*
X0083394Y0067500D01*
X0082100Y0066206D01*
X0081400Y0064515D01*
X0081400Y0057485D01*
X0082100Y0055794D01*
X0083394Y0054500D01*
X0085085Y0053800D01*
X0086915Y0053800D01*
X0088559Y0054481D01*
X0093626Y0049414D01*
X0094414Y0048626D01*
X0095443Y0048200D01*
X0105700Y0048200D01*
X0105700Y0046805D01*
X0108805Y0043700D01*
X0113195Y0043700D01*
X0115695Y0046200D01*
X0122557Y0046200D01*
X0123586Y0046626D01*
X0129660Y0052700D01*
X0133195Y0052700D01*
X0136300Y0055805D01*
X0136300Y0060195D01*
X0133195Y0063300D01*
X0128805Y0063300D01*
X0125700Y0060195D01*
X0125700Y0056660D01*
X0120840Y0051800D01*
X0115695Y0051800D01*
X0113195Y0054300D01*
X0108805Y0054300D01*
X0108305Y0053800D01*
X0097160Y0053800D01*
X0097088Y0053872D01*
X0098606Y0054500D01*
X0099900Y0055794D01*
X0100600Y0057485D01*
X0100600Y0064515D01*
X0099900Y0066206D01*
X0098606Y0067500D01*
X0098357Y0067603D01*
X0089586Y0076374D01*
X0088557Y0076800D01*
X0045695Y0076800D01*
X0043195Y0079300D01*
X0038805Y0079300D01*
X0037732Y0078228D01*
X0037586Y0078374D01*
X0036557Y0078800D01*
X0029710Y0078800D01*
X0029532Y0079229D01*
X0027929Y0080832D01*
X0027236Y0081119D01*
X0027583Y0081296D01*
X0028283Y0081805D01*
X0028895Y0082417D01*
X0029404Y0083117D01*
X0029797Y0083889D01*
X0030065Y0084712D01*
X0030200Y0085567D01*
X0030200Y0085700D01*
X0021300Y0085700D01*
X0021300Y0086300D01*
X0020700Y0086300D01*
X0020700Y0091500D01*
X0016867Y0091500D01*
X0016012Y0091365D01*
X0015189Y0091097D01*
X0014920Y0090960D01*
X0016279Y0092320D02*
X0051400Y0092320D01*
X0051400Y0093918D02*
X0017878Y0093918D01*
X0019476Y0095517D02*
X0051815Y0095517D01*
X0052100Y0096206D02*
X0051400Y0094515D01*
X0051400Y0087485D01*
X0052100Y0085794D01*
X0053394Y0084500D01*
X0055085Y0083800D01*
X0056915Y0083800D01*
X0058606Y0084500D01*
X0059900Y0085794D01*
X0060600Y0087485D01*
X0060600Y0094515D01*
X0059900Y0096206D01*
X0058606Y0097500D01*
X0056915Y0098200D01*
X0055085Y0098200D01*
X0053394Y0097500D01*
X0052100Y0096206D01*
X0053010Y0097115D02*
X0021075Y0097115D01*
X0021300Y0091500D02*
X0021300Y0086300D01*
X0030200Y0086300D01*
X0030200Y0086433D01*
X0030065Y0087288D01*
X0029797Y0088111D01*
X0029404Y0088883D01*
X0028895Y0089583D01*
X0028283Y0090195D01*
X0027583Y0090704D01*
X0026811Y0091097D01*
X0025988Y0091365D01*
X0025133Y0091500D01*
X0021300Y0091500D01*
X0021300Y0090721D02*
X0020700Y0090721D01*
X0020700Y0089123D02*
X0021300Y0089123D01*
X0021300Y0087524D02*
X0020700Y0087524D01*
X0021300Y0085926D02*
X0052046Y0085926D01*
X0053813Y0084327D02*
X0029939Y0084327D01*
X0029122Y0082729D02*
X0095312Y0082729D01*
X0096910Y0081130D02*
X0027257Y0081130D01*
X0029229Y0079532D02*
X0098509Y0079532D01*
X0101000Y0081000D02*
X0118000Y0081000D01*
X0131000Y0094000D01*
X0146000Y0094000D01*
X0151300Y0093918D02*
X0156400Y0093918D01*
X0156400Y0094515D02*
X0157100Y0096206D01*
X0158394Y0097500D01*
X0160085Y0098200D01*
X0161915Y0098200D01*
X0163606Y0097500D01*
X0164900Y0096206D01*
X0165600Y0094515D01*
X0165600Y0087485D01*
X0164900Y0085794D01*
X0163606Y0084500D01*
X0161915Y0083800D01*
X0160085Y0083800D01*
X0158394Y0084500D01*
X0157100Y0085794D01*
X0156400Y0087485D01*
X0156400Y0094515D01*
X0156815Y0095517D02*
X0151300Y0095517D01*
X0150380Y0097115D02*
X0158010Y0097115D01*
X0163990Y0097115D02*
X0168010Y0097115D01*
X0168394Y0097500D02*
X0167100Y0096206D01*
X0166400Y0094515D01*
X0166400Y0087485D01*
X0167100Y0085794D01*
X0168394Y0084500D01*
X0170085Y0083800D01*
X0171915Y0083800D01*
X0173606Y0084500D01*
X0174900Y0085794D01*
X0175600Y0087485D01*
X0175600Y0094515D01*
X0174900Y0096206D01*
X0173606Y0097500D01*
X0171915Y0098200D01*
X0170085Y0098200D01*
X0168394Y0097500D01*
X0173990Y0097115D02*
X0178010Y0097115D01*
X0176815Y0095517D02*
X0175185Y0095517D01*
X0175600Y0093918D02*
X0176400Y0093918D01*
X0176400Y0092320D02*
X0175600Y0092320D01*
X0175600Y0090721D02*
X0176400Y0090721D01*
X0176400Y0089123D02*
X0175600Y0089123D01*
X0175600Y0087524D02*
X0176400Y0087524D01*
X0177046Y0085926D02*
X0174954Y0085926D01*
X0173187Y0084327D02*
X0178813Y0084327D01*
X0183187Y0084327D02*
X0188813Y0084327D01*
X0187046Y0085926D02*
X0184954Y0085926D01*
X0185600Y0087524D02*
X0186400Y0087524D01*
X0186400Y0089123D02*
X0185600Y0089123D01*
X0185600Y0090721D02*
X0186400Y0090721D01*
X0185721Y0092320D02*
X0185600Y0092320D01*
X0195600Y0090721D02*
X0196400Y0090721D01*
X0196400Y0089123D02*
X0195600Y0089123D01*
X0195600Y0087524D02*
X0196400Y0087524D01*
X0197046Y0085926D02*
X0194954Y0085926D01*
X0193187Y0084327D02*
X0198713Y0084327D01*
X0201000Y0086000D02*
X0206000Y0081000D01*
X0223000Y0081000D01*
X0236000Y0094000D01*
X0251000Y0094000D01*
X0256300Y0093918D02*
X0261400Y0093918D01*
X0261400Y0094515D02*
X0262100Y0096206D01*
X0263394Y0097500D01*
X0265085Y0098200D01*
X0266915Y0098200D01*
X0268606Y0097500D01*
X0269900Y0096206D01*
X0270600Y0094515D01*
X0270600Y0087485D01*
X0269900Y0085794D01*
X0268606Y0084500D01*
X0266915Y0083800D01*
X0265085Y0083800D01*
X0263394Y0084500D01*
X0262100Y0085794D01*
X0261400Y0087485D01*
X0261400Y0094515D01*
X0261815Y0095517D02*
X0256300Y0095517D01*
X0255380Y0097115D02*
X0263010Y0097115D01*
X0268990Y0097115D02*
X0273010Y0097115D01*
X0273394Y0097500D02*
X0272100Y0096206D01*
X0271400Y0094515D01*
X0271400Y0087485D01*
X0272100Y0085794D01*
X0273394Y0084500D01*
X0275085Y0083800D01*
X0276915Y0083800D01*
X0278606Y0084500D01*
X0279900Y0085794D01*
X0280600Y0087485D01*
X0280600Y0094515D01*
X0279900Y0096206D01*
X0278606Y0097500D01*
X0276915Y0098200D01*
X0275085Y0098200D01*
X0273394Y0097500D01*
X0271815Y0095517D02*
X0270185Y0095517D01*
X0270600Y0093918D02*
X0271400Y0093918D01*
X0271400Y0092320D02*
X0270600Y0092320D01*
X0270600Y0090721D02*
X0271400Y0090721D01*
X0271400Y0089123D02*
X0270600Y0089123D01*
X0270600Y0087524D02*
X0271400Y0087524D01*
X0272046Y0085926D02*
X0269954Y0085926D01*
X0268187Y0084327D02*
X0273813Y0084327D01*
X0278187Y0084327D02*
X0283813Y0084327D01*
X0282046Y0085926D02*
X0279954Y0085926D01*
X0280600Y0087524D02*
X0281400Y0087524D01*
X0281400Y0089123D02*
X0280600Y0089123D01*
X0280600Y0090721D02*
X0281400Y0090721D01*
X0281400Y0092320D02*
X0280600Y0092320D01*
X0280600Y0093918D02*
X0281400Y0093918D01*
X0281815Y0095517D02*
X0280185Y0095517D01*
X0278990Y0097115D02*
X0283010Y0097115D01*
X0290600Y0092320D02*
X0290721Y0092320D01*
X0290600Y0090721D02*
X0291400Y0090721D01*
X0291400Y0089123D02*
X0290600Y0089123D01*
X0290600Y0087524D02*
X0291400Y0087524D01*
X0292046Y0085926D02*
X0289954Y0085926D01*
X0288187Y0084327D02*
X0293813Y0084327D01*
X0300090Y0081130D02*
X0306910Y0081130D01*
X0305312Y0082729D02*
X0301688Y0082729D01*
X0303287Y0084327D02*
X0303713Y0084327D01*
X0308509Y0079532D02*
X0298491Y0079532D01*
X0293027Y0077933D02*
X0310107Y0077933D01*
X0311706Y0076334D02*
X0294625Y0076334D01*
X0296224Y0074736D02*
X0313304Y0074736D01*
X0314903Y0073137D02*
X0297822Y0073137D01*
X0299421Y0071539D02*
X0316501Y0071539D01*
X0318100Y0069940D02*
X0301019Y0069940D01*
X0302618Y0068342D02*
X0318200Y0068342D01*
X0312638Y0066743D02*
X0309362Y0066743D01*
X0310339Y0065145D02*
X0311661Y0065145D01*
X0311400Y0063546D02*
X0310600Y0063546D01*
X0310600Y0061948D02*
X0311400Y0061948D01*
X0311400Y0060349D02*
X0310600Y0060349D01*
X0310600Y0058751D02*
X0311400Y0058751D01*
X0311538Y0057152D02*
X0310462Y0057152D01*
X0309659Y0055554D02*
X0312341Y0055554D01*
X0314710Y0053955D02*
X0308800Y0053955D01*
X0308800Y0052357D02*
X0318683Y0052357D01*
X0318200Y0053955D02*
X0317290Y0053955D01*
X0320282Y0050758D02*
X0308800Y0050758D01*
X0308800Y0049160D02*
X0320700Y0049160D01*
X0320700Y0047561D02*
X0308800Y0047561D01*
X0308800Y0045963D02*
X0321542Y0045963D01*
X0323140Y0044364D02*
X0309919Y0044364D01*
X0311150Y0042766D02*
X0336000Y0042766D01*
X0336000Y0041167D02*
X0311150Y0041167D01*
X0311391Y0039569D02*
X0336000Y0039569D01*
X0336000Y0037970D02*
X0312990Y0037970D01*
X0314588Y0036372D02*
X0336000Y0036372D01*
X0336000Y0034773D02*
X0316187Y0034773D01*
X0317785Y0033175D02*
X0336000Y0033175D01*
X0336000Y0031576D02*
X0319384Y0031576D01*
X0320982Y0029978D02*
X0336000Y0029978D01*
X0336000Y0028379D02*
X0322581Y0028379D01*
X0324179Y0026781D02*
X0336000Y0026781D01*
X0336000Y0025182D02*
X0325778Y0025182D01*
X0327376Y0023584D02*
X0336000Y0023584D01*
X0336000Y0021985D02*
X0328623Y0021985D01*
X0328800Y0020387D02*
X0336000Y0020387D01*
X0336000Y0018788D02*
X0328800Y0018788D01*
X0329306Y0017190D02*
X0336000Y0017190D01*
X0336000Y0015591D02*
X0330904Y0015591D01*
X0331300Y0013993D02*
X0336000Y0013993D01*
X0336000Y0012394D02*
X0331300Y0012394D01*
X0326000Y0013000D02*
X0326000Y0021000D01*
X0306000Y0041000D01*
X0306000Y0061000D01*
X0291000Y0076000D01*
X0261000Y0076000D01*
X0251000Y0066000D01*
X0251000Y0058000D01*
X0256300Y0058751D02*
X0259791Y0058751D01*
X0261390Y0060349D02*
X0256146Y0060349D01*
X0254547Y0061948D02*
X0261400Y0061948D01*
X0266000Y0061000D02*
X0256000Y0051000D01*
X0251000Y0051000D01*
X0241000Y0041000D01*
X0246150Y0041167D02*
X0260850Y0041167D01*
X0260850Y0042766D02*
X0246726Y0042766D01*
X0248324Y0044364D02*
X0262081Y0044364D01*
X0263200Y0045963D02*
X0249923Y0045963D01*
X0251521Y0047561D02*
X0263200Y0047561D01*
X0263200Y0049160D02*
X0258120Y0049160D01*
X0259718Y0050758D02*
X0263200Y0050758D01*
X0266000Y0051000D02*
X0266000Y0041000D01*
X0271150Y0041167D02*
X0300850Y0041167D01*
X0300850Y0042766D02*
X0271150Y0042766D01*
X0269919Y0044364D02*
X0283140Y0044364D01*
X0281542Y0045963D02*
X0268800Y0045963D01*
X0268800Y0047561D02*
X0280700Y0047561D01*
X0280700Y0049160D02*
X0268800Y0049160D01*
X0269718Y0050758D02*
X0280700Y0050758D01*
X0286000Y0049000D02*
X0296000Y0059000D01*
X0296000Y0061000D01*
X0300600Y0060349D02*
X0301400Y0060349D01*
X0301400Y0058751D02*
X0300600Y0058751D01*
X0300462Y0057152D02*
X0301538Y0057152D01*
X0302341Y0055554D02*
X0299659Y0055554D01*
X0297290Y0053955D02*
X0303200Y0053955D01*
X0303200Y0052357D02*
X0293317Y0052357D01*
X0291718Y0050758D02*
X0303200Y0050758D01*
X0303200Y0049160D02*
X0291300Y0049160D01*
X0291300Y0047561D02*
X0303200Y0047561D01*
X0303200Y0045963D02*
X0290458Y0045963D01*
X0288860Y0044364D02*
X0302081Y0044364D01*
X0300850Y0039569D02*
X0271150Y0039569D01*
X0270253Y0037970D02*
X0301747Y0037970D01*
X0303345Y0036372D02*
X0268655Y0036372D01*
X0263345Y0036372D02*
X0243655Y0036372D01*
X0245253Y0037970D02*
X0261747Y0037970D01*
X0260850Y0039569D02*
X0246150Y0039569D01*
X0236747Y0037970D02*
X0231930Y0037970D01*
X0233438Y0039569D02*
X0235850Y0039569D01*
X0235850Y0041167D02*
X0233800Y0041167D01*
X0233800Y0042766D02*
X0235850Y0042766D01*
X0231000Y0041000D02*
X0231000Y0053000D01*
X0236000Y0058000D01*
X0241300Y0058751D02*
X0245700Y0058751D01*
X0245854Y0060349D02*
X0241146Y0060349D01*
X0239547Y0061948D02*
X0247453Y0061948D01*
X0248200Y0063546D02*
X0225400Y0063546D01*
X0225400Y0063946D02*
X0225292Y0064630D01*
X0225078Y0065289D01*
X0224763Y0065906D01*
X0224356Y0066466D01*
X0223866Y0066956D01*
X0223306Y0067363D01*
X0222689Y0067678D01*
X0222030Y0067892D01*
X0221346Y0068000D01*
X0221000Y0068000D01*
X0221000Y0061000D01*
X0225400Y0061000D01*
X0225400Y0063946D01*
X0225124Y0065145D02*
X0248200Y0065145D01*
X0248277Y0066743D02*
X0224079Y0066743D01*
X0221000Y0066743D02*
X0221000Y0066743D01*
X0221000Y0068000D02*
X0220654Y0068000D01*
X0219970Y0067892D01*
X0219311Y0067678D01*
X0218694Y0067363D01*
X0218134Y0066956D01*
X0217644Y0066466D01*
X0217237Y0065906D01*
X0216922Y0065289D01*
X0216708Y0064630D01*
X0216600Y0063946D01*
X0216600Y0061000D01*
X0221000Y0061000D01*
X0221000Y0061000D01*
X0221000Y0061000D01*
X0225400Y0061000D01*
X0225400Y0058054D01*
X0225292Y0057370D01*
X0225078Y0056711D01*
X0224763Y0056094D01*
X0224356Y0055534D01*
X0223866Y0055044D01*
X0223306Y0054637D01*
X0222689Y0054322D01*
X0222030Y0054108D01*
X0221346Y0054000D01*
X0221000Y0054000D01*
X0221000Y0061000D01*
X0221000Y0061000D01*
X0221000Y0061000D01*
X0221000Y0068000D01*
X0217921Y0066743D02*
X0214362Y0066743D01*
X0214900Y0066206D02*
X0213606Y0067500D01*
X0211915Y0068200D01*
X0210085Y0068200D01*
X0208394Y0067500D01*
X0207100Y0066206D01*
X0206400Y0064515D01*
X0206400Y0057485D01*
X0207100Y0055794D01*
X0208394Y0054500D01*
X0210085Y0053800D01*
X0211915Y0053800D01*
X0213606Y0054500D01*
X0214900Y0055794D01*
X0215600Y0057485D01*
X0215600Y0064515D01*
X0214900Y0066206D01*
X0215339Y0065145D02*
X0216876Y0065145D01*
X0216600Y0063546D02*
X0215600Y0063546D01*
X0221000Y0063546D02*
X0221000Y0063546D01*
X0221000Y0065145D02*
X0221000Y0065145D01*
X0221000Y0061948D02*
X0221000Y0061948D01*
X0221000Y0061000D02*
X0216600Y0061000D01*
X0216600Y0058054D01*
X0216708Y0057370D01*
X0216922Y0056711D01*
X0217237Y0056094D01*
X0217644Y0055534D01*
X0218134Y0055044D01*
X0218694Y0054637D01*
X0219311Y0054322D01*
X0219970Y0054108D01*
X0220654Y0054000D01*
X0221000Y0054000D01*
X0221000Y0061000D01*
X0221000Y0060349D02*
X0221000Y0060349D01*
X0221000Y0058751D02*
X0221000Y0058751D01*
X0225400Y0058751D02*
X0230700Y0058751D01*
X0230854Y0060349D02*
X0225400Y0060349D01*
X0225400Y0061948D02*
X0232453Y0061948D01*
X0230700Y0057152D02*
X0225221Y0057152D01*
X0224371Y0055554D02*
X0229594Y0055554D01*
X0228365Y0053955D02*
X0212290Y0053955D01*
X0209710Y0053955D02*
X0203800Y0053955D01*
X0203800Y0052357D02*
X0228200Y0052357D01*
X0228200Y0050758D02*
X0205201Y0050758D01*
X0206800Y0049160D02*
X0228200Y0049160D01*
X0228200Y0047561D02*
X0208398Y0047561D01*
X0202077Y0045963D02*
X0195458Y0045963D01*
X0196300Y0047561D02*
X0200479Y0047561D01*
X0198880Y0049160D02*
X0196300Y0049160D01*
X0196300Y0050758D02*
X0198200Y0050758D01*
X0201000Y0051000D02*
X0211000Y0041000D01*
X0205850Y0041167D02*
X0194793Y0041167D01*
X0193800Y0042766D02*
X0205274Y0042766D01*
X0203676Y0044364D02*
X0193860Y0044364D01*
X0188140Y0044364D02*
X0174919Y0044364D01*
X0173800Y0045483D02*
X0173800Y0054695D01*
X0174900Y0055794D01*
X0175600Y0057485D01*
X0175600Y0064515D01*
X0174900Y0066206D01*
X0173606Y0067500D01*
X0171915Y0068200D01*
X0170085Y0068200D01*
X0168394Y0067500D01*
X0167100Y0066206D01*
X0166400Y0064515D01*
X0166400Y0057485D01*
X0167100Y0055794D01*
X0168200Y0054695D01*
X0168200Y0045483D01*
X0165850Y0043133D01*
X0165850Y0038867D01*
X0168867Y0035850D01*
X0173133Y0035850D01*
X0176150Y0038867D01*
X0176150Y0043133D01*
X0173800Y0045483D01*
X0173800Y0045963D02*
X0186542Y0045963D01*
X0185700Y0047561D02*
X0173800Y0047561D01*
X0168200Y0047561D02*
X0151521Y0047561D01*
X0149923Y0045963D02*
X0168200Y0045963D01*
X0167081Y0044364D02*
X0149919Y0044364D01*
X0149121Y0045162D02*
X0158441Y0054481D01*
X0160085Y0053800D01*
X0161915Y0053800D01*
X0163606Y0054500D01*
X0164900Y0055794D01*
X0165600Y0057485D01*
X0165600Y0064515D01*
X0164900Y0066206D01*
X0163606Y0067500D01*
X0161915Y0068200D01*
X0160085Y0068200D01*
X0158394Y0067500D01*
X0157100Y0066206D01*
X0156400Y0064515D01*
X0156400Y0060360D01*
X0144414Y0048374D01*
X0143626Y0047586D01*
X0143200Y0046557D01*
X0143200Y0045483D01*
X0140850Y0043133D01*
X0140850Y0038867D01*
X0143867Y0035850D01*
X0148133Y0035850D01*
X0151150Y0038867D01*
X0151150Y0043133D01*
X0149121Y0045162D01*
X0146000Y0046000D02*
X0146000Y0041000D01*
X0140850Y0041167D02*
X0130127Y0041167D01*
X0131726Y0042766D02*
X0140850Y0042766D01*
X0142081Y0044364D02*
X0133324Y0044364D01*
X0134923Y0045963D02*
X0143200Y0045963D01*
X0143616Y0047561D02*
X0136521Y0047561D01*
X0138120Y0049160D02*
X0145200Y0049160D01*
X0146799Y0050758D02*
X0139718Y0050758D01*
X0141317Y0052357D02*
X0148397Y0052357D01*
X0149451Y0053955D02*
X0149996Y0053955D01*
X0151049Y0055554D02*
X0151594Y0055554D01*
X0151300Y0057152D02*
X0153193Y0057152D01*
X0154791Y0058751D02*
X0151300Y0058751D01*
X0151146Y0060349D02*
X0156390Y0060349D01*
X0156400Y0061948D02*
X0149547Y0061948D01*
X0148800Y0063546D02*
X0156400Y0063546D01*
X0156661Y0065145D02*
X0149105Y0065145D01*
X0146000Y0066000D02*
X0156000Y0076000D01*
X0176000Y0076000D01*
X0179500Y0076000D01*
X0181000Y0074500D01*
X0182500Y0076000D01*
X0186000Y0076000D01*
X0201000Y0061000D01*
X0201000Y0051000D01*
X0198200Y0052357D02*
X0195138Y0052357D01*
X0193800Y0053955D02*
X0198200Y0053955D01*
X0197341Y0055554D02*
X0194659Y0055554D01*
X0195462Y0057152D02*
X0196538Y0057152D01*
X0196400Y0058751D02*
X0195600Y0058751D01*
X0195600Y0060349D02*
X0196400Y0060349D01*
X0196092Y0061948D02*
X0195600Y0061948D01*
X0191000Y0061000D02*
X0191000Y0049000D01*
X0191000Y0041000D01*
X0201000Y0031000D01*
X0221000Y0031000D01*
X0231000Y0041000D01*
X0228200Y0042766D02*
X0216150Y0042766D01*
X0216150Y0041167D02*
X0227207Y0041167D01*
X0225609Y0039569D02*
X0216150Y0039569D01*
X0215253Y0037970D02*
X0224010Y0037970D01*
X0222412Y0036372D02*
X0213655Y0036372D01*
X0208345Y0036372D02*
X0199588Y0036372D01*
X0201187Y0034773D02*
X0220813Y0034773D01*
X0227134Y0033175D02*
X0309866Y0033175D01*
X0311464Y0031576D02*
X0225536Y0031576D01*
X0223937Y0029978D02*
X0313063Y0029978D01*
X0314661Y0028379D02*
X0221989Y0028379D01*
X0215950Y0023050D02*
X0213050Y0025950D01*
X0211000Y0025950D01*
X0211000Y0021000D01*
X0211000Y0021000D01*
X0215950Y0021000D01*
X0215950Y0023050D01*
X0215417Y0023584D02*
X0236583Y0023584D01*
X0236050Y0023050D02*
X0236050Y0021000D01*
X0241000Y0021000D01*
X0241000Y0021000D01*
X0241000Y0025950D01*
X0243050Y0025950D01*
X0245950Y0023050D01*
X0245950Y0021000D01*
X0241000Y0021000D01*
X0241000Y0021000D01*
X0241000Y0021000D01*
X0241000Y0025950D01*
X0238950Y0025950D01*
X0236050Y0023050D01*
X0236050Y0021985D02*
X0215950Y0021985D01*
X0215950Y0021000D02*
X0211000Y0021000D01*
X0211000Y0021000D01*
X0211000Y0021000D01*
X0206050Y0021000D01*
X0206050Y0023050D01*
X0208950Y0025950D01*
X0211000Y0025950D01*
X0211000Y0021000D01*
X0211000Y0016050D01*
X0213050Y0016050D01*
X0215950Y0018950D01*
X0215950Y0021000D01*
X0215950Y0020387D02*
X0236050Y0020387D01*
X0236050Y0021000D02*
X0236050Y0018950D01*
X0238950Y0016050D01*
X0241000Y0016050D01*
X0243050Y0016050D01*
X0245950Y0018950D01*
X0245950Y0021000D01*
X0241000Y0021000D01*
X0241000Y0016050D01*
X0241000Y0021000D01*
X0241000Y0021000D01*
X0236050Y0021000D01*
X0241000Y0020387D02*
X0241000Y0020387D01*
X0241000Y0021985D02*
X0241000Y0021985D01*
X0245950Y0021985D02*
X0261050Y0021985D01*
X0261050Y0021000D02*
X0266000Y0021000D01*
X0266000Y0021000D01*
X0266000Y0025950D01*
X0268050Y0025950D01*
X0270950Y0023050D01*
X0270950Y0021000D01*
X0266000Y0021000D01*
X0266000Y0021000D01*
X0266000Y0021000D01*
X0266000Y0025950D01*
X0263950Y0025950D01*
X0261050Y0023050D01*
X0261050Y0021000D01*
X0261050Y0018950D01*
X0263950Y0016050D01*
X0266000Y0016050D01*
X0268050Y0016050D01*
X0270950Y0018950D01*
X0270950Y0021000D01*
X0266000Y0021000D01*
X0266000Y0016050D01*
X0266000Y0021000D01*
X0266000Y0021000D01*
X0261050Y0021000D01*
X0261050Y0020387D02*
X0245950Y0020387D01*
X0245788Y0018788D02*
X0261212Y0018788D01*
X0262810Y0017190D02*
X0244190Y0017190D01*
X0241000Y0017190D02*
X0241000Y0017190D01*
X0241000Y0018788D02*
X0241000Y0018788D01*
X0237810Y0017190D02*
X0214190Y0017190D01*
X0215788Y0018788D02*
X0236212Y0018788D01*
X0241000Y0023584D02*
X0241000Y0023584D01*
X0241000Y0025182D02*
X0241000Y0025182D01*
X0243818Y0025182D02*
X0263182Y0025182D01*
X0261583Y0023584D02*
X0245417Y0023584D01*
X0238182Y0025182D02*
X0213818Y0025182D01*
X0211000Y0025182D02*
X0211000Y0025182D01*
X0211000Y0023584D02*
X0211000Y0023584D01*
X0208182Y0025182D02*
X0173818Y0025182D01*
X0173050Y0025950D02*
X0171000Y0025950D01*
X0171000Y0021000D01*
X0171000Y0021000D01*
X0175950Y0021000D01*
X0175950Y0023050D01*
X0173050Y0025950D01*
X0171000Y0025950D02*
X0168950Y0025950D01*
X0166050Y0023050D01*
X0166050Y0021000D01*
X0171000Y0021000D01*
X0171000Y0021000D01*
X0171000Y0021000D01*
X0171000Y0025950D01*
X0171000Y0025182D02*
X0171000Y0025182D01*
X0171000Y0023584D02*
X0171000Y0023584D01*
X0168182Y0025182D02*
X0148818Y0025182D01*
X0148050Y0025950D02*
X0146000Y0025950D01*
X0146000Y0021000D01*
X0146000Y0021000D01*
X0150950Y0021000D01*
X0150950Y0023050D01*
X0148050Y0025950D01*
X0146000Y0025950D02*
X0143950Y0025950D01*
X0141050Y0023050D01*
X0141050Y0021000D01*
X0146000Y0021000D01*
X0146000Y0021000D01*
X0146000Y0021000D01*
X0146000Y0025950D01*
X0146000Y0025182D02*
X0146000Y0025182D01*
X0146000Y0023584D02*
X0146000Y0023584D01*
X0143182Y0025182D02*
X0093818Y0025182D01*
X0093050Y0025950D02*
X0091000Y0025950D01*
X0091000Y0021000D01*
X0091000Y0021000D01*
X0095950Y0021000D01*
X0095950Y0023050D01*
X0093050Y0025950D01*
X0091000Y0025950D02*
X0088950Y0025950D01*
X0086050Y0023050D01*
X0086050Y0021000D01*
X0091000Y0021000D01*
X0091000Y0021000D01*
X0091000Y0021000D01*
X0091000Y0025950D01*
X0091000Y0025182D02*
X0091000Y0025182D01*
X0091000Y0023584D02*
X0091000Y0023584D01*
X0088182Y0025182D02*
X0068818Y0025182D01*
X0068050Y0025950D02*
X0066000Y0025950D01*
X0066000Y0021000D01*
X0066000Y0021000D01*
X0070950Y0021000D01*
X0070950Y0023050D01*
X0068050Y0025950D01*
X0066000Y0025950D02*
X0063950Y0025950D01*
X0061050Y0023050D01*
X0061050Y0021000D01*
X0066000Y0021000D01*
X0066000Y0021000D01*
X0066000Y0021000D01*
X0066000Y0025950D01*
X0066000Y0025182D02*
X0066000Y0025182D01*
X0066000Y0023584D02*
X0066000Y0023584D01*
X0063182Y0025182D02*
X0006000Y0025182D01*
X0006000Y0023584D02*
X0061583Y0023584D01*
X0061050Y0021985D02*
X0053467Y0021985D01*
X0053584Y0021868D02*
X0052483Y0022969D01*
X0050743Y0022969D01*
X0049642Y0021868D01*
X0046957Y0021868D01*
X0046590Y0022235D01*
X0044850Y0022235D01*
X0044483Y0021868D01*
X0044005Y0021868D01*
X0043271Y0022602D01*
X0040064Y0022602D01*
X0039274Y0021812D01*
X0038851Y0022235D01*
X0038484Y0022602D01*
X0036011Y0022602D01*
X0034855Y0021446D01*
X0034433Y0021868D01*
X0031114Y0021868D01*
X0030380Y0022602D01*
X0028640Y0022602D01*
X0027907Y0021868D01*
X0024487Y0021868D01*
X0023386Y0022969D01*
X0021647Y0022969D01*
X0021280Y0022602D01*
X0020807Y0022602D01*
X0020440Y0022969D01*
X0018700Y0022969D01*
X0018333Y0022602D01*
X0016860Y0022602D01*
X0016126Y0021868D01*
X0013438Y0021868D01*
X0012704Y0022602D01*
X0010964Y0022602D01*
X0009734Y0021372D01*
X0009000Y0020638D01*
X0009000Y0018531D01*
X0009000Y0017430D01*
X0009196Y0017234D01*
X0009000Y0017038D01*
X0009000Y0010230D01*
X0010230Y0009000D01*
X0020073Y0009000D01*
X0020124Y0009051D01*
X0020175Y0009000D01*
X0024855Y0009000D01*
X0025462Y0009606D01*
X0026068Y0009000D01*
X0031227Y0009000D01*
X0031961Y0008266D01*
X0033700Y0008266D01*
X0033935Y0008501D01*
X0034171Y0008266D01*
X0035910Y0008266D01*
X0036644Y0009000D01*
X0041064Y0009000D01*
X0042294Y0010230D01*
X0042294Y0011970D01*
X0041927Y0012337D01*
X0041927Y0012600D01*
X0044376Y0012600D01*
X0045606Y0013830D01*
X0045606Y0015570D01*
X0044976Y0016200D01*
X0045114Y0016200D01*
X0045166Y0016252D01*
X0045217Y0016200D01*
X0048166Y0016200D01*
X0048900Y0015466D01*
X0051007Y0015466D01*
X0051374Y0015833D01*
X0051741Y0016200D01*
X0056900Y0016200D01*
X0057267Y0016567D01*
X0058497Y0017797D01*
X0058497Y0020638D01*
X0057267Y0021868D01*
X0053584Y0021868D01*
X0049760Y0021985D02*
X0046840Y0021985D01*
X0044600Y0021985D02*
X0043888Y0021985D01*
X0039447Y0021985D02*
X0039101Y0021985D01*
X0035394Y0021985D02*
X0030997Y0021985D01*
X0028024Y0021985D02*
X0024370Y0021985D01*
X0016243Y0021985D02*
X0013321Y0021985D01*
X0010347Y0021985D02*
X0006000Y0021985D01*
X0006000Y0020387D02*
X0009000Y0020387D01*
X0009000Y0018788D02*
X0006000Y0018788D01*
X0006000Y0017190D02*
X0009152Y0017190D01*
X0009000Y0015591D02*
X0006000Y0015591D01*
X0006000Y0013993D02*
X0009000Y0013993D01*
X0009000Y0012394D02*
X0006000Y0012394D01*
X0006000Y0010796D02*
X0009000Y0010796D01*
X0010033Y0009197D02*
X0006000Y0009197D01*
X0025052Y0009197D02*
X0025871Y0009197D01*
X0041261Y0009197D02*
X0107590Y0009197D01*
X0108888Y0007900D02*
X0105900Y0010888D01*
X0105900Y0013000D01*
X0111000Y0013000D01*
X0111000Y0013000D01*
X0111000Y0018100D01*
X0113112Y0018100D01*
X0116100Y0015112D01*
X0116100Y0013000D01*
X0111000Y0013000D01*
X0111000Y0013000D01*
X0111000Y0013000D01*
X0111000Y0018100D01*
X0108888Y0018100D01*
X0105900Y0015112D01*
X0105900Y0013000D01*
X0111000Y0013000D01*
X0116100Y0013000D01*
X0116100Y0010888D01*
X0113112Y0007900D01*
X0111000Y0007900D01*
X0111000Y0013000D01*
X0111000Y0013000D01*
X0111000Y0007900D01*
X0108888Y0007900D01*
X0111000Y0009197D02*
X0111000Y0009197D01*
X0111000Y0010796D02*
X0111000Y0010796D01*
X0114409Y0009197D02*
X0187590Y0009197D01*
X0188888Y0007900D02*
X0185900Y0010888D01*
X0185900Y0013000D01*
X0191000Y0013000D01*
X0191000Y0013000D01*
X0191000Y0018100D01*
X0193112Y0018100D01*
X0196100Y0015112D01*
X0196100Y0013000D01*
X0191000Y0013000D01*
X0191000Y0013000D01*
X0191000Y0013000D01*
X0191000Y0018100D01*
X0188888Y0018100D01*
X0185900Y0015112D01*
X0185900Y0013000D01*
X0191000Y0013000D01*
X0196100Y0013000D01*
X0196100Y0010888D01*
X0193112Y0007900D01*
X0191000Y0007900D01*
X0191000Y0013000D01*
X0191000Y0013000D01*
X0191000Y0007900D01*
X0188888Y0007900D01*
X0191000Y0009197D02*
X0191000Y0009197D01*
X0191000Y0010796D02*
X0191000Y0010796D01*
X0194409Y0009197D02*
X0282590Y0009197D01*
X0283888Y0007900D02*
X0280900Y0010888D01*
X0280900Y0013000D01*
X0286000Y0013000D01*
X0286000Y0013000D01*
X0286000Y0018100D01*
X0288112Y0018100D01*
X0291100Y0015112D01*
X0291100Y0013000D01*
X0286000Y0013000D01*
X0286000Y0013000D01*
X0286000Y0013000D01*
X0286000Y0018100D01*
X0283888Y0018100D01*
X0280900Y0015112D01*
X0280900Y0013000D01*
X0286000Y0013000D01*
X0291100Y0013000D01*
X0291100Y0010888D01*
X0288112Y0007900D01*
X0286000Y0007900D01*
X0286000Y0013000D01*
X0286000Y0013000D01*
X0286000Y0007900D01*
X0283888Y0007900D01*
X0286000Y0009197D02*
X0286000Y0009197D01*
X0286000Y0010796D02*
X0286000Y0010796D01*
X0289409Y0009197D02*
X0322308Y0009197D01*
X0320709Y0010796D02*
X0291008Y0010796D01*
X0291100Y0012394D02*
X0320700Y0012394D01*
X0320700Y0013993D02*
X0291100Y0013993D01*
X0290621Y0015591D02*
X0321096Y0015591D01*
X0322694Y0017190D02*
X0309190Y0017190D01*
X0308050Y0016050D02*
X0306000Y0016050D01*
X0306000Y0021000D01*
X0306000Y0021000D01*
X0306000Y0025950D01*
X0308050Y0025950D01*
X0310950Y0023050D01*
X0310950Y0021000D01*
X0306000Y0021000D01*
X0306000Y0021000D01*
X0306000Y0021000D01*
X0301050Y0021000D01*
X0301050Y0023050D01*
X0303950Y0025950D01*
X0306000Y0025950D01*
X0306000Y0021000D01*
X0310950Y0021000D01*
X0310950Y0018950D01*
X0308050Y0016050D01*
X0306000Y0016050D02*
X0306000Y0021000D01*
X0306000Y0021000D01*
X0301050Y0021000D01*
X0301050Y0018950D01*
X0303950Y0016050D01*
X0306000Y0016050D01*
X0306000Y0017190D02*
X0306000Y0017190D01*
X0306000Y0018788D02*
X0306000Y0018788D01*
X0302810Y0017190D02*
X0289023Y0017190D01*
X0286000Y0017190D02*
X0286000Y0017190D01*
X0286000Y0015591D02*
X0286000Y0015591D01*
X0282977Y0017190D02*
X0269190Y0017190D01*
X0270788Y0018788D02*
X0301212Y0018788D01*
X0301050Y0020387D02*
X0270950Y0020387D01*
X0270950Y0021985D02*
X0301050Y0021985D01*
X0306000Y0021985D02*
X0306000Y0021985D01*
X0306000Y0020387D02*
X0306000Y0020387D01*
X0310950Y0020387D02*
X0322654Y0020387D01*
X0321055Y0021985D02*
X0310950Y0021985D01*
X0310417Y0023584D02*
X0319457Y0023584D01*
X0317858Y0025182D02*
X0308818Y0025182D01*
X0306000Y0025182D02*
X0306000Y0025182D01*
X0306000Y0023584D02*
X0306000Y0023584D01*
X0303182Y0025182D02*
X0268818Y0025182D01*
X0270417Y0023584D02*
X0301583Y0023584D01*
X0316260Y0026781D02*
X0006000Y0026781D01*
X0006000Y0028379D02*
X0060010Y0028379D01*
X0054866Y0033175D02*
X0043387Y0033175D01*
X0043112Y0032900D02*
X0046100Y0035888D01*
X0046100Y0038000D01*
X0046100Y0040112D01*
X0043112Y0043100D01*
X0041000Y0043100D01*
X0041000Y0038000D01*
X0041000Y0038000D01*
X0046100Y0038000D01*
X0041000Y0038000D01*
X0041000Y0038000D01*
X0041000Y0038000D01*
X0035900Y0038000D01*
X0035900Y0040112D01*
X0038888Y0043100D01*
X0041000Y0043100D01*
X0041000Y0038000D01*
X0041000Y0032900D01*
X0043112Y0032900D01*
X0041000Y0032900D02*
X0041000Y0038000D01*
X0041000Y0038000D01*
X0035900Y0038000D01*
X0035900Y0035888D01*
X0038888Y0032900D01*
X0041000Y0032900D01*
X0041000Y0033175D02*
X0041000Y0033175D01*
X0038613Y0033175D02*
X0029433Y0033175D01*
X0030074Y0034773D02*
X0037014Y0034773D01*
X0035900Y0036372D02*
X0030200Y0036372D01*
X0029843Y0037970D02*
X0035900Y0037970D01*
X0035900Y0039569D02*
X0028906Y0039569D01*
X0027928Y0041167D02*
X0036955Y0041167D01*
X0038553Y0042766D02*
X0029527Y0042766D01*
X0041000Y0042766D02*
X0041000Y0042766D01*
X0041000Y0041167D02*
X0041000Y0041167D01*
X0043447Y0042766D02*
X0048200Y0042766D01*
X0048200Y0041167D02*
X0045045Y0041167D01*
X0046100Y0039569D02*
X0048562Y0039569D01*
X0050070Y0037970D02*
X0046100Y0037970D01*
X0046100Y0036372D02*
X0051668Y0036372D01*
X0053267Y0034773D02*
X0044986Y0034773D01*
X0041000Y0034773D02*
X0041000Y0034773D01*
X0041000Y0036372D02*
X0041000Y0036372D01*
X0041000Y0037970D02*
X0041000Y0037970D01*
X0041000Y0039569D02*
X0041000Y0039569D01*
X0053800Y0042766D02*
X0060274Y0042766D01*
X0060850Y0042190D02*
X0060850Y0038867D01*
X0063867Y0035850D01*
X0068133Y0035850D01*
X0071150Y0038867D01*
X0071150Y0043133D01*
X0068133Y0046150D01*
X0064810Y0046150D01*
X0058800Y0052160D01*
X0058800Y0054695D01*
X0059900Y0055794D01*
X0060600Y0057485D01*
X0060600Y0064515D01*
X0059900Y0066206D01*
X0058606Y0067500D01*
X0056915Y0068200D01*
X0055085Y0068200D01*
X0053394Y0067500D01*
X0052100Y0066206D01*
X0051400Y0064515D01*
X0051400Y0057485D01*
X0052100Y0055794D01*
X0053200Y0054695D01*
X0053200Y0050443D01*
X0053626Y0049414D01*
X0060850Y0042190D01*
X0060850Y0041167D02*
X0054793Y0041167D01*
X0056391Y0039569D02*
X0060850Y0039569D01*
X0061747Y0037970D02*
X0057990Y0037970D01*
X0059588Y0036372D02*
X0063345Y0036372D01*
X0061187Y0034773D02*
X0115813Y0034773D01*
X0117412Y0036372D02*
X0093655Y0036372D01*
X0093133Y0035850D02*
X0096150Y0038867D01*
X0096150Y0043133D01*
X0093133Y0046150D01*
X0089810Y0046150D01*
X0087586Y0048374D01*
X0086557Y0048800D01*
X0077160Y0048800D01*
X0069978Y0055982D01*
X0070600Y0057485D01*
X0070600Y0064515D01*
X0069900Y0066206D01*
X0068606Y0067500D01*
X0066915Y0068200D01*
X0065085Y0068200D01*
X0063394Y0067500D01*
X0062100Y0066206D01*
X0061400Y0064515D01*
X0061400Y0057485D01*
X0062100Y0055794D01*
X0063394Y0054500D01*
X0063643Y0054397D01*
X0073626Y0044414D01*
X0074414Y0043626D01*
X0075443Y0043200D01*
X0084840Y0043200D01*
X0085850Y0042190D01*
X0085850Y0038867D01*
X0088867Y0035850D01*
X0093133Y0035850D01*
X0095253Y0037970D02*
X0119010Y0037970D01*
X0120609Y0039569D02*
X0096150Y0039569D01*
X0096150Y0041167D02*
X0122207Y0041167D01*
X0123806Y0042766D02*
X0096150Y0042766D01*
X0094919Y0044364D02*
X0108140Y0044364D01*
X0106542Y0045963D02*
X0093320Y0045963D01*
X0088398Y0047561D02*
X0105700Y0047561D01*
X0109000Y0051000D02*
X0111000Y0049000D01*
X0122000Y0049000D01*
X0131000Y0058000D01*
X0136300Y0058751D02*
X0138200Y0058751D01*
X0138200Y0060349D02*
X0136146Y0060349D01*
X0134547Y0061948D02*
X0138200Y0061948D01*
X0138200Y0063546D02*
X0120400Y0063546D01*
X0120400Y0063946D02*
X0120292Y0064630D01*
X0120078Y0065289D01*
X0119763Y0065906D01*
X0119356Y0066466D01*
X0118866Y0066956D01*
X0118306Y0067363D01*
X0117689Y0067678D01*
X0117030Y0067892D01*
X0116346Y0068000D01*
X0116000Y0068000D01*
X0116000Y0061000D01*
X0120400Y0061000D01*
X0120400Y0063946D01*
X0120124Y0065145D02*
X0138200Y0065145D01*
X0138200Y0066743D02*
X0119079Y0066743D01*
X0116000Y0066743D02*
X0116000Y0066743D01*
X0116000Y0068000D02*
X0115654Y0068000D01*
X0114970Y0067892D01*
X0114311Y0067678D01*
X0113694Y0067363D01*
X0113134Y0066956D01*
X0112644Y0066466D01*
X0112237Y0065906D01*
X0111922Y0065289D01*
X0111708Y0064630D01*
X0111600Y0063946D01*
X0111600Y0061000D01*
X0116000Y0061000D01*
X0116000Y0061000D01*
X0116000Y0061000D01*
X0120400Y0061000D01*
X0120400Y0058054D01*
X0120292Y0057370D01*
X0120078Y0056711D01*
X0119763Y0056094D01*
X0119356Y0055534D01*
X0118866Y0055044D01*
X0118306Y0054637D01*
X0117689Y0054322D01*
X0117030Y0054108D01*
X0116346Y0054000D01*
X0116000Y0054000D01*
X0116000Y0061000D01*
X0116000Y0061000D01*
X0116000Y0061000D01*
X0116000Y0068000D01*
X0112921Y0066743D02*
X0109362Y0066743D01*
X0109900Y0066206D02*
X0108606Y0067500D01*
X0106915Y0068200D01*
X0105085Y0068200D01*
X0103394Y0067500D01*
X0102100Y0066206D01*
X0101400Y0064515D01*
X0101400Y0057485D01*
X0102100Y0055794D01*
X0103394Y0054500D01*
X0105085Y0053800D01*
X0106915Y0053800D01*
X0108606Y0054500D01*
X0109900Y0055794D01*
X0110600Y0057485D01*
X0110600Y0064515D01*
X0109900Y0066206D01*
X0110339Y0065145D02*
X0111876Y0065145D01*
X0111600Y0063546D02*
X0110600Y0063546D01*
X0116000Y0063546D02*
X0116000Y0063546D01*
X0116000Y0065145D02*
X0116000Y0065145D01*
X0116000Y0061948D02*
X0116000Y0061948D01*
X0116000Y0061000D02*
X0111600Y0061000D01*
X0111600Y0058054D01*
X0111708Y0057370D01*
X0111922Y0056711D01*
X0112237Y0056094D01*
X0112644Y0055534D01*
X0113134Y0055044D01*
X0113694Y0054637D01*
X0114311Y0054322D01*
X0114970Y0054108D01*
X0115654Y0054000D01*
X0116000Y0054000D01*
X0116000Y0061000D01*
X0116000Y0060349D02*
X0116000Y0060349D01*
X0116000Y0058751D02*
X0116000Y0058751D01*
X0111600Y0058751D02*
X0110600Y0058751D01*
X0110600Y0060349D02*
X0111600Y0060349D01*
X0111600Y0061948D02*
X0110600Y0061948D01*
X0101400Y0061948D02*
X0100600Y0061948D01*
X0100600Y0060349D02*
X0101400Y0060349D01*
X0101400Y0058751D02*
X0100600Y0058751D01*
X0100462Y0057152D02*
X0101538Y0057152D01*
X0102341Y0055554D02*
X0099659Y0055554D01*
X0097290Y0053955D02*
X0104710Y0053955D01*
X0107290Y0053955D02*
X0108460Y0053955D01*
X0109659Y0055554D02*
X0112629Y0055554D01*
X0111779Y0057152D02*
X0110462Y0057152D01*
X0116000Y0057152D02*
X0116000Y0057152D01*
X0116000Y0055554D02*
X0116000Y0055554D01*
X0119371Y0055554D02*
X0124594Y0055554D01*
X0125700Y0057152D02*
X0120221Y0057152D01*
X0120400Y0058751D02*
X0125700Y0058751D01*
X0125854Y0060349D02*
X0120400Y0060349D01*
X0120400Y0061948D02*
X0127453Y0061948D01*
X0136300Y0057152D02*
X0138193Y0057152D01*
X0136594Y0055554D02*
X0136049Y0055554D01*
X0134996Y0053955D02*
X0134451Y0053955D01*
X0133397Y0052357D02*
X0129317Y0052357D01*
X0127718Y0050758D02*
X0131799Y0050758D01*
X0130200Y0049160D02*
X0126120Y0049160D01*
X0124521Y0047561D02*
X0128602Y0047561D01*
X0127003Y0045963D02*
X0115458Y0045963D01*
X0113860Y0044364D02*
X0125404Y0044364D01*
X0128529Y0039569D02*
X0140850Y0039569D01*
X0141747Y0037970D02*
X0126930Y0037970D01*
X0125332Y0036372D02*
X0143345Y0036372D01*
X0148655Y0036372D02*
X0168345Y0036372D01*
X0173655Y0036372D02*
X0191668Y0036372D01*
X0193267Y0034773D02*
X0123733Y0034773D01*
X0122134Y0033175D02*
X0194866Y0033175D01*
X0196464Y0031576D02*
X0120536Y0031576D01*
X0118937Y0029978D02*
X0198063Y0029978D01*
X0200010Y0028379D02*
X0116989Y0028379D01*
X0095950Y0021985D02*
X0141050Y0021985D01*
X0141050Y0021000D02*
X0141050Y0018950D01*
X0143950Y0016050D01*
X0146000Y0016050D01*
X0148050Y0016050D01*
X0150950Y0018950D01*
X0150950Y0021000D01*
X0146000Y0021000D01*
X0146000Y0016050D01*
X0146000Y0021000D01*
X0146000Y0021000D01*
X0141050Y0021000D01*
X0141050Y0020387D02*
X0095950Y0020387D01*
X0095950Y0021000D02*
X0091000Y0021000D01*
X0091000Y0016050D01*
X0093050Y0016050D01*
X0095950Y0018950D01*
X0095950Y0021000D01*
X0095788Y0018788D02*
X0141212Y0018788D01*
X0142810Y0017190D02*
X0114023Y0017190D01*
X0115621Y0015591D02*
X0186379Y0015591D01*
X0187977Y0017190D02*
X0174190Y0017190D01*
X0173050Y0016050D02*
X0175950Y0018950D01*
X0175950Y0021000D01*
X0171000Y0021000D01*
X0171000Y0016050D01*
X0173050Y0016050D01*
X0171000Y0016050D02*
X0171000Y0021000D01*
X0171000Y0021000D01*
X0166050Y0021000D01*
X0166050Y0018950D01*
X0168950Y0016050D01*
X0171000Y0016050D01*
X0171000Y0017190D02*
X0171000Y0017190D01*
X0171000Y0018788D02*
X0171000Y0018788D01*
X0167810Y0017190D02*
X0149190Y0017190D01*
X0150788Y0018788D02*
X0166212Y0018788D01*
X0166050Y0020387D02*
X0150950Y0020387D01*
X0150950Y0021985D02*
X0166050Y0021985D01*
X0166583Y0023584D02*
X0150417Y0023584D01*
X0146000Y0021985D02*
X0146000Y0021985D01*
X0146000Y0020387D02*
X0146000Y0020387D01*
X0146000Y0018788D02*
X0146000Y0018788D01*
X0146000Y0017190D02*
X0146000Y0017190D01*
X0141583Y0023584D02*
X0095417Y0023584D01*
X0091000Y0021985D02*
X0091000Y0021985D01*
X0091000Y0021000D02*
X0086050Y0021000D01*
X0086050Y0018950D01*
X0088950Y0016050D01*
X0091000Y0016050D01*
X0091000Y0021000D01*
X0091000Y0021000D01*
X0091000Y0020387D02*
X0091000Y0020387D01*
X0086050Y0020387D02*
X0070950Y0020387D01*
X0070950Y0021000D02*
X0066000Y0021000D01*
X0066000Y0016050D01*
X0068050Y0016050D01*
X0070950Y0018950D01*
X0070950Y0021000D01*
X0070950Y0021985D02*
X0086050Y0021985D01*
X0086583Y0023584D02*
X0070417Y0023584D01*
X0066000Y0021985D02*
X0066000Y0021985D01*
X0066000Y0021000D02*
X0061050Y0021000D01*
X0061050Y0018950D01*
X0063950Y0016050D01*
X0066000Y0016050D01*
X0066000Y0021000D01*
X0066000Y0021000D01*
X0066000Y0020387D02*
X0066000Y0020387D01*
X0066000Y0018788D02*
X0066000Y0018788D01*
X0066000Y0017190D02*
X0066000Y0017190D01*
X0069190Y0017190D02*
X0087810Y0017190D01*
X0086212Y0018788D02*
X0070788Y0018788D01*
X0062810Y0017190D02*
X0057890Y0017190D01*
X0058497Y0018788D02*
X0061212Y0018788D01*
X0061050Y0020387D02*
X0058497Y0020387D01*
X0051132Y0015591D02*
X0106379Y0015591D01*
X0107977Y0017190D02*
X0094190Y0017190D01*
X0091000Y0017190D02*
X0091000Y0017190D01*
X0091000Y0018788D02*
X0091000Y0018788D01*
X0105900Y0013993D02*
X0045606Y0013993D01*
X0041927Y0012394D02*
X0105900Y0012394D01*
X0105992Y0010796D02*
X0042294Y0010796D01*
X0045585Y0015591D02*
X0048775Y0015591D01*
X0068655Y0036372D02*
X0088345Y0036372D01*
X0086747Y0037970D02*
X0070253Y0037970D01*
X0071150Y0039569D02*
X0085850Y0039569D01*
X0085850Y0041167D02*
X0071150Y0041167D01*
X0071150Y0042766D02*
X0085274Y0042766D01*
X0086000Y0046000D02*
X0091000Y0041000D01*
X0086000Y0046000D02*
X0076000Y0046000D01*
X0066000Y0056000D01*
X0066000Y0061000D01*
X0070600Y0060349D02*
X0071400Y0060349D01*
X0071400Y0058751D02*
X0070600Y0058751D01*
X0071400Y0057485D02*
X0072100Y0055794D01*
X0073394Y0054500D01*
X0075085Y0053800D01*
X0076915Y0053800D01*
X0078606Y0054500D01*
X0079900Y0055794D01*
X0080600Y0057485D01*
X0080600Y0064515D01*
X0079900Y0066206D01*
X0078606Y0067500D01*
X0076915Y0068200D01*
X0075085Y0068200D01*
X0073394Y0067500D01*
X0072100Y0066206D01*
X0071400Y0064515D01*
X0071400Y0057485D01*
X0071538Y0057152D02*
X0070462Y0057152D01*
X0070406Y0055554D02*
X0072341Y0055554D01*
X0072004Y0053955D02*
X0074710Y0053955D01*
X0073603Y0052357D02*
X0090683Y0052357D01*
X0089085Y0053955D02*
X0087290Y0053955D01*
X0084710Y0053955D02*
X0077290Y0053955D01*
X0079659Y0055554D02*
X0082341Y0055554D01*
X0081538Y0057152D02*
X0080462Y0057152D01*
X0080600Y0058751D02*
X0081400Y0058751D01*
X0081400Y0060349D02*
X0080600Y0060349D01*
X0080600Y0061948D02*
X0081400Y0061948D01*
X0081400Y0063546D02*
X0080600Y0063546D01*
X0080339Y0065145D02*
X0081661Y0065145D01*
X0082638Y0066743D02*
X0079362Y0066743D01*
X0072638Y0066743D02*
X0069362Y0066743D01*
X0070339Y0065145D02*
X0071661Y0065145D01*
X0071400Y0063546D02*
X0070600Y0063546D01*
X0070600Y0061948D02*
X0071400Y0061948D01*
X0061400Y0061948D02*
X0060600Y0061948D01*
X0060600Y0060349D02*
X0061400Y0060349D01*
X0061400Y0058751D02*
X0060600Y0058751D01*
X0060462Y0057152D02*
X0061538Y0057152D01*
X0062341Y0055554D02*
X0059659Y0055554D01*
X0058800Y0053955D02*
X0064085Y0053955D01*
X0065683Y0052357D02*
X0058800Y0052357D01*
X0056000Y0051000D02*
X0066000Y0041000D01*
X0069919Y0044364D02*
X0073676Y0044364D01*
X0072077Y0045963D02*
X0068320Y0045963D01*
X0070479Y0047561D02*
X0063398Y0047561D01*
X0061800Y0049160D02*
X0068880Y0049160D01*
X0067282Y0050758D02*
X0060201Y0050758D01*
X0056000Y0051000D02*
X0056000Y0061000D01*
X0051400Y0060349D02*
X0028412Y0060349D01*
X0028426Y0061948D02*
X0051400Y0061948D01*
X0051400Y0063546D02*
X0029623Y0063546D01*
X0030133Y0065145D02*
X0051661Y0065145D01*
X0052638Y0066743D02*
X0030151Y0066743D01*
X0029680Y0068342D02*
X0089698Y0068342D01*
X0089362Y0066743D02*
X0091297Y0066743D01*
X0091661Y0065145D02*
X0090339Y0065145D01*
X0090600Y0063546D02*
X0091400Y0063546D01*
X0091400Y0061948D02*
X0090600Y0061948D01*
X0090610Y0060349D02*
X0091400Y0060349D01*
X0086000Y0061000D02*
X0096000Y0051000D01*
X0109000Y0051000D01*
X0113540Y0053955D02*
X0122996Y0053955D01*
X0121397Y0052357D02*
X0115138Y0052357D01*
X0093880Y0049160D02*
X0076800Y0049160D01*
X0075201Y0050758D02*
X0092282Y0050758D01*
X0058676Y0044364D02*
X0053800Y0044364D01*
X0053800Y0045963D02*
X0057077Y0045963D01*
X0055479Y0047561D02*
X0053384Y0047561D01*
X0051000Y0046000D02*
X0041000Y0056000D01*
X0021000Y0056000D01*
X0029118Y0052357D02*
X0040683Y0052357D01*
X0042282Y0050758D02*
X0028003Y0050758D01*
X0029561Y0049160D02*
X0043880Y0049160D01*
X0050201Y0050758D02*
X0053200Y0050758D01*
X0053880Y0049160D02*
X0051800Y0049160D01*
X0053200Y0052357D02*
X0048603Y0052357D01*
X0047004Y0053955D02*
X0053200Y0053955D01*
X0052341Y0055554D02*
X0045406Y0055554D01*
X0043807Y0057152D02*
X0051538Y0057152D01*
X0051400Y0058751D02*
X0041676Y0058751D01*
X0060600Y0063546D02*
X0061400Y0063546D01*
X0061661Y0065145D02*
X0060339Y0065145D01*
X0059362Y0066743D02*
X0062638Y0066743D01*
X0044436Y0069940D02*
X0088100Y0069940D01*
X0094421Y0071539D02*
X0138200Y0071539D01*
X0138200Y0069940D02*
X0096019Y0069940D01*
X0097618Y0068342D02*
X0138200Y0068342D01*
X0146000Y0066000D02*
X0146000Y0058000D01*
X0157915Y0053955D02*
X0159710Y0053955D01*
X0162290Y0053955D02*
X0168200Y0053955D01*
X0168200Y0052357D02*
X0156317Y0052357D01*
X0154718Y0050758D02*
X0168200Y0050758D01*
X0168200Y0049160D02*
X0153120Y0049160D01*
X0146000Y0046000D02*
X0161000Y0061000D01*
X0165600Y0060349D02*
X0166400Y0060349D01*
X0166400Y0058751D02*
X0165600Y0058751D01*
X0165462Y0057152D02*
X0166538Y0057152D01*
X0167341Y0055554D02*
X0164659Y0055554D01*
X0173800Y0053955D02*
X0179710Y0053955D01*
X0182290Y0053955D02*
X0188200Y0053955D01*
X0186862Y0052357D02*
X0173800Y0052357D01*
X0173800Y0050758D02*
X0185700Y0050758D01*
X0185700Y0049160D02*
X0173800Y0049160D01*
X0174659Y0055554D02*
X0177341Y0055554D01*
X0176538Y0057152D02*
X0175462Y0057152D01*
X0175600Y0058751D02*
X0176400Y0058751D01*
X0176400Y0060349D02*
X0175600Y0060349D01*
X0175600Y0061948D02*
X0176400Y0061948D01*
X0181000Y0061000D02*
X0181000Y0071000D01*
X0181000Y0074500D01*
X0181000Y0076000D01*
X0182500Y0076000D01*
X0181000Y0076000D02*
X0176000Y0076000D01*
X0181000Y0074500D02*
X0181000Y0071000D01*
X0183800Y0071539D02*
X0186501Y0071539D01*
X0188100Y0069940D02*
X0183800Y0069940D01*
X0178200Y0069940D02*
X0153900Y0069940D01*
X0155499Y0071539D02*
X0178200Y0071539D01*
X0178200Y0073137D02*
X0157097Y0073137D01*
X0152302Y0068342D02*
X0178200Y0068342D01*
X0177638Y0066743D02*
X0174362Y0066743D01*
X0167638Y0066743D02*
X0164362Y0066743D01*
X0165339Y0065145D02*
X0166661Y0065145D01*
X0166400Y0063546D02*
X0165600Y0063546D01*
X0165600Y0061948D02*
X0166400Y0061948D01*
X0171000Y0061000D02*
X0171000Y0041000D01*
X0176150Y0041167D02*
X0188200Y0041167D01*
X0188200Y0042766D02*
X0176150Y0042766D01*
X0176150Y0039569D02*
X0188562Y0039569D01*
X0190070Y0037970D02*
X0175253Y0037970D01*
X0166747Y0037970D02*
X0150253Y0037970D01*
X0151150Y0039569D02*
X0165850Y0039569D01*
X0165850Y0041167D02*
X0151150Y0041167D01*
X0151150Y0042766D02*
X0165850Y0042766D01*
X0196391Y0039569D02*
X0205850Y0039569D01*
X0206747Y0037970D02*
X0197990Y0037970D01*
X0214919Y0044364D02*
X0228200Y0044364D01*
X0228200Y0045963D02*
X0213320Y0045963D01*
X0233800Y0045963D02*
X0238680Y0045963D01*
X0237081Y0044364D02*
X0233800Y0044364D01*
X0233800Y0047561D02*
X0243602Y0047561D01*
X0245200Y0049160D02*
X0233800Y0049160D01*
X0233800Y0050758D02*
X0246799Y0050758D01*
X0248397Y0052357D02*
X0234317Y0052357D01*
X0239451Y0053955D02*
X0247549Y0053955D01*
X0245951Y0055554D02*
X0241049Y0055554D01*
X0241300Y0057152D02*
X0245700Y0057152D01*
X0254451Y0053955D02*
X0254996Y0053955D01*
X0256049Y0055554D02*
X0256594Y0055554D01*
X0256300Y0057152D02*
X0258193Y0057152D01*
X0262915Y0053955D02*
X0264710Y0053955D01*
X0263531Y0052357D02*
X0261317Y0052357D01*
X0266000Y0051000D02*
X0276000Y0061000D01*
X0271390Y0060349D02*
X0270600Y0060349D01*
X0270600Y0061948D02*
X0271400Y0061948D01*
X0271400Y0063546D02*
X0270600Y0063546D01*
X0270339Y0065145D02*
X0271661Y0065145D01*
X0272638Y0066743D02*
X0269362Y0066743D01*
X0262638Y0066743D02*
X0255703Y0066743D01*
X0257302Y0068342D02*
X0294698Y0068342D01*
X0292638Y0066743D02*
X0289362Y0066743D01*
X0290339Y0065145D02*
X0291661Y0065145D01*
X0291400Y0063546D02*
X0290600Y0063546D01*
X0290600Y0061948D02*
X0291400Y0061948D01*
X0291400Y0060349D02*
X0290600Y0060349D01*
X0290600Y0058751D02*
X0291400Y0058751D01*
X0300600Y0061948D02*
X0301092Y0061948D01*
X0282638Y0066743D02*
X0279362Y0066743D01*
X0280339Y0065145D02*
X0281661Y0065145D01*
X0281400Y0063546D02*
X0280600Y0063546D01*
X0280600Y0061948D02*
X0281400Y0061948D01*
X0281400Y0060349D02*
X0280600Y0060349D01*
X0280600Y0058751D02*
X0281400Y0058751D01*
X0281538Y0057152D02*
X0280462Y0057152D01*
X0279659Y0055554D02*
X0282341Y0055554D01*
X0283460Y0053955D02*
X0277290Y0053955D01*
X0274710Y0053955D02*
X0272915Y0053955D01*
X0271317Y0052357D02*
X0281862Y0052357D01*
X0261400Y0063546D02*
X0253800Y0063546D01*
X0254105Y0065145D02*
X0261661Y0065145D01*
X0249382Y0068342D02*
X0246900Y0068342D01*
X0248900Y0069940D02*
X0250981Y0069940D01*
X0250499Y0071539D02*
X0252579Y0071539D01*
X0252097Y0073137D02*
X0254178Y0073137D01*
X0253696Y0074736D02*
X0255776Y0074736D01*
X0255294Y0076334D02*
X0257375Y0076334D01*
X0256893Y0077933D02*
X0258973Y0077933D01*
X0250572Y0079532D02*
X0225491Y0079532D01*
X0227090Y0081130D02*
X0252170Y0081130D01*
X0253769Y0082729D02*
X0228688Y0082729D01*
X0230287Y0084327D02*
X0263813Y0084327D01*
X0262046Y0085926D02*
X0231885Y0085926D01*
X0233484Y0087524D02*
X0261400Y0087524D01*
X0261400Y0089123D02*
X0253618Y0089123D01*
X0255216Y0090721D02*
X0261400Y0090721D01*
X0261400Y0092320D02*
X0256300Y0092320D01*
X0246784Y0090721D02*
X0240216Y0090721D01*
X0238618Y0089123D02*
X0248382Y0089123D01*
X0248973Y0077933D02*
X0203027Y0077933D01*
X0203626Y0079414D02*
X0203626Y0079414D01*
X0203509Y0079532D02*
X0201428Y0079532D01*
X0195107Y0077933D02*
X0188027Y0077933D01*
X0189625Y0076334D02*
X0196706Y0076334D01*
X0198304Y0074736D02*
X0191224Y0074736D01*
X0192822Y0073137D02*
X0199903Y0073137D01*
X0201501Y0071539D02*
X0194421Y0071539D01*
X0196019Y0069940D02*
X0203100Y0069940D01*
X0205100Y0068342D02*
X0197618Y0068342D01*
X0204362Y0066743D02*
X0207638Y0066743D01*
X0206661Y0065145D02*
X0205339Y0065145D01*
X0205600Y0063546D02*
X0206400Y0063546D01*
X0206400Y0061948D02*
X0205600Y0061948D01*
X0205600Y0060349D02*
X0206400Y0060349D01*
X0206400Y0058751D02*
X0205600Y0058751D01*
X0205462Y0057152D02*
X0206538Y0057152D01*
X0207341Y0055554D02*
X0204659Y0055554D01*
X0214659Y0055554D02*
X0217629Y0055554D01*
X0216779Y0057152D02*
X0215462Y0057152D01*
X0221000Y0057152D02*
X0221000Y0057152D01*
X0221000Y0055554D02*
X0221000Y0055554D01*
X0216600Y0058751D02*
X0215600Y0058751D01*
X0215600Y0060349D02*
X0216600Y0060349D01*
X0216600Y0061948D02*
X0215600Y0061948D01*
X0189698Y0068342D02*
X0183800Y0068342D01*
X0184362Y0066743D02*
X0187638Y0066743D01*
X0186661Y0065145D02*
X0185339Y0065145D01*
X0185600Y0063546D02*
X0186400Y0063546D01*
X0186400Y0061948D02*
X0185600Y0061948D01*
X0185600Y0060349D02*
X0186400Y0060349D01*
X0186400Y0058751D02*
X0185600Y0058751D01*
X0185462Y0057152D02*
X0186538Y0057152D01*
X0187341Y0055554D02*
X0184659Y0055554D01*
X0176400Y0063546D02*
X0175600Y0063546D01*
X0175339Y0065145D02*
X0176661Y0065145D01*
X0157638Y0066743D02*
X0150703Y0066743D01*
X0138200Y0073137D02*
X0092822Y0073137D01*
X0091224Y0074736D02*
X0138200Y0074736D01*
X0138200Y0076334D02*
X0089625Y0076334D01*
X0088000Y0074000D02*
X0096000Y0066000D01*
X0096000Y0061000D01*
X0100600Y0063546D02*
X0101400Y0063546D01*
X0101661Y0065145D02*
X0100339Y0065145D01*
X0099362Y0066743D02*
X0102638Y0066743D01*
X0088000Y0074000D02*
X0041000Y0074000D01*
X0038000Y0074000D01*
X0036000Y0076000D01*
X0021000Y0076000D01*
X0029684Y0073137D02*
X0034903Y0073137D01*
X0035966Y0071539D02*
X0028300Y0071539D01*
X0028538Y0069940D02*
X0037564Y0069940D01*
X0044562Y0077933D02*
X0138973Y0077933D01*
X0139414Y0078374D02*
X0139414Y0078374D01*
X0140572Y0079532D02*
X0120491Y0079532D01*
X0122090Y0081130D02*
X0142170Y0081130D01*
X0143769Y0082729D02*
X0123688Y0082729D01*
X0125287Y0084327D02*
X0158813Y0084327D01*
X0157046Y0085926D02*
X0126885Y0085926D01*
X0128484Y0087524D02*
X0156400Y0087524D01*
X0156400Y0089123D02*
X0148618Y0089123D01*
X0150216Y0090721D02*
X0156400Y0090721D01*
X0156400Y0092320D02*
X0151300Y0092320D01*
X0143382Y0089123D02*
X0133618Y0089123D01*
X0135216Y0090721D02*
X0141784Y0090721D01*
X0163187Y0084327D02*
X0168813Y0084327D01*
X0167046Y0085926D02*
X0164954Y0085926D01*
X0165600Y0087524D02*
X0166400Y0087524D01*
X0166400Y0089123D02*
X0165600Y0089123D01*
X0165600Y0090721D02*
X0166400Y0090721D01*
X0166400Y0092320D02*
X0165600Y0092320D01*
X0165600Y0093918D02*
X0166400Y0093918D01*
X0166815Y0095517D02*
X0165185Y0095517D01*
X0184049Y0101911D02*
X0197951Y0101911D01*
X0199741Y0103509D02*
X0182259Y0103509D01*
X0185648Y0100312D02*
X0196352Y0100312D01*
X0194754Y0098714D02*
X0187246Y0098714D01*
X0196279Y0092320D02*
X0196400Y0092320D01*
X0201000Y0091000D02*
X0201000Y0086000D01*
X0200312Y0082729D02*
X0198231Y0082729D01*
X0199830Y0081130D02*
X0201910Y0081130D01*
X0204625Y0076334D02*
X0247375Y0076334D01*
X0245776Y0074736D02*
X0206224Y0074736D01*
X0184903Y0073137D02*
X0183800Y0073137D01*
X0258900Y0069940D02*
X0293100Y0069940D01*
X0291501Y0071539D02*
X0260499Y0071539D01*
X0262097Y0073137D02*
X0289903Y0073137D01*
X0326000Y0065145D02*
X0326000Y0065145D01*
X0326000Y0063546D02*
X0326000Y0063546D01*
X0326000Y0061948D02*
X0326000Y0061948D01*
X0331300Y0047561D02*
X0336000Y0047561D01*
X0336000Y0045963D02*
X0330458Y0045963D01*
X0328860Y0044364D02*
X0336000Y0044364D01*
X0308267Y0034773D02*
X0228733Y0034773D01*
X0230332Y0036372D02*
X0238345Y0036372D01*
X0266000Y0025182D02*
X0266000Y0025182D01*
X0266000Y0023584D02*
X0266000Y0023584D01*
X0266000Y0021985D02*
X0266000Y0021985D01*
X0266000Y0020387D02*
X0266000Y0020387D01*
X0266000Y0018788D02*
X0266000Y0018788D01*
X0266000Y0017190D02*
X0266000Y0017190D01*
X0280900Y0013993D02*
X0196100Y0013993D01*
X0196100Y0012394D02*
X0280900Y0012394D01*
X0286000Y0012394D02*
X0286000Y0012394D01*
X0286000Y0013993D02*
X0286000Y0013993D01*
X0281379Y0015591D02*
X0195621Y0015591D01*
X0194023Y0017190D02*
X0207810Y0017190D01*
X0208950Y0016050D02*
X0206050Y0018950D01*
X0206050Y0021000D01*
X0211000Y0021000D01*
X0211000Y0021000D01*
X0211000Y0016050D01*
X0208950Y0016050D01*
X0211000Y0017190D02*
X0211000Y0017190D01*
X0211000Y0018788D02*
X0211000Y0018788D01*
X0206212Y0018788D02*
X0175788Y0018788D01*
X0175950Y0020387D02*
X0206050Y0020387D01*
X0206050Y0021985D02*
X0175950Y0021985D01*
X0171000Y0021985D02*
X0171000Y0021985D01*
X0171000Y0020387D02*
X0171000Y0020387D01*
X0175417Y0023584D02*
X0206583Y0023584D01*
X0211000Y0021985D02*
X0211000Y0021985D01*
X0211000Y0020387D02*
X0211000Y0020387D01*
X0191000Y0017190D02*
X0191000Y0017190D01*
X0191000Y0015591D02*
X0191000Y0015591D01*
X0191000Y0013993D02*
X0191000Y0013993D01*
X0191000Y0012394D02*
X0191000Y0012394D01*
X0185900Y0012394D02*
X0116100Y0012394D01*
X0116100Y0013993D02*
X0185900Y0013993D01*
X0185992Y0010796D02*
X0116008Y0010796D01*
X0111000Y0012394D02*
X0111000Y0012394D01*
X0111000Y0013993D02*
X0111000Y0013993D01*
X0111000Y0015591D02*
X0111000Y0015591D01*
X0111000Y0017190D02*
X0111000Y0017190D01*
X0196008Y0010796D02*
X0280992Y0010796D01*
X0310788Y0018788D02*
X0323200Y0018788D01*
X0331291Y0010796D02*
X0336000Y0010796D01*
X0336000Y0009197D02*
X0329692Y0009197D01*
X0101000Y0081000D02*
X0096000Y0086000D01*
X0096000Y0091000D01*
X0091400Y0090721D02*
X0090600Y0090721D01*
X0090600Y0089123D02*
X0091400Y0089123D01*
X0091400Y0087524D02*
X0090600Y0087524D01*
X0089954Y0085926D02*
X0092046Y0085926D01*
X0093713Y0084327D02*
X0088187Y0084327D01*
X0083813Y0084327D02*
X0078187Y0084327D01*
X0079954Y0085926D02*
X0082046Y0085926D01*
X0081400Y0087524D02*
X0080600Y0087524D01*
X0080600Y0089123D02*
X0081400Y0089123D01*
X0081400Y0090721D02*
X0080600Y0090721D01*
X0080600Y0092320D02*
X0080721Y0092320D01*
X0071400Y0092320D02*
X0070600Y0092320D01*
X0070600Y0093918D02*
X0071400Y0093918D01*
X0070600Y0094515D02*
X0069900Y0096206D01*
X0068606Y0097500D01*
X0066915Y0098200D01*
X0065085Y0098200D01*
X0063394Y0097500D01*
X0062100Y0096206D01*
X0061400Y0094515D01*
X0061400Y0087485D01*
X0062100Y0085794D01*
X0063394Y0084500D01*
X0065085Y0083800D01*
X0066915Y0083800D01*
X0068606Y0084500D01*
X0069900Y0085794D01*
X0070600Y0087485D01*
X0070600Y0094515D01*
X0070185Y0095517D02*
X0071815Y0095517D01*
X0073010Y0097115D02*
X0068990Y0097115D01*
X0063010Y0097115D02*
X0058990Y0097115D01*
X0060185Y0095517D02*
X0061815Y0095517D01*
X0061400Y0093918D02*
X0060600Y0093918D01*
X0060600Y0092320D02*
X0061400Y0092320D01*
X0061400Y0090721D02*
X0060600Y0090721D01*
X0060600Y0089123D02*
X0061400Y0089123D01*
X0061400Y0087524D02*
X0060600Y0087524D01*
X0059954Y0085926D02*
X0062046Y0085926D01*
X0063813Y0084327D02*
X0058187Y0084327D01*
X0068187Y0084327D02*
X0073813Y0084327D01*
X0072046Y0085926D02*
X0069954Y0085926D01*
X0070600Y0087524D02*
X0071400Y0087524D01*
X0071400Y0089123D02*
X0070600Y0089123D01*
X0070600Y0090721D02*
X0071400Y0090721D01*
X0051400Y0090721D02*
X0027549Y0090721D01*
X0029230Y0089123D02*
X0051400Y0089123D01*
X0051400Y0087524D02*
X0029988Y0087524D01*
X0077259Y0103509D02*
X0094741Y0103509D01*
X0092951Y0101911D02*
X0079049Y0101911D01*
X0080648Y0100312D02*
X0091352Y0100312D01*
X0089754Y0098714D02*
X0082246Y0098714D01*
X0091279Y0092320D02*
X0091400Y0092320D01*
M02*
