G75*
%MOIN*%
%OFA0B0*%
%FSLAX25Y25*%
%IPPOS*%
%LPD*%
%AMOC8*
5,1,8,0,0,1.08239X$1,22.5*
%
%ADD10OC8,0.05200*%
%ADD11OC8,0.10000*%
%ADD12C,0.01600*%
D10*
X0026800Y0018050D03*
X0036800Y0018050D03*
X0049300Y0013050D03*
X0061800Y0013050D03*
X0061800Y0053050D03*
X0049300Y0053050D03*
X0031800Y0053050D03*
X0021800Y0053050D03*
D11*
X0014300Y0040550D03*
X0014300Y0025550D03*
X0074300Y0025550D03*
X0074300Y0040550D03*
D12*
X0006600Y0009975D02*
X0006600Y0006600D01*
X0084451Y0006600D01*
X0084451Y0061961D01*
X0078720Y0061961D01*
X0078938Y0061871D01*
X0080621Y0060188D01*
X0081531Y0057990D01*
X0081531Y0055610D01*
X0080621Y0053412D01*
X0078938Y0051729D01*
X0076740Y0050819D01*
X0074360Y0050819D01*
X0072162Y0051729D01*
X0070479Y0053412D01*
X0069569Y0055610D01*
X0069569Y0057990D01*
X0070479Y0060188D01*
X0072162Y0061871D01*
X0072380Y0061961D01*
X0006600Y0061961D01*
X0006600Y0016125D01*
X0006729Y0016438D01*
X0008412Y0018121D01*
X0010610Y0019031D01*
X0011202Y0019031D01*
X0007500Y0022733D01*
X0007500Y0025450D01*
X0014200Y0025450D01*
X0014400Y0025450D01*
X0014400Y0025650D01*
X0021100Y0025650D01*
X0021100Y0028367D01*
X0017117Y0032350D01*
X0014400Y0032350D01*
X0014400Y0025650D01*
X0014200Y0025650D01*
X0014200Y0032350D01*
X0011483Y0032350D01*
X0007500Y0028367D01*
X0007500Y0025650D01*
X0014200Y0025650D01*
X0014200Y0025450D01*
X0014200Y0018750D01*
X0013668Y0018750D01*
X0015188Y0018121D01*
X0016871Y0016438D01*
X0017781Y0014240D01*
X0017781Y0011860D01*
X0016871Y0009662D01*
X0015188Y0007979D01*
X0012990Y0007069D01*
X0010610Y0007069D01*
X0008412Y0007979D01*
X0006729Y0009662D01*
X0006600Y0009975D01*
X0006600Y0008710D02*
X0007682Y0008710D01*
X0006600Y0007111D02*
X0010508Y0007111D01*
X0013092Y0007111D02*
X0084451Y0007111D01*
X0084451Y0008710D02*
X0063682Y0008710D01*
X0063623Y0008650D02*
X0066200Y0011227D01*
X0066200Y0013050D01*
X0066200Y0014873D01*
X0063623Y0017450D01*
X0061800Y0017450D01*
X0061800Y0013050D01*
X0061800Y0013050D01*
X0066200Y0013050D01*
X0061800Y0013050D01*
X0061800Y0013050D01*
X0061800Y0013050D01*
X0057400Y0013050D01*
X0057400Y0014873D01*
X0059977Y0017450D01*
X0061800Y0017450D01*
X0061800Y0013050D01*
X0061800Y0008650D01*
X0063623Y0008650D01*
X0061800Y0008650D02*
X0061800Y0013050D01*
X0061800Y0013050D01*
X0057400Y0013050D01*
X0057400Y0011227D01*
X0059977Y0008650D01*
X0061800Y0008650D01*
X0061800Y0008710D02*
X0061800Y0008710D01*
X0061800Y0010308D02*
X0061800Y0010308D01*
X0061800Y0011907D02*
X0061800Y0011907D01*
X0061800Y0013505D02*
X0061800Y0013505D01*
X0061800Y0015104D02*
X0061800Y0015104D01*
X0061800Y0016702D02*
X0061800Y0016702D01*
X0059230Y0016702D02*
X0051587Y0016702D01*
X0051040Y0017250D02*
X0047560Y0017250D01*
X0045100Y0014790D01*
X0045100Y0011310D01*
X0047560Y0008850D01*
X0051040Y0008850D01*
X0053500Y0011310D01*
X0053500Y0014790D01*
X0051040Y0017250D01*
X0053186Y0015104D02*
X0057631Y0015104D01*
X0057400Y0013505D02*
X0053500Y0013505D01*
X0053500Y0011907D02*
X0057400Y0011907D01*
X0058319Y0010308D02*
X0052498Y0010308D01*
X0046102Y0010308D02*
X0017138Y0010308D01*
X0017781Y0011907D02*
X0045100Y0011907D01*
X0045100Y0013505D02*
X0017781Y0013505D01*
X0017423Y0015104D02*
X0023524Y0015104D01*
X0022400Y0016227D02*
X0024977Y0013650D01*
X0026800Y0013650D01*
X0028623Y0013650D01*
X0031200Y0016227D01*
X0031200Y0018050D01*
X0031200Y0019873D01*
X0028623Y0022450D01*
X0026800Y0022450D01*
X0026800Y0018050D01*
X0031200Y0018050D01*
X0026800Y0018050D01*
X0026800Y0018050D01*
X0026800Y0018050D01*
X0026800Y0013650D01*
X0026800Y0018050D01*
X0026800Y0018050D01*
X0026800Y0018050D01*
X0022400Y0018050D01*
X0022400Y0019873D01*
X0024977Y0022450D01*
X0026800Y0022450D01*
X0026800Y0018050D01*
X0022400Y0018050D01*
X0022400Y0016227D01*
X0022400Y0016702D02*
X0016606Y0016702D01*
X0014753Y0018301D02*
X0022400Y0018301D01*
X0022427Y0019899D02*
X0018266Y0019899D01*
X0017117Y0018750D02*
X0021100Y0022733D01*
X0021100Y0025450D01*
X0014400Y0025450D01*
X0014400Y0018750D01*
X0017117Y0018750D01*
X0014400Y0019899D02*
X0014200Y0019899D01*
X0014200Y0021498D02*
X0014400Y0021498D01*
X0014400Y0023096D02*
X0014200Y0023096D01*
X0014200Y0024695D02*
X0014400Y0024695D01*
X0014400Y0026293D02*
X0014200Y0026293D01*
X0014200Y0027892D02*
X0014400Y0027892D01*
X0014400Y0029490D02*
X0014200Y0029490D01*
X0014200Y0031089D02*
X0014400Y0031089D01*
X0017034Y0033950D02*
X0011566Y0033950D01*
X0007700Y0037816D01*
X0007700Y0043284D01*
X0011566Y0047150D01*
X0017034Y0047150D01*
X0020900Y0043284D01*
X0020900Y0037816D01*
X0017034Y0033950D01*
X0017370Y0034286D02*
X0071230Y0034286D01*
X0071566Y0033950D02*
X0077034Y0033950D01*
X0080900Y0037816D01*
X0080900Y0043284D01*
X0077034Y0047150D01*
X0071566Y0047150D01*
X0067700Y0043284D01*
X0067700Y0037816D01*
X0071566Y0033950D01*
X0071483Y0032350D02*
X0067500Y0028367D01*
X0067500Y0025650D01*
X0074200Y0025650D01*
X0074200Y0032350D01*
X0071483Y0032350D01*
X0070222Y0031089D02*
X0018378Y0031089D01*
X0019976Y0029490D02*
X0068624Y0029490D01*
X0067500Y0027892D02*
X0021100Y0027892D01*
X0021100Y0026293D02*
X0067500Y0026293D01*
X0067500Y0025450D02*
X0067500Y0022733D01*
X0071483Y0018750D01*
X0074200Y0018750D01*
X0074200Y0025450D01*
X0074400Y0025450D01*
X0074400Y0025650D01*
X0081100Y0025650D01*
X0081100Y0028367D01*
X0077117Y0032350D01*
X0074400Y0032350D01*
X0074400Y0025650D01*
X0074200Y0025650D01*
X0074200Y0025450D01*
X0067500Y0025450D01*
X0067500Y0024695D02*
X0021100Y0024695D01*
X0021100Y0023096D02*
X0067500Y0023096D01*
X0068735Y0021498D02*
X0039292Y0021498D01*
X0038540Y0022250D02*
X0035060Y0022250D01*
X0032600Y0019790D01*
X0032600Y0016310D01*
X0035060Y0013850D01*
X0038540Y0013850D01*
X0041000Y0016310D01*
X0041000Y0019790D01*
X0038540Y0022250D01*
X0040890Y0019899D02*
X0070334Y0019899D01*
X0074200Y0019899D02*
X0074400Y0019899D01*
X0074400Y0018750D02*
X0077117Y0018750D01*
X0081100Y0022733D01*
X0081100Y0025450D01*
X0074400Y0025450D01*
X0074400Y0018750D01*
X0074400Y0021498D02*
X0074200Y0021498D01*
X0074200Y0023096D02*
X0074400Y0023096D01*
X0074400Y0024695D02*
X0074200Y0024695D01*
X0074200Y0026293D02*
X0074400Y0026293D01*
X0074400Y0027892D02*
X0074200Y0027892D01*
X0074200Y0029490D02*
X0074400Y0029490D01*
X0074400Y0031089D02*
X0074200Y0031089D01*
X0078378Y0031089D02*
X0084451Y0031089D01*
X0084451Y0029490D02*
X0079976Y0029490D01*
X0081100Y0027892D02*
X0084451Y0027892D01*
X0084451Y0026293D02*
X0081100Y0026293D01*
X0081100Y0024695D02*
X0084451Y0024695D01*
X0084451Y0023096D02*
X0081100Y0023096D01*
X0079865Y0021498D02*
X0084451Y0021498D01*
X0084451Y0019899D02*
X0078266Y0019899D01*
X0084451Y0018301D02*
X0041000Y0018301D01*
X0041000Y0016702D02*
X0047013Y0016702D01*
X0045414Y0015104D02*
X0039794Y0015104D01*
X0033806Y0015104D02*
X0030076Y0015104D01*
X0031200Y0016702D02*
X0032600Y0016702D01*
X0032600Y0018301D02*
X0031200Y0018301D01*
X0031173Y0019899D02*
X0032710Y0019899D01*
X0034308Y0021498D02*
X0029575Y0021498D01*
X0026800Y0021498D02*
X0026800Y0021498D01*
X0026800Y0019899D02*
X0026800Y0019899D01*
X0026800Y0018301D02*
X0026800Y0018301D01*
X0026800Y0016702D02*
X0026800Y0016702D01*
X0026800Y0015104D02*
X0026800Y0015104D01*
X0024025Y0021498D02*
X0019865Y0021498D01*
X0010334Y0019899D02*
X0006600Y0019899D01*
X0006600Y0021498D02*
X0008735Y0021498D01*
X0007500Y0023096D02*
X0006600Y0023096D01*
X0006600Y0024695D02*
X0007500Y0024695D01*
X0007500Y0026293D02*
X0006600Y0026293D01*
X0006600Y0027892D02*
X0007500Y0027892D01*
X0006600Y0029490D02*
X0008624Y0029490D01*
X0010222Y0031089D02*
X0006600Y0031089D01*
X0006600Y0032687D02*
X0084451Y0032687D01*
X0084451Y0034286D02*
X0077370Y0034286D01*
X0078968Y0035884D02*
X0084451Y0035884D01*
X0084451Y0037483D02*
X0080567Y0037483D01*
X0080900Y0039082D02*
X0084451Y0039082D01*
X0084451Y0040680D02*
X0080900Y0040680D01*
X0080900Y0042279D02*
X0084451Y0042279D01*
X0084451Y0043877D02*
X0080307Y0043877D01*
X0078708Y0045476D02*
X0084451Y0045476D01*
X0084451Y0047074D02*
X0077110Y0047074D01*
X0071490Y0047074D02*
X0017110Y0047074D01*
X0018708Y0045476D02*
X0069892Y0045476D01*
X0068293Y0043877D02*
X0020307Y0043877D01*
X0020900Y0042279D02*
X0067700Y0042279D01*
X0067700Y0040680D02*
X0020900Y0040680D01*
X0020900Y0039082D02*
X0067700Y0039082D01*
X0068033Y0037483D02*
X0020567Y0037483D01*
X0018968Y0035884D02*
X0069632Y0035884D01*
X0063540Y0048850D02*
X0060060Y0048850D01*
X0057600Y0051310D01*
X0057600Y0054790D01*
X0060060Y0057250D01*
X0063540Y0057250D01*
X0066000Y0054790D01*
X0066000Y0051310D01*
X0063540Y0048850D01*
X0064961Y0050271D02*
X0084451Y0050271D01*
X0084451Y0048673D02*
X0023645Y0048673D01*
X0023623Y0048650D02*
X0026200Y0051227D01*
X0026200Y0053050D01*
X0026200Y0054873D01*
X0023623Y0057450D01*
X0021800Y0057450D01*
X0021800Y0053050D01*
X0026200Y0053050D01*
X0021800Y0053050D01*
X0021800Y0053050D01*
X0021800Y0053050D01*
X0021800Y0048650D01*
X0023623Y0048650D01*
X0021800Y0048650D02*
X0021800Y0053050D01*
X0021800Y0053050D01*
X0021800Y0053050D01*
X0017400Y0053050D01*
X0017400Y0054873D01*
X0019977Y0057450D01*
X0021800Y0057450D01*
X0021800Y0053050D01*
X0017400Y0053050D01*
X0017400Y0051227D01*
X0019977Y0048650D01*
X0021800Y0048650D01*
X0021800Y0048673D02*
X0021800Y0048673D01*
X0021800Y0050271D02*
X0021800Y0050271D01*
X0019955Y0048673D02*
X0006600Y0048673D01*
X0006600Y0050271D02*
X0018356Y0050271D01*
X0017400Y0051870D02*
X0006600Y0051870D01*
X0006600Y0053468D02*
X0017400Y0053468D01*
X0017594Y0055067D02*
X0006600Y0055067D01*
X0006600Y0056665D02*
X0019193Y0056665D01*
X0021800Y0056665D02*
X0021800Y0056665D01*
X0021800Y0055067D02*
X0021800Y0055067D01*
X0021800Y0053468D02*
X0021800Y0053468D01*
X0021800Y0051870D02*
X0021800Y0051870D01*
X0025244Y0050271D02*
X0028639Y0050271D01*
X0027600Y0051310D02*
X0030060Y0048850D01*
X0033540Y0048850D01*
X0036000Y0051310D01*
X0036000Y0054790D01*
X0033540Y0057250D01*
X0030060Y0057250D01*
X0027600Y0054790D01*
X0027600Y0051310D01*
X0027600Y0051870D02*
X0026200Y0051870D01*
X0026200Y0053468D02*
X0027600Y0053468D01*
X0027877Y0055067D02*
X0026006Y0055067D01*
X0024407Y0056665D02*
X0029475Y0056665D01*
X0034125Y0056665D02*
X0046975Y0056665D01*
X0047560Y0057250D02*
X0045100Y0054790D01*
X0045100Y0051310D01*
X0047560Y0048850D01*
X0051040Y0048850D01*
X0053500Y0051310D01*
X0053500Y0054790D01*
X0051040Y0057250D01*
X0047560Y0057250D01*
X0045377Y0055067D02*
X0035723Y0055067D01*
X0036000Y0053468D02*
X0045100Y0053468D01*
X0045100Y0051870D02*
X0036000Y0051870D01*
X0034961Y0050271D02*
X0046139Y0050271D01*
X0052461Y0050271D02*
X0058639Y0050271D01*
X0057600Y0051870D02*
X0053500Y0051870D01*
X0053500Y0053468D02*
X0057600Y0053468D01*
X0057877Y0055067D02*
X0053223Y0055067D01*
X0051625Y0056665D02*
X0059475Y0056665D01*
X0064125Y0056665D02*
X0069569Y0056665D01*
X0069682Y0058264D02*
X0006600Y0058264D01*
X0006600Y0059862D02*
X0070345Y0059862D01*
X0071752Y0061461D02*
X0006600Y0061461D01*
X0006600Y0047074D02*
X0011490Y0047074D01*
X0009892Y0045476D02*
X0006600Y0045476D01*
X0006600Y0043877D02*
X0008293Y0043877D01*
X0007700Y0042279D02*
X0006600Y0042279D01*
X0006600Y0040680D02*
X0007700Y0040680D01*
X0007700Y0039082D02*
X0006600Y0039082D01*
X0006600Y0037483D02*
X0008033Y0037483D01*
X0006600Y0035884D02*
X0009632Y0035884D01*
X0011230Y0034286D02*
X0006600Y0034286D01*
X0006600Y0018301D02*
X0008847Y0018301D01*
X0006994Y0016702D02*
X0006600Y0016702D01*
X0015918Y0008710D02*
X0059918Y0008710D01*
X0065281Y0010308D02*
X0084451Y0010308D01*
X0084451Y0011907D02*
X0066200Y0011907D01*
X0066200Y0013505D02*
X0084451Y0013505D01*
X0084451Y0015104D02*
X0065969Y0015104D01*
X0064370Y0016702D02*
X0084451Y0016702D01*
X0084451Y0051870D02*
X0079078Y0051870D01*
X0080644Y0053468D02*
X0084451Y0053468D01*
X0084451Y0055067D02*
X0081306Y0055067D01*
X0081531Y0056665D02*
X0084451Y0056665D01*
X0084451Y0058264D02*
X0081418Y0058264D01*
X0080755Y0059862D02*
X0084451Y0059862D01*
X0084451Y0061461D02*
X0079348Y0061461D01*
X0069794Y0055067D02*
X0065723Y0055067D01*
X0066000Y0053468D02*
X0070456Y0053468D01*
X0072022Y0051870D02*
X0066000Y0051870D01*
M02*
