G75*
%MOIN*%
%OFA0B0*%
%FSLAX25Y25*%
%IPPOS*%
%LPD*%
%AMOC8*
5,1,8,0,0,1.08239X$1,22.5*
%
%ADD10C,0.00600*%
%ADD11C,0.01000*%
%ADD12C,0.00200*%
%ADD13C,0.00800*%
%ADD14C,0.01575*%
D10*
X0022300Y0014050D02*
X0022300Y0022050D01*
X0022302Y0022110D01*
X0022307Y0022171D01*
X0022316Y0022230D01*
X0022329Y0022289D01*
X0022345Y0022348D01*
X0022365Y0022405D01*
X0022388Y0022460D01*
X0022415Y0022515D01*
X0022444Y0022567D01*
X0022477Y0022618D01*
X0022513Y0022667D01*
X0022551Y0022713D01*
X0022593Y0022757D01*
X0022637Y0022799D01*
X0022683Y0022837D01*
X0022732Y0022873D01*
X0022783Y0022906D01*
X0022835Y0022935D01*
X0022890Y0022962D01*
X0022945Y0022985D01*
X0023002Y0023005D01*
X0023061Y0023021D01*
X0023120Y0023034D01*
X0023179Y0023043D01*
X0023240Y0023048D01*
X0023300Y0023050D01*
X0040300Y0023050D01*
X0040360Y0023048D01*
X0040421Y0023043D01*
X0040480Y0023034D01*
X0040539Y0023021D01*
X0040598Y0023005D01*
X0040655Y0022985D01*
X0040710Y0022962D01*
X0040765Y0022935D01*
X0040817Y0022906D01*
X0040868Y0022873D01*
X0040917Y0022837D01*
X0040963Y0022799D01*
X0041007Y0022757D01*
X0041049Y0022713D01*
X0041087Y0022667D01*
X0041123Y0022618D01*
X0041156Y0022567D01*
X0041185Y0022515D01*
X0041212Y0022460D01*
X0041235Y0022405D01*
X0041255Y0022348D01*
X0041271Y0022289D01*
X0041284Y0022230D01*
X0041293Y0022171D01*
X0041298Y0022110D01*
X0041300Y0022050D01*
X0041300Y0014050D01*
X0041298Y0013990D01*
X0041293Y0013929D01*
X0041284Y0013870D01*
X0041271Y0013811D01*
X0041255Y0013752D01*
X0041235Y0013695D01*
X0041212Y0013640D01*
X0041185Y0013585D01*
X0041156Y0013533D01*
X0041123Y0013482D01*
X0041087Y0013433D01*
X0041049Y0013387D01*
X0041007Y0013343D01*
X0040963Y0013301D01*
X0040917Y0013263D01*
X0040868Y0013227D01*
X0040817Y0013194D01*
X0040765Y0013165D01*
X0040710Y0013138D01*
X0040655Y0013115D01*
X0040598Y0013095D01*
X0040539Y0013079D01*
X0040480Y0013066D01*
X0040421Y0013057D01*
X0040360Y0013052D01*
X0040300Y0013050D01*
X0023300Y0013050D01*
X0023240Y0013052D01*
X0023179Y0013057D01*
X0023120Y0013066D01*
X0023061Y0013079D01*
X0023002Y0013095D01*
X0022945Y0013115D01*
X0022890Y0013138D01*
X0022835Y0013165D01*
X0022783Y0013194D01*
X0022732Y0013227D01*
X0022683Y0013263D01*
X0022637Y0013301D01*
X0022593Y0013343D01*
X0022551Y0013387D01*
X0022513Y0013433D01*
X0022477Y0013482D01*
X0022444Y0013533D01*
X0022415Y0013585D01*
X0022388Y0013640D01*
X0022365Y0013695D01*
X0022345Y0013752D01*
X0022329Y0013811D01*
X0022316Y0013870D01*
X0022307Y0013929D01*
X0022302Y0013990D01*
X0022300Y0014050D01*
X0030300Y0018050D02*
X0030800Y0018050D01*
X0032800Y0018050D02*
X0033300Y0018050D01*
X0043300Y0017050D02*
X0043300Y0019550D01*
X0043800Y0020050D01*
X0043800Y0046050D01*
X0043300Y0046550D01*
X0043300Y0049050D01*
X0043302Y0049110D01*
X0043307Y0049171D01*
X0043316Y0049230D01*
X0043329Y0049289D01*
X0043345Y0049348D01*
X0043365Y0049405D01*
X0043388Y0049460D01*
X0043415Y0049515D01*
X0043444Y0049567D01*
X0043477Y0049618D01*
X0043513Y0049667D01*
X0043551Y0049713D01*
X0043593Y0049757D01*
X0043637Y0049799D01*
X0043683Y0049837D01*
X0043732Y0049873D01*
X0043783Y0049906D01*
X0043835Y0049935D01*
X0043890Y0049962D01*
X0043945Y0049985D01*
X0044002Y0050005D01*
X0044061Y0050021D01*
X0044120Y0050034D01*
X0044179Y0050043D01*
X0044240Y0050048D01*
X0044300Y0050050D01*
X0036300Y0049050D02*
X0036300Y0057050D01*
X0036298Y0057110D01*
X0036293Y0057171D01*
X0036284Y0057230D01*
X0036271Y0057289D01*
X0036255Y0057348D01*
X0036235Y0057405D01*
X0036212Y0057460D01*
X0036185Y0057515D01*
X0036156Y0057567D01*
X0036123Y0057618D01*
X0036087Y0057667D01*
X0036049Y0057713D01*
X0036007Y0057757D01*
X0035963Y0057799D01*
X0035917Y0057837D01*
X0035868Y0057873D01*
X0035817Y0057906D01*
X0035765Y0057935D01*
X0035710Y0057962D01*
X0035655Y0057985D01*
X0035598Y0058005D01*
X0035539Y0058021D01*
X0035480Y0058034D01*
X0035421Y0058043D01*
X0035360Y0058048D01*
X0035300Y0058050D01*
X0018300Y0058050D01*
X0018240Y0058048D01*
X0018179Y0058043D01*
X0018120Y0058034D01*
X0018061Y0058021D01*
X0018002Y0058005D01*
X0017945Y0057985D01*
X0017890Y0057962D01*
X0017835Y0057935D01*
X0017783Y0057906D01*
X0017732Y0057873D01*
X0017683Y0057837D01*
X0017637Y0057799D01*
X0017593Y0057757D01*
X0017551Y0057713D01*
X0017513Y0057667D01*
X0017477Y0057618D01*
X0017444Y0057567D01*
X0017415Y0057515D01*
X0017388Y0057460D01*
X0017365Y0057405D01*
X0017345Y0057348D01*
X0017329Y0057289D01*
X0017316Y0057230D01*
X0017307Y0057171D01*
X0017302Y0057110D01*
X0017300Y0057050D01*
X0017300Y0049050D01*
X0017302Y0048990D01*
X0017307Y0048929D01*
X0017316Y0048870D01*
X0017329Y0048811D01*
X0017345Y0048752D01*
X0017365Y0048695D01*
X0017388Y0048640D01*
X0017415Y0048585D01*
X0017444Y0048533D01*
X0017477Y0048482D01*
X0017513Y0048433D01*
X0017551Y0048387D01*
X0017593Y0048343D01*
X0017637Y0048301D01*
X0017683Y0048263D01*
X0017732Y0048227D01*
X0017783Y0048194D01*
X0017835Y0048165D01*
X0017890Y0048138D01*
X0017945Y0048115D01*
X0018002Y0048095D01*
X0018061Y0048079D01*
X0018120Y0048066D01*
X0018179Y0048057D01*
X0018240Y0048052D01*
X0018300Y0048050D01*
X0035300Y0048050D01*
X0035360Y0048052D01*
X0035421Y0048057D01*
X0035480Y0048066D01*
X0035539Y0048079D01*
X0035598Y0048095D01*
X0035655Y0048115D01*
X0035710Y0048138D01*
X0035765Y0048165D01*
X0035817Y0048194D01*
X0035868Y0048227D01*
X0035917Y0048263D01*
X0035963Y0048301D01*
X0036007Y0048343D01*
X0036049Y0048387D01*
X0036087Y0048433D01*
X0036123Y0048482D01*
X0036156Y0048533D01*
X0036185Y0048585D01*
X0036212Y0048640D01*
X0036235Y0048695D01*
X0036255Y0048752D01*
X0036271Y0048811D01*
X0036284Y0048870D01*
X0036293Y0048929D01*
X0036298Y0048990D01*
X0036300Y0049050D01*
X0028300Y0053050D02*
X0027800Y0053050D01*
X0025800Y0053050D02*
X0025300Y0053050D01*
X0019300Y0045550D02*
X0017300Y0045550D01*
X0019300Y0045550D02*
X0019300Y0043550D01*
X0019300Y0037550D02*
X0019300Y0035550D01*
X0017300Y0035550D01*
X0011300Y0035550D02*
X0009300Y0035550D01*
X0009300Y0037550D01*
X0009300Y0043550D02*
X0009300Y0045550D01*
X0011300Y0045550D01*
X0011300Y0030550D02*
X0009300Y0030550D01*
X0009300Y0028550D01*
X0017300Y0030550D02*
X0019300Y0030550D01*
X0019300Y0028550D01*
X0019300Y0022550D02*
X0019300Y0020550D01*
X0017300Y0020550D01*
X0011300Y0020550D02*
X0009300Y0020550D01*
X0009300Y0022550D01*
X0043300Y0017050D02*
X0043302Y0016990D01*
X0043307Y0016929D01*
X0043316Y0016870D01*
X0043329Y0016811D01*
X0043345Y0016752D01*
X0043365Y0016695D01*
X0043388Y0016640D01*
X0043415Y0016585D01*
X0043444Y0016533D01*
X0043477Y0016482D01*
X0043513Y0016433D01*
X0043551Y0016387D01*
X0043593Y0016343D01*
X0043637Y0016301D01*
X0043683Y0016263D01*
X0043732Y0016227D01*
X0043783Y0016194D01*
X0043835Y0016165D01*
X0043890Y0016138D01*
X0043945Y0016115D01*
X0044002Y0016095D01*
X0044061Y0016079D01*
X0044120Y0016066D01*
X0044179Y0016057D01*
X0044240Y0016052D01*
X0044300Y0016050D01*
X0054300Y0016050D02*
X0054360Y0016052D01*
X0054421Y0016057D01*
X0054480Y0016066D01*
X0054539Y0016079D01*
X0054598Y0016095D01*
X0054655Y0016115D01*
X0054710Y0016138D01*
X0054765Y0016165D01*
X0054817Y0016194D01*
X0054868Y0016227D01*
X0054917Y0016263D01*
X0054963Y0016301D01*
X0055007Y0016343D01*
X0055049Y0016387D01*
X0055087Y0016433D01*
X0055123Y0016482D01*
X0055156Y0016533D01*
X0055185Y0016585D01*
X0055212Y0016640D01*
X0055235Y0016695D01*
X0055255Y0016752D01*
X0055271Y0016811D01*
X0055284Y0016870D01*
X0055293Y0016929D01*
X0055298Y0016990D01*
X0055300Y0017050D01*
X0055300Y0019550D01*
X0054800Y0020050D01*
X0054800Y0046050D01*
X0055300Y0046550D01*
X0055300Y0049050D01*
X0055800Y0049050D02*
X0055800Y0046550D01*
X0056300Y0046050D01*
X0056300Y0020050D01*
X0055800Y0019550D01*
X0055800Y0017050D01*
X0055802Y0016990D01*
X0055807Y0016929D01*
X0055816Y0016870D01*
X0055829Y0016811D01*
X0055845Y0016752D01*
X0055865Y0016695D01*
X0055888Y0016640D01*
X0055915Y0016585D01*
X0055944Y0016533D01*
X0055977Y0016482D01*
X0056013Y0016433D01*
X0056051Y0016387D01*
X0056093Y0016343D01*
X0056137Y0016301D01*
X0056183Y0016263D01*
X0056232Y0016227D01*
X0056283Y0016194D01*
X0056335Y0016165D01*
X0056390Y0016138D01*
X0056445Y0016115D01*
X0056502Y0016095D01*
X0056561Y0016079D01*
X0056620Y0016066D01*
X0056679Y0016057D01*
X0056740Y0016052D01*
X0056800Y0016050D01*
X0066800Y0016050D02*
X0066860Y0016052D01*
X0066921Y0016057D01*
X0066980Y0016066D01*
X0067039Y0016079D01*
X0067098Y0016095D01*
X0067155Y0016115D01*
X0067210Y0016138D01*
X0067265Y0016165D01*
X0067317Y0016194D01*
X0067368Y0016227D01*
X0067417Y0016263D01*
X0067463Y0016301D01*
X0067507Y0016343D01*
X0067549Y0016387D01*
X0067587Y0016433D01*
X0067623Y0016482D01*
X0067656Y0016533D01*
X0067685Y0016585D01*
X0067712Y0016640D01*
X0067735Y0016695D01*
X0067755Y0016752D01*
X0067771Y0016811D01*
X0067784Y0016870D01*
X0067793Y0016929D01*
X0067798Y0016990D01*
X0067800Y0017050D01*
X0067800Y0019550D01*
X0067300Y0020050D01*
X0067300Y0046050D01*
X0067800Y0046550D01*
X0067800Y0049050D01*
X0067798Y0049110D01*
X0067793Y0049171D01*
X0067784Y0049230D01*
X0067771Y0049289D01*
X0067755Y0049348D01*
X0067735Y0049405D01*
X0067712Y0049460D01*
X0067685Y0049515D01*
X0067656Y0049567D01*
X0067623Y0049618D01*
X0067587Y0049667D01*
X0067549Y0049713D01*
X0067507Y0049757D01*
X0067463Y0049799D01*
X0067417Y0049837D01*
X0067368Y0049873D01*
X0067317Y0049906D01*
X0067265Y0049935D01*
X0067210Y0049962D01*
X0067155Y0049985D01*
X0067098Y0050005D01*
X0067039Y0050021D01*
X0066980Y0050034D01*
X0066921Y0050043D01*
X0066860Y0050048D01*
X0066800Y0050050D01*
X0069300Y0045550D02*
X0069300Y0043550D01*
X0069300Y0045550D02*
X0071300Y0045550D01*
X0077300Y0045550D02*
X0079300Y0045550D01*
X0079300Y0043550D01*
X0079300Y0037550D02*
X0079300Y0035550D01*
X0077300Y0035550D01*
X0071300Y0035550D02*
X0069300Y0035550D01*
X0069300Y0037550D01*
X0069300Y0030550D02*
X0069300Y0028550D01*
X0069300Y0030550D02*
X0071300Y0030550D01*
X0077300Y0030550D02*
X0079300Y0030550D01*
X0079300Y0028550D01*
X0079300Y0022550D02*
X0079300Y0020550D01*
X0077300Y0020550D01*
X0071300Y0020550D02*
X0069300Y0020550D01*
X0069300Y0022550D01*
X0055800Y0049050D02*
X0055802Y0049110D01*
X0055807Y0049171D01*
X0055816Y0049230D01*
X0055829Y0049289D01*
X0055845Y0049348D01*
X0055865Y0049405D01*
X0055888Y0049460D01*
X0055915Y0049515D01*
X0055944Y0049567D01*
X0055977Y0049618D01*
X0056013Y0049667D01*
X0056051Y0049713D01*
X0056093Y0049757D01*
X0056137Y0049799D01*
X0056183Y0049837D01*
X0056232Y0049873D01*
X0056283Y0049906D01*
X0056335Y0049935D01*
X0056390Y0049962D01*
X0056445Y0049985D01*
X0056502Y0050005D01*
X0056561Y0050021D01*
X0056620Y0050034D01*
X0056679Y0050043D01*
X0056740Y0050048D01*
X0056800Y0050050D01*
X0055300Y0049050D02*
X0055298Y0049110D01*
X0055293Y0049171D01*
X0055284Y0049230D01*
X0055271Y0049289D01*
X0055255Y0049348D01*
X0055235Y0049405D01*
X0055212Y0049460D01*
X0055185Y0049515D01*
X0055156Y0049567D01*
X0055123Y0049618D01*
X0055087Y0049667D01*
X0055049Y0049713D01*
X0055007Y0049757D01*
X0054963Y0049799D01*
X0054917Y0049837D01*
X0054868Y0049873D01*
X0054817Y0049906D01*
X0054765Y0049935D01*
X0054710Y0049962D01*
X0054655Y0049985D01*
X0054598Y0050005D01*
X0054539Y0050021D01*
X0054480Y0050034D01*
X0054421Y0050043D01*
X0054360Y0050048D01*
X0054300Y0050050D01*
D11*
X0027800Y0050050D02*
X0027800Y0053050D01*
X0027800Y0056050D01*
X0025800Y0056050D02*
X0025800Y0053050D01*
X0025800Y0050050D01*
X0030800Y0021050D02*
X0030800Y0018050D01*
X0030800Y0015050D01*
X0032800Y0015050D02*
X0032800Y0018050D01*
X0032800Y0021050D01*
D12*
X0018160Y0013538D02*
X0017800Y0013898D01*
X0017800Y0015341D01*
X0018160Y0015702D01*
X0018882Y0015702D01*
X0019243Y0015341D01*
X0019975Y0015341D02*
X0020336Y0015702D01*
X0021057Y0015702D01*
X0021418Y0015341D01*
X0021418Y0014980D01*
X0019975Y0013538D01*
X0021418Y0013538D01*
X0019243Y0013898D02*
X0018882Y0013538D01*
X0018160Y0013538D01*
X0008200Y0022129D02*
X0007971Y0021900D01*
X0007053Y0021900D01*
X0006824Y0022129D01*
X0006824Y0022588D01*
X0007053Y0022817D01*
X0007512Y0022817D02*
X0007512Y0022359D01*
X0007512Y0022817D02*
X0007971Y0022817D01*
X0008200Y0022588D01*
X0008200Y0022129D01*
X0008200Y0023350D02*
X0006824Y0023350D01*
X0008200Y0024267D01*
X0006824Y0024267D01*
X0006824Y0024800D02*
X0006824Y0025488D01*
X0007053Y0025717D01*
X0007971Y0025717D01*
X0008200Y0025488D01*
X0008200Y0024800D01*
X0006824Y0024800D01*
X0008429Y0026250D02*
X0008429Y0027167D01*
X0008200Y0027700D02*
X0008200Y0028159D01*
X0008200Y0027930D02*
X0006824Y0027930D01*
X0006824Y0028159D02*
X0006824Y0027700D01*
X0006824Y0028667D02*
X0008200Y0029584D01*
X0006824Y0029584D01*
X0006824Y0028667D02*
X0008200Y0028667D01*
X0007741Y0036900D02*
X0006824Y0036900D01*
X0006824Y0037817D02*
X0007741Y0037817D01*
X0008200Y0037359D01*
X0007741Y0036900D01*
X0007971Y0038350D02*
X0007053Y0038350D01*
X0006824Y0038579D01*
X0006824Y0039038D01*
X0007053Y0039267D01*
X0007053Y0039800D02*
X0007971Y0039800D01*
X0008200Y0040029D01*
X0008200Y0040488D01*
X0007971Y0040717D01*
X0008429Y0041250D02*
X0008429Y0042167D01*
X0008200Y0042700D02*
X0008200Y0043159D01*
X0008200Y0042930D02*
X0006824Y0042930D01*
X0006824Y0043159D02*
X0006824Y0042700D01*
X0006824Y0043667D02*
X0008200Y0044584D01*
X0006824Y0044584D01*
X0006824Y0043667D02*
X0008200Y0043667D01*
X0007053Y0040717D02*
X0006824Y0040488D01*
X0006824Y0040029D01*
X0007053Y0039800D01*
X0007971Y0039267D02*
X0008200Y0039038D01*
X0008200Y0038579D01*
X0007971Y0038350D01*
X0011910Y0054788D02*
X0011550Y0055148D01*
X0011550Y0056591D01*
X0011910Y0056952D01*
X0012632Y0056952D01*
X0012993Y0056591D01*
X0013725Y0056230D02*
X0014446Y0056952D01*
X0014446Y0054788D01*
X0013725Y0054788D02*
X0015168Y0054788D01*
X0012993Y0055148D02*
X0012632Y0054788D01*
X0011910Y0054788D01*
X0038999Y0036575D02*
X0041163Y0036575D01*
X0041163Y0035854D02*
X0041163Y0037297D01*
X0039720Y0035854D02*
X0038999Y0036575D01*
X0039359Y0035121D02*
X0038999Y0034761D01*
X0038999Y0034039D01*
X0039359Y0033679D01*
X0040802Y0033679D01*
X0041163Y0034039D01*
X0041163Y0034761D01*
X0040802Y0035121D01*
X0041163Y0032950D02*
X0041163Y0032229D01*
X0041163Y0032589D02*
X0038999Y0032589D01*
X0038999Y0032229D02*
X0038999Y0032950D01*
X0054897Y0011518D02*
X0054536Y0011157D01*
X0054536Y0010436D01*
X0054897Y0010075D01*
X0054897Y0009343D02*
X0055618Y0009343D01*
X0055979Y0008982D01*
X0055979Y0007900D01*
X0056700Y0007900D02*
X0054536Y0007900D01*
X0054536Y0008982D01*
X0054897Y0009343D01*
X0055979Y0008621D02*
X0056700Y0009343D01*
X0056700Y0010075D02*
X0055257Y0011518D01*
X0054897Y0011518D01*
X0056700Y0011518D02*
X0056700Y0010075D01*
X0066898Y0010696D02*
X0069062Y0010696D01*
X0069062Y0009975D02*
X0069062Y0011418D01*
X0067620Y0009975D02*
X0066898Y0010696D01*
X0067259Y0009243D02*
X0067980Y0009243D01*
X0068341Y0008882D01*
X0068341Y0007800D01*
X0068341Y0008521D02*
X0069062Y0009243D01*
X0069062Y0007800D02*
X0066898Y0007800D01*
X0066898Y0008882D01*
X0067259Y0009243D01*
X0081824Y0020879D02*
X0082053Y0020650D01*
X0082971Y0020650D01*
X0083200Y0020879D01*
X0083200Y0021338D01*
X0082971Y0021567D01*
X0082512Y0021567D01*
X0082512Y0021109D01*
X0082053Y0021567D02*
X0081824Y0021338D01*
X0081824Y0020879D01*
X0081824Y0022100D02*
X0083200Y0023017D01*
X0081824Y0023017D01*
X0081824Y0023550D02*
X0081824Y0024238D01*
X0082053Y0024467D01*
X0082971Y0024467D01*
X0083200Y0024238D01*
X0083200Y0023550D01*
X0081824Y0023550D01*
X0081824Y0022100D02*
X0083200Y0022100D01*
X0083429Y0025000D02*
X0083429Y0025917D01*
X0082971Y0026450D02*
X0082053Y0026450D01*
X0081824Y0026680D01*
X0081824Y0027138D01*
X0082053Y0027368D01*
X0082971Y0027368D01*
X0083200Y0027138D01*
X0083200Y0026680D01*
X0082971Y0026450D01*
X0082971Y0027900D02*
X0081824Y0027900D01*
X0081824Y0028818D02*
X0082971Y0028818D01*
X0083200Y0028588D01*
X0083200Y0028130D01*
X0082971Y0027900D01*
X0081824Y0029350D02*
X0081824Y0030268D01*
X0081824Y0029809D02*
X0083200Y0029809D01*
X0082741Y0038150D02*
X0081824Y0038150D01*
X0082741Y0038150D02*
X0083200Y0038609D01*
X0082741Y0039067D01*
X0081824Y0039067D01*
X0082053Y0039600D02*
X0081824Y0039829D01*
X0081824Y0040288D01*
X0082053Y0040517D01*
X0082971Y0040517D01*
X0083200Y0040288D01*
X0083200Y0039829D01*
X0082971Y0039600D01*
X0082053Y0039600D01*
X0081824Y0041050D02*
X0082971Y0041050D01*
X0083200Y0041279D01*
X0083200Y0041738D01*
X0082971Y0041967D01*
X0081824Y0041967D01*
X0081824Y0042500D02*
X0081824Y0043417D01*
X0081824Y0042959D02*
X0083200Y0042959D01*
D13*
X0037706Y0041456D02*
X0037706Y0029644D01*
X0025894Y0029644D02*
X0025894Y0041456D01*
D14*
X0027272Y0031022D03*
M02*
