G75*
%MOIN*%
%OFA0B0*%
%FSLAX25Y25*%
%IPPOS*%
%LPD*%
%AMOC8*
5,1,8,0,0,1.08239X$1,22.5*
%
%ADD10OC8,0.05200*%
%ADD11C,0.05200*%
%ADD12OC8,0.06300*%
%ADD13C,0.05200*%
%ADD14C,0.06000*%
%ADD15OC8,0.06000*%
%ADD16C,0.07800*%
%ADD17C,0.07874*%
%ADD18C,0.07600*%
%ADD19C,0.01600*%
D10*
X0116800Y0085550D03*
X0148050Y0069050D03*
X0138925Y0056175D03*
X0116800Y0115550D03*
X0130300Y0129925D03*
X0130300Y0151175D03*
X0233050Y0140550D03*
X0233050Y0120550D03*
X0263050Y0120550D03*
X0263050Y0140550D03*
X0264300Y0160550D03*
X0234300Y0160550D03*
X0234300Y0180550D03*
X0264300Y0180550D03*
X0264300Y0095550D03*
X0264300Y0075550D03*
X0234300Y0075550D03*
X0234300Y0095550D03*
X0234300Y0055550D03*
X0234300Y0035550D03*
X0264300Y0035550D03*
X0264300Y0055550D03*
D11*
X0148050Y0077050D03*
X0130925Y0056175D03*
X0138300Y0129925D03*
X0138300Y0151175D03*
D12*
X0116800Y0156175D03*
X0116800Y0136175D03*
X0186175Y0140550D03*
X0206175Y0140550D03*
X0221800Y0140550D03*
X0221800Y0120550D03*
X0206175Y0120550D03*
X0186175Y0120550D03*
X0185550Y0095550D03*
X0205550Y0095550D03*
X0220550Y0095550D03*
X0220550Y0075550D03*
X0205550Y0075550D03*
X0185550Y0075550D03*
X0185550Y0055550D03*
X0205550Y0055550D03*
X0221175Y0055550D03*
X0221175Y0035550D03*
X0205550Y0035550D03*
X0185550Y0035550D03*
X0149300Y0036175D03*
X0129300Y0036175D03*
X0128050Y0074300D03*
X0108050Y0074300D03*
X0185550Y0160550D03*
X0205550Y0160550D03*
X0220550Y0160550D03*
X0220550Y0180550D03*
X0205550Y0180550D03*
X0185550Y0180550D03*
D13*
X0106175Y0121275D02*
X0106175Y0116075D01*
X0096175Y0116075D02*
X0096175Y0121275D01*
X0086175Y0121275D02*
X0086175Y0116075D01*
X0076175Y0116075D02*
X0076175Y0121275D01*
X0066175Y0121275D02*
X0066175Y0116075D01*
X0056175Y0116075D02*
X0056175Y0121275D01*
X0046175Y0121275D02*
X0046175Y0116075D01*
X0046175Y0091275D02*
X0046175Y0086075D01*
X0056175Y0086075D02*
X0056175Y0091275D01*
X0066175Y0091275D02*
X0066175Y0086075D01*
X0076175Y0086075D02*
X0076175Y0091275D01*
X0086175Y0091275D02*
X0086175Y0086075D01*
X0096175Y0086075D02*
X0096175Y0091275D01*
X0106175Y0091275D02*
X0106175Y0086075D01*
D14*
X0113175Y0056175D02*
X0119175Y0056175D01*
X0119175Y0046175D02*
X0113175Y0046175D01*
X0113175Y0036175D02*
X0119175Y0036175D01*
D15*
X0026800Y0078050D03*
X0016800Y0078050D03*
X0016800Y0088050D03*
X0026800Y0088050D03*
X0026800Y0098050D03*
X0016800Y0098050D03*
X0016800Y0108050D03*
X0026800Y0108050D03*
X0026800Y0118050D03*
X0016800Y0118050D03*
X0016800Y0128050D03*
X0026800Y0128050D03*
D16*
X0292900Y0120325D02*
X0300700Y0120325D01*
X0300700Y0140125D02*
X0292900Y0140125D01*
X0292900Y0159725D02*
X0300700Y0159725D01*
X0300700Y0179525D02*
X0292900Y0179525D01*
X0292900Y0095775D02*
X0300700Y0095775D01*
X0300700Y0075975D02*
X0292900Y0075975D01*
X0292900Y0056375D02*
X0300700Y0056375D01*
X0300700Y0036575D02*
X0292900Y0036575D01*
D17*
X0040112Y0158345D02*
X0032238Y0158345D01*
X0017277Y0166613D02*
X0017277Y0174487D01*
X0032238Y0182361D02*
X0040112Y0182361D01*
D18*
X0061800Y0198050D03*
X0061800Y0158050D03*
D19*
X0007225Y0206961D02*
X0007225Y0007234D01*
X0314451Y0007841D01*
X0314451Y0206961D01*
X0007225Y0206961D01*
X0007225Y0206275D02*
X0314451Y0206275D01*
X0314451Y0204676D02*
X0007225Y0204676D01*
X0007225Y0203078D02*
X0059827Y0203078D01*
X0060726Y0203450D02*
X0058741Y0202628D01*
X0057222Y0201109D01*
X0056400Y0199124D01*
X0056400Y0196976D01*
X0057222Y0194991D01*
X0058741Y0193472D01*
X0060726Y0192650D01*
X0062874Y0192650D01*
X0064859Y0193472D01*
X0066378Y0194991D01*
X0067200Y0196976D01*
X0067200Y0199124D01*
X0066378Y0201109D01*
X0064859Y0202628D01*
X0062874Y0203450D01*
X0060726Y0203450D01*
X0063773Y0203078D02*
X0284199Y0203078D01*
X0284618Y0203497D02*
X0282603Y0201482D01*
X0281513Y0198850D01*
X0281513Y0196000D01*
X0282603Y0193368D01*
X0284618Y0191353D01*
X0287250Y0190263D01*
X0290100Y0190263D01*
X0292732Y0191353D01*
X0294747Y0193368D01*
X0295837Y0196000D01*
X0295837Y0198850D01*
X0294747Y0201482D01*
X0292732Y0203497D01*
X0290100Y0204587D01*
X0287250Y0204587D01*
X0284618Y0203497D01*
X0282602Y0201479D02*
X0066008Y0201479D01*
X0066887Y0199881D02*
X0281940Y0199881D01*
X0281513Y0198282D02*
X0067200Y0198282D01*
X0067079Y0196684D02*
X0281513Y0196684D01*
X0281892Y0195085D02*
X0066417Y0195085D01*
X0064873Y0193487D02*
X0282554Y0193487D01*
X0284083Y0191888D02*
X0169341Y0191888D01*
X0168982Y0192247D02*
X0166350Y0193337D01*
X0163500Y0193337D01*
X0160868Y0192247D01*
X0158853Y0190232D01*
X0157763Y0187600D01*
X0157763Y0184750D01*
X0158853Y0182118D01*
X0160868Y0180103D01*
X0163500Y0179013D01*
X0166350Y0179013D01*
X0168982Y0180103D01*
X0170997Y0182118D01*
X0172087Y0184750D01*
X0172087Y0187600D01*
X0170997Y0190232D01*
X0168982Y0192247D01*
X0170939Y0190289D02*
X0287186Y0190289D01*
X0290164Y0190289D02*
X0314451Y0190289D01*
X0314451Y0188691D02*
X0171635Y0188691D01*
X0172087Y0187092D02*
X0314451Y0187092D01*
X0314451Y0185494D02*
X0187606Y0185494D01*
X0187600Y0185500D02*
X0185550Y0185500D01*
X0185550Y0180550D01*
X0190500Y0180550D01*
X0190500Y0182600D01*
X0187600Y0185500D01*
X0185550Y0185494D02*
X0185550Y0185494D01*
X0185550Y0185500D02*
X0183500Y0185500D01*
X0180600Y0182600D01*
X0180600Y0180550D01*
X0185550Y0180550D01*
X0185550Y0180550D01*
X0185550Y0180550D01*
X0190500Y0180550D01*
X0190500Y0178500D01*
X0187600Y0175600D01*
X0185550Y0175600D01*
X0185550Y0180550D01*
X0185550Y0180550D01*
X0185550Y0180550D01*
X0185550Y0185500D01*
X0185550Y0183895D02*
X0185550Y0183895D01*
X0185550Y0182297D02*
X0185550Y0182297D01*
X0185550Y0180698D02*
X0185550Y0180698D01*
X0185550Y0180550D02*
X0180600Y0180550D01*
X0180600Y0178500D01*
X0183500Y0175600D01*
X0185550Y0175600D01*
X0185550Y0180550D01*
X0185550Y0179100D02*
X0185550Y0179100D01*
X0185550Y0177501D02*
X0185550Y0177501D01*
X0185550Y0175903D02*
X0185550Y0175903D01*
X0187903Y0175903D02*
X0203480Y0175903D01*
X0203582Y0175800D02*
X0207518Y0175800D01*
X0210300Y0178582D01*
X0210300Y0182518D01*
X0207518Y0185300D01*
X0203582Y0185300D01*
X0200800Y0182518D01*
X0200800Y0178582D01*
X0203582Y0175800D01*
X0201881Y0177501D02*
X0189502Y0177501D01*
X0190500Y0179100D02*
X0200800Y0179100D01*
X0200800Y0180698D02*
X0190500Y0180698D01*
X0190500Y0182297D02*
X0200800Y0182297D01*
X0202178Y0183895D02*
X0189205Y0183895D01*
X0183494Y0185494D02*
X0172087Y0185494D01*
X0171733Y0183895D02*
X0181895Y0183895D01*
X0180600Y0182297D02*
X0171071Y0182297D01*
X0169577Y0180698D02*
X0180600Y0180698D01*
X0180600Y0179100D02*
X0166560Y0179100D01*
X0163290Y0179100D02*
X0044681Y0179100D01*
X0044806Y0179225D02*
X0045649Y0181260D01*
X0045649Y0183462D01*
X0044806Y0185497D01*
X0043248Y0187055D01*
X0041213Y0187898D01*
X0031137Y0187898D01*
X0029102Y0187055D01*
X0027544Y0185497D01*
X0026701Y0183462D01*
X0026701Y0181260D01*
X0027544Y0179225D01*
X0029102Y0177667D01*
X0031137Y0176824D01*
X0041213Y0176824D01*
X0043248Y0177667D01*
X0044806Y0179225D01*
X0045417Y0180698D02*
X0160273Y0180698D01*
X0158779Y0182297D02*
X0045649Y0182297D01*
X0045470Y0183895D02*
X0158117Y0183895D01*
X0157763Y0185494D02*
X0044808Y0185494D01*
X0043158Y0187092D02*
X0157763Y0187092D01*
X0158215Y0188691D02*
X0007225Y0188691D01*
X0007225Y0190289D02*
X0158911Y0190289D01*
X0160509Y0191888D02*
X0007225Y0191888D01*
X0007225Y0193487D02*
X0058727Y0193487D01*
X0057183Y0195085D02*
X0007225Y0195085D01*
X0007225Y0196684D02*
X0056521Y0196684D01*
X0056400Y0198282D02*
X0007225Y0198282D01*
X0007225Y0199881D02*
X0056713Y0199881D01*
X0057592Y0201479D02*
X0007225Y0201479D01*
X0007225Y0187092D02*
X0029192Y0187092D01*
X0027542Y0185494D02*
X0007225Y0185494D01*
X0007225Y0183895D02*
X0026880Y0183895D01*
X0026701Y0182297D02*
X0007225Y0182297D01*
X0007225Y0180698D02*
X0026933Y0180698D01*
X0027669Y0179100D02*
X0020495Y0179100D01*
X0020414Y0179181D02*
X0018379Y0180024D01*
X0016176Y0180024D01*
X0014141Y0179181D01*
X0012583Y0177623D01*
X0011740Y0175588D01*
X0011740Y0165512D01*
X0012583Y0163477D01*
X0014141Y0161919D01*
X0016176Y0161076D01*
X0018379Y0161076D01*
X0020414Y0161919D01*
X0021971Y0163477D01*
X0022814Y0165512D01*
X0022814Y0175588D01*
X0021971Y0177623D01*
X0020414Y0179181D01*
X0022022Y0177501D02*
X0029501Y0177501D01*
X0022684Y0175903D02*
X0183197Y0175903D01*
X0181598Y0177501D02*
X0042849Y0177501D01*
X0041213Y0163882D02*
X0031137Y0163882D01*
X0029102Y0163039D01*
X0027544Y0161482D01*
X0026701Y0159447D01*
X0026701Y0157244D01*
X0027544Y0155209D01*
X0029102Y0153651D01*
X0031137Y0152808D01*
X0041213Y0152808D01*
X0043248Y0153651D01*
X0044806Y0155209D01*
X0045649Y0157244D01*
X0045649Y0159447D01*
X0044806Y0161482D01*
X0043248Y0163039D01*
X0041213Y0163882D01*
X0043066Y0163115D02*
X0059917Y0163115D01*
X0060726Y0163450D02*
X0058741Y0162628D01*
X0057222Y0161109D01*
X0056400Y0159124D01*
X0056400Y0156976D01*
X0057222Y0154991D01*
X0058741Y0153472D01*
X0060726Y0152650D01*
X0062874Y0152650D01*
X0064859Y0153472D01*
X0066378Y0154991D01*
X0067200Y0156976D01*
X0067200Y0159124D01*
X0066378Y0161109D01*
X0064859Y0162628D01*
X0062874Y0163450D01*
X0060726Y0163450D01*
X0063683Y0163115D02*
X0181114Y0163115D01*
X0180600Y0162600D02*
X0180600Y0160550D01*
X0185550Y0160550D01*
X0190500Y0160550D01*
X0190500Y0162600D01*
X0187600Y0165500D01*
X0185550Y0165500D01*
X0185550Y0160550D01*
X0185550Y0160550D01*
X0185550Y0160550D01*
X0190500Y0160550D01*
X0190500Y0158500D01*
X0187600Y0155600D01*
X0185550Y0155600D01*
X0185550Y0160550D01*
X0185550Y0160550D01*
X0185550Y0160550D01*
X0185550Y0165500D01*
X0183500Y0165500D01*
X0180600Y0162600D01*
X0180600Y0161516D02*
X0065970Y0161516D01*
X0066871Y0159918D02*
X0113542Y0159918D01*
X0114750Y0161125D02*
X0111850Y0158225D01*
X0111850Y0156175D01*
X0116800Y0156175D01*
X0116800Y0156175D01*
X0116800Y0161125D01*
X0118850Y0161125D01*
X0121750Y0158225D01*
X0121750Y0156175D01*
X0116800Y0156175D01*
X0116800Y0156175D01*
X0116800Y0156175D01*
X0116800Y0161125D01*
X0114750Y0161125D01*
X0116800Y0159918D02*
X0116800Y0159918D01*
X0116800Y0158319D02*
X0116800Y0158319D01*
X0116800Y0156721D02*
X0116800Y0156721D01*
X0116800Y0156175D02*
X0111850Y0156175D01*
X0111850Y0154125D01*
X0114750Y0151225D01*
X0116800Y0151225D01*
X0118850Y0151225D01*
X0121750Y0154125D01*
X0121750Y0156175D01*
X0116800Y0156175D01*
X0116800Y0151225D01*
X0116800Y0156175D01*
X0116800Y0156175D01*
X0116800Y0155122D02*
X0116800Y0155122D01*
X0116800Y0153524D02*
X0116800Y0153524D01*
X0116800Y0151925D02*
X0116800Y0151925D01*
X0119551Y0151925D02*
X0125900Y0151925D01*
X0125900Y0151175D02*
X0130300Y0151175D01*
X0130300Y0151175D01*
X0130300Y0155575D01*
X0132123Y0155575D01*
X0134565Y0153133D01*
X0134739Y0153554D01*
X0135921Y0154736D01*
X0137465Y0155375D01*
X0139135Y0155375D01*
X0140679Y0154736D01*
X0141861Y0153554D01*
X0142500Y0152010D01*
X0142500Y0150340D01*
X0141861Y0148796D01*
X0140679Y0147614D01*
X0139135Y0146975D01*
X0137465Y0146975D01*
X0135921Y0147614D01*
X0134739Y0148796D01*
X0134565Y0149217D01*
X0132123Y0146775D01*
X0130300Y0146775D01*
X0130300Y0151175D01*
X0130300Y0151175D01*
X0130300Y0151175D01*
X0130300Y0155575D01*
X0128477Y0155575D01*
X0125900Y0152998D01*
X0125900Y0151175D01*
X0125900Y0149352D01*
X0128477Y0146775D01*
X0130300Y0146775D01*
X0130300Y0151175D01*
X0125900Y0151175D01*
X0125900Y0150327D02*
X0007225Y0150327D01*
X0007225Y0151925D02*
X0114049Y0151925D01*
X0112451Y0153524D02*
X0064910Y0153524D01*
X0066432Y0155122D02*
X0111850Y0155122D01*
X0111850Y0156721D02*
X0067094Y0156721D01*
X0067200Y0158319D02*
X0111944Y0158319D01*
X0120058Y0159918D02*
X0180600Y0159918D01*
X0180600Y0160550D02*
X0180600Y0158500D01*
X0183500Y0155600D01*
X0185550Y0155600D01*
X0185550Y0160550D01*
X0180600Y0160550D01*
X0180780Y0158319D02*
X0121656Y0158319D01*
X0121750Y0156721D02*
X0182379Y0156721D01*
X0185550Y0156721D02*
X0185550Y0156721D01*
X0185550Y0158319D02*
X0185550Y0158319D01*
X0185550Y0159918D02*
X0185550Y0159918D01*
X0185550Y0161516D02*
X0185550Y0161516D01*
X0185550Y0163115D02*
X0185550Y0163115D01*
X0185550Y0164713D02*
X0185550Y0164713D01*
X0188387Y0164713D02*
X0202996Y0164713D01*
X0203582Y0165300D02*
X0200800Y0162518D01*
X0200800Y0158582D01*
X0203582Y0155800D01*
X0207518Y0155800D01*
X0210300Y0158582D01*
X0210300Y0162518D01*
X0207518Y0165300D01*
X0203582Y0165300D01*
X0201397Y0163115D02*
X0189986Y0163115D01*
X0190500Y0161516D02*
X0200800Y0161516D01*
X0200800Y0159918D02*
X0190500Y0159918D01*
X0190320Y0158319D02*
X0201063Y0158319D01*
X0202662Y0156721D02*
X0188721Y0156721D01*
X0182713Y0164713D02*
X0022484Y0164713D01*
X0022814Y0166312D02*
X0314451Y0166312D01*
X0314451Y0167910D02*
X0022814Y0167910D01*
X0022814Y0169509D02*
X0314451Y0169509D01*
X0314451Y0171107D02*
X0022814Y0171107D01*
X0022814Y0172706D02*
X0314451Y0172706D01*
X0314451Y0174304D02*
X0302468Y0174304D01*
X0301794Y0174025D02*
X0303815Y0174862D01*
X0305363Y0176409D01*
X0306200Y0178431D01*
X0306200Y0180619D01*
X0305363Y0182640D01*
X0303815Y0184188D01*
X0301794Y0185025D01*
X0291806Y0185025D01*
X0289784Y0184188D01*
X0288237Y0182640D01*
X0287400Y0180619D01*
X0287400Y0178431D01*
X0288237Y0176409D01*
X0289784Y0174862D01*
X0291806Y0174025D01*
X0301794Y0174025D01*
X0304856Y0175903D02*
X0314451Y0175903D01*
X0314451Y0177501D02*
X0305815Y0177501D01*
X0306200Y0179100D02*
X0314451Y0179100D01*
X0314451Y0180698D02*
X0306167Y0180698D01*
X0305505Y0182297D02*
X0314451Y0182297D01*
X0314451Y0183895D02*
X0304108Y0183895D01*
X0314451Y0191888D02*
X0293267Y0191888D01*
X0294796Y0193487D02*
X0314451Y0193487D01*
X0314451Y0195085D02*
X0295458Y0195085D01*
X0295837Y0196684D02*
X0314451Y0196684D01*
X0314451Y0198282D02*
X0295837Y0198282D01*
X0295410Y0199881D02*
X0314451Y0199881D01*
X0314451Y0201479D02*
X0294748Y0201479D01*
X0293151Y0203078D02*
X0314451Y0203078D01*
X0289492Y0183895D02*
X0266894Y0183895D01*
X0266040Y0184750D02*
X0262560Y0184750D01*
X0260100Y0182290D01*
X0260100Y0178810D01*
X0262560Y0176350D01*
X0266040Y0176350D01*
X0268500Y0178810D01*
X0268500Y0182290D01*
X0266040Y0184750D01*
X0268493Y0182297D02*
X0288095Y0182297D01*
X0287433Y0180698D02*
X0268500Y0180698D01*
X0268500Y0179100D02*
X0287400Y0179100D01*
X0287785Y0177501D02*
X0267191Y0177501D01*
X0261409Y0177501D02*
X0237191Y0177501D01*
X0236040Y0176350D02*
X0238500Y0178810D01*
X0238500Y0182290D01*
X0236040Y0184750D01*
X0232560Y0184750D01*
X0230100Y0182290D01*
X0230100Y0178810D01*
X0232560Y0176350D01*
X0236040Y0176350D01*
X0238500Y0179100D02*
X0260100Y0179100D01*
X0260100Y0180698D02*
X0238500Y0180698D01*
X0238493Y0182297D02*
X0260107Y0182297D01*
X0261706Y0183895D02*
X0236894Y0183895D01*
X0231706Y0183895D02*
X0223922Y0183895D01*
X0225300Y0182518D02*
X0222518Y0185300D01*
X0218582Y0185300D01*
X0215800Y0182518D01*
X0215800Y0178582D01*
X0218582Y0175800D01*
X0222518Y0175800D01*
X0225300Y0178582D01*
X0225300Y0182518D01*
X0225300Y0182297D02*
X0230107Y0182297D01*
X0230100Y0180698D02*
X0225300Y0180698D01*
X0225300Y0179100D02*
X0230100Y0179100D01*
X0231409Y0177501D02*
X0224219Y0177501D01*
X0222620Y0175903D02*
X0288744Y0175903D01*
X0291132Y0174304D02*
X0022814Y0174304D01*
X0014060Y0179100D02*
X0007225Y0179100D01*
X0007225Y0177501D02*
X0012533Y0177501D01*
X0011871Y0175903D02*
X0007225Y0175903D01*
X0007225Y0174304D02*
X0011740Y0174304D01*
X0011740Y0172706D02*
X0007225Y0172706D01*
X0007225Y0171107D02*
X0011740Y0171107D01*
X0011740Y0169509D02*
X0007225Y0169509D01*
X0007225Y0167910D02*
X0011740Y0167910D01*
X0011740Y0166312D02*
X0007225Y0166312D01*
X0007225Y0164713D02*
X0012071Y0164713D01*
X0012945Y0163115D02*
X0007225Y0163115D01*
X0007225Y0161516D02*
X0015113Y0161516D01*
X0019442Y0161516D02*
X0027578Y0161516D01*
X0026896Y0159918D02*
X0007225Y0159918D01*
X0007225Y0158319D02*
X0026701Y0158319D01*
X0026918Y0156721D02*
X0007225Y0156721D01*
X0007225Y0155122D02*
X0027631Y0155122D01*
X0029409Y0153524D02*
X0007225Y0153524D01*
X0007225Y0148728D02*
X0126524Y0148728D01*
X0128123Y0147130D02*
X0007225Y0147130D01*
X0007225Y0145531D02*
X0291579Y0145531D01*
X0291806Y0145625D02*
X0289784Y0144788D01*
X0288237Y0143240D01*
X0287400Y0141219D01*
X0287400Y0139031D01*
X0288237Y0137009D01*
X0289784Y0135462D01*
X0291806Y0134625D01*
X0301794Y0134625D01*
X0303815Y0135462D01*
X0305363Y0137009D01*
X0306200Y0139031D01*
X0306200Y0141219D01*
X0305363Y0143240D01*
X0303815Y0144788D01*
X0301794Y0145625D01*
X0291806Y0145625D01*
X0288929Y0143933D02*
X0265607Y0143933D01*
X0264790Y0144750D02*
X0267250Y0142290D01*
X0267250Y0138810D01*
X0264790Y0136350D01*
X0261310Y0136350D01*
X0258850Y0138810D01*
X0258850Y0142290D01*
X0261310Y0144750D01*
X0264790Y0144750D01*
X0267206Y0142334D02*
X0287862Y0142334D01*
X0287400Y0140736D02*
X0267250Y0140736D01*
X0267250Y0139137D02*
X0287400Y0139137D01*
X0288018Y0137539D02*
X0265978Y0137539D01*
X0260122Y0137539D02*
X0235978Y0137539D01*
X0234790Y0136350D02*
X0237250Y0138810D01*
X0237250Y0142290D01*
X0234790Y0144750D01*
X0231310Y0144750D01*
X0228850Y0142290D01*
X0228850Y0138810D01*
X0231310Y0136350D01*
X0234790Y0136350D01*
X0237250Y0139137D02*
X0258850Y0139137D01*
X0258850Y0140736D02*
X0237250Y0140736D01*
X0237206Y0142334D02*
X0258894Y0142334D01*
X0260493Y0143933D02*
X0235607Y0143933D01*
X0230493Y0143933D02*
X0225135Y0143933D01*
X0223768Y0145300D02*
X0219832Y0145300D01*
X0217050Y0142518D01*
X0217050Y0138582D01*
X0219832Y0135800D01*
X0223768Y0135800D01*
X0226550Y0138582D01*
X0226550Y0142518D01*
X0223768Y0145300D01*
X0226550Y0142334D02*
X0228894Y0142334D01*
X0228850Y0140736D02*
X0226550Y0140736D01*
X0226550Y0139137D02*
X0228850Y0139137D01*
X0230122Y0137539D02*
X0225506Y0137539D01*
X0223908Y0135940D02*
X0289307Y0135940D01*
X0302021Y0145531D02*
X0314451Y0145531D01*
X0314451Y0143933D02*
X0304670Y0143933D01*
X0305738Y0142334D02*
X0314451Y0142334D01*
X0314451Y0140736D02*
X0306200Y0140736D01*
X0306200Y0139137D02*
X0314451Y0139137D01*
X0314451Y0137539D02*
X0305582Y0137539D01*
X0304293Y0135940D02*
X0314451Y0135940D01*
X0314451Y0134342D02*
X0121550Y0134342D01*
X0121550Y0134207D02*
X0118768Y0131425D01*
X0114832Y0131425D01*
X0112050Y0134207D01*
X0112050Y0138143D01*
X0114832Y0140925D01*
X0118768Y0140925D01*
X0121550Y0138143D01*
X0121550Y0134207D01*
X0121550Y0135940D02*
X0183785Y0135940D01*
X0184125Y0135600D02*
X0181225Y0138500D01*
X0181225Y0140550D01*
X0186175Y0140550D01*
X0191125Y0140550D01*
X0191125Y0142600D01*
X0188225Y0145500D01*
X0186175Y0145500D01*
X0186175Y0140550D01*
X0186175Y0140550D01*
X0186175Y0140550D01*
X0191125Y0140550D01*
X0191125Y0138500D01*
X0188225Y0135600D01*
X0186175Y0135600D01*
X0186175Y0140550D01*
X0186175Y0140550D01*
X0186175Y0140550D01*
X0186175Y0145500D01*
X0184125Y0145500D01*
X0181225Y0142600D01*
X0181225Y0140550D01*
X0186175Y0140550D01*
X0186175Y0135600D01*
X0184125Y0135600D01*
X0186175Y0135940D02*
X0186175Y0135940D01*
X0186175Y0137539D02*
X0186175Y0137539D01*
X0186175Y0139137D02*
X0186175Y0139137D01*
X0186175Y0140736D02*
X0186175Y0140736D01*
X0186175Y0142334D02*
X0186175Y0142334D01*
X0186175Y0143933D02*
X0186175Y0143933D01*
X0189793Y0143933D02*
X0202840Y0143933D01*
X0204207Y0145300D02*
X0201425Y0142518D01*
X0201425Y0138582D01*
X0204207Y0135800D01*
X0208143Y0135800D01*
X0210925Y0138582D01*
X0210925Y0142518D01*
X0208143Y0145300D01*
X0204207Y0145300D01*
X0201425Y0142334D02*
X0191125Y0142334D01*
X0191125Y0140736D02*
X0201425Y0140736D01*
X0201425Y0139137D02*
X0191125Y0139137D01*
X0190164Y0137539D02*
X0202469Y0137539D01*
X0204067Y0135940D02*
X0188565Y0135940D01*
X0182186Y0137539D02*
X0121550Y0137539D01*
X0120555Y0139137D02*
X0181225Y0139137D01*
X0181225Y0140736D02*
X0118957Y0140736D01*
X0114643Y0140736D02*
X0007225Y0140736D01*
X0007225Y0142334D02*
X0181225Y0142334D01*
X0182557Y0143933D02*
X0007225Y0143933D01*
X0007225Y0139137D02*
X0113045Y0139137D01*
X0112050Y0137539D02*
X0007225Y0137539D01*
X0007225Y0135940D02*
X0112050Y0135940D01*
X0112050Y0134342D02*
X0007225Y0134342D01*
X0007225Y0132743D02*
X0113514Y0132743D01*
X0120086Y0132743D02*
X0126896Y0132743D01*
X0125900Y0131748D02*
X0125900Y0129925D01*
X0130300Y0129925D01*
X0130300Y0129925D01*
X0130300Y0134325D01*
X0132123Y0134325D01*
X0134565Y0131883D01*
X0134739Y0132304D01*
X0135921Y0133486D01*
X0137465Y0134125D01*
X0139135Y0134125D01*
X0140679Y0133486D01*
X0141861Y0132304D01*
X0142500Y0130760D01*
X0142500Y0129090D01*
X0141861Y0127546D01*
X0140679Y0126364D01*
X0139135Y0125725D01*
X0137465Y0125725D01*
X0135921Y0126364D01*
X0134739Y0127546D01*
X0134565Y0127967D01*
X0132123Y0125525D01*
X0130300Y0125525D01*
X0130300Y0129925D01*
X0130300Y0129925D01*
X0130300Y0129925D01*
X0130300Y0134325D01*
X0128477Y0134325D01*
X0125900Y0131748D01*
X0125900Y0131145D02*
X0030211Y0131145D01*
X0031400Y0129955D02*
X0028705Y0132650D01*
X0024895Y0132650D01*
X0022200Y0129955D01*
X0022200Y0126145D01*
X0024895Y0123450D01*
X0028705Y0123450D01*
X0031400Y0126145D01*
X0031400Y0129955D01*
X0031400Y0129546D02*
X0125900Y0129546D01*
X0125900Y0129925D02*
X0125900Y0128102D01*
X0128477Y0125525D01*
X0130300Y0125525D01*
X0130300Y0129925D01*
X0125900Y0129925D01*
X0126055Y0127948D02*
X0031400Y0127948D01*
X0031400Y0126349D02*
X0127653Y0126349D01*
X0130300Y0126349D02*
X0130300Y0126349D01*
X0130300Y0127948D02*
X0130300Y0127948D01*
X0130300Y0129546D02*
X0130300Y0129546D01*
X0130300Y0131145D02*
X0130300Y0131145D01*
X0130300Y0132743D02*
X0130300Y0132743D01*
X0133704Y0132743D02*
X0135178Y0132743D01*
X0134573Y0127948D02*
X0134545Y0127948D01*
X0135958Y0126349D02*
X0132947Y0126349D01*
X0140642Y0126349D02*
X0314451Y0126349D01*
X0314451Y0124751D02*
X0304053Y0124751D01*
X0303815Y0124988D02*
X0301794Y0125825D01*
X0291806Y0125825D01*
X0289784Y0124988D01*
X0288237Y0123440D01*
X0287400Y0121419D01*
X0287400Y0119231D01*
X0288237Y0117209D01*
X0289784Y0115662D01*
X0291806Y0114825D01*
X0301794Y0114825D01*
X0303815Y0115662D01*
X0305363Y0117209D01*
X0306200Y0119231D01*
X0306200Y0121419D01*
X0305363Y0123440D01*
X0303815Y0124988D01*
X0305482Y0123152D02*
X0314451Y0123152D01*
X0314451Y0121553D02*
X0306144Y0121553D01*
X0306200Y0119955D02*
X0314451Y0119955D01*
X0314451Y0118356D02*
X0305838Y0118356D01*
X0304911Y0116758D02*
X0314451Y0116758D01*
X0314451Y0115159D02*
X0302601Y0115159D01*
X0290999Y0115159D02*
X0121000Y0115159D01*
X0121000Y0113810D02*
X0118540Y0111350D01*
X0115060Y0111350D01*
X0112600Y0113810D01*
X0112600Y0117290D01*
X0115060Y0119750D01*
X0118540Y0119750D01*
X0121000Y0117290D01*
X0121000Y0113810D01*
X0120751Y0113561D02*
X0314451Y0113561D01*
X0314451Y0111962D02*
X0119152Y0111962D01*
X0114448Y0111962D02*
X0107757Y0111962D01*
X0107864Y0111997D02*
X0108481Y0112312D01*
X0109041Y0112719D01*
X0109531Y0113209D01*
X0109938Y0113769D01*
X0110253Y0114386D01*
X0110467Y0115045D01*
X0110575Y0115729D01*
X0110575Y0118675D01*
X0110575Y0121621D01*
X0110467Y0122305D01*
X0110253Y0122964D01*
X0109938Y0123581D01*
X0109531Y0124141D01*
X0109041Y0124631D01*
X0108481Y0125038D01*
X0107864Y0125353D01*
X0107205Y0125567D01*
X0106521Y0125675D01*
X0106175Y0125675D01*
X0106175Y0118675D01*
X0106175Y0118675D01*
X0110575Y0118675D01*
X0106175Y0118675D01*
X0106175Y0118675D01*
X0106175Y0118675D01*
X0101775Y0118675D01*
X0101775Y0121621D01*
X0101883Y0122305D01*
X0102097Y0122964D01*
X0102412Y0123581D01*
X0102819Y0124141D01*
X0103309Y0124631D01*
X0103869Y0125038D01*
X0104486Y0125353D01*
X0105145Y0125567D01*
X0105829Y0125675D01*
X0106175Y0125675D01*
X0106175Y0118675D01*
X0106175Y0111675D01*
X0106521Y0111675D01*
X0107205Y0111783D01*
X0107864Y0111997D01*
X0106175Y0111962D02*
X0106175Y0111962D01*
X0106175Y0111675D02*
X0106175Y0118675D01*
X0106175Y0118675D01*
X0101775Y0118675D01*
X0101775Y0115729D01*
X0101883Y0115045D01*
X0102097Y0114386D01*
X0102412Y0113769D01*
X0102819Y0113209D01*
X0103309Y0112719D01*
X0103869Y0112312D01*
X0104486Y0111997D01*
X0105145Y0111783D01*
X0105829Y0111675D01*
X0106175Y0111675D01*
X0104593Y0111962D02*
X0097221Y0111962D01*
X0097010Y0111875D02*
X0098554Y0112514D01*
X0099736Y0113696D01*
X0100375Y0115240D01*
X0100375Y0122110D01*
X0099736Y0123654D01*
X0098554Y0124836D01*
X0097010Y0125475D01*
X0095340Y0125475D01*
X0093796Y0124836D01*
X0092614Y0123654D01*
X0091975Y0122110D01*
X0091975Y0115240D01*
X0092614Y0113696D01*
X0093796Y0112514D01*
X0095340Y0111875D01*
X0097010Y0111875D01*
X0095128Y0111962D02*
X0087221Y0111962D01*
X0087010Y0111875D02*
X0088554Y0112514D01*
X0089736Y0113696D01*
X0090375Y0115240D01*
X0090375Y0122110D01*
X0089736Y0123654D01*
X0088554Y0124836D01*
X0087010Y0125475D01*
X0085340Y0125475D01*
X0083796Y0124836D01*
X0082614Y0123654D01*
X0081975Y0122110D01*
X0081975Y0115240D01*
X0082614Y0113696D01*
X0083796Y0112514D01*
X0085340Y0111875D01*
X0087010Y0111875D01*
X0085128Y0111962D02*
X0077757Y0111962D01*
X0077864Y0111997D02*
X0078481Y0112312D01*
X0079041Y0112719D01*
X0079531Y0113209D01*
X0079938Y0113769D01*
X0080253Y0114386D01*
X0080467Y0115045D01*
X0080575Y0115729D01*
X0080575Y0118675D01*
X0080575Y0121621D01*
X0080467Y0122305D01*
X0080253Y0122964D01*
X0079938Y0123581D01*
X0079531Y0124141D01*
X0079041Y0124631D01*
X0078481Y0125038D01*
X0077864Y0125353D01*
X0077205Y0125567D01*
X0076521Y0125675D01*
X0076175Y0125675D01*
X0076175Y0118675D01*
X0076175Y0118675D01*
X0080575Y0118675D01*
X0076175Y0118675D01*
X0076175Y0118675D01*
X0076175Y0118675D01*
X0071775Y0118675D01*
X0071775Y0121621D01*
X0071883Y0122305D01*
X0072097Y0122964D01*
X0072412Y0123581D01*
X0072819Y0124141D01*
X0073309Y0124631D01*
X0073869Y0125038D01*
X0074486Y0125353D01*
X0075145Y0125567D01*
X0075829Y0125675D01*
X0076175Y0125675D01*
X0076175Y0118675D01*
X0076175Y0111675D01*
X0076521Y0111675D01*
X0077205Y0111783D01*
X0077864Y0111997D01*
X0076175Y0111962D02*
X0076175Y0111962D01*
X0076175Y0111675D02*
X0076175Y0118675D01*
X0076175Y0118675D01*
X0071775Y0118675D01*
X0071775Y0115729D01*
X0071883Y0115045D01*
X0072097Y0114386D01*
X0072412Y0113769D01*
X0072819Y0113209D01*
X0073309Y0112719D01*
X0073869Y0112312D01*
X0074486Y0111997D01*
X0075145Y0111783D01*
X0075829Y0111675D01*
X0076175Y0111675D01*
X0074593Y0111962D02*
X0067221Y0111962D01*
X0067010Y0111875D02*
X0068554Y0112514D01*
X0069736Y0113696D01*
X0070375Y0115240D01*
X0070375Y0122110D01*
X0069736Y0123654D01*
X0068554Y0124836D01*
X0067010Y0125475D01*
X0065340Y0125475D01*
X0063796Y0124836D01*
X0062614Y0123654D01*
X0061975Y0122110D01*
X0061975Y0115240D01*
X0062614Y0113696D01*
X0063796Y0112514D01*
X0065340Y0111875D01*
X0067010Y0111875D01*
X0065128Y0111962D02*
X0057221Y0111962D01*
X0057010Y0111875D02*
X0058554Y0112514D01*
X0059736Y0113696D01*
X0060375Y0115240D01*
X0060375Y0122110D01*
X0059736Y0123654D01*
X0058554Y0124836D01*
X0057010Y0125475D01*
X0055340Y0125475D01*
X0053796Y0124836D01*
X0052614Y0123654D01*
X0051975Y0122110D01*
X0051975Y0115240D01*
X0052614Y0113696D01*
X0053796Y0112514D01*
X0055340Y0111875D01*
X0057010Y0111875D01*
X0055128Y0111962D02*
X0047757Y0111962D01*
X0047864Y0111997D02*
X0048481Y0112312D01*
X0049041Y0112719D01*
X0049531Y0113209D01*
X0049938Y0113769D01*
X0050253Y0114386D01*
X0050467Y0115045D01*
X0050575Y0115729D01*
X0050575Y0118675D01*
X0050575Y0121621D01*
X0050467Y0122305D01*
X0050253Y0122964D01*
X0049938Y0123581D01*
X0049531Y0124141D01*
X0049041Y0124631D01*
X0048481Y0125038D01*
X0047864Y0125353D01*
X0047205Y0125567D01*
X0046521Y0125675D01*
X0046175Y0125675D01*
X0046175Y0118675D01*
X0046175Y0118675D01*
X0050575Y0118675D01*
X0046175Y0118675D01*
X0046175Y0118675D01*
X0046175Y0118675D01*
X0041775Y0118675D01*
X0041775Y0121621D01*
X0041883Y0122305D01*
X0042097Y0122964D01*
X0042412Y0123581D01*
X0042819Y0124141D01*
X0043309Y0124631D01*
X0043869Y0125038D01*
X0044486Y0125353D01*
X0045145Y0125567D01*
X0045829Y0125675D01*
X0046175Y0125675D01*
X0046175Y0118675D01*
X0046175Y0111675D01*
X0046521Y0111675D01*
X0047205Y0111783D01*
X0047864Y0111997D01*
X0046175Y0111962D02*
X0046175Y0111962D01*
X0046175Y0111675D02*
X0046175Y0118675D01*
X0046175Y0118675D01*
X0041775Y0118675D01*
X0041775Y0115729D01*
X0041883Y0115045D01*
X0042097Y0114386D01*
X0042412Y0113769D01*
X0042819Y0113209D01*
X0043309Y0112719D01*
X0043869Y0112312D01*
X0044486Y0111997D01*
X0045145Y0111783D01*
X0045829Y0111675D01*
X0046175Y0111675D01*
X0044593Y0111962D02*
X0029393Y0111962D01*
X0028705Y0112650D02*
X0031400Y0109955D01*
X0031400Y0106145D01*
X0028705Y0103450D01*
X0024895Y0103450D01*
X0022200Y0106145D01*
X0022200Y0109955D01*
X0024895Y0112650D01*
X0028705Y0112650D01*
X0028705Y0113450D02*
X0031400Y0116145D01*
X0031400Y0119955D01*
X0041775Y0119955D01*
X0041775Y0121553D02*
X0029802Y0121553D01*
X0028705Y0122650D02*
X0024895Y0122650D01*
X0022200Y0119955D01*
X0021400Y0119955D01*
X0018705Y0122650D01*
X0014895Y0122650D01*
X0012200Y0119955D01*
X0007225Y0119955D01*
X0007225Y0121553D02*
X0013798Y0121553D01*
X0014895Y0123450D02*
X0018705Y0123450D01*
X0021400Y0126145D01*
X0021400Y0129955D01*
X0018705Y0132650D01*
X0014895Y0132650D01*
X0012200Y0129955D01*
X0012200Y0126145D01*
X0014895Y0123450D01*
X0013594Y0124751D02*
X0007225Y0124751D01*
X0007225Y0126349D02*
X0012200Y0126349D01*
X0012200Y0127948D02*
X0007225Y0127948D01*
X0007225Y0129546D02*
X0012200Y0129546D01*
X0013389Y0131145D02*
X0007225Y0131145D01*
X0007225Y0123152D02*
X0042193Y0123152D01*
X0043473Y0124751D02*
X0030006Y0124751D01*
X0028705Y0122650D02*
X0031400Y0119955D01*
X0031400Y0118356D02*
X0041775Y0118356D01*
X0041775Y0116758D02*
X0031400Y0116758D01*
X0030415Y0115159D02*
X0041865Y0115159D01*
X0042563Y0113561D02*
X0028816Y0113561D01*
X0028705Y0113450D02*
X0024895Y0113450D01*
X0022200Y0116145D01*
X0022200Y0119955D01*
X0021400Y0119955D02*
X0021400Y0116145D01*
X0018705Y0113450D01*
X0014895Y0113450D01*
X0012200Y0116145D01*
X0012200Y0119955D01*
X0012200Y0118356D02*
X0007225Y0118356D01*
X0007225Y0116758D02*
X0012200Y0116758D01*
X0013185Y0115159D02*
X0007225Y0115159D01*
X0007225Y0113561D02*
X0014784Y0113561D01*
X0014895Y0112650D02*
X0012200Y0109955D01*
X0012200Y0106145D01*
X0014895Y0103450D01*
X0018705Y0103450D01*
X0021400Y0106145D01*
X0021400Y0109955D01*
X0018705Y0112650D01*
X0014895Y0112650D01*
X0014207Y0111962D02*
X0007225Y0111962D01*
X0007225Y0110364D02*
X0012609Y0110364D01*
X0012200Y0108765D02*
X0007225Y0108765D01*
X0007225Y0107167D02*
X0012200Y0107167D01*
X0012776Y0105568D02*
X0007225Y0105568D01*
X0007225Y0103970D02*
X0014375Y0103970D01*
X0014895Y0102650D02*
X0012200Y0099955D01*
X0012200Y0096145D01*
X0014895Y0093450D01*
X0018705Y0093450D01*
X0021400Y0096145D01*
X0021400Y0099955D01*
X0018705Y0102650D01*
X0014895Y0102650D01*
X0014616Y0102371D02*
X0007225Y0102371D01*
X0007225Y0100773D02*
X0013017Y0100773D01*
X0012200Y0099174D02*
X0007225Y0099174D01*
X0007225Y0097576D02*
X0012200Y0097576D01*
X0012367Y0095977D02*
X0007225Y0095977D01*
X0007225Y0094379D02*
X0013966Y0094379D01*
X0014895Y0092650D02*
X0012200Y0089955D01*
X0012200Y0086145D01*
X0014895Y0083450D01*
X0018705Y0083450D01*
X0021400Y0086145D01*
X0021400Y0089955D01*
X0018705Y0092650D01*
X0014895Y0092650D01*
X0013426Y0091182D02*
X0007225Y0091182D01*
X0007225Y0092780D02*
X0042252Y0092780D01*
X0041975Y0092110D02*
X0042614Y0093654D01*
X0043796Y0094836D01*
X0045340Y0095475D01*
X0047010Y0095475D01*
X0048554Y0094836D01*
X0049736Y0093654D01*
X0050375Y0092110D01*
X0050375Y0085240D01*
X0049736Y0083696D01*
X0048554Y0082514D01*
X0047010Y0081875D01*
X0045340Y0081875D01*
X0043796Y0082514D01*
X0042614Y0083696D01*
X0041975Y0085240D01*
X0041975Y0092110D01*
X0041975Y0091182D02*
X0030174Y0091182D01*
X0031400Y0089955D02*
X0028705Y0092650D01*
X0024895Y0092650D01*
X0022200Y0089955D01*
X0022200Y0086145D01*
X0024895Y0083450D01*
X0028705Y0083450D01*
X0031400Y0086145D01*
X0031400Y0089955D01*
X0031400Y0089583D02*
X0041975Y0089583D01*
X0041975Y0087985D02*
X0031400Y0087985D01*
X0031400Y0086386D02*
X0041975Y0086386D01*
X0042162Y0084788D02*
X0030043Y0084788D01*
X0028705Y0082650D02*
X0024895Y0082650D01*
X0022200Y0079955D01*
X0022200Y0076145D01*
X0024895Y0073450D01*
X0028705Y0073450D01*
X0031400Y0076145D01*
X0031400Y0079955D01*
X0028705Y0082650D01*
X0029765Y0081591D02*
X0114820Y0081591D01*
X0115060Y0081350D02*
X0112600Y0083810D01*
X0112600Y0087290D01*
X0115060Y0089750D01*
X0118540Y0089750D01*
X0121000Y0087290D01*
X0121000Y0083810D01*
X0118540Y0081350D01*
X0115060Y0081350D01*
X0113221Y0083189D02*
X0109229Y0083189D01*
X0109736Y0083696D02*
X0108554Y0082514D01*
X0107010Y0081875D01*
X0105340Y0081875D01*
X0103796Y0082514D01*
X0102614Y0083696D01*
X0101975Y0085240D01*
X0101975Y0092110D01*
X0102614Y0093654D01*
X0103796Y0094836D01*
X0105340Y0095475D01*
X0107010Y0095475D01*
X0108554Y0094836D01*
X0109736Y0093654D01*
X0110375Y0092110D01*
X0110375Y0085240D01*
X0109736Y0083696D01*
X0110188Y0084788D02*
X0112600Y0084788D01*
X0112600Y0086386D02*
X0110375Y0086386D01*
X0110375Y0087985D02*
X0113295Y0087985D01*
X0114894Y0089583D02*
X0110375Y0089583D01*
X0110375Y0091182D02*
X0182918Y0091182D01*
X0183500Y0090600D02*
X0185550Y0090600D01*
X0187600Y0090600D01*
X0190500Y0093500D01*
X0190500Y0095550D01*
X0190500Y0097600D01*
X0187600Y0100500D01*
X0185550Y0100500D01*
X0185550Y0095550D01*
X0190500Y0095550D01*
X0185550Y0095550D01*
X0185550Y0095550D01*
X0185550Y0095550D01*
X0185550Y0090600D01*
X0185550Y0095550D01*
X0185550Y0095550D01*
X0185550Y0095550D01*
X0180600Y0095550D01*
X0180600Y0097600D01*
X0183500Y0100500D01*
X0185550Y0100500D01*
X0185550Y0095550D01*
X0180600Y0095550D01*
X0180600Y0093500D01*
X0183500Y0090600D01*
X0185550Y0091182D02*
X0185550Y0091182D01*
X0185550Y0092780D02*
X0185550Y0092780D01*
X0185550Y0094379D02*
X0185550Y0094379D01*
X0185550Y0095977D02*
X0185550Y0095977D01*
X0185550Y0097576D02*
X0185550Y0097576D01*
X0185550Y0099174D02*
X0185550Y0099174D01*
X0188926Y0099174D02*
X0202457Y0099174D01*
X0203582Y0100300D02*
X0200800Y0097518D01*
X0200800Y0093582D01*
X0203582Y0090800D01*
X0207518Y0090800D01*
X0210300Y0093582D01*
X0210300Y0097518D01*
X0207518Y0100300D01*
X0203582Y0100300D01*
X0200858Y0097576D02*
X0190500Y0097576D01*
X0190500Y0095977D02*
X0200800Y0095977D01*
X0200800Y0094379D02*
X0190500Y0094379D01*
X0189781Y0092780D02*
X0201602Y0092780D01*
X0203201Y0091182D02*
X0188182Y0091182D01*
X0181319Y0092780D02*
X0110098Y0092780D01*
X0109011Y0094379D02*
X0180600Y0094379D01*
X0180600Y0095977D02*
X0031233Y0095977D01*
X0031400Y0096145D02*
X0028705Y0093450D01*
X0024895Y0093450D01*
X0022200Y0096145D01*
X0022200Y0099955D01*
X0024895Y0102650D01*
X0028705Y0102650D01*
X0031400Y0099955D01*
X0031400Y0096145D01*
X0031400Y0097576D02*
X0180600Y0097576D01*
X0182174Y0099174D02*
X0031400Y0099174D01*
X0030583Y0100773D02*
X0290594Y0100773D01*
X0289784Y0100438D02*
X0288237Y0098890D01*
X0287400Y0096869D01*
X0287400Y0094681D01*
X0288237Y0092659D01*
X0289784Y0091112D01*
X0291806Y0090275D01*
X0301794Y0090275D01*
X0303815Y0091112D01*
X0305363Y0092659D01*
X0306200Y0094681D01*
X0306200Y0096869D01*
X0305363Y0098890D01*
X0303815Y0100438D01*
X0301794Y0101275D01*
X0291806Y0101275D01*
X0289784Y0100438D01*
X0288521Y0099174D02*
X0266615Y0099174D01*
X0266040Y0099750D02*
X0262560Y0099750D01*
X0260100Y0097290D01*
X0260100Y0093810D01*
X0262560Y0091350D01*
X0266040Y0091350D01*
X0268500Y0093810D01*
X0268500Y0097290D01*
X0266040Y0099750D01*
X0268214Y0097576D02*
X0287693Y0097576D01*
X0287400Y0095977D02*
X0268500Y0095977D01*
X0268500Y0094379D02*
X0287525Y0094379D01*
X0288187Y0092780D02*
X0267470Y0092780D01*
X0261130Y0092780D02*
X0237470Y0092780D01*
X0238500Y0093810D02*
X0236040Y0091350D01*
X0232560Y0091350D01*
X0230100Y0093810D01*
X0230100Y0097290D01*
X0232560Y0099750D01*
X0236040Y0099750D01*
X0238500Y0097290D01*
X0238500Y0093810D01*
X0238500Y0094379D02*
X0260100Y0094379D01*
X0260100Y0095977D02*
X0238500Y0095977D01*
X0238214Y0097576D02*
X0260386Y0097576D01*
X0261985Y0099174D02*
X0236615Y0099174D01*
X0231985Y0099174D02*
X0223643Y0099174D01*
X0222518Y0100300D02*
X0225300Y0097518D01*
X0225300Y0093582D01*
X0222518Y0090800D01*
X0218582Y0090800D01*
X0215800Y0093582D01*
X0215800Y0097518D01*
X0218582Y0100300D01*
X0222518Y0100300D01*
X0225242Y0097576D02*
X0230386Y0097576D01*
X0230100Y0095977D02*
X0225300Y0095977D01*
X0225300Y0094379D02*
X0230100Y0094379D01*
X0231130Y0092780D02*
X0224498Y0092780D01*
X0222899Y0091182D02*
X0289715Y0091182D01*
X0291806Y0081475D02*
X0289784Y0080638D01*
X0288237Y0079090D01*
X0287400Y0077069D01*
X0287400Y0074881D01*
X0288237Y0072859D01*
X0289784Y0071312D01*
X0291806Y0070475D01*
X0301794Y0070475D01*
X0303815Y0071312D01*
X0305363Y0072859D01*
X0306200Y0074881D01*
X0306200Y0077069D01*
X0305363Y0079090D01*
X0303815Y0080638D01*
X0301794Y0081475D01*
X0291806Y0081475D01*
X0289139Y0079992D02*
X0222825Y0079992D01*
X0222518Y0080300D02*
X0218582Y0080300D01*
X0215800Y0077518D01*
X0215800Y0073582D01*
X0218582Y0070800D01*
X0222518Y0070800D01*
X0225300Y0073582D01*
X0225300Y0077518D01*
X0222518Y0080300D01*
X0224424Y0078394D02*
X0231204Y0078394D01*
X0230100Y0077290D02*
X0230100Y0073810D01*
X0232560Y0071350D01*
X0236040Y0071350D01*
X0238500Y0073810D01*
X0238500Y0077290D01*
X0236040Y0079750D01*
X0232560Y0079750D01*
X0230100Y0077290D01*
X0230100Y0076795D02*
X0225300Y0076795D01*
X0225300Y0075197D02*
X0230100Y0075197D01*
X0230312Y0073598D02*
X0225300Y0073598D01*
X0223717Y0072000D02*
X0231911Y0072000D01*
X0236689Y0072000D02*
X0261911Y0072000D01*
X0262560Y0071350D02*
X0266040Y0071350D01*
X0268500Y0073810D01*
X0268500Y0077290D01*
X0266040Y0079750D01*
X0262560Y0079750D01*
X0260100Y0077290D01*
X0260100Y0073810D01*
X0262560Y0071350D01*
X0260312Y0073598D02*
X0238288Y0073598D01*
X0238500Y0075197D02*
X0260100Y0075197D01*
X0260100Y0076795D02*
X0238500Y0076795D01*
X0237396Y0078394D02*
X0261204Y0078394D01*
X0267396Y0078394D02*
X0287949Y0078394D01*
X0287400Y0076795D02*
X0268500Y0076795D01*
X0268500Y0075197D02*
X0287400Y0075197D01*
X0287931Y0073598D02*
X0268288Y0073598D01*
X0266689Y0072000D02*
X0289097Y0072000D01*
X0291806Y0061875D02*
X0289784Y0061038D01*
X0288237Y0059490D01*
X0287400Y0057469D01*
X0287400Y0055281D01*
X0288237Y0053259D01*
X0289784Y0051712D01*
X0291806Y0050875D01*
X0301794Y0050875D01*
X0303815Y0051712D01*
X0305363Y0053259D01*
X0306200Y0055281D01*
X0306200Y0057469D01*
X0305363Y0059490D01*
X0303815Y0061038D01*
X0301794Y0061875D01*
X0291806Y0061875D01*
X0289557Y0060810D02*
X0066426Y0060810D01*
X0067797Y0060018D02*
X0063853Y0062296D01*
X0059453Y0063475D01*
X0054897Y0063475D01*
X0050497Y0062296D01*
X0046553Y0060018D01*
X0043332Y0056797D01*
X0041054Y0052853D01*
X0039875Y0048453D01*
X0039875Y0043897D01*
X0041054Y0039497D01*
X0043332Y0035553D01*
X0046553Y0032332D01*
X0050497Y0030054D01*
X0054897Y0028875D01*
X0059453Y0028875D01*
X0063853Y0030054D01*
X0067797Y0032332D01*
X0071018Y0035553D01*
X0073296Y0039497D01*
X0074475Y0043897D01*
X0074475Y0048453D01*
X0073296Y0052853D01*
X0071018Y0056797D01*
X0067797Y0060018D01*
X0068604Y0059212D02*
X0109706Y0059212D01*
X0109275Y0058781D02*
X0108575Y0057090D01*
X0108575Y0055260D01*
X0109275Y0053569D01*
X0110569Y0052275D01*
X0112260Y0051575D01*
X0120090Y0051575D01*
X0121781Y0052275D01*
X0123075Y0053569D01*
X0123775Y0055260D01*
X0123775Y0057090D01*
X0123075Y0058781D01*
X0121781Y0060075D01*
X0120090Y0060775D01*
X0112260Y0060775D01*
X0110569Y0060075D01*
X0109275Y0058781D01*
X0108792Y0057613D02*
X0070203Y0057613D01*
X0071470Y0056015D02*
X0108575Y0056015D01*
X0108925Y0054416D02*
X0072393Y0054416D01*
X0073305Y0052818D02*
X0110027Y0052818D01*
X0111332Y0050623D02*
X0110659Y0050280D01*
X0110048Y0049836D01*
X0109514Y0049302D01*
X0109070Y0048691D01*
X0108727Y0048018D01*
X0108493Y0047299D01*
X0108375Y0046553D01*
X0108375Y0046375D01*
X0115975Y0046375D01*
X0115975Y0050975D01*
X0112797Y0050975D01*
X0112051Y0050857D01*
X0111332Y0050623D01*
X0109832Y0049620D02*
X0074162Y0049620D01*
X0074475Y0048022D02*
X0108729Y0048022D01*
X0108375Y0046423D02*
X0074475Y0046423D01*
X0074475Y0044825D02*
X0108567Y0044825D01*
X0108493Y0045051D02*
X0108727Y0044332D01*
X0109070Y0043659D01*
X0109514Y0043048D01*
X0110048Y0042514D01*
X0110659Y0042070D01*
X0111332Y0041727D01*
X0112051Y0041493D01*
X0112797Y0041375D01*
X0115975Y0041375D01*
X0115975Y0045975D01*
X0116375Y0045975D01*
X0116375Y0046375D01*
X0115975Y0046375D01*
X0115975Y0045975D01*
X0108375Y0045975D01*
X0108375Y0045797D01*
X0108493Y0045051D01*
X0109384Y0043226D02*
X0074295Y0043226D01*
X0073867Y0041628D02*
X0111636Y0041628D01*
X0112260Y0040775D02*
X0110569Y0040075D01*
X0109275Y0038781D01*
X0108575Y0037090D01*
X0108575Y0035260D01*
X0109275Y0033569D01*
X0110569Y0032275D01*
X0112260Y0031575D01*
X0120090Y0031575D01*
X0121781Y0032275D01*
X0123075Y0033569D01*
X0123775Y0035260D01*
X0123775Y0037090D01*
X0123075Y0038781D01*
X0121781Y0040075D01*
X0120090Y0040775D01*
X0112260Y0040775D01*
X0110524Y0040029D02*
X0073439Y0040029D01*
X0072680Y0038431D02*
X0109130Y0038431D01*
X0108575Y0036832D02*
X0071757Y0036832D01*
X0070700Y0035234D02*
X0108586Y0035234D01*
X0109248Y0033635D02*
X0069101Y0033635D01*
X0067287Y0032037D02*
X0111145Y0032037D01*
X0121205Y0032037D02*
X0126721Y0032037D01*
X0127332Y0031425D02*
X0131268Y0031425D01*
X0134050Y0034207D01*
X0134050Y0038143D01*
X0131268Y0040925D01*
X0127332Y0040925D01*
X0124550Y0038143D01*
X0124550Y0034207D01*
X0127332Y0031425D01*
X0125122Y0033635D02*
X0123102Y0033635D01*
X0123764Y0035234D02*
X0124550Y0035234D01*
X0124550Y0036832D02*
X0123775Y0036832D01*
X0123220Y0038431D02*
X0124838Y0038431D01*
X0126437Y0040029D02*
X0121826Y0040029D01*
X0121018Y0041727D02*
X0121691Y0042070D01*
X0122302Y0042514D01*
X0122836Y0043048D01*
X0123280Y0043659D01*
X0123623Y0044332D01*
X0123857Y0045051D01*
X0123975Y0045797D01*
X0123975Y0045975D01*
X0116375Y0045975D01*
X0116375Y0041375D01*
X0119553Y0041375D01*
X0120299Y0041493D01*
X0121018Y0041727D01*
X0120714Y0041628D02*
X0159013Y0041628D01*
X0159013Y0040375D02*
X0160103Y0037743D01*
X0162118Y0035728D01*
X0164750Y0034638D01*
X0167600Y0034638D01*
X0170232Y0035728D01*
X0172247Y0037743D01*
X0173337Y0040375D01*
X0173337Y0043225D01*
X0172247Y0045857D01*
X0170232Y0047872D01*
X0167600Y0048962D01*
X0164750Y0048962D01*
X0162118Y0047872D01*
X0160103Y0045857D01*
X0159013Y0043225D01*
X0159013Y0040375D01*
X0159156Y0040029D02*
X0152446Y0040029D01*
X0151350Y0041125D02*
X0149300Y0041125D01*
X0149300Y0036175D01*
X0154250Y0036175D01*
X0154250Y0038225D01*
X0151350Y0041125D01*
X0149300Y0041125D02*
X0147250Y0041125D01*
X0144350Y0038225D01*
X0144350Y0036175D01*
X0149300Y0036175D01*
X0149300Y0036175D01*
X0149300Y0036175D01*
X0154250Y0036175D01*
X0154250Y0034125D01*
X0151350Y0031225D01*
X0149300Y0031225D01*
X0149300Y0036175D01*
X0149300Y0036175D01*
X0149300Y0036175D01*
X0149300Y0041125D01*
X0149300Y0040029D02*
X0149300Y0040029D01*
X0149300Y0038431D02*
X0149300Y0038431D01*
X0149300Y0036832D02*
X0149300Y0036832D01*
X0149300Y0036175D02*
X0144350Y0036175D01*
X0144350Y0034125D01*
X0147250Y0031225D01*
X0149300Y0031225D01*
X0149300Y0036175D01*
X0149300Y0035234D02*
X0149300Y0035234D01*
X0149300Y0033635D02*
X0149300Y0033635D01*
X0149300Y0032037D02*
X0149300Y0032037D01*
X0152162Y0032037D02*
X0182063Y0032037D01*
X0183500Y0030600D02*
X0185550Y0030600D01*
X0187600Y0030600D01*
X0190500Y0033500D01*
X0190500Y0035550D01*
X0190500Y0037600D01*
X0187600Y0040500D01*
X0185550Y0040500D01*
X0185550Y0035550D01*
X0190500Y0035550D01*
X0185550Y0035550D01*
X0185550Y0035550D01*
X0185550Y0035550D01*
X0185550Y0030600D01*
X0185550Y0035550D01*
X0185550Y0035550D01*
X0185550Y0035550D01*
X0180600Y0035550D01*
X0180600Y0037600D01*
X0183500Y0040500D01*
X0185550Y0040500D01*
X0185550Y0035550D01*
X0180600Y0035550D01*
X0180600Y0033500D01*
X0183500Y0030600D01*
X0185550Y0032037D02*
X0185550Y0032037D01*
X0185550Y0033635D02*
X0185550Y0033635D01*
X0185550Y0035234D02*
X0185550Y0035234D01*
X0185550Y0036832D02*
X0185550Y0036832D01*
X0185550Y0038431D02*
X0185550Y0038431D01*
X0185550Y0040029D02*
X0185550Y0040029D01*
X0188071Y0040029D02*
X0203312Y0040029D01*
X0203582Y0040300D02*
X0200800Y0037518D01*
X0200800Y0033582D01*
X0203582Y0030800D01*
X0207518Y0030800D01*
X0210300Y0033582D01*
X0210300Y0037518D01*
X0207518Y0040300D01*
X0203582Y0040300D01*
X0201713Y0038431D02*
X0189669Y0038431D01*
X0190500Y0036832D02*
X0200800Y0036832D01*
X0200800Y0035234D02*
X0190500Y0035234D01*
X0190500Y0033635D02*
X0200800Y0033635D01*
X0202346Y0032037D02*
X0189037Y0032037D01*
X0180600Y0033635D02*
X0153761Y0033635D01*
X0154250Y0035234D02*
X0163311Y0035234D01*
X0161014Y0036832D02*
X0154250Y0036832D01*
X0154044Y0038431D02*
X0159818Y0038431D01*
X0159014Y0043226D02*
X0122966Y0043226D01*
X0123783Y0044825D02*
X0159676Y0044825D01*
X0160670Y0046423D02*
X0123975Y0046423D01*
X0123975Y0046375D02*
X0123975Y0046553D01*
X0123857Y0047299D01*
X0123623Y0048018D01*
X0123280Y0048691D01*
X0122836Y0049302D01*
X0122302Y0049836D01*
X0121691Y0050280D01*
X0121018Y0050623D01*
X0120299Y0050857D01*
X0119553Y0050975D01*
X0116375Y0050975D01*
X0116375Y0046375D01*
X0123975Y0046375D01*
X0123621Y0048022D02*
X0162480Y0048022D01*
X0169870Y0048022D02*
X0314451Y0048022D01*
X0314451Y0049620D02*
X0122518Y0049620D01*
X0122323Y0052818D02*
X0128343Y0052818D01*
X0128546Y0052614D02*
X0130090Y0051975D01*
X0131760Y0051975D01*
X0133304Y0052614D01*
X0134486Y0053796D01*
X0134660Y0054217D01*
X0137102Y0051775D01*
X0138925Y0051775D01*
X0140748Y0051775D01*
X0143325Y0054352D01*
X0143325Y0056175D01*
X0143325Y0057998D01*
X0140748Y0060575D01*
X0138925Y0060575D01*
X0138925Y0056175D01*
X0143325Y0056175D01*
X0138925Y0056175D01*
X0138925Y0056175D01*
X0138925Y0056175D01*
X0138925Y0051775D01*
X0138925Y0056175D01*
X0138925Y0056175D01*
X0138925Y0060575D01*
X0137102Y0060575D01*
X0134660Y0058133D01*
X0134486Y0058554D01*
X0133304Y0059736D01*
X0131760Y0060375D01*
X0130090Y0060375D01*
X0128546Y0059736D01*
X0127364Y0058554D01*
X0126725Y0057010D01*
X0126725Y0055340D01*
X0127364Y0053796D01*
X0128546Y0052614D01*
X0127108Y0054416D02*
X0123425Y0054416D01*
X0123775Y0056015D02*
X0126725Y0056015D01*
X0126975Y0057613D02*
X0123558Y0057613D01*
X0122644Y0059212D02*
X0128022Y0059212D01*
X0133828Y0059212D02*
X0135739Y0059212D01*
X0138925Y0059212D02*
X0138925Y0059212D01*
X0138925Y0057613D02*
X0138925Y0057613D01*
X0138925Y0056015D02*
X0138925Y0056015D01*
X0138925Y0054416D02*
X0138925Y0054416D01*
X0138925Y0052818D02*
X0138925Y0052818D01*
X0141790Y0052818D02*
X0181282Y0052818D01*
X0180600Y0053500D02*
X0180600Y0055550D01*
X0185550Y0055550D01*
X0190500Y0055550D01*
X0190500Y0057600D01*
X0187600Y0060500D01*
X0185550Y0060500D01*
X0185550Y0055550D01*
X0185550Y0055550D01*
X0185550Y0055550D01*
X0190500Y0055550D01*
X0190500Y0053500D01*
X0187600Y0050600D01*
X0185550Y0050600D01*
X0185550Y0055550D01*
X0185550Y0055550D01*
X0185550Y0055550D01*
X0185550Y0060500D01*
X0183500Y0060500D01*
X0180600Y0057600D01*
X0180600Y0055550D01*
X0185550Y0055550D01*
X0185550Y0050600D01*
X0183500Y0050600D01*
X0180600Y0053500D01*
X0180600Y0054416D02*
X0143325Y0054416D01*
X0143325Y0056015D02*
X0180600Y0056015D01*
X0180613Y0057613D02*
X0143325Y0057613D01*
X0142111Y0059212D02*
X0182211Y0059212D01*
X0185550Y0059212D02*
X0185550Y0059212D01*
X0185550Y0057613D02*
X0185550Y0057613D01*
X0185550Y0056015D02*
X0185550Y0056015D01*
X0185550Y0054416D02*
X0185550Y0054416D01*
X0185550Y0052818D02*
X0185550Y0052818D01*
X0185550Y0051219D02*
X0185550Y0051219D01*
X0188219Y0051219D02*
X0203163Y0051219D01*
X0203582Y0050800D02*
X0207518Y0050800D01*
X0210300Y0053582D01*
X0210300Y0057518D01*
X0207518Y0060300D01*
X0203582Y0060300D01*
X0200800Y0057518D01*
X0200800Y0053582D01*
X0203582Y0050800D01*
X0201565Y0052818D02*
X0189818Y0052818D01*
X0190500Y0054416D02*
X0200800Y0054416D01*
X0200800Y0056015D02*
X0190500Y0056015D01*
X0190487Y0057613D02*
X0200896Y0057613D01*
X0202494Y0059212D02*
X0188889Y0059212D01*
X0182881Y0051219D02*
X0073734Y0051219D01*
X0063433Y0062409D02*
X0314451Y0062409D01*
X0314451Y0064007D02*
X0007225Y0064007D01*
X0007225Y0062409D02*
X0050917Y0062409D01*
X0047924Y0060810D02*
X0007225Y0060810D01*
X0007225Y0059212D02*
X0045746Y0059212D01*
X0044147Y0057613D02*
X0007225Y0057613D01*
X0007225Y0056015D02*
X0042880Y0056015D01*
X0041957Y0054416D02*
X0007225Y0054416D01*
X0007225Y0052818D02*
X0041045Y0052818D01*
X0040616Y0051219D02*
X0007225Y0051219D01*
X0007225Y0049620D02*
X0040188Y0049620D01*
X0039875Y0048022D02*
X0007225Y0048022D01*
X0007225Y0046423D02*
X0039875Y0046423D01*
X0039875Y0044825D02*
X0007225Y0044825D01*
X0007225Y0043226D02*
X0040055Y0043226D01*
X0040483Y0041628D02*
X0007225Y0041628D01*
X0007225Y0040029D02*
X0040911Y0040029D01*
X0041670Y0038431D02*
X0007225Y0038431D01*
X0007225Y0036832D02*
X0042593Y0036832D01*
X0043650Y0035234D02*
X0007225Y0035234D01*
X0007225Y0033635D02*
X0045249Y0033635D01*
X0047063Y0032037D02*
X0007225Y0032037D01*
X0007225Y0030438D02*
X0049832Y0030438D01*
X0064518Y0030438D02*
X0314451Y0030438D01*
X0314451Y0028840D02*
X0007225Y0028840D01*
X0007225Y0027241D02*
X0314451Y0027241D01*
X0314451Y0025643D02*
X0007225Y0025643D01*
X0007225Y0024044D02*
X0285165Y0024044D01*
X0285243Y0024122D02*
X0283228Y0022107D01*
X0282138Y0019475D01*
X0282138Y0016625D01*
X0283228Y0013993D01*
X0285243Y0011978D01*
X0287875Y0010888D01*
X0290725Y0010888D01*
X0293357Y0011978D01*
X0295372Y0013993D01*
X0296462Y0016625D01*
X0296462Y0019475D01*
X0295372Y0022107D01*
X0293357Y0024122D01*
X0290725Y0025212D01*
X0287875Y0025212D01*
X0285243Y0024122D01*
X0283567Y0022446D02*
X0007225Y0022446D01*
X0007225Y0020847D02*
X0282706Y0020847D01*
X0282138Y0019249D02*
X0007225Y0019249D01*
X0007225Y0017650D02*
X0282138Y0017650D01*
X0282375Y0016052D02*
X0007225Y0016052D01*
X0007225Y0014453D02*
X0283038Y0014453D01*
X0284366Y0012855D02*
X0007225Y0012855D01*
X0007225Y0011256D02*
X0286986Y0011256D01*
X0291614Y0011256D02*
X0314451Y0011256D01*
X0314451Y0009658D02*
X0007225Y0009658D01*
X0007225Y0008059D02*
X0314451Y0008059D01*
X0314451Y0012855D02*
X0294234Y0012855D01*
X0295562Y0014453D02*
X0314451Y0014453D01*
X0314451Y0016052D02*
X0296225Y0016052D01*
X0296462Y0017650D02*
X0314451Y0017650D01*
X0314451Y0019249D02*
X0296462Y0019249D01*
X0295894Y0020847D02*
X0314451Y0020847D01*
X0314451Y0022446D02*
X0295033Y0022446D01*
X0293435Y0024044D02*
X0314451Y0024044D01*
X0314451Y0032037D02*
X0303940Y0032037D01*
X0303815Y0031912D02*
X0305363Y0033459D01*
X0306200Y0035481D01*
X0306200Y0037669D01*
X0305363Y0039690D01*
X0303815Y0041238D01*
X0301794Y0042075D01*
X0291806Y0042075D01*
X0289784Y0041238D01*
X0288237Y0039690D01*
X0287400Y0037669D01*
X0287400Y0035481D01*
X0288237Y0033459D01*
X0289784Y0031912D01*
X0291806Y0031075D01*
X0301794Y0031075D01*
X0303815Y0031912D01*
X0305436Y0033635D02*
X0314451Y0033635D01*
X0314451Y0035234D02*
X0306098Y0035234D01*
X0306200Y0036832D02*
X0314451Y0036832D01*
X0314451Y0038431D02*
X0305884Y0038431D01*
X0305024Y0040029D02*
X0314451Y0040029D01*
X0314451Y0041628D02*
X0302873Y0041628D01*
X0290727Y0041628D02*
X0173337Y0041628D01*
X0173336Y0043226D02*
X0314451Y0043226D01*
X0314451Y0044825D02*
X0172674Y0044825D01*
X0171680Y0046423D02*
X0314451Y0046423D01*
X0314451Y0051219D02*
X0302624Y0051219D01*
X0304921Y0052818D02*
X0314451Y0052818D01*
X0314451Y0054416D02*
X0305842Y0054416D01*
X0306200Y0056015D02*
X0314451Y0056015D01*
X0314451Y0057613D02*
X0306140Y0057613D01*
X0305478Y0059212D02*
X0314451Y0059212D01*
X0314451Y0060810D02*
X0304043Y0060810D01*
X0314451Y0065606D02*
X0150828Y0065606D01*
X0149873Y0064650D02*
X0152450Y0067227D01*
X0152450Y0069050D01*
X0152450Y0070873D01*
X0150008Y0073315D01*
X0150429Y0073489D01*
X0151611Y0074671D01*
X0152250Y0076215D01*
X0152250Y0077885D01*
X0151611Y0079429D01*
X0150429Y0080611D01*
X0148885Y0081250D01*
X0147215Y0081250D01*
X0145671Y0080611D01*
X0144489Y0079429D01*
X0143850Y0077885D01*
X0143850Y0076215D01*
X0144489Y0074671D01*
X0145671Y0073489D01*
X0146092Y0073315D01*
X0143650Y0070873D01*
X0143650Y0069050D01*
X0148050Y0069050D01*
X0152450Y0069050D01*
X0148050Y0069050D01*
X0148050Y0069050D01*
X0148050Y0069050D01*
X0148050Y0064650D01*
X0149873Y0064650D01*
X0148050Y0064650D02*
X0148050Y0069050D01*
X0148050Y0069050D01*
X0143650Y0069050D01*
X0143650Y0067227D01*
X0146227Y0064650D01*
X0148050Y0064650D01*
X0148050Y0065606D02*
X0148050Y0065606D01*
X0148050Y0067204D02*
X0148050Y0067204D01*
X0148050Y0068803D02*
X0148050Y0068803D01*
X0143650Y0068803D02*
X0007225Y0068803D01*
X0007225Y0070401D02*
X0104949Y0070401D01*
X0106000Y0069350D02*
X0108050Y0069350D01*
X0110100Y0069350D01*
X0113000Y0072250D01*
X0113000Y0074300D01*
X0113000Y0076350D01*
X0110100Y0079250D01*
X0108050Y0079250D01*
X0108050Y0074300D01*
X0113000Y0074300D01*
X0108050Y0074300D01*
X0108050Y0074300D01*
X0108050Y0074300D01*
X0108050Y0069350D01*
X0108050Y0074300D01*
X0108050Y0074300D01*
X0108050Y0074300D01*
X0103100Y0074300D01*
X0103100Y0076350D01*
X0106000Y0079250D01*
X0108050Y0079250D01*
X0108050Y0074300D01*
X0103100Y0074300D01*
X0103100Y0072250D01*
X0106000Y0069350D01*
X0108050Y0070401D02*
X0108050Y0070401D01*
X0108050Y0072000D02*
X0108050Y0072000D01*
X0108050Y0073598D02*
X0108050Y0073598D01*
X0108050Y0075197D02*
X0108050Y0075197D01*
X0108050Y0076795D02*
X0108050Y0076795D01*
X0108050Y0078394D02*
X0108050Y0078394D01*
X0110957Y0078394D02*
X0125426Y0078394D01*
X0126082Y0079050D02*
X0123300Y0076268D01*
X0123300Y0072332D01*
X0126082Y0069550D01*
X0130018Y0069550D01*
X0132800Y0072332D01*
X0132800Y0076268D01*
X0130018Y0079050D01*
X0126082Y0079050D01*
X0123828Y0076795D02*
X0112555Y0076795D01*
X0113000Y0075197D02*
X0123300Y0075197D01*
X0123300Y0073598D02*
X0113000Y0073598D01*
X0112750Y0072000D02*
X0123633Y0072000D01*
X0125231Y0070401D02*
X0111151Y0070401D01*
X0103350Y0072000D02*
X0007225Y0072000D01*
X0007225Y0073598D02*
X0014746Y0073598D01*
X0014895Y0073450D02*
X0018705Y0073450D01*
X0021400Y0076145D01*
X0021400Y0079955D01*
X0018705Y0082650D01*
X0014895Y0082650D01*
X0012200Y0079955D01*
X0012200Y0076145D01*
X0014895Y0073450D01*
X0013148Y0075197D02*
X0007225Y0075197D01*
X0007225Y0076795D02*
X0012200Y0076795D01*
X0012200Y0078394D02*
X0007225Y0078394D01*
X0007225Y0079992D02*
X0012237Y0079992D01*
X0013835Y0081591D02*
X0007225Y0081591D01*
X0007225Y0083189D02*
X0043121Y0083189D01*
X0049229Y0083189D02*
X0053121Y0083189D01*
X0052614Y0083696D02*
X0053796Y0082514D01*
X0055340Y0081875D01*
X0057010Y0081875D01*
X0058554Y0082514D01*
X0059736Y0083696D01*
X0060375Y0085240D01*
X0060375Y0092110D01*
X0059736Y0093654D01*
X0058554Y0094836D01*
X0057010Y0095475D01*
X0055340Y0095475D01*
X0053796Y0094836D01*
X0052614Y0093654D01*
X0051975Y0092110D01*
X0051975Y0085240D01*
X0052614Y0083696D01*
X0052162Y0084788D02*
X0050188Y0084788D01*
X0050375Y0086386D02*
X0051975Y0086386D01*
X0051975Y0087985D02*
X0050375Y0087985D01*
X0050375Y0089583D02*
X0051975Y0089583D01*
X0051975Y0091182D02*
X0050375Y0091182D01*
X0050098Y0092780D02*
X0052252Y0092780D01*
X0053339Y0094379D02*
X0049011Y0094379D01*
X0043339Y0094379D02*
X0029634Y0094379D01*
X0023966Y0094379D02*
X0019634Y0094379D01*
X0021233Y0095977D02*
X0022367Y0095977D01*
X0022200Y0097576D02*
X0021400Y0097576D01*
X0021400Y0099174D02*
X0022200Y0099174D01*
X0023017Y0100773D02*
X0020583Y0100773D01*
X0018984Y0102371D02*
X0024616Y0102371D01*
X0024375Y0103970D02*
X0019225Y0103970D01*
X0020824Y0105568D02*
X0022776Y0105568D01*
X0022200Y0107167D02*
X0021400Y0107167D01*
X0021400Y0108765D02*
X0022200Y0108765D01*
X0022609Y0110364D02*
X0020991Y0110364D01*
X0019393Y0111962D02*
X0024207Y0111962D01*
X0024784Y0113561D02*
X0018816Y0113561D01*
X0020415Y0115159D02*
X0023185Y0115159D01*
X0022200Y0116758D02*
X0021400Y0116758D01*
X0021400Y0118356D02*
X0022200Y0118356D01*
X0023798Y0121553D02*
X0019802Y0121553D01*
X0020006Y0124751D02*
X0023594Y0124751D01*
X0022200Y0126349D02*
X0021400Y0126349D01*
X0021400Y0127948D02*
X0022200Y0127948D01*
X0022200Y0129546D02*
X0021400Y0129546D01*
X0020211Y0131145D02*
X0023389Y0131145D01*
X0046175Y0124751D02*
X0046175Y0124751D01*
X0046175Y0123152D02*
X0046175Y0123152D01*
X0046175Y0121553D02*
X0046175Y0121553D01*
X0046175Y0119955D02*
X0046175Y0119955D01*
X0046175Y0118356D02*
X0046175Y0118356D01*
X0046175Y0116758D02*
X0046175Y0116758D01*
X0046175Y0115159D02*
X0046175Y0115159D01*
X0046175Y0113561D02*
X0046175Y0113561D01*
X0049787Y0113561D02*
X0052749Y0113561D01*
X0052008Y0115159D02*
X0050485Y0115159D01*
X0050575Y0116758D02*
X0051975Y0116758D01*
X0051975Y0118356D02*
X0050575Y0118356D01*
X0050575Y0119955D02*
X0051975Y0119955D01*
X0051975Y0121553D02*
X0050575Y0121553D01*
X0050157Y0123152D02*
X0052406Y0123152D01*
X0053711Y0124751D02*
X0048877Y0124751D01*
X0058639Y0124751D02*
X0063711Y0124751D01*
X0062406Y0123152D02*
X0059944Y0123152D01*
X0060375Y0121553D02*
X0061975Y0121553D01*
X0061975Y0119955D02*
X0060375Y0119955D01*
X0060375Y0118356D02*
X0061975Y0118356D01*
X0061975Y0116758D02*
X0060375Y0116758D01*
X0060342Y0115159D02*
X0062008Y0115159D01*
X0062749Y0113561D02*
X0059601Y0113561D01*
X0069601Y0113561D02*
X0072563Y0113561D01*
X0071865Y0115159D02*
X0070342Y0115159D01*
X0070375Y0116758D02*
X0071775Y0116758D01*
X0071775Y0118356D02*
X0070375Y0118356D01*
X0070375Y0119955D02*
X0071775Y0119955D01*
X0071775Y0121553D02*
X0070375Y0121553D01*
X0069944Y0123152D02*
X0072193Y0123152D01*
X0073473Y0124751D02*
X0068639Y0124751D01*
X0076175Y0124751D02*
X0076175Y0124751D01*
X0076175Y0123152D02*
X0076175Y0123152D01*
X0076175Y0121553D02*
X0076175Y0121553D01*
X0076175Y0119955D02*
X0076175Y0119955D01*
X0076175Y0118356D02*
X0076175Y0118356D01*
X0076175Y0116758D02*
X0076175Y0116758D01*
X0076175Y0115159D02*
X0076175Y0115159D01*
X0076175Y0113561D02*
X0076175Y0113561D01*
X0079787Y0113561D02*
X0082749Y0113561D01*
X0082008Y0115159D02*
X0080485Y0115159D01*
X0080575Y0116758D02*
X0081975Y0116758D01*
X0081975Y0118356D02*
X0080575Y0118356D01*
X0080575Y0119955D02*
X0081975Y0119955D01*
X0081975Y0121553D02*
X0080575Y0121553D01*
X0080157Y0123152D02*
X0082406Y0123152D01*
X0083711Y0124751D02*
X0078877Y0124751D01*
X0088639Y0124751D02*
X0093711Y0124751D01*
X0092406Y0123152D02*
X0089944Y0123152D01*
X0090375Y0121553D02*
X0091975Y0121553D01*
X0091975Y0119955D02*
X0090375Y0119955D01*
X0090375Y0118356D02*
X0091975Y0118356D01*
X0091975Y0116758D02*
X0090375Y0116758D01*
X0090342Y0115159D02*
X0092008Y0115159D01*
X0092749Y0113561D02*
X0089601Y0113561D01*
X0099601Y0113561D02*
X0102563Y0113561D01*
X0101865Y0115159D02*
X0100342Y0115159D01*
X0100375Y0116758D02*
X0101775Y0116758D01*
X0101775Y0118356D02*
X0100375Y0118356D01*
X0100375Y0119955D02*
X0101775Y0119955D01*
X0101775Y0121553D02*
X0100375Y0121553D01*
X0099944Y0123152D02*
X0102193Y0123152D01*
X0103473Y0124751D02*
X0098639Y0124751D01*
X0106175Y0124751D02*
X0106175Y0124751D01*
X0106175Y0123152D02*
X0106175Y0123152D01*
X0106175Y0121553D02*
X0106175Y0121553D01*
X0106175Y0119955D02*
X0106175Y0119955D01*
X0106175Y0118356D02*
X0106175Y0118356D01*
X0106175Y0116758D02*
X0106175Y0116758D01*
X0106175Y0115159D02*
X0106175Y0115159D01*
X0106175Y0113561D02*
X0106175Y0113561D01*
X0109787Y0113561D02*
X0112849Y0113561D01*
X0112600Y0115159D02*
X0110485Y0115159D01*
X0110575Y0116758D02*
X0112600Y0116758D01*
X0113667Y0118356D02*
X0110575Y0118356D01*
X0110575Y0119955D02*
X0181225Y0119955D01*
X0181225Y0120550D02*
X0181225Y0118500D01*
X0184125Y0115600D01*
X0186175Y0115600D01*
X0188225Y0115600D01*
X0191125Y0118500D01*
X0191125Y0120550D01*
X0191125Y0122600D01*
X0188225Y0125500D01*
X0186175Y0125500D01*
X0186175Y0120550D01*
X0191125Y0120550D01*
X0186175Y0120550D01*
X0186175Y0120550D01*
X0186175Y0120550D01*
X0186175Y0115600D01*
X0186175Y0120550D01*
X0186175Y0120550D01*
X0186175Y0120550D01*
X0181225Y0120550D01*
X0181225Y0122600D01*
X0184125Y0125500D01*
X0186175Y0125500D01*
X0186175Y0120550D01*
X0181225Y0120550D01*
X0181225Y0121553D02*
X0110575Y0121553D01*
X0110157Y0123152D02*
X0181777Y0123152D01*
X0183375Y0124751D02*
X0108877Y0124751D01*
X0119933Y0118356D02*
X0181368Y0118356D01*
X0182967Y0116758D02*
X0121000Y0116758D01*
X0142027Y0127948D02*
X0314451Y0127948D01*
X0314451Y0129546D02*
X0142500Y0129546D01*
X0142341Y0131145D02*
X0314451Y0131145D01*
X0314451Y0132743D02*
X0141422Y0132743D01*
X0139509Y0147130D02*
X0314451Y0147130D01*
X0314451Y0148728D02*
X0141793Y0148728D01*
X0142495Y0150327D02*
X0314451Y0150327D01*
X0314451Y0151925D02*
X0142500Y0151925D01*
X0141873Y0153524D02*
X0314451Y0153524D01*
X0314451Y0155122D02*
X0303875Y0155122D01*
X0303815Y0155062D02*
X0305363Y0156609D01*
X0306200Y0158631D01*
X0306200Y0160819D01*
X0305363Y0162840D01*
X0303815Y0164388D01*
X0301794Y0165225D01*
X0291806Y0165225D01*
X0289784Y0164388D01*
X0288237Y0162840D01*
X0287400Y0160819D01*
X0287400Y0158631D01*
X0288237Y0156609D01*
X0289784Y0155062D01*
X0291806Y0154225D01*
X0301794Y0154225D01*
X0303815Y0155062D01*
X0305409Y0156721D02*
X0314451Y0156721D01*
X0314451Y0158319D02*
X0306071Y0158319D01*
X0306200Y0159918D02*
X0314451Y0159918D01*
X0314451Y0161516D02*
X0305911Y0161516D01*
X0305088Y0163115D02*
X0314451Y0163115D01*
X0314451Y0164713D02*
X0303029Y0164713D01*
X0290571Y0164713D02*
X0266076Y0164713D01*
X0266040Y0164750D02*
X0262560Y0164750D01*
X0260100Y0162290D01*
X0260100Y0158810D01*
X0262560Y0156350D01*
X0266040Y0156350D01*
X0268500Y0158810D01*
X0268500Y0162290D01*
X0266040Y0164750D01*
X0267675Y0163115D02*
X0288512Y0163115D01*
X0287689Y0161516D02*
X0268500Y0161516D01*
X0268500Y0159918D02*
X0287400Y0159918D01*
X0287529Y0158319D02*
X0268009Y0158319D01*
X0266410Y0156721D02*
X0288191Y0156721D01*
X0289725Y0155122D02*
X0139746Y0155122D01*
X0136854Y0155122D02*
X0132575Y0155122D01*
X0134174Y0153524D02*
X0134727Y0153524D01*
X0130300Y0153524D02*
X0130300Y0153524D01*
X0130300Y0155122D02*
X0130300Y0155122D01*
X0128025Y0155122D02*
X0121750Y0155122D01*
X0121149Y0153524D02*
X0126426Y0153524D01*
X0130300Y0151925D02*
X0130300Y0151925D01*
X0130300Y0150327D02*
X0130300Y0150327D01*
X0130300Y0148728D02*
X0130300Y0148728D01*
X0130300Y0147130D02*
X0130300Y0147130D01*
X0132477Y0147130D02*
X0137091Y0147130D01*
X0134807Y0148728D02*
X0134076Y0148728D01*
X0186175Y0124751D02*
X0186175Y0124751D01*
X0186175Y0123152D02*
X0186175Y0123152D01*
X0186175Y0121553D02*
X0186175Y0121553D01*
X0186175Y0119955D02*
X0186175Y0119955D01*
X0186175Y0118356D02*
X0186175Y0118356D01*
X0186175Y0116758D02*
X0186175Y0116758D01*
X0189383Y0116758D02*
X0203250Y0116758D01*
X0204207Y0115800D02*
X0201425Y0118582D01*
X0201425Y0122518D01*
X0204207Y0125300D01*
X0208143Y0125300D01*
X0210925Y0122518D01*
X0210925Y0118582D01*
X0208143Y0115800D01*
X0204207Y0115800D01*
X0201651Y0118356D02*
X0190982Y0118356D01*
X0191125Y0119955D02*
X0201425Y0119955D01*
X0201425Y0121553D02*
X0191125Y0121553D01*
X0190573Y0123152D02*
X0202059Y0123152D01*
X0203658Y0124751D02*
X0188975Y0124751D01*
X0208692Y0124751D02*
X0219283Y0124751D01*
X0219832Y0125300D02*
X0217050Y0122518D01*
X0217050Y0118582D01*
X0219832Y0115800D01*
X0223768Y0115800D01*
X0226550Y0118582D01*
X0226550Y0122518D01*
X0223768Y0125300D01*
X0219832Y0125300D01*
X0217684Y0123152D02*
X0210290Y0123152D01*
X0210925Y0121553D02*
X0217050Y0121553D01*
X0217050Y0119955D02*
X0210925Y0119955D01*
X0210699Y0118356D02*
X0217276Y0118356D01*
X0218875Y0116758D02*
X0209100Y0116758D01*
X0224725Y0116758D02*
X0230902Y0116758D01*
X0231310Y0116350D02*
X0234790Y0116350D01*
X0237250Y0118810D01*
X0237250Y0122290D01*
X0234790Y0124750D01*
X0231310Y0124750D01*
X0228850Y0122290D01*
X0228850Y0118810D01*
X0231310Y0116350D01*
X0229304Y0118356D02*
X0226324Y0118356D01*
X0226550Y0119955D02*
X0228850Y0119955D01*
X0228850Y0121553D02*
X0226550Y0121553D01*
X0225915Y0123152D02*
X0229712Y0123152D01*
X0224317Y0124751D02*
X0289547Y0124751D01*
X0288118Y0123152D02*
X0266388Y0123152D01*
X0267250Y0122290D02*
X0264790Y0124750D01*
X0261310Y0124750D01*
X0258850Y0122290D01*
X0258850Y0118810D01*
X0261310Y0116350D01*
X0264790Y0116350D01*
X0267250Y0118810D01*
X0267250Y0122290D01*
X0267250Y0121553D02*
X0287456Y0121553D01*
X0287400Y0119955D02*
X0267250Y0119955D01*
X0266796Y0118356D02*
X0287762Y0118356D01*
X0288689Y0116758D02*
X0265198Y0116758D01*
X0260902Y0116758D02*
X0235198Y0116758D01*
X0236796Y0118356D02*
X0259304Y0118356D01*
X0258850Y0119955D02*
X0237250Y0119955D01*
X0237250Y0121553D02*
X0258850Y0121553D01*
X0259712Y0123152D02*
X0236388Y0123152D01*
X0219692Y0135940D02*
X0208283Y0135940D01*
X0209881Y0137539D02*
X0218094Y0137539D01*
X0217050Y0139137D02*
X0210925Y0139137D01*
X0210925Y0140736D02*
X0217050Y0140736D01*
X0217050Y0142334D02*
X0210925Y0142334D01*
X0209510Y0143933D02*
X0218465Y0143933D01*
X0218582Y0155800D02*
X0222518Y0155800D01*
X0225300Y0158582D01*
X0225300Y0162518D01*
X0222518Y0165300D01*
X0218582Y0165300D01*
X0215800Y0162518D01*
X0215800Y0158582D01*
X0218582Y0155800D01*
X0217662Y0156721D02*
X0208438Y0156721D01*
X0210037Y0158319D02*
X0216063Y0158319D01*
X0215800Y0159918D02*
X0210300Y0159918D01*
X0210300Y0161516D02*
X0215800Y0161516D01*
X0216397Y0163115D02*
X0209703Y0163115D01*
X0208104Y0164713D02*
X0217996Y0164713D01*
X0223104Y0164713D02*
X0232524Y0164713D01*
X0232560Y0164750D02*
X0230100Y0162290D01*
X0230100Y0158810D01*
X0232560Y0156350D01*
X0236040Y0156350D01*
X0238500Y0158810D01*
X0238500Y0162290D01*
X0236040Y0164750D01*
X0232560Y0164750D01*
X0230925Y0163115D02*
X0224703Y0163115D01*
X0225300Y0161516D02*
X0230100Y0161516D01*
X0230100Y0159918D02*
X0225300Y0159918D01*
X0225037Y0158319D02*
X0230591Y0158319D01*
X0232190Y0156721D02*
X0223438Y0156721D01*
X0236410Y0156721D02*
X0262190Y0156721D01*
X0260591Y0158319D02*
X0238009Y0158319D01*
X0238500Y0159918D02*
X0260100Y0159918D01*
X0260100Y0161516D02*
X0238500Y0161516D01*
X0237675Y0163115D02*
X0260925Y0163115D01*
X0262524Y0164713D02*
X0236076Y0164713D01*
X0218480Y0175903D02*
X0207620Y0175903D01*
X0209219Y0177501D02*
X0216881Y0177501D01*
X0215800Y0179100D02*
X0210300Y0179100D01*
X0210300Y0180698D02*
X0215800Y0180698D01*
X0215800Y0182297D02*
X0210300Y0182297D01*
X0208922Y0183895D02*
X0217178Y0183895D01*
X0314451Y0110364D02*
X0030991Y0110364D01*
X0031400Y0108765D02*
X0314451Y0108765D01*
X0314451Y0107167D02*
X0031400Y0107167D01*
X0030824Y0105568D02*
X0314451Y0105568D01*
X0314451Y0103970D02*
X0029225Y0103970D01*
X0028984Y0102371D02*
X0314451Y0102371D01*
X0314451Y0100773D02*
X0303006Y0100773D01*
X0305079Y0099174D02*
X0314451Y0099174D01*
X0314451Y0097576D02*
X0305907Y0097576D01*
X0306200Y0095977D02*
X0314451Y0095977D01*
X0314451Y0094379D02*
X0306075Y0094379D01*
X0305413Y0092780D02*
X0314451Y0092780D01*
X0314451Y0091182D02*
X0303885Y0091182D01*
X0314451Y0089583D02*
X0118706Y0089583D01*
X0120305Y0087985D02*
X0314451Y0087985D01*
X0314451Y0086386D02*
X0121000Y0086386D01*
X0121000Y0084788D02*
X0314451Y0084788D01*
X0314451Y0083189D02*
X0120379Y0083189D01*
X0118780Y0081591D02*
X0314451Y0081591D01*
X0314451Y0079992D02*
X0304461Y0079992D01*
X0305651Y0078394D02*
X0314451Y0078394D01*
X0314451Y0076795D02*
X0306200Y0076795D01*
X0306200Y0075197D02*
X0314451Y0075197D01*
X0314451Y0073598D02*
X0305669Y0073598D01*
X0304503Y0072000D02*
X0314451Y0072000D01*
X0314451Y0070401D02*
X0152450Y0070401D01*
X0152450Y0068803D02*
X0314451Y0068803D01*
X0314451Y0067204D02*
X0152427Y0067204D01*
X0151323Y0072000D02*
X0182100Y0072000D01*
X0183500Y0070600D02*
X0180600Y0073500D01*
X0180600Y0075550D01*
X0185550Y0075550D01*
X0190500Y0075550D01*
X0190500Y0077600D01*
X0187600Y0080500D01*
X0185550Y0080500D01*
X0185550Y0075550D01*
X0185550Y0075550D01*
X0185550Y0075550D01*
X0190500Y0075550D01*
X0190500Y0073500D01*
X0187600Y0070600D01*
X0185550Y0070600D01*
X0185550Y0075550D01*
X0185550Y0075550D01*
X0185550Y0075550D01*
X0185550Y0080500D01*
X0183500Y0080500D01*
X0180600Y0077600D01*
X0180600Y0075550D01*
X0185550Y0075550D01*
X0185550Y0070600D01*
X0183500Y0070600D01*
X0185550Y0072000D02*
X0185550Y0072000D01*
X0185550Y0073598D02*
X0185550Y0073598D01*
X0185550Y0075197D02*
X0185550Y0075197D01*
X0185550Y0076795D02*
X0185550Y0076795D01*
X0185550Y0078394D02*
X0185550Y0078394D01*
X0185550Y0079992D02*
X0185550Y0079992D01*
X0188108Y0079992D02*
X0203275Y0079992D01*
X0203582Y0080300D02*
X0200800Y0077518D01*
X0200800Y0073582D01*
X0203582Y0070800D01*
X0207518Y0070800D01*
X0210300Y0073582D01*
X0210300Y0077518D01*
X0207518Y0080300D01*
X0203582Y0080300D01*
X0201676Y0078394D02*
X0189707Y0078394D01*
X0190500Y0076795D02*
X0200800Y0076795D01*
X0200800Y0075197D02*
X0190500Y0075197D01*
X0190500Y0073598D02*
X0200800Y0073598D01*
X0202383Y0072000D02*
X0189000Y0072000D01*
X0180600Y0073598D02*
X0150538Y0073598D01*
X0151828Y0075197D02*
X0180600Y0075197D01*
X0180600Y0076795D02*
X0152250Y0076795D01*
X0152039Y0078394D02*
X0181393Y0078394D01*
X0182992Y0079992D02*
X0151047Y0079992D01*
X0145053Y0079992D02*
X0031363Y0079992D01*
X0031400Y0078394D02*
X0105143Y0078394D01*
X0103545Y0076795D02*
X0031400Y0076795D01*
X0030452Y0075197D02*
X0103100Y0075197D01*
X0103100Y0073598D02*
X0028854Y0073598D01*
X0024746Y0073598D02*
X0018854Y0073598D01*
X0020452Y0075197D02*
X0023148Y0075197D01*
X0022200Y0076795D02*
X0021400Y0076795D01*
X0021400Y0078394D02*
X0022200Y0078394D01*
X0022237Y0079992D02*
X0021363Y0079992D01*
X0019765Y0081591D02*
X0023835Y0081591D01*
X0023557Y0084788D02*
X0020043Y0084788D01*
X0021400Y0086386D02*
X0022200Y0086386D01*
X0022200Y0087985D02*
X0021400Y0087985D01*
X0021400Y0089583D02*
X0022200Y0089583D01*
X0023426Y0091182D02*
X0020174Y0091182D01*
X0012200Y0089583D02*
X0007225Y0089583D01*
X0007225Y0087985D02*
X0012200Y0087985D01*
X0012200Y0086386D02*
X0007225Y0086386D01*
X0007225Y0084788D02*
X0013557Y0084788D01*
X0007225Y0067204D02*
X0143673Y0067204D01*
X0145272Y0065606D02*
X0007225Y0065606D01*
X0059229Y0083189D02*
X0062838Y0083189D01*
X0062819Y0083209D02*
X0063309Y0082719D01*
X0063869Y0082312D01*
X0064486Y0081997D01*
X0065145Y0081783D01*
X0065829Y0081675D01*
X0066175Y0081675D01*
X0066521Y0081675D01*
X0067205Y0081783D01*
X0067864Y0081997D01*
X0068481Y0082312D01*
X0069041Y0082719D01*
X0069531Y0083209D01*
X0069938Y0083769D01*
X0070253Y0084386D01*
X0070467Y0085045D01*
X0070575Y0085729D01*
X0070575Y0088675D01*
X0070575Y0091621D01*
X0070467Y0092305D01*
X0070253Y0092964D01*
X0069938Y0093581D01*
X0069531Y0094141D01*
X0069041Y0094631D01*
X0068481Y0095038D01*
X0067864Y0095353D01*
X0067205Y0095567D01*
X0066521Y0095675D01*
X0066175Y0095675D01*
X0066175Y0088675D01*
X0066175Y0088675D01*
X0070575Y0088675D01*
X0066175Y0088675D01*
X0066175Y0088675D01*
X0066175Y0088675D01*
X0061775Y0088675D01*
X0061775Y0091621D01*
X0061883Y0092305D01*
X0062097Y0092964D01*
X0062412Y0093581D01*
X0062819Y0094141D01*
X0063309Y0094631D01*
X0063869Y0095038D01*
X0064486Y0095353D01*
X0065145Y0095567D01*
X0065829Y0095675D01*
X0066175Y0095675D01*
X0066175Y0088675D01*
X0066175Y0081675D01*
X0066175Y0088675D01*
X0066175Y0088675D01*
X0061775Y0088675D01*
X0061775Y0085729D01*
X0061883Y0085045D01*
X0062097Y0084386D01*
X0062412Y0083769D01*
X0062819Y0083209D01*
X0061967Y0084788D02*
X0060188Y0084788D01*
X0060375Y0086386D02*
X0061775Y0086386D01*
X0061775Y0087985D02*
X0060375Y0087985D01*
X0060375Y0089583D02*
X0061775Y0089583D01*
X0061775Y0091182D02*
X0060375Y0091182D01*
X0060098Y0092780D02*
X0062038Y0092780D01*
X0063056Y0094379D02*
X0059011Y0094379D01*
X0066175Y0094379D02*
X0066175Y0094379D01*
X0066175Y0092780D02*
X0066175Y0092780D01*
X0066175Y0091182D02*
X0066175Y0091182D01*
X0066175Y0089583D02*
X0066175Y0089583D01*
X0066175Y0087985D02*
X0066175Y0087985D01*
X0066175Y0086386D02*
X0066175Y0086386D01*
X0066175Y0084788D02*
X0066175Y0084788D01*
X0066175Y0083189D02*
X0066175Y0083189D01*
X0069512Y0083189D02*
X0073121Y0083189D01*
X0072614Y0083696D02*
X0073796Y0082514D01*
X0075340Y0081875D01*
X0077010Y0081875D01*
X0078554Y0082514D01*
X0079736Y0083696D01*
X0080375Y0085240D01*
X0080375Y0092110D01*
X0079736Y0093654D01*
X0078554Y0094836D01*
X0077010Y0095475D01*
X0075340Y0095475D01*
X0073796Y0094836D01*
X0072614Y0093654D01*
X0071975Y0092110D01*
X0071975Y0085240D01*
X0072614Y0083696D01*
X0072162Y0084788D02*
X0070383Y0084788D01*
X0070575Y0086386D02*
X0071975Y0086386D01*
X0071975Y0087985D02*
X0070575Y0087985D01*
X0070575Y0089583D02*
X0071975Y0089583D01*
X0071975Y0091182D02*
X0070575Y0091182D01*
X0070312Y0092780D02*
X0072252Y0092780D01*
X0073339Y0094379D02*
X0069294Y0094379D01*
X0079011Y0094379D02*
X0083339Y0094379D01*
X0083796Y0094836D02*
X0082614Y0093654D01*
X0081975Y0092110D01*
X0081975Y0085240D01*
X0082614Y0083696D01*
X0083796Y0082514D01*
X0085340Y0081875D01*
X0087010Y0081875D01*
X0088554Y0082514D01*
X0089736Y0083696D01*
X0090375Y0085240D01*
X0090375Y0092110D01*
X0089736Y0093654D01*
X0088554Y0094836D01*
X0087010Y0095475D01*
X0085340Y0095475D01*
X0083796Y0094836D01*
X0082252Y0092780D02*
X0080098Y0092780D01*
X0080375Y0091182D02*
X0081975Y0091182D01*
X0081975Y0089583D02*
X0080375Y0089583D01*
X0080375Y0087985D02*
X0081975Y0087985D01*
X0081975Y0086386D02*
X0080375Y0086386D01*
X0080188Y0084788D02*
X0082162Y0084788D01*
X0083121Y0083189D02*
X0079229Y0083189D01*
X0089229Y0083189D02*
X0092838Y0083189D01*
X0092819Y0083209D02*
X0093309Y0082719D01*
X0093869Y0082312D01*
X0094486Y0081997D01*
X0095145Y0081783D01*
X0095829Y0081675D01*
X0096175Y0081675D01*
X0096521Y0081675D01*
X0097205Y0081783D01*
X0097864Y0081997D01*
X0098481Y0082312D01*
X0099041Y0082719D01*
X0099531Y0083209D01*
X0099938Y0083769D01*
X0100253Y0084386D01*
X0100467Y0085045D01*
X0100575Y0085729D01*
X0100575Y0088675D01*
X0100575Y0091621D01*
X0100467Y0092305D01*
X0100253Y0092964D01*
X0099938Y0093581D01*
X0099531Y0094141D01*
X0099041Y0094631D01*
X0098481Y0095038D01*
X0097864Y0095353D01*
X0097205Y0095567D01*
X0096521Y0095675D01*
X0096175Y0095675D01*
X0096175Y0088675D01*
X0096175Y0088675D01*
X0100575Y0088675D01*
X0096175Y0088675D01*
X0096175Y0088675D01*
X0096175Y0088675D01*
X0091775Y0088675D01*
X0091775Y0091621D01*
X0091883Y0092305D01*
X0092097Y0092964D01*
X0092412Y0093581D01*
X0092819Y0094141D01*
X0093309Y0094631D01*
X0093869Y0095038D01*
X0094486Y0095353D01*
X0095145Y0095567D01*
X0095829Y0095675D01*
X0096175Y0095675D01*
X0096175Y0088675D01*
X0096175Y0081675D01*
X0096175Y0088675D01*
X0096175Y0088675D01*
X0091775Y0088675D01*
X0091775Y0085729D01*
X0091883Y0085045D01*
X0092097Y0084386D01*
X0092412Y0083769D01*
X0092819Y0083209D01*
X0091967Y0084788D02*
X0090188Y0084788D01*
X0090375Y0086386D02*
X0091775Y0086386D01*
X0091775Y0087985D02*
X0090375Y0087985D01*
X0090375Y0089583D02*
X0091775Y0089583D01*
X0091775Y0091182D02*
X0090375Y0091182D01*
X0090098Y0092780D02*
X0092038Y0092780D01*
X0093056Y0094379D02*
X0089011Y0094379D01*
X0096175Y0094379D02*
X0096175Y0094379D01*
X0096175Y0092780D02*
X0096175Y0092780D01*
X0096175Y0091182D02*
X0096175Y0091182D01*
X0096175Y0089583D02*
X0096175Y0089583D01*
X0096175Y0087985D02*
X0096175Y0087985D01*
X0096175Y0086386D02*
X0096175Y0086386D01*
X0096175Y0084788D02*
X0096175Y0084788D01*
X0096175Y0083189D02*
X0096175Y0083189D01*
X0099512Y0083189D02*
X0103121Y0083189D01*
X0102162Y0084788D02*
X0100383Y0084788D01*
X0100575Y0086386D02*
X0101975Y0086386D01*
X0101975Y0087985D02*
X0100575Y0087985D01*
X0100575Y0089583D02*
X0101975Y0089583D01*
X0101975Y0091182D02*
X0100575Y0091182D01*
X0100312Y0092780D02*
X0102252Y0092780D01*
X0103339Y0094379D02*
X0099294Y0094379D01*
X0130674Y0078394D02*
X0144061Y0078394D01*
X0143850Y0076795D02*
X0132272Y0076795D01*
X0132800Y0075197D02*
X0144272Y0075197D01*
X0145562Y0073598D02*
X0132800Y0073598D01*
X0132467Y0072000D02*
X0144777Y0072000D01*
X0143650Y0070401D02*
X0130869Y0070401D01*
X0133507Y0052818D02*
X0136060Y0052818D01*
X0132163Y0040029D02*
X0146154Y0040029D01*
X0144556Y0038431D02*
X0133762Y0038431D01*
X0134050Y0036832D02*
X0144350Y0036832D01*
X0144350Y0035234D02*
X0134050Y0035234D01*
X0133478Y0033635D02*
X0144839Y0033635D01*
X0146438Y0032037D02*
X0131879Y0032037D01*
X0116375Y0041628D02*
X0115975Y0041628D01*
X0115975Y0043226D02*
X0116375Y0043226D01*
X0116375Y0044825D02*
X0115975Y0044825D01*
X0115975Y0046423D02*
X0116375Y0046423D01*
X0116375Y0048022D02*
X0115975Y0048022D01*
X0115975Y0049620D02*
X0116375Y0049620D01*
X0169039Y0035234D02*
X0180600Y0035234D01*
X0180600Y0036832D02*
X0171336Y0036832D01*
X0172532Y0038431D02*
X0181431Y0038431D01*
X0183029Y0040029D02*
X0173194Y0040029D01*
X0207788Y0040029D02*
X0218937Y0040029D01*
X0219207Y0040300D02*
X0216425Y0037518D01*
X0216425Y0033582D01*
X0219207Y0030800D01*
X0223143Y0030800D01*
X0225925Y0033582D01*
X0225925Y0037518D01*
X0223143Y0040300D01*
X0219207Y0040300D01*
X0217338Y0038431D02*
X0209387Y0038431D01*
X0210300Y0036832D02*
X0216425Y0036832D01*
X0216425Y0035234D02*
X0210300Y0035234D01*
X0210300Y0033635D02*
X0216425Y0033635D01*
X0217971Y0032037D02*
X0208754Y0032037D01*
X0224379Y0032037D02*
X0231873Y0032037D01*
X0232560Y0031350D02*
X0230100Y0033810D01*
X0230100Y0037290D01*
X0232560Y0039750D01*
X0236040Y0039750D01*
X0238500Y0037290D01*
X0238500Y0033810D01*
X0236040Y0031350D01*
X0232560Y0031350D01*
X0230275Y0033635D02*
X0225925Y0033635D01*
X0225925Y0035234D02*
X0230100Y0035234D01*
X0230100Y0036832D02*
X0225925Y0036832D01*
X0225012Y0038431D02*
X0231241Y0038431D01*
X0237359Y0038431D02*
X0261241Y0038431D01*
X0260100Y0037290D02*
X0260100Y0033810D01*
X0262560Y0031350D01*
X0266040Y0031350D01*
X0268500Y0033810D01*
X0268500Y0037290D01*
X0266040Y0039750D01*
X0262560Y0039750D01*
X0260100Y0037290D01*
X0260100Y0036832D02*
X0238500Y0036832D01*
X0238500Y0035234D02*
X0260100Y0035234D01*
X0260275Y0033635D02*
X0238325Y0033635D01*
X0236727Y0032037D02*
X0261873Y0032037D01*
X0266727Y0032037D02*
X0289660Y0032037D01*
X0288164Y0033635D02*
X0268325Y0033635D01*
X0268500Y0035234D02*
X0287502Y0035234D01*
X0287400Y0036832D02*
X0268500Y0036832D01*
X0267359Y0038431D02*
X0287716Y0038431D01*
X0288576Y0040029D02*
X0223413Y0040029D01*
X0223143Y0050800D02*
X0219207Y0050800D01*
X0216425Y0053582D01*
X0216425Y0057518D01*
X0219207Y0060300D01*
X0223143Y0060300D01*
X0225925Y0057518D01*
X0225925Y0053582D01*
X0223143Y0050800D01*
X0223562Y0051219D02*
X0290975Y0051219D01*
X0288679Y0052818D02*
X0267507Y0052818D01*
X0268500Y0053810D02*
X0266040Y0051350D01*
X0262560Y0051350D01*
X0260100Y0053810D01*
X0260100Y0057290D01*
X0262560Y0059750D01*
X0266040Y0059750D01*
X0268500Y0057290D01*
X0268500Y0053810D01*
X0268500Y0054416D02*
X0287758Y0054416D01*
X0287400Y0056015D02*
X0268500Y0056015D01*
X0268177Y0057613D02*
X0287460Y0057613D01*
X0288122Y0059212D02*
X0266578Y0059212D01*
X0262022Y0059212D02*
X0236578Y0059212D01*
X0236040Y0059750D02*
X0232560Y0059750D01*
X0230100Y0057290D01*
X0230100Y0053810D01*
X0232560Y0051350D01*
X0236040Y0051350D01*
X0238500Y0053810D01*
X0238500Y0057290D01*
X0236040Y0059750D01*
X0238177Y0057613D02*
X0260423Y0057613D01*
X0260100Y0056015D02*
X0238500Y0056015D01*
X0238500Y0054416D02*
X0260100Y0054416D01*
X0261093Y0052818D02*
X0237507Y0052818D01*
X0231093Y0052818D02*
X0225160Y0052818D01*
X0225925Y0054416D02*
X0230100Y0054416D01*
X0230100Y0056015D02*
X0225925Y0056015D01*
X0225829Y0057613D02*
X0230423Y0057613D01*
X0232022Y0059212D02*
X0224231Y0059212D01*
X0218119Y0059212D02*
X0208606Y0059212D01*
X0210204Y0057613D02*
X0216521Y0057613D01*
X0216425Y0056015D02*
X0210300Y0056015D01*
X0210300Y0054416D02*
X0216425Y0054416D01*
X0217190Y0052818D02*
X0209535Y0052818D01*
X0207937Y0051219D02*
X0218788Y0051219D01*
X0217383Y0072000D02*
X0208717Y0072000D01*
X0210300Y0073598D02*
X0215800Y0073598D01*
X0215800Y0075197D02*
X0210300Y0075197D01*
X0210300Y0076795D02*
X0215800Y0076795D01*
X0216676Y0078394D02*
X0209424Y0078394D01*
X0207825Y0079992D02*
X0218275Y0079992D01*
X0218201Y0091182D02*
X0207899Y0091182D01*
X0209498Y0092780D02*
X0216602Y0092780D01*
X0215800Y0094379D02*
X0210300Y0094379D01*
X0210300Y0095977D02*
X0215800Y0095977D01*
X0215858Y0097576D02*
X0210242Y0097576D01*
X0208643Y0099174D02*
X0217457Y0099174D01*
X0058690Y0153524D02*
X0042941Y0153524D01*
X0044719Y0155122D02*
X0057168Y0155122D01*
X0056506Y0156721D02*
X0045432Y0156721D01*
X0045649Y0158319D02*
X0056400Y0158319D01*
X0056729Y0159918D02*
X0045454Y0159918D01*
X0044771Y0161516D02*
X0057630Y0161516D01*
X0029284Y0163115D02*
X0021610Y0163115D01*
M02*
