G75*
%MOIN*%
%OFA0B0*%
%FSLAX25Y25*%
%IPPOS*%
%LPD*%
%AMOC8*
5,1,8,0,0,1.08239X$1,22.5*
%
%ADD10C,0.00000*%
%ADD11OC8,0.05200*%
%ADD12C,0.05200*%
%ADD13OC8,0.06300*%
%ADD14R,0.01378X0.04724*%
%ADD15C,0.05200*%
%ADD16C,0.06000*%
%ADD17OC8,0.06000*%
%ADD18C,0.07800*%
%ADD19C,0.07874*%
%ADD20C,0.07600*%
%ADD21C,0.01200*%
%ADD22C,0.01600*%
%ADD23C,0.01000*%
%ADD24C,0.02400*%
D10*
X0002425Y0002425D02*
X0002425Y0211761D01*
X0319251Y0211761D01*
X0319251Y0003050D01*
X0002425Y0002425D01*
X0050675Y0046175D02*
X0050677Y0046336D01*
X0050683Y0046496D01*
X0050693Y0046657D01*
X0050707Y0046817D01*
X0050725Y0046977D01*
X0050746Y0047136D01*
X0050772Y0047295D01*
X0050802Y0047453D01*
X0050835Y0047610D01*
X0050873Y0047767D01*
X0050914Y0047922D01*
X0050959Y0048076D01*
X0051008Y0048229D01*
X0051061Y0048381D01*
X0051117Y0048532D01*
X0051178Y0048681D01*
X0051241Y0048829D01*
X0051309Y0048975D01*
X0051380Y0049119D01*
X0051454Y0049261D01*
X0051532Y0049402D01*
X0051614Y0049540D01*
X0051699Y0049677D01*
X0051787Y0049811D01*
X0051879Y0049943D01*
X0051974Y0050073D01*
X0052072Y0050201D01*
X0052173Y0050326D01*
X0052277Y0050448D01*
X0052384Y0050568D01*
X0052494Y0050685D01*
X0052607Y0050800D01*
X0052723Y0050911D01*
X0052842Y0051020D01*
X0052963Y0051125D01*
X0053087Y0051228D01*
X0053213Y0051328D01*
X0053341Y0051424D01*
X0053472Y0051517D01*
X0053606Y0051607D01*
X0053741Y0051694D01*
X0053879Y0051777D01*
X0054018Y0051857D01*
X0054160Y0051933D01*
X0054303Y0052006D01*
X0054448Y0052075D01*
X0054595Y0052141D01*
X0054743Y0052203D01*
X0054893Y0052261D01*
X0055044Y0052316D01*
X0055197Y0052367D01*
X0055351Y0052414D01*
X0055506Y0052457D01*
X0055662Y0052496D01*
X0055818Y0052532D01*
X0055976Y0052563D01*
X0056134Y0052591D01*
X0056293Y0052615D01*
X0056453Y0052635D01*
X0056613Y0052651D01*
X0056773Y0052663D01*
X0056934Y0052671D01*
X0057095Y0052675D01*
X0057255Y0052675D01*
X0057416Y0052671D01*
X0057577Y0052663D01*
X0057737Y0052651D01*
X0057897Y0052635D01*
X0058057Y0052615D01*
X0058216Y0052591D01*
X0058374Y0052563D01*
X0058532Y0052532D01*
X0058688Y0052496D01*
X0058844Y0052457D01*
X0058999Y0052414D01*
X0059153Y0052367D01*
X0059306Y0052316D01*
X0059457Y0052261D01*
X0059607Y0052203D01*
X0059755Y0052141D01*
X0059902Y0052075D01*
X0060047Y0052006D01*
X0060190Y0051933D01*
X0060332Y0051857D01*
X0060471Y0051777D01*
X0060609Y0051694D01*
X0060744Y0051607D01*
X0060878Y0051517D01*
X0061009Y0051424D01*
X0061137Y0051328D01*
X0061263Y0051228D01*
X0061387Y0051125D01*
X0061508Y0051020D01*
X0061627Y0050911D01*
X0061743Y0050800D01*
X0061856Y0050685D01*
X0061966Y0050568D01*
X0062073Y0050448D01*
X0062177Y0050326D01*
X0062278Y0050201D01*
X0062376Y0050073D01*
X0062471Y0049943D01*
X0062563Y0049811D01*
X0062651Y0049677D01*
X0062736Y0049540D01*
X0062818Y0049402D01*
X0062896Y0049261D01*
X0062970Y0049119D01*
X0063041Y0048975D01*
X0063109Y0048829D01*
X0063172Y0048681D01*
X0063233Y0048532D01*
X0063289Y0048381D01*
X0063342Y0048229D01*
X0063391Y0048076D01*
X0063436Y0047922D01*
X0063477Y0047767D01*
X0063515Y0047610D01*
X0063548Y0047453D01*
X0063578Y0047295D01*
X0063604Y0047136D01*
X0063625Y0046977D01*
X0063643Y0046817D01*
X0063657Y0046657D01*
X0063667Y0046496D01*
X0063673Y0046336D01*
X0063675Y0046175D01*
X0063673Y0046014D01*
X0063667Y0045854D01*
X0063657Y0045693D01*
X0063643Y0045533D01*
X0063625Y0045373D01*
X0063604Y0045214D01*
X0063578Y0045055D01*
X0063548Y0044897D01*
X0063515Y0044740D01*
X0063477Y0044583D01*
X0063436Y0044428D01*
X0063391Y0044274D01*
X0063342Y0044121D01*
X0063289Y0043969D01*
X0063233Y0043818D01*
X0063172Y0043669D01*
X0063109Y0043521D01*
X0063041Y0043375D01*
X0062970Y0043231D01*
X0062896Y0043089D01*
X0062818Y0042948D01*
X0062736Y0042810D01*
X0062651Y0042673D01*
X0062563Y0042539D01*
X0062471Y0042407D01*
X0062376Y0042277D01*
X0062278Y0042149D01*
X0062177Y0042024D01*
X0062073Y0041902D01*
X0061966Y0041782D01*
X0061856Y0041665D01*
X0061743Y0041550D01*
X0061627Y0041439D01*
X0061508Y0041330D01*
X0061387Y0041225D01*
X0061263Y0041122D01*
X0061137Y0041022D01*
X0061009Y0040926D01*
X0060878Y0040833D01*
X0060744Y0040743D01*
X0060609Y0040656D01*
X0060471Y0040573D01*
X0060332Y0040493D01*
X0060190Y0040417D01*
X0060047Y0040344D01*
X0059902Y0040275D01*
X0059755Y0040209D01*
X0059607Y0040147D01*
X0059457Y0040089D01*
X0059306Y0040034D01*
X0059153Y0039983D01*
X0058999Y0039936D01*
X0058844Y0039893D01*
X0058688Y0039854D01*
X0058532Y0039818D01*
X0058374Y0039787D01*
X0058216Y0039759D01*
X0058057Y0039735D01*
X0057897Y0039715D01*
X0057737Y0039699D01*
X0057577Y0039687D01*
X0057416Y0039679D01*
X0057255Y0039675D01*
X0057095Y0039675D01*
X0056934Y0039679D01*
X0056773Y0039687D01*
X0056613Y0039699D01*
X0056453Y0039715D01*
X0056293Y0039735D01*
X0056134Y0039759D01*
X0055976Y0039787D01*
X0055818Y0039818D01*
X0055662Y0039854D01*
X0055506Y0039893D01*
X0055351Y0039936D01*
X0055197Y0039983D01*
X0055044Y0040034D01*
X0054893Y0040089D01*
X0054743Y0040147D01*
X0054595Y0040209D01*
X0054448Y0040275D01*
X0054303Y0040344D01*
X0054160Y0040417D01*
X0054018Y0040493D01*
X0053879Y0040573D01*
X0053741Y0040656D01*
X0053606Y0040743D01*
X0053472Y0040833D01*
X0053341Y0040926D01*
X0053213Y0041022D01*
X0053087Y0041122D01*
X0052963Y0041225D01*
X0052842Y0041330D01*
X0052723Y0041439D01*
X0052607Y0041550D01*
X0052494Y0041665D01*
X0052384Y0041782D01*
X0052277Y0041902D01*
X0052173Y0042024D01*
X0052072Y0042149D01*
X0051974Y0042277D01*
X0051879Y0042407D01*
X0051787Y0042539D01*
X0051699Y0042673D01*
X0051614Y0042810D01*
X0051532Y0042948D01*
X0051454Y0043089D01*
X0051380Y0043231D01*
X0051309Y0043375D01*
X0051241Y0043521D01*
X0051178Y0043669D01*
X0051117Y0043818D01*
X0051061Y0043969D01*
X0051008Y0044121D01*
X0050959Y0044274D01*
X0050914Y0044428D01*
X0050873Y0044583D01*
X0050835Y0044740D01*
X0050802Y0044897D01*
X0050772Y0045055D01*
X0050746Y0045214D01*
X0050725Y0045373D01*
X0050707Y0045533D01*
X0050693Y0045693D01*
X0050683Y0045854D01*
X0050677Y0046014D01*
X0050675Y0046175D01*
X0163813Y0041800D02*
X0163815Y0041897D01*
X0163821Y0041994D01*
X0163831Y0042090D01*
X0163845Y0042186D01*
X0163863Y0042282D01*
X0163884Y0042376D01*
X0163910Y0042470D01*
X0163939Y0042562D01*
X0163973Y0042653D01*
X0164009Y0042743D01*
X0164050Y0042831D01*
X0164094Y0042917D01*
X0164142Y0043002D01*
X0164193Y0043084D01*
X0164247Y0043165D01*
X0164305Y0043243D01*
X0164366Y0043318D01*
X0164429Y0043391D01*
X0164496Y0043462D01*
X0164566Y0043529D01*
X0164638Y0043594D01*
X0164713Y0043655D01*
X0164791Y0043714D01*
X0164870Y0043769D01*
X0164952Y0043821D01*
X0165036Y0043869D01*
X0165122Y0043914D01*
X0165210Y0043956D01*
X0165299Y0043994D01*
X0165390Y0044028D01*
X0165482Y0044058D01*
X0165575Y0044085D01*
X0165670Y0044107D01*
X0165765Y0044126D01*
X0165861Y0044141D01*
X0165957Y0044152D01*
X0166054Y0044159D01*
X0166151Y0044162D01*
X0166248Y0044161D01*
X0166345Y0044156D01*
X0166441Y0044147D01*
X0166537Y0044134D01*
X0166633Y0044117D01*
X0166728Y0044096D01*
X0166821Y0044072D01*
X0166914Y0044043D01*
X0167006Y0044011D01*
X0167096Y0043975D01*
X0167184Y0043936D01*
X0167271Y0043892D01*
X0167356Y0043846D01*
X0167439Y0043795D01*
X0167520Y0043742D01*
X0167598Y0043685D01*
X0167675Y0043625D01*
X0167748Y0043562D01*
X0167819Y0043496D01*
X0167887Y0043427D01*
X0167953Y0043355D01*
X0168015Y0043281D01*
X0168074Y0043204D01*
X0168130Y0043125D01*
X0168183Y0043043D01*
X0168233Y0042960D01*
X0168278Y0042874D01*
X0168321Y0042787D01*
X0168360Y0042698D01*
X0168395Y0042608D01*
X0168426Y0042516D01*
X0168453Y0042423D01*
X0168477Y0042329D01*
X0168497Y0042234D01*
X0168513Y0042138D01*
X0168525Y0042042D01*
X0168533Y0041945D01*
X0168537Y0041848D01*
X0168537Y0041752D01*
X0168533Y0041655D01*
X0168525Y0041558D01*
X0168513Y0041462D01*
X0168497Y0041366D01*
X0168477Y0041271D01*
X0168453Y0041177D01*
X0168426Y0041084D01*
X0168395Y0040992D01*
X0168360Y0040902D01*
X0168321Y0040813D01*
X0168278Y0040726D01*
X0168233Y0040640D01*
X0168183Y0040557D01*
X0168130Y0040475D01*
X0168074Y0040396D01*
X0168015Y0040319D01*
X0167953Y0040245D01*
X0167887Y0040173D01*
X0167819Y0040104D01*
X0167748Y0040038D01*
X0167675Y0039975D01*
X0167598Y0039915D01*
X0167520Y0039858D01*
X0167439Y0039805D01*
X0167356Y0039754D01*
X0167271Y0039708D01*
X0167184Y0039664D01*
X0167096Y0039625D01*
X0167006Y0039589D01*
X0166914Y0039557D01*
X0166821Y0039528D01*
X0166728Y0039504D01*
X0166633Y0039483D01*
X0166537Y0039466D01*
X0166441Y0039453D01*
X0166345Y0039444D01*
X0166248Y0039439D01*
X0166151Y0039438D01*
X0166054Y0039441D01*
X0165957Y0039448D01*
X0165861Y0039459D01*
X0165765Y0039474D01*
X0165670Y0039493D01*
X0165575Y0039515D01*
X0165482Y0039542D01*
X0165390Y0039572D01*
X0165299Y0039606D01*
X0165210Y0039644D01*
X0165122Y0039686D01*
X0165036Y0039731D01*
X0164952Y0039779D01*
X0164870Y0039831D01*
X0164791Y0039886D01*
X0164713Y0039945D01*
X0164638Y0040006D01*
X0164566Y0040071D01*
X0164496Y0040138D01*
X0164429Y0040209D01*
X0164366Y0040282D01*
X0164305Y0040357D01*
X0164247Y0040435D01*
X0164193Y0040516D01*
X0164142Y0040598D01*
X0164094Y0040683D01*
X0164050Y0040769D01*
X0164009Y0040857D01*
X0163973Y0040947D01*
X0163939Y0041038D01*
X0163910Y0041130D01*
X0163884Y0041224D01*
X0163863Y0041318D01*
X0163845Y0041414D01*
X0163831Y0041510D01*
X0163821Y0041606D01*
X0163815Y0041703D01*
X0163813Y0041800D01*
X0286938Y0018050D02*
X0286940Y0018147D01*
X0286946Y0018244D01*
X0286956Y0018340D01*
X0286970Y0018436D01*
X0286988Y0018532D01*
X0287009Y0018626D01*
X0287035Y0018720D01*
X0287064Y0018812D01*
X0287098Y0018903D01*
X0287134Y0018993D01*
X0287175Y0019081D01*
X0287219Y0019167D01*
X0287267Y0019252D01*
X0287318Y0019334D01*
X0287372Y0019415D01*
X0287430Y0019493D01*
X0287491Y0019568D01*
X0287554Y0019641D01*
X0287621Y0019712D01*
X0287691Y0019779D01*
X0287763Y0019844D01*
X0287838Y0019905D01*
X0287916Y0019964D01*
X0287995Y0020019D01*
X0288077Y0020071D01*
X0288161Y0020119D01*
X0288247Y0020164D01*
X0288335Y0020206D01*
X0288424Y0020244D01*
X0288515Y0020278D01*
X0288607Y0020308D01*
X0288700Y0020335D01*
X0288795Y0020357D01*
X0288890Y0020376D01*
X0288986Y0020391D01*
X0289082Y0020402D01*
X0289179Y0020409D01*
X0289276Y0020412D01*
X0289373Y0020411D01*
X0289470Y0020406D01*
X0289566Y0020397D01*
X0289662Y0020384D01*
X0289758Y0020367D01*
X0289853Y0020346D01*
X0289946Y0020322D01*
X0290039Y0020293D01*
X0290131Y0020261D01*
X0290221Y0020225D01*
X0290309Y0020186D01*
X0290396Y0020142D01*
X0290481Y0020096D01*
X0290564Y0020045D01*
X0290645Y0019992D01*
X0290723Y0019935D01*
X0290800Y0019875D01*
X0290873Y0019812D01*
X0290944Y0019746D01*
X0291012Y0019677D01*
X0291078Y0019605D01*
X0291140Y0019531D01*
X0291199Y0019454D01*
X0291255Y0019375D01*
X0291308Y0019293D01*
X0291358Y0019210D01*
X0291403Y0019124D01*
X0291446Y0019037D01*
X0291485Y0018948D01*
X0291520Y0018858D01*
X0291551Y0018766D01*
X0291578Y0018673D01*
X0291602Y0018579D01*
X0291622Y0018484D01*
X0291638Y0018388D01*
X0291650Y0018292D01*
X0291658Y0018195D01*
X0291662Y0018098D01*
X0291662Y0018002D01*
X0291658Y0017905D01*
X0291650Y0017808D01*
X0291638Y0017712D01*
X0291622Y0017616D01*
X0291602Y0017521D01*
X0291578Y0017427D01*
X0291551Y0017334D01*
X0291520Y0017242D01*
X0291485Y0017152D01*
X0291446Y0017063D01*
X0291403Y0016976D01*
X0291358Y0016890D01*
X0291308Y0016807D01*
X0291255Y0016725D01*
X0291199Y0016646D01*
X0291140Y0016569D01*
X0291078Y0016495D01*
X0291012Y0016423D01*
X0290944Y0016354D01*
X0290873Y0016288D01*
X0290800Y0016225D01*
X0290723Y0016165D01*
X0290645Y0016108D01*
X0290564Y0016055D01*
X0290481Y0016004D01*
X0290396Y0015958D01*
X0290309Y0015914D01*
X0290221Y0015875D01*
X0290131Y0015839D01*
X0290039Y0015807D01*
X0289946Y0015778D01*
X0289853Y0015754D01*
X0289758Y0015733D01*
X0289662Y0015716D01*
X0289566Y0015703D01*
X0289470Y0015694D01*
X0289373Y0015689D01*
X0289276Y0015688D01*
X0289179Y0015691D01*
X0289082Y0015698D01*
X0288986Y0015709D01*
X0288890Y0015724D01*
X0288795Y0015743D01*
X0288700Y0015765D01*
X0288607Y0015792D01*
X0288515Y0015822D01*
X0288424Y0015856D01*
X0288335Y0015894D01*
X0288247Y0015936D01*
X0288161Y0015981D01*
X0288077Y0016029D01*
X0287995Y0016081D01*
X0287916Y0016136D01*
X0287838Y0016195D01*
X0287763Y0016256D01*
X0287691Y0016321D01*
X0287621Y0016388D01*
X0287554Y0016459D01*
X0287491Y0016532D01*
X0287430Y0016607D01*
X0287372Y0016685D01*
X0287318Y0016766D01*
X0287267Y0016848D01*
X0287219Y0016933D01*
X0287175Y0017019D01*
X0287134Y0017107D01*
X0287098Y0017197D01*
X0287064Y0017288D01*
X0287035Y0017380D01*
X0287009Y0017474D01*
X0286988Y0017568D01*
X0286970Y0017664D01*
X0286956Y0017760D01*
X0286946Y0017856D01*
X0286940Y0017953D01*
X0286938Y0018050D01*
X0162563Y0186175D02*
X0162565Y0186272D01*
X0162571Y0186369D01*
X0162581Y0186465D01*
X0162595Y0186561D01*
X0162613Y0186657D01*
X0162634Y0186751D01*
X0162660Y0186845D01*
X0162689Y0186937D01*
X0162723Y0187028D01*
X0162759Y0187118D01*
X0162800Y0187206D01*
X0162844Y0187292D01*
X0162892Y0187377D01*
X0162943Y0187459D01*
X0162997Y0187540D01*
X0163055Y0187618D01*
X0163116Y0187693D01*
X0163179Y0187766D01*
X0163246Y0187837D01*
X0163316Y0187904D01*
X0163388Y0187969D01*
X0163463Y0188030D01*
X0163541Y0188089D01*
X0163620Y0188144D01*
X0163702Y0188196D01*
X0163786Y0188244D01*
X0163872Y0188289D01*
X0163960Y0188331D01*
X0164049Y0188369D01*
X0164140Y0188403D01*
X0164232Y0188433D01*
X0164325Y0188460D01*
X0164420Y0188482D01*
X0164515Y0188501D01*
X0164611Y0188516D01*
X0164707Y0188527D01*
X0164804Y0188534D01*
X0164901Y0188537D01*
X0164998Y0188536D01*
X0165095Y0188531D01*
X0165191Y0188522D01*
X0165287Y0188509D01*
X0165383Y0188492D01*
X0165478Y0188471D01*
X0165571Y0188447D01*
X0165664Y0188418D01*
X0165756Y0188386D01*
X0165846Y0188350D01*
X0165934Y0188311D01*
X0166021Y0188267D01*
X0166106Y0188221D01*
X0166189Y0188170D01*
X0166270Y0188117D01*
X0166348Y0188060D01*
X0166425Y0188000D01*
X0166498Y0187937D01*
X0166569Y0187871D01*
X0166637Y0187802D01*
X0166703Y0187730D01*
X0166765Y0187656D01*
X0166824Y0187579D01*
X0166880Y0187500D01*
X0166933Y0187418D01*
X0166983Y0187335D01*
X0167028Y0187249D01*
X0167071Y0187162D01*
X0167110Y0187073D01*
X0167145Y0186983D01*
X0167176Y0186891D01*
X0167203Y0186798D01*
X0167227Y0186704D01*
X0167247Y0186609D01*
X0167263Y0186513D01*
X0167275Y0186417D01*
X0167283Y0186320D01*
X0167287Y0186223D01*
X0167287Y0186127D01*
X0167283Y0186030D01*
X0167275Y0185933D01*
X0167263Y0185837D01*
X0167247Y0185741D01*
X0167227Y0185646D01*
X0167203Y0185552D01*
X0167176Y0185459D01*
X0167145Y0185367D01*
X0167110Y0185277D01*
X0167071Y0185188D01*
X0167028Y0185101D01*
X0166983Y0185015D01*
X0166933Y0184932D01*
X0166880Y0184850D01*
X0166824Y0184771D01*
X0166765Y0184694D01*
X0166703Y0184620D01*
X0166637Y0184548D01*
X0166569Y0184479D01*
X0166498Y0184413D01*
X0166425Y0184350D01*
X0166348Y0184290D01*
X0166270Y0184233D01*
X0166189Y0184180D01*
X0166106Y0184129D01*
X0166021Y0184083D01*
X0165934Y0184039D01*
X0165846Y0184000D01*
X0165756Y0183964D01*
X0165664Y0183932D01*
X0165571Y0183903D01*
X0165478Y0183879D01*
X0165383Y0183858D01*
X0165287Y0183841D01*
X0165191Y0183828D01*
X0165095Y0183819D01*
X0164998Y0183814D01*
X0164901Y0183813D01*
X0164804Y0183816D01*
X0164707Y0183823D01*
X0164611Y0183834D01*
X0164515Y0183849D01*
X0164420Y0183868D01*
X0164325Y0183890D01*
X0164232Y0183917D01*
X0164140Y0183947D01*
X0164049Y0183981D01*
X0163960Y0184019D01*
X0163872Y0184061D01*
X0163786Y0184106D01*
X0163702Y0184154D01*
X0163620Y0184206D01*
X0163541Y0184261D01*
X0163463Y0184320D01*
X0163388Y0184381D01*
X0163316Y0184446D01*
X0163246Y0184513D01*
X0163179Y0184584D01*
X0163116Y0184657D01*
X0163055Y0184732D01*
X0162997Y0184810D01*
X0162943Y0184891D01*
X0162892Y0184973D01*
X0162844Y0185058D01*
X0162800Y0185144D01*
X0162759Y0185232D01*
X0162723Y0185322D01*
X0162689Y0185413D01*
X0162660Y0185505D01*
X0162634Y0185599D01*
X0162613Y0185693D01*
X0162595Y0185789D01*
X0162581Y0185885D01*
X0162571Y0185981D01*
X0162565Y0186078D01*
X0162563Y0186175D01*
X0286313Y0197425D02*
X0286315Y0197522D01*
X0286321Y0197619D01*
X0286331Y0197715D01*
X0286345Y0197811D01*
X0286363Y0197907D01*
X0286384Y0198001D01*
X0286410Y0198095D01*
X0286439Y0198187D01*
X0286473Y0198278D01*
X0286509Y0198368D01*
X0286550Y0198456D01*
X0286594Y0198542D01*
X0286642Y0198627D01*
X0286693Y0198709D01*
X0286747Y0198790D01*
X0286805Y0198868D01*
X0286866Y0198943D01*
X0286929Y0199016D01*
X0286996Y0199087D01*
X0287066Y0199154D01*
X0287138Y0199219D01*
X0287213Y0199280D01*
X0287291Y0199339D01*
X0287370Y0199394D01*
X0287452Y0199446D01*
X0287536Y0199494D01*
X0287622Y0199539D01*
X0287710Y0199581D01*
X0287799Y0199619D01*
X0287890Y0199653D01*
X0287982Y0199683D01*
X0288075Y0199710D01*
X0288170Y0199732D01*
X0288265Y0199751D01*
X0288361Y0199766D01*
X0288457Y0199777D01*
X0288554Y0199784D01*
X0288651Y0199787D01*
X0288748Y0199786D01*
X0288845Y0199781D01*
X0288941Y0199772D01*
X0289037Y0199759D01*
X0289133Y0199742D01*
X0289228Y0199721D01*
X0289321Y0199697D01*
X0289414Y0199668D01*
X0289506Y0199636D01*
X0289596Y0199600D01*
X0289684Y0199561D01*
X0289771Y0199517D01*
X0289856Y0199471D01*
X0289939Y0199420D01*
X0290020Y0199367D01*
X0290098Y0199310D01*
X0290175Y0199250D01*
X0290248Y0199187D01*
X0290319Y0199121D01*
X0290387Y0199052D01*
X0290453Y0198980D01*
X0290515Y0198906D01*
X0290574Y0198829D01*
X0290630Y0198750D01*
X0290683Y0198668D01*
X0290733Y0198585D01*
X0290778Y0198499D01*
X0290821Y0198412D01*
X0290860Y0198323D01*
X0290895Y0198233D01*
X0290926Y0198141D01*
X0290953Y0198048D01*
X0290977Y0197954D01*
X0290997Y0197859D01*
X0291013Y0197763D01*
X0291025Y0197667D01*
X0291033Y0197570D01*
X0291037Y0197473D01*
X0291037Y0197377D01*
X0291033Y0197280D01*
X0291025Y0197183D01*
X0291013Y0197087D01*
X0290997Y0196991D01*
X0290977Y0196896D01*
X0290953Y0196802D01*
X0290926Y0196709D01*
X0290895Y0196617D01*
X0290860Y0196527D01*
X0290821Y0196438D01*
X0290778Y0196351D01*
X0290733Y0196265D01*
X0290683Y0196182D01*
X0290630Y0196100D01*
X0290574Y0196021D01*
X0290515Y0195944D01*
X0290453Y0195870D01*
X0290387Y0195798D01*
X0290319Y0195729D01*
X0290248Y0195663D01*
X0290175Y0195600D01*
X0290098Y0195540D01*
X0290020Y0195483D01*
X0289939Y0195430D01*
X0289856Y0195379D01*
X0289771Y0195333D01*
X0289684Y0195289D01*
X0289596Y0195250D01*
X0289506Y0195214D01*
X0289414Y0195182D01*
X0289321Y0195153D01*
X0289228Y0195129D01*
X0289133Y0195108D01*
X0289037Y0195091D01*
X0288941Y0195078D01*
X0288845Y0195069D01*
X0288748Y0195064D01*
X0288651Y0195063D01*
X0288554Y0195066D01*
X0288457Y0195073D01*
X0288361Y0195084D01*
X0288265Y0195099D01*
X0288170Y0195118D01*
X0288075Y0195140D01*
X0287982Y0195167D01*
X0287890Y0195197D01*
X0287799Y0195231D01*
X0287710Y0195269D01*
X0287622Y0195311D01*
X0287536Y0195356D01*
X0287452Y0195404D01*
X0287370Y0195456D01*
X0287291Y0195511D01*
X0287213Y0195570D01*
X0287138Y0195631D01*
X0287066Y0195696D01*
X0286996Y0195763D01*
X0286929Y0195834D01*
X0286866Y0195907D01*
X0286805Y0195982D01*
X0286747Y0196060D01*
X0286693Y0196141D01*
X0286642Y0196223D01*
X0286594Y0196308D01*
X0286550Y0196394D01*
X0286509Y0196482D01*
X0286473Y0196572D01*
X0286439Y0196663D01*
X0286410Y0196755D01*
X0286384Y0196849D01*
X0286363Y0196943D01*
X0286345Y0197039D01*
X0286331Y0197135D01*
X0286321Y0197231D01*
X0286315Y0197328D01*
X0286313Y0197425D01*
D11*
X0264300Y0180550D03*
X0234300Y0180550D03*
X0234300Y0160550D03*
X0233050Y0140550D03*
X0233050Y0120550D03*
X0263050Y0120550D03*
X0263050Y0140550D03*
X0264300Y0160550D03*
X0264300Y0095550D03*
X0264300Y0075550D03*
X0234300Y0075550D03*
X0234300Y0095550D03*
X0234300Y0055550D03*
X0234300Y0035550D03*
X0264300Y0035550D03*
X0264300Y0055550D03*
X0148050Y0069050D03*
X0138925Y0056175D03*
X0116800Y0085550D03*
X0116800Y0115550D03*
X0130300Y0129925D03*
X0130300Y0151175D03*
D12*
X0138300Y0151175D03*
X0138300Y0129925D03*
X0148050Y0077050D03*
X0130925Y0056175D03*
D13*
X0128050Y0074300D03*
X0108050Y0074300D03*
X0129300Y0036175D03*
X0149300Y0036175D03*
X0185550Y0035550D03*
X0205550Y0035550D03*
X0221175Y0035550D03*
X0221175Y0055550D03*
X0205550Y0055550D03*
X0185550Y0055550D03*
X0185550Y0075550D03*
X0205550Y0075550D03*
X0220550Y0075550D03*
X0220550Y0095550D03*
X0205550Y0095550D03*
X0185550Y0095550D03*
X0186175Y0120550D03*
X0206175Y0120550D03*
X0221800Y0120550D03*
X0221800Y0140550D03*
X0206175Y0140550D03*
X0186175Y0140550D03*
X0185550Y0160550D03*
X0205550Y0160550D03*
X0220550Y0160550D03*
X0220550Y0180550D03*
X0205550Y0180550D03*
X0185550Y0180550D03*
X0116800Y0156175D03*
X0116800Y0136175D03*
D14*
X0127666Y0117263D03*
X0130225Y0117263D03*
X0132784Y0117263D03*
X0135343Y0117263D03*
X0137902Y0117263D03*
X0140461Y0117263D03*
X0143020Y0117263D03*
X0145580Y0117263D03*
X0148139Y0117263D03*
X0150698Y0117263D03*
X0153257Y0117263D03*
X0155816Y0117263D03*
X0158375Y0117263D03*
X0160934Y0117263D03*
X0160934Y0093837D03*
X0158375Y0093837D03*
X0155816Y0093837D03*
X0153257Y0093837D03*
X0150698Y0093837D03*
X0148139Y0093837D03*
X0145580Y0093837D03*
X0143020Y0093837D03*
X0140461Y0093837D03*
X0137902Y0093837D03*
X0135343Y0093837D03*
X0132784Y0093837D03*
X0130225Y0093837D03*
X0127666Y0093837D03*
D15*
X0106175Y0091275D02*
X0106175Y0086075D01*
X0096175Y0086075D02*
X0096175Y0091275D01*
X0086175Y0091275D02*
X0086175Y0086075D01*
X0076175Y0086075D02*
X0076175Y0091275D01*
X0066175Y0091275D02*
X0066175Y0086075D01*
X0056175Y0086075D02*
X0056175Y0091275D01*
X0046175Y0091275D02*
X0046175Y0086075D01*
X0046175Y0116075D02*
X0046175Y0121275D01*
X0056175Y0121275D02*
X0056175Y0116075D01*
X0066175Y0116075D02*
X0066175Y0121275D01*
X0076175Y0121275D02*
X0076175Y0116075D01*
X0086175Y0116075D02*
X0086175Y0121275D01*
X0096175Y0121275D02*
X0096175Y0116075D01*
X0106175Y0116075D02*
X0106175Y0121275D01*
D16*
X0113175Y0056175D02*
X0119175Y0056175D01*
X0119175Y0046175D02*
X0113175Y0046175D01*
X0113175Y0036175D02*
X0119175Y0036175D01*
D17*
X0026800Y0078050D03*
X0016800Y0078050D03*
X0016800Y0088050D03*
X0026800Y0088050D03*
X0026800Y0098050D03*
X0016800Y0098050D03*
X0016800Y0108050D03*
X0026800Y0108050D03*
X0026800Y0118050D03*
X0016800Y0118050D03*
X0016800Y0128050D03*
X0026800Y0128050D03*
D18*
X0292900Y0120325D02*
X0300700Y0120325D01*
X0300700Y0140125D02*
X0292900Y0140125D01*
X0292900Y0159725D02*
X0300700Y0159725D01*
X0300700Y0179525D02*
X0292900Y0179525D01*
X0292900Y0095775D02*
X0300700Y0095775D01*
X0300700Y0075975D02*
X0292900Y0075975D01*
X0292900Y0056375D02*
X0300700Y0056375D01*
X0300700Y0036575D02*
X0292900Y0036575D01*
D19*
X0040112Y0158345D02*
X0032238Y0158345D01*
X0017277Y0166613D02*
X0017277Y0174487D01*
X0032238Y0182361D02*
X0040112Y0182361D01*
D20*
X0061800Y0198050D03*
X0061800Y0158050D03*
D21*
X0031175Y0132425D02*
X0026800Y0128050D01*
X0031175Y0132425D02*
X0092425Y0132425D01*
X0096175Y0128675D01*
X0096175Y0118675D01*
X0076175Y0099925D02*
X0073050Y0103050D01*
X0057425Y0103050D01*
X0052425Y0108050D01*
X0026800Y0108050D01*
X0026800Y0098050D02*
X0050550Y0098050D01*
X0056175Y0092425D01*
X0056175Y0088675D01*
X0076175Y0088675D02*
X0076175Y0099925D01*
X0066175Y0118675D02*
X0066175Y0123675D01*
X0062425Y0127425D01*
X0036175Y0127425D01*
X0026800Y0118050D01*
X0016800Y0118050D02*
X0016800Y0128050D01*
X0106175Y0088675D02*
X0111337Y0093837D01*
X0127666Y0093837D01*
X0127666Y0100166D01*
X0129300Y0101800D01*
X0135343Y0101800D01*
X0135343Y0106593D01*
X0140550Y0111800D01*
X0140550Y0117174D01*
X0140461Y0117263D01*
X0143020Y0117263D01*
X0138050Y0117410D02*
X0137902Y0117263D01*
X0153257Y0117263D02*
X0153675Y0117681D01*
X0153675Y0164300D01*
X0162425Y0173050D01*
X0198050Y0173050D01*
X0205550Y0180550D01*
X0220550Y0180550D01*
X0234300Y0180550D01*
X0264300Y0180550D02*
X0265325Y0179525D01*
X0296800Y0179525D01*
X0296800Y0159725D02*
X0265125Y0159725D01*
X0264300Y0160550D01*
X0263050Y0140550D02*
X0263475Y0140125D01*
X0296800Y0140125D01*
X0296800Y0120325D02*
X0263275Y0120325D01*
X0263050Y0120550D01*
X0233050Y0120550D02*
X0221800Y0120550D01*
X0206175Y0120550D01*
X0203675Y0120550D01*
X0194300Y0129925D01*
X0170550Y0129925D01*
X0161175Y0120550D01*
X0161175Y0117504D01*
X0160934Y0117263D01*
X0158375Y0117263D02*
X0158050Y0117587D01*
X0158050Y0121175D01*
X0169300Y0132425D01*
X0195550Y0132425D01*
X0203675Y0140550D01*
X0206175Y0140550D01*
X0221800Y0140550D01*
X0233050Y0140550D01*
X0234300Y0160550D02*
X0220550Y0160550D01*
X0205550Y0160550D01*
X0195550Y0170550D01*
X0163050Y0170550D01*
X0155816Y0163316D01*
X0155816Y0117263D01*
X0135343Y0101800D02*
X0135343Y0093837D01*
X0135550Y0093837D01*
X0127666Y0093837D02*
X0127666Y0074684D01*
X0128050Y0074300D01*
X0130925Y0071425D01*
X0130925Y0056175D01*
X0148139Y0077139D02*
X0148139Y0093837D01*
X0153050Y0093631D02*
X0153257Y0093837D01*
X0153050Y0093631D02*
X0153050Y0085550D01*
X0174925Y0063675D01*
X0186175Y0063675D01*
X0205550Y0044300D01*
X0205550Y0035550D01*
X0221175Y0035550D01*
X0234300Y0035550D01*
X0234300Y0055550D02*
X0221175Y0055550D01*
X0205550Y0055550D01*
X0194925Y0066175D01*
X0176175Y0066175D01*
X0155816Y0086534D01*
X0155816Y0093837D01*
X0158375Y0093837D02*
X0158675Y0093537D01*
X0158675Y0090550D01*
X0161800Y0087425D01*
X0199300Y0087425D01*
X0205550Y0081175D01*
X0205550Y0075550D01*
X0220550Y0075550D01*
X0234300Y0075550D01*
X0234300Y0095550D02*
X0220550Y0095550D01*
X0205550Y0095550D01*
X0199925Y0089925D01*
X0162425Y0089925D01*
X0161175Y0091175D01*
X0161175Y0093596D01*
X0160934Y0093837D01*
X0264300Y0095550D02*
X0264525Y0095775D01*
X0296800Y0095775D01*
X0296800Y0075975D02*
X0264725Y0075975D01*
X0264300Y0075550D01*
X0264300Y0055550D02*
X0295975Y0055550D01*
X0296800Y0056375D01*
X0296800Y0036575D02*
X0265325Y0036575D01*
X0264300Y0035550D01*
D22*
X0261241Y0038431D02*
X0237359Y0038431D01*
X0238500Y0037290D02*
X0236040Y0039750D01*
X0232560Y0039750D01*
X0230560Y0037750D01*
X0225693Y0037750D01*
X0223143Y0040300D01*
X0219207Y0040300D01*
X0216657Y0037750D01*
X0210068Y0037750D01*
X0207750Y0040067D01*
X0207750Y0045211D01*
X0188986Y0063975D01*
X0194014Y0063975D01*
X0200800Y0057189D01*
X0200800Y0053582D01*
X0203582Y0050800D01*
X0207518Y0050800D01*
X0210068Y0053350D01*
X0216657Y0053350D01*
X0219207Y0050800D01*
X0223143Y0050800D01*
X0225693Y0053350D01*
X0230560Y0053350D01*
X0232560Y0051350D01*
X0236040Y0051350D01*
X0238500Y0053810D01*
X0238500Y0057290D01*
X0236040Y0059750D01*
X0232560Y0059750D01*
X0230560Y0057750D01*
X0225693Y0057750D01*
X0223143Y0060300D01*
X0219207Y0060300D01*
X0216657Y0057750D01*
X0210068Y0057750D01*
X0207518Y0060300D01*
X0203911Y0060300D01*
X0195836Y0068375D01*
X0177086Y0068375D01*
X0158016Y0087446D01*
X0158016Y0088098D01*
X0160889Y0085225D01*
X0198389Y0085225D01*
X0203350Y0080264D01*
X0203350Y0080068D01*
X0200800Y0077518D01*
X0200800Y0073582D01*
X0203582Y0070800D01*
X0207518Y0070800D01*
X0210068Y0073350D01*
X0216032Y0073350D01*
X0218582Y0070800D01*
X0222518Y0070800D01*
X0225068Y0073350D01*
X0230560Y0073350D01*
X0232560Y0071350D01*
X0236040Y0071350D01*
X0238500Y0073810D01*
X0238500Y0077290D01*
X0236040Y0079750D01*
X0232560Y0079750D01*
X0230560Y0077750D01*
X0225068Y0077750D01*
X0222518Y0080300D01*
X0218582Y0080300D01*
X0216032Y0077750D01*
X0210068Y0077750D01*
X0207750Y0080068D01*
X0207750Y0082086D01*
X0201500Y0088336D01*
X0201474Y0088362D01*
X0203911Y0090800D01*
X0207518Y0090800D01*
X0210068Y0093350D01*
X0216032Y0093350D01*
X0218582Y0090800D01*
X0222518Y0090800D01*
X0225068Y0093350D01*
X0230560Y0093350D01*
X0232560Y0091350D01*
X0236040Y0091350D01*
X0238500Y0093810D01*
X0238500Y0097290D01*
X0236040Y0099750D01*
X0232560Y0099750D01*
X0230560Y0097750D01*
X0225068Y0097750D01*
X0222518Y0100300D01*
X0218582Y0100300D01*
X0216032Y0097750D01*
X0210068Y0097750D01*
X0207518Y0100300D01*
X0203582Y0100300D01*
X0200800Y0097518D01*
X0200800Y0093911D01*
X0199014Y0092125D01*
X0189125Y0092125D01*
X0190500Y0093500D01*
X0190500Y0095550D01*
X0190500Y0097600D01*
X0187600Y0100500D01*
X0185550Y0100500D01*
X0185550Y0095550D01*
X0185550Y0095550D01*
X0190500Y0095550D01*
X0185550Y0095550D01*
X0185550Y0095550D01*
X0185550Y0095550D01*
X0180600Y0095550D01*
X0180600Y0097600D01*
X0183500Y0100500D01*
X0185550Y0100500D01*
X0185550Y0095550D01*
X0180600Y0095550D01*
X0180600Y0093500D01*
X0181975Y0092125D01*
X0163375Y0092125D01*
X0163375Y0094508D01*
X0163223Y0094660D01*
X0163223Y0096862D01*
X0162286Y0097800D01*
X0152215Y0097800D01*
X0152081Y0097877D01*
X0151624Y0098000D01*
X0150698Y0098000D01*
X0150698Y0093838D01*
X0150698Y0093838D01*
X0150698Y0098000D01*
X0149772Y0098000D01*
X0149314Y0097877D01*
X0149180Y0097800D01*
X0137543Y0097800D01*
X0137543Y0105682D01*
X0141461Y0109600D01*
X0142750Y0110889D01*
X0142750Y0113300D01*
X0144062Y0113300D01*
X0144196Y0113223D01*
X0144654Y0113100D01*
X0145579Y0113100D01*
X0145579Y0117262D01*
X0145580Y0117262D01*
X0145580Y0113100D01*
X0146505Y0113100D01*
X0146963Y0113223D01*
X0147097Y0113300D01*
X0162286Y0113300D01*
X0163223Y0114238D01*
X0163223Y0116440D01*
X0163375Y0116592D01*
X0163375Y0119639D01*
X0171461Y0127725D01*
X0193389Y0127725D01*
X0201425Y0119689D01*
X0201425Y0118582D01*
X0204207Y0115800D01*
X0208143Y0115800D01*
X0210692Y0118350D01*
X0217282Y0118350D01*
X0219832Y0115800D01*
X0223768Y0115800D01*
X0226318Y0118350D01*
X0229310Y0118350D01*
X0231310Y0116350D01*
X0234790Y0116350D01*
X0237250Y0118810D01*
X0237250Y0122290D01*
X0234790Y0124750D01*
X0231310Y0124750D01*
X0229310Y0122750D01*
X0226318Y0122750D01*
X0223768Y0125300D01*
X0219832Y0125300D01*
X0217282Y0122750D01*
X0210692Y0122750D01*
X0208143Y0125300D01*
X0204207Y0125300D01*
X0203122Y0124214D01*
X0196786Y0130550D01*
X0197750Y0131514D01*
X0203122Y0136886D01*
X0204207Y0135800D01*
X0208143Y0135800D01*
X0210693Y0138350D01*
X0217282Y0138350D01*
X0219832Y0135800D01*
X0223768Y0135800D01*
X0226318Y0138350D01*
X0229310Y0138350D01*
X0231310Y0136350D01*
X0234790Y0136350D01*
X0237250Y0138810D01*
X0237250Y0142290D01*
X0234790Y0144750D01*
X0231310Y0144750D01*
X0229310Y0142750D01*
X0226318Y0142750D01*
X0223768Y0145300D01*
X0219832Y0145300D01*
X0217282Y0142750D01*
X0210693Y0142750D01*
X0208143Y0145300D01*
X0204207Y0145300D01*
X0201425Y0142518D01*
X0201425Y0141411D01*
X0194639Y0134625D01*
X0168389Y0134625D01*
X0158016Y0124252D01*
X0158016Y0162404D01*
X0163961Y0168350D01*
X0194639Y0168350D01*
X0200800Y0162189D01*
X0200800Y0158582D01*
X0203582Y0155800D01*
X0207518Y0155800D01*
X0210068Y0158350D01*
X0216032Y0158350D01*
X0218582Y0155800D01*
X0222518Y0155800D01*
X0225068Y0158350D01*
X0230560Y0158350D01*
X0232560Y0156350D01*
X0236040Y0156350D01*
X0238500Y0158810D01*
X0238500Y0162290D01*
X0236040Y0164750D01*
X0232560Y0164750D01*
X0230560Y0162750D01*
X0225068Y0162750D01*
X0222518Y0165300D01*
X0218582Y0165300D01*
X0216032Y0162750D01*
X0210068Y0162750D01*
X0207518Y0165300D01*
X0203911Y0165300D01*
X0198361Y0170850D01*
X0198961Y0170850D01*
X0203911Y0175800D01*
X0207518Y0175800D01*
X0210068Y0178350D01*
X0216032Y0178350D01*
X0218582Y0175800D01*
X0222518Y0175800D01*
X0225068Y0178350D01*
X0230560Y0178350D01*
X0232560Y0176350D01*
X0236040Y0176350D01*
X0238500Y0178810D01*
X0238500Y0182290D01*
X0236040Y0184750D01*
X0232560Y0184750D01*
X0230560Y0182750D01*
X0225068Y0182750D01*
X0222518Y0185300D01*
X0218582Y0185300D01*
X0216032Y0182750D01*
X0210068Y0182750D01*
X0207518Y0185300D01*
X0203582Y0185300D01*
X0200800Y0182518D01*
X0200800Y0178911D01*
X0197139Y0175250D01*
X0161514Y0175250D01*
X0152764Y0166500D01*
X0151475Y0165211D01*
X0151475Y0121225D01*
X0147097Y0121225D01*
X0146963Y0121302D01*
X0146505Y0121425D01*
X0145580Y0121425D01*
X0145580Y0117263D01*
X0145579Y0117263D01*
X0145579Y0121425D01*
X0145420Y0121425D01*
X0145420Y0129807D01*
X0145055Y0130689D01*
X0143784Y0131960D01*
X0142902Y0132325D01*
X0141840Y0132325D01*
X0140700Y0133465D01*
X0140700Y0147635D01*
X0141861Y0148796D01*
X0142500Y0150340D01*
X0142500Y0152010D01*
X0141861Y0153554D01*
X0140679Y0154736D01*
X0139135Y0155375D01*
X0137465Y0155375D01*
X0135921Y0154736D01*
X0134739Y0153554D01*
X0134565Y0153133D01*
X0132123Y0155575D01*
X0130300Y0155575D01*
X0130300Y0151175D01*
X0130300Y0151175D01*
X0130300Y0146775D01*
X0132123Y0146775D01*
X0134565Y0149217D01*
X0134739Y0148796D01*
X0135900Y0147635D01*
X0135900Y0144200D01*
X0121948Y0144200D01*
X0121066Y0143835D01*
X0120390Y0143159D01*
X0118156Y0140925D01*
X0114832Y0140925D01*
X0112050Y0138143D01*
X0112050Y0134207D01*
X0114400Y0131857D01*
X0114400Y0119090D01*
X0112600Y0117290D01*
X0112600Y0113810D01*
X0115010Y0111400D01*
X0090170Y0111400D01*
X0088805Y0112765D01*
X0089736Y0113696D01*
X0090375Y0115240D01*
X0090375Y0122110D01*
X0089736Y0123654D01*
X0088554Y0124836D01*
X0087010Y0125475D01*
X0085340Y0125475D01*
X0083796Y0124836D01*
X0082614Y0123654D01*
X0081975Y0122110D01*
X0081975Y0115240D01*
X0082614Y0113696D01*
X0083796Y0112514D01*
X0084075Y0112399D01*
X0084075Y0111555D01*
X0086105Y0109525D01*
X0062045Y0109525D01*
X0058805Y0112765D01*
X0059736Y0113696D01*
X0060375Y0115240D01*
X0060375Y0122110D01*
X0059736Y0123654D01*
X0058554Y0124836D01*
X0057614Y0125225D01*
X0061514Y0125225D01*
X0062850Y0123889D01*
X0062614Y0123654D01*
X0061975Y0122110D01*
X0061975Y0115240D01*
X0062614Y0113696D01*
X0063796Y0112514D01*
X0065340Y0111875D01*
X0067010Y0111875D01*
X0068554Y0112514D01*
X0069736Y0113696D01*
X0070375Y0115240D01*
X0070375Y0122110D01*
X0069736Y0123654D01*
X0068554Y0124836D01*
X0067823Y0125139D01*
X0064625Y0128336D01*
X0064625Y0128336D01*
X0063336Y0129625D01*
X0035264Y0129625D01*
X0028289Y0122650D01*
X0024895Y0122650D01*
X0022200Y0119955D01*
X0021400Y0119955D01*
X0019000Y0122355D01*
X0019000Y0123745D01*
X0021400Y0126145D01*
X0021400Y0129955D01*
X0020077Y0131278D01*
X0020077Y0161780D01*
X0020414Y0161919D01*
X0021971Y0163477D01*
X0022814Y0165512D01*
X0022814Y0172127D01*
X0028728Y0178041D01*
X0029102Y0177667D01*
X0031137Y0176824D01*
X0041213Y0176824D01*
X0043248Y0177667D01*
X0044806Y0179225D01*
X0045649Y0181260D01*
X0045649Y0183462D01*
X0044806Y0185497D01*
X0043248Y0187055D01*
X0041213Y0187898D01*
X0031137Y0187898D01*
X0029102Y0187055D01*
X0027544Y0185497D01*
X0027034Y0184266D01*
X0021181Y0178414D01*
X0020414Y0179181D01*
X0018379Y0180024D01*
X0016176Y0180024D01*
X0014141Y0179181D01*
X0012583Y0177623D01*
X0011740Y0175588D01*
X0011740Y0165512D01*
X0012583Y0163477D01*
X0014141Y0161919D01*
X0014477Y0161780D01*
X0014477Y0132233D01*
X0012200Y0129955D01*
X0012200Y0126145D01*
X0014600Y0123745D01*
X0014600Y0122355D01*
X0012200Y0119955D01*
X0011475Y0119955D01*
X0012200Y0119955D02*
X0012200Y0116145D01*
X0014400Y0113945D01*
X0014400Y0112155D01*
X0012200Y0109955D01*
X0012200Y0106145D01*
X0014895Y0103450D01*
X0018705Y0103450D01*
X0021400Y0106145D01*
X0021400Y0109955D01*
X0019200Y0112155D01*
X0019200Y0113945D01*
X0021400Y0116145D01*
X0021400Y0119955D01*
X0022200Y0119955D02*
X0022200Y0116145D01*
X0024895Y0113450D01*
X0028705Y0113450D01*
X0031400Y0116145D01*
X0031400Y0119539D01*
X0037086Y0125225D01*
X0044236Y0125225D01*
X0043869Y0125038D01*
X0043309Y0124631D01*
X0042819Y0124141D01*
X0042412Y0123581D01*
X0042097Y0122964D01*
X0041883Y0122305D01*
X0041775Y0121621D01*
X0041775Y0118675D01*
X0046175Y0118675D01*
X0050575Y0118675D01*
X0050575Y0121621D01*
X0050467Y0122305D01*
X0050253Y0122964D01*
X0049938Y0123581D01*
X0049531Y0124141D01*
X0049041Y0124631D01*
X0048481Y0125038D01*
X0048114Y0125225D01*
X0054736Y0125225D01*
X0053796Y0124836D01*
X0052614Y0123654D01*
X0051975Y0122110D01*
X0051975Y0115240D01*
X0052614Y0113696D01*
X0053796Y0112514D01*
X0054075Y0112399D01*
X0054075Y0111555D01*
X0055305Y0110325D01*
X0060305Y0105325D01*
X0116730Y0105325D01*
X0113430Y0102025D01*
X0095305Y0102025D01*
X0088244Y0094964D01*
X0087010Y0095475D01*
X0085340Y0095475D01*
X0083796Y0094836D01*
X0082614Y0093654D01*
X0081975Y0092110D01*
X0081975Y0085240D01*
X0082614Y0083696D01*
X0083660Y0082650D01*
X0078690Y0082650D01*
X0079736Y0083696D01*
X0080375Y0085240D01*
X0080375Y0092110D01*
X0079736Y0093654D01*
X0078554Y0094836D01*
X0078375Y0094910D01*
X0078375Y0100836D01*
X0075250Y0103961D01*
X0075250Y0103961D01*
X0073961Y0105250D01*
X0058336Y0105250D01*
X0053336Y0110250D01*
X0031105Y0110250D01*
X0028705Y0112650D01*
X0024895Y0112650D01*
X0022200Y0109955D01*
X0022200Y0106145D01*
X0024895Y0103450D01*
X0028705Y0103450D01*
X0031105Y0105850D01*
X0051514Y0105850D01*
X0055225Y0102139D01*
X0056514Y0100850D01*
X0072139Y0100850D01*
X0073975Y0099014D01*
X0073975Y0094910D01*
X0073796Y0094836D01*
X0072614Y0093654D01*
X0071975Y0092110D01*
X0071975Y0085240D01*
X0072614Y0083696D01*
X0073660Y0082650D01*
X0068947Y0082650D01*
X0069041Y0082719D01*
X0069531Y0083209D01*
X0069938Y0083769D01*
X0070253Y0084386D01*
X0070467Y0085045D01*
X0070575Y0085729D01*
X0070575Y0088675D01*
X0070575Y0091621D01*
X0070467Y0092305D01*
X0070253Y0092964D01*
X0069938Y0093581D01*
X0069531Y0094141D01*
X0069041Y0094631D01*
X0068481Y0095038D01*
X0067864Y0095353D01*
X0067205Y0095567D01*
X0066521Y0095675D01*
X0066175Y0095675D01*
X0066175Y0088675D01*
X0066175Y0088675D01*
X0070575Y0088675D01*
X0066175Y0088675D01*
X0066175Y0088675D01*
X0066175Y0088675D01*
X0061775Y0088675D01*
X0061775Y0091621D01*
X0061883Y0092305D01*
X0062097Y0092964D01*
X0062412Y0093581D01*
X0062819Y0094141D01*
X0063309Y0094631D01*
X0063869Y0095038D01*
X0064486Y0095353D01*
X0065145Y0095567D01*
X0065829Y0095675D01*
X0066175Y0095675D01*
X0066175Y0088675D01*
X0061775Y0088675D01*
X0061775Y0085729D01*
X0061883Y0085045D01*
X0062097Y0084386D01*
X0062412Y0083769D01*
X0062819Y0083209D01*
X0063309Y0082719D01*
X0063403Y0082650D01*
X0058690Y0082650D01*
X0059736Y0083696D01*
X0060375Y0085240D01*
X0060375Y0092110D01*
X0059736Y0093654D01*
X0058554Y0094836D01*
X0057010Y0095475D01*
X0056236Y0095475D01*
X0052750Y0098961D01*
X0051461Y0100250D01*
X0031105Y0100250D01*
X0028705Y0102650D01*
X0024895Y0102650D01*
X0022200Y0099955D01*
X0022200Y0096145D01*
X0024895Y0093450D01*
X0028705Y0093450D01*
X0031105Y0095850D01*
X0049639Y0095850D01*
X0052386Y0093103D01*
X0051975Y0092110D01*
X0051975Y0085240D01*
X0052614Y0083696D01*
X0053660Y0082650D01*
X0053295Y0082650D01*
X0050375Y0085570D01*
X0050375Y0092110D01*
X0049736Y0093654D01*
X0048554Y0094836D01*
X0047010Y0095475D01*
X0045340Y0095475D01*
X0043796Y0094836D01*
X0042614Y0093654D01*
X0041975Y0092110D01*
X0041975Y0085240D01*
X0042614Y0083696D01*
X0043796Y0082514D01*
X0045340Y0081875D01*
X0047010Y0081875D01*
X0047802Y0082203D01*
X0050325Y0079680D01*
X0051555Y0078450D01*
X0105200Y0078450D01*
X0103100Y0076350D01*
X0103100Y0074300D01*
X0108050Y0074300D01*
X0113000Y0074300D01*
X0113000Y0076350D01*
X0110900Y0078450D01*
X0112670Y0078450D01*
X0115570Y0081350D01*
X0118540Y0081350D01*
X0121000Y0083810D01*
X0121000Y0087290D01*
X0118540Y0089750D01*
X0115060Y0089750D01*
X0112600Y0087290D01*
X0112600Y0084320D01*
X0110930Y0082650D01*
X0108690Y0082650D01*
X0109736Y0083696D01*
X0110375Y0085240D01*
X0110375Y0089764D01*
X0112249Y0091637D01*
X0125377Y0091637D01*
X0125377Y0090812D01*
X0125466Y0090723D01*
X0125466Y0078434D01*
X0123300Y0076268D01*
X0123300Y0072332D01*
X0126082Y0069550D01*
X0128725Y0069550D01*
X0128725Y0059810D01*
X0128546Y0059736D01*
X0127385Y0058575D01*
X0123160Y0058575D01*
X0123075Y0058781D01*
X0121781Y0060075D01*
X0120090Y0060775D01*
X0112260Y0060775D01*
X0110569Y0060075D01*
X0109275Y0058781D01*
X0108575Y0057090D01*
X0108575Y0055260D01*
X0109275Y0053569D01*
X0110569Y0052275D01*
X0112260Y0051575D01*
X0120090Y0051575D01*
X0121781Y0052275D01*
X0123075Y0053569D01*
X0123160Y0053775D01*
X0127385Y0053775D01*
X0128546Y0052614D01*
X0130090Y0051975D01*
X0131760Y0051975D01*
X0133304Y0052614D01*
X0134486Y0053796D01*
X0134660Y0054217D01*
X0137102Y0051775D01*
X0138925Y0051775D01*
X0140748Y0051775D01*
X0143325Y0054352D01*
X0143325Y0056175D01*
X0143325Y0057998D01*
X0140748Y0060575D01*
X0138925Y0060575D01*
X0138925Y0056175D01*
X0138925Y0056175D01*
X0143325Y0056175D01*
X0138925Y0056175D01*
X0138925Y0056175D01*
X0138925Y0060575D01*
X0137102Y0060575D01*
X0134660Y0058133D01*
X0134486Y0058554D01*
X0133304Y0059736D01*
X0133125Y0059810D01*
X0133125Y0072336D01*
X0132800Y0072661D01*
X0132800Y0076268D01*
X0130018Y0079050D01*
X0129866Y0079050D01*
X0129866Y0089675D01*
X0130225Y0089675D01*
X0130225Y0093837D01*
X0130225Y0093837D01*
X0130225Y0089675D01*
X0131151Y0089675D01*
X0131505Y0089770D01*
X0131858Y0089675D01*
X0132784Y0089675D01*
X0132784Y0093837D01*
X0132784Y0093837D01*
X0130295Y0093837D01*
X0130225Y0093837D01*
X0130225Y0093837D01*
X0130225Y0093838D02*
X0130225Y0098000D01*
X0129866Y0098000D01*
X0129866Y0099255D01*
X0130211Y0099600D01*
X0133143Y0099600D01*
X0133143Y0098000D01*
X0132784Y0098000D01*
X0131858Y0098000D01*
X0131505Y0097905D01*
X0131151Y0098000D01*
X0130225Y0098000D01*
X0130225Y0093838D01*
X0130225Y0093838D01*
X0130225Y0093837D02*
X0132784Y0093837D01*
X0132784Y0093837D01*
X0132784Y0089675D01*
X0133710Y0089675D01*
X0134168Y0089798D01*
X0134302Y0089875D01*
X0145939Y0089875D01*
X0145939Y0080721D01*
X0145671Y0080611D01*
X0144489Y0079429D01*
X0143850Y0077885D01*
X0143850Y0076215D01*
X0144489Y0074671D01*
X0145671Y0073489D01*
X0146092Y0073315D01*
X0143650Y0070873D01*
X0143650Y0069050D01*
X0148050Y0069050D01*
X0152450Y0069050D01*
X0152450Y0070873D01*
X0150008Y0073315D01*
X0150429Y0073489D01*
X0151611Y0074671D01*
X0152250Y0076215D01*
X0152250Y0077885D01*
X0151611Y0079429D01*
X0150429Y0080611D01*
X0150339Y0080648D01*
X0150339Y0089675D01*
X0150698Y0089675D01*
X0150850Y0089675D01*
X0150850Y0084639D01*
X0152139Y0083350D01*
X0174014Y0061475D01*
X0185264Y0061475D01*
X0186239Y0060500D01*
X0185550Y0060500D01*
X0185550Y0055550D01*
X0190500Y0055550D01*
X0190500Y0056239D01*
X0203350Y0043389D01*
X0203350Y0040067D01*
X0200800Y0037518D01*
X0200800Y0033582D01*
X0203582Y0030800D01*
X0207518Y0030800D01*
X0210068Y0033350D01*
X0216657Y0033350D01*
X0219207Y0030800D01*
X0223143Y0030800D01*
X0225693Y0033350D01*
X0230560Y0033350D01*
X0232560Y0031350D01*
X0236040Y0031350D01*
X0238500Y0033810D01*
X0238500Y0037290D01*
X0238500Y0036832D02*
X0260100Y0036832D01*
X0260100Y0037290D02*
X0260100Y0033810D01*
X0262560Y0031350D01*
X0266040Y0031350D01*
X0268500Y0033810D01*
X0268500Y0034375D01*
X0287858Y0034375D01*
X0288237Y0033459D01*
X0289784Y0031912D01*
X0291806Y0031075D01*
X0301794Y0031075D01*
X0303815Y0031912D01*
X0305363Y0033459D01*
X0306200Y0035481D01*
X0306200Y0037669D01*
X0305363Y0039690D01*
X0303815Y0041238D01*
X0301794Y0042075D01*
X0291806Y0042075D01*
X0289784Y0041238D01*
X0288237Y0039690D01*
X0287858Y0038775D01*
X0267015Y0038775D01*
X0266040Y0039750D01*
X0262560Y0039750D01*
X0260100Y0037290D01*
X0260100Y0035234D02*
X0238500Y0035234D01*
X0238325Y0033635D02*
X0260275Y0033635D01*
X0261873Y0032037D02*
X0236727Y0032037D01*
X0231873Y0032037D02*
X0224379Y0032037D01*
X0217971Y0032037D02*
X0208754Y0032037D01*
X0202346Y0032037D02*
X0189037Y0032037D01*
X0187600Y0030600D02*
X0190500Y0033500D01*
X0190500Y0035550D01*
X0190500Y0037600D01*
X0187600Y0040500D01*
X0185550Y0040500D01*
X0185550Y0035550D01*
X0190500Y0035550D01*
X0185550Y0035550D01*
X0185550Y0035550D01*
X0185550Y0035550D01*
X0185550Y0030600D01*
X0187600Y0030600D01*
X0185550Y0030600D02*
X0185550Y0035550D01*
X0185550Y0035550D01*
X0185550Y0035550D01*
X0180600Y0035550D01*
X0180600Y0037600D01*
X0183500Y0040500D01*
X0185550Y0040500D01*
X0185550Y0035550D01*
X0180600Y0035550D01*
X0180600Y0033500D01*
X0183500Y0030600D01*
X0185550Y0030600D01*
X0185550Y0032037D02*
X0185550Y0032037D01*
X0185550Y0033635D02*
X0185550Y0033635D01*
X0185550Y0035234D02*
X0185550Y0035234D01*
X0185550Y0036832D02*
X0185550Y0036832D01*
X0185550Y0038431D02*
X0185550Y0038431D01*
X0185550Y0040029D02*
X0185550Y0040029D01*
X0188071Y0040029D02*
X0203312Y0040029D01*
X0203350Y0041628D02*
X0173337Y0041628D01*
X0173337Y0040375D02*
X0172247Y0037743D01*
X0170232Y0035728D01*
X0167600Y0034638D01*
X0164750Y0034638D01*
X0162118Y0035728D01*
X0160103Y0037743D01*
X0159013Y0040375D01*
X0159013Y0043225D01*
X0160103Y0045857D01*
X0162118Y0047872D01*
X0164750Y0048962D01*
X0167600Y0048962D01*
X0170232Y0047872D01*
X0172247Y0045857D01*
X0173337Y0043225D01*
X0173337Y0040375D01*
X0173194Y0040029D02*
X0183029Y0040029D01*
X0181431Y0038431D02*
X0172532Y0038431D01*
X0171336Y0036832D02*
X0180600Y0036832D01*
X0180600Y0035234D02*
X0169039Y0035234D01*
X0163311Y0035234D02*
X0154250Y0035234D01*
X0154250Y0036175D02*
X0149300Y0036175D01*
X0154250Y0036175D01*
X0154250Y0038225D01*
X0151350Y0041125D01*
X0149300Y0041125D01*
X0149300Y0036175D01*
X0149300Y0036175D01*
X0149300Y0036175D01*
X0149300Y0031225D01*
X0151350Y0031225D01*
X0154250Y0034125D01*
X0154250Y0036175D01*
X0154250Y0036832D02*
X0161014Y0036832D01*
X0159818Y0038431D02*
X0154044Y0038431D01*
X0152446Y0040029D02*
X0159156Y0040029D01*
X0159013Y0041628D02*
X0120714Y0041628D01*
X0121018Y0041727D02*
X0121691Y0042070D01*
X0122302Y0042514D01*
X0122836Y0043048D01*
X0123280Y0043659D01*
X0123623Y0044332D01*
X0123857Y0045051D01*
X0123975Y0045797D01*
X0123975Y0045975D01*
X0116375Y0045975D01*
X0116375Y0046375D01*
X0115975Y0046375D01*
X0115975Y0050975D01*
X0112797Y0050975D01*
X0112051Y0050857D01*
X0111332Y0050623D01*
X0110659Y0050280D01*
X0110048Y0049836D01*
X0109514Y0049302D01*
X0109070Y0048691D01*
X0108727Y0048018D01*
X0108493Y0047299D01*
X0108375Y0046553D01*
X0108375Y0046375D01*
X0115975Y0046375D01*
X0115975Y0045975D01*
X0116375Y0045975D01*
X0116375Y0041375D01*
X0119553Y0041375D01*
X0120299Y0041493D01*
X0121018Y0041727D01*
X0120090Y0040775D02*
X0112260Y0040775D01*
X0110569Y0040075D01*
X0109470Y0038975D01*
X0105460Y0038975D01*
X0074636Y0069799D01*
X0073607Y0070225D01*
X0026710Y0070225D01*
X0021095Y0075840D01*
X0021400Y0076145D01*
X0021400Y0079955D01*
X0019600Y0081755D01*
X0019600Y0084345D01*
X0021400Y0086145D01*
X0021400Y0089955D01*
X0019600Y0091755D01*
X0019600Y0094345D01*
X0021400Y0096145D01*
X0021400Y0099955D01*
X0018705Y0102650D01*
X0014895Y0102650D01*
X0013707Y0101462D01*
X0011475Y0103179D01*
X0011475Y0179361D01*
X0027931Y0195250D01*
X0057115Y0195250D01*
X0057222Y0194991D01*
X0058741Y0193472D01*
X0060726Y0192650D01*
X0062874Y0192650D01*
X0064859Y0193472D01*
X0066378Y0194991D01*
X0067200Y0196976D01*
X0067200Y0199124D01*
X0066378Y0201109D01*
X0064859Y0202628D01*
X0062874Y0203450D01*
X0060726Y0203450D01*
X0058741Y0202628D01*
X0057222Y0201109D01*
X0057115Y0200850D01*
X0026825Y0200850D01*
X0026292Y0200859D01*
X0026269Y0200850D01*
X0026243Y0200850D01*
X0025751Y0200646D01*
X0025256Y0200451D01*
X0025237Y0200433D01*
X0025214Y0200424D01*
X0024837Y0200047D01*
X0007225Y0183042D01*
X0007225Y0206961D01*
X0314451Y0206961D01*
X0314451Y0007841D01*
X0007225Y0007234D01*
X0007225Y0099370D01*
X0007261Y0099355D01*
X0014000Y0094171D01*
X0014000Y0091755D01*
X0012200Y0089955D01*
X0012200Y0086145D01*
X0014000Y0084345D01*
X0014000Y0081755D01*
X0012200Y0079955D01*
X0012200Y0076145D01*
X0014895Y0073450D01*
X0015565Y0073450D01*
X0023176Y0065839D01*
X0023964Y0065051D01*
X0024993Y0064625D01*
X0071890Y0064625D01*
X0101926Y0034589D01*
X0102714Y0033801D01*
X0103743Y0033375D01*
X0109470Y0033375D01*
X0110569Y0032275D01*
X0112260Y0031575D01*
X0120090Y0031575D01*
X0121781Y0032275D01*
X0123075Y0033569D01*
X0123160Y0033775D01*
X0124982Y0033775D01*
X0127332Y0031425D01*
X0131268Y0031425D01*
X0134050Y0034207D01*
X0134050Y0038143D01*
X0131268Y0040925D01*
X0127332Y0040925D01*
X0124982Y0038575D01*
X0123160Y0038575D01*
X0123075Y0038781D01*
X0121781Y0040075D01*
X0120090Y0040775D01*
X0121826Y0040029D02*
X0126437Y0040029D01*
X0132163Y0040029D02*
X0146154Y0040029D01*
X0147250Y0041125D02*
X0144350Y0038225D01*
X0144350Y0036175D01*
X0149300Y0036175D01*
X0149300Y0036175D01*
X0149300Y0036175D01*
X0149300Y0041125D01*
X0147250Y0041125D01*
X0149300Y0040029D02*
X0149300Y0040029D01*
X0149300Y0038431D02*
X0149300Y0038431D01*
X0149300Y0036832D02*
X0149300Y0036832D01*
X0149300Y0036175D02*
X0144350Y0036175D01*
X0144350Y0034125D01*
X0147250Y0031225D01*
X0149300Y0031225D01*
X0149300Y0036175D01*
X0149300Y0035234D02*
X0149300Y0035234D01*
X0149300Y0033635D02*
X0149300Y0033635D01*
X0149300Y0032037D02*
X0149300Y0032037D01*
X0152162Y0032037D02*
X0182063Y0032037D01*
X0180600Y0033635D02*
X0153761Y0033635D01*
X0146438Y0032037D02*
X0131879Y0032037D01*
X0133478Y0033635D02*
X0144839Y0033635D01*
X0144350Y0035234D02*
X0134050Y0035234D01*
X0134050Y0036832D02*
X0144350Y0036832D01*
X0144556Y0038431D02*
X0133762Y0038431D01*
X0129300Y0036175D02*
X0116175Y0036175D01*
X0121205Y0032037D02*
X0126721Y0032037D01*
X0125122Y0033635D02*
X0123102Y0033635D01*
X0116375Y0041628D02*
X0115975Y0041628D01*
X0115975Y0041375D02*
X0115975Y0045975D01*
X0108375Y0045975D01*
X0108375Y0045797D01*
X0108493Y0045051D01*
X0108727Y0044332D01*
X0109070Y0043659D01*
X0109514Y0043048D01*
X0110048Y0042514D01*
X0110659Y0042070D01*
X0111332Y0041727D01*
X0112051Y0041493D01*
X0112797Y0041375D01*
X0115975Y0041375D01*
X0115975Y0043226D02*
X0116375Y0043226D01*
X0116375Y0044825D02*
X0115975Y0044825D01*
X0115975Y0046423D02*
X0116375Y0046423D01*
X0116375Y0046375D02*
X0116375Y0050975D01*
X0119553Y0050975D01*
X0120299Y0050857D01*
X0121018Y0050623D01*
X0121691Y0050280D01*
X0122302Y0049836D01*
X0122836Y0049302D01*
X0123280Y0048691D01*
X0123623Y0048018D01*
X0123857Y0047299D01*
X0123975Y0046553D01*
X0123975Y0046375D01*
X0116375Y0046375D01*
X0116375Y0048022D02*
X0115975Y0048022D01*
X0115975Y0049620D02*
X0116375Y0049620D01*
X0122518Y0049620D02*
X0197118Y0049620D01*
X0198717Y0048022D02*
X0169870Y0048022D01*
X0171680Y0046423D02*
X0200315Y0046423D01*
X0201914Y0044825D02*
X0172674Y0044825D01*
X0173336Y0043226D02*
X0203350Y0043226D01*
X0206538Y0046423D02*
X0314451Y0046423D01*
X0314451Y0044825D02*
X0207750Y0044825D01*
X0207750Y0043226D02*
X0314451Y0043226D01*
X0314451Y0041628D02*
X0302873Y0041628D01*
X0305024Y0040029D02*
X0314451Y0040029D01*
X0314451Y0038431D02*
X0305884Y0038431D01*
X0306200Y0036832D02*
X0314451Y0036832D01*
X0314451Y0035234D02*
X0306098Y0035234D01*
X0305436Y0033635D02*
X0314451Y0033635D01*
X0314451Y0032037D02*
X0303940Y0032037D01*
X0314451Y0030438D02*
X0007225Y0030438D01*
X0007225Y0028840D02*
X0314451Y0028840D01*
X0314451Y0027241D02*
X0007225Y0027241D01*
X0007225Y0025643D02*
X0314451Y0025643D01*
X0314451Y0024044D02*
X0293435Y0024044D01*
X0293357Y0024122D02*
X0290725Y0025212D01*
X0287875Y0025212D01*
X0285243Y0024122D01*
X0283228Y0022107D01*
X0282138Y0019475D01*
X0282138Y0016625D01*
X0283228Y0013993D01*
X0285243Y0011978D01*
X0287875Y0010888D01*
X0290725Y0010888D01*
X0293357Y0011978D01*
X0295372Y0013993D01*
X0296462Y0016625D01*
X0296462Y0019475D01*
X0295372Y0022107D01*
X0293357Y0024122D01*
X0295033Y0022446D02*
X0314451Y0022446D01*
X0314451Y0020847D02*
X0295894Y0020847D01*
X0296462Y0019249D02*
X0314451Y0019249D01*
X0314451Y0017650D02*
X0296462Y0017650D01*
X0296225Y0016052D02*
X0314451Y0016052D01*
X0314451Y0014453D02*
X0295562Y0014453D01*
X0294234Y0012855D02*
X0314451Y0012855D01*
X0314451Y0011256D02*
X0291614Y0011256D01*
X0286986Y0011256D02*
X0007225Y0011256D01*
X0007225Y0009658D02*
X0314451Y0009658D01*
X0314451Y0008059D02*
X0007225Y0008059D01*
X0007225Y0012855D02*
X0284366Y0012855D01*
X0283038Y0014453D02*
X0007225Y0014453D01*
X0007225Y0016052D02*
X0282375Y0016052D01*
X0282138Y0017650D02*
X0007225Y0017650D01*
X0007225Y0019249D02*
X0282138Y0019249D01*
X0282706Y0020847D02*
X0007225Y0020847D01*
X0007225Y0022446D02*
X0283567Y0022446D01*
X0285165Y0024044D02*
X0007225Y0024044D01*
X0007225Y0032037D02*
X0111145Y0032037D01*
X0103114Y0033635D02*
X0007225Y0033635D01*
X0007225Y0035234D02*
X0054348Y0035234D01*
X0055687Y0034875D02*
X0052813Y0035645D01*
X0050237Y0037133D01*
X0048133Y0039237D01*
X0046645Y0041813D01*
X0045875Y0044687D01*
X0045875Y0047663D01*
X0046645Y0050537D01*
X0048133Y0053113D01*
X0050237Y0055217D01*
X0052813Y0056705D01*
X0055687Y0057475D01*
X0058663Y0057475D01*
X0061537Y0056705D01*
X0064113Y0055217D01*
X0066217Y0053113D01*
X0067705Y0050537D01*
X0068475Y0047663D01*
X0068475Y0044687D01*
X0067705Y0041813D01*
X0066217Y0039237D01*
X0064113Y0037133D01*
X0061537Y0035645D01*
X0058663Y0034875D01*
X0055687Y0034875D01*
X0060002Y0035234D02*
X0101281Y0035234D01*
X0099683Y0036832D02*
X0063593Y0036832D01*
X0065412Y0038431D02*
X0098084Y0038431D01*
X0096486Y0040029D02*
X0066675Y0040029D01*
X0067598Y0041628D02*
X0094887Y0041628D01*
X0093289Y0043226D02*
X0068084Y0043226D01*
X0068475Y0044825D02*
X0091690Y0044825D01*
X0090092Y0046423D02*
X0068475Y0046423D01*
X0068379Y0048022D02*
X0088493Y0048022D01*
X0086895Y0049620D02*
X0067950Y0049620D01*
X0067311Y0051219D02*
X0085296Y0051219D01*
X0083698Y0052818D02*
X0066388Y0052818D01*
X0064915Y0054416D02*
X0082099Y0054416D01*
X0080501Y0056015D02*
X0062732Y0056015D01*
X0072508Y0064007D02*
X0007225Y0064007D01*
X0007225Y0062409D02*
X0074107Y0062409D01*
X0075705Y0060810D02*
X0007225Y0060810D01*
X0007225Y0059212D02*
X0077304Y0059212D01*
X0078902Y0057613D02*
X0007225Y0057613D01*
X0007225Y0056015D02*
X0051618Y0056015D01*
X0049435Y0054416D02*
X0007225Y0054416D01*
X0007225Y0052818D02*
X0047962Y0052818D01*
X0047039Y0051219D02*
X0007225Y0051219D01*
X0007225Y0049620D02*
X0046400Y0049620D01*
X0045971Y0048022D02*
X0007225Y0048022D01*
X0007225Y0046423D02*
X0045875Y0046423D01*
X0045875Y0044825D02*
X0007225Y0044825D01*
X0007225Y0043226D02*
X0046266Y0043226D01*
X0046752Y0041628D02*
X0007225Y0041628D01*
X0007225Y0040029D02*
X0047675Y0040029D01*
X0048938Y0038431D02*
X0007225Y0038431D01*
X0007225Y0036832D02*
X0050757Y0036832D01*
X0083625Y0060810D02*
X0128725Y0060810D01*
X0128725Y0062409D02*
X0082026Y0062409D01*
X0080428Y0064007D02*
X0128725Y0064007D01*
X0128725Y0065606D02*
X0078829Y0065606D01*
X0077231Y0067204D02*
X0128725Y0067204D01*
X0128725Y0068803D02*
X0075632Y0068803D01*
X0085223Y0059212D02*
X0109706Y0059212D01*
X0108792Y0057613D02*
X0086822Y0057613D01*
X0088420Y0056015D02*
X0108575Y0056015D01*
X0108925Y0054416D02*
X0090019Y0054416D01*
X0091617Y0052818D02*
X0110027Y0052818D01*
X0109832Y0049620D02*
X0094814Y0049620D01*
X0096413Y0048022D02*
X0108729Y0048022D01*
X0108375Y0046423D02*
X0098011Y0046423D01*
X0099610Y0044825D02*
X0108567Y0044825D01*
X0109384Y0043226D02*
X0101208Y0043226D01*
X0102807Y0041628D02*
X0111636Y0041628D01*
X0110524Y0040029D02*
X0104405Y0040029D01*
X0093216Y0051219D02*
X0182881Y0051219D01*
X0183500Y0050600D02*
X0185550Y0050600D01*
X0187600Y0050600D01*
X0190500Y0053500D01*
X0190500Y0055550D01*
X0185550Y0055550D01*
X0185550Y0055550D01*
X0185550Y0055550D01*
X0185550Y0050600D01*
X0185550Y0055550D01*
X0185550Y0055550D01*
X0185550Y0055550D01*
X0180600Y0055550D01*
X0180600Y0057600D01*
X0183500Y0060500D01*
X0185550Y0060500D01*
X0185550Y0055550D01*
X0180600Y0055550D01*
X0180600Y0053500D01*
X0183500Y0050600D01*
X0185550Y0051219D02*
X0185550Y0051219D01*
X0185550Y0052818D02*
X0185550Y0052818D01*
X0185550Y0054416D02*
X0185550Y0054416D01*
X0185550Y0056015D02*
X0185550Y0056015D01*
X0185550Y0057613D02*
X0185550Y0057613D01*
X0185550Y0059212D02*
X0185550Y0059212D01*
X0185929Y0060810D02*
X0133125Y0060810D01*
X0133125Y0062409D02*
X0173080Y0062409D01*
X0171482Y0064007D02*
X0133125Y0064007D01*
X0133125Y0065606D02*
X0145272Y0065606D01*
X0146227Y0064650D02*
X0143650Y0067227D01*
X0143650Y0069050D01*
X0148050Y0069050D01*
X0148050Y0069050D01*
X0152450Y0069050D01*
X0152450Y0067227D01*
X0149873Y0064650D01*
X0148050Y0064650D01*
X0148050Y0069050D01*
X0148050Y0069050D01*
X0148050Y0069050D01*
X0148050Y0064650D01*
X0146227Y0064650D01*
X0148050Y0065606D02*
X0148050Y0065606D01*
X0148050Y0067204D02*
X0148050Y0067204D01*
X0148050Y0068803D02*
X0148050Y0068803D01*
X0143650Y0068803D02*
X0133125Y0068803D01*
X0133125Y0070401D02*
X0143650Y0070401D01*
X0144777Y0072000D02*
X0133125Y0072000D01*
X0132800Y0073598D02*
X0145562Y0073598D01*
X0144272Y0075197D02*
X0132800Y0075197D01*
X0132272Y0076795D02*
X0143850Y0076795D01*
X0144061Y0078394D02*
X0130674Y0078394D01*
X0129866Y0079992D02*
X0145053Y0079992D01*
X0145939Y0081591D02*
X0129866Y0081591D01*
X0129866Y0083189D02*
X0145939Y0083189D01*
X0145939Y0084788D02*
X0129866Y0084788D01*
X0129866Y0086386D02*
X0145939Y0086386D01*
X0145939Y0087985D02*
X0129866Y0087985D01*
X0129866Y0089583D02*
X0145939Y0089583D01*
X0150339Y0089583D02*
X0150850Y0089583D01*
X0150698Y0089675D02*
X0150698Y0093837D01*
X0150698Y0093837D01*
X0150698Y0089675D01*
X0150698Y0091182D02*
X0150698Y0091182D01*
X0150698Y0092780D02*
X0150698Y0092780D01*
X0150698Y0094379D02*
X0150698Y0094379D01*
X0150698Y0095977D02*
X0150698Y0095977D01*
X0150698Y0097576D02*
X0150698Y0097576D01*
X0150850Y0087985D02*
X0150339Y0087985D01*
X0150339Y0086386D02*
X0150850Y0086386D01*
X0150850Y0084788D02*
X0150339Y0084788D01*
X0150339Y0083189D02*
X0152299Y0083189D01*
X0153898Y0081591D02*
X0150339Y0081591D01*
X0151047Y0079992D02*
X0155497Y0079992D01*
X0157095Y0078394D02*
X0152039Y0078394D01*
X0152250Y0076795D02*
X0158694Y0076795D01*
X0160292Y0075197D02*
X0151828Y0075197D01*
X0150538Y0073598D02*
X0161891Y0073598D01*
X0163489Y0072000D02*
X0151323Y0072000D01*
X0152450Y0070401D02*
X0165088Y0070401D01*
X0166686Y0068803D02*
X0152450Y0068803D01*
X0152427Y0067204D02*
X0168285Y0067204D01*
X0169883Y0065606D02*
X0150828Y0065606D01*
X0143673Y0067204D02*
X0133125Y0067204D01*
X0125231Y0070401D02*
X0111151Y0070401D01*
X0110100Y0069350D02*
X0113000Y0072250D01*
X0113000Y0074300D01*
X0108050Y0074300D01*
X0108050Y0074300D01*
X0108050Y0069350D01*
X0110100Y0069350D01*
X0108050Y0069350D02*
X0108050Y0074300D01*
X0108050Y0074300D01*
X0108050Y0074300D01*
X0103100Y0074300D01*
X0103100Y0072250D01*
X0106000Y0069350D01*
X0108050Y0069350D01*
X0108050Y0070401D02*
X0108050Y0070401D01*
X0108050Y0072000D02*
X0108050Y0072000D01*
X0108050Y0073598D02*
X0108050Y0073598D01*
X0113000Y0073598D02*
X0123300Y0073598D01*
X0123300Y0075197D02*
X0113000Y0075197D01*
X0112555Y0076795D02*
X0123828Y0076795D01*
X0125426Y0078394D02*
X0110957Y0078394D01*
X0114212Y0079992D02*
X0125466Y0079992D01*
X0125466Y0081591D02*
X0118780Y0081591D01*
X0120379Y0083189D02*
X0125466Y0083189D01*
X0125466Y0084788D02*
X0121000Y0084788D01*
X0121000Y0086386D02*
X0125466Y0086386D01*
X0125466Y0087985D02*
X0120305Y0087985D01*
X0118706Y0089583D02*
X0125466Y0089583D01*
X0125377Y0091182D02*
X0111793Y0091182D01*
X0110375Y0089583D02*
X0114894Y0089583D01*
X0113295Y0087985D02*
X0110375Y0087985D01*
X0110375Y0086386D02*
X0112600Y0086386D01*
X0112600Y0084788D02*
X0110188Y0084788D01*
X0109229Y0083189D02*
X0111469Y0083189D01*
X0105143Y0078394D02*
X0031400Y0078394D01*
X0031400Y0079955D02*
X0031400Y0076145D01*
X0028705Y0073450D01*
X0024895Y0073450D01*
X0022200Y0076145D01*
X0022200Y0079955D01*
X0024895Y0082650D01*
X0028705Y0082650D01*
X0031400Y0079955D01*
X0031363Y0079992D02*
X0050013Y0079992D01*
X0048414Y0081591D02*
X0029765Y0081591D01*
X0028705Y0083450D02*
X0031400Y0086145D01*
X0031400Y0089955D01*
X0028705Y0092650D01*
X0024895Y0092650D01*
X0022200Y0089955D01*
X0022200Y0086145D01*
X0024895Y0083450D01*
X0028705Y0083450D01*
X0030043Y0084788D02*
X0042162Y0084788D01*
X0041975Y0086386D02*
X0031400Y0086386D01*
X0031400Y0087985D02*
X0041975Y0087985D01*
X0041975Y0089583D02*
X0031400Y0089583D01*
X0030174Y0091182D02*
X0041975Y0091182D01*
X0042252Y0092780D02*
X0019600Y0092780D01*
X0019634Y0094379D02*
X0023966Y0094379D01*
X0022367Y0095977D02*
X0021233Y0095977D01*
X0021400Y0097576D02*
X0022200Y0097576D01*
X0022200Y0099174D02*
X0021400Y0099174D01*
X0020583Y0100773D02*
X0023017Y0100773D01*
X0024616Y0102371D02*
X0018984Y0102371D01*
X0019225Y0103970D02*
X0024375Y0103970D01*
X0022776Y0105568D02*
X0020824Y0105568D01*
X0021400Y0107167D02*
X0022200Y0107167D01*
X0022200Y0108765D02*
X0021400Y0108765D01*
X0020991Y0110364D02*
X0022609Y0110364D01*
X0024207Y0111962D02*
X0019393Y0111962D01*
X0019200Y0113561D02*
X0024784Y0113561D01*
X0023185Y0115159D02*
X0020415Y0115159D01*
X0021400Y0116758D02*
X0022200Y0116758D01*
X0022200Y0118356D02*
X0021400Y0118356D01*
X0019802Y0121553D02*
X0023798Y0121553D01*
X0024895Y0123450D02*
X0028705Y0123450D01*
X0031400Y0126145D01*
X0031400Y0129539D01*
X0032086Y0130225D01*
X0091514Y0130225D01*
X0093975Y0127764D01*
X0093975Y0124910D01*
X0093796Y0124836D01*
X0092614Y0123654D01*
X0091975Y0122110D01*
X0091975Y0115240D01*
X0092614Y0113696D01*
X0093796Y0112514D01*
X0095340Y0111875D01*
X0097010Y0111875D01*
X0098554Y0112514D01*
X0099736Y0113696D01*
X0100375Y0115240D01*
X0100375Y0122110D01*
X0099736Y0123654D01*
X0098554Y0124836D01*
X0098375Y0124910D01*
X0098375Y0129586D01*
X0094625Y0133336D01*
X0093336Y0134625D01*
X0030264Y0134625D01*
X0028289Y0132650D01*
X0024895Y0132650D01*
X0022200Y0129955D01*
X0022200Y0126145D01*
X0024895Y0123450D01*
X0023594Y0124751D02*
X0020006Y0124751D01*
X0019000Y0123152D02*
X0028791Y0123152D01*
X0030006Y0124751D02*
X0030389Y0124751D01*
X0031400Y0126349D02*
X0031988Y0126349D01*
X0031400Y0127948D02*
X0033586Y0127948D01*
X0035185Y0129546D02*
X0031407Y0129546D01*
X0028382Y0132743D02*
X0020077Y0132743D01*
X0020077Y0134342D02*
X0029980Y0134342D01*
X0023389Y0131145D02*
X0020211Y0131145D01*
X0021400Y0129546D02*
X0022200Y0129546D01*
X0022200Y0127948D02*
X0021400Y0127948D01*
X0021400Y0126349D02*
X0022200Y0126349D01*
X0014600Y0123152D02*
X0011475Y0123152D01*
X0011475Y0121553D02*
X0013798Y0121553D01*
X0012200Y0118356D02*
X0011475Y0118356D01*
X0011475Y0116758D02*
X0012200Y0116758D01*
X0011475Y0115159D02*
X0013185Y0115159D01*
X0014400Y0113561D02*
X0011475Y0113561D01*
X0011475Y0111962D02*
X0014207Y0111962D01*
X0012609Y0110364D02*
X0011475Y0110364D01*
X0011475Y0108765D02*
X0012200Y0108765D01*
X0012200Y0107167D02*
X0011475Y0107167D01*
X0011475Y0105568D02*
X0012776Y0105568D01*
X0011475Y0103970D02*
X0014375Y0103970D01*
X0014616Y0102371D02*
X0012525Y0102371D01*
X0007496Y0099174D02*
X0007225Y0099174D01*
X0007225Y0097576D02*
X0009574Y0097576D01*
X0011652Y0095977D02*
X0007225Y0095977D01*
X0007225Y0094379D02*
X0013730Y0094379D01*
X0014000Y0092780D02*
X0007225Y0092780D01*
X0007225Y0091182D02*
X0013426Y0091182D01*
X0012200Y0089583D02*
X0007225Y0089583D01*
X0007225Y0087985D02*
X0012200Y0087985D01*
X0012200Y0086386D02*
X0007225Y0086386D01*
X0007225Y0084788D02*
X0013557Y0084788D01*
X0014000Y0083189D02*
X0007225Y0083189D01*
X0007225Y0081591D02*
X0013835Y0081591D01*
X0012237Y0079992D02*
X0007225Y0079992D01*
X0007225Y0078394D02*
X0012200Y0078394D01*
X0012200Y0076795D02*
X0007225Y0076795D01*
X0007225Y0075197D02*
X0013148Y0075197D01*
X0014746Y0073598D02*
X0007225Y0073598D01*
X0007225Y0072000D02*
X0017016Y0072000D01*
X0018614Y0070401D02*
X0007225Y0070401D01*
X0007225Y0068803D02*
X0020213Y0068803D01*
X0021811Y0067204D02*
X0007225Y0067204D01*
X0007225Y0065606D02*
X0023410Y0065606D01*
X0026534Y0070401D02*
X0104949Y0070401D01*
X0103350Y0072000D02*
X0024935Y0072000D01*
X0024746Y0073598D02*
X0023337Y0073598D01*
X0023148Y0075197D02*
X0021738Y0075197D01*
X0021400Y0076795D02*
X0022200Y0076795D01*
X0022200Y0078394D02*
X0021400Y0078394D01*
X0021363Y0079992D02*
X0022237Y0079992D01*
X0023835Y0081591D02*
X0019765Y0081591D01*
X0019600Y0083189D02*
X0043121Y0083189D01*
X0050375Y0086386D02*
X0051975Y0086386D01*
X0051975Y0087985D02*
X0050375Y0087985D01*
X0050375Y0089583D02*
X0051975Y0089583D01*
X0051975Y0091182D02*
X0050375Y0091182D01*
X0050098Y0092780D02*
X0052252Y0092780D01*
X0051110Y0094379D02*
X0049011Y0094379D01*
X0054135Y0097576D02*
X0073975Y0097576D01*
X0073975Y0095977D02*
X0055734Y0095977D01*
X0059011Y0094379D02*
X0063056Y0094379D01*
X0062038Y0092780D02*
X0060098Y0092780D01*
X0060375Y0091182D02*
X0061775Y0091182D01*
X0061775Y0089583D02*
X0060375Y0089583D01*
X0060375Y0087985D02*
X0061775Y0087985D01*
X0061775Y0086386D02*
X0060375Y0086386D01*
X0060188Y0084788D02*
X0061967Y0084788D01*
X0062838Y0083189D02*
X0059229Y0083189D01*
X0053121Y0083189D02*
X0052756Y0083189D01*
X0052162Y0084788D02*
X0051157Y0084788D01*
X0043339Y0094379D02*
X0029634Y0094379D01*
X0023426Y0091182D02*
X0020174Y0091182D01*
X0021400Y0089583D02*
X0022200Y0089583D01*
X0022200Y0087985D02*
X0021400Y0087985D01*
X0021400Y0086386D02*
X0022200Y0086386D01*
X0023557Y0084788D02*
X0020043Y0084788D01*
X0016800Y0078050D02*
X0016800Y0077425D01*
X0028854Y0073598D02*
X0103100Y0073598D01*
X0103100Y0075197D02*
X0030452Y0075197D01*
X0031400Y0076795D02*
X0103545Y0076795D01*
X0112750Y0072000D02*
X0123633Y0072000D01*
X0122644Y0059212D02*
X0128022Y0059212D01*
X0130925Y0056175D02*
X0116175Y0056175D01*
X0122323Y0052818D02*
X0128343Y0052818D01*
X0133507Y0052818D02*
X0136060Y0052818D01*
X0138925Y0052818D02*
X0138925Y0052818D01*
X0138925Y0051775D02*
X0138925Y0056175D01*
X0138925Y0056175D01*
X0138925Y0051775D01*
X0138925Y0054416D02*
X0138925Y0054416D01*
X0138925Y0056015D02*
X0138925Y0056015D01*
X0138925Y0057613D02*
X0138925Y0057613D01*
X0138925Y0059212D02*
X0138925Y0059212D01*
X0135739Y0059212D02*
X0133828Y0059212D01*
X0142111Y0059212D02*
X0182211Y0059212D01*
X0180613Y0057613D02*
X0143325Y0057613D01*
X0143325Y0056015D02*
X0180600Y0056015D01*
X0180600Y0054416D02*
X0143325Y0054416D01*
X0141790Y0052818D02*
X0181282Y0052818D01*
X0188219Y0051219D02*
X0195520Y0051219D01*
X0193921Y0052818D02*
X0189818Y0052818D01*
X0190500Y0054416D02*
X0192323Y0054416D01*
X0190724Y0056015D02*
X0190500Y0056015D01*
X0193750Y0059212D02*
X0198777Y0059212D01*
X0197179Y0060810D02*
X0192151Y0060810D01*
X0190553Y0062409D02*
X0195580Y0062409D01*
X0198606Y0065606D02*
X0314451Y0065606D01*
X0314451Y0067204D02*
X0197007Y0067204D01*
X0200204Y0064007D02*
X0314451Y0064007D01*
X0314451Y0062409D02*
X0201803Y0062409D01*
X0203401Y0060810D02*
X0289557Y0060810D01*
X0289784Y0061038D02*
X0288237Y0059490D01*
X0287516Y0057750D01*
X0268040Y0057750D01*
X0266040Y0059750D01*
X0262560Y0059750D01*
X0260100Y0057290D01*
X0260100Y0053810D01*
X0262560Y0051350D01*
X0266040Y0051350D01*
X0268040Y0053350D01*
X0288200Y0053350D01*
X0288237Y0053259D01*
X0289784Y0051712D01*
X0291806Y0050875D01*
X0301794Y0050875D01*
X0303815Y0051712D01*
X0305363Y0053259D01*
X0306200Y0055281D01*
X0306200Y0057469D01*
X0305363Y0059490D01*
X0303815Y0061038D01*
X0301794Y0061875D01*
X0291806Y0061875D01*
X0289784Y0061038D01*
X0288122Y0059212D02*
X0266578Y0059212D01*
X0262022Y0059212D02*
X0236578Y0059212D01*
X0238177Y0057613D02*
X0260423Y0057613D01*
X0260100Y0056015D02*
X0238500Y0056015D01*
X0238500Y0054416D02*
X0260100Y0054416D01*
X0261093Y0052818D02*
X0237507Y0052818D01*
X0231093Y0052818D02*
X0225160Y0052818D01*
X0223562Y0051219D02*
X0290975Y0051219D01*
X0288679Y0052818D02*
X0267507Y0052818D01*
X0288576Y0040029D02*
X0223413Y0040029D01*
X0225012Y0038431D02*
X0231241Y0038431D01*
X0218937Y0040029D02*
X0207788Y0040029D01*
X0207750Y0041628D02*
X0290727Y0041628D01*
X0288164Y0033635D02*
X0268325Y0033635D01*
X0266727Y0032037D02*
X0289660Y0032037D01*
X0314451Y0048022D02*
X0204939Y0048022D01*
X0203341Y0049620D02*
X0314451Y0049620D01*
X0314451Y0051219D02*
X0302624Y0051219D01*
X0304921Y0052818D02*
X0314451Y0052818D01*
X0314451Y0054416D02*
X0305842Y0054416D01*
X0306200Y0056015D02*
X0314451Y0056015D01*
X0314451Y0057613D02*
X0306140Y0057613D01*
X0305478Y0059212D02*
X0314451Y0059212D01*
X0314451Y0060810D02*
X0304043Y0060810D01*
X0301794Y0070475D02*
X0291806Y0070475D01*
X0289784Y0071312D01*
X0288237Y0072859D01*
X0287858Y0073775D01*
X0268465Y0073775D01*
X0266040Y0071350D01*
X0262560Y0071350D01*
X0260100Y0073810D01*
X0260100Y0077290D01*
X0262560Y0079750D01*
X0266040Y0079750D01*
X0267615Y0078175D01*
X0287858Y0078175D01*
X0288237Y0079090D01*
X0289784Y0080638D01*
X0291806Y0081475D01*
X0301794Y0081475D01*
X0303815Y0080638D01*
X0305363Y0079090D01*
X0306200Y0077069D01*
X0306200Y0074881D01*
X0305363Y0072859D01*
X0303815Y0071312D01*
X0301794Y0070475D01*
X0304503Y0072000D02*
X0314451Y0072000D01*
X0314451Y0073598D02*
X0305669Y0073598D01*
X0306200Y0075197D02*
X0314451Y0075197D01*
X0314451Y0076795D02*
X0306200Y0076795D01*
X0305651Y0078394D02*
X0314451Y0078394D01*
X0314451Y0079992D02*
X0304461Y0079992D01*
X0314451Y0081591D02*
X0207750Y0081591D01*
X0207825Y0079992D02*
X0218275Y0079992D01*
X0216676Y0078394D02*
X0209424Y0078394D01*
X0206647Y0083189D02*
X0314451Y0083189D01*
X0314451Y0084788D02*
X0205049Y0084788D01*
X0203450Y0086386D02*
X0314451Y0086386D01*
X0314451Y0087985D02*
X0201852Y0087985D01*
X0202695Y0089583D02*
X0314451Y0089583D01*
X0314451Y0091182D02*
X0303885Y0091182D01*
X0303815Y0091112D02*
X0305363Y0092659D01*
X0306200Y0094681D01*
X0306200Y0096869D01*
X0305363Y0098890D01*
X0303815Y0100438D01*
X0301794Y0101275D01*
X0291806Y0101275D01*
X0289784Y0100438D01*
X0288237Y0098890D01*
X0287858Y0097975D01*
X0267815Y0097975D01*
X0266040Y0099750D01*
X0262560Y0099750D01*
X0260100Y0097290D01*
X0260100Y0093810D01*
X0262560Y0091350D01*
X0266040Y0091350D01*
X0268265Y0093575D01*
X0287858Y0093575D01*
X0288237Y0092659D01*
X0289784Y0091112D01*
X0291806Y0090275D01*
X0301794Y0090275D01*
X0303815Y0091112D01*
X0305413Y0092780D02*
X0314451Y0092780D01*
X0314451Y0094379D02*
X0306075Y0094379D01*
X0306200Y0095977D02*
X0314451Y0095977D01*
X0314451Y0097576D02*
X0305907Y0097576D01*
X0305079Y0099174D02*
X0314451Y0099174D01*
X0314451Y0100773D02*
X0303006Y0100773D01*
X0314451Y0102371D02*
X0137543Y0102371D01*
X0137543Y0100773D02*
X0290594Y0100773D01*
X0288521Y0099174D02*
X0266615Y0099174D01*
X0261985Y0099174D02*
X0236615Y0099174D01*
X0238214Y0097576D02*
X0260386Y0097576D01*
X0260100Y0095977D02*
X0238500Y0095977D01*
X0238500Y0094379D02*
X0260100Y0094379D01*
X0261130Y0092780D02*
X0237470Y0092780D01*
X0231130Y0092780D02*
X0224498Y0092780D01*
X0222899Y0091182D02*
X0289715Y0091182D01*
X0288187Y0092780D02*
X0267470Y0092780D01*
X0267396Y0078394D02*
X0287949Y0078394D01*
X0289139Y0079992D02*
X0222825Y0079992D01*
X0224424Y0078394D02*
X0231204Y0078394D01*
X0237396Y0078394D02*
X0261204Y0078394D01*
X0260100Y0076795D02*
X0238500Y0076795D01*
X0238500Y0075197D02*
X0260100Y0075197D01*
X0260312Y0073598D02*
X0238288Y0073598D01*
X0236689Y0072000D02*
X0261911Y0072000D01*
X0266689Y0072000D02*
X0289097Y0072000D01*
X0287931Y0073598D02*
X0268288Y0073598D01*
X0231911Y0072000D02*
X0223717Y0072000D01*
X0217383Y0072000D02*
X0208717Y0072000D01*
X0202383Y0072000D02*
X0189000Y0072000D01*
X0187600Y0070600D02*
X0185550Y0070600D01*
X0185550Y0075550D01*
X0190500Y0075550D01*
X0190500Y0077600D01*
X0187600Y0080500D01*
X0185550Y0080500D01*
X0185550Y0075550D01*
X0185550Y0075550D01*
X0185550Y0075550D01*
X0190500Y0075550D01*
X0190500Y0073500D01*
X0187600Y0070600D01*
X0185550Y0070600D02*
X0185550Y0075550D01*
X0185550Y0075550D01*
X0185550Y0075550D01*
X0180600Y0075550D01*
X0180600Y0077600D01*
X0183500Y0080500D01*
X0185550Y0080500D01*
X0185550Y0075550D01*
X0180600Y0075550D01*
X0180600Y0073500D01*
X0183500Y0070600D01*
X0185550Y0070600D01*
X0185550Y0072000D02*
X0185550Y0072000D01*
X0185550Y0073598D02*
X0185550Y0073598D01*
X0185550Y0075197D02*
X0185550Y0075197D01*
X0185550Y0076795D02*
X0185550Y0076795D01*
X0185550Y0078394D02*
X0185550Y0078394D01*
X0185550Y0079992D02*
X0185550Y0079992D01*
X0188108Y0079992D02*
X0203275Y0079992D01*
X0202023Y0081591D02*
X0163871Y0081591D01*
X0165469Y0079992D02*
X0182992Y0079992D01*
X0181393Y0078394D02*
X0167068Y0078394D01*
X0168666Y0076795D02*
X0180600Y0076795D01*
X0180600Y0075197D02*
X0170265Y0075197D01*
X0171863Y0073598D02*
X0180600Y0073598D01*
X0182100Y0072000D02*
X0173462Y0072000D01*
X0175060Y0070401D02*
X0314451Y0070401D01*
X0314451Y0068803D02*
X0176659Y0068803D01*
X0190500Y0073598D02*
X0200800Y0073598D01*
X0200800Y0075197D02*
X0190500Y0075197D01*
X0190500Y0076795D02*
X0200800Y0076795D01*
X0201676Y0078394D02*
X0189707Y0078394D01*
X0198826Y0084788D02*
X0160674Y0084788D01*
X0159727Y0086386D02*
X0159075Y0086386D01*
X0158129Y0087985D02*
X0158016Y0087985D01*
X0163375Y0092780D02*
X0181319Y0092780D01*
X0180600Y0094379D02*
X0163375Y0094379D01*
X0163223Y0095977D02*
X0180600Y0095977D01*
X0180600Y0097576D02*
X0162509Y0097576D01*
X0182174Y0099174D02*
X0137543Y0099174D01*
X0133143Y0099174D02*
X0129866Y0099174D01*
X0130225Y0097576D02*
X0130225Y0097576D01*
X0130225Y0095977D02*
X0130225Y0095977D01*
X0130225Y0094379D02*
X0130225Y0094379D01*
X0130225Y0092780D02*
X0130225Y0092780D01*
X0130225Y0091182D02*
X0130225Y0091182D01*
X0132784Y0091182D02*
X0132784Y0091182D01*
X0132784Y0092780D02*
X0132784Y0092780D01*
X0132784Y0093838D02*
X0132784Y0098000D01*
X0132784Y0093838D01*
X0132784Y0093838D01*
X0132784Y0094379D02*
X0132784Y0094379D01*
X0132784Y0095977D02*
X0132784Y0095977D01*
X0132784Y0097576D02*
X0132784Y0097576D01*
X0137543Y0103970D02*
X0314451Y0103970D01*
X0314451Y0105568D02*
X0137543Y0105568D01*
X0139028Y0107167D02*
X0314451Y0107167D01*
X0314451Y0108765D02*
X0140627Y0108765D01*
X0142225Y0110364D02*
X0314451Y0110364D01*
X0314451Y0111962D02*
X0142750Y0111962D01*
X0145579Y0113561D02*
X0145580Y0113561D01*
X0145579Y0115159D02*
X0145580Y0115159D01*
X0145579Y0116758D02*
X0145580Y0116758D01*
X0145579Y0118356D02*
X0145580Y0118356D01*
X0145579Y0119955D02*
X0145580Y0119955D01*
X0145420Y0121553D02*
X0151475Y0121553D01*
X0151475Y0123152D02*
X0145420Y0123152D01*
X0145420Y0124751D02*
X0151475Y0124751D01*
X0151475Y0126349D02*
X0145420Y0126349D01*
X0145420Y0127948D02*
X0151475Y0127948D01*
X0151475Y0129546D02*
X0145420Y0129546D01*
X0144600Y0131145D02*
X0151475Y0131145D01*
X0151475Y0132743D02*
X0141422Y0132743D01*
X0140700Y0134342D02*
X0151475Y0134342D01*
X0151475Y0135940D02*
X0140700Y0135940D01*
X0140700Y0137539D02*
X0151475Y0137539D01*
X0151475Y0139137D02*
X0140700Y0139137D01*
X0140700Y0140736D02*
X0151475Y0140736D01*
X0151475Y0142334D02*
X0140700Y0142334D01*
X0140700Y0143933D02*
X0151475Y0143933D01*
X0151475Y0145531D02*
X0140700Y0145531D01*
X0140700Y0147130D02*
X0151475Y0147130D01*
X0151475Y0148728D02*
X0141793Y0148728D01*
X0142495Y0150327D02*
X0151475Y0150327D01*
X0151475Y0151925D02*
X0142500Y0151925D01*
X0141873Y0153524D02*
X0151475Y0153524D01*
X0151475Y0155122D02*
X0139746Y0155122D01*
X0136854Y0155122D02*
X0132575Y0155122D01*
X0134174Y0153524D02*
X0134727Y0153524D01*
X0138300Y0151175D02*
X0138300Y0141800D01*
X0122425Y0141800D01*
X0116800Y0136175D01*
X0116800Y0115550D01*
X0121000Y0115159D02*
X0125325Y0115159D01*
X0125325Y0113561D02*
X0120751Y0113561D01*
X0121000Y0113810D02*
X0121000Y0117290D01*
X0119200Y0119090D01*
X0119200Y0131857D01*
X0121550Y0134207D01*
X0121550Y0137531D01*
X0123419Y0139400D01*
X0135900Y0139400D01*
X0135900Y0133465D01*
X0134739Y0132304D01*
X0134565Y0131883D01*
X0132123Y0134325D01*
X0130300Y0134325D01*
X0130300Y0129925D01*
X0130300Y0129925D01*
X0130300Y0125525D01*
X0132123Y0125525D01*
X0134565Y0127967D01*
X0134739Y0127546D01*
X0135921Y0126364D01*
X0137465Y0125725D01*
X0139135Y0125725D01*
X0140620Y0126340D01*
X0140620Y0121225D01*
X0126314Y0121225D01*
X0125377Y0120288D01*
X0125377Y0117943D01*
X0125325Y0117891D01*
X0125325Y0113295D01*
X0123430Y0111400D01*
X0118590Y0111400D01*
X0121000Y0113810D01*
X0119152Y0111962D02*
X0123993Y0111962D01*
X0125325Y0116758D02*
X0121000Y0116758D01*
X0119933Y0118356D02*
X0125377Y0118356D01*
X0125377Y0119955D02*
X0119200Y0119955D01*
X0119200Y0121553D02*
X0140620Y0121553D01*
X0140620Y0123152D02*
X0119200Y0123152D01*
X0119200Y0124751D02*
X0140620Y0124751D01*
X0135958Y0126349D02*
X0132947Y0126349D01*
X0134545Y0127948D02*
X0134573Y0127948D01*
X0138300Y0129925D02*
X0138300Y0141800D01*
X0135900Y0145531D02*
X0020077Y0145531D01*
X0020077Y0143933D02*
X0121302Y0143933D01*
X0119565Y0142334D02*
X0020077Y0142334D01*
X0020077Y0140736D02*
X0114643Y0140736D01*
X0113045Y0139137D02*
X0020077Y0139137D01*
X0020077Y0137539D02*
X0112050Y0137539D01*
X0112050Y0135940D02*
X0020077Y0135940D01*
X0014477Y0135940D02*
X0011475Y0135940D01*
X0011475Y0134342D02*
X0014477Y0134342D01*
X0014477Y0132743D02*
X0011475Y0132743D01*
X0011475Y0131145D02*
X0013389Y0131145D01*
X0012200Y0129546D02*
X0011475Y0129546D01*
X0011475Y0127948D02*
X0012200Y0127948D01*
X0012200Y0126349D02*
X0011475Y0126349D01*
X0011475Y0124751D02*
X0013594Y0124751D01*
X0016800Y0118050D02*
X0016800Y0108050D01*
X0028816Y0113561D02*
X0042563Y0113561D01*
X0042412Y0113769D02*
X0042819Y0113209D01*
X0043309Y0112719D01*
X0043869Y0112312D01*
X0044486Y0111997D01*
X0045145Y0111783D01*
X0045829Y0111675D01*
X0046175Y0111675D01*
X0046521Y0111675D01*
X0047205Y0111783D01*
X0047864Y0111997D01*
X0048481Y0112312D01*
X0049041Y0112719D01*
X0049531Y0113209D01*
X0049938Y0113769D01*
X0050253Y0114386D01*
X0050467Y0115045D01*
X0050575Y0115729D01*
X0050575Y0118675D01*
X0046175Y0118675D01*
X0046175Y0118675D01*
X0046175Y0111675D01*
X0046175Y0118675D01*
X0046175Y0118675D01*
X0046175Y0118675D01*
X0041775Y0118675D01*
X0041775Y0115729D01*
X0041883Y0115045D01*
X0042097Y0114386D01*
X0042412Y0113769D01*
X0041865Y0115159D02*
X0030415Y0115159D01*
X0031400Y0116758D02*
X0041775Y0116758D01*
X0041775Y0118356D02*
X0031400Y0118356D01*
X0031816Y0119955D02*
X0041775Y0119955D01*
X0041775Y0121553D02*
X0033415Y0121553D01*
X0035013Y0123152D02*
X0042193Y0123152D01*
X0043473Y0124751D02*
X0036612Y0124751D01*
X0046175Y0118356D02*
X0046175Y0118356D01*
X0046175Y0116758D02*
X0046175Y0116758D01*
X0046175Y0115159D02*
X0046175Y0115159D01*
X0046175Y0113561D02*
X0046175Y0113561D01*
X0046175Y0111962D02*
X0046175Y0111962D01*
X0047757Y0111962D02*
X0054075Y0111962D01*
X0055266Y0110364D02*
X0030991Y0110364D01*
X0029393Y0111962D02*
X0044593Y0111962D01*
X0049787Y0113561D02*
X0052749Y0113561D01*
X0052008Y0115159D02*
X0050485Y0115159D01*
X0050575Y0116758D02*
X0051975Y0116758D01*
X0051975Y0118356D02*
X0050575Y0118356D01*
X0050575Y0119955D02*
X0051975Y0119955D01*
X0051975Y0121553D02*
X0050575Y0121553D01*
X0050157Y0123152D02*
X0052406Y0123152D01*
X0053711Y0124751D02*
X0048877Y0124751D01*
X0058639Y0124751D02*
X0061988Y0124751D01*
X0062406Y0123152D02*
X0059944Y0123152D01*
X0060375Y0121553D02*
X0061975Y0121553D01*
X0061975Y0119955D02*
X0060375Y0119955D01*
X0060375Y0118356D02*
X0061975Y0118356D01*
X0061975Y0116758D02*
X0060375Y0116758D01*
X0060342Y0115159D02*
X0062008Y0115159D01*
X0062749Y0113561D02*
X0059601Y0113561D01*
X0059607Y0111962D02*
X0065128Y0111962D01*
X0067221Y0111962D02*
X0074593Y0111962D01*
X0074486Y0111997D02*
X0075145Y0111783D01*
X0075829Y0111675D01*
X0076175Y0111675D01*
X0076521Y0111675D01*
X0077205Y0111783D01*
X0077864Y0111997D01*
X0078481Y0112312D01*
X0079041Y0112719D01*
X0079531Y0113209D01*
X0079938Y0113769D01*
X0080253Y0114386D01*
X0080467Y0115045D01*
X0080575Y0115729D01*
X0080575Y0118675D01*
X0080575Y0121621D01*
X0080467Y0122305D01*
X0080253Y0122964D01*
X0079938Y0123581D01*
X0079531Y0124141D01*
X0079041Y0124631D01*
X0078481Y0125038D01*
X0077864Y0125353D01*
X0077205Y0125567D01*
X0076521Y0125675D01*
X0076175Y0125675D01*
X0076175Y0118675D01*
X0076175Y0118675D01*
X0080575Y0118675D01*
X0076175Y0118675D01*
X0076175Y0118675D01*
X0076175Y0118675D01*
X0071775Y0118675D01*
X0071775Y0121621D01*
X0071883Y0122305D01*
X0072097Y0122964D01*
X0072412Y0123581D01*
X0072819Y0124141D01*
X0073309Y0124631D01*
X0073869Y0125038D01*
X0074486Y0125353D01*
X0075145Y0125567D01*
X0075829Y0125675D01*
X0076175Y0125675D01*
X0076175Y0118675D01*
X0076175Y0111675D01*
X0076175Y0118675D01*
X0076175Y0118675D01*
X0071775Y0118675D01*
X0071775Y0115729D01*
X0071883Y0115045D01*
X0072097Y0114386D01*
X0072412Y0113769D01*
X0072819Y0113209D01*
X0073309Y0112719D01*
X0073869Y0112312D01*
X0074486Y0111997D01*
X0076175Y0111962D02*
X0076175Y0111962D01*
X0077757Y0111962D02*
X0084075Y0111962D01*
X0085266Y0110364D02*
X0061206Y0110364D01*
X0058463Y0107167D02*
X0056419Y0107167D01*
X0056865Y0108765D02*
X0054821Y0108765D01*
X0051795Y0105568D02*
X0030824Y0105568D01*
X0029225Y0103970D02*
X0053394Y0103970D01*
X0054992Y0102371D02*
X0028984Y0102371D01*
X0030583Y0100773D02*
X0072216Y0100773D01*
X0073814Y0099174D02*
X0052537Y0099174D01*
X0058018Y0105568D02*
X0060062Y0105568D01*
X0069601Y0113561D02*
X0072563Y0113561D01*
X0071865Y0115159D02*
X0070342Y0115159D01*
X0070375Y0116758D02*
X0071775Y0116758D01*
X0071775Y0118356D02*
X0070375Y0118356D01*
X0070375Y0119955D02*
X0071775Y0119955D01*
X0071775Y0121553D02*
X0070375Y0121553D01*
X0069944Y0123152D02*
X0072193Y0123152D01*
X0073473Y0124751D02*
X0068639Y0124751D01*
X0066612Y0126349D02*
X0093975Y0126349D01*
X0093791Y0127948D02*
X0065014Y0127948D01*
X0063415Y0129546D02*
X0092193Y0129546D01*
X0095218Y0132743D02*
X0113514Y0132743D01*
X0114400Y0131145D02*
X0096817Y0131145D01*
X0098375Y0129546D02*
X0114400Y0129546D01*
X0114400Y0127948D02*
X0098375Y0127948D01*
X0098375Y0126349D02*
X0114400Y0126349D01*
X0114400Y0124751D02*
X0108877Y0124751D01*
X0109041Y0124631D02*
X0108481Y0125038D01*
X0107864Y0125353D01*
X0107205Y0125567D01*
X0106521Y0125675D01*
X0106175Y0125675D01*
X0106175Y0118675D01*
X0106175Y0118675D01*
X0110575Y0118675D01*
X0110575Y0121621D01*
X0110467Y0122305D01*
X0110253Y0122964D01*
X0109938Y0123581D01*
X0109531Y0124141D01*
X0109041Y0124631D01*
X0110157Y0123152D02*
X0114400Y0123152D01*
X0114400Y0121553D02*
X0110575Y0121553D01*
X0110575Y0119955D02*
X0114400Y0119955D01*
X0113667Y0118356D02*
X0110575Y0118356D01*
X0110575Y0118675D02*
X0106175Y0118675D01*
X0106175Y0118675D01*
X0106175Y0118675D01*
X0101775Y0118675D01*
X0101775Y0121621D01*
X0101883Y0122305D01*
X0102097Y0122964D01*
X0102412Y0123581D01*
X0102819Y0124141D01*
X0103309Y0124631D01*
X0103869Y0125038D01*
X0104486Y0125353D01*
X0105145Y0125567D01*
X0105829Y0125675D01*
X0106175Y0125675D01*
X0106175Y0118675D01*
X0106175Y0111675D01*
X0106521Y0111675D01*
X0107205Y0111783D01*
X0107864Y0111997D01*
X0108481Y0112312D01*
X0109041Y0112719D01*
X0109531Y0113209D01*
X0109938Y0113769D01*
X0110253Y0114386D01*
X0110467Y0115045D01*
X0110575Y0115729D01*
X0110575Y0118675D01*
X0110575Y0116758D02*
X0112600Y0116758D01*
X0112600Y0115159D02*
X0110485Y0115159D01*
X0109787Y0113561D02*
X0112849Y0113561D01*
X0114448Y0111962D02*
X0107757Y0111962D01*
X0106175Y0111962D02*
X0106175Y0111962D01*
X0106175Y0111675D02*
X0106175Y0118675D01*
X0106175Y0118675D01*
X0101775Y0118675D01*
X0101775Y0115729D01*
X0101883Y0115045D01*
X0102097Y0114386D01*
X0102412Y0113769D01*
X0102819Y0113209D01*
X0103309Y0112719D01*
X0103869Y0112312D01*
X0104486Y0111997D01*
X0105145Y0111783D01*
X0105829Y0111675D01*
X0106175Y0111675D01*
X0104593Y0111962D02*
X0097221Y0111962D01*
X0095128Y0111962D02*
X0089607Y0111962D01*
X0089601Y0113561D02*
X0092749Y0113561D01*
X0092008Y0115159D02*
X0090342Y0115159D01*
X0090375Y0116758D02*
X0091975Y0116758D01*
X0091975Y0118356D02*
X0090375Y0118356D01*
X0090375Y0119955D02*
X0091975Y0119955D01*
X0091975Y0121553D02*
X0090375Y0121553D01*
X0089944Y0123152D02*
X0092406Y0123152D01*
X0093711Y0124751D02*
X0088639Y0124751D01*
X0083711Y0124751D02*
X0078877Y0124751D01*
X0080157Y0123152D02*
X0082406Y0123152D01*
X0081975Y0121553D02*
X0080575Y0121553D01*
X0080575Y0119955D02*
X0081975Y0119955D01*
X0081975Y0118356D02*
X0080575Y0118356D01*
X0080575Y0116758D02*
X0081975Y0116758D01*
X0082008Y0115159D02*
X0080485Y0115159D01*
X0079787Y0113561D02*
X0082749Y0113561D01*
X0076175Y0113561D02*
X0076175Y0113561D01*
X0076175Y0115159D02*
X0076175Y0115159D01*
X0076175Y0116758D02*
X0076175Y0116758D01*
X0076175Y0118356D02*
X0076175Y0118356D01*
X0076175Y0119955D02*
X0076175Y0119955D01*
X0076175Y0121553D02*
X0076175Y0121553D01*
X0076175Y0123152D02*
X0076175Y0123152D01*
X0076175Y0124751D02*
X0076175Y0124751D01*
X0093620Y0134342D02*
X0112050Y0134342D01*
X0119200Y0131145D02*
X0125900Y0131145D01*
X0125900Y0131748D02*
X0125900Y0129925D01*
X0130300Y0129925D01*
X0130300Y0129925D01*
X0130300Y0129925D01*
X0130300Y0134325D01*
X0128477Y0134325D01*
X0125900Y0131748D01*
X0126896Y0132743D02*
X0120086Y0132743D01*
X0121550Y0134342D02*
X0135900Y0134342D01*
X0135900Y0135940D02*
X0121550Y0135940D01*
X0121558Y0137539D02*
X0135900Y0137539D01*
X0135900Y0139137D02*
X0123156Y0139137D01*
X0130300Y0132743D02*
X0130300Y0132743D01*
X0130300Y0131145D02*
X0130300Y0131145D01*
X0130300Y0129925D02*
X0125900Y0129925D01*
X0125900Y0128102D01*
X0128477Y0125525D01*
X0130300Y0125525D01*
X0130300Y0129925D01*
X0130300Y0129546D02*
X0130300Y0129546D01*
X0130300Y0127948D02*
X0130300Y0127948D01*
X0130300Y0126349D02*
X0130300Y0126349D01*
X0127653Y0126349D02*
X0119200Y0126349D01*
X0119200Y0127948D02*
X0126055Y0127948D01*
X0125900Y0129546D02*
X0119200Y0129546D01*
X0106175Y0124751D02*
X0106175Y0124751D01*
X0106175Y0123152D02*
X0106175Y0123152D01*
X0106175Y0121553D02*
X0106175Y0121553D01*
X0106175Y0119955D02*
X0106175Y0119955D01*
X0106175Y0118356D02*
X0106175Y0118356D01*
X0106175Y0116758D02*
X0106175Y0116758D01*
X0106175Y0115159D02*
X0106175Y0115159D01*
X0106175Y0113561D02*
X0106175Y0113561D01*
X0102563Y0113561D02*
X0099601Y0113561D01*
X0100342Y0115159D02*
X0101865Y0115159D01*
X0101775Y0116758D02*
X0100375Y0116758D01*
X0100375Y0118356D02*
X0101775Y0118356D01*
X0101775Y0119955D02*
X0100375Y0119955D01*
X0100375Y0121553D02*
X0101775Y0121553D01*
X0102193Y0123152D02*
X0099944Y0123152D01*
X0098639Y0124751D02*
X0103473Y0124751D01*
X0133704Y0132743D02*
X0135178Y0132743D01*
X0138300Y0129925D02*
X0142425Y0129925D01*
X0143020Y0129330D01*
X0143020Y0117263D01*
X0143050Y0117292D01*
X0158016Y0124751D02*
X0158514Y0124751D01*
X0158016Y0126349D02*
X0160113Y0126349D01*
X0161711Y0127948D02*
X0158016Y0127948D01*
X0158016Y0129546D02*
X0163310Y0129546D01*
X0164908Y0131145D02*
X0158016Y0131145D01*
X0158016Y0132743D02*
X0166507Y0132743D01*
X0168105Y0134342D02*
X0158016Y0134342D01*
X0158016Y0135940D02*
X0183785Y0135940D01*
X0184125Y0135600D02*
X0181225Y0138500D01*
X0181225Y0140550D01*
X0186175Y0140550D01*
X0191125Y0140550D01*
X0191125Y0142600D01*
X0188225Y0145500D01*
X0186175Y0145500D01*
X0186175Y0140550D01*
X0186175Y0140550D01*
X0186175Y0140550D01*
X0191125Y0140550D01*
X0191125Y0138500D01*
X0188225Y0135600D01*
X0186175Y0135600D01*
X0186175Y0140550D01*
X0186175Y0140550D01*
X0186175Y0140550D01*
X0186175Y0145500D01*
X0184125Y0145500D01*
X0181225Y0142600D01*
X0181225Y0140550D01*
X0186175Y0140550D01*
X0186175Y0135600D01*
X0184125Y0135600D01*
X0186175Y0135940D02*
X0186175Y0135940D01*
X0186175Y0137539D02*
X0186175Y0137539D01*
X0186175Y0139137D02*
X0186175Y0139137D01*
X0186175Y0140736D02*
X0186175Y0140736D01*
X0186175Y0142334D02*
X0186175Y0142334D01*
X0186175Y0143933D02*
X0186175Y0143933D01*
X0189793Y0143933D02*
X0202840Y0143933D01*
X0201425Y0142334D02*
X0191125Y0142334D01*
X0191125Y0140736D02*
X0200749Y0140736D01*
X0199151Y0139137D02*
X0191125Y0139137D01*
X0190164Y0137539D02*
X0197552Y0137539D01*
X0195954Y0135940D02*
X0188565Y0135940D01*
X0182186Y0137539D02*
X0158016Y0137539D01*
X0158016Y0139137D02*
X0181225Y0139137D01*
X0181225Y0140736D02*
X0158016Y0140736D01*
X0158016Y0142334D02*
X0181225Y0142334D01*
X0182557Y0143933D02*
X0158016Y0143933D01*
X0158016Y0145531D02*
X0291579Y0145531D01*
X0291806Y0145625D02*
X0289784Y0144788D01*
X0288237Y0143240D01*
X0287858Y0142325D01*
X0267215Y0142325D01*
X0264790Y0144750D01*
X0261310Y0144750D01*
X0258850Y0142290D01*
X0258850Y0138810D01*
X0261310Y0136350D01*
X0264790Y0136350D01*
X0266365Y0137925D01*
X0287858Y0137925D01*
X0288237Y0137009D01*
X0289784Y0135462D01*
X0291806Y0134625D01*
X0301794Y0134625D01*
X0303815Y0135462D01*
X0305363Y0137009D01*
X0306200Y0139031D01*
X0306200Y0141219D01*
X0305363Y0143240D01*
X0303815Y0144788D01*
X0301794Y0145625D01*
X0291806Y0145625D01*
X0288929Y0143933D02*
X0265607Y0143933D01*
X0267206Y0142334D02*
X0287862Y0142334D01*
X0288018Y0137539D02*
X0265978Y0137539D01*
X0260122Y0137539D02*
X0235978Y0137539D01*
X0237250Y0139137D02*
X0258850Y0139137D01*
X0258850Y0140736D02*
X0237250Y0140736D01*
X0237206Y0142334D02*
X0258894Y0142334D01*
X0260493Y0143933D02*
X0235607Y0143933D01*
X0230493Y0143933D02*
X0225135Y0143933D01*
X0218465Y0143933D02*
X0209510Y0143933D01*
X0209881Y0137539D02*
X0218094Y0137539D01*
X0219692Y0135940D02*
X0208283Y0135940D01*
X0204067Y0135940D02*
X0202176Y0135940D01*
X0200578Y0134342D02*
X0314451Y0134342D01*
X0314451Y0135940D02*
X0304293Y0135940D01*
X0305582Y0137539D02*
X0314451Y0137539D01*
X0314451Y0139137D02*
X0306200Y0139137D01*
X0306200Y0140736D02*
X0314451Y0140736D01*
X0314451Y0142334D02*
X0305738Y0142334D01*
X0304670Y0143933D02*
X0314451Y0143933D01*
X0314451Y0145531D02*
X0302021Y0145531D01*
X0301794Y0154225D02*
X0291806Y0154225D01*
X0289784Y0155062D01*
X0288237Y0156609D01*
X0287858Y0157525D01*
X0267215Y0157525D01*
X0266040Y0156350D01*
X0262560Y0156350D01*
X0260100Y0158810D01*
X0260100Y0162290D01*
X0262560Y0164750D01*
X0266040Y0164750D01*
X0268500Y0162290D01*
X0268500Y0161925D01*
X0287858Y0161925D01*
X0288237Y0162840D01*
X0289784Y0164388D01*
X0291806Y0165225D01*
X0301794Y0165225D01*
X0303815Y0164388D01*
X0305363Y0162840D01*
X0306200Y0160819D01*
X0306200Y0158631D01*
X0305363Y0156609D01*
X0303815Y0155062D01*
X0301794Y0154225D01*
X0303875Y0155122D02*
X0314451Y0155122D01*
X0314451Y0153524D02*
X0158016Y0153524D01*
X0158016Y0155122D02*
X0289725Y0155122D01*
X0288191Y0156721D02*
X0266410Y0156721D01*
X0262190Y0156721D02*
X0236410Y0156721D01*
X0238009Y0158319D02*
X0260591Y0158319D01*
X0260100Y0159918D02*
X0238500Y0159918D01*
X0238500Y0161516D02*
X0260100Y0161516D01*
X0260925Y0163115D02*
X0237675Y0163115D01*
X0236076Y0164713D02*
X0262524Y0164713D01*
X0266076Y0164713D02*
X0290571Y0164713D01*
X0288512Y0163115D02*
X0267675Y0163115D01*
X0266040Y0176350D02*
X0262560Y0176350D01*
X0260100Y0178810D01*
X0260100Y0182290D01*
X0262560Y0184750D01*
X0266040Y0184750D01*
X0268500Y0182290D01*
X0268500Y0181725D01*
X0287858Y0181725D01*
X0288237Y0182640D01*
X0289784Y0184188D01*
X0291806Y0185025D01*
X0301794Y0185025D01*
X0303815Y0184188D01*
X0305363Y0182640D01*
X0306200Y0180619D01*
X0306200Y0178431D01*
X0305363Y0176409D01*
X0303815Y0174862D01*
X0301794Y0174025D01*
X0291806Y0174025D01*
X0289784Y0174862D01*
X0288237Y0176409D01*
X0287858Y0177325D01*
X0267015Y0177325D01*
X0266040Y0176350D01*
X0261409Y0177501D02*
X0237191Y0177501D01*
X0238500Y0179100D02*
X0260100Y0179100D01*
X0260100Y0180698D02*
X0238500Y0180698D01*
X0238493Y0182297D02*
X0260107Y0182297D01*
X0261706Y0183895D02*
X0236894Y0183895D01*
X0231706Y0183895D02*
X0223922Y0183895D01*
X0217178Y0183895D02*
X0208922Y0183895D01*
X0202178Y0183895D02*
X0189205Y0183895D01*
X0190500Y0182600D02*
X0187600Y0185500D01*
X0185550Y0185500D01*
X0185550Y0180550D01*
X0190500Y0180550D01*
X0190500Y0182600D01*
X0190500Y0182297D02*
X0200800Y0182297D01*
X0200800Y0180698D02*
X0190500Y0180698D01*
X0190500Y0180550D02*
X0185550Y0180550D01*
X0185550Y0180550D01*
X0185550Y0180550D01*
X0185550Y0175600D01*
X0187600Y0175600D01*
X0190500Y0178500D01*
X0190500Y0180550D01*
X0190500Y0179100D02*
X0200800Y0179100D01*
X0199390Y0177501D02*
X0189502Y0177501D01*
X0187903Y0175903D02*
X0197792Y0175903D01*
X0202416Y0174304D02*
X0291132Y0174304D01*
X0288744Y0175903D02*
X0222620Y0175903D01*
X0224219Y0177501D02*
X0231409Y0177501D01*
X0218480Y0175903D02*
X0207620Y0175903D01*
X0209219Y0177501D02*
X0216881Y0177501D01*
X0200817Y0172706D02*
X0314451Y0172706D01*
X0314451Y0174304D02*
X0302468Y0174304D01*
X0304856Y0175903D02*
X0314451Y0175903D01*
X0314451Y0177501D02*
X0305815Y0177501D01*
X0306200Y0179100D02*
X0314451Y0179100D01*
X0314451Y0180698D02*
X0306167Y0180698D01*
X0305505Y0182297D02*
X0314451Y0182297D01*
X0314451Y0183895D02*
X0304108Y0183895D01*
X0314451Y0185494D02*
X0187606Y0185494D01*
X0185550Y0185494D02*
X0185550Y0185494D01*
X0185550Y0185500D02*
X0183500Y0185500D01*
X0180600Y0182600D01*
X0180600Y0180550D01*
X0185550Y0180550D01*
X0185550Y0180550D01*
X0185550Y0180550D01*
X0185550Y0185500D01*
X0185550Y0183895D02*
X0185550Y0183895D01*
X0185550Y0182297D02*
X0185550Y0182297D01*
X0185550Y0180698D02*
X0185550Y0180698D01*
X0185550Y0180550D02*
X0180600Y0180550D01*
X0180600Y0178500D01*
X0183500Y0175600D01*
X0185550Y0175600D01*
X0185550Y0180550D01*
X0185550Y0179100D02*
X0185550Y0179100D01*
X0185550Y0177501D02*
X0185550Y0177501D01*
X0185550Y0175903D02*
X0185550Y0175903D01*
X0183197Y0175903D02*
X0026590Y0175903D01*
X0028189Y0177501D02*
X0029501Y0177501D01*
X0024992Y0174304D02*
X0160568Y0174304D01*
X0158970Y0172706D02*
X0023393Y0172706D01*
X0022814Y0171107D02*
X0157371Y0171107D01*
X0155773Y0169509D02*
X0022814Y0169509D01*
X0022814Y0167910D02*
X0154174Y0167910D01*
X0152576Y0166312D02*
X0022814Y0166312D01*
X0022484Y0164713D02*
X0151475Y0164713D01*
X0151475Y0163115D02*
X0063683Y0163115D01*
X0062874Y0163450D02*
X0060726Y0163450D01*
X0058741Y0162628D01*
X0057259Y0161145D01*
X0044945Y0161145D01*
X0044806Y0161482D01*
X0043248Y0163039D01*
X0041213Y0163882D01*
X0031137Y0163882D01*
X0029102Y0163039D01*
X0027544Y0161482D01*
X0026701Y0159447D01*
X0026701Y0157244D01*
X0027544Y0155209D01*
X0029102Y0153651D01*
X0031137Y0152808D01*
X0041213Y0152808D01*
X0043248Y0153651D01*
X0044806Y0155209D01*
X0044945Y0155545D01*
X0056993Y0155545D01*
X0057222Y0154991D01*
X0058741Y0153472D01*
X0060726Y0152650D01*
X0062874Y0152650D01*
X0064859Y0153472D01*
X0066378Y0154991D01*
X0067200Y0156976D01*
X0067200Y0159124D01*
X0066378Y0161109D01*
X0064859Y0162628D01*
X0062874Y0163450D01*
X0059917Y0163115D02*
X0043066Y0163115D01*
X0044771Y0161516D02*
X0057630Y0161516D01*
X0057168Y0155122D02*
X0044719Y0155122D01*
X0042941Y0153524D02*
X0058690Y0153524D01*
X0064910Y0153524D02*
X0112451Y0153524D01*
X0111850Y0154125D02*
X0114750Y0151225D01*
X0116800Y0151225D01*
X0118850Y0151225D01*
X0121750Y0154125D01*
X0121750Y0156175D01*
X0121750Y0158225D01*
X0118850Y0161125D01*
X0116800Y0161125D01*
X0116800Y0156175D01*
X0116800Y0156175D01*
X0121750Y0156175D01*
X0116800Y0156175D01*
X0116800Y0156175D01*
X0116800Y0156175D01*
X0111850Y0156175D01*
X0111850Y0158225D01*
X0114750Y0161125D01*
X0116800Y0161125D01*
X0116800Y0156175D01*
X0116800Y0151225D01*
X0116800Y0156175D01*
X0116800Y0156175D01*
X0111850Y0156175D01*
X0111850Y0154125D01*
X0111850Y0155122D02*
X0066432Y0155122D01*
X0067094Y0156721D02*
X0111850Y0156721D01*
X0111944Y0158319D02*
X0067200Y0158319D01*
X0066871Y0159918D02*
X0113542Y0159918D01*
X0116800Y0159918D02*
X0116800Y0159918D01*
X0116800Y0158319D02*
X0116800Y0158319D01*
X0116800Y0156721D02*
X0116800Y0156721D01*
X0116800Y0155122D02*
X0116800Y0155122D01*
X0116800Y0153524D02*
X0116800Y0153524D01*
X0116800Y0151925D02*
X0116800Y0151925D01*
X0119551Y0151925D02*
X0125900Y0151925D01*
X0125900Y0151175D02*
X0130300Y0151175D01*
X0130300Y0151175D01*
X0130300Y0151175D01*
X0130300Y0155575D01*
X0128477Y0155575D01*
X0125900Y0152998D01*
X0125900Y0151175D01*
X0125900Y0149352D01*
X0128477Y0146775D01*
X0130300Y0146775D01*
X0130300Y0151175D01*
X0125900Y0151175D01*
X0125900Y0150327D02*
X0020077Y0150327D01*
X0020077Y0151925D02*
X0114049Y0151925D01*
X0121149Y0153524D02*
X0126426Y0153524D01*
X0128025Y0155122D02*
X0121750Y0155122D01*
X0121750Y0156721D02*
X0151475Y0156721D01*
X0151475Y0158319D02*
X0121656Y0158319D01*
X0120058Y0159918D02*
X0151475Y0159918D01*
X0151475Y0161516D02*
X0065970Y0161516D01*
X0042849Y0177501D02*
X0181598Y0177501D01*
X0180600Y0179100D02*
X0166560Y0179100D01*
X0166350Y0179013D02*
X0168982Y0180103D01*
X0170997Y0182118D01*
X0172087Y0184750D01*
X0172087Y0187600D01*
X0170997Y0190232D01*
X0168982Y0192247D01*
X0166350Y0193337D01*
X0163500Y0193337D01*
X0160868Y0192247D01*
X0158853Y0190232D01*
X0157763Y0187600D01*
X0157763Y0184750D01*
X0158853Y0182118D01*
X0160868Y0180103D01*
X0163500Y0179013D01*
X0166350Y0179013D01*
X0163290Y0179100D02*
X0044681Y0179100D01*
X0045417Y0180698D02*
X0160273Y0180698D01*
X0158779Y0182297D02*
X0045649Y0182297D01*
X0045470Y0183895D02*
X0158117Y0183895D01*
X0157763Y0185494D02*
X0044808Y0185494D01*
X0043158Y0187092D02*
X0157763Y0187092D01*
X0158215Y0188691D02*
X0021138Y0188691D01*
X0022793Y0190289D02*
X0158911Y0190289D01*
X0160509Y0191888D02*
X0024449Y0191888D01*
X0026105Y0193487D02*
X0058727Y0193487D01*
X0057183Y0195085D02*
X0027760Y0195085D01*
X0023009Y0198282D02*
X0007225Y0198282D01*
X0007225Y0196684D02*
X0021354Y0196684D01*
X0019698Y0195085D02*
X0007225Y0195085D01*
X0007225Y0193487D02*
X0018042Y0193487D01*
X0016387Y0191888D02*
X0007225Y0191888D01*
X0007225Y0190289D02*
X0014731Y0190289D01*
X0013076Y0188691D02*
X0007225Y0188691D01*
X0007225Y0187092D02*
X0011420Y0187092D01*
X0009764Y0185494D02*
X0007225Y0185494D01*
X0007225Y0183895D02*
X0008109Y0183895D01*
X0012860Y0180698D02*
X0023466Y0180698D01*
X0021867Y0179100D02*
X0020495Y0179100D01*
X0025065Y0182297D02*
X0014515Y0182297D01*
X0016171Y0183895D02*
X0026663Y0183895D01*
X0027542Y0185494D02*
X0017827Y0185494D01*
X0019482Y0187092D02*
X0029192Y0187092D01*
X0014060Y0179100D02*
X0011475Y0179100D01*
X0011475Y0177501D02*
X0012533Y0177501D01*
X0011871Y0175903D02*
X0011475Y0175903D01*
X0011475Y0174304D02*
X0011740Y0174304D01*
X0011740Y0172706D02*
X0011475Y0172706D01*
X0011475Y0171107D02*
X0011740Y0171107D01*
X0011740Y0169509D02*
X0011475Y0169509D01*
X0011475Y0167910D02*
X0011740Y0167910D01*
X0011740Y0166312D02*
X0011475Y0166312D01*
X0011475Y0164713D02*
X0012071Y0164713D01*
X0011475Y0163115D02*
X0012945Y0163115D01*
X0011475Y0161516D02*
X0014477Y0161516D01*
X0014477Y0159918D02*
X0011475Y0159918D01*
X0011475Y0158319D02*
X0014477Y0158319D01*
X0014477Y0156721D02*
X0011475Y0156721D01*
X0011475Y0155122D02*
X0014477Y0155122D01*
X0014477Y0153524D02*
X0011475Y0153524D01*
X0011475Y0151925D02*
X0014477Y0151925D01*
X0014477Y0150327D02*
X0011475Y0150327D01*
X0011475Y0148728D02*
X0014477Y0148728D01*
X0014477Y0147130D02*
X0011475Y0147130D01*
X0011475Y0145531D02*
X0014477Y0145531D01*
X0014477Y0143933D02*
X0011475Y0143933D01*
X0011475Y0142334D02*
X0014477Y0142334D01*
X0014477Y0140736D02*
X0011475Y0140736D01*
X0011475Y0139137D02*
X0014477Y0139137D01*
X0014477Y0137539D02*
X0011475Y0137539D01*
X0020077Y0147130D02*
X0128123Y0147130D01*
X0130300Y0147130D02*
X0130300Y0147130D01*
X0130300Y0148728D02*
X0130300Y0148728D01*
X0130300Y0150327D02*
X0130300Y0150327D01*
X0130300Y0151925D02*
X0130300Y0151925D01*
X0130300Y0153524D02*
X0130300Y0153524D01*
X0130300Y0155122D02*
X0130300Y0155122D01*
X0134076Y0148728D02*
X0134807Y0148728D01*
X0135900Y0147130D02*
X0132477Y0147130D01*
X0126524Y0148728D02*
X0020077Y0148728D01*
X0020077Y0153524D02*
X0029409Y0153524D01*
X0027631Y0155122D02*
X0020077Y0155122D01*
X0020077Y0156721D02*
X0026918Y0156721D01*
X0026701Y0158319D02*
X0020077Y0158319D01*
X0020077Y0159918D02*
X0026896Y0159918D01*
X0027578Y0161516D02*
X0020077Y0161516D01*
X0021610Y0163115D02*
X0029284Y0163115D01*
X0064873Y0193487D02*
X0282554Y0193487D01*
X0282603Y0193368D02*
X0284618Y0191353D01*
X0287250Y0190263D01*
X0290100Y0190263D01*
X0292732Y0191353D01*
X0294747Y0193368D01*
X0295837Y0196000D01*
X0295837Y0198850D01*
X0294747Y0201482D01*
X0292732Y0203497D01*
X0290100Y0204587D01*
X0287250Y0204587D01*
X0284618Y0203497D01*
X0282603Y0201482D01*
X0281513Y0198850D01*
X0281513Y0196000D01*
X0282603Y0193368D01*
X0281892Y0195085D02*
X0066417Y0195085D01*
X0067079Y0196684D02*
X0281513Y0196684D01*
X0281513Y0198282D02*
X0067200Y0198282D01*
X0066887Y0199881D02*
X0281940Y0199881D01*
X0282602Y0201479D02*
X0066008Y0201479D01*
X0063773Y0203078D02*
X0284199Y0203078D01*
X0293151Y0203078D02*
X0314451Y0203078D01*
X0314451Y0204676D02*
X0007225Y0204676D01*
X0007225Y0203078D02*
X0059827Y0203078D01*
X0057592Y0201479D02*
X0007225Y0201479D01*
X0007225Y0199881D02*
X0024665Y0199881D01*
X0007225Y0206275D02*
X0314451Y0206275D01*
X0314451Y0201479D02*
X0294748Y0201479D01*
X0295410Y0199881D02*
X0314451Y0199881D01*
X0314451Y0198282D02*
X0295837Y0198282D01*
X0295837Y0196684D02*
X0314451Y0196684D01*
X0314451Y0195085D02*
X0295458Y0195085D01*
X0294796Y0193487D02*
X0314451Y0193487D01*
X0314451Y0191888D02*
X0293267Y0191888D01*
X0290164Y0190289D02*
X0314451Y0190289D01*
X0314451Y0188691D02*
X0171635Y0188691D01*
X0172087Y0187092D02*
X0314451Y0187092D01*
X0314451Y0171107D02*
X0199219Y0171107D01*
X0199702Y0169509D02*
X0314451Y0169509D01*
X0314451Y0167910D02*
X0201301Y0167910D01*
X0202899Y0166312D02*
X0314451Y0166312D01*
X0314451Y0164713D02*
X0303029Y0164713D01*
X0305088Y0163115D02*
X0314451Y0163115D01*
X0314451Y0161516D02*
X0305911Y0161516D01*
X0306200Y0159918D02*
X0314451Y0159918D01*
X0314451Y0158319D02*
X0306071Y0158319D01*
X0305409Y0156721D02*
X0314451Y0156721D01*
X0314451Y0151925D02*
X0158016Y0151925D01*
X0158016Y0150327D02*
X0314451Y0150327D01*
X0314451Y0148728D02*
X0158016Y0148728D01*
X0158016Y0147130D02*
X0314451Y0147130D01*
X0314451Y0132743D02*
X0198979Y0132743D01*
X0197381Y0131145D02*
X0314451Y0131145D01*
X0314451Y0129546D02*
X0197790Y0129546D01*
X0199389Y0127948D02*
X0314451Y0127948D01*
X0314451Y0126349D02*
X0200987Y0126349D01*
X0202586Y0124751D02*
X0203658Y0124751D01*
X0208692Y0124751D02*
X0219283Y0124751D01*
X0217684Y0123152D02*
X0210290Y0123152D01*
X0209100Y0116758D02*
X0218875Y0116758D01*
X0224725Y0116758D02*
X0230902Y0116758D01*
X0235198Y0116758D02*
X0260902Y0116758D01*
X0261310Y0116350D02*
X0264790Y0116350D01*
X0266565Y0118125D01*
X0287858Y0118125D01*
X0288237Y0117209D01*
X0289784Y0115662D01*
X0291806Y0114825D01*
X0301794Y0114825D01*
X0303815Y0115662D01*
X0305363Y0117209D01*
X0306200Y0119231D01*
X0306200Y0121419D01*
X0305363Y0123440D01*
X0303815Y0124988D01*
X0301794Y0125825D01*
X0291806Y0125825D01*
X0289784Y0124988D01*
X0288237Y0123440D01*
X0287858Y0122525D01*
X0267015Y0122525D01*
X0264790Y0124750D01*
X0261310Y0124750D01*
X0258850Y0122290D01*
X0258850Y0118810D01*
X0261310Y0116350D01*
X0259304Y0118356D02*
X0236796Y0118356D01*
X0237250Y0119955D02*
X0258850Y0119955D01*
X0258850Y0121553D02*
X0237250Y0121553D01*
X0236388Y0123152D02*
X0259712Y0123152D01*
X0266388Y0123152D02*
X0288118Y0123152D01*
X0289547Y0124751D02*
X0224317Y0124751D01*
X0225915Y0123152D02*
X0229712Y0123152D01*
X0223908Y0135940D02*
X0289307Y0135940D01*
X0304053Y0124751D02*
X0314451Y0124751D01*
X0314451Y0123152D02*
X0305482Y0123152D01*
X0306144Y0121553D02*
X0314451Y0121553D01*
X0314451Y0119955D02*
X0306200Y0119955D01*
X0305838Y0118356D02*
X0314451Y0118356D01*
X0314451Y0116758D02*
X0304911Y0116758D01*
X0302601Y0115159D02*
X0314451Y0115159D01*
X0314451Y0113561D02*
X0162546Y0113561D01*
X0163223Y0115159D02*
X0290999Y0115159D01*
X0288689Y0116758D02*
X0265198Y0116758D01*
X0231985Y0099174D02*
X0223643Y0099174D01*
X0217457Y0099174D02*
X0208643Y0099174D01*
X0202457Y0099174D02*
X0188926Y0099174D01*
X0190500Y0097576D02*
X0200858Y0097576D01*
X0200800Y0095977D02*
X0190500Y0095977D01*
X0190500Y0094379D02*
X0200800Y0094379D01*
X0199669Y0092780D02*
X0189781Y0092780D01*
X0185550Y0095977D02*
X0185550Y0095977D01*
X0185550Y0097576D02*
X0185550Y0097576D01*
X0185550Y0099174D02*
X0185550Y0099174D01*
X0186175Y0115600D02*
X0186175Y0120550D01*
X0191125Y0120550D01*
X0191125Y0122600D01*
X0188225Y0125500D01*
X0186175Y0125500D01*
X0186175Y0120550D01*
X0186175Y0120550D01*
X0186175Y0120550D01*
X0191125Y0120550D01*
X0191125Y0118500D01*
X0188225Y0115600D01*
X0186175Y0115600D01*
X0186175Y0120550D01*
X0186175Y0120550D01*
X0186175Y0120550D01*
X0181225Y0120550D01*
X0181225Y0122600D01*
X0184125Y0125500D01*
X0186175Y0125500D01*
X0186175Y0120550D01*
X0181225Y0120550D01*
X0181225Y0118500D01*
X0184125Y0115600D01*
X0186175Y0115600D01*
X0186175Y0116758D02*
X0186175Y0116758D01*
X0186175Y0118356D02*
X0186175Y0118356D01*
X0186175Y0119955D02*
X0186175Y0119955D01*
X0186175Y0121553D02*
X0186175Y0121553D01*
X0186175Y0123152D02*
X0186175Y0123152D01*
X0186175Y0124751D02*
X0186175Y0124751D01*
X0188975Y0124751D02*
X0196363Y0124751D01*
X0194765Y0126349D02*
X0170085Y0126349D01*
X0168487Y0124751D02*
X0183375Y0124751D01*
X0181777Y0123152D02*
X0166888Y0123152D01*
X0165290Y0121553D02*
X0181225Y0121553D01*
X0181225Y0119955D02*
X0163691Y0119955D01*
X0163375Y0118356D02*
X0181368Y0118356D01*
X0182967Y0116758D02*
X0163375Y0116758D01*
X0189383Y0116758D02*
X0203250Y0116758D01*
X0201651Y0118356D02*
X0190982Y0118356D01*
X0191125Y0119955D02*
X0201159Y0119955D01*
X0199560Y0121553D02*
X0191125Y0121553D01*
X0190573Y0123152D02*
X0197962Y0123152D01*
X0225506Y0137539D02*
X0230122Y0137539D01*
X0232190Y0156721D02*
X0223438Y0156721D01*
X0225037Y0158319D02*
X0230591Y0158319D01*
X0230925Y0163115D02*
X0224703Y0163115D01*
X0223104Y0164713D02*
X0232524Y0164713D01*
X0217996Y0164713D02*
X0208104Y0164713D01*
X0209703Y0163115D02*
X0216397Y0163115D01*
X0216063Y0158319D02*
X0210037Y0158319D01*
X0208438Y0156721D02*
X0217662Y0156721D01*
X0202662Y0156721D02*
X0188721Y0156721D01*
X0187600Y0155600D02*
X0190500Y0158500D01*
X0190500Y0160550D01*
X0190500Y0162600D01*
X0187600Y0165500D01*
X0185550Y0165500D01*
X0185550Y0160550D01*
X0190500Y0160550D01*
X0185550Y0160550D01*
X0185550Y0160550D01*
X0185550Y0160550D01*
X0185550Y0155600D01*
X0187600Y0155600D01*
X0185550Y0155600D02*
X0185550Y0160550D01*
X0185550Y0160550D01*
X0185550Y0160550D01*
X0180600Y0160550D01*
X0180600Y0162600D01*
X0183500Y0165500D01*
X0185550Y0165500D01*
X0185550Y0160550D01*
X0180600Y0160550D01*
X0180600Y0158500D01*
X0183500Y0155600D01*
X0185550Y0155600D01*
X0185550Y0156721D02*
X0185550Y0156721D01*
X0185550Y0158319D02*
X0185550Y0158319D01*
X0185550Y0159918D02*
X0185550Y0159918D01*
X0185550Y0161516D02*
X0185550Y0161516D01*
X0185550Y0163115D02*
X0185550Y0163115D01*
X0185550Y0164713D02*
X0185550Y0164713D01*
X0188387Y0164713D02*
X0198275Y0164713D01*
X0196677Y0166312D02*
X0161923Y0166312D01*
X0163522Y0167910D02*
X0195078Y0167910D01*
X0199874Y0163115D02*
X0189986Y0163115D01*
X0190500Y0161516D02*
X0200800Y0161516D01*
X0200800Y0159918D02*
X0190500Y0159918D01*
X0190320Y0158319D02*
X0201063Y0158319D01*
X0182379Y0156721D02*
X0158016Y0156721D01*
X0158016Y0158319D02*
X0180780Y0158319D01*
X0180600Y0159918D02*
X0158016Y0159918D01*
X0158016Y0161516D02*
X0180600Y0161516D01*
X0181114Y0163115D02*
X0158726Y0163115D01*
X0160325Y0164713D02*
X0182713Y0164713D01*
X0180600Y0180698D02*
X0169577Y0180698D01*
X0171071Y0182297D02*
X0180600Y0182297D01*
X0181895Y0183895D02*
X0171733Y0183895D01*
X0172087Y0185494D02*
X0183494Y0185494D01*
X0170939Y0190289D02*
X0287186Y0190289D01*
X0284083Y0191888D02*
X0169341Y0191888D01*
X0266894Y0183895D02*
X0289492Y0183895D01*
X0288095Y0182297D02*
X0268493Y0182297D01*
X0216602Y0092780D02*
X0209498Y0092780D01*
X0207899Y0091182D02*
X0218201Y0091182D01*
X0200424Y0083189D02*
X0162272Y0083189D01*
X0195348Y0057613D02*
X0200376Y0057613D01*
X0200800Y0056015D02*
X0196947Y0056015D01*
X0198545Y0054416D02*
X0200800Y0054416D01*
X0200144Y0052818D02*
X0201565Y0052818D01*
X0201742Y0051219D02*
X0203163Y0051219D01*
X0207937Y0051219D02*
X0218788Y0051219D01*
X0217190Y0052818D02*
X0209535Y0052818D01*
X0208606Y0059212D02*
X0218119Y0059212D01*
X0224231Y0059212D02*
X0232022Y0059212D01*
X0217338Y0038431D02*
X0209387Y0038431D01*
X0201713Y0038431D02*
X0189669Y0038431D01*
X0190500Y0036832D02*
X0200800Y0036832D01*
X0200800Y0035234D02*
X0190500Y0035234D01*
X0190500Y0033635D02*
X0200800Y0033635D01*
X0162480Y0048022D02*
X0123621Y0048022D01*
X0123975Y0046423D02*
X0160670Y0046423D01*
X0159676Y0044825D02*
X0123783Y0044825D01*
X0122966Y0043226D02*
X0159014Y0043226D01*
X0093403Y0082650D02*
X0088690Y0082650D01*
X0089736Y0083696D01*
X0090375Y0085240D01*
X0090375Y0091155D01*
X0092056Y0092836D01*
X0091883Y0092305D01*
X0091775Y0091621D01*
X0091775Y0088675D01*
X0096175Y0088675D01*
X0096175Y0088675D01*
X0096175Y0095675D01*
X0096521Y0095675D01*
X0097205Y0095567D01*
X0097864Y0095353D01*
X0098481Y0095038D01*
X0099041Y0094631D01*
X0099075Y0094598D01*
X0099075Y0095170D01*
X0100305Y0096400D01*
X0101730Y0097825D01*
X0097045Y0097825D01*
X0094614Y0095394D01*
X0095145Y0095567D01*
X0095829Y0095675D01*
X0096175Y0095675D01*
X0096175Y0088675D01*
X0096175Y0088675D01*
X0091775Y0088675D01*
X0091775Y0085729D01*
X0091883Y0085045D01*
X0092097Y0084386D01*
X0092412Y0083769D01*
X0092819Y0083209D01*
X0093309Y0082719D01*
X0093403Y0082650D01*
X0092838Y0083189D02*
X0089229Y0083189D01*
X0090188Y0084788D02*
X0091967Y0084788D01*
X0091775Y0086386D02*
X0090375Y0086386D01*
X0090375Y0087985D02*
X0091775Y0087985D01*
X0091775Y0089583D02*
X0090375Y0089583D01*
X0090402Y0091182D02*
X0091775Y0091182D01*
X0092000Y0092780D02*
X0092038Y0092780D01*
X0096175Y0092780D02*
X0096175Y0092780D01*
X0096175Y0091182D02*
X0096175Y0091182D01*
X0096175Y0089583D02*
X0096175Y0089583D01*
X0096175Y0094379D02*
X0096175Y0094379D01*
X0095197Y0095977D02*
X0099882Y0095977D01*
X0101481Y0097576D02*
X0096796Y0097576D01*
X0092455Y0099174D02*
X0078375Y0099174D01*
X0078375Y0097576D02*
X0090856Y0097576D01*
X0089257Y0095977D02*
X0078375Y0095977D01*
X0079011Y0094379D02*
X0083339Y0094379D01*
X0082252Y0092780D02*
X0080098Y0092780D01*
X0080375Y0091182D02*
X0081975Y0091182D01*
X0081975Y0089583D02*
X0080375Y0089583D01*
X0080375Y0087985D02*
X0081975Y0087985D01*
X0081975Y0086386D02*
X0080375Y0086386D01*
X0080188Y0084788D02*
X0082162Y0084788D01*
X0083121Y0083189D02*
X0079229Y0083189D01*
X0073121Y0083189D02*
X0069512Y0083189D01*
X0070383Y0084788D02*
X0072162Y0084788D01*
X0071975Y0086386D02*
X0070575Y0086386D01*
X0070575Y0087985D02*
X0071975Y0087985D01*
X0071975Y0089583D02*
X0070575Y0089583D01*
X0070575Y0091182D02*
X0071975Y0091182D01*
X0072252Y0092780D02*
X0070312Y0092780D01*
X0069294Y0094379D02*
X0073339Y0094379D01*
X0066175Y0094379D02*
X0066175Y0094379D01*
X0066175Y0092780D02*
X0066175Y0092780D01*
X0066175Y0091182D02*
X0066175Y0091182D01*
X0066175Y0089583D02*
X0066175Y0089583D01*
X0078375Y0100773D02*
X0094053Y0100773D01*
X0076840Y0102371D02*
X0113777Y0102371D01*
X0115375Y0103970D02*
X0075241Y0103970D01*
D23*
X0086175Y0112425D02*
X0089300Y0109300D01*
X0124300Y0109300D01*
X0127425Y0112425D01*
X0127425Y0117021D01*
X0127666Y0117263D01*
X0130225Y0117263D02*
X0130225Y0112100D01*
X0125550Y0107425D01*
X0061175Y0107425D01*
X0056175Y0112425D01*
X0056175Y0118675D01*
X0086175Y0118675D02*
X0086175Y0112425D01*
X0096175Y0099925D02*
X0114300Y0099925D01*
X0119925Y0105550D01*
X0126800Y0105550D01*
X0133050Y0111800D01*
X0133050Y0116997D01*
X0132784Y0117263D01*
X0137902Y0117263D02*
X0137902Y0113527D01*
X0127425Y0103050D01*
X0120550Y0103050D01*
X0114300Y0096800D01*
X0103675Y0096800D01*
X0101175Y0094300D01*
X0101175Y0080550D01*
X0111800Y0080550D01*
X0116800Y0085550D01*
X0101175Y0080550D02*
X0052425Y0080550D01*
X0046175Y0086800D01*
X0046175Y0088675D01*
X0086175Y0088675D02*
X0086175Y0089925D01*
X0096175Y0099925D01*
D24*
X0073050Y0067425D02*
X0104300Y0036175D01*
X0116175Y0036175D01*
X0073050Y0067425D02*
X0025550Y0067425D01*
X0016800Y0076175D01*
X0016800Y0077425D01*
X0016800Y0078050D02*
X0016800Y0088050D01*
X0016800Y0095550D01*
X0008675Y0101800D01*
X0008675Y0180550D01*
X0026800Y0198050D01*
X0061800Y0198050D01*
X0036175Y0182361D02*
X0029088Y0182361D01*
X0017277Y0170550D01*
X0017277Y0128527D01*
X0016800Y0128050D01*
X0016800Y0098050D02*
X0016800Y0095550D01*
X0036175Y0158345D02*
X0061505Y0158345D01*
X0061800Y0158050D01*
X0148050Y0077050D02*
X0148139Y0077139D01*
M02*
