G75*
%MOMM*%
%OFA0B0*%
%FSLAX33Y33*%
%IPPOS*%
%LPD*%
%AMOC8*
5,1,8,0,0,1.08239X$1,22.5*
%
%ADD10C,2.203*%
%ADD11C,1.880*%
%ADD12C,3.505*%
%ADD13C,1.524*%
%ADD14OC8,1.803*%
%ADD15OC8,1.524*%
%ADD16C,1.727*%
%ADD17OC8,2.743*%
D10*
X02946Y02946D03*
X02946Y30251D03*
X02946Y64541D03*
X44221Y53746D03*
X58826Y64541D03*
X58826Y02946D03*
D11*
X20930Y08661D02*
X19253Y08661D01*
X19253Y11201D02*
X20930Y11201D01*
X20930Y13741D02*
X19253Y13741D01*
D12*
X05105Y11201D03*
D13*
X09271Y26441D02*
X10592Y26441D01*
X19431Y26441D02*
X20752Y26441D01*
X20091Y28956D02*
X20091Y30277D01*
X22631Y30277D02*
X22631Y28956D01*
X25171Y28956D02*
X25171Y30277D01*
X27711Y30277D02*
X27711Y28956D01*
X30251Y28956D02*
X30251Y30277D01*
X32791Y30277D02*
X32791Y28956D01*
X35331Y28956D02*
X35331Y30277D01*
X37871Y30277D02*
X37871Y28956D01*
X40411Y28956D02*
X40411Y30277D01*
X42951Y30277D02*
X42951Y28956D01*
X42291Y26441D02*
X43612Y26441D01*
X42951Y36576D02*
X42951Y37897D01*
X40411Y37897D02*
X40411Y36576D01*
X37871Y36576D02*
X37871Y37897D01*
X35331Y37897D02*
X35331Y36576D01*
X32791Y36576D02*
X32791Y37897D01*
X30251Y37897D02*
X30251Y36576D01*
X27711Y36576D02*
X27711Y37897D01*
X25171Y37897D02*
X25171Y36576D01*
X22631Y36576D02*
X22631Y37897D01*
X20091Y37897D02*
X20091Y36576D01*
X34061Y15037D02*
X34061Y13716D01*
X36601Y13716D02*
X36601Y15037D01*
X39141Y15037D02*
X39141Y13716D01*
X41681Y13716D02*
X41681Y15037D01*
X44221Y15037D02*
X44221Y13716D01*
X46761Y13716D02*
X46761Y15037D01*
X49301Y15037D02*
X49301Y13716D01*
X49301Y07417D02*
X49301Y06096D01*
X46761Y06096D02*
X46761Y07417D01*
X44221Y07417D02*
X44221Y06096D01*
X41681Y06096D02*
X41681Y07417D01*
X39141Y07417D02*
X39141Y06096D01*
X36601Y06096D02*
X36601Y07417D01*
X34061Y07417D02*
X34061Y06096D01*
X52451Y26441D02*
X53772Y26441D01*
D14*
X49301Y21361D03*
X49301Y17551D03*
X40411Y23266D03*
X37871Y26441D03*
X39141Y17551D03*
X30251Y16281D03*
X25171Y21361D03*
X27711Y26441D03*
X30251Y23266D03*
X23901Y12471D03*
X25171Y06756D03*
X30251Y06121D03*
X15646Y29616D03*
X15646Y34696D03*
X17551Y37871D03*
X07391Y37871D03*
X19456Y51206D03*
X21361Y55016D03*
X29616Y51206D03*
X33426Y53746D03*
X33426Y43586D03*
X47396Y35331D03*
X47396Y30251D03*
X43586Y64541D03*
X53746Y64541D03*
X21361Y65176D03*
D15*
X18186Y48031D03*
X15646Y48031D03*
X15646Y43586D03*
X18186Y43586D03*
D16*
X21361Y68224D02*
X21361Y69748D01*
X23901Y69748D02*
X23901Y68224D01*
X26441Y68224D02*
X26441Y69748D01*
X33426Y69748D02*
X33426Y68224D01*
X35966Y68224D02*
X35966Y69748D01*
X38506Y69748D02*
X38506Y68224D01*
X45491Y68224D02*
X45491Y69748D01*
X48031Y69748D02*
X48031Y68224D01*
X50571Y68224D02*
X50571Y69748D01*
X14376Y69748D02*
X14376Y68224D01*
X11836Y68224D02*
X11836Y69748D01*
X09296Y69748D02*
X09296Y68224D01*
D17*
X17551Y61366D03*
X11836Y49301D03*
X38506Y57556D03*
X44221Y48031D03*
M02*
