%
M48
M71
T01C0.813
T02C1.016
T03C4.000
%
T01
X2381Y18309
X5381Y18309
X7881Y18309
X10381Y18309
X10381Y21611
X7881Y21611
X5381Y21611
X5381Y24151
X7881Y24151
X10381Y24151
X10381Y27453
X7881Y27453
X5381Y27453
X2381Y27453
X2381Y24151
X2381Y21611
X14881Y21611
X14881Y24151
X17881Y24151
X20381Y24151
X22881Y24151
X22881Y21611
X20381Y21611
X17881Y21611
X17881Y18309
X20381Y18309
X22881Y18309
X27381Y18309
X30381Y18309
X32881Y18309
X35381Y18309
X35381Y21611
X32881Y21611
X30381Y21611
X30381Y24151
X32881Y24151
X35381Y24151
X35381Y27453
X32881Y27453
X30381Y27453
X27381Y27453
X27381Y24151
X27381Y21611
X22881Y27453
X20381Y27453
X17881Y27453
X14881Y27453
X14881Y18309
X39881Y18309
X42881Y18309
X45381Y18309
X47881Y18309
X47881Y21611
X45381Y21611
X42881Y21611
X42881Y24151
X45381Y24151
X47881Y24151
X47881Y27453
X45381Y27453
X42881Y27453
X39881Y27453
X39881Y24151
X39881Y21611
X52381Y21611
X52381Y24151
X55381Y24151
X57881Y24151
X60381Y24151
X60381Y21611
X57881Y21611
X55381Y21611
X55381Y18309
X57881Y18309
X60381Y18309
X64881Y18309
X67881Y18309
X70381Y18309
X72881Y18309
X72881Y21611
X70381Y21611
X67881Y21611
X67881Y24151
X70381Y24151
X72881Y24151
X72881Y27453
X70381Y27453
X67881Y27453
X64881Y27453
X64881Y24151
X64881Y21611
X60381Y27453
X57881Y27453
X55381Y27453
X52381Y27453
X52381Y18309
X77381Y18309
X80381Y18309
X82881Y18309
X85381Y18309
X85381Y21611
X82881Y21611
X80381Y21611
X80381Y24151
X82881Y24151
X85381Y24151
X85381Y27453
X82881Y27453
X80381Y27453
X77381Y27453
X77381Y24151
X77381Y21611
X89881Y21611
X89881Y24151
X92881Y24151
X95381Y24151
X97881Y24151
X97881Y21611
X95381Y21611
X92881Y21611
X92881Y18309
X95381Y18309
X97881Y18309
X89881Y18309
X89881Y27453
X92881Y27453
X95381Y27453
X97881Y27453
X97881Y67809
X95381Y67809
X92881Y67809
X89881Y67809
X89881Y71111
X89881Y73651
X92881Y73651
X95381Y73651
X95381Y71111
X92881Y71111
X97881Y71111
X97881Y73651
X97881Y76953
X95381Y76953
X92881Y76953
X89881Y76953
X85381Y76953
X82881Y76953
X80381Y76953
X77381Y76953
X77381Y73651
X77381Y71111
X80381Y71111
X80381Y73651
X82881Y73651
X85381Y73651
X85381Y71111
X82881Y71111
X82881Y67809
X85381Y67809
X80381Y67809
X77381Y67809
X72881Y67809
X70381Y67809
X67881Y67809
X64881Y67809
X64881Y71111
X64881Y73651
X67881Y73651
X70381Y73651
X70381Y71111
X67881Y71111
X72881Y71111
X72881Y73651
X72881Y76953
X70381Y76953
X67881Y76953
X64881Y76953
X60381Y76953
X57881Y76953
X55381Y76953
X52381Y76953
X52381Y73651
X52381Y71111
X55381Y71111
X55381Y73651
X57881Y73651
X60381Y73651
X60381Y71111
X57881Y71111
X57881Y67809
X60381Y67809
X55381Y67809
X52381Y67809
X47881Y67809
X45381Y67809
X42881Y67809
X39881Y67809
X39881Y71111
X39881Y73651
X42881Y73651
X42881Y71111
X45381Y71111
X47881Y71111
X47881Y73651
X45381Y73651
X45381Y76953
X47881Y76953
X42881Y76953
X39881Y76953
X35381Y76953
X32881Y76953
X30381Y76953
X27381Y76953
X27381Y73651
X27381Y71111
X30381Y71111
X32881Y71111
X32881Y73651
X30381Y73651
X35381Y73651
X35381Y71111
X35381Y67809
X32881Y67809
X30381Y67809
X27381Y67809
X22881Y67809
X20381Y67809
X17881Y67809
X14881Y67809
X14881Y71111
X14881Y73651
X17881Y73651
X17881Y71111
X20381Y71111
X22881Y71111
X22881Y73651
X20381Y73651
X20381Y76953
X22881Y76953
X17881Y76953
X14881Y76953
X10381Y76953
X7881Y76953
X5381Y76953
X2381Y76953
X2381Y73651
X2381Y71111
X5381Y71111
X7881Y71111
X7881Y73651
X5381Y73651
X10381Y73651
X10381Y71111
X10381Y67809
X7881Y67809
X5381Y67809
X2381Y67809
T02
X2571Y62381
X5111Y62381
X7651Y62381
X10191Y62381
X15071Y62381
X17611Y62381
X20151Y62381
X22691Y62381
X27571Y62381
X30111Y62381
X32651Y62381
X35191Y62381
X40071Y62381
X42611Y62381
X45151Y62381
X47691Y62381
X52571Y62381
X55111Y62381
X57651Y62381
X60191Y62381
X65071Y62381
X67611Y62381
X70151Y62381
X72691Y62381
X77571Y62381
X80111Y62381
X82651Y62381
X85191Y62381
X90071Y62381
X92611Y62381
X95151Y62381
X97691Y62381
X97691Y57381
X95151Y57381
X92611Y57381
X90071Y57381
X85191Y57381
X82651Y57381
X80111Y57381
X77571Y57381
X72691Y57381
X70151Y57381
X67611Y57381
X65071Y57381
X60191Y57381
X57651Y57381
X55111Y57381
X52571Y57381
X47691Y57381
X45151Y57381
X42611Y57381
X40071Y57381
X35191Y57381
X32651Y57381
X30111Y57381
X27571Y57381
X22691Y57381
X20151Y57381
X17611Y57381
X15071Y57381
X10191Y57381
X7651Y57381
X5111Y57381
X2571Y57381
X2571Y46881
X5111Y46881
X7651Y46881
X10191Y46881
X15071Y46881
X17611Y46881
X20151Y46881
X22691Y46881
X27571Y46881
X30111Y46881
X32651Y46881
X35191Y46881
X40071Y46881
X42611Y46881
X45151Y46881
X47691Y46881
X52571Y46881
X55111Y46881
X57651Y46881
X60191Y46881
X65071Y46881
X67611Y46881
X70151Y46881
X72691Y46881
X77571Y46881
X80111Y46881
X82651Y46881
X85191Y46881
X90071Y46881
X92611Y46881
X95151Y46881
X97691Y46881
X97691Y41881
X95151Y41881
X92611Y41881
X90071Y41881
X85191Y41881
X82651Y41881
X80111Y41881
X77571Y41881
X72691Y41881
X70151Y41881
X67611Y41881
X65071Y41881
X60191Y41881
X57651Y41881
X55111Y41881
X52571Y41881
X47691Y41881
X45151Y41881
X42611Y41881
X40071Y41881
X35191Y41881
X32651Y41881
X30111Y41881
X27571Y41881
X22691Y41881
X20151Y41881
X17611Y41881
X15071Y41881
X10191Y41881
X7651Y41881
X5111Y41881
X2571Y41881
X2571Y36881
X5111Y36881
X7651Y36881
X10191Y36881
X15071Y36881
X17611Y36881
X20151Y36881
X22691Y36881
X27571Y36881
X30111Y36881
X32651Y36881
X35191Y36881
X40071Y36881
X42611Y36881
X45151Y36881
X47691Y36881
X52571Y36881
X55111Y36881
X57651Y36881
X60191Y36881
X65071Y36881
X67611Y36881
X70151Y36881
X72691Y36881
X77571Y36881
X80111Y36881
X82651Y36881
X85191Y36881
X90071Y36881
X92611Y36881
X95151Y36881
X97691Y36881
X97641Y31771
X95101Y31771
X92561Y31771
X90021Y31771
X85141Y31771
X82601Y31771
X80061Y31771
X77521Y31771
X72641Y31771
X70101Y31771
X67561Y31771
X65021Y31771
X60141Y31771
X57601Y31771
X55061Y31771
X52521Y31771
X47641Y31771
X45101Y31771
X42561Y31771
X40021Y31771
X35141Y31771
X32601Y31771
X30061Y31771
X27521Y31771
X22641Y31771
X20101Y31771
X17561Y31771
X15021Y31771
X10141Y31771
X7601Y31771
X5061Y31771
X2521Y31771
X2571Y12881
X5111Y12881
X7651Y12881
X10191Y12881
X15071Y12881
X17611Y12881
X20151Y12881
X22691Y12881
X27571Y12881
X30111Y12881
X32651Y12881
X35191Y12881
X40071Y12881
X42611Y12881
X45151Y12881
X47691Y12881
X52571Y12881
X55111Y12881
X57651Y12881
X60191Y12881
X65071Y12881
X67611Y12881
X70151Y12881
X72691Y12881
X77571Y12881
X80111Y12881
X82651Y12881
X85191Y12881
X90071Y12881
X92611Y12881
X95151Y12881
X97691Y12881
X97691Y7881
X95151Y7881
X92611Y7881
X90071Y7881
X85191Y7881
X82651Y7881
X80111Y7881
X77571Y7881
X72691Y7881
X70151Y7881
X67611Y7881
X65071Y7881
X60191Y7881
X57651Y7881
X55111Y7881
X52571Y7881
X47691Y7881
X45151Y7881
X42611Y7881
X40071Y7881
X35191Y7881
X32651Y7881
X30111Y7881
X27571Y7881
X22691Y7881
X20151Y7881
X17611Y7881
X15071Y7881
X10191Y7881
X7651Y7881
X5111Y7881
X2571Y7881
X2521Y81271
X5061Y81271
X7601Y81271
X10141Y81271
X15021Y81271
X17561Y81271
X20101Y81271
X22641Y81271
X27521Y81271
X30061Y81271
X32601Y81271
X35141Y81271
X40021Y81271
X42561Y81271
X45101Y81271
X47641Y81271
X52521Y81271
X55061Y81271
X57601Y81271
X60141Y81271
X65021Y81271
X67561Y81271
X70101Y81271
X72641Y81271
X77521Y81271
X80061Y81271
X82601Y81271
X85141Y81271
X90021Y81271
X92561Y81271
X95101Y81271
X97641Y81271
X97691Y86381
X95151Y86381
X92611Y86381
X90071Y86381
X85191Y86381
X82651Y86381
X80111Y86381
X77571Y86381
X72691Y86381
X70151Y86381
X67611Y86381
X65071Y86381
X60191Y86381
X57651Y86381
X55111Y86381
X52571Y86381
X47691Y86381
X45151Y86381
X42611Y86381
X40071Y86381
X35191Y86381
X32651Y86381
X30111Y86381
X27571Y86381
X22691Y86381
X20151Y86381
X17611Y86381
X15071Y86381
X10191Y86381
X7651Y86381
X5111Y86381
X2571Y86381
X2571Y91381
X5111Y91381
X7651Y91381
X10191Y91381
X15071Y91381
X17611Y91381
X20151Y91381
X22691Y91381
X27571Y91381
X30111Y91381
X32651Y91381
X35191Y91381
X40071Y91381
X42611Y91381
X45151Y91381
X47691Y91381
X52571Y91381
X55111Y91381
X57651Y91381
X60191Y91381
X65071Y91381
X67611Y91381
X70151Y91381
X72691Y91381
X77571Y91381
X80111Y91381
X82651Y91381
X85191Y91381
X90071Y91381
X92611Y91381
X95151Y91381
X97691Y91381
X97691Y96381
X95151Y96381
X92611Y96381
X90071Y96381
X85191Y96381
X82651Y96381
X80111Y96381
X77571Y96381
X72691Y96381
X70151Y96381
X67611Y96381
X65071Y96381
X60191Y96381
X57651Y96381
X55111Y96381
X52571Y96381
X47691Y96381
X45151Y96381
X42611Y96381
X40071Y96381
X35191Y96381
X32651Y96381
X30111Y96381
X27571Y96381
X22691Y96381
X20151Y96381
X17611Y96381
X15071Y96381
X10191Y96381
X7651Y96381
X5111Y96381
X2571Y96381
T03
X6381Y3881
X18881Y3881
X31381Y3881
X43881Y3881
X56381Y3881
X68881Y3881
X81381Y3881
X93881Y3881
X93881Y53381
X81381Y53381
X68881Y53381
X56381Y53381
X43881Y53381
X31381Y53381
X18881Y53381
X6381Y53381
M30
