G75*
%MOIN*%
%OFA0B0*%
%FSLAX25Y25*%
%IPPOS*%
%LPD*%
%AMOC8*
5,1,8,0,0,1.08239X$1,22.5*
%
%ADD10C,0.00000*%
D10*
X0001500Y0001500D02*
X0099925Y0001500D01*
X0050713Y0001500D01*
X0050713Y0003469D01*
X0050713Y0196382D01*
X0050713Y0198350D01*
X0050713Y0391264D01*
X0097957Y0391264D01*
X0099925Y0391264D02*
X0099925Y0198350D01*
X0099925Y0194413D01*
X0099925Y0005437D01*
X0099925Y0001500D01*
X0149138Y0001500D01*
X0149138Y0003469D01*
X0149138Y0196382D01*
X0149138Y0198350D01*
X0149138Y0391264D01*
X0196382Y0391264D01*
X0198350Y0391264D02*
X0198350Y0198350D01*
X0198350Y0194413D01*
X0198350Y0196382D01*
X0245594Y0196382D01*
X0247563Y0196382D02*
X0247563Y0198350D01*
X0247563Y0391264D01*
X0294807Y0391264D01*
X0296776Y0391264D02*
X0296776Y0198350D01*
X0296776Y0194413D01*
X0296776Y0005437D01*
X0296776Y0001500D01*
X0247563Y0001500D01*
X0247563Y0003469D01*
X0247563Y0196382D01*
X0149138Y0196382D01*
X0001500Y0196382D01*
X0001500Y0198350D01*
X0001500Y0391264D01*
X0391264Y0391264D01*
X0395201Y0391264D01*
X0395201Y0196382D01*
X0247563Y0196382D01*
X0294807Y0196382D01*
X0296776Y0196382D02*
X0296776Y0194413D01*
X0296776Y0196382D02*
X0344020Y0196382D01*
X0345988Y0196382D02*
X0345988Y0194413D01*
X0345988Y0198350D01*
X0345988Y0391264D01*
X0391264Y0391264D01*
X0393232Y0391264D01*
X0344020Y0391264D02*
X0296776Y0391264D01*
X0245594Y0391264D02*
X0198350Y0391264D01*
X0147169Y0391264D02*
X0099925Y0391264D01*
X0048744Y0391264D02*
X0001500Y0391264D01*
X0001500Y0198350D01*
X0001500Y0194413D01*
X0001500Y0196382D01*
X0050713Y0196382D01*
X0149138Y0196382D01*
X0196382Y0196382D01*
X0198350Y0194413D02*
X0198350Y0005437D01*
X0198350Y0001500D01*
X0149138Y0001500D01*
X0164886Y0015280D02*
X0164888Y0015473D01*
X0164895Y0015666D01*
X0164907Y0015859D01*
X0164924Y0016052D01*
X0164945Y0016244D01*
X0164971Y0016435D01*
X0165002Y0016626D01*
X0165037Y0016816D01*
X0165077Y0017005D01*
X0165122Y0017193D01*
X0165171Y0017380D01*
X0165225Y0017566D01*
X0165283Y0017750D01*
X0165346Y0017933D01*
X0165414Y0018114D01*
X0165485Y0018293D01*
X0165562Y0018471D01*
X0165642Y0018647D01*
X0165727Y0018820D01*
X0165816Y0018992D01*
X0165909Y0019161D01*
X0166006Y0019328D01*
X0166108Y0019493D01*
X0166213Y0019655D01*
X0166322Y0019814D01*
X0166436Y0019971D01*
X0166553Y0020124D01*
X0166673Y0020275D01*
X0166798Y0020423D01*
X0166926Y0020568D01*
X0167057Y0020709D01*
X0167192Y0020848D01*
X0167331Y0020983D01*
X0167472Y0021114D01*
X0167617Y0021242D01*
X0167765Y0021367D01*
X0167916Y0021487D01*
X0168069Y0021604D01*
X0168226Y0021718D01*
X0168385Y0021827D01*
X0168547Y0021932D01*
X0168712Y0022034D01*
X0168879Y0022131D01*
X0169048Y0022224D01*
X0169220Y0022313D01*
X0169393Y0022398D01*
X0169569Y0022478D01*
X0169747Y0022555D01*
X0169926Y0022626D01*
X0170107Y0022694D01*
X0170290Y0022757D01*
X0170474Y0022815D01*
X0170660Y0022869D01*
X0170847Y0022918D01*
X0171035Y0022963D01*
X0171224Y0023003D01*
X0171414Y0023038D01*
X0171605Y0023069D01*
X0171796Y0023095D01*
X0171988Y0023116D01*
X0172181Y0023133D01*
X0172374Y0023145D01*
X0172567Y0023152D01*
X0172760Y0023154D01*
X0172953Y0023152D01*
X0173146Y0023145D01*
X0173339Y0023133D01*
X0173532Y0023116D01*
X0173724Y0023095D01*
X0173915Y0023069D01*
X0174106Y0023038D01*
X0174296Y0023003D01*
X0174485Y0022963D01*
X0174673Y0022918D01*
X0174860Y0022869D01*
X0175046Y0022815D01*
X0175230Y0022757D01*
X0175413Y0022694D01*
X0175594Y0022626D01*
X0175773Y0022555D01*
X0175951Y0022478D01*
X0176127Y0022398D01*
X0176300Y0022313D01*
X0176472Y0022224D01*
X0176641Y0022131D01*
X0176808Y0022034D01*
X0176973Y0021932D01*
X0177135Y0021827D01*
X0177294Y0021718D01*
X0177451Y0021604D01*
X0177604Y0021487D01*
X0177755Y0021367D01*
X0177903Y0021242D01*
X0178048Y0021114D01*
X0178189Y0020983D01*
X0178328Y0020848D01*
X0178463Y0020709D01*
X0178594Y0020568D01*
X0178722Y0020423D01*
X0178847Y0020275D01*
X0178967Y0020124D01*
X0179084Y0019971D01*
X0179198Y0019814D01*
X0179307Y0019655D01*
X0179412Y0019493D01*
X0179514Y0019328D01*
X0179611Y0019161D01*
X0179704Y0018992D01*
X0179793Y0018820D01*
X0179878Y0018647D01*
X0179958Y0018471D01*
X0180035Y0018293D01*
X0180106Y0018114D01*
X0180174Y0017933D01*
X0180237Y0017750D01*
X0180295Y0017566D01*
X0180349Y0017380D01*
X0180398Y0017193D01*
X0180443Y0017005D01*
X0180483Y0016816D01*
X0180518Y0016626D01*
X0180549Y0016435D01*
X0180575Y0016244D01*
X0180596Y0016052D01*
X0180613Y0015859D01*
X0180625Y0015666D01*
X0180632Y0015473D01*
X0180634Y0015280D01*
X0180632Y0015087D01*
X0180625Y0014894D01*
X0180613Y0014701D01*
X0180596Y0014508D01*
X0180575Y0014316D01*
X0180549Y0014125D01*
X0180518Y0013934D01*
X0180483Y0013744D01*
X0180443Y0013555D01*
X0180398Y0013367D01*
X0180349Y0013180D01*
X0180295Y0012994D01*
X0180237Y0012810D01*
X0180174Y0012627D01*
X0180106Y0012446D01*
X0180035Y0012267D01*
X0179958Y0012089D01*
X0179878Y0011913D01*
X0179793Y0011740D01*
X0179704Y0011568D01*
X0179611Y0011399D01*
X0179514Y0011232D01*
X0179412Y0011067D01*
X0179307Y0010905D01*
X0179198Y0010746D01*
X0179084Y0010589D01*
X0178967Y0010436D01*
X0178847Y0010285D01*
X0178722Y0010137D01*
X0178594Y0009992D01*
X0178463Y0009851D01*
X0178328Y0009712D01*
X0178189Y0009577D01*
X0178048Y0009446D01*
X0177903Y0009318D01*
X0177755Y0009193D01*
X0177604Y0009073D01*
X0177451Y0008956D01*
X0177294Y0008842D01*
X0177135Y0008733D01*
X0176973Y0008628D01*
X0176808Y0008526D01*
X0176641Y0008429D01*
X0176472Y0008336D01*
X0176300Y0008247D01*
X0176127Y0008162D01*
X0175951Y0008082D01*
X0175773Y0008005D01*
X0175594Y0007934D01*
X0175413Y0007866D01*
X0175230Y0007803D01*
X0175046Y0007745D01*
X0174860Y0007691D01*
X0174673Y0007642D01*
X0174485Y0007597D01*
X0174296Y0007557D01*
X0174106Y0007522D01*
X0173915Y0007491D01*
X0173724Y0007465D01*
X0173532Y0007444D01*
X0173339Y0007427D01*
X0173146Y0007415D01*
X0172953Y0007408D01*
X0172760Y0007406D01*
X0172567Y0007408D01*
X0172374Y0007415D01*
X0172181Y0007427D01*
X0171988Y0007444D01*
X0171796Y0007465D01*
X0171605Y0007491D01*
X0171414Y0007522D01*
X0171224Y0007557D01*
X0171035Y0007597D01*
X0170847Y0007642D01*
X0170660Y0007691D01*
X0170474Y0007745D01*
X0170290Y0007803D01*
X0170107Y0007866D01*
X0169926Y0007934D01*
X0169747Y0008005D01*
X0169569Y0008082D01*
X0169393Y0008162D01*
X0169220Y0008247D01*
X0169048Y0008336D01*
X0168879Y0008429D01*
X0168712Y0008526D01*
X0168547Y0008628D01*
X0168385Y0008733D01*
X0168226Y0008842D01*
X0168069Y0008956D01*
X0167916Y0009073D01*
X0167765Y0009193D01*
X0167617Y0009318D01*
X0167472Y0009446D01*
X0167331Y0009577D01*
X0167192Y0009712D01*
X0167057Y0009851D01*
X0166926Y0009992D01*
X0166798Y0010137D01*
X0166673Y0010285D01*
X0166553Y0010436D01*
X0166436Y0010589D01*
X0166322Y0010746D01*
X0166213Y0010905D01*
X0166108Y0011067D01*
X0166006Y0011232D01*
X0165909Y0011399D01*
X0165816Y0011568D01*
X0165727Y0011740D01*
X0165642Y0011913D01*
X0165562Y0012089D01*
X0165485Y0012267D01*
X0165414Y0012446D01*
X0165346Y0012627D01*
X0165283Y0012810D01*
X0165225Y0012994D01*
X0165171Y0013180D01*
X0165122Y0013367D01*
X0165077Y0013555D01*
X0165037Y0013744D01*
X0165002Y0013934D01*
X0164971Y0014125D01*
X0164945Y0014316D01*
X0164924Y0014508D01*
X0164907Y0014701D01*
X0164895Y0014894D01*
X0164888Y0015087D01*
X0164886Y0015280D01*
X0198350Y0005437D02*
X0198350Y0003469D01*
X0198350Y0001500D02*
X0247563Y0001500D01*
X0263311Y0015280D02*
X0263313Y0015473D01*
X0263320Y0015666D01*
X0263332Y0015859D01*
X0263349Y0016052D01*
X0263370Y0016244D01*
X0263396Y0016435D01*
X0263427Y0016626D01*
X0263462Y0016816D01*
X0263502Y0017005D01*
X0263547Y0017193D01*
X0263596Y0017380D01*
X0263650Y0017566D01*
X0263708Y0017750D01*
X0263771Y0017933D01*
X0263839Y0018114D01*
X0263910Y0018293D01*
X0263987Y0018471D01*
X0264067Y0018647D01*
X0264152Y0018820D01*
X0264241Y0018992D01*
X0264334Y0019161D01*
X0264431Y0019328D01*
X0264533Y0019493D01*
X0264638Y0019655D01*
X0264747Y0019814D01*
X0264861Y0019971D01*
X0264978Y0020124D01*
X0265098Y0020275D01*
X0265223Y0020423D01*
X0265351Y0020568D01*
X0265482Y0020709D01*
X0265617Y0020848D01*
X0265756Y0020983D01*
X0265897Y0021114D01*
X0266042Y0021242D01*
X0266190Y0021367D01*
X0266341Y0021487D01*
X0266494Y0021604D01*
X0266651Y0021718D01*
X0266810Y0021827D01*
X0266972Y0021932D01*
X0267137Y0022034D01*
X0267304Y0022131D01*
X0267473Y0022224D01*
X0267645Y0022313D01*
X0267818Y0022398D01*
X0267994Y0022478D01*
X0268172Y0022555D01*
X0268351Y0022626D01*
X0268532Y0022694D01*
X0268715Y0022757D01*
X0268899Y0022815D01*
X0269085Y0022869D01*
X0269272Y0022918D01*
X0269460Y0022963D01*
X0269649Y0023003D01*
X0269839Y0023038D01*
X0270030Y0023069D01*
X0270221Y0023095D01*
X0270413Y0023116D01*
X0270606Y0023133D01*
X0270799Y0023145D01*
X0270992Y0023152D01*
X0271185Y0023154D01*
X0271378Y0023152D01*
X0271571Y0023145D01*
X0271764Y0023133D01*
X0271957Y0023116D01*
X0272149Y0023095D01*
X0272340Y0023069D01*
X0272531Y0023038D01*
X0272721Y0023003D01*
X0272910Y0022963D01*
X0273098Y0022918D01*
X0273285Y0022869D01*
X0273471Y0022815D01*
X0273655Y0022757D01*
X0273838Y0022694D01*
X0274019Y0022626D01*
X0274198Y0022555D01*
X0274376Y0022478D01*
X0274552Y0022398D01*
X0274725Y0022313D01*
X0274897Y0022224D01*
X0275066Y0022131D01*
X0275233Y0022034D01*
X0275398Y0021932D01*
X0275560Y0021827D01*
X0275719Y0021718D01*
X0275876Y0021604D01*
X0276029Y0021487D01*
X0276180Y0021367D01*
X0276328Y0021242D01*
X0276473Y0021114D01*
X0276614Y0020983D01*
X0276753Y0020848D01*
X0276888Y0020709D01*
X0277019Y0020568D01*
X0277147Y0020423D01*
X0277272Y0020275D01*
X0277392Y0020124D01*
X0277509Y0019971D01*
X0277623Y0019814D01*
X0277732Y0019655D01*
X0277837Y0019493D01*
X0277939Y0019328D01*
X0278036Y0019161D01*
X0278129Y0018992D01*
X0278218Y0018820D01*
X0278303Y0018647D01*
X0278383Y0018471D01*
X0278460Y0018293D01*
X0278531Y0018114D01*
X0278599Y0017933D01*
X0278662Y0017750D01*
X0278720Y0017566D01*
X0278774Y0017380D01*
X0278823Y0017193D01*
X0278868Y0017005D01*
X0278908Y0016816D01*
X0278943Y0016626D01*
X0278974Y0016435D01*
X0279000Y0016244D01*
X0279021Y0016052D01*
X0279038Y0015859D01*
X0279050Y0015666D01*
X0279057Y0015473D01*
X0279059Y0015280D01*
X0279057Y0015087D01*
X0279050Y0014894D01*
X0279038Y0014701D01*
X0279021Y0014508D01*
X0279000Y0014316D01*
X0278974Y0014125D01*
X0278943Y0013934D01*
X0278908Y0013744D01*
X0278868Y0013555D01*
X0278823Y0013367D01*
X0278774Y0013180D01*
X0278720Y0012994D01*
X0278662Y0012810D01*
X0278599Y0012627D01*
X0278531Y0012446D01*
X0278460Y0012267D01*
X0278383Y0012089D01*
X0278303Y0011913D01*
X0278218Y0011740D01*
X0278129Y0011568D01*
X0278036Y0011399D01*
X0277939Y0011232D01*
X0277837Y0011067D01*
X0277732Y0010905D01*
X0277623Y0010746D01*
X0277509Y0010589D01*
X0277392Y0010436D01*
X0277272Y0010285D01*
X0277147Y0010137D01*
X0277019Y0009992D01*
X0276888Y0009851D01*
X0276753Y0009712D01*
X0276614Y0009577D01*
X0276473Y0009446D01*
X0276328Y0009318D01*
X0276180Y0009193D01*
X0276029Y0009073D01*
X0275876Y0008956D01*
X0275719Y0008842D01*
X0275560Y0008733D01*
X0275398Y0008628D01*
X0275233Y0008526D01*
X0275066Y0008429D01*
X0274897Y0008336D01*
X0274725Y0008247D01*
X0274552Y0008162D01*
X0274376Y0008082D01*
X0274198Y0008005D01*
X0274019Y0007934D01*
X0273838Y0007866D01*
X0273655Y0007803D01*
X0273471Y0007745D01*
X0273285Y0007691D01*
X0273098Y0007642D01*
X0272910Y0007597D01*
X0272721Y0007557D01*
X0272531Y0007522D01*
X0272340Y0007491D01*
X0272149Y0007465D01*
X0271957Y0007444D01*
X0271764Y0007427D01*
X0271571Y0007415D01*
X0271378Y0007408D01*
X0271185Y0007406D01*
X0270992Y0007408D01*
X0270799Y0007415D01*
X0270606Y0007427D01*
X0270413Y0007444D01*
X0270221Y0007465D01*
X0270030Y0007491D01*
X0269839Y0007522D01*
X0269649Y0007557D01*
X0269460Y0007597D01*
X0269272Y0007642D01*
X0269085Y0007691D01*
X0268899Y0007745D01*
X0268715Y0007803D01*
X0268532Y0007866D01*
X0268351Y0007934D01*
X0268172Y0008005D01*
X0267994Y0008082D01*
X0267818Y0008162D01*
X0267645Y0008247D01*
X0267473Y0008336D01*
X0267304Y0008429D01*
X0267137Y0008526D01*
X0266972Y0008628D01*
X0266810Y0008733D01*
X0266651Y0008842D01*
X0266494Y0008956D01*
X0266341Y0009073D01*
X0266190Y0009193D01*
X0266042Y0009318D01*
X0265897Y0009446D01*
X0265756Y0009577D01*
X0265617Y0009712D01*
X0265482Y0009851D01*
X0265351Y0009992D01*
X0265223Y0010137D01*
X0265098Y0010285D01*
X0264978Y0010436D01*
X0264861Y0010589D01*
X0264747Y0010746D01*
X0264638Y0010905D01*
X0264533Y0011067D01*
X0264431Y0011232D01*
X0264334Y0011399D01*
X0264241Y0011568D01*
X0264152Y0011740D01*
X0264067Y0011913D01*
X0263987Y0012089D01*
X0263910Y0012267D01*
X0263839Y0012446D01*
X0263771Y0012627D01*
X0263708Y0012810D01*
X0263650Y0012994D01*
X0263596Y0013180D01*
X0263547Y0013367D01*
X0263502Y0013555D01*
X0263462Y0013744D01*
X0263427Y0013934D01*
X0263396Y0014125D01*
X0263370Y0014316D01*
X0263349Y0014508D01*
X0263332Y0014701D01*
X0263320Y0014894D01*
X0263313Y0015087D01*
X0263311Y0015280D01*
X0296776Y0005437D02*
X0296776Y0003469D01*
X0296776Y0001500D02*
X0345988Y0001500D01*
X0345988Y0003469D01*
X0345988Y0194413D01*
X0345988Y0196382D02*
X0393232Y0196382D01*
X0395201Y0196382D02*
X0395201Y0001500D01*
X0345988Y0001500D01*
X0361736Y0015280D02*
X0361738Y0015473D01*
X0361745Y0015666D01*
X0361757Y0015859D01*
X0361774Y0016052D01*
X0361795Y0016244D01*
X0361821Y0016435D01*
X0361852Y0016626D01*
X0361887Y0016816D01*
X0361927Y0017005D01*
X0361972Y0017193D01*
X0362021Y0017380D01*
X0362075Y0017566D01*
X0362133Y0017750D01*
X0362196Y0017933D01*
X0362264Y0018114D01*
X0362335Y0018293D01*
X0362412Y0018471D01*
X0362492Y0018647D01*
X0362577Y0018820D01*
X0362666Y0018992D01*
X0362759Y0019161D01*
X0362856Y0019328D01*
X0362958Y0019493D01*
X0363063Y0019655D01*
X0363172Y0019814D01*
X0363286Y0019971D01*
X0363403Y0020124D01*
X0363523Y0020275D01*
X0363648Y0020423D01*
X0363776Y0020568D01*
X0363907Y0020709D01*
X0364042Y0020848D01*
X0364181Y0020983D01*
X0364322Y0021114D01*
X0364467Y0021242D01*
X0364615Y0021367D01*
X0364766Y0021487D01*
X0364919Y0021604D01*
X0365076Y0021718D01*
X0365235Y0021827D01*
X0365397Y0021932D01*
X0365562Y0022034D01*
X0365729Y0022131D01*
X0365898Y0022224D01*
X0366070Y0022313D01*
X0366243Y0022398D01*
X0366419Y0022478D01*
X0366597Y0022555D01*
X0366776Y0022626D01*
X0366957Y0022694D01*
X0367140Y0022757D01*
X0367324Y0022815D01*
X0367510Y0022869D01*
X0367697Y0022918D01*
X0367885Y0022963D01*
X0368074Y0023003D01*
X0368264Y0023038D01*
X0368455Y0023069D01*
X0368646Y0023095D01*
X0368838Y0023116D01*
X0369031Y0023133D01*
X0369224Y0023145D01*
X0369417Y0023152D01*
X0369610Y0023154D01*
X0369803Y0023152D01*
X0369996Y0023145D01*
X0370189Y0023133D01*
X0370382Y0023116D01*
X0370574Y0023095D01*
X0370765Y0023069D01*
X0370956Y0023038D01*
X0371146Y0023003D01*
X0371335Y0022963D01*
X0371523Y0022918D01*
X0371710Y0022869D01*
X0371896Y0022815D01*
X0372080Y0022757D01*
X0372263Y0022694D01*
X0372444Y0022626D01*
X0372623Y0022555D01*
X0372801Y0022478D01*
X0372977Y0022398D01*
X0373150Y0022313D01*
X0373322Y0022224D01*
X0373491Y0022131D01*
X0373658Y0022034D01*
X0373823Y0021932D01*
X0373985Y0021827D01*
X0374144Y0021718D01*
X0374301Y0021604D01*
X0374454Y0021487D01*
X0374605Y0021367D01*
X0374753Y0021242D01*
X0374898Y0021114D01*
X0375039Y0020983D01*
X0375178Y0020848D01*
X0375313Y0020709D01*
X0375444Y0020568D01*
X0375572Y0020423D01*
X0375697Y0020275D01*
X0375817Y0020124D01*
X0375934Y0019971D01*
X0376048Y0019814D01*
X0376157Y0019655D01*
X0376262Y0019493D01*
X0376364Y0019328D01*
X0376461Y0019161D01*
X0376554Y0018992D01*
X0376643Y0018820D01*
X0376728Y0018647D01*
X0376808Y0018471D01*
X0376885Y0018293D01*
X0376956Y0018114D01*
X0377024Y0017933D01*
X0377087Y0017750D01*
X0377145Y0017566D01*
X0377199Y0017380D01*
X0377248Y0017193D01*
X0377293Y0017005D01*
X0377333Y0016816D01*
X0377368Y0016626D01*
X0377399Y0016435D01*
X0377425Y0016244D01*
X0377446Y0016052D01*
X0377463Y0015859D01*
X0377475Y0015666D01*
X0377482Y0015473D01*
X0377484Y0015280D01*
X0377482Y0015087D01*
X0377475Y0014894D01*
X0377463Y0014701D01*
X0377446Y0014508D01*
X0377425Y0014316D01*
X0377399Y0014125D01*
X0377368Y0013934D01*
X0377333Y0013744D01*
X0377293Y0013555D01*
X0377248Y0013367D01*
X0377199Y0013180D01*
X0377145Y0012994D01*
X0377087Y0012810D01*
X0377024Y0012627D01*
X0376956Y0012446D01*
X0376885Y0012267D01*
X0376808Y0012089D01*
X0376728Y0011913D01*
X0376643Y0011740D01*
X0376554Y0011568D01*
X0376461Y0011399D01*
X0376364Y0011232D01*
X0376262Y0011067D01*
X0376157Y0010905D01*
X0376048Y0010746D01*
X0375934Y0010589D01*
X0375817Y0010436D01*
X0375697Y0010285D01*
X0375572Y0010137D01*
X0375444Y0009992D01*
X0375313Y0009851D01*
X0375178Y0009712D01*
X0375039Y0009577D01*
X0374898Y0009446D01*
X0374753Y0009318D01*
X0374605Y0009193D01*
X0374454Y0009073D01*
X0374301Y0008956D01*
X0374144Y0008842D01*
X0373985Y0008733D01*
X0373823Y0008628D01*
X0373658Y0008526D01*
X0373491Y0008429D01*
X0373322Y0008336D01*
X0373150Y0008247D01*
X0372977Y0008162D01*
X0372801Y0008082D01*
X0372623Y0008005D01*
X0372444Y0007934D01*
X0372263Y0007866D01*
X0372080Y0007803D01*
X0371896Y0007745D01*
X0371710Y0007691D01*
X0371523Y0007642D01*
X0371335Y0007597D01*
X0371146Y0007557D01*
X0370956Y0007522D01*
X0370765Y0007491D01*
X0370574Y0007465D01*
X0370382Y0007444D01*
X0370189Y0007427D01*
X0369996Y0007415D01*
X0369803Y0007408D01*
X0369610Y0007406D01*
X0369417Y0007408D01*
X0369224Y0007415D01*
X0369031Y0007427D01*
X0368838Y0007444D01*
X0368646Y0007465D01*
X0368455Y0007491D01*
X0368264Y0007522D01*
X0368074Y0007557D01*
X0367885Y0007597D01*
X0367697Y0007642D01*
X0367510Y0007691D01*
X0367324Y0007745D01*
X0367140Y0007803D01*
X0366957Y0007866D01*
X0366776Y0007934D01*
X0366597Y0008005D01*
X0366419Y0008082D01*
X0366243Y0008162D01*
X0366070Y0008247D01*
X0365898Y0008336D01*
X0365729Y0008429D01*
X0365562Y0008526D01*
X0365397Y0008628D01*
X0365235Y0008733D01*
X0365076Y0008842D01*
X0364919Y0008956D01*
X0364766Y0009073D01*
X0364615Y0009193D01*
X0364467Y0009318D01*
X0364322Y0009446D01*
X0364181Y0009577D01*
X0364042Y0009712D01*
X0363907Y0009851D01*
X0363776Y0009992D01*
X0363648Y0010137D01*
X0363523Y0010285D01*
X0363403Y0010436D01*
X0363286Y0010589D01*
X0363172Y0010746D01*
X0363063Y0010905D01*
X0362958Y0011067D01*
X0362856Y0011232D01*
X0362759Y0011399D01*
X0362666Y0011568D01*
X0362577Y0011740D01*
X0362492Y0011913D01*
X0362412Y0012089D01*
X0362335Y0012267D01*
X0362264Y0012446D01*
X0362196Y0012627D01*
X0362133Y0012810D01*
X0362075Y0012994D01*
X0362021Y0013180D01*
X0361972Y0013367D01*
X0361927Y0013555D01*
X0361887Y0013744D01*
X0361852Y0013934D01*
X0361821Y0014125D01*
X0361795Y0014316D01*
X0361774Y0014508D01*
X0361757Y0014701D01*
X0361745Y0014894D01*
X0361738Y0015087D01*
X0361736Y0015280D01*
X0312524Y0015280D02*
X0312526Y0015473D01*
X0312533Y0015666D01*
X0312545Y0015859D01*
X0312562Y0016052D01*
X0312583Y0016244D01*
X0312609Y0016435D01*
X0312640Y0016626D01*
X0312675Y0016816D01*
X0312715Y0017005D01*
X0312760Y0017193D01*
X0312809Y0017380D01*
X0312863Y0017566D01*
X0312921Y0017750D01*
X0312984Y0017933D01*
X0313052Y0018114D01*
X0313123Y0018293D01*
X0313200Y0018471D01*
X0313280Y0018647D01*
X0313365Y0018820D01*
X0313454Y0018992D01*
X0313547Y0019161D01*
X0313644Y0019328D01*
X0313746Y0019493D01*
X0313851Y0019655D01*
X0313960Y0019814D01*
X0314074Y0019971D01*
X0314191Y0020124D01*
X0314311Y0020275D01*
X0314436Y0020423D01*
X0314564Y0020568D01*
X0314695Y0020709D01*
X0314830Y0020848D01*
X0314969Y0020983D01*
X0315110Y0021114D01*
X0315255Y0021242D01*
X0315403Y0021367D01*
X0315554Y0021487D01*
X0315707Y0021604D01*
X0315864Y0021718D01*
X0316023Y0021827D01*
X0316185Y0021932D01*
X0316350Y0022034D01*
X0316517Y0022131D01*
X0316686Y0022224D01*
X0316858Y0022313D01*
X0317031Y0022398D01*
X0317207Y0022478D01*
X0317385Y0022555D01*
X0317564Y0022626D01*
X0317745Y0022694D01*
X0317928Y0022757D01*
X0318112Y0022815D01*
X0318298Y0022869D01*
X0318485Y0022918D01*
X0318673Y0022963D01*
X0318862Y0023003D01*
X0319052Y0023038D01*
X0319243Y0023069D01*
X0319434Y0023095D01*
X0319626Y0023116D01*
X0319819Y0023133D01*
X0320012Y0023145D01*
X0320205Y0023152D01*
X0320398Y0023154D01*
X0320591Y0023152D01*
X0320784Y0023145D01*
X0320977Y0023133D01*
X0321170Y0023116D01*
X0321362Y0023095D01*
X0321553Y0023069D01*
X0321744Y0023038D01*
X0321934Y0023003D01*
X0322123Y0022963D01*
X0322311Y0022918D01*
X0322498Y0022869D01*
X0322684Y0022815D01*
X0322868Y0022757D01*
X0323051Y0022694D01*
X0323232Y0022626D01*
X0323411Y0022555D01*
X0323589Y0022478D01*
X0323765Y0022398D01*
X0323938Y0022313D01*
X0324110Y0022224D01*
X0324279Y0022131D01*
X0324446Y0022034D01*
X0324611Y0021932D01*
X0324773Y0021827D01*
X0324932Y0021718D01*
X0325089Y0021604D01*
X0325242Y0021487D01*
X0325393Y0021367D01*
X0325541Y0021242D01*
X0325686Y0021114D01*
X0325827Y0020983D01*
X0325966Y0020848D01*
X0326101Y0020709D01*
X0326232Y0020568D01*
X0326360Y0020423D01*
X0326485Y0020275D01*
X0326605Y0020124D01*
X0326722Y0019971D01*
X0326836Y0019814D01*
X0326945Y0019655D01*
X0327050Y0019493D01*
X0327152Y0019328D01*
X0327249Y0019161D01*
X0327342Y0018992D01*
X0327431Y0018820D01*
X0327516Y0018647D01*
X0327596Y0018471D01*
X0327673Y0018293D01*
X0327744Y0018114D01*
X0327812Y0017933D01*
X0327875Y0017750D01*
X0327933Y0017566D01*
X0327987Y0017380D01*
X0328036Y0017193D01*
X0328081Y0017005D01*
X0328121Y0016816D01*
X0328156Y0016626D01*
X0328187Y0016435D01*
X0328213Y0016244D01*
X0328234Y0016052D01*
X0328251Y0015859D01*
X0328263Y0015666D01*
X0328270Y0015473D01*
X0328272Y0015280D01*
X0328270Y0015087D01*
X0328263Y0014894D01*
X0328251Y0014701D01*
X0328234Y0014508D01*
X0328213Y0014316D01*
X0328187Y0014125D01*
X0328156Y0013934D01*
X0328121Y0013744D01*
X0328081Y0013555D01*
X0328036Y0013367D01*
X0327987Y0013180D01*
X0327933Y0012994D01*
X0327875Y0012810D01*
X0327812Y0012627D01*
X0327744Y0012446D01*
X0327673Y0012267D01*
X0327596Y0012089D01*
X0327516Y0011913D01*
X0327431Y0011740D01*
X0327342Y0011568D01*
X0327249Y0011399D01*
X0327152Y0011232D01*
X0327050Y0011067D01*
X0326945Y0010905D01*
X0326836Y0010746D01*
X0326722Y0010589D01*
X0326605Y0010436D01*
X0326485Y0010285D01*
X0326360Y0010137D01*
X0326232Y0009992D01*
X0326101Y0009851D01*
X0325966Y0009712D01*
X0325827Y0009577D01*
X0325686Y0009446D01*
X0325541Y0009318D01*
X0325393Y0009193D01*
X0325242Y0009073D01*
X0325089Y0008956D01*
X0324932Y0008842D01*
X0324773Y0008733D01*
X0324611Y0008628D01*
X0324446Y0008526D01*
X0324279Y0008429D01*
X0324110Y0008336D01*
X0323938Y0008247D01*
X0323765Y0008162D01*
X0323589Y0008082D01*
X0323411Y0008005D01*
X0323232Y0007934D01*
X0323051Y0007866D01*
X0322868Y0007803D01*
X0322684Y0007745D01*
X0322498Y0007691D01*
X0322311Y0007642D01*
X0322123Y0007597D01*
X0321934Y0007557D01*
X0321744Y0007522D01*
X0321553Y0007491D01*
X0321362Y0007465D01*
X0321170Y0007444D01*
X0320977Y0007427D01*
X0320784Y0007415D01*
X0320591Y0007408D01*
X0320398Y0007406D01*
X0320205Y0007408D01*
X0320012Y0007415D01*
X0319819Y0007427D01*
X0319626Y0007444D01*
X0319434Y0007465D01*
X0319243Y0007491D01*
X0319052Y0007522D01*
X0318862Y0007557D01*
X0318673Y0007597D01*
X0318485Y0007642D01*
X0318298Y0007691D01*
X0318112Y0007745D01*
X0317928Y0007803D01*
X0317745Y0007866D01*
X0317564Y0007934D01*
X0317385Y0008005D01*
X0317207Y0008082D01*
X0317031Y0008162D01*
X0316858Y0008247D01*
X0316686Y0008336D01*
X0316517Y0008429D01*
X0316350Y0008526D01*
X0316185Y0008628D01*
X0316023Y0008733D01*
X0315864Y0008842D01*
X0315707Y0008956D01*
X0315554Y0009073D01*
X0315403Y0009193D01*
X0315255Y0009318D01*
X0315110Y0009446D01*
X0314969Y0009577D01*
X0314830Y0009712D01*
X0314695Y0009851D01*
X0314564Y0009992D01*
X0314436Y0010137D01*
X0314311Y0010285D01*
X0314191Y0010436D01*
X0314074Y0010589D01*
X0313960Y0010746D01*
X0313851Y0010905D01*
X0313746Y0011067D01*
X0313644Y0011232D01*
X0313547Y0011399D01*
X0313454Y0011568D01*
X0313365Y0011740D01*
X0313280Y0011913D01*
X0313200Y0012089D01*
X0313123Y0012267D01*
X0313052Y0012446D01*
X0312984Y0012627D01*
X0312921Y0012810D01*
X0312863Y0012994D01*
X0312809Y0013180D01*
X0312760Y0013367D01*
X0312715Y0013555D01*
X0312675Y0013744D01*
X0312640Y0013934D01*
X0312609Y0014125D01*
X0312583Y0014316D01*
X0312562Y0014508D01*
X0312545Y0014701D01*
X0312533Y0014894D01*
X0312526Y0015087D01*
X0312524Y0015280D01*
X0214098Y0015280D02*
X0214100Y0015473D01*
X0214107Y0015666D01*
X0214119Y0015859D01*
X0214136Y0016052D01*
X0214157Y0016244D01*
X0214183Y0016435D01*
X0214214Y0016626D01*
X0214249Y0016816D01*
X0214289Y0017005D01*
X0214334Y0017193D01*
X0214383Y0017380D01*
X0214437Y0017566D01*
X0214495Y0017750D01*
X0214558Y0017933D01*
X0214626Y0018114D01*
X0214697Y0018293D01*
X0214774Y0018471D01*
X0214854Y0018647D01*
X0214939Y0018820D01*
X0215028Y0018992D01*
X0215121Y0019161D01*
X0215218Y0019328D01*
X0215320Y0019493D01*
X0215425Y0019655D01*
X0215534Y0019814D01*
X0215648Y0019971D01*
X0215765Y0020124D01*
X0215885Y0020275D01*
X0216010Y0020423D01*
X0216138Y0020568D01*
X0216269Y0020709D01*
X0216404Y0020848D01*
X0216543Y0020983D01*
X0216684Y0021114D01*
X0216829Y0021242D01*
X0216977Y0021367D01*
X0217128Y0021487D01*
X0217281Y0021604D01*
X0217438Y0021718D01*
X0217597Y0021827D01*
X0217759Y0021932D01*
X0217924Y0022034D01*
X0218091Y0022131D01*
X0218260Y0022224D01*
X0218432Y0022313D01*
X0218605Y0022398D01*
X0218781Y0022478D01*
X0218959Y0022555D01*
X0219138Y0022626D01*
X0219319Y0022694D01*
X0219502Y0022757D01*
X0219686Y0022815D01*
X0219872Y0022869D01*
X0220059Y0022918D01*
X0220247Y0022963D01*
X0220436Y0023003D01*
X0220626Y0023038D01*
X0220817Y0023069D01*
X0221008Y0023095D01*
X0221200Y0023116D01*
X0221393Y0023133D01*
X0221586Y0023145D01*
X0221779Y0023152D01*
X0221972Y0023154D01*
X0222165Y0023152D01*
X0222358Y0023145D01*
X0222551Y0023133D01*
X0222744Y0023116D01*
X0222936Y0023095D01*
X0223127Y0023069D01*
X0223318Y0023038D01*
X0223508Y0023003D01*
X0223697Y0022963D01*
X0223885Y0022918D01*
X0224072Y0022869D01*
X0224258Y0022815D01*
X0224442Y0022757D01*
X0224625Y0022694D01*
X0224806Y0022626D01*
X0224985Y0022555D01*
X0225163Y0022478D01*
X0225339Y0022398D01*
X0225512Y0022313D01*
X0225684Y0022224D01*
X0225853Y0022131D01*
X0226020Y0022034D01*
X0226185Y0021932D01*
X0226347Y0021827D01*
X0226506Y0021718D01*
X0226663Y0021604D01*
X0226816Y0021487D01*
X0226967Y0021367D01*
X0227115Y0021242D01*
X0227260Y0021114D01*
X0227401Y0020983D01*
X0227540Y0020848D01*
X0227675Y0020709D01*
X0227806Y0020568D01*
X0227934Y0020423D01*
X0228059Y0020275D01*
X0228179Y0020124D01*
X0228296Y0019971D01*
X0228410Y0019814D01*
X0228519Y0019655D01*
X0228624Y0019493D01*
X0228726Y0019328D01*
X0228823Y0019161D01*
X0228916Y0018992D01*
X0229005Y0018820D01*
X0229090Y0018647D01*
X0229170Y0018471D01*
X0229247Y0018293D01*
X0229318Y0018114D01*
X0229386Y0017933D01*
X0229449Y0017750D01*
X0229507Y0017566D01*
X0229561Y0017380D01*
X0229610Y0017193D01*
X0229655Y0017005D01*
X0229695Y0016816D01*
X0229730Y0016626D01*
X0229761Y0016435D01*
X0229787Y0016244D01*
X0229808Y0016052D01*
X0229825Y0015859D01*
X0229837Y0015666D01*
X0229844Y0015473D01*
X0229846Y0015280D01*
X0229844Y0015087D01*
X0229837Y0014894D01*
X0229825Y0014701D01*
X0229808Y0014508D01*
X0229787Y0014316D01*
X0229761Y0014125D01*
X0229730Y0013934D01*
X0229695Y0013744D01*
X0229655Y0013555D01*
X0229610Y0013367D01*
X0229561Y0013180D01*
X0229507Y0012994D01*
X0229449Y0012810D01*
X0229386Y0012627D01*
X0229318Y0012446D01*
X0229247Y0012267D01*
X0229170Y0012089D01*
X0229090Y0011913D01*
X0229005Y0011740D01*
X0228916Y0011568D01*
X0228823Y0011399D01*
X0228726Y0011232D01*
X0228624Y0011067D01*
X0228519Y0010905D01*
X0228410Y0010746D01*
X0228296Y0010589D01*
X0228179Y0010436D01*
X0228059Y0010285D01*
X0227934Y0010137D01*
X0227806Y0009992D01*
X0227675Y0009851D01*
X0227540Y0009712D01*
X0227401Y0009577D01*
X0227260Y0009446D01*
X0227115Y0009318D01*
X0226967Y0009193D01*
X0226816Y0009073D01*
X0226663Y0008956D01*
X0226506Y0008842D01*
X0226347Y0008733D01*
X0226185Y0008628D01*
X0226020Y0008526D01*
X0225853Y0008429D01*
X0225684Y0008336D01*
X0225512Y0008247D01*
X0225339Y0008162D01*
X0225163Y0008082D01*
X0224985Y0008005D01*
X0224806Y0007934D01*
X0224625Y0007866D01*
X0224442Y0007803D01*
X0224258Y0007745D01*
X0224072Y0007691D01*
X0223885Y0007642D01*
X0223697Y0007597D01*
X0223508Y0007557D01*
X0223318Y0007522D01*
X0223127Y0007491D01*
X0222936Y0007465D01*
X0222744Y0007444D01*
X0222551Y0007427D01*
X0222358Y0007415D01*
X0222165Y0007408D01*
X0221972Y0007406D01*
X0221779Y0007408D01*
X0221586Y0007415D01*
X0221393Y0007427D01*
X0221200Y0007444D01*
X0221008Y0007465D01*
X0220817Y0007491D01*
X0220626Y0007522D01*
X0220436Y0007557D01*
X0220247Y0007597D01*
X0220059Y0007642D01*
X0219872Y0007691D01*
X0219686Y0007745D01*
X0219502Y0007803D01*
X0219319Y0007866D01*
X0219138Y0007934D01*
X0218959Y0008005D01*
X0218781Y0008082D01*
X0218605Y0008162D01*
X0218432Y0008247D01*
X0218260Y0008336D01*
X0218091Y0008429D01*
X0217924Y0008526D01*
X0217759Y0008628D01*
X0217597Y0008733D01*
X0217438Y0008842D01*
X0217281Y0008956D01*
X0217128Y0009073D01*
X0216977Y0009193D01*
X0216829Y0009318D01*
X0216684Y0009446D01*
X0216543Y0009577D01*
X0216404Y0009712D01*
X0216269Y0009851D01*
X0216138Y0009992D01*
X0216010Y0010137D01*
X0215885Y0010285D01*
X0215765Y0010436D01*
X0215648Y0010589D01*
X0215534Y0010746D01*
X0215425Y0010905D01*
X0215320Y0011067D01*
X0215218Y0011232D01*
X0215121Y0011399D01*
X0215028Y0011568D01*
X0214939Y0011740D01*
X0214854Y0011913D01*
X0214774Y0012089D01*
X0214697Y0012267D01*
X0214626Y0012446D01*
X0214558Y0012627D01*
X0214495Y0012810D01*
X0214437Y0012994D01*
X0214383Y0013180D01*
X0214334Y0013367D01*
X0214289Y0013555D01*
X0214249Y0013744D01*
X0214214Y0013934D01*
X0214183Y0014125D01*
X0214157Y0014316D01*
X0214136Y0014508D01*
X0214119Y0014701D01*
X0214107Y0014894D01*
X0214100Y0015087D01*
X0214098Y0015280D01*
X0115673Y0015280D02*
X0115675Y0015473D01*
X0115682Y0015666D01*
X0115694Y0015859D01*
X0115711Y0016052D01*
X0115732Y0016244D01*
X0115758Y0016435D01*
X0115789Y0016626D01*
X0115824Y0016816D01*
X0115864Y0017005D01*
X0115909Y0017193D01*
X0115958Y0017380D01*
X0116012Y0017566D01*
X0116070Y0017750D01*
X0116133Y0017933D01*
X0116201Y0018114D01*
X0116272Y0018293D01*
X0116349Y0018471D01*
X0116429Y0018647D01*
X0116514Y0018820D01*
X0116603Y0018992D01*
X0116696Y0019161D01*
X0116793Y0019328D01*
X0116895Y0019493D01*
X0117000Y0019655D01*
X0117109Y0019814D01*
X0117223Y0019971D01*
X0117340Y0020124D01*
X0117460Y0020275D01*
X0117585Y0020423D01*
X0117713Y0020568D01*
X0117844Y0020709D01*
X0117979Y0020848D01*
X0118118Y0020983D01*
X0118259Y0021114D01*
X0118404Y0021242D01*
X0118552Y0021367D01*
X0118703Y0021487D01*
X0118856Y0021604D01*
X0119013Y0021718D01*
X0119172Y0021827D01*
X0119334Y0021932D01*
X0119499Y0022034D01*
X0119666Y0022131D01*
X0119835Y0022224D01*
X0120007Y0022313D01*
X0120180Y0022398D01*
X0120356Y0022478D01*
X0120534Y0022555D01*
X0120713Y0022626D01*
X0120894Y0022694D01*
X0121077Y0022757D01*
X0121261Y0022815D01*
X0121447Y0022869D01*
X0121634Y0022918D01*
X0121822Y0022963D01*
X0122011Y0023003D01*
X0122201Y0023038D01*
X0122392Y0023069D01*
X0122583Y0023095D01*
X0122775Y0023116D01*
X0122968Y0023133D01*
X0123161Y0023145D01*
X0123354Y0023152D01*
X0123547Y0023154D01*
X0123740Y0023152D01*
X0123933Y0023145D01*
X0124126Y0023133D01*
X0124319Y0023116D01*
X0124511Y0023095D01*
X0124702Y0023069D01*
X0124893Y0023038D01*
X0125083Y0023003D01*
X0125272Y0022963D01*
X0125460Y0022918D01*
X0125647Y0022869D01*
X0125833Y0022815D01*
X0126017Y0022757D01*
X0126200Y0022694D01*
X0126381Y0022626D01*
X0126560Y0022555D01*
X0126738Y0022478D01*
X0126914Y0022398D01*
X0127087Y0022313D01*
X0127259Y0022224D01*
X0127428Y0022131D01*
X0127595Y0022034D01*
X0127760Y0021932D01*
X0127922Y0021827D01*
X0128081Y0021718D01*
X0128238Y0021604D01*
X0128391Y0021487D01*
X0128542Y0021367D01*
X0128690Y0021242D01*
X0128835Y0021114D01*
X0128976Y0020983D01*
X0129115Y0020848D01*
X0129250Y0020709D01*
X0129381Y0020568D01*
X0129509Y0020423D01*
X0129634Y0020275D01*
X0129754Y0020124D01*
X0129871Y0019971D01*
X0129985Y0019814D01*
X0130094Y0019655D01*
X0130199Y0019493D01*
X0130301Y0019328D01*
X0130398Y0019161D01*
X0130491Y0018992D01*
X0130580Y0018820D01*
X0130665Y0018647D01*
X0130745Y0018471D01*
X0130822Y0018293D01*
X0130893Y0018114D01*
X0130961Y0017933D01*
X0131024Y0017750D01*
X0131082Y0017566D01*
X0131136Y0017380D01*
X0131185Y0017193D01*
X0131230Y0017005D01*
X0131270Y0016816D01*
X0131305Y0016626D01*
X0131336Y0016435D01*
X0131362Y0016244D01*
X0131383Y0016052D01*
X0131400Y0015859D01*
X0131412Y0015666D01*
X0131419Y0015473D01*
X0131421Y0015280D01*
X0131419Y0015087D01*
X0131412Y0014894D01*
X0131400Y0014701D01*
X0131383Y0014508D01*
X0131362Y0014316D01*
X0131336Y0014125D01*
X0131305Y0013934D01*
X0131270Y0013744D01*
X0131230Y0013555D01*
X0131185Y0013367D01*
X0131136Y0013180D01*
X0131082Y0012994D01*
X0131024Y0012810D01*
X0130961Y0012627D01*
X0130893Y0012446D01*
X0130822Y0012267D01*
X0130745Y0012089D01*
X0130665Y0011913D01*
X0130580Y0011740D01*
X0130491Y0011568D01*
X0130398Y0011399D01*
X0130301Y0011232D01*
X0130199Y0011067D01*
X0130094Y0010905D01*
X0129985Y0010746D01*
X0129871Y0010589D01*
X0129754Y0010436D01*
X0129634Y0010285D01*
X0129509Y0010137D01*
X0129381Y0009992D01*
X0129250Y0009851D01*
X0129115Y0009712D01*
X0128976Y0009577D01*
X0128835Y0009446D01*
X0128690Y0009318D01*
X0128542Y0009193D01*
X0128391Y0009073D01*
X0128238Y0008956D01*
X0128081Y0008842D01*
X0127922Y0008733D01*
X0127760Y0008628D01*
X0127595Y0008526D01*
X0127428Y0008429D01*
X0127259Y0008336D01*
X0127087Y0008247D01*
X0126914Y0008162D01*
X0126738Y0008082D01*
X0126560Y0008005D01*
X0126381Y0007934D01*
X0126200Y0007866D01*
X0126017Y0007803D01*
X0125833Y0007745D01*
X0125647Y0007691D01*
X0125460Y0007642D01*
X0125272Y0007597D01*
X0125083Y0007557D01*
X0124893Y0007522D01*
X0124702Y0007491D01*
X0124511Y0007465D01*
X0124319Y0007444D01*
X0124126Y0007427D01*
X0123933Y0007415D01*
X0123740Y0007408D01*
X0123547Y0007406D01*
X0123354Y0007408D01*
X0123161Y0007415D01*
X0122968Y0007427D01*
X0122775Y0007444D01*
X0122583Y0007465D01*
X0122392Y0007491D01*
X0122201Y0007522D01*
X0122011Y0007557D01*
X0121822Y0007597D01*
X0121634Y0007642D01*
X0121447Y0007691D01*
X0121261Y0007745D01*
X0121077Y0007803D01*
X0120894Y0007866D01*
X0120713Y0007934D01*
X0120534Y0008005D01*
X0120356Y0008082D01*
X0120180Y0008162D01*
X0120007Y0008247D01*
X0119835Y0008336D01*
X0119666Y0008429D01*
X0119499Y0008526D01*
X0119334Y0008628D01*
X0119172Y0008733D01*
X0119013Y0008842D01*
X0118856Y0008956D01*
X0118703Y0009073D01*
X0118552Y0009193D01*
X0118404Y0009318D01*
X0118259Y0009446D01*
X0118118Y0009577D01*
X0117979Y0009712D01*
X0117844Y0009851D01*
X0117713Y0009992D01*
X0117585Y0010137D01*
X0117460Y0010285D01*
X0117340Y0010436D01*
X0117223Y0010589D01*
X0117109Y0010746D01*
X0117000Y0010905D01*
X0116895Y0011067D01*
X0116793Y0011232D01*
X0116696Y0011399D01*
X0116603Y0011568D01*
X0116514Y0011740D01*
X0116429Y0011913D01*
X0116349Y0012089D01*
X0116272Y0012267D01*
X0116201Y0012446D01*
X0116133Y0012627D01*
X0116070Y0012810D01*
X0116012Y0012994D01*
X0115958Y0013180D01*
X0115909Y0013367D01*
X0115864Y0013555D01*
X0115824Y0013744D01*
X0115789Y0013934D01*
X0115758Y0014125D01*
X0115732Y0014316D01*
X0115711Y0014508D01*
X0115694Y0014701D01*
X0115682Y0014894D01*
X0115675Y0015087D01*
X0115673Y0015280D01*
X0099925Y0005437D02*
X0099925Y0003469D01*
X0066461Y0015280D02*
X0066463Y0015473D01*
X0066470Y0015666D01*
X0066482Y0015859D01*
X0066499Y0016052D01*
X0066520Y0016244D01*
X0066546Y0016435D01*
X0066577Y0016626D01*
X0066612Y0016816D01*
X0066652Y0017005D01*
X0066697Y0017193D01*
X0066746Y0017380D01*
X0066800Y0017566D01*
X0066858Y0017750D01*
X0066921Y0017933D01*
X0066989Y0018114D01*
X0067060Y0018293D01*
X0067137Y0018471D01*
X0067217Y0018647D01*
X0067302Y0018820D01*
X0067391Y0018992D01*
X0067484Y0019161D01*
X0067581Y0019328D01*
X0067683Y0019493D01*
X0067788Y0019655D01*
X0067897Y0019814D01*
X0068011Y0019971D01*
X0068128Y0020124D01*
X0068248Y0020275D01*
X0068373Y0020423D01*
X0068501Y0020568D01*
X0068632Y0020709D01*
X0068767Y0020848D01*
X0068906Y0020983D01*
X0069047Y0021114D01*
X0069192Y0021242D01*
X0069340Y0021367D01*
X0069491Y0021487D01*
X0069644Y0021604D01*
X0069801Y0021718D01*
X0069960Y0021827D01*
X0070122Y0021932D01*
X0070287Y0022034D01*
X0070454Y0022131D01*
X0070623Y0022224D01*
X0070795Y0022313D01*
X0070968Y0022398D01*
X0071144Y0022478D01*
X0071322Y0022555D01*
X0071501Y0022626D01*
X0071682Y0022694D01*
X0071865Y0022757D01*
X0072049Y0022815D01*
X0072235Y0022869D01*
X0072422Y0022918D01*
X0072610Y0022963D01*
X0072799Y0023003D01*
X0072989Y0023038D01*
X0073180Y0023069D01*
X0073371Y0023095D01*
X0073563Y0023116D01*
X0073756Y0023133D01*
X0073949Y0023145D01*
X0074142Y0023152D01*
X0074335Y0023154D01*
X0074528Y0023152D01*
X0074721Y0023145D01*
X0074914Y0023133D01*
X0075107Y0023116D01*
X0075299Y0023095D01*
X0075490Y0023069D01*
X0075681Y0023038D01*
X0075871Y0023003D01*
X0076060Y0022963D01*
X0076248Y0022918D01*
X0076435Y0022869D01*
X0076621Y0022815D01*
X0076805Y0022757D01*
X0076988Y0022694D01*
X0077169Y0022626D01*
X0077348Y0022555D01*
X0077526Y0022478D01*
X0077702Y0022398D01*
X0077875Y0022313D01*
X0078047Y0022224D01*
X0078216Y0022131D01*
X0078383Y0022034D01*
X0078548Y0021932D01*
X0078710Y0021827D01*
X0078869Y0021718D01*
X0079026Y0021604D01*
X0079179Y0021487D01*
X0079330Y0021367D01*
X0079478Y0021242D01*
X0079623Y0021114D01*
X0079764Y0020983D01*
X0079903Y0020848D01*
X0080038Y0020709D01*
X0080169Y0020568D01*
X0080297Y0020423D01*
X0080422Y0020275D01*
X0080542Y0020124D01*
X0080659Y0019971D01*
X0080773Y0019814D01*
X0080882Y0019655D01*
X0080987Y0019493D01*
X0081089Y0019328D01*
X0081186Y0019161D01*
X0081279Y0018992D01*
X0081368Y0018820D01*
X0081453Y0018647D01*
X0081533Y0018471D01*
X0081610Y0018293D01*
X0081681Y0018114D01*
X0081749Y0017933D01*
X0081812Y0017750D01*
X0081870Y0017566D01*
X0081924Y0017380D01*
X0081973Y0017193D01*
X0082018Y0017005D01*
X0082058Y0016816D01*
X0082093Y0016626D01*
X0082124Y0016435D01*
X0082150Y0016244D01*
X0082171Y0016052D01*
X0082188Y0015859D01*
X0082200Y0015666D01*
X0082207Y0015473D01*
X0082209Y0015280D01*
X0082207Y0015087D01*
X0082200Y0014894D01*
X0082188Y0014701D01*
X0082171Y0014508D01*
X0082150Y0014316D01*
X0082124Y0014125D01*
X0082093Y0013934D01*
X0082058Y0013744D01*
X0082018Y0013555D01*
X0081973Y0013367D01*
X0081924Y0013180D01*
X0081870Y0012994D01*
X0081812Y0012810D01*
X0081749Y0012627D01*
X0081681Y0012446D01*
X0081610Y0012267D01*
X0081533Y0012089D01*
X0081453Y0011913D01*
X0081368Y0011740D01*
X0081279Y0011568D01*
X0081186Y0011399D01*
X0081089Y0011232D01*
X0080987Y0011067D01*
X0080882Y0010905D01*
X0080773Y0010746D01*
X0080659Y0010589D01*
X0080542Y0010436D01*
X0080422Y0010285D01*
X0080297Y0010137D01*
X0080169Y0009992D01*
X0080038Y0009851D01*
X0079903Y0009712D01*
X0079764Y0009577D01*
X0079623Y0009446D01*
X0079478Y0009318D01*
X0079330Y0009193D01*
X0079179Y0009073D01*
X0079026Y0008956D01*
X0078869Y0008842D01*
X0078710Y0008733D01*
X0078548Y0008628D01*
X0078383Y0008526D01*
X0078216Y0008429D01*
X0078047Y0008336D01*
X0077875Y0008247D01*
X0077702Y0008162D01*
X0077526Y0008082D01*
X0077348Y0008005D01*
X0077169Y0007934D01*
X0076988Y0007866D01*
X0076805Y0007803D01*
X0076621Y0007745D01*
X0076435Y0007691D01*
X0076248Y0007642D01*
X0076060Y0007597D01*
X0075871Y0007557D01*
X0075681Y0007522D01*
X0075490Y0007491D01*
X0075299Y0007465D01*
X0075107Y0007444D01*
X0074914Y0007427D01*
X0074721Y0007415D01*
X0074528Y0007408D01*
X0074335Y0007406D01*
X0074142Y0007408D01*
X0073949Y0007415D01*
X0073756Y0007427D01*
X0073563Y0007444D01*
X0073371Y0007465D01*
X0073180Y0007491D01*
X0072989Y0007522D01*
X0072799Y0007557D01*
X0072610Y0007597D01*
X0072422Y0007642D01*
X0072235Y0007691D01*
X0072049Y0007745D01*
X0071865Y0007803D01*
X0071682Y0007866D01*
X0071501Y0007934D01*
X0071322Y0008005D01*
X0071144Y0008082D01*
X0070968Y0008162D01*
X0070795Y0008247D01*
X0070623Y0008336D01*
X0070454Y0008429D01*
X0070287Y0008526D01*
X0070122Y0008628D01*
X0069960Y0008733D01*
X0069801Y0008842D01*
X0069644Y0008956D01*
X0069491Y0009073D01*
X0069340Y0009193D01*
X0069192Y0009318D01*
X0069047Y0009446D01*
X0068906Y0009577D01*
X0068767Y0009712D01*
X0068632Y0009851D01*
X0068501Y0009992D01*
X0068373Y0010137D01*
X0068248Y0010285D01*
X0068128Y0010436D01*
X0068011Y0010589D01*
X0067897Y0010746D01*
X0067788Y0010905D01*
X0067683Y0011067D01*
X0067581Y0011232D01*
X0067484Y0011399D01*
X0067391Y0011568D01*
X0067302Y0011740D01*
X0067217Y0011913D01*
X0067137Y0012089D01*
X0067060Y0012267D01*
X0066989Y0012446D01*
X0066921Y0012627D01*
X0066858Y0012810D01*
X0066800Y0012994D01*
X0066746Y0013180D01*
X0066697Y0013367D01*
X0066652Y0013555D01*
X0066612Y0013744D01*
X0066577Y0013934D01*
X0066546Y0014125D01*
X0066520Y0014316D01*
X0066499Y0014508D01*
X0066482Y0014701D01*
X0066470Y0014894D01*
X0066463Y0015087D01*
X0066461Y0015280D01*
X0017248Y0015280D02*
X0017250Y0015473D01*
X0017257Y0015666D01*
X0017269Y0015859D01*
X0017286Y0016052D01*
X0017307Y0016244D01*
X0017333Y0016435D01*
X0017364Y0016626D01*
X0017399Y0016816D01*
X0017439Y0017005D01*
X0017484Y0017193D01*
X0017533Y0017380D01*
X0017587Y0017566D01*
X0017645Y0017750D01*
X0017708Y0017933D01*
X0017776Y0018114D01*
X0017847Y0018293D01*
X0017924Y0018471D01*
X0018004Y0018647D01*
X0018089Y0018820D01*
X0018178Y0018992D01*
X0018271Y0019161D01*
X0018368Y0019328D01*
X0018470Y0019493D01*
X0018575Y0019655D01*
X0018684Y0019814D01*
X0018798Y0019971D01*
X0018915Y0020124D01*
X0019035Y0020275D01*
X0019160Y0020423D01*
X0019288Y0020568D01*
X0019419Y0020709D01*
X0019554Y0020848D01*
X0019693Y0020983D01*
X0019834Y0021114D01*
X0019979Y0021242D01*
X0020127Y0021367D01*
X0020278Y0021487D01*
X0020431Y0021604D01*
X0020588Y0021718D01*
X0020747Y0021827D01*
X0020909Y0021932D01*
X0021074Y0022034D01*
X0021241Y0022131D01*
X0021410Y0022224D01*
X0021582Y0022313D01*
X0021755Y0022398D01*
X0021931Y0022478D01*
X0022109Y0022555D01*
X0022288Y0022626D01*
X0022469Y0022694D01*
X0022652Y0022757D01*
X0022836Y0022815D01*
X0023022Y0022869D01*
X0023209Y0022918D01*
X0023397Y0022963D01*
X0023586Y0023003D01*
X0023776Y0023038D01*
X0023967Y0023069D01*
X0024158Y0023095D01*
X0024350Y0023116D01*
X0024543Y0023133D01*
X0024736Y0023145D01*
X0024929Y0023152D01*
X0025122Y0023154D01*
X0025315Y0023152D01*
X0025508Y0023145D01*
X0025701Y0023133D01*
X0025894Y0023116D01*
X0026086Y0023095D01*
X0026277Y0023069D01*
X0026468Y0023038D01*
X0026658Y0023003D01*
X0026847Y0022963D01*
X0027035Y0022918D01*
X0027222Y0022869D01*
X0027408Y0022815D01*
X0027592Y0022757D01*
X0027775Y0022694D01*
X0027956Y0022626D01*
X0028135Y0022555D01*
X0028313Y0022478D01*
X0028489Y0022398D01*
X0028662Y0022313D01*
X0028834Y0022224D01*
X0029003Y0022131D01*
X0029170Y0022034D01*
X0029335Y0021932D01*
X0029497Y0021827D01*
X0029656Y0021718D01*
X0029813Y0021604D01*
X0029966Y0021487D01*
X0030117Y0021367D01*
X0030265Y0021242D01*
X0030410Y0021114D01*
X0030551Y0020983D01*
X0030690Y0020848D01*
X0030825Y0020709D01*
X0030956Y0020568D01*
X0031084Y0020423D01*
X0031209Y0020275D01*
X0031329Y0020124D01*
X0031446Y0019971D01*
X0031560Y0019814D01*
X0031669Y0019655D01*
X0031774Y0019493D01*
X0031876Y0019328D01*
X0031973Y0019161D01*
X0032066Y0018992D01*
X0032155Y0018820D01*
X0032240Y0018647D01*
X0032320Y0018471D01*
X0032397Y0018293D01*
X0032468Y0018114D01*
X0032536Y0017933D01*
X0032599Y0017750D01*
X0032657Y0017566D01*
X0032711Y0017380D01*
X0032760Y0017193D01*
X0032805Y0017005D01*
X0032845Y0016816D01*
X0032880Y0016626D01*
X0032911Y0016435D01*
X0032937Y0016244D01*
X0032958Y0016052D01*
X0032975Y0015859D01*
X0032987Y0015666D01*
X0032994Y0015473D01*
X0032996Y0015280D01*
X0032994Y0015087D01*
X0032987Y0014894D01*
X0032975Y0014701D01*
X0032958Y0014508D01*
X0032937Y0014316D01*
X0032911Y0014125D01*
X0032880Y0013934D01*
X0032845Y0013744D01*
X0032805Y0013555D01*
X0032760Y0013367D01*
X0032711Y0013180D01*
X0032657Y0012994D01*
X0032599Y0012810D01*
X0032536Y0012627D01*
X0032468Y0012446D01*
X0032397Y0012267D01*
X0032320Y0012089D01*
X0032240Y0011913D01*
X0032155Y0011740D01*
X0032066Y0011568D01*
X0031973Y0011399D01*
X0031876Y0011232D01*
X0031774Y0011067D01*
X0031669Y0010905D01*
X0031560Y0010746D01*
X0031446Y0010589D01*
X0031329Y0010436D01*
X0031209Y0010285D01*
X0031084Y0010137D01*
X0030956Y0009992D01*
X0030825Y0009851D01*
X0030690Y0009712D01*
X0030551Y0009577D01*
X0030410Y0009446D01*
X0030265Y0009318D01*
X0030117Y0009193D01*
X0029966Y0009073D01*
X0029813Y0008956D01*
X0029656Y0008842D01*
X0029497Y0008733D01*
X0029335Y0008628D01*
X0029170Y0008526D01*
X0029003Y0008429D01*
X0028834Y0008336D01*
X0028662Y0008247D01*
X0028489Y0008162D01*
X0028313Y0008082D01*
X0028135Y0008005D01*
X0027956Y0007934D01*
X0027775Y0007866D01*
X0027592Y0007803D01*
X0027408Y0007745D01*
X0027222Y0007691D01*
X0027035Y0007642D01*
X0026847Y0007597D01*
X0026658Y0007557D01*
X0026468Y0007522D01*
X0026277Y0007491D01*
X0026086Y0007465D01*
X0025894Y0007444D01*
X0025701Y0007427D01*
X0025508Y0007415D01*
X0025315Y0007408D01*
X0025122Y0007406D01*
X0024929Y0007408D01*
X0024736Y0007415D01*
X0024543Y0007427D01*
X0024350Y0007444D01*
X0024158Y0007465D01*
X0023967Y0007491D01*
X0023776Y0007522D01*
X0023586Y0007557D01*
X0023397Y0007597D01*
X0023209Y0007642D01*
X0023022Y0007691D01*
X0022836Y0007745D01*
X0022652Y0007803D01*
X0022469Y0007866D01*
X0022288Y0007934D01*
X0022109Y0008005D01*
X0021931Y0008082D01*
X0021755Y0008162D01*
X0021582Y0008247D01*
X0021410Y0008336D01*
X0021241Y0008429D01*
X0021074Y0008526D01*
X0020909Y0008628D01*
X0020747Y0008733D01*
X0020588Y0008842D01*
X0020431Y0008956D01*
X0020278Y0009073D01*
X0020127Y0009193D01*
X0019979Y0009318D01*
X0019834Y0009446D01*
X0019693Y0009577D01*
X0019554Y0009712D01*
X0019419Y0009851D01*
X0019288Y0009992D01*
X0019160Y0010137D01*
X0019035Y0010285D01*
X0018915Y0010436D01*
X0018798Y0010589D01*
X0018684Y0010746D01*
X0018575Y0010905D01*
X0018470Y0011067D01*
X0018368Y0011232D01*
X0018271Y0011399D01*
X0018178Y0011568D01*
X0018089Y0011740D01*
X0018004Y0011913D01*
X0017924Y0012089D01*
X0017847Y0012267D01*
X0017776Y0012446D01*
X0017708Y0012627D01*
X0017645Y0012810D01*
X0017587Y0012994D01*
X0017533Y0013180D01*
X0017484Y0013367D01*
X0017439Y0013555D01*
X0017399Y0013744D01*
X0017364Y0013934D01*
X0017333Y0014125D01*
X0017307Y0014316D01*
X0017286Y0014508D01*
X0017269Y0014701D01*
X0017257Y0014894D01*
X0017250Y0015087D01*
X0017248Y0015280D01*
X0001500Y0003469D02*
X0001500Y0194413D01*
X0001500Y0001500D01*
X0001500Y0194413D02*
X0001500Y0196382D01*
X0017248Y0210161D02*
X0017250Y0210354D01*
X0017257Y0210547D01*
X0017269Y0210740D01*
X0017286Y0210933D01*
X0017307Y0211125D01*
X0017333Y0211316D01*
X0017364Y0211507D01*
X0017399Y0211697D01*
X0017439Y0211886D01*
X0017484Y0212074D01*
X0017533Y0212261D01*
X0017587Y0212447D01*
X0017645Y0212631D01*
X0017708Y0212814D01*
X0017776Y0212995D01*
X0017847Y0213174D01*
X0017924Y0213352D01*
X0018004Y0213528D01*
X0018089Y0213701D01*
X0018178Y0213873D01*
X0018271Y0214042D01*
X0018368Y0214209D01*
X0018470Y0214374D01*
X0018575Y0214536D01*
X0018684Y0214695D01*
X0018798Y0214852D01*
X0018915Y0215005D01*
X0019035Y0215156D01*
X0019160Y0215304D01*
X0019288Y0215449D01*
X0019419Y0215590D01*
X0019554Y0215729D01*
X0019693Y0215864D01*
X0019834Y0215995D01*
X0019979Y0216123D01*
X0020127Y0216248D01*
X0020278Y0216368D01*
X0020431Y0216485D01*
X0020588Y0216599D01*
X0020747Y0216708D01*
X0020909Y0216813D01*
X0021074Y0216915D01*
X0021241Y0217012D01*
X0021410Y0217105D01*
X0021582Y0217194D01*
X0021755Y0217279D01*
X0021931Y0217359D01*
X0022109Y0217436D01*
X0022288Y0217507D01*
X0022469Y0217575D01*
X0022652Y0217638D01*
X0022836Y0217696D01*
X0023022Y0217750D01*
X0023209Y0217799D01*
X0023397Y0217844D01*
X0023586Y0217884D01*
X0023776Y0217919D01*
X0023967Y0217950D01*
X0024158Y0217976D01*
X0024350Y0217997D01*
X0024543Y0218014D01*
X0024736Y0218026D01*
X0024929Y0218033D01*
X0025122Y0218035D01*
X0025315Y0218033D01*
X0025508Y0218026D01*
X0025701Y0218014D01*
X0025894Y0217997D01*
X0026086Y0217976D01*
X0026277Y0217950D01*
X0026468Y0217919D01*
X0026658Y0217884D01*
X0026847Y0217844D01*
X0027035Y0217799D01*
X0027222Y0217750D01*
X0027408Y0217696D01*
X0027592Y0217638D01*
X0027775Y0217575D01*
X0027956Y0217507D01*
X0028135Y0217436D01*
X0028313Y0217359D01*
X0028489Y0217279D01*
X0028662Y0217194D01*
X0028834Y0217105D01*
X0029003Y0217012D01*
X0029170Y0216915D01*
X0029335Y0216813D01*
X0029497Y0216708D01*
X0029656Y0216599D01*
X0029813Y0216485D01*
X0029966Y0216368D01*
X0030117Y0216248D01*
X0030265Y0216123D01*
X0030410Y0215995D01*
X0030551Y0215864D01*
X0030690Y0215729D01*
X0030825Y0215590D01*
X0030956Y0215449D01*
X0031084Y0215304D01*
X0031209Y0215156D01*
X0031329Y0215005D01*
X0031446Y0214852D01*
X0031560Y0214695D01*
X0031669Y0214536D01*
X0031774Y0214374D01*
X0031876Y0214209D01*
X0031973Y0214042D01*
X0032066Y0213873D01*
X0032155Y0213701D01*
X0032240Y0213528D01*
X0032320Y0213352D01*
X0032397Y0213174D01*
X0032468Y0212995D01*
X0032536Y0212814D01*
X0032599Y0212631D01*
X0032657Y0212447D01*
X0032711Y0212261D01*
X0032760Y0212074D01*
X0032805Y0211886D01*
X0032845Y0211697D01*
X0032880Y0211507D01*
X0032911Y0211316D01*
X0032937Y0211125D01*
X0032958Y0210933D01*
X0032975Y0210740D01*
X0032987Y0210547D01*
X0032994Y0210354D01*
X0032996Y0210161D01*
X0032994Y0209968D01*
X0032987Y0209775D01*
X0032975Y0209582D01*
X0032958Y0209389D01*
X0032937Y0209197D01*
X0032911Y0209006D01*
X0032880Y0208815D01*
X0032845Y0208625D01*
X0032805Y0208436D01*
X0032760Y0208248D01*
X0032711Y0208061D01*
X0032657Y0207875D01*
X0032599Y0207691D01*
X0032536Y0207508D01*
X0032468Y0207327D01*
X0032397Y0207148D01*
X0032320Y0206970D01*
X0032240Y0206794D01*
X0032155Y0206621D01*
X0032066Y0206449D01*
X0031973Y0206280D01*
X0031876Y0206113D01*
X0031774Y0205948D01*
X0031669Y0205786D01*
X0031560Y0205627D01*
X0031446Y0205470D01*
X0031329Y0205317D01*
X0031209Y0205166D01*
X0031084Y0205018D01*
X0030956Y0204873D01*
X0030825Y0204732D01*
X0030690Y0204593D01*
X0030551Y0204458D01*
X0030410Y0204327D01*
X0030265Y0204199D01*
X0030117Y0204074D01*
X0029966Y0203954D01*
X0029813Y0203837D01*
X0029656Y0203723D01*
X0029497Y0203614D01*
X0029335Y0203509D01*
X0029170Y0203407D01*
X0029003Y0203310D01*
X0028834Y0203217D01*
X0028662Y0203128D01*
X0028489Y0203043D01*
X0028313Y0202963D01*
X0028135Y0202886D01*
X0027956Y0202815D01*
X0027775Y0202747D01*
X0027592Y0202684D01*
X0027408Y0202626D01*
X0027222Y0202572D01*
X0027035Y0202523D01*
X0026847Y0202478D01*
X0026658Y0202438D01*
X0026468Y0202403D01*
X0026277Y0202372D01*
X0026086Y0202346D01*
X0025894Y0202325D01*
X0025701Y0202308D01*
X0025508Y0202296D01*
X0025315Y0202289D01*
X0025122Y0202287D01*
X0024929Y0202289D01*
X0024736Y0202296D01*
X0024543Y0202308D01*
X0024350Y0202325D01*
X0024158Y0202346D01*
X0023967Y0202372D01*
X0023776Y0202403D01*
X0023586Y0202438D01*
X0023397Y0202478D01*
X0023209Y0202523D01*
X0023022Y0202572D01*
X0022836Y0202626D01*
X0022652Y0202684D01*
X0022469Y0202747D01*
X0022288Y0202815D01*
X0022109Y0202886D01*
X0021931Y0202963D01*
X0021755Y0203043D01*
X0021582Y0203128D01*
X0021410Y0203217D01*
X0021241Y0203310D01*
X0021074Y0203407D01*
X0020909Y0203509D01*
X0020747Y0203614D01*
X0020588Y0203723D01*
X0020431Y0203837D01*
X0020278Y0203954D01*
X0020127Y0204074D01*
X0019979Y0204199D01*
X0019834Y0204327D01*
X0019693Y0204458D01*
X0019554Y0204593D01*
X0019419Y0204732D01*
X0019288Y0204873D01*
X0019160Y0205018D01*
X0019035Y0205166D01*
X0018915Y0205317D01*
X0018798Y0205470D01*
X0018684Y0205627D01*
X0018575Y0205786D01*
X0018470Y0205948D01*
X0018368Y0206113D01*
X0018271Y0206280D01*
X0018178Y0206449D01*
X0018089Y0206621D01*
X0018004Y0206794D01*
X0017924Y0206970D01*
X0017847Y0207148D01*
X0017776Y0207327D01*
X0017708Y0207508D01*
X0017645Y0207691D01*
X0017587Y0207875D01*
X0017533Y0208061D01*
X0017484Y0208248D01*
X0017439Y0208436D01*
X0017399Y0208625D01*
X0017364Y0208815D01*
X0017333Y0209006D01*
X0017307Y0209197D01*
X0017286Y0209389D01*
X0017269Y0209582D01*
X0017257Y0209775D01*
X0017250Y0209968D01*
X0017248Y0210161D01*
X0066461Y0210161D02*
X0066463Y0210354D01*
X0066470Y0210547D01*
X0066482Y0210740D01*
X0066499Y0210933D01*
X0066520Y0211125D01*
X0066546Y0211316D01*
X0066577Y0211507D01*
X0066612Y0211697D01*
X0066652Y0211886D01*
X0066697Y0212074D01*
X0066746Y0212261D01*
X0066800Y0212447D01*
X0066858Y0212631D01*
X0066921Y0212814D01*
X0066989Y0212995D01*
X0067060Y0213174D01*
X0067137Y0213352D01*
X0067217Y0213528D01*
X0067302Y0213701D01*
X0067391Y0213873D01*
X0067484Y0214042D01*
X0067581Y0214209D01*
X0067683Y0214374D01*
X0067788Y0214536D01*
X0067897Y0214695D01*
X0068011Y0214852D01*
X0068128Y0215005D01*
X0068248Y0215156D01*
X0068373Y0215304D01*
X0068501Y0215449D01*
X0068632Y0215590D01*
X0068767Y0215729D01*
X0068906Y0215864D01*
X0069047Y0215995D01*
X0069192Y0216123D01*
X0069340Y0216248D01*
X0069491Y0216368D01*
X0069644Y0216485D01*
X0069801Y0216599D01*
X0069960Y0216708D01*
X0070122Y0216813D01*
X0070287Y0216915D01*
X0070454Y0217012D01*
X0070623Y0217105D01*
X0070795Y0217194D01*
X0070968Y0217279D01*
X0071144Y0217359D01*
X0071322Y0217436D01*
X0071501Y0217507D01*
X0071682Y0217575D01*
X0071865Y0217638D01*
X0072049Y0217696D01*
X0072235Y0217750D01*
X0072422Y0217799D01*
X0072610Y0217844D01*
X0072799Y0217884D01*
X0072989Y0217919D01*
X0073180Y0217950D01*
X0073371Y0217976D01*
X0073563Y0217997D01*
X0073756Y0218014D01*
X0073949Y0218026D01*
X0074142Y0218033D01*
X0074335Y0218035D01*
X0074528Y0218033D01*
X0074721Y0218026D01*
X0074914Y0218014D01*
X0075107Y0217997D01*
X0075299Y0217976D01*
X0075490Y0217950D01*
X0075681Y0217919D01*
X0075871Y0217884D01*
X0076060Y0217844D01*
X0076248Y0217799D01*
X0076435Y0217750D01*
X0076621Y0217696D01*
X0076805Y0217638D01*
X0076988Y0217575D01*
X0077169Y0217507D01*
X0077348Y0217436D01*
X0077526Y0217359D01*
X0077702Y0217279D01*
X0077875Y0217194D01*
X0078047Y0217105D01*
X0078216Y0217012D01*
X0078383Y0216915D01*
X0078548Y0216813D01*
X0078710Y0216708D01*
X0078869Y0216599D01*
X0079026Y0216485D01*
X0079179Y0216368D01*
X0079330Y0216248D01*
X0079478Y0216123D01*
X0079623Y0215995D01*
X0079764Y0215864D01*
X0079903Y0215729D01*
X0080038Y0215590D01*
X0080169Y0215449D01*
X0080297Y0215304D01*
X0080422Y0215156D01*
X0080542Y0215005D01*
X0080659Y0214852D01*
X0080773Y0214695D01*
X0080882Y0214536D01*
X0080987Y0214374D01*
X0081089Y0214209D01*
X0081186Y0214042D01*
X0081279Y0213873D01*
X0081368Y0213701D01*
X0081453Y0213528D01*
X0081533Y0213352D01*
X0081610Y0213174D01*
X0081681Y0212995D01*
X0081749Y0212814D01*
X0081812Y0212631D01*
X0081870Y0212447D01*
X0081924Y0212261D01*
X0081973Y0212074D01*
X0082018Y0211886D01*
X0082058Y0211697D01*
X0082093Y0211507D01*
X0082124Y0211316D01*
X0082150Y0211125D01*
X0082171Y0210933D01*
X0082188Y0210740D01*
X0082200Y0210547D01*
X0082207Y0210354D01*
X0082209Y0210161D01*
X0082207Y0209968D01*
X0082200Y0209775D01*
X0082188Y0209582D01*
X0082171Y0209389D01*
X0082150Y0209197D01*
X0082124Y0209006D01*
X0082093Y0208815D01*
X0082058Y0208625D01*
X0082018Y0208436D01*
X0081973Y0208248D01*
X0081924Y0208061D01*
X0081870Y0207875D01*
X0081812Y0207691D01*
X0081749Y0207508D01*
X0081681Y0207327D01*
X0081610Y0207148D01*
X0081533Y0206970D01*
X0081453Y0206794D01*
X0081368Y0206621D01*
X0081279Y0206449D01*
X0081186Y0206280D01*
X0081089Y0206113D01*
X0080987Y0205948D01*
X0080882Y0205786D01*
X0080773Y0205627D01*
X0080659Y0205470D01*
X0080542Y0205317D01*
X0080422Y0205166D01*
X0080297Y0205018D01*
X0080169Y0204873D01*
X0080038Y0204732D01*
X0079903Y0204593D01*
X0079764Y0204458D01*
X0079623Y0204327D01*
X0079478Y0204199D01*
X0079330Y0204074D01*
X0079179Y0203954D01*
X0079026Y0203837D01*
X0078869Y0203723D01*
X0078710Y0203614D01*
X0078548Y0203509D01*
X0078383Y0203407D01*
X0078216Y0203310D01*
X0078047Y0203217D01*
X0077875Y0203128D01*
X0077702Y0203043D01*
X0077526Y0202963D01*
X0077348Y0202886D01*
X0077169Y0202815D01*
X0076988Y0202747D01*
X0076805Y0202684D01*
X0076621Y0202626D01*
X0076435Y0202572D01*
X0076248Y0202523D01*
X0076060Y0202478D01*
X0075871Y0202438D01*
X0075681Y0202403D01*
X0075490Y0202372D01*
X0075299Y0202346D01*
X0075107Y0202325D01*
X0074914Y0202308D01*
X0074721Y0202296D01*
X0074528Y0202289D01*
X0074335Y0202287D01*
X0074142Y0202289D01*
X0073949Y0202296D01*
X0073756Y0202308D01*
X0073563Y0202325D01*
X0073371Y0202346D01*
X0073180Y0202372D01*
X0072989Y0202403D01*
X0072799Y0202438D01*
X0072610Y0202478D01*
X0072422Y0202523D01*
X0072235Y0202572D01*
X0072049Y0202626D01*
X0071865Y0202684D01*
X0071682Y0202747D01*
X0071501Y0202815D01*
X0071322Y0202886D01*
X0071144Y0202963D01*
X0070968Y0203043D01*
X0070795Y0203128D01*
X0070623Y0203217D01*
X0070454Y0203310D01*
X0070287Y0203407D01*
X0070122Y0203509D01*
X0069960Y0203614D01*
X0069801Y0203723D01*
X0069644Y0203837D01*
X0069491Y0203954D01*
X0069340Y0204074D01*
X0069192Y0204199D01*
X0069047Y0204327D01*
X0068906Y0204458D01*
X0068767Y0204593D01*
X0068632Y0204732D01*
X0068501Y0204873D01*
X0068373Y0205018D01*
X0068248Y0205166D01*
X0068128Y0205317D01*
X0068011Y0205470D01*
X0067897Y0205627D01*
X0067788Y0205786D01*
X0067683Y0205948D01*
X0067581Y0206113D01*
X0067484Y0206280D01*
X0067391Y0206449D01*
X0067302Y0206621D01*
X0067217Y0206794D01*
X0067137Y0206970D01*
X0067060Y0207148D01*
X0066989Y0207327D01*
X0066921Y0207508D01*
X0066858Y0207691D01*
X0066800Y0207875D01*
X0066746Y0208061D01*
X0066697Y0208248D01*
X0066652Y0208436D01*
X0066612Y0208625D01*
X0066577Y0208815D01*
X0066546Y0209006D01*
X0066520Y0209197D01*
X0066499Y0209389D01*
X0066482Y0209582D01*
X0066470Y0209775D01*
X0066463Y0209968D01*
X0066461Y0210161D01*
X0099925Y0196382D02*
X0099925Y0194413D01*
X0115673Y0210161D02*
X0115675Y0210354D01*
X0115682Y0210547D01*
X0115694Y0210740D01*
X0115711Y0210933D01*
X0115732Y0211125D01*
X0115758Y0211316D01*
X0115789Y0211507D01*
X0115824Y0211697D01*
X0115864Y0211886D01*
X0115909Y0212074D01*
X0115958Y0212261D01*
X0116012Y0212447D01*
X0116070Y0212631D01*
X0116133Y0212814D01*
X0116201Y0212995D01*
X0116272Y0213174D01*
X0116349Y0213352D01*
X0116429Y0213528D01*
X0116514Y0213701D01*
X0116603Y0213873D01*
X0116696Y0214042D01*
X0116793Y0214209D01*
X0116895Y0214374D01*
X0117000Y0214536D01*
X0117109Y0214695D01*
X0117223Y0214852D01*
X0117340Y0215005D01*
X0117460Y0215156D01*
X0117585Y0215304D01*
X0117713Y0215449D01*
X0117844Y0215590D01*
X0117979Y0215729D01*
X0118118Y0215864D01*
X0118259Y0215995D01*
X0118404Y0216123D01*
X0118552Y0216248D01*
X0118703Y0216368D01*
X0118856Y0216485D01*
X0119013Y0216599D01*
X0119172Y0216708D01*
X0119334Y0216813D01*
X0119499Y0216915D01*
X0119666Y0217012D01*
X0119835Y0217105D01*
X0120007Y0217194D01*
X0120180Y0217279D01*
X0120356Y0217359D01*
X0120534Y0217436D01*
X0120713Y0217507D01*
X0120894Y0217575D01*
X0121077Y0217638D01*
X0121261Y0217696D01*
X0121447Y0217750D01*
X0121634Y0217799D01*
X0121822Y0217844D01*
X0122011Y0217884D01*
X0122201Y0217919D01*
X0122392Y0217950D01*
X0122583Y0217976D01*
X0122775Y0217997D01*
X0122968Y0218014D01*
X0123161Y0218026D01*
X0123354Y0218033D01*
X0123547Y0218035D01*
X0123740Y0218033D01*
X0123933Y0218026D01*
X0124126Y0218014D01*
X0124319Y0217997D01*
X0124511Y0217976D01*
X0124702Y0217950D01*
X0124893Y0217919D01*
X0125083Y0217884D01*
X0125272Y0217844D01*
X0125460Y0217799D01*
X0125647Y0217750D01*
X0125833Y0217696D01*
X0126017Y0217638D01*
X0126200Y0217575D01*
X0126381Y0217507D01*
X0126560Y0217436D01*
X0126738Y0217359D01*
X0126914Y0217279D01*
X0127087Y0217194D01*
X0127259Y0217105D01*
X0127428Y0217012D01*
X0127595Y0216915D01*
X0127760Y0216813D01*
X0127922Y0216708D01*
X0128081Y0216599D01*
X0128238Y0216485D01*
X0128391Y0216368D01*
X0128542Y0216248D01*
X0128690Y0216123D01*
X0128835Y0215995D01*
X0128976Y0215864D01*
X0129115Y0215729D01*
X0129250Y0215590D01*
X0129381Y0215449D01*
X0129509Y0215304D01*
X0129634Y0215156D01*
X0129754Y0215005D01*
X0129871Y0214852D01*
X0129985Y0214695D01*
X0130094Y0214536D01*
X0130199Y0214374D01*
X0130301Y0214209D01*
X0130398Y0214042D01*
X0130491Y0213873D01*
X0130580Y0213701D01*
X0130665Y0213528D01*
X0130745Y0213352D01*
X0130822Y0213174D01*
X0130893Y0212995D01*
X0130961Y0212814D01*
X0131024Y0212631D01*
X0131082Y0212447D01*
X0131136Y0212261D01*
X0131185Y0212074D01*
X0131230Y0211886D01*
X0131270Y0211697D01*
X0131305Y0211507D01*
X0131336Y0211316D01*
X0131362Y0211125D01*
X0131383Y0210933D01*
X0131400Y0210740D01*
X0131412Y0210547D01*
X0131419Y0210354D01*
X0131421Y0210161D01*
X0131419Y0209968D01*
X0131412Y0209775D01*
X0131400Y0209582D01*
X0131383Y0209389D01*
X0131362Y0209197D01*
X0131336Y0209006D01*
X0131305Y0208815D01*
X0131270Y0208625D01*
X0131230Y0208436D01*
X0131185Y0208248D01*
X0131136Y0208061D01*
X0131082Y0207875D01*
X0131024Y0207691D01*
X0130961Y0207508D01*
X0130893Y0207327D01*
X0130822Y0207148D01*
X0130745Y0206970D01*
X0130665Y0206794D01*
X0130580Y0206621D01*
X0130491Y0206449D01*
X0130398Y0206280D01*
X0130301Y0206113D01*
X0130199Y0205948D01*
X0130094Y0205786D01*
X0129985Y0205627D01*
X0129871Y0205470D01*
X0129754Y0205317D01*
X0129634Y0205166D01*
X0129509Y0205018D01*
X0129381Y0204873D01*
X0129250Y0204732D01*
X0129115Y0204593D01*
X0128976Y0204458D01*
X0128835Y0204327D01*
X0128690Y0204199D01*
X0128542Y0204074D01*
X0128391Y0203954D01*
X0128238Y0203837D01*
X0128081Y0203723D01*
X0127922Y0203614D01*
X0127760Y0203509D01*
X0127595Y0203407D01*
X0127428Y0203310D01*
X0127259Y0203217D01*
X0127087Y0203128D01*
X0126914Y0203043D01*
X0126738Y0202963D01*
X0126560Y0202886D01*
X0126381Y0202815D01*
X0126200Y0202747D01*
X0126017Y0202684D01*
X0125833Y0202626D01*
X0125647Y0202572D01*
X0125460Y0202523D01*
X0125272Y0202478D01*
X0125083Y0202438D01*
X0124893Y0202403D01*
X0124702Y0202372D01*
X0124511Y0202346D01*
X0124319Y0202325D01*
X0124126Y0202308D01*
X0123933Y0202296D01*
X0123740Y0202289D01*
X0123547Y0202287D01*
X0123354Y0202289D01*
X0123161Y0202296D01*
X0122968Y0202308D01*
X0122775Y0202325D01*
X0122583Y0202346D01*
X0122392Y0202372D01*
X0122201Y0202403D01*
X0122011Y0202438D01*
X0121822Y0202478D01*
X0121634Y0202523D01*
X0121447Y0202572D01*
X0121261Y0202626D01*
X0121077Y0202684D01*
X0120894Y0202747D01*
X0120713Y0202815D01*
X0120534Y0202886D01*
X0120356Y0202963D01*
X0120180Y0203043D01*
X0120007Y0203128D01*
X0119835Y0203217D01*
X0119666Y0203310D01*
X0119499Y0203407D01*
X0119334Y0203509D01*
X0119172Y0203614D01*
X0119013Y0203723D01*
X0118856Y0203837D01*
X0118703Y0203954D01*
X0118552Y0204074D01*
X0118404Y0204199D01*
X0118259Y0204327D01*
X0118118Y0204458D01*
X0117979Y0204593D01*
X0117844Y0204732D01*
X0117713Y0204873D01*
X0117585Y0205018D01*
X0117460Y0205166D01*
X0117340Y0205317D01*
X0117223Y0205470D01*
X0117109Y0205627D01*
X0117000Y0205786D01*
X0116895Y0205948D01*
X0116793Y0206113D01*
X0116696Y0206280D01*
X0116603Y0206449D01*
X0116514Y0206621D01*
X0116429Y0206794D01*
X0116349Y0206970D01*
X0116272Y0207148D01*
X0116201Y0207327D01*
X0116133Y0207508D01*
X0116070Y0207691D01*
X0116012Y0207875D01*
X0115958Y0208061D01*
X0115909Y0208248D01*
X0115864Y0208436D01*
X0115824Y0208625D01*
X0115789Y0208815D01*
X0115758Y0209006D01*
X0115732Y0209197D01*
X0115711Y0209389D01*
X0115694Y0209582D01*
X0115682Y0209775D01*
X0115675Y0209968D01*
X0115673Y0210161D01*
X0164886Y0210161D02*
X0164888Y0210354D01*
X0164895Y0210547D01*
X0164907Y0210740D01*
X0164924Y0210933D01*
X0164945Y0211125D01*
X0164971Y0211316D01*
X0165002Y0211507D01*
X0165037Y0211697D01*
X0165077Y0211886D01*
X0165122Y0212074D01*
X0165171Y0212261D01*
X0165225Y0212447D01*
X0165283Y0212631D01*
X0165346Y0212814D01*
X0165414Y0212995D01*
X0165485Y0213174D01*
X0165562Y0213352D01*
X0165642Y0213528D01*
X0165727Y0213701D01*
X0165816Y0213873D01*
X0165909Y0214042D01*
X0166006Y0214209D01*
X0166108Y0214374D01*
X0166213Y0214536D01*
X0166322Y0214695D01*
X0166436Y0214852D01*
X0166553Y0215005D01*
X0166673Y0215156D01*
X0166798Y0215304D01*
X0166926Y0215449D01*
X0167057Y0215590D01*
X0167192Y0215729D01*
X0167331Y0215864D01*
X0167472Y0215995D01*
X0167617Y0216123D01*
X0167765Y0216248D01*
X0167916Y0216368D01*
X0168069Y0216485D01*
X0168226Y0216599D01*
X0168385Y0216708D01*
X0168547Y0216813D01*
X0168712Y0216915D01*
X0168879Y0217012D01*
X0169048Y0217105D01*
X0169220Y0217194D01*
X0169393Y0217279D01*
X0169569Y0217359D01*
X0169747Y0217436D01*
X0169926Y0217507D01*
X0170107Y0217575D01*
X0170290Y0217638D01*
X0170474Y0217696D01*
X0170660Y0217750D01*
X0170847Y0217799D01*
X0171035Y0217844D01*
X0171224Y0217884D01*
X0171414Y0217919D01*
X0171605Y0217950D01*
X0171796Y0217976D01*
X0171988Y0217997D01*
X0172181Y0218014D01*
X0172374Y0218026D01*
X0172567Y0218033D01*
X0172760Y0218035D01*
X0172953Y0218033D01*
X0173146Y0218026D01*
X0173339Y0218014D01*
X0173532Y0217997D01*
X0173724Y0217976D01*
X0173915Y0217950D01*
X0174106Y0217919D01*
X0174296Y0217884D01*
X0174485Y0217844D01*
X0174673Y0217799D01*
X0174860Y0217750D01*
X0175046Y0217696D01*
X0175230Y0217638D01*
X0175413Y0217575D01*
X0175594Y0217507D01*
X0175773Y0217436D01*
X0175951Y0217359D01*
X0176127Y0217279D01*
X0176300Y0217194D01*
X0176472Y0217105D01*
X0176641Y0217012D01*
X0176808Y0216915D01*
X0176973Y0216813D01*
X0177135Y0216708D01*
X0177294Y0216599D01*
X0177451Y0216485D01*
X0177604Y0216368D01*
X0177755Y0216248D01*
X0177903Y0216123D01*
X0178048Y0215995D01*
X0178189Y0215864D01*
X0178328Y0215729D01*
X0178463Y0215590D01*
X0178594Y0215449D01*
X0178722Y0215304D01*
X0178847Y0215156D01*
X0178967Y0215005D01*
X0179084Y0214852D01*
X0179198Y0214695D01*
X0179307Y0214536D01*
X0179412Y0214374D01*
X0179514Y0214209D01*
X0179611Y0214042D01*
X0179704Y0213873D01*
X0179793Y0213701D01*
X0179878Y0213528D01*
X0179958Y0213352D01*
X0180035Y0213174D01*
X0180106Y0212995D01*
X0180174Y0212814D01*
X0180237Y0212631D01*
X0180295Y0212447D01*
X0180349Y0212261D01*
X0180398Y0212074D01*
X0180443Y0211886D01*
X0180483Y0211697D01*
X0180518Y0211507D01*
X0180549Y0211316D01*
X0180575Y0211125D01*
X0180596Y0210933D01*
X0180613Y0210740D01*
X0180625Y0210547D01*
X0180632Y0210354D01*
X0180634Y0210161D01*
X0180632Y0209968D01*
X0180625Y0209775D01*
X0180613Y0209582D01*
X0180596Y0209389D01*
X0180575Y0209197D01*
X0180549Y0209006D01*
X0180518Y0208815D01*
X0180483Y0208625D01*
X0180443Y0208436D01*
X0180398Y0208248D01*
X0180349Y0208061D01*
X0180295Y0207875D01*
X0180237Y0207691D01*
X0180174Y0207508D01*
X0180106Y0207327D01*
X0180035Y0207148D01*
X0179958Y0206970D01*
X0179878Y0206794D01*
X0179793Y0206621D01*
X0179704Y0206449D01*
X0179611Y0206280D01*
X0179514Y0206113D01*
X0179412Y0205948D01*
X0179307Y0205786D01*
X0179198Y0205627D01*
X0179084Y0205470D01*
X0178967Y0205317D01*
X0178847Y0205166D01*
X0178722Y0205018D01*
X0178594Y0204873D01*
X0178463Y0204732D01*
X0178328Y0204593D01*
X0178189Y0204458D01*
X0178048Y0204327D01*
X0177903Y0204199D01*
X0177755Y0204074D01*
X0177604Y0203954D01*
X0177451Y0203837D01*
X0177294Y0203723D01*
X0177135Y0203614D01*
X0176973Y0203509D01*
X0176808Y0203407D01*
X0176641Y0203310D01*
X0176472Y0203217D01*
X0176300Y0203128D01*
X0176127Y0203043D01*
X0175951Y0202963D01*
X0175773Y0202886D01*
X0175594Y0202815D01*
X0175413Y0202747D01*
X0175230Y0202684D01*
X0175046Y0202626D01*
X0174860Y0202572D01*
X0174673Y0202523D01*
X0174485Y0202478D01*
X0174296Y0202438D01*
X0174106Y0202403D01*
X0173915Y0202372D01*
X0173724Y0202346D01*
X0173532Y0202325D01*
X0173339Y0202308D01*
X0173146Y0202296D01*
X0172953Y0202289D01*
X0172760Y0202287D01*
X0172567Y0202289D01*
X0172374Y0202296D01*
X0172181Y0202308D01*
X0171988Y0202325D01*
X0171796Y0202346D01*
X0171605Y0202372D01*
X0171414Y0202403D01*
X0171224Y0202438D01*
X0171035Y0202478D01*
X0170847Y0202523D01*
X0170660Y0202572D01*
X0170474Y0202626D01*
X0170290Y0202684D01*
X0170107Y0202747D01*
X0169926Y0202815D01*
X0169747Y0202886D01*
X0169569Y0202963D01*
X0169393Y0203043D01*
X0169220Y0203128D01*
X0169048Y0203217D01*
X0168879Y0203310D01*
X0168712Y0203407D01*
X0168547Y0203509D01*
X0168385Y0203614D01*
X0168226Y0203723D01*
X0168069Y0203837D01*
X0167916Y0203954D01*
X0167765Y0204074D01*
X0167617Y0204199D01*
X0167472Y0204327D01*
X0167331Y0204458D01*
X0167192Y0204593D01*
X0167057Y0204732D01*
X0166926Y0204873D01*
X0166798Y0205018D01*
X0166673Y0205166D01*
X0166553Y0205317D01*
X0166436Y0205470D01*
X0166322Y0205627D01*
X0166213Y0205786D01*
X0166108Y0205948D01*
X0166006Y0206113D01*
X0165909Y0206280D01*
X0165816Y0206449D01*
X0165727Y0206621D01*
X0165642Y0206794D01*
X0165562Y0206970D01*
X0165485Y0207148D01*
X0165414Y0207327D01*
X0165346Y0207508D01*
X0165283Y0207691D01*
X0165225Y0207875D01*
X0165171Y0208061D01*
X0165122Y0208248D01*
X0165077Y0208436D01*
X0165037Y0208625D01*
X0165002Y0208815D01*
X0164971Y0209006D01*
X0164945Y0209197D01*
X0164924Y0209389D01*
X0164907Y0209582D01*
X0164895Y0209775D01*
X0164888Y0209968D01*
X0164886Y0210161D01*
X0214098Y0210161D02*
X0214100Y0210354D01*
X0214107Y0210547D01*
X0214119Y0210740D01*
X0214136Y0210933D01*
X0214157Y0211125D01*
X0214183Y0211316D01*
X0214214Y0211507D01*
X0214249Y0211697D01*
X0214289Y0211886D01*
X0214334Y0212074D01*
X0214383Y0212261D01*
X0214437Y0212447D01*
X0214495Y0212631D01*
X0214558Y0212814D01*
X0214626Y0212995D01*
X0214697Y0213174D01*
X0214774Y0213352D01*
X0214854Y0213528D01*
X0214939Y0213701D01*
X0215028Y0213873D01*
X0215121Y0214042D01*
X0215218Y0214209D01*
X0215320Y0214374D01*
X0215425Y0214536D01*
X0215534Y0214695D01*
X0215648Y0214852D01*
X0215765Y0215005D01*
X0215885Y0215156D01*
X0216010Y0215304D01*
X0216138Y0215449D01*
X0216269Y0215590D01*
X0216404Y0215729D01*
X0216543Y0215864D01*
X0216684Y0215995D01*
X0216829Y0216123D01*
X0216977Y0216248D01*
X0217128Y0216368D01*
X0217281Y0216485D01*
X0217438Y0216599D01*
X0217597Y0216708D01*
X0217759Y0216813D01*
X0217924Y0216915D01*
X0218091Y0217012D01*
X0218260Y0217105D01*
X0218432Y0217194D01*
X0218605Y0217279D01*
X0218781Y0217359D01*
X0218959Y0217436D01*
X0219138Y0217507D01*
X0219319Y0217575D01*
X0219502Y0217638D01*
X0219686Y0217696D01*
X0219872Y0217750D01*
X0220059Y0217799D01*
X0220247Y0217844D01*
X0220436Y0217884D01*
X0220626Y0217919D01*
X0220817Y0217950D01*
X0221008Y0217976D01*
X0221200Y0217997D01*
X0221393Y0218014D01*
X0221586Y0218026D01*
X0221779Y0218033D01*
X0221972Y0218035D01*
X0222165Y0218033D01*
X0222358Y0218026D01*
X0222551Y0218014D01*
X0222744Y0217997D01*
X0222936Y0217976D01*
X0223127Y0217950D01*
X0223318Y0217919D01*
X0223508Y0217884D01*
X0223697Y0217844D01*
X0223885Y0217799D01*
X0224072Y0217750D01*
X0224258Y0217696D01*
X0224442Y0217638D01*
X0224625Y0217575D01*
X0224806Y0217507D01*
X0224985Y0217436D01*
X0225163Y0217359D01*
X0225339Y0217279D01*
X0225512Y0217194D01*
X0225684Y0217105D01*
X0225853Y0217012D01*
X0226020Y0216915D01*
X0226185Y0216813D01*
X0226347Y0216708D01*
X0226506Y0216599D01*
X0226663Y0216485D01*
X0226816Y0216368D01*
X0226967Y0216248D01*
X0227115Y0216123D01*
X0227260Y0215995D01*
X0227401Y0215864D01*
X0227540Y0215729D01*
X0227675Y0215590D01*
X0227806Y0215449D01*
X0227934Y0215304D01*
X0228059Y0215156D01*
X0228179Y0215005D01*
X0228296Y0214852D01*
X0228410Y0214695D01*
X0228519Y0214536D01*
X0228624Y0214374D01*
X0228726Y0214209D01*
X0228823Y0214042D01*
X0228916Y0213873D01*
X0229005Y0213701D01*
X0229090Y0213528D01*
X0229170Y0213352D01*
X0229247Y0213174D01*
X0229318Y0212995D01*
X0229386Y0212814D01*
X0229449Y0212631D01*
X0229507Y0212447D01*
X0229561Y0212261D01*
X0229610Y0212074D01*
X0229655Y0211886D01*
X0229695Y0211697D01*
X0229730Y0211507D01*
X0229761Y0211316D01*
X0229787Y0211125D01*
X0229808Y0210933D01*
X0229825Y0210740D01*
X0229837Y0210547D01*
X0229844Y0210354D01*
X0229846Y0210161D01*
X0229844Y0209968D01*
X0229837Y0209775D01*
X0229825Y0209582D01*
X0229808Y0209389D01*
X0229787Y0209197D01*
X0229761Y0209006D01*
X0229730Y0208815D01*
X0229695Y0208625D01*
X0229655Y0208436D01*
X0229610Y0208248D01*
X0229561Y0208061D01*
X0229507Y0207875D01*
X0229449Y0207691D01*
X0229386Y0207508D01*
X0229318Y0207327D01*
X0229247Y0207148D01*
X0229170Y0206970D01*
X0229090Y0206794D01*
X0229005Y0206621D01*
X0228916Y0206449D01*
X0228823Y0206280D01*
X0228726Y0206113D01*
X0228624Y0205948D01*
X0228519Y0205786D01*
X0228410Y0205627D01*
X0228296Y0205470D01*
X0228179Y0205317D01*
X0228059Y0205166D01*
X0227934Y0205018D01*
X0227806Y0204873D01*
X0227675Y0204732D01*
X0227540Y0204593D01*
X0227401Y0204458D01*
X0227260Y0204327D01*
X0227115Y0204199D01*
X0226967Y0204074D01*
X0226816Y0203954D01*
X0226663Y0203837D01*
X0226506Y0203723D01*
X0226347Y0203614D01*
X0226185Y0203509D01*
X0226020Y0203407D01*
X0225853Y0203310D01*
X0225684Y0203217D01*
X0225512Y0203128D01*
X0225339Y0203043D01*
X0225163Y0202963D01*
X0224985Y0202886D01*
X0224806Y0202815D01*
X0224625Y0202747D01*
X0224442Y0202684D01*
X0224258Y0202626D01*
X0224072Y0202572D01*
X0223885Y0202523D01*
X0223697Y0202478D01*
X0223508Y0202438D01*
X0223318Y0202403D01*
X0223127Y0202372D01*
X0222936Y0202346D01*
X0222744Y0202325D01*
X0222551Y0202308D01*
X0222358Y0202296D01*
X0222165Y0202289D01*
X0221972Y0202287D01*
X0221779Y0202289D01*
X0221586Y0202296D01*
X0221393Y0202308D01*
X0221200Y0202325D01*
X0221008Y0202346D01*
X0220817Y0202372D01*
X0220626Y0202403D01*
X0220436Y0202438D01*
X0220247Y0202478D01*
X0220059Y0202523D01*
X0219872Y0202572D01*
X0219686Y0202626D01*
X0219502Y0202684D01*
X0219319Y0202747D01*
X0219138Y0202815D01*
X0218959Y0202886D01*
X0218781Y0202963D01*
X0218605Y0203043D01*
X0218432Y0203128D01*
X0218260Y0203217D01*
X0218091Y0203310D01*
X0217924Y0203407D01*
X0217759Y0203509D01*
X0217597Y0203614D01*
X0217438Y0203723D01*
X0217281Y0203837D01*
X0217128Y0203954D01*
X0216977Y0204074D01*
X0216829Y0204199D01*
X0216684Y0204327D01*
X0216543Y0204458D01*
X0216404Y0204593D01*
X0216269Y0204732D01*
X0216138Y0204873D01*
X0216010Y0205018D01*
X0215885Y0205166D01*
X0215765Y0205317D01*
X0215648Y0205470D01*
X0215534Y0205627D01*
X0215425Y0205786D01*
X0215320Y0205948D01*
X0215218Y0206113D01*
X0215121Y0206280D01*
X0215028Y0206449D01*
X0214939Y0206621D01*
X0214854Y0206794D01*
X0214774Y0206970D01*
X0214697Y0207148D01*
X0214626Y0207327D01*
X0214558Y0207508D01*
X0214495Y0207691D01*
X0214437Y0207875D01*
X0214383Y0208061D01*
X0214334Y0208248D01*
X0214289Y0208436D01*
X0214249Y0208625D01*
X0214214Y0208815D01*
X0214183Y0209006D01*
X0214157Y0209197D01*
X0214136Y0209389D01*
X0214119Y0209582D01*
X0214107Y0209775D01*
X0214100Y0209968D01*
X0214098Y0210161D01*
X0263311Y0210161D02*
X0263313Y0210354D01*
X0263320Y0210547D01*
X0263332Y0210740D01*
X0263349Y0210933D01*
X0263370Y0211125D01*
X0263396Y0211316D01*
X0263427Y0211507D01*
X0263462Y0211697D01*
X0263502Y0211886D01*
X0263547Y0212074D01*
X0263596Y0212261D01*
X0263650Y0212447D01*
X0263708Y0212631D01*
X0263771Y0212814D01*
X0263839Y0212995D01*
X0263910Y0213174D01*
X0263987Y0213352D01*
X0264067Y0213528D01*
X0264152Y0213701D01*
X0264241Y0213873D01*
X0264334Y0214042D01*
X0264431Y0214209D01*
X0264533Y0214374D01*
X0264638Y0214536D01*
X0264747Y0214695D01*
X0264861Y0214852D01*
X0264978Y0215005D01*
X0265098Y0215156D01*
X0265223Y0215304D01*
X0265351Y0215449D01*
X0265482Y0215590D01*
X0265617Y0215729D01*
X0265756Y0215864D01*
X0265897Y0215995D01*
X0266042Y0216123D01*
X0266190Y0216248D01*
X0266341Y0216368D01*
X0266494Y0216485D01*
X0266651Y0216599D01*
X0266810Y0216708D01*
X0266972Y0216813D01*
X0267137Y0216915D01*
X0267304Y0217012D01*
X0267473Y0217105D01*
X0267645Y0217194D01*
X0267818Y0217279D01*
X0267994Y0217359D01*
X0268172Y0217436D01*
X0268351Y0217507D01*
X0268532Y0217575D01*
X0268715Y0217638D01*
X0268899Y0217696D01*
X0269085Y0217750D01*
X0269272Y0217799D01*
X0269460Y0217844D01*
X0269649Y0217884D01*
X0269839Y0217919D01*
X0270030Y0217950D01*
X0270221Y0217976D01*
X0270413Y0217997D01*
X0270606Y0218014D01*
X0270799Y0218026D01*
X0270992Y0218033D01*
X0271185Y0218035D01*
X0271378Y0218033D01*
X0271571Y0218026D01*
X0271764Y0218014D01*
X0271957Y0217997D01*
X0272149Y0217976D01*
X0272340Y0217950D01*
X0272531Y0217919D01*
X0272721Y0217884D01*
X0272910Y0217844D01*
X0273098Y0217799D01*
X0273285Y0217750D01*
X0273471Y0217696D01*
X0273655Y0217638D01*
X0273838Y0217575D01*
X0274019Y0217507D01*
X0274198Y0217436D01*
X0274376Y0217359D01*
X0274552Y0217279D01*
X0274725Y0217194D01*
X0274897Y0217105D01*
X0275066Y0217012D01*
X0275233Y0216915D01*
X0275398Y0216813D01*
X0275560Y0216708D01*
X0275719Y0216599D01*
X0275876Y0216485D01*
X0276029Y0216368D01*
X0276180Y0216248D01*
X0276328Y0216123D01*
X0276473Y0215995D01*
X0276614Y0215864D01*
X0276753Y0215729D01*
X0276888Y0215590D01*
X0277019Y0215449D01*
X0277147Y0215304D01*
X0277272Y0215156D01*
X0277392Y0215005D01*
X0277509Y0214852D01*
X0277623Y0214695D01*
X0277732Y0214536D01*
X0277837Y0214374D01*
X0277939Y0214209D01*
X0278036Y0214042D01*
X0278129Y0213873D01*
X0278218Y0213701D01*
X0278303Y0213528D01*
X0278383Y0213352D01*
X0278460Y0213174D01*
X0278531Y0212995D01*
X0278599Y0212814D01*
X0278662Y0212631D01*
X0278720Y0212447D01*
X0278774Y0212261D01*
X0278823Y0212074D01*
X0278868Y0211886D01*
X0278908Y0211697D01*
X0278943Y0211507D01*
X0278974Y0211316D01*
X0279000Y0211125D01*
X0279021Y0210933D01*
X0279038Y0210740D01*
X0279050Y0210547D01*
X0279057Y0210354D01*
X0279059Y0210161D01*
X0279057Y0209968D01*
X0279050Y0209775D01*
X0279038Y0209582D01*
X0279021Y0209389D01*
X0279000Y0209197D01*
X0278974Y0209006D01*
X0278943Y0208815D01*
X0278908Y0208625D01*
X0278868Y0208436D01*
X0278823Y0208248D01*
X0278774Y0208061D01*
X0278720Y0207875D01*
X0278662Y0207691D01*
X0278599Y0207508D01*
X0278531Y0207327D01*
X0278460Y0207148D01*
X0278383Y0206970D01*
X0278303Y0206794D01*
X0278218Y0206621D01*
X0278129Y0206449D01*
X0278036Y0206280D01*
X0277939Y0206113D01*
X0277837Y0205948D01*
X0277732Y0205786D01*
X0277623Y0205627D01*
X0277509Y0205470D01*
X0277392Y0205317D01*
X0277272Y0205166D01*
X0277147Y0205018D01*
X0277019Y0204873D01*
X0276888Y0204732D01*
X0276753Y0204593D01*
X0276614Y0204458D01*
X0276473Y0204327D01*
X0276328Y0204199D01*
X0276180Y0204074D01*
X0276029Y0203954D01*
X0275876Y0203837D01*
X0275719Y0203723D01*
X0275560Y0203614D01*
X0275398Y0203509D01*
X0275233Y0203407D01*
X0275066Y0203310D01*
X0274897Y0203217D01*
X0274725Y0203128D01*
X0274552Y0203043D01*
X0274376Y0202963D01*
X0274198Y0202886D01*
X0274019Y0202815D01*
X0273838Y0202747D01*
X0273655Y0202684D01*
X0273471Y0202626D01*
X0273285Y0202572D01*
X0273098Y0202523D01*
X0272910Y0202478D01*
X0272721Y0202438D01*
X0272531Y0202403D01*
X0272340Y0202372D01*
X0272149Y0202346D01*
X0271957Y0202325D01*
X0271764Y0202308D01*
X0271571Y0202296D01*
X0271378Y0202289D01*
X0271185Y0202287D01*
X0270992Y0202289D01*
X0270799Y0202296D01*
X0270606Y0202308D01*
X0270413Y0202325D01*
X0270221Y0202346D01*
X0270030Y0202372D01*
X0269839Y0202403D01*
X0269649Y0202438D01*
X0269460Y0202478D01*
X0269272Y0202523D01*
X0269085Y0202572D01*
X0268899Y0202626D01*
X0268715Y0202684D01*
X0268532Y0202747D01*
X0268351Y0202815D01*
X0268172Y0202886D01*
X0267994Y0202963D01*
X0267818Y0203043D01*
X0267645Y0203128D01*
X0267473Y0203217D01*
X0267304Y0203310D01*
X0267137Y0203407D01*
X0266972Y0203509D01*
X0266810Y0203614D01*
X0266651Y0203723D01*
X0266494Y0203837D01*
X0266341Y0203954D01*
X0266190Y0204074D01*
X0266042Y0204199D01*
X0265897Y0204327D01*
X0265756Y0204458D01*
X0265617Y0204593D01*
X0265482Y0204732D01*
X0265351Y0204873D01*
X0265223Y0205018D01*
X0265098Y0205166D01*
X0264978Y0205317D01*
X0264861Y0205470D01*
X0264747Y0205627D01*
X0264638Y0205786D01*
X0264533Y0205948D01*
X0264431Y0206113D01*
X0264334Y0206280D01*
X0264241Y0206449D01*
X0264152Y0206621D01*
X0264067Y0206794D01*
X0263987Y0206970D01*
X0263910Y0207148D01*
X0263839Y0207327D01*
X0263771Y0207508D01*
X0263708Y0207691D01*
X0263650Y0207875D01*
X0263596Y0208061D01*
X0263547Y0208248D01*
X0263502Y0208436D01*
X0263462Y0208625D01*
X0263427Y0208815D01*
X0263396Y0209006D01*
X0263370Y0209197D01*
X0263349Y0209389D01*
X0263332Y0209582D01*
X0263320Y0209775D01*
X0263313Y0209968D01*
X0263311Y0210161D01*
X0312524Y0210161D02*
X0312526Y0210354D01*
X0312533Y0210547D01*
X0312545Y0210740D01*
X0312562Y0210933D01*
X0312583Y0211125D01*
X0312609Y0211316D01*
X0312640Y0211507D01*
X0312675Y0211697D01*
X0312715Y0211886D01*
X0312760Y0212074D01*
X0312809Y0212261D01*
X0312863Y0212447D01*
X0312921Y0212631D01*
X0312984Y0212814D01*
X0313052Y0212995D01*
X0313123Y0213174D01*
X0313200Y0213352D01*
X0313280Y0213528D01*
X0313365Y0213701D01*
X0313454Y0213873D01*
X0313547Y0214042D01*
X0313644Y0214209D01*
X0313746Y0214374D01*
X0313851Y0214536D01*
X0313960Y0214695D01*
X0314074Y0214852D01*
X0314191Y0215005D01*
X0314311Y0215156D01*
X0314436Y0215304D01*
X0314564Y0215449D01*
X0314695Y0215590D01*
X0314830Y0215729D01*
X0314969Y0215864D01*
X0315110Y0215995D01*
X0315255Y0216123D01*
X0315403Y0216248D01*
X0315554Y0216368D01*
X0315707Y0216485D01*
X0315864Y0216599D01*
X0316023Y0216708D01*
X0316185Y0216813D01*
X0316350Y0216915D01*
X0316517Y0217012D01*
X0316686Y0217105D01*
X0316858Y0217194D01*
X0317031Y0217279D01*
X0317207Y0217359D01*
X0317385Y0217436D01*
X0317564Y0217507D01*
X0317745Y0217575D01*
X0317928Y0217638D01*
X0318112Y0217696D01*
X0318298Y0217750D01*
X0318485Y0217799D01*
X0318673Y0217844D01*
X0318862Y0217884D01*
X0319052Y0217919D01*
X0319243Y0217950D01*
X0319434Y0217976D01*
X0319626Y0217997D01*
X0319819Y0218014D01*
X0320012Y0218026D01*
X0320205Y0218033D01*
X0320398Y0218035D01*
X0320591Y0218033D01*
X0320784Y0218026D01*
X0320977Y0218014D01*
X0321170Y0217997D01*
X0321362Y0217976D01*
X0321553Y0217950D01*
X0321744Y0217919D01*
X0321934Y0217884D01*
X0322123Y0217844D01*
X0322311Y0217799D01*
X0322498Y0217750D01*
X0322684Y0217696D01*
X0322868Y0217638D01*
X0323051Y0217575D01*
X0323232Y0217507D01*
X0323411Y0217436D01*
X0323589Y0217359D01*
X0323765Y0217279D01*
X0323938Y0217194D01*
X0324110Y0217105D01*
X0324279Y0217012D01*
X0324446Y0216915D01*
X0324611Y0216813D01*
X0324773Y0216708D01*
X0324932Y0216599D01*
X0325089Y0216485D01*
X0325242Y0216368D01*
X0325393Y0216248D01*
X0325541Y0216123D01*
X0325686Y0215995D01*
X0325827Y0215864D01*
X0325966Y0215729D01*
X0326101Y0215590D01*
X0326232Y0215449D01*
X0326360Y0215304D01*
X0326485Y0215156D01*
X0326605Y0215005D01*
X0326722Y0214852D01*
X0326836Y0214695D01*
X0326945Y0214536D01*
X0327050Y0214374D01*
X0327152Y0214209D01*
X0327249Y0214042D01*
X0327342Y0213873D01*
X0327431Y0213701D01*
X0327516Y0213528D01*
X0327596Y0213352D01*
X0327673Y0213174D01*
X0327744Y0212995D01*
X0327812Y0212814D01*
X0327875Y0212631D01*
X0327933Y0212447D01*
X0327987Y0212261D01*
X0328036Y0212074D01*
X0328081Y0211886D01*
X0328121Y0211697D01*
X0328156Y0211507D01*
X0328187Y0211316D01*
X0328213Y0211125D01*
X0328234Y0210933D01*
X0328251Y0210740D01*
X0328263Y0210547D01*
X0328270Y0210354D01*
X0328272Y0210161D01*
X0328270Y0209968D01*
X0328263Y0209775D01*
X0328251Y0209582D01*
X0328234Y0209389D01*
X0328213Y0209197D01*
X0328187Y0209006D01*
X0328156Y0208815D01*
X0328121Y0208625D01*
X0328081Y0208436D01*
X0328036Y0208248D01*
X0327987Y0208061D01*
X0327933Y0207875D01*
X0327875Y0207691D01*
X0327812Y0207508D01*
X0327744Y0207327D01*
X0327673Y0207148D01*
X0327596Y0206970D01*
X0327516Y0206794D01*
X0327431Y0206621D01*
X0327342Y0206449D01*
X0327249Y0206280D01*
X0327152Y0206113D01*
X0327050Y0205948D01*
X0326945Y0205786D01*
X0326836Y0205627D01*
X0326722Y0205470D01*
X0326605Y0205317D01*
X0326485Y0205166D01*
X0326360Y0205018D01*
X0326232Y0204873D01*
X0326101Y0204732D01*
X0325966Y0204593D01*
X0325827Y0204458D01*
X0325686Y0204327D01*
X0325541Y0204199D01*
X0325393Y0204074D01*
X0325242Y0203954D01*
X0325089Y0203837D01*
X0324932Y0203723D01*
X0324773Y0203614D01*
X0324611Y0203509D01*
X0324446Y0203407D01*
X0324279Y0203310D01*
X0324110Y0203217D01*
X0323938Y0203128D01*
X0323765Y0203043D01*
X0323589Y0202963D01*
X0323411Y0202886D01*
X0323232Y0202815D01*
X0323051Y0202747D01*
X0322868Y0202684D01*
X0322684Y0202626D01*
X0322498Y0202572D01*
X0322311Y0202523D01*
X0322123Y0202478D01*
X0321934Y0202438D01*
X0321744Y0202403D01*
X0321553Y0202372D01*
X0321362Y0202346D01*
X0321170Y0202325D01*
X0320977Y0202308D01*
X0320784Y0202296D01*
X0320591Y0202289D01*
X0320398Y0202287D01*
X0320205Y0202289D01*
X0320012Y0202296D01*
X0319819Y0202308D01*
X0319626Y0202325D01*
X0319434Y0202346D01*
X0319243Y0202372D01*
X0319052Y0202403D01*
X0318862Y0202438D01*
X0318673Y0202478D01*
X0318485Y0202523D01*
X0318298Y0202572D01*
X0318112Y0202626D01*
X0317928Y0202684D01*
X0317745Y0202747D01*
X0317564Y0202815D01*
X0317385Y0202886D01*
X0317207Y0202963D01*
X0317031Y0203043D01*
X0316858Y0203128D01*
X0316686Y0203217D01*
X0316517Y0203310D01*
X0316350Y0203407D01*
X0316185Y0203509D01*
X0316023Y0203614D01*
X0315864Y0203723D01*
X0315707Y0203837D01*
X0315554Y0203954D01*
X0315403Y0204074D01*
X0315255Y0204199D01*
X0315110Y0204327D01*
X0314969Y0204458D01*
X0314830Y0204593D01*
X0314695Y0204732D01*
X0314564Y0204873D01*
X0314436Y0205018D01*
X0314311Y0205166D01*
X0314191Y0205317D01*
X0314074Y0205470D01*
X0313960Y0205627D01*
X0313851Y0205786D01*
X0313746Y0205948D01*
X0313644Y0206113D01*
X0313547Y0206280D01*
X0313454Y0206449D01*
X0313365Y0206621D01*
X0313280Y0206794D01*
X0313200Y0206970D01*
X0313123Y0207148D01*
X0313052Y0207327D01*
X0312984Y0207508D01*
X0312921Y0207691D01*
X0312863Y0207875D01*
X0312809Y0208061D01*
X0312760Y0208248D01*
X0312715Y0208436D01*
X0312675Y0208625D01*
X0312640Y0208815D01*
X0312609Y0209006D01*
X0312583Y0209197D01*
X0312562Y0209389D01*
X0312545Y0209582D01*
X0312533Y0209775D01*
X0312526Y0209968D01*
X0312524Y0210161D01*
X0361736Y0210161D02*
X0361738Y0210354D01*
X0361745Y0210547D01*
X0361757Y0210740D01*
X0361774Y0210933D01*
X0361795Y0211125D01*
X0361821Y0211316D01*
X0361852Y0211507D01*
X0361887Y0211697D01*
X0361927Y0211886D01*
X0361972Y0212074D01*
X0362021Y0212261D01*
X0362075Y0212447D01*
X0362133Y0212631D01*
X0362196Y0212814D01*
X0362264Y0212995D01*
X0362335Y0213174D01*
X0362412Y0213352D01*
X0362492Y0213528D01*
X0362577Y0213701D01*
X0362666Y0213873D01*
X0362759Y0214042D01*
X0362856Y0214209D01*
X0362958Y0214374D01*
X0363063Y0214536D01*
X0363172Y0214695D01*
X0363286Y0214852D01*
X0363403Y0215005D01*
X0363523Y0215156D01*
X0363648Y0215304D01*
X0363776Y0215449D01*
X0363907Y0215590D01*
X0364042Y0215729D01*
X0364181Y0215864D01*
X0364322Y0215995D01*
X0364467Y0216123D01*
X0364615Y0216248D01*
X0364766Y0216368D01*
X0364919Y0216485D01*
X0365076Y0216599D01*
X0365235Y0216708D01*
X0365397Y0216813D01*
X0365562Y0216915D01*
X0365729Y0217012D01*
X0365898Y0217105D01*
X0366070Y0217194D01*
X0366243Y0217279D01*
X0366419Y0217359D01*
X0366597Y0217436D01*
X0366776Y0217507D01*
X0366957Y0217575D01*
X0367140Y0217638D01*
X0367324Y0217696D01*
X0367510Y0217750D01*
X0367697Y0217799D01*
X0367885Y0217844D01*
X0368074Y0217884D01*
X0368264Y0217919D01*
X0368455Y0217950D01*
X0368646Y0217976D01*
X0368838Y0217997D01*
X0369031Y0218014D01*
X0369224Y0218026D01*
X0369417Y0218033D01*
X0369610Y0218035D01*
X0369803Y0218033D01*
X0369996Y0218026D01*
X0370189Y0218014D01*
X0370382Y0217997D01*
X0370574Y0217976D01*
X0370765Y0217950D01*
X0370956Y0217919D01*
X0371146Y0217884D01*
X0371335Y0217844D01*
X0371523Y0217799D01*
X0371710Y0217750D01*
X0371896Y0217696D01*
X0372080Y0217638D01*
X0372263Y0217575D01*
X0372444Y0217507D01*
X0372623Y0217436D01*
X0372801Y0217359D01*
X0372977Y0217279D01*
X0373150Y0217194D01*
X0373322Y0217105D01*
X0373491Y0217012D01*
X0373658Y0216915D01*
X0373823Y0216813D01*
X0373985Y0216708D01*
X0374144Y0216599D01*
X0374301Y0216485D01*
X0374454Y0216368D01*
X0374605Y0216248D01*
X0374753Y0216123D01*
X0374898Y0215995D01*
X0375039Y0215864D01*
X0375178Y0215729D01*
X0375313Y0215590D01*
X0375444Y0215449D01*
X0375572Y0215304D01*
X0375697Y0215156D01*
X0375817Y0215005D01*
X0375934Y0214852D01*
X0376048Y0214695D01*
X0376157Y0214536D01*
X0376262Y0214374D01*
X0376364Y0214209D01*
X0376461Y0214042D01*
X0376554Y0213873D01*
X0376643Y0213701D01*
X0376728Y0213528D01*
X0376808Y0213352D01*
X0376885Y0213174D01*
X0376956Y0212995D01*
X0377024Y0212814D01*
X0377087Y0212631D01*
X0377145Y0212447D01*
X0377199Y0212261D01*
X0377248Y0212074D01*
X0377293Y0211886D01*
X0377333Y0211697D01*
X0377368Y0211507D01*
X0377399Y0211316D01*
X0377425Y0211125D01*
X0377446Y0210933D01*
X0377463Y0210740D01*
X0377475Y0210547D01*
X0377482Y0210354D01*
X0377484Y0210161D01*
X0377482Y0209968D01*
X0377475Y0209775D01*
X0377463Y0209582D01*
X0377446Y0209389D01*
X0377425Y0209197D01*
X0377399Y0209006D01*
X0377368Y0208815D01*
X0377333Y0208625D01*
X0377293Y0208436D01*
X0377248Y0208248D01*
X0377199Y0208061D01*
X0377145Y0207875D01*
X0377087Y0207691D01*
X0377024Y0207508D01*
X0376956Y0207327D01*
X0376885Y0207148D01*
X0376808Y0206970D01*
X0376728Y0206794D01*
X0376643Y0206621D01*
X0376554Y0206449D01*
X0376461Y0206280D01*
X0376364Y0206113D01*
X0376262Y0205948D01*
X0376157Y0205786D01*
X0376048Y0205627D01*
X0375934Y0205470D01*
X0375817Y0205317D01*
X0375697Y0205166D01*
X0375572Y0205018D01*
X0375444Y0204873D01*
X0375313Y0204732D01*
X0375178Y0204593D01*
X0375039Y0204458D01*
X0374898Y0204327D01*
X0374753Y0204199D01*
X0374605Y0204074D01*
X0374454Y0203954D01*
X0374301Y0203837D01*
X0374144Y0203723D01*
X0373985Y0203614D01*
X0373823Y0203509D01*
X0373658Y0203407D01*
X0373491Y0203310D01*
X0373322Y0203217D01*
X0373150Y0203128D01*
X0372977Y0203043D01*
X0372801Y0202963D01*
X0372623Y0202886D01*
X0372444Y0202815D01*
X0372263Y0202747D01*
X0372080Y0202684D01*
X0371896Y0202626D01*
X0371710Y0202572D01*
X0371523Y0202523D01*
X0371335Y0202478D01*
X0371146Y0202438D01*
X0370956Y0202403D01*
X0370765Y0202372D01*
X0370574Y0202346D01*
X0370382Y0202325D01*
X0370189Y0202308D01*
X0369996Y0202296D01*
X0369803Y0202289D01*
X0369610Y0202287D01*
X0369417Y0202289D01*
X0369224Y0202296D01*
X0369031Y0202308D01*
X0368838Y0202325D01*
X0368646Y0202346D01*
X0368455Y0202372D01*
X0368264Y0202403D01*
X0368074Y0202438D01*
X0367885Y0202478D01*
X0367697Y0202523D01*
X0367510Y0202572D01*
X0367324Y0202626D01*
X0367140Y0202684D01*
X0366957Y0202747D01*
X0366776Y0202815D01*
X0366597Y0202886D01*
X0366419Y0202963D01*
X0366243Y0203043D01*
X0366070Y0203128D01*
X0365898Y0203217D01*
X0365729Y0203310D01*
X0365562Y0203407D01*
X0365397Y0203509D01*
X0365235Y0203614D01*
X0365076Y0203723D01*
X0364919Y0203837D01*
X0364766Y0203954D01*
X0364615Y0204074D01*
X0364467Y0204199D01*
X0364322Y0204327D01*
X0364181Y0204458D01*
X0364042Y0204593D01*
X0363907Y0204732D01*
X0363776Y0204873D01*
X0363648Y0205018D01*
X0363523Y0205166D01*
X0363403Y0205317D01*
X0363286Y0205470D01*
X0363172Y0205627D01*
X0363063Y0205786D01*
X0362958Y0205948D01*
X0362856Y0206113D01*
X0362759Y0206280D01*
X0362666Y0206449D01*
X0362577Y0206621D01*
X0362492Y0206794D01*
X0362412Y0206970D01*
X0362335Y0207148D01*
X0362264Y0207327D01*
X0362196Y0207508D01*
X0362133Y0207691D01*
X0362075Y0207875D01*
X0362021Y0208061D01*
X0361972Y0208248D01*
X0361927Y0208436D01*
X0361887Y0208625D01*
X0361852Y0208815D01*
X0361821Y0209006D01*
X0361795Y0209197D01*
X0361774Y0209389D01*
X0361757Y0209582D01*
X0361745Y0209775D01*
X0361738Y0209968D01*
X0361736Y0210161D01*
M02*
