G75*
%MOMM*%
%OFA0B0*%
%FSLAX33Y33*%
%IPPOS*%
%LPD*%
%AMOC8*
5,1,8,0,0,1.08239X$1,22.5*
%
%ADD10R,1.200X0.350*%
%ADD11C,1.321*%
%ADD12OC8,1.600*%
%ADD13OC8,1.321*%
%ADD14C,1.981*%
%ADD15OC8,1.524*%
%ADD16C,1.524*%
%ADD17OC8,1.905*%
%ADD18C,1.321*%
%ADD19C,0.305*%
%ADD20C,0.610*%
%ADD21C,1.006*%
%ADD22C,0.500*%
D10*
X41372Y24402D03*
X41372Y25052D03*
X41372Y25702D03*
X41372Y26352D03*
X41372Y27002D03*
X41372Y27652D03*
X41372Y28302D03*
X41372Y28952D03*
X41372Y29602D03*
X41372Y30252D03*
X41372Y30902D03*
X41372Y31552D03*
X41372Y32202D03*
X41372Y32852D03*
X47322Y32852D03*
X47322Y32202D03*
X47322Y31552D03*
X47322Y30902D03*
X47322Y30252D03*
X47322Y29602D03*
X47322Y28952D03*
X47322Y28302D03*
X47322Y27652D03*
X47322Y27002D03*
X47322Y26352D03*
X47322Y25702D03*
X47322Y25052D03*
X47322Y24402D03*
D11*
X20628Y12337D02*
X19307Y12337D01*
X19307Y14877D02*
X20628Y14877D01*
X20628Y17417D02*
X19307Y17417D01*
X19307Y19957D02*
X20628Y19957D01*
X20628Y22497D02*
X19307Y22497D01*
X19307Y25037D02*
X20628Y25037D01*
X20628Y27577D02*
X19307Y27577D01*
X26927Y27577D02*
X28248Y27577D01*
X28248Y25037D02*
X26927Y25037D01*
X26927Y22497D02*
X28248Y22497D01*
X28248Y19957D02*
X26927Y19957D01*
X26927Y17417D02*
X28248Y17417D01*
X28248Y14877D02*
X26927Y14877D01*
X26927Y12337D02*
X28248Y12337D01*
D12*
X47397Y19897D03*
X52477Y19897D03*
X65197Y20077D03*
X70277Y20077D03*
X75117Y20097D03*
X75177Y15177D03*
X70317Y15157D03*
X65237Y15157D03*
X65367Y10127D03*
X70447Y10127D03*
X75177Y10097D03*
X75117Y25177D03*
X70217Y25197D03*
X65137Y25197D03*
X65097Y31737D03*
X70177Y31737D03*
X75157Y31817D03*
X75157Y36897D03*
X70127Y36887D03*
X65047Y36887D03*
X64997Y41857D03*
X70077Y41857D03*
X75137Y41897D03*
X75137Y46977D03*
X70017Y46917D03*
X64937Y46917D03*
X51597Y34677D03*
X51597Y29597D03*
X35837Y28337D03*
X35837Y33417D03*
X27587Y49207D03*
X27587Y54287D03*
X03937Y54247D03*
X03937Y49167D03*
D13*
X21657Y51683D03*
X45807Y51683D03*
X29807Y33483D03*
X15547Y27567D03*
X15547Y19947D03*
X49483Y14157D03*
X57457Y27531D03*
X80097Y25157D03*
X80097Y20137D03*
X80167Y15167D03*
X80117Y10037D03*
X87737Y10037D03*
X87787Y15167D03*
X87717Y20137D03*
X87717Y25157D03*
X87717Y31877D03*
X80097Y31877D03*
X80097Y36897D03*
X80097Y41917D03*
X80097Y46937D03*
X87717Y46937D03*
X87717Y41917D03*
X87717Y36897D03*
D14*
X91867Y36898D02*
X93848Y36898D01*
X93848Y41876D02*
X91867Y41876D01*
X91867Y46906D02*
X93848Y46906D01*
X93848Y31869D02*
X91867Y31869D01*
X91867Y25076D02*
X93848Y25076D01*
X93848Y20046D02*
X91867Y20046D01*
X91867Y15068D02*
X93848Y15068D01*
X93848Y10039D02*
X91867Y10039D01*
D15*
X08077Y20947D03*
X05537Y20947D03*
X05537Y23487D03*
X05537Y26027D03*
X08077Y26027D03*
X08077Y23487D03*
X08077Y28567D03*
X05537Y28567D03*
D16*
X09487Y48915D02*
X09487Y50439D01*
X12027Y50439D02*
X12027Y48915D01*
X14567Y48915D02*
X14567Y50439D01*
X33487Y50439D02*
X33487Y48915D01*
X36027Y48915D02*
X36027Y50439D01*
X38567Y50439D02*
X38567Y48915D01*
D17*
X27692Y43047D03*
X23882Y43047D03*
X20072Y43047D03*
D18*
X21657Y49651D03*
X45807Y49651D03*
X29807Y31451D03*
X47451Y14157D03*
X57457Y29563D03*
D19*
X57457Y29557D01*
X51597Y29557D01*
X51597Y29597D01*
X51597Y29557D02*
X47422Y29557D01*
X47322Y29602D01*
X47322Y30252D02*
X46262Y30252D01*
X46235Y30254D01*
X46209Y30259D01*
X46184Y30268D01*
X46160Y30279D01*
X46137Y30294D01*
X46117Y30312D01*
X46099Y30332D01*
X46084Y30355D01*
X46073Y30379D01*
X46064Y30404D01*
X46059Y30430D01*
X46057Y30457D01*
X46057Y34357D01*
X46059Y34391D01*
X46065Y34424D01*
X46074Y34456D01*
X46087Y34487D01*
X46103Y34517D01*
X46122Y34544D01*
X46145Y34569D01*
X46170Y34592D01*
X46197Y34611D01*
X46227Y34627D01*
X46258Y34640D01*
X46290Y34649D01*
X46323Y34655D01*
X46357Y34657D01*
X51557Y34657D01*
X51559Y34665D01*
X51563Y34671D01*
X51569Y34675D01*
X51577Y34677D01*
X51597Y34677D01*
X52652Y32852D02*
X52713Y32854D01*
X52773Y32859D01*
X52833Y32868D01*
X52893Y32881D01*
X52951Y32898D01*
X53008Y32917D01*
X53064Y32941D01*
X53119Y32967D01*
X53172Y32997D01*
X53223Y33030D01*
X53272Y33066D01*
X53318Y33105D01*
X53363Y33146D01*
X53404Y33191D01*
X53443Y33237D01*
X53479Y33286D01*
X53512Y33337D01*
X53542Y33390D01*
X53568Y33445D01*
X53592Y33501D01*
X53611Y33558D01*
X53628Y33616D01*
X53641Y33676D01*
X53650Y33736D01*
X53655Y33796D01*
X53657Y33857D01*
X53657Y38057D01*
X53659Y38104D01*
X53664Y38151D01*
X53674Y38197D01*
X53686Y38242D01*
X53703Y38287D01*
X53722Y38329D01*
X53745Y38370D01*
X53772Y38410D01*
X53801Y38447D01*
X53833Y38481D01*
X53867Y38513D01*
X53904Y38542D01*
X53944Y38569D01*
X53985Y38592D01*
X54027Y38611D01*
X54072Y38628D01*
X54117Y38640D01*
X54163Y38650D01*
X54210Y38655D01*
X54257Y38657D01*
X69457Y38657D01*
X69507Y38655D01*
X69557Y38650D01*
X69606Y38641D01*
X69654Y38629D01*
X69702Y38613D01*
X69748Y38594D01*
X69792Y38571D01*
X69835Y38546D01*
X69876Y38517D01*
X69915Y38486D01*
X69952Y38452D01*
X69986Y38415D01*
X70017Y38376D01*
X70046Y38335D01*
X70071Y38292D01*
X70094Y38248D01*
X70113Y38202D01*
X70129Y38154D01*
X70141Y38106D01*
X70150Y38057D01*
X70155Y38007D01*
X70157Y37957D01*
X70157Y36857D01*
X70148Y36858D01*
X70139Y36863D01*
X70133Y36869D01*
X70128Y36878D01*
X70127Y36887D01*
X68857Y34157D02*
X55157Y34157D01*
X55110Y34155D01*
X55063Y34150D01*
X55017Y34140D01*
X54972Y34128D01*
X54927Y34111D01*
X54885Y34092D01*
X54844Y34069D01*
X54804Y34042D01*
X54767Y34013D01*
X54733Y33981D01*
X54701Y33947D01*
X54672Y33910D01*
X54645Y33870D01*
X54622Y33829D01*
X54603Y33787D01*
X54586Y33742D01*
X54574Y33697D01*
X54564Y33651D01*
X54559Y33604D01*
X54557Y33557D01*
X54557Y33257D01*
X54555Y33193D01*
X54549Y33130D01*
X54540Y33067D01*
X54526Y33005D01*
X54509Y32943D01*
X54488Y32883D01*
X54464Y32824D01*
X54436Y32767D01*
X54405Y32711D01*
X54370Y32658D01*
X54332Y32606D01*
X54292Y32557D01*
X54248Y32511D01*
X54202Y32467D01*
X54153Y32427D01*
X54101Y32389D01*
X54048Y32354D01*
X53992Y32323D01*
X53935Y32295D01*
X53876Y32271D01*
X53816Y32250D01*
X53754Y32233D01*
X53692Y32219D01*
X53629Y32210D01*
X53566Y32204D01*
X53502Y32202D01*
X47322Y32202D01*
X47322Y31552D02*
X60562Y31552D01*
X60601Y31550D01*
X60639Y31544D01*
X60677Y31535D01*
X60713Y31522D01*
X60748Y31505D01*
X60781Y31485D01*
X60813Y31462D01*
X60841Y31436D01*
X60867Y31408D01*
X60890Y31376D01*
X60910Y31343D01*
X60927Y31308D01*
X60940Y31272D01*
X60949Y31234D01*
X60955Y31196D01*
X60957Y31157D01*
X60957Y18357D01*
X60959Y18298D01*
X60965Y18240D01*
X60974Y18181D01*
X60988Y18124D01*
X61005Y18068D01*
X61026Y18013D01*
X61050Y17959D01*
X61078Y17907D01*
X61109Y17857D01*
X61143Y17809D01*
X61180Y17764D01*
X61221Y17721D01*
X61264Y17680D01*
X61309Y17643D01*
X61357Y17609D01*
X61407Y17578D01*
X61459Y17550D01*
X61513Y17526D01*
X61568Y17505D01*
X61624Y17488D01*
X61681Y17474D01*
X61740Y17465D01*
X61798Y17459D01*
X61857Y17457D01*
X69957Y17457D01*
X69991Y17455D01*
X70024Y17449D01*
X70056Y17440D01*
X70087Y17427D01*
X70117Y17411D01*
X70144Y17392D01*
X70169Y17369D01*
X70192Y17344D01*
X70211Y17317D01*
X70227Y17287D01*
X70240Y17256D01*
X70249Y17224D01*
X70255Y17191D01*
X70257Y17157D01*
X70257Y15157D01*
X70317Y15157D02*
X70317Y15097D01*
X70318Y15087D01*
X70322Y15077D01*
X70329Y15069D01*
X70337Y15062D01*
X70347Y15058D01*
X70357Y15057D01*
X70340Y15059D01*
X70323Y15063D01*
X70307Y15070D01*
X70293Y15080D01*
X70280Y15093D01*
X70270Y15107D01*
X70263Y15123D01*
X70259Y15140D01*
X70257Y15157D01*
X69457Y12657D02*
X60757Y12657D01*
X60690Y12659D01*
X60623Y12665D01*
X60556Y12674D01*
X60490Y12687D01*
X60425Y12704D01*
X60361Y12724D01*
X60298Y12748D01*
X60236Y12776D01*
X60177Y12807D01*
X60119Y12841D01*
X60063Y12878D01*
X60009Y12919D01*
X59957Y12962D01*
X59908Y13008D01*
X59862Y13057D01*
X59819Y13109D01*
X59778Y13163D01*
X59741Y13219D01*
X59707Y13277D01*
X59676Y13336D01*
X59648Y13398D01*
X59624Y13461D01*
X59604Y13525D01*
X59587Y13590D01*
X59574Y13656D01*
X59565Y13723D01*
X59559Y13790D01*
X59557Y13857D01*
X59557Y30157D01*
X59555Y30210D01*
X59549Y30263D01*
X59540Y30315D01*
X59527Y30367D01*
X59510Y30417D01*
X59490Y30466D01*
X59466Y30514D01*
X59439Y30560D01*
X59408Y30603D01*
X59375Y30645D01*
X59339Y30684D01*
X59300Y30720D01*
X59258Y30753D01*
X59215Y30784D01*
X59169Y30811D01*
X59121Y30835D01*
X59072Y30855D01*
X59022Y30872D01*
X58970Y30885D01*
X58918Y30894D01*
X58865Y30900D01*
X58812Y30902D01*
X47322Y30902D01*
X47322Y32852D02*
X52652Y32852D01*
X51657Y29557D02*
X51597Y29557D01*
X47322Y26352D02*
X45162Y26352D01*
X45160Y26353D01*
X45158Y26355D01*
X45157Y26357D01*
X45052Y27652D02*
X41372Y27652D01*
X41372Y27002D02*
X32812Y27002D01*
X32772Y27004D01*
X32733Y27009D01*
X32694Y27018D01*
X32656Y27029D01*
X32620Y27045D01*
X32585Y27063D01*
X32551Y27084D01*
X32520Y27108D01*
X32490Y27135D01*
X32463Y27165D01*
X32439Y27196D01*
X32418Y27230D01*
X32400Y27265D01*
X32384Y27301D01*
X32373Y27339D01*
X32364Y27378D01*
X32359Y27417D01*
X32357Y27457D01*
X32357Y28657D01*
X32355Y28696D01*
X32349Y28735D01*
X32340Y28773D01*
X32327Y28810D01*
X32310Y28846D01*
X32290Y28879D01*
X32266Y28911D01*
X32240Y28940D01*
X32211Y28966D01*
X32179Y28990D01*
X32146Y29010D01*
X32110Y29027D01*
X32073Y29040D01*
X32035Y29049D01*
X31996Y29055D01*
X31957Y29057D01*
X20457Y29057D01*
X20413Y29055D01*
X20370Y29049D01*
X20328Y29040D01*
X20286Y29027D01*
X20246Y29010D01*
X20207Y28990D01*
X20170Y28967D01*
X20136Y28940D01*
X20103Y28911D01*
X20074Y28878D01*
X20047Y28844D01*
X20024Y28807D01*
X20004Y28768D01*
X19987Y28728D01*
X19974Y28686D01*
X19965Y28644D01*
X19959Y28601D01*
X19957Y28557D01*
X19957Y27457D01*
X19962Y27458D01*
X19966Y27462D01*
X19967Y27467D01*
X19967Y27577D01*
X22057Y25157D02*
X22057Y17957D01*
X22055Y17913D01*
X22049Y17870D01*
X22040Y17828D01*
X22027Y17786D01*
X22010Y17746D01*
X21990Y17707D01*
X21967Y17670D01*
X21940Y17636D01*
X21911Y17603D01*
X21878Y17574D01*
X21844Y17547D01*
X21807Y17524D01*
X21768Y17504D01*
X21728Y17487D01*
X21686Y17474D01*
X21644Y17465D01*
X21601Y17459D01*
X21557Y17457D01*
X19957Y17457D01*
X19962Y17456D01*
X19966Y17452D01*
X19967Y17447D01*
X19967Y17417D01*
X17957Y16057D02*
X11157Y16057D01*
X09457Y16057D01*
X09384Y16059D01*
X09311Y16065D01*
X09238Y16074D01*
X09166Y16088D01*
X09095Y16105D01*
X09024Y16126D01*
X08955Y16150D01*
X08888Y16178D01*
X08821Y16210D01*
X08757Y16245D01*
X08695Y16283D01*
X08634Y16324D01*
X08576Y16369D01*
X08520Y16417D01*
X08467Y16467D01*
X08417Y16520D01*
X08369Y16576D01*
X08324Y16634D01*
X08283Y16695D01*
X08245Y16757D01*
X08210Y16821D01*
X08178Y16888D01*
X08150Y16955D01*
X08126Y17024D01*
X08105Y17095D01*
X08088Y17166D01*
X08074Y17238D01*
X08065Y17311D01*
X08059Y17384D01*
X08057Y17457D01*
X08057Y20927D01*
X08059Y20935D01*
X08063Y20941D01*
X08069Y20945D01*
X08077Y20947D01*
X17957Y16057D02*
X26557Y16057D01*
X26624Y16055D01*
X26691Y16049D01*
X26758Y16040D01*
X26824Y16027D01*
X26889Y16010D01*
X26953Y15990D01*
X27016Y15966D01*
X27078Y15938D01*
X27137Y15907D01*
X27195Y15873D01*
X27251Y15836D01*
X27305Y15795D01*
X27357Y15752D01*
X27406Y15706D01*
X27452Y15657D01*
X27495Y15605D01*
X27536Y15551D01*
X27573Y15495D01*
X27607Y15437D01*
X27638Y15378D01*
X27666Y15316D01*
X27690Y15253D01*
X27710Y15189D01*
X27727Y15124D01*
X27740Y15058D01*
X27749Y14991D01*
X27755Y14924D01*
X27757Y14857D01*
X27755Y14865D01*
X27751Y14871D01*
X27745Y14875D01*
X27737Y14877D01*
X27587Y14877D01*
X27657Y17357D02*
X27655Y17370D01*
X27651Y17383D01*
X27644Y17394D01*
X27634Y17404D01*
X27623Y17411D01*
X27610Y17415D01*
X27597Y17417D01*
X27587Y17417D01*
X27757Y17457D02*
X38557Y17457D01*
X38621Y17459D01*
X38685Y17464D01*
X38748Y17474D01*
X38811Y17487D01*
X38872Y17503D01*
X38933Y17523D01*
X38993Y17547D01*
X39051Y17574D01*
X39107Y17604D01*
X39161Y17638D01*
X39214Y17675D01*
X39264Y17714D01*
X39312Y17757D01*
X39357Y17802D01*
X39400Y17850D01*
X39439Y17900D01*
X39476Y17953D01*
X39510Y18007D01*
X39540Y18063D01*
X39567Y18121D01*
X39591Y18181D01*
X39611Y18242D01*
X39627Y18303D01*
X39640Y18366D01*
X39650Y18429D01*
X39655Y18493D01*
X39657Y18557D01*
X39657Y23457D01*
X39659Y23516D01*
X39664Y23575D01*
X39674Y23634D01*
X39687Y23692D01*
X39703Y23749D01*
X39723Y23805D01*
X39747Y23859D01*
X39774Y23912D01*
X39804Y23963D01*
X39837Y24012D01*
X39874Y24059D01*
X39913Y24104D01*
X39955Y24146D01*
X40000Y24185D01*
X40047Y24222D01*
X40096Y24255D01*
X40147Y24285D01*
X40200Y24312D01*
X40254Y24336D01*
X40310Y24356D01*
X40367Y24372D01*
X40425Y24385D01*
X40484Y24395D01*
X40543Y24400D01*
X40602Y24402D01*
X41372Y24402D01*
X41437Y25037D02*
X27587Y25037D01*
X23257Y26357D02*
X23190Y26355D01*
X23123Y26349D01*
X23056Y26340D01*
X22990Y26327D01*
X22925Y26310D01*
X22861Y26290D01*
X22798Y26266D01*
X22736Y26238D01*
X22677Y26207D01*
X22619Y26173D01*
X22563Y26136D01*
X22509Y26095D01*
X22457Y26052D01*
X22408Y26006D01*
X22362Y25957D01*
X22319Y25905D01*
X22278Y25851D01*
X22241Y25795D01*
X22207Y25737D01*
X22176Y25678D01*
X22148Y25616D01*
X22124Y25553D01*
X22104Y25489D01*
X22087Y25424D01*
X22074Y25358D01*
X22065Y25291D01*
X22059Y25224D01*
X22057Y25157D01*
X23257Y26357D02*
X32357Y26357D01*
X32396Y26355D01*
X32435Y26349D01*
X32473Y26340D01*
X32510Y26327D01*
X32546Y26310D01*
X32579Y26290D01*
X32611Y26266D01*
X32640Y26240D01*
X32666Y26211D01*
X32690Y26179D01*
X32710Y26146D01*
X32727Y26110D01*
X32740Y26073D01*
X32749Y26035D01*
X32755Y25996D01*
X32757Y25957D01*
X32757Y25857D01*
X32759Y25835D01*
X32763Y25813D01*
X32771Y25793D01*
X32782Y25773D01*
X32795Y25755D01*
X32810Y25740D01*
X32828Y25727D01*
X32848Y25716D01*
X32868Y25708D01*
X32890Y25704D01*
X32912Y25702D01*
X41372Y25702D01*
X41457Y25057D02*
X41455Y25049D01*
X41451Y25043D01*
X41445Y25039D01*
X41437Y25037D01*
X41462Y25052D02*
X41372Y25052D01*
X41457Y25057D02*
X41458Y25055D01*
X41460Y25053D01*
X41462Y25052D01*
X45157Y24357D02*
X47357Y24357D01*
X47367Y24356D01*
X47377Y24352D01*
X47385Y24345D01*
X47392Y24337D01*
X47396Y24327D01*
X47397Y24317D01*
X47397Y19897D01*
X47417Y19897D01*
X47427Y19896D01*
X47437Y19892D01*
X47445Y19885D01*
X47452Y19877D01*
X47456Y19867D01*
X47457Y19857D01*
X47454Y19856D01*
X47452Y19854D01*
X47451Y19851D01*
X47451Y14157D01*
X47451Y24263D01*
X47449Y24281D01*
X47444Y24299D01*
X47435Y24315D01*
X47423Y24329D01*
X47409Y24341D01*
X47393Y24350D01*
X47375Y24355D01*
X47357Y24357D01*
X47359Y24369D01*
X47363Y24380D01*
X47370Y24389D01*
X47380Y24396D01*
X47390Y24400D01*
X47402Y24402D01*
X47322Y24402D01*
X47352Y25052D02*
X47322Y25052D01*
X47322Y25702D01*
X47322Y25092D01*
X47324Y25081D01*
X47329Y25071D01*
X47336Y25064D01*
X47346Y25059D01*
X47357Y25057D01*
X50657Y25057D01*
X50741Y25055D01*
X50825Y25049D01*
X50908Y25040D01*
X50991Y25026D01*
X51074Y25009D01*
X51155Y24988D01*
X51235Y24963D01*
X51314Y24934D01*
X51392Y24902D01*
X51468Y24866D01*
X51543Y24827D01*
X51615Y24784D01*
X51686Y24738D01*
X51754Y24689D01*
X51820Y24637D01*
X51883Y24582D01*
X51944Y24524D01*
X52002Y24463D01*
X52057Y24400D01*
X52109Y24334D01*
X52158Y24266D01*
X52204Y24195D01*
X52247Y24123D01*
X52286Y24048D01*
X52322Y23972D01*
X52354Y23894D01*
X52383Y23815D01*
X52408Y23735D01*
X52429Y23654D01*
X52446Y23571D01*
X52460Y23488D01*
X52469Y23405D01*
X52475Y23321D01*
X52477Y23237D01*
X52477Y19897D01*
X47352Y25052D02*
X47355Y25053D01*
X47356Y25055D01*
X47357Y25057D01*
X45157Y27657D02*
X45057Y27657D01*
X45056Y27655D01*
X45055Y27653D01*
X45052Y27652D01*
X41372Y28302D02*
X35912Y28302D01*
X35900Y28303D01*
X35888Y28307D01*
X35878Y28314D01*
X35869Y28323D01*
X35862Y28333D01*
X35858Y28345D01*
X35857Y28357D01*
X35857Y30257D01*
X35855Y30324D01*
X35849Y30391D01*
X35840Y30458D01*
X35827Y30524D01*
X35810Y30589D01*
X35790Y30653D01*
X35766Y30716D01*
X35738Y30778D01*
X35707Y30837D01*
X35673Y30895D01*
X35636Y30951D01*
X35595Y31005D01*
X35552Y31057D01*
X35506Y31106D01*
X35457Y31152D01*
X35405Y31195D01*
X35351Y31236D01*
X35295Y31273D01*
X35237Y31307D01*
X35178Y31338D01*
X35116Y31366D01*
X35053Y31390D01*
X34989Y31410D01*
X34924Y31427D01*
X34858Y31440D01*
X34791Y31449D01*
X34724Y31455D01*
X34657Y31457D01*
X29857Y31457D01*
X29807Y31451D02*
X29807Y31507D01*
X29805Y31530D01*
X29800Y31553D01*
X29791Y31575D01*
X29778Y31595D01*
X29763Y31613D01*
X29745Y31628D01*
X29725Y31641D01*
X29703Y31650D01*
X29680Y31655D01*
X29657Y31657D01*
X29659Y31631D01*
X29664Y31605D01*
X29672Y31580D01*
X29684Y31557D01*
X29698Y31535D01*
X29716Y31516D01*
X29735Y31498D01*
X29757Y31484D01*
X29780Y31472D01*
X29805Y31464D01*
X29831Y31459D01*
X29857Y31457D01*
X35837Y33417D02*
X35837Y33437D01*
X35839Y33445D01*
X35843Y33451D01*
X35849Y33455D01*
X35857Y33457D01*
X37957Y33457D01*
X37991Y33455D01*
X38024Y33449D01*
X38056Y33440D01*
X38087Y33427D01*
X38117Y33411D01*
X38144Y33392D01*
X38169Y33369D01*
X38192Y33344D01*
X38211Y33317D01*
X38227Y33287D01*
X38240Y33256D01*
X38249Y33224D01*
X38255Y33191D01*
X38257Y33157D01*
X38257Y29557D01*
X38259Y29510D01*
X38264Y29462D01*
X38274Y29416D01*
X38287Y29370D01*
X38303Y29325D01*
X38323Y29282D01*
X38346Y29241D01*
X38373Y29201D01*
X38402Y29164D01*
X38434Y29129D01*
X38469Y29097D01*
X38506Y29068D01*
X38546Y29041D01*
X38587Y29018D01*
X38630Y28998D01*
X38675Y28982D01*
X38721Y28969D01*
X38767Y28959D01*
X38815Y28954D01*
X38862Y28952D01*
X41372Y28952D01*
X41372Y30902D02*
X43302Y30902D01*
X43351Y30904D01*
X43400Y30909D01*
X43448Y30918D01*
X43495Y30931D01*
X43541Y30947D01*
X43586Y30967D01*
X43630Y30990D01*
X43671Y31016D01*
X43710Y31045D01*
X43748Y31077D01*
X43782Y31111D01*
X43814Y31149D01*
X43843Y31188D01*
X43869Y31230D01*
X43892Y31273D01*
X43912Y31318D01*
X43928Y31364D01*
X43941Y31411D01*
X43950Y31459D01*
X43955Y31508D01*
X43957Y31557D01*
X43957Y40757D01*
X41957Y42957D02*
X41913Y42959D01*
X41868Y42958D01*
X41824Y42953D01*
X41781Y42944D01*
X41738Y42932D01*
X41696Y42916D01*
X41656Y42897D01*
X41618Y42875D01*
X41582Y42849D01*
X41547Y42821D01*
X41516Y42790D01*
X41487Y42756D01*
X41461Y42720D01*
X41437Y42683D01*
X41418Y42643D01*
X41401Y42602D01*
X41388Y42559D01*
X41378Y42516D01*
X41372Y42472D01*
X41372Y32852D01*
X41372Y32202D02*
X40612Y32202D01*
X40572Y32204D01*
X40533Y32209D01*
X40494Y32218D01*
X40456Y32229D01*
X40420Y32245D01*
X40385Y32263D01*
X40351Y32284D01*
X40320Y32308D01*
X40290Y32335D01*
X40263Y32365D01*
X40239Y32396D01*
X40218Y32430D01*
X40200Y32465D01*
X40184Y32501D01*
X40173Y32539D01*
X40164Y32578D01*
X40159Y32617D01*
X40157Y32657D01*
X40157Y42657D01*
X40159Y42742D01*
X40165Y42827D01*
X40174Y42912D01*
X40188Y42996D01*
X40205Y43080D01*
X40225Y43162D01*
X40250Y43244D01*
X40278Y43325D01*
X40310Y43404D01*
X40345Y43481D01*
X40384Y43557D01*
X40426Y43632D01*
X40471Y43704D01*
X40520Y43774D01*
X40572Y43842D01*
X40626Y43907D01*
X40684Y43970D01*
X40744Y44030D01*
X40807Y44088D01*
X40872Y44142D01*
X40940Y44194D01*
X41010Y44243D01*
X41082Y44288D01*
X41157Y44330D01*
X41233Y44369D01*
X41310Y44404D01*
X41389Y44436D01*
X41470Y44464D01*
X41552Y44489D01*
X41634Y44509D01*
X41718Y44526D01*
X41802Y44540D01*
X41887Y44549D01*
X41972Y44555D01*
X42057Y44557D01*
X42757Y37757D02*
X42757Y32057D01*
X42755Y32013D01*
X42749Y31969D01*
X42740Y31926D01*
X42727Y31884D01*
X42710Y31844D01*
X42689Y31805D01*
X42666Y31767D01*
X42639Y31732D01*
X42609Y31700D01*
X42577Y31670D01*
X42542Y31643D01*
X42505Y31620D01*
X42465Y31599D01*
X42425Y31582D01*
X42383Y31569D01*
X42340Y31560D01*
X42296Y31554D01*
X42252Y31552D01*
X41372Y31552D01*
X35857Y28357D02*
X35849Y28355D01*
X35843Y28351D01*
X35839Y28345D01*
X35837Y28337D01*
X27757Y17457D02*
X27740Y17455D01*
X27723Y17451D01*
X27707Y17444D01*
X27693Y17434D01*
X27680Y17421D01*
X27670Y17407D01*
X27663Y17391D01*
X27659Y17374D01*
X27657Y17357D01*
X69457Y12657D02*
X69517Y12655D01*
X69578Y12650D01*
X69637Y12641D01*
X69696Y12628D01*
X69755Y12612D01*
X69812Y12592D01*
X69867Y12569D01*
X69922Y12542D01*
X69974Y12513D01*
X70025Y12480D01*
X70074Y12444D01*
X70120Y12406D01*
X70164Y12364D01*
X70206Y12320D01*
X70244Y12274D01*
X70280Y12225D01*
X70313Y12174D01*
X70342Y12122D01*
X70369Y12067D01*
X70392Y12012D01*
X70412Y11955D01*
X70428Y11896D01*
X70441Y11837D01*
X70450Y11778D01*
X70455Y11717D01*
X70457Y11657D01*
X70457Y10157D01*
X70452Y10156D01*
X70448Y10152D01*
X70447Y10147D01*
X70447Y10127D01*
X70237Y31737D02*
X70177Y31737D01*
X70237Y31737D02*
X70245Y31739D01*
X70251Y31743D01*
X70255Y31749D01*
X70257Y31757D01*
X70240Y31759D01*
X70223Y31763D01*
X70207Y31770D01*
X70193Y31780D01*
X70180Y31793D01*
X70170Y31807D01*
X70163Y31823D01*
X70159Y31840D01*
X70157Y31857D01*
X70157Y32857D01*
X70155Y32927D01*
X70149Y32998D01*
X70140Y33067D01*
X70127Y33136D01*
X70110Y33205D01*
X70089Y33272D01*
X70065Y33338D01*
X70037Y33403D01*
X70006Y33466D01*
X69971Y33527D01*
X69933Y33587D01*
X69892Y33644D01*
X69848Y33699D01*
X69801Y33751D01*
X69751Y33801D01*
X69699Y33848D01*
X69644Y33892D01*
X69587Y33933D01*
X69527Y33971D01*
X69466Y34006D01*
X69403Y34037D01*
X69338Y34065D01*
X69272Y34089D01*
X69205Y34110D01*
X69136Y34127D01*
X69067Y34140D01*
X68998Y34149D01*
X68927Y34155D01*
X68857Y34157D01*
D20*
X65137Y25197D02*
X65137Y20177D01*
X65139Y20169D01*
X65143Y20163D01*
X65149Y20159D01*
X65157Y20157D01*
X65167Y20156D01*
X65177Y20152D01*
X65185Y20145D01*
X65192Y20137D01*
X65196Y20127D01*
X65197Y20117D01*
X65197Y20077D01*
X45157Y24357D02*
X45157Y13357D01*
X45155Y13243D01*
X45149Y13130D01*
X45140Y13017D01*
X45127Y12904D01*
X45110Y12791D01*
X45089Y12680D01*
X45064Y12569D01*
X45036Y12459D01*
X45004Y12350D01*
X44969Y12242D01*
X44930Y12135D01*
X44887Y12030D01*
X44841Y11926D01*
X44792Y11824D01*
X44739Y11723D01*
X44682Y11624D01*
X44623Y11528D01*
X44560Y11433D01*
X44494Y11340D01*
X44425Y11250D01*
X44353Y11162D01*
X44279Y11076D01*
X44201Y10993D01*
X44121Y10913D01*
X44038Y10835D01*
X43952Y10761D01*
X43864Y10689D01*
X43774Y10620D01*
X43681Y10554D01*
X43586Y10491D01*
X43490Y10432D01*
X43391Y10375D01*
X43290Y10322D01*
X43188Y10273D01*
X43084Y10227D01*
X42979Y10184D01*
X42872Y10145D01*
X42764Y10110D01*
X42655Y10078D01*
X42545Y10050D01*
X42434Y10025D01*
X42323Y10004D01*
X42210Y09987D01*
X42097Y09974D01*
X41984Y09965D01*
X41871Y09959D01*
X41757Y09957D01*
X22157Y09957D01*
X22066Y09959D01*
X21975Y09965D01*
X21885Y09974D01*
X21795Y09987D01*
X21706Y10004D01*
X21617Y10024D01*
X21529Y10048D01*
X21443Y10076D01*
X21357Y10107D01*
X21273Y10142D01*
X21191Y10181D01*
X21110Y10222D01*
X21031Y10267D01*
X20954Y10315D01*
X20879Y10367D01*
X20806Y10421D01*
X20735Y10478D01*
X20667Y10538D01*
X20601Y10601D01*
X20538Y10667D01*
X20478Y10735D01*
X20421Y10806D01*
X20367Y10879D01*
X20315Y10954D01*
X20267Y11031D01*
X20222Y11110D01*
X20181Y11191D01*
X20142Y11273D01*
X20107Y11357D01*
X20076Y11443D01*
X20048Y11529D01*
X20024Y11617D01*
X20004Y11706D01*
X19987Y11795D01*
X19974Y11885D01*
X19965Y11975D01*
X19959Y12066D01*
X19957Y12157D01*
X19962Y12158D01*
X19966Y12162D01*
X19967Y12167D01*
X19967Y12337D01*
X45157Y24357D02*
X45157Y26357D01*
X45157Y27657D01*
X45157Y43057D01*
X45155Y43170D01*
X45149Y43282D01*
X45140Y43394D01*
X45126Y43506D01*
X45109Y43618D01*
X45088Y43728D01*
X45063Y43838D01*
X45035Y43947D01*
X45002Y44055D01*
X44966Y44162D01*
X44927Y44268D01*
X44884Y44372D01*
X44837Y44474D01*
X44787Y44575D01*
X44733Y44674D01*
X44677Y44772D01*
X44616Y44867D01*
X44553Y44960D01*
X44486Y45051D01*
X44417Y45140D01*
X44344Y45226D01*
X44269Y45309D01*
X44190Y45390D01*
X44109Y45469D01*
X44026Y45544D01*
X43940Y45617D01*
X43851Y45686D01*
X43760Y45753D01*
X43667Y45816D01*
X43572Y45877D01*
X43474Y45933D01*
X43375Y45987D01*
X43274Y46037D01*
X43172Y46084D01*
X43068Y46127D01*
X42962Y46166D01*
X42855Y46202D01*
X42747Y46235D01*
X42638Y46263D01*
X42528Y46288D01*
X42418Y46309D01*
X42306Y46326D01*
X42194Y46340D01*
X42082Y46349D01*
X41970Y46355D01*
X41857Y46357D01*
X22957Y46357D01*
X22887Y46359D01*
X22816Y46365D01*
X22747Y46374D01*
X22678Y46387D01*
X22609Y46404D01*
X22542Y46425D01*
X22476Y46449D01*
X22411Y46477D01*
X22348Y46508D01*
X22287Y46543D01*
X22227Y46581D01*
X22170Y46622D01*
X22115Y46666D01*
X22063Y46713D01*
X22013Y46763D01*
X21966Y46815D01*
X21922Y46870D01*
X21881Y46927D01*
X21843Y46987D01*
X21808Y47048D01*
X21777Y47111D01*
X21749Y47176D01*
X21725Y47242D01*
X21704Y47309D01*
X21687Y47378D01*
X21674Y47447D01*
X21665Y47516D01*
X21659Y47587D01*
X21657Y47657D01*
X21657Y49651D01*
X12257Y49557D02*
X12218Y49555D01*
X12179Y49549D01*
X12141Y49540D01*
X12104Y49527D01*
X12068Y49510D01*
X12035Y49490D01*
X12003Y49466D01*
X11974Y49440D01*
X11948Y49411D01*
X11924Y49379D01*
X11904Y49346D01*
X11887Y49310D01*
X11874Y49273D01*
X11865Y49235D01*
X11859Y49196D01*
X11857Y49157D01*
X11857Y47657D01*
X11855Y47597D01*
X11850Y47536D01*
X11841Y47477D01*
X11828Y47418D01*
X11812Y47359D01*
X11792Y47302D01*
X11769Y47247D01*
X11742Y47192D01*
X11713Y47140D01*
X11680Y47089D01*
X11644Y47040D01*
X11606Y46994D01*
X11564Y46950D01*
X11520Y46908D01*
X11474Y46870D01*
X11425Y46834D01*
X11374Y46801D01*
X11322Y46772D01*
X11267Y46745D01*
X11212Y46722D01*
X11155Y46702D01*
X11096Y46686D01*
X11037Y46673D01*
X10978Y46664D01*
X10917Y46659D01*
X10857Y46657D01*
X04857Y46657D01*
X04799Y46659D01*
X04742Y46664D01*
X04685Y46673D01*
X04628Y46686D01*
X04573Y46702D01*
X04518Y46722D01*
X04465Y46745D01*
X04414Y46771D01*
X04364Y46800D01*
X04316Y46833D01*
X04271Y46868D01*
X04227Y46906D01*
X04186Y46947D01*
X04148Y46991D01*
X04113Y47036D01*
X04080Y47084D01*
X04051Y47134D01*
X04025Y47185D01*
X04002Y47238D01*
X03982Y47293D01*
X03966Y47348D01*
X03953Y47405D01*
X03944Y47462D01*
X03939Y47519D01*
X03937Y47577D01*
X03937Y49167D01*
X12027Y49677D02*
X12137Y49677D01*
X12158Y49675D01*
X12178Y49670D01*
X12197Y49661D01*
X12214Y49649D01*
X12229Y49634D01*
X12241Y49617D01*
X12250Y49598D01*
X12255Y49578D01*
X12257Y49557D01*
X20057Y43057D02*
X20074Y43059D01*
X20091Y43063D01*
X20107Y43070D01*
X20121Y43080D01*
X20134Y43093D01*
X20144Y43107D01*
X20151Y43123D01*
X20155Y43140D01*
X20157Y43157D01*
X20140Y43155D01*
X20124Y43151D01*
X20110Y43143D01*
X20097Y43132D01*
X20086Y43119D01*
X20078Y43105D01*
X20074Y43089D01*
X20072Y43072D01*
X20072Y43047D01*
D21*
X41957Y42957D03*
X42057Y44557D03*
X43957Y40757D03*
X42757Y37757D03*
D22*
X20057Y43057D02*
X04957Y43057D01*
X04868Y43055D01*
X04779Y43049D01*
X04690Y43040D01*
X04602Y43027D01*
X04515Y43010D01*
X04428Y42989D01*
X04342Y42965D01*
X04257Y42937D01*
X04174Y42906D01*
X04092Y42871D01*
X04012Y42832D01*
X03933Y42790D01*
X03856Y42745D01*
X03781Y42697D01*
X03708Y42645D01*
X03638Y42591D01*
X03570Y42533D01*
X03504Y42473D01*
X03441Y42410D01*
X03381Y42344D01*
X03323Y42276D01*
X03269Y42206D01*
X03217Y42133D01*
X03169Y42058D01*
X03124Y41981D01*
X03082Y41902D01*
X03043Y41822D01*
X03008Y41740D01*
X02977Y41657D01*
X02949Y41572D01*
X02925Y41486D01*
X02904Y41399D01*
X02887Y41312D01*
X02874Y41224D01*
X02865Y41135D01*
X02859Y41046D01*
X02857Y40957D01*
X02857Y27157D01*
X02859Y27093D01*
X02864Y27029D01*
X02874Y26966D01*
X02887Y26903D01*
X02903Y26842D01*
X02923Y26781D01*
X02947Y26721D01*
X02974Y26663D01*
X03004Y26607D01*
X03038Y26553D01*
X03075Y26500D01*
X03114Y26450D01*
X03157Y26402D01*
X03202Y26357D01*
X03250Y26314D01*
X03300Y26275D01*
X03353Y26238D01*
X03407Y26204D01*
X03463Y26174D01*
X03521Y26147D01*
X03581Y26123D01*
X03642Y26103D01*
X03703Y26087D01*
X03766Y26074D01*
X03829Y26064D01*
X03893Y26059D01*
X03957Y26057D01*
X05507Y26057D01*
X05516Y26056D01*
X05525Y26051D01*
X05531Y26045D01*
X05536Y26036D01*
X05537Y26027D01*
X05537Y23487D01*
M02*
