G75*
%MOMM*%
%OFA0B0*%
%FSLAX33Y33*%
%IPPOS*%
%LPD*%
%AMOC8*
5,1,8,0,0,1.08239X$1,22.5*
%
%ADD10C,0.000*%
%ADD11C,0.406*%
D10*
X12549Y04757D02*
X12551Y04837D01*
X12557Y04916D01*
X12567Y04995D01*
X12581Y05074D01*
X12598Y05152D01*
X12620Y05229D01*
X12645Y05304D01*
X12675Y05378D01*
X12707Y05451D01*
X12744Y05522D01*
X12784Y05591D01*
X12827Y05658D01*
X12874Y05723D01*
X12923Y05785D01*
X12976Y05845D01*
X13032Y05902D01*
X13090Y05957D01*
X13151Y06008D01*
X13215Y06056D01*
X13281Y06101D01*
X13349Y06143D01*
X13419Y06181D01*
X13491Y06215D01*
X13564Y06246D01*
X13639Y06274D01*
X13716Y06297D01*
X13793Y06317D01*
X13871Y06333D01*
X13950Y06345D01*
X14029Y06353D01*
X14109Y06357D01*
X14189Y06357D01*
X14269Y06353D01*
X14348Y06345D01*
X14427Y06333D01*
X14505Y06317D01*
X14582Y06297D01*
X14659Y06274D01*
X14734Y06246D01*
X14807Y06215D01*
X14879Y06181D01*
X14949Y06143D01*
X15017Y06101D01*
X15083Y06056D01*
X15147Y06008D01*
X15208Y05957D01*
X15266Y05902D01*
X15322Y05845D01*
X15375Y05785D01*
X15424Y05723D01*
X15471Y05658D01*
X15514Y05591D01*
X15554Y05522D01*
X15591Y05451D01*
X15623Y05378D01*
X15653Y05304D01*
X15678Y05229D01*
X15700Y05152D01*
X15717Y05074D01*
X15731Y04995D01*
X15741Y04916D01*
X15747Y04837D01*
X15749Y04757D01*
X15747Y04677D01*
X15741Y04598D01*
X15731Y04519D01*
X15717Y04440D01*
X15700Y04362D01*
X15678Y04285D01*
X15653Y04210D01*
X15623Y04136D01*
X15591Y04063D01*
X15554Y03992D01*
X15514Y03923D01*
X15471Y03856D01*
X15424Y03791D01*
X15375Y03729D01*
X15322Y03669D01*
X15266Y03612D01*
X15208Y03557D01*
X15147Y03506D01*
X15083Y03458D01*
X15017Y03413D01*
X14949Y03371D01*
X14879Y03333D01*
X14807Y03299D01*
X14734Y03268D01*
X14659Y03240D01*
X14582Y03217D01*
X14505Y03197D01*
X14427Y03181D01*
X14348Y03169D01*
X14269Y03161D01*
X14189Y03157D01*
X14109Y03157D01*
X14029Y03161D01*
X13950Y03169D01*
X13871Y03181D01*
X13793Y03197D01*
X13716Y03217D01*
X13639Y03240D01*
X13564Y03268D01*
X13491Y03299D01*
X13419Y03333D01*
X13349Y03371D01*
X13281Y03413D01*
X13215Y03458D01*
X13151Y03506D01*
X13090Y03557D01*
X13032Y03612D01*
X12976Y03669D01*
X12923Y03729D01*
X12874Y03791D01*
X12827Y03856D01*
X12784Y03923D01*
X12744Y03992D01*
X12707Y04063D01*
X12675Y04136D01*
X12645Y04210D01*
X12620Y04285D01*
X12598Y04362D01*
X12581Y04440D01*
X12567Y04519D01*
X12557Y04598D01*
X12551Y04677D01*
X12549Y04757D01*
X12299Y66007D02*
X12301Y66087D01*
X12307Y66166D01*
X12317Y66245D01*
X12331Y66324D01*
X12348Y66402D01*
X12370Y66479D01*
X12395Y66554D01*
X12425Y66628D01*
X12457Y66701D01*
X12494Y66772D01*
X12534Y66841D01*
X12577Y66908D01*
X12624Y66973D01*
X12673Y67035D01*
X12726Y67095D01*
X12782Y67152D01*
X12840Y67207D01*
X12901Y67258D01*
X12965Y67306D01*
X13031Y67351D01*
X13099Y67393D01*
X13169Y67431D01*
X13241Y67465D01*
X13314Y67496D01*
X13389Y67524D01*
X13466Y67547D01*
X13543Y67567D01*
X13621Y67583D01*
X13700Y67595D01*
X13779Y67603D01*
X13859Y67607D01*
X13939Y67607D01*
X14019Y67603D01*
X14098Y67595D01*
X14177Y67583D01*
X14255Y67567D01*
X14332Y67547D01*
X14409Y67524D01*
X14484Y67496D01*
X14557Y67465D01*
X14629Y67431D01*
X14699Y67393D01*
X14767Y67351D01*
X14833Y67306D01*
X14897Y67258D01*
X14958Y67207D01*
X15016Y67152D01*
X15072Y67095D01*
X15125Y67035D01*
X15174Y66973D01*
X15221Y66908D01*
X15264Y66841D01*
X15304Y66772D01*
X15341Y66701D01*
X15373Y66628D01*
X15403Y66554D01*
X15428Y66479D01*
X15450Y66402D01*
X15467Y66324D01*
X15481Y66245D01*
X15491Y66166D01*
X15497Y66087D01*
X15499Y66007D01*
X15497Y65927D01*
X15491Y65848D01*
X15481Y65769D01*
X15467Y65690D01*
X15450Y65612D01*
X15428Y65535D01*
X15403Y65460D01*
X15373Y65386D01*
X15341Y65313D01*
X15304Y65242D01*
X15264Y65173D01*
X15221Y65106D01*
X15174Y65041D01*
X15125Y64979D01*
X15072Y64919D01*
X15016Y64862D01*
X14958Y64807D01*
X14897Y64756D01*
X14833Y64708D01*
X14767Y64663D01*
X14699Y64621D01*
X14629Y64583D01*
X14557Y64549D01*
X14484Y64518D01*
X14409Y64490D01*
X14332Y64467D01*
X14255Y64447D01*
X14177Y64431D01*
X14098Y64419D01*
X14019Y64411D01*
X13939Y64407D01*
X13859Y64407D01*
X13779Y64411D01*
X13700Y64419D01*
X13621Y64431D01*
X13543Y64447D01*
X13466Y64467D01*
X13389Y64490D01*
X13314Y64518D01*
X13241Y64549D01*
X13169Y64583D01*
X13099Y64621D01*
X13031Y64663D01*
X12965Y64708D01*
X12901Y64756D01*
X12840Y64807D01*
X12782Y64862D01*
X12726Y64919D01*
X12673Y64979D01*
X12624Y65041D01*
X12577Y65106D01*
X12534Y65173D01*
X12494Y65242D01*
X12457Y65313D01*
X12425Y65386D01*
X12395Y65460D01*
X12370Y65535D01*
X12348Y65612D01*
X12331Y65690D01*
X12317Y65769D01*
X12307Y65848D01*
X12301Y65927D01*
X12299Y66007D01*
X28418Y65863D02*
X28420Y65944D01*
X28426Y66025D01*
X28436Y66105D01*
X28450Y66185D01*
X28467Y66264D01*
X28489Y66342D01*
X28515Y66419D01*
X28544Y66495D01*
X28577Y66569D01*
X28613Y66641D01*
X28653Y66712D01*
X28696Y66780D01*
X28743Y66846D01*
X28793Y66910D01*
X28846Y66972D01*
X28902Y67030D01*
X28960Y67086D01*
X29022Y67139D01*
X29086Y67189D01*
X29152Y67236D01*
X29220Y67279D01*
X29291Y67319D01*
X29363Y67355D01*
X29437Y67388D01*
X29513Y67417D01*
X29590Y67443D01*
X29668Y67465D01*
X29747Y67482D01*
X29827Y67496D01*
X29907Y67506D01*
X29988Y67512D01*
X30069Y67514D01*
X30150Y67512D01*
X30231Y67506D01*
X30311Y67496D01*
X30391Y67482D01*
X30470Y67465D01*
X30548Y67443D01*
X30625Y67417D01*
X30701Y67388D01*
X30775Y67355D01*
X30847Y67319D01*
X30918Y67279D01*
X30986Y67236D01*
X31052Y67189D01*
X31116Y67139D01*
X31178Y67086D01*
X31236Y67030D01*
X31292Y66972D01*
X31345Y66910D01*
X31395Y66846D01*
X31442Y66780D01*
X31485Y66712D01*
X31525Y66641D01*
X31561Y66569D01*
X31594Y66495D01*
X31623Y66419D01*
X31649Y66342D01*
X31671Y66264D01*
X31688Y66185D01*
X31702Y66105D01*
X31712Y66025D01*
X31718Y65944D01*
X31720Y65863D01*
X31718Y65782D01*
X31712Y65701D01*
X31702Y65621D01*
X31688Y65541D01*
X31671Y65462D01*
X31649Y65384D01*
X31623Y65307D01*
X31594Y65231D01*
X31561Y65157D01*
X31525Y65085D01*
X31485Y65014D01*
X31442Y64946D01*
X31395Y64880D01*
X31345Y64816D01*
X31292Y64754D01*
X31236Y64696D01*
X31178Y64640D01*
X31116Y64587D01*
X31052Y64537D01*
X30986Y64490D01*
X30918Y64447D01*
X30847Y64407D01*
X30775Y64371D01*
X30701Y64338D01*
X30625Y64309D01*
X30548Y64283D01*
X30470Y64261D01*
X30391Y64244D01*
X30311Y64230D01*
X30231Y64220D01*
X30150Y64214D01*
X30069Y64212D01*
X29988Y64214D01*
X29907Y64220D01*
X29827Y64230D01*
X29747Y64244D01*
X29668Y64261D01*
X29590Y64283D01*
X29513Y64309D01*
X29437Y64338D01*
X29363Y64371D01*
X29291Y64407D01*
X29220Y64447D01*
X29152Y64490D01*
X29086Y64537D01*
X29022Y64587D01*
X28960Y64640D01*
X28902Y64696D01*
X28846Y64754D01*
X28793Y64816D01*
X28743Y64880D01*
X28696Y64946D01*
X28653Y65014D01*
X28613Y65085D01*
X28577Y65157D01*
X28544Y65231D01*
X28515Y65307D01*
X28489Y65384D01*
X28467Y65462D01*
X28450Y65541D01*
X28436Y65621D01*
X28426Y65701D01*
X28420Y65782D01*
X28418Y65863D01*
X52368Y65963D02*
X52370Y66044D01*
X52376Y66125D01*
X52386Y66205D01*
X52400Y66285D01*
X52417Y66364D01*
X52439Y66442D01*
X52465Y66519D01*
X52494Y66595D01*
X52527Y66669D01*
X52563Y66741D01*
X52603Y66812D01*
X52646Y66880D01*
X52693Y66946D01*
X52743Y67010D01*
X52796Y67072D01*
X52852Y67130D01*
X52910Y67186D01*
X52972Y67239D01*
X53036Y67289D01*
X53102Y67336D01*
X53170Y67379D01*
X53241Y67419D01*
X53313Y67455D01*
X53387Y67488D01*
X53463Y67517D01*
X53540Y67543D01*
X53618Y67565D01*
X53697Y67582D01*
X53777Y67596D01*
X53857Y67606D01*
X53938Y67612D01*
X54019Y67614D01*
X54100Y67612D01*
X54181Y67606D01*
X54261Y67596D01*
X54341Y67582D01*
X54420Y67565D01*
X54498Y67543D01*
X54575Y67517D01*
X54651Y67488D01*
X54725Y67455D01*
X54797Y67419D01*
X54868Y67379D01*
X54936Y67336D01*
X55002Y67289D01*
X55066Y67239D01*
X55128Y67186D01*
X55186Y67130D01*
X55242Y67072D01*
X55295Y67010D01*
X55345Y66946D01*
X55392Y66880D01*
X55435Y66812D01*
X55475Y66741D01*
X55511Y66669D01*
X55544Y66595D01*
X55573Y66519D01*
X55599Y66442D01*
X55621Y66364D01*
X55638Y66285D01*
X55652Y66205D01*
X55662Y66125D01*
X55668Y66044D01*
X55670Y65963D01*
X55668Y65882D01*
X55662Y65801D01*
X55652Y65721D01*
X55638Y65641D01*
X55621Y65562D01*
X55599Y65484D01*
X55573Y65407D01*
X55544Y65331D01*
X55511Y65257D01*
X55475Y65185D01*
X55435Y65114D01*
X55392Y65046D01*
X55345Y64980D01*
X55295Y64916D01*
X55242Y64854D01*
X55186Y64796D01*
X55128Y64740D01*
X55066Y64687D01*
X55002Y64637D01*
X54936Y64590D01*
X54868Y64547D01*
X54797Y64507D01*
X54725Y64471D01*
X54651Y64438D01*
X54575Y64409D01*
X54498Y64383D01*
X54420Y64361D01*
X54341Y64344D01*
X54261Y64330D01*
X54181Y64320D01*
X54100Y64314D01*
X54019Y64312D01*
X53938Y64314D01*
X53857Y64320D01*
X53777Y64330D01*
X53697Y64344D01*
X53618Y64361D01*
X53540Y64383D01*
X53463Y64409D01*
X53387Y64438D01*
X53313Y64471D01*
X53241Y64507D01*
X53170Y64547D01*
X53102Y64590D01*
X53036Y64637D01*
X52972Y64687D01*
X52910Y64740D01*
X52852Y64796D01*
X52796Y64854D01*
X52743Y64916D01*
X52693Y64980D01*
X52646Y65046D01*
X52603Y65114D01*
X52563Y65185D01*
X52527Y65257D01*
X52494Y65331D01*
X52465Y65407D01*
X52439Y65484D01*
X52417Y65562D01*
X52400Y65641D01*
X52386Y65721D01*
X52376Y65801D01*
X52370Y65882D01*
X52368Y65963D01*
X105049Y66757D02*
X105051Y66837D01*
X105057Y66916D01*
X105067Y66995D01*
X105081Y67074D01*
X105098Y67152D01*
X105120Y67229D01*
X105145Y67304D01*
X105175Y67378D01*
X105207Y67451D01*
X105244Y67522D01*
X105284Y67591D01*
X105327Y67658D01*
X105374Y67723D01*
X105423Y67785D01*
X105476Y67845D01*
X105532Y67902D01*
X105590Y67957D01*
X105651Y68008D01*
X105715Y68056D01*
X105781Y68101D01*
X105849Y68143D01*
X105919Y68181D01*
X105991Y68215D01*
X106064Y68246D01*
X106139Y68274D01*
X106216Y68297D01*
X106293Y68317D01*
X106371Y68333D01*
X106450Y68345D01*
X106529Y68353D01*
X106609Y68357D01*
X106689Y68357D01*
X106769Y68353D01*
X106848Y68345D01*
X106927Y68333D01*
X107005Y68317D01*
X107082Y68297D01*
X107159Y68274D01*
X107234Y68246D01*
X107307Y68215D01*
X107379Y68181D01*
X107449Y68143D01*
X107517Y68101D01*
X107583Y68056D01*
X107647Y68008D01*
X107708Y67957D01*
X107766Y67902D01*
X107822Y67845D01*
X107875Y67785D01*
X107924Y67723D01*
X107971Y67658D01*
X108014Y67591D01*
X108054Y67522D01*
X108091Y67451D01*
X108123Y67378D01*
X108153Y67304D01*
X108178Y67229D01*
X108200Y67152D01*
X108217Y67074D01*
X108231Y66995D01*
X108241Y66916D01*
X108247Y66837D01*
X108249Y66757D01*
X108247Y66677D01*
X108241Y66598D01*
X108231Y66519D01*
X108217Y66440D01*
X108200Y66362D01*
X108178Y66285D01*
X108153Y66210D01*
X108123Y66136D01*
X108091Y66063D01*
X108054Y65992D01*
X108014Y65923D01*
X107971Y65856D01*
X107924Y65791D01*
X107875Y65729D01*
X107822Y65669D01*
X107766Y65612D01*
X107708Y65557D01*
X107647Y65506D01*
X107583Y65458D01*
X107517Y65413D01*
X107449Y65371D01*
X107379Y65333D01*
X107307Y65299D01*
X107234Y65268D01*
X107159Y65240D01*
X107082Y65217D01*
X107005Y65197D01*
X106927Y65181D01*
X106848Y65169D01*
X106769Y65161D01*
X106689Y65157D01*
X106609Y65157D01*
X106529Y65161D01*
X106450Y65169D01*
X106371Y65181D01*
X106293Y65197D01*
X106216Y65217D01*
X106139Y65240D01*
X106064Y65268D01*
X105991Y65299D01*
X105919Y65333D01*
X105849Y65371D01*
X105781Y65413D01*
X105715Y65458D01*
X105651Y65506D01*
X105590Y65557D01*
X105532Y65612D01*
X105476Y65669D01*
X105423Y65729D01*
X105374Y65791D01*
X105327Y65856D01*
X105284Y65923D01*
X105244Y65992D01*
X105207Y66063D01*
X105175Y66136D01*
X105145Y66210D01*
X105120Y66285D01*
X105098Y66362D01*
X105081Y66440D01*
X105067Y66519D01*
X105057Y66598D01*
X105051Y66677D01*
X105049Y66757D01*
X105199Y03607D02*
X105201Y03687D01*
X105207Y03766D01*
X105217Y03845D01*
X105231Y03924D01*
X105248Y04002D01*
X105270Y04079D01*
X105295Y04154D01*
X105325Y04228D01*
X105357Y04301D01*
X105394Y04372D01*
X105434Y04441D01*
X105477Y04508D01*
X105524Y04573D01*
X105573Y04635D01*
X105626Y04695D01*
X105682Y04752D01*
X105740Y04807D01*
X105801Y04858D01*
X105865Y04906D01*
X105931Y04951D01*
X105999Y04993D01*
X106069Y05031D01*
X106141Y05065D01*
X106214Y05096D01*
X106289Y05124D01*
X106366Y05147D01*
X106443Y05167D01*
X106521Y05183D01*
X106600Y05195D01*
X106679Y05203D01*
X106759Y05207D01*
X106839Y05207D01*
X106919Y05203D01*
X106998Y05195D01*
X107077Y05183D01*
X107155Y05167D01*
X107232Y05147D01*
X107309Y05124D01*
X107384Y05096D01*
X107457Y05065D01*
X107529Y05031D01*
X107599Y04993D01*
X107667Y04951D01*
X107733Y04906D01*
X107797Y04858D01*
X107858Y04807D01*
X107916Y04752D01*
X107972Y04695D01*
X108025Y04635D01*
X108074Y04573D01*
X108121Y04508D01*
X108164Y04441D01*
X108204Y04372D01*
X108241Y04301D01*
X108273Y04228D01*
X108303Y04154D01*
X108328Y04079D01*
X108350Y04002D01*
X108367Y03924D01*
X108381Y03845D01*
X108391Y03766D01*
X108397Y03687D01*
X108399Y03607D01*
X108397Y03527D01*
X108391Y03448D01*
X108381Y03369D01*
X108367Y03290D01*
X108350Y03212D01*
X108328Y03135D01*
X108303Y03060D01*
X108273Y02986D01*
X108241Y02913D01*
X108204Y02842D01*
X108164Y02773D01*
X108121Y02706D01*
X108074Y02641D01*
X108025Y02579D01*
X107972Y02519D01*
X107916Y02462D01*
X107858Y02407D01*
X107797Y02356D01*
X107733Y02308D01*
X107667Y02263D01*
X107599Y02221D01*
X107529Y02183D01*
X107457Y02149D01*
X107384Y02118D01*
X107309Y02090D01*
X107232Y02067D01*
X107155Y02047D01*
X107077Y02031D01*
X106998Y02019D01*
X106919Y02011D01*
X106839Y02007D01*
X106759Y02007D01*
X106679Y02011D01*
X106600Y02019D01*
X106521Y02031D01*
X106443Y02047D01*
X106366Y02067D01*
X106289Y02090D01*
X106214Y02118D01*
X106141Y02149D01*
X106069Y02183D01*
X105999Y02221D01*
X105931Y02263D01*
X105865Y02308D01*
X105801Y02356D01*
X105740Y02407D01*
X105682Y02462D01*
X105626Y02519D01*
X105573Y02579D01*
X105524Y02641D01*
X105477Y02706D01*
X105434Y02773D01*
X105394Y02842D01*
X105357Y02913D01*
X105325Y02986D01*
X105295Y03060D01*
X105270Y03135D01*
X105248Y03212D01*
X105231Y03290D01*
X105217Y03369D01*
X105207Y03448D01*
X105201Y03527D01*
X105199Y03607D01*
D11*
X09599Y00457D02*
X09599Y70457D01*
X109599Y70457D01*
X109599Y00457D01*
X09599Y00457D01*
M02*
