G75*
%MOMM*%
%OFA0B0*%
%FSLAX33Y33*%
%IPPOS*%
%LPD*%
%AMOC8*
5,1,8,0,0,1.08239X$1,22.5*
%
%ADD10C,0.000*%
D10*
X00508Y00508D02*
X00508Y91364D01*
X97460Y91430D01*
X97460Y00508D01*
X00508Y00508D01*
X85649Y79502D02*
X85651Y79582D01*
X85657Y79661D01*
X85667Y79740D01*
X85681Y79819D01*
X85698Y79897D01*
X85720Y79974D01*
X85745Y80049D01*
X85775Y80123D01*
X85807Y80196D01*
X85844Y80267D01*
X85884Y80336D01*
X85927Y80403D01*
X85974Y80468D01*
X86023Y80530D01*
X86076Y80590D01*
X86132Y80647D01*
X86190Y80702D01*
X86251Y80753D01*
X86315Y80801D01*
X86381Y80846D01*
X86449Y80888D01*
X86519Y80926D01*
X86591Y80960D01*
X86664Y80991D01*
X86739Y81019D01*
X86816Y81042D01*
X86893Y81062D01*
X86971Y81078D01*
X87050Y81090D01*
X87129Y81098D01*
X87209Y81102D01*
X87289Y81102D01*
X87369Y81098D01*
X87448Y81090D01*
X87527Y81078D01*
X87605Y81062D01*
X87682Y81042D01*
X87759Y81019D01*
X87834Y80991D01*
X87907Y80960D01*
X87979Y80926D01*
X88049Y80888D01*
X88117Y80846D01*
X88183Y80801D01*
X88247Y80753D01*
X88308Y80702D01*
X88366Y80647D01*
X88422Y80590D01*
X88475Y80530D01*
X88524Y80468D01*
X88571Y80403D01*
X88614Y80336D01*
X88654Y80267D01*
X88691Y80196D01*
X88723Y80123D01*
X88753Y80049D01*
X88778Y79974D01*
X88800Y79897D01*
X88817Y79819D01*
X88831Y79740D01*
X88841Y79661D01*
X88847Y79582D01*
X88849Y79502D01*
X88847Y79422D01*
X88841Y79343D01*
X88831Y79264D01*
X88817Y79185D01*
X88800Y79107D01*
X88778Y79030D01*
X88753Y78955D01*
X88723Y78881D01*
X88691Y78808D01*
X88654Y78737D01*
X88614Y78668D01*
X88571Y78601D01*
X88524Y78536D01*
X88475Y78474D01*
X88422Y78414D01*
X88366Y78357D01*
X88308Y78302D01*
X88247Y78251D01*
X88183Y78203D01*
X88117Y78158D01*
X88049Y78116D01*
X87979Y78078D01*
X87907Y78044D01*
X87834Y78013D01*
X87759Y77985D01*
X87682Y77962D01*
X87605Y77942D01*
X87527Y77926D01*
X87448Y77914D01*
X87369Y77906D01*
X87289Y77902D01*
X87209Y77902D01*
X87129Y77906D01*
X87050Y77914D01*
X86971Y77926D01*
X86893Y77942D01*
X86816Y77962D01*
X86739Y77985D01*
X86664Y78013D01*
X86591Y78044D01*
X86519Y78078D01*
X86449Y78116D01*
X86381Y78158D01*
X86315Y78203D01*
X86251Y78251D01*
X86190Y78302D01*
X86132Y78357D01*
X86076Y78414D01*
X86023Y78474D01*
X85974Y78536D01*
X85927Y78601D01*
X85884Y78668D01*
X85844Y78737D01*
X85807Y78808D01*
X85775Y78881D01*
X85745Y78955D01*
X85720Y79030D01*
X85698Y79107D01*
X85681Y79185D01*
X85667Y79264D01*
X85657Y79343D01*
X85651Y79422D01*
X85649Y79502D01*
X91999Y31242D02*
X92001Y31322D01*
X92007Y31401D01*
X92017Y31480D01*
X92031Y31559D01*
X92048Y31637D01*
X92070Y31714D01*
X92095Y31789D01*
X92125Y31863D01*
X92157Y31936D01*
X92194Y32007D01*
X92234Y32076D01*
X92277Y32143D01*
X92324Y32208D01*
X92373Y32270D01*
X92426Y32330D01*
X92482Y32387D01*
X92540Y32442D01*
X92601Y32493D01*
X92665Y32541D01*
X92731Y32586D01*
X92799Y32628D01*
X92869Y32666D01*
X92941Y32700D01*
X93014Y32731D01*
X93089Y32759D01*
X93166Y32782D01*
X93243Y32802D01*
X93321Y32818D01*
X93400Y32830D01*
X93479Y32838D01*
X93559Y32842D01*
X93639Y32842D01*
X93719Y32838D01*
X93798Y32830D01*
X93877Y32818D01*
X93955Y32802D01*
X94032Y32782D01*
X94109Y32759D01*
X94184Y32731D01*
X94257Y32700D01*
X94329Y32666D01*
X94399Y32628D01*
X94467Y32586D01*
X94533Y32541D01*
X94597Y32493D01*
X94658Y32442D01*
X94716Y32387D01*
X94772Y32330D01*
X94825Y32270D01*
X94874Y32208D01*
X94921Y32143D01*
X94964Y32076D01*
X95004Y32007D01*
X95041Y31936D01*
X95073Y31863D01*
X95103Y31789D01*
X95128Y31714D01*
X95150Y31637D01*
X95167Y31559D01*
X95181Y31480D01*
X95191Y31401D01*
X95197Y31322D01*
X95199Y31242D01*
X95197Y31162D01*
X95191Y31083D01*
X95181Y31004D01*
X95167Y30925D01*
X95150Y30847D01*
X95128Y30770D01*
X95103Y30695D01*
X95073Y30621D01*
X95041Y30548D01*
X95004Y30477D01*
X94964Y30408D01*
X94921Y30341D01*
X94874Y30276D01*
X94825Y30214D01*
X94772Y30154D01*
X94716Y30097D01*
X94658Y30042D01*
X94597Y29991D01*
X94533Y29943D01*
X94467Y29898D01*
X94399Y29856D01*
X94329Y29818D01*
X94257Y29784D01*
X94184Y29753D01*
X94109Y29725D01*
X94032Y29702D01*
X93955Y29682D01*
X93877Y29666D01*
X93798Y29654D01*
X93719Y29646D01*
X93639Y29642D01*
X93559Y29642D01*
X93479Y29646D01*
X93400Y29654D01*
X93321Y29666D01*
X93243Y29682D01*
X93166Y29702D01*
X93089Y29725D01*
X93014Y29753D01*
X92941Y29784D01*
X92869Y29818D01*
X92799Y29856D01*
X92731Y29898D01*
X92665Y29943D01*
X92601Y29991D01*
X92540Y30042D01*
X92482Y30097D01*
X92426Y30154D01*
X92373Y30214D01*
X92324Y30276D01*
X92277Y30341D01*
X92234Y30408D01*
X92194Y30477D01*
X92157Y30548D01*
X92125Y30621D01*
X92095Y30695D01*
X92070Y30770D01*
X92048Y30847D01*
X92031Y30925D01*
X92017Y31004D01*
X92007Y31083D01*
X92001Y31162D01*
X91999Y31242D01*
X06223Y86106D02*
X06225Y86187D01*
X06231Y86268D01*
X06241Y86348D01*
X06255Y86428D01*
X06272Y86507D01*
X06294Y86585D01*
X06320Y86662D01*
X06349Y86738D01*
X06382Y86812D01*
X06418Y86884D01*
X06458Y86955D01*
X06501Y87023D01*
X06548Y87089D01*
X06598Y87153D01*
X06651Y87215D01*
X06707Y87273D01*
X06765Y87329D01*
X06827Y87382D01*
X06891Y87432D01*
X06957Y87479D01*
X07025Y87522D01*
X07096Y87562D01*
X07168Y87598D01*
X07242Y87631D01*
X07318Y87660D01*
X07395Y87686D01*
X07473Y87708D01*
X07552Y87725D01*
X07632Y87739D01*
X07712Y87749D01*
X07793Y87755D01*
X07874Y87757D01*
X07955Y87755D01*
X08036Y87749D01*
X08116Y87739D01*
X08196Y87725D01*
X08275Y87708D01*
X08353Y87686D01*
X08430Y87660D01*
X08506Y87631D01*
X08580Y87598D01*
X08652Y87562D01*
X08723Y87522D01*
X08791Y87479D01*
X08857Y87432D01*
X08921Y87382D01*
X08983Y87329D01*
X09041Y87273D01*
X09097Y87215D01*
X09150Y87153D01*
X09200Y87089D01*
X09247Y87023D01*
X09290Y86955D01*
X09330Y86884D01*
X09366Y86812D01*
X09399Y86738D01*
X09428Y86662D01*
X09454Y86585D01*
X09476Y86507D01*
X09493Y86428D01*
X09507Y86348D01*
X09517Y86268D01*
X09523Y86187D01*
X09525Y86106D01*
X09523Y86025D01*
X09517Y85944D01*
X09507Y85864D01*
X09493Y85784D01*
X09476Y85705D01*
X09454Y85627D01*
X09428Y85550D01*
X09399Y85474D01*
X09366Y85400D01*
X09330Y85328D01*
X09290Y85257D01*
X09247Y85189D01*
X09200Y85123D01*
X09150Y85059D01*
X09097Y84997D01*
X09041Y84939D01*
X08983Y84883D01*
X08921Y84830D01*
X08857Y84780D01*
X08791Y84733D01*
X08723Y84690D01*
X08652Y84650D01*
X08580Y84614D01*
X08506Y84581D01*
X08430Y84552D01*
X08353Y84526D01*
X08275Y84504D01*
X08196Y84487D01*
X08116Y84473D01*
X08036Y84463D01*
X07955Y84457D01*
X07874Y84455D01*
X07793Y84457D01*
X07712Y84463D01*
X07632Y84473D01*
X07552Y84487D01*
X07473Y84504D01*
X07395Y84526D01*
X07318Y84552D01*
X07242Y84581D01*
X07168Y84614D01*
X07096Y84650D01*
X07025Y84690D01*
X06957Y84733D01*
X06891Y84780D01*
X06827Y84830D01*
X06765Y84883D01*
X06707Y84939D01*
X06651Y84997D01*
X06598Y85059D01*
X06548Y85123D01*
X06501Y85189D01*
X06458Y85257D01*
X06418Y85328D01*
X06382Y85400D01*
X06349Y85474D01*
X06320Y85550D01*
X06294Y85627D01*
X06272Y85705D01*
X06255Y85784D01*
X06241Y85864D01*
X06231Y85944D01*
X06225Y86025D01*
X06223Y86106D01*
M02*
