G75*
%MOMM*%
%OFA0B0*%
%FSLAX33Y33*%
%IPPOS*%
%LPD*%
%AMOC8*
5,1,8,0,0,1.08239X$1,22.5*
%
%ADD10OC8,1.524*%
%ADD11C,1.880*%
%ADD12C,1.676*%
%ADD13OC8,1.676*%
%ADD14OC8,1.321*%
%ADD15C,1.524*%
%ADD16C,0.762*%
%ADD17C,1.168*%
%ADD18C,0.508*%
%ADD19C,1.106*%
%ADD20C,1.800*%
%ADD21C,1.350*%
%ADD22C,1.016*%
D10*
X27559Y31242D03*
X30099Y31242D03*
X30099Y33782D03*
X27559Y33782D03*
X32639Y33782D03*
X35179Y33782D03*
X35179Y31242D03*
X32639Y31242D03*
X37719Y31242D03*
X40259Y31242D03*
X40259Y33782D03*
X37719Y33782D03*
X42799Y33782D03*
X42799Y31242D03*
X46990Y43434D03*
X46990Y45974D03*
X46990Y48514D03*
X46990Y51054D03*
X46990Y53594D03*
X46990Y56134D03*
X36830Y56134D03*
X36830Y53594D03*
X36830Y51054D03*
X36830Y48514D03*
X36830Y45974D03*
X36830Y43434D03*
X60579Y54102D03*
X60579Y56642D03*
X60579Y59182D03*
X63119Y59182D03*
X63119Y56642D03*
X63119Y54102D03*
X60579Y76962D03*
X58039Y76962D03*
X58039Y79502D03*
X60579Y79502D03*
X55499Y79502D03*
X55499Y76962D03*
X52959Y76962D03*
X50419Y76962D03*
X50419Y79502D03*
X52959Y79502D03*
X47879Y79502D03*
X45339Y79502D03*
X45339Y76962D03*
X47879Y76962D03*
X42799Y76962D03*
X42799Y79502D03*
X38735Y79502D03*
X38735Y76962D03*
X36195Y76962D03*
X33655Y76962D03*
X33655Y79502D03*
X36195Y79502D03*
X31115Y79502D03*
X28575Y79502D03*
X28575Y76962D03*
X31115Y76962D03*
X26035Y76962D03*
X26035Y79502D03*
X23495Y79502D03*
X20955Y79502D03*
X20955Y76962D03*
X23495Y76962D03*
X18415Y76962D03*
X15875Y76962D03*
X15875Y79502D03*
X18415Y79502D03*
X32258Y84582D03*
X32258Y87122D03*
X34798Y87122D03*
X37338Y87122D03*
X37338Y84582D03*
X34798Y84582D03*
X39878Y84582D03*
X39878Y87122D03*
X42418Y87122D03*
X44958Y87122D03*
X44958Y84582D03*
X42418Y84582D03*
X47498Y84582D03*
X50038Y84582D03*
X50038Y87122D03*
X47498Y87122D03*
X56388Y86614D03*
X58928Y86614D03*
X61468Y86614D03*
X64008Y86614D03*
X66548Y86614D03*
X69088Y86614D03*
X68199Y79502D03*
X70739Y79502D03*
X70739Y76962D03*
X68199Y76962D03*
X65659Y76962D03*
X65659Y79502D03*
X73279Y79502D03*
X73279Y76962D03*
X75819Y76962D03*
X78359Y76962D03*
X78359Y79502D03*
X75819Y79502D03*
X80899Y79502D03*
X83439Y79502D03*
X83439Y76962D03*
X80899Y76962D03*
X61214Y08128D03*
X61214Y05588D03*
X58674Y05588D03*
X58674Y08128D03*
X56134Y08128D03*
X56134Y05588D03*
X53594Y05588D03*
X53594Y08128D03*
X51054Y08128D03*
X51054Y05588D03*
X48514Y05588D03*
X48514Y08128D03*
X45974Y08128D03*
X45974Y05588D03*
X43434Y05588D03*
X43434Y08128D03*
X40894Y08128D03*
X40894Y05588D03*
D11*
X47879Y31242D03*
X47879Y33782D03*
X50419Y33782D03*
X52959Y33782D03*
X52959Y31242D03*
X50419Y31242D03*
X55499Y31242D03*
X55499Y33782D03*
X58039Y33782D03*
X60579Y33782D03*
X60579Y31242D03*
X58039Y31242D03*
X63119Y31242D03*
X65659Y31242D03*
X65659Y33782D03*
X63119Y33782D03*
X68199Y33782D03*
X70739Y33782D03*
X70739Y31242D03*
X68199Y31242D03*
X70994Y48688D03*
X73534Y48688D03*
X76074Y48688D03*
X78614Y48688D03*
X78216Y86614D03*
X75676Y86614D03*
X80756Y86614D03*
X83296Y86614D03*
X86868Y86614D03*
X89408Y86614D03*
X91948Y86614D03*
X94488Y86614D03*
D12*
X10414Y69418D02*
X10414Y67742D01*
X07874Y67742D02*
X07874Y69418D01*
X05334Y69418D02*
X05334Y67742D01*
D13*
X05334Y61976D03*
X05334Y58166D03*
X05334Y54356D03*
X05334Y50546D03*
X05334Y46736D03*
X05334Y42926D03*
X05334Y39116D03*
X05334Y35306D03*
X05334Y31496D03*
X18034Y31496D03*
X18034Y35306D03*
X18034Y39116D03*
X18034Y42926D03*
X18034Y46736D03*
X18034Y50546D03*
X18034Y54356D03*
X18034Y58166D03*
X18034Y61976D03*
X39370Y26416D03*
X47244Y26416D03*
X55118Y26416D03*
X62992Y26162D03*
X70612Y26162D03*
X78232Y26162D03*
X86106Y26670D03*
X94234Y26924D03*
X94234Y14224D03*
X86106Y13970D03*
X78232Y13462D03*
X70612Y13462D03*
X62992Y13462D03*
X55118Y13716D03*
X47244Y13716D03*
X39370Y13716D03*
D14*
X43180Y17018D03*
X43180Y22098D03*
X35306Y22098D03*
X35306Y17018D03*
X51054Y17018D03*
X51054Y22098D03*
X58928Y22098D03*
X58928Y17018D03*
X66802Y17018D03*
X66802Y22098D03*
X74422Y22352D03*
X74422Y17272D03*
X82042Y17526D03*
X82042Y22606D03*
X90170Y22606D03*
X90170Y17526D03*
D15*
X27432Y18542D02*
X25908Y18542D01*
X25908Y16002D02*
X27432Y16002D01*
X27432Y13462D02*
X25908Y13462D01*
X25908Y10922D02*
X27432Y10922D01*
X27432Y08382D02*
X25908Y08382D01*
X22098Y08382D02*
X20574Y08382D01*
X20574Y10922D02*
X22098Y10922D01*
X22098Y13462D02*
X20574Y13462D01*
X20574Y16002D02*
X22098Y16002D01*
X22098Y18542D02*
X20574Y18542D01*
X16764Y18542D02*
X15240Y18542D01*
X15240Y16002D02*
X16764Y16002D01*
X16764Y13462D02*
X15240Y13462D01*
X15240Y10922D02*
X16764Y10922D01*
X16764Y08382D02*
X15240Y08382D01*
D16*
X16002Y08382D02*
X15996Y08001D01*
X15996Y07751D01*
X21746Y02001D01*
X57871Y02001D01*
X61121Y05251D01*
X61121Y05501D01*
X61214Y05588D01*
X58674Y05588D02*
X58621Y05626D01*
X56496Y05626D01*
X56134Y05588D01*
X56121Y05626D01*
X53871Y05626D01*
X53594Y05588D01*
X53496Y05626D01*
X51121Y05626D01*
X51054Y05588D01*
X50746Y05751D01*
X48871Y05751D01*
X48514Y05588D01*
X48496Y05626D01*
X45996Y05626D01*
X45974Y05588D01*
X45621Y05751D01*
X43746Y05751D01*
X43434Y05588D01*
X43371Y05626D01*
X40996Y05626D01*
X40894Y05588D01*
X40496Y05626D01*
X29371Y16751D01*
X29371Y19376D01*
X25496Y23251D01*
X25246Y23501D01*
X21496Y19751D01*
X21496Y18876D01*
X21336Y18542D01*
X21371Y18501D01*
X21371Y16376D01*
X21336Y16002D01*
X21371Y16001D01*
X21371Y13751D01*
X21336Y13462D01*
X21371Y13376D01*
X21371Y11251D01*
X21336Y10922D01*
X21371Y10876D01*
X21371Y08501D01*
X21336Y08382D01*
X16002Y08382D02*
X15996Y08501D01*
X15996Y10876D01*
X16002Y10922D01*
X15996Y11251D01*
X15996Y13376D01*
X16002Y13462D01*
X15996Y13751D01*
X15996Y16001D01*
X16002Y16002D01*
X15996Y16376D01*
X15996Y18501D01*
X16002Y18542D01*
X25246Y23501D02*
X32621Y30876D01*
X32639Y31242D01*
X32746Y31251D01*
X32746Y33751D01*
X32639Y33782D01*
X35121Y33751D02*
X35179Y33782D01*
X35121Y34126D01*
X40621Y39626D01*
X40621Y45001D01*
X46621Y51001D01*
X46871Y51001D01*
X46990Y51054D01*
X46996Y46001D02*
X46990Y45974D01*
X46996Y46001D02*
X47246Y46001D01*
X56871Y55626D01*
X68871Y51876D02*
X68871Y61876D01*
X80496Y73501D01*
X80746Y73251D01*
X87871Y73251D01*
X94371Y79751D01*
X94371Y86501D01*
X94488Y86614D01*
X89408Y86614D02*
X89371Y86626D01*
X89371Y87126D01*
X86496Y90001D01*
X81121Y90001D01*
X78246Y87126D01*
X78246Y86626D01*
X78216Y86614D01*
X78359Y79502D02*
X78371Y79501D01*
X78371Y77001D01*
X78359Y76962D01*
X75871Y77001D02*
X75819Y76962D01*
X75871Y77001D02*
X75871Y79501D01*
X75819Y79502D01*
X73371Y79501D02*
X73371Y77001D01*
X73279Y76962D01*
X70746Y77001D02*
X70746Y79501D01*
X70739Y79502D01*
X68246Y79501D02*
X68246Y77251D01*
X68199Y76962D01*
X68121Y76876D01*
X68121Y76626D01*
X63121Y71626D01*
X56871Y71626D01*
X38871Y53626D01*
X36871Y53626D01*
X36830Y53594D01*
X36746Y51126D02*
X36830Y51054D01*
X36746Y51126D02*
X36371Y50751D01*
X34621Y50751D01*
X10496Y74876D01*
X08746Y75626D02*
X08746Y74126D01*
X12496Y70376D01*
X12496Y40876D01*
X17996Y35376D01*
X18034Y35306D01*
X27559Y33782D02*
X27621Y33751D01*
X27621Y31251D01*
X27559Y31242D01*
X30099Y31242D02*
X30121Y31251D01*
X30121Y33751D01*
X30099Y33782D01*
X35121Y33751D02*
X35121Y31251D01*
X35179Y31242D01*
X42746Y31251D02*
X42799Y31242D01*
X42746Y31251D02*
X42746Y33751D01*
X42799Y33782D01*
X47871Y33751D02*
X47871Y31251D01*
X47879Y31242D01*
X47746Y30876D01*
X35496Y18626D01*
X35496Y17376D01*
X35306Y17018D01*
X35371Y17001D01*
X35621Y17001D01*
X38746Y13876D01*
X38496Y13626D01*
X38496Y11001D01*
X40871Y08626D01*
X40871Y08251D01*
X40894Y08128D01*
X43434Y08128D02*
X43496Y08251D01*
X43496Y09501D01*
X47371Y13376D01*
X47244Y13716D01*
X47121Y13751D01*
X46746Y13751D01*
X43496Y17001D01*
X43246Y17001D01*
X43180Y17018D01*
X43246Y17376D01*
X50246Y24376D01*
X50246Y30876D01*
X50419Y31242D01*
X50371Y31251D01*
X50371Y33751D01*
X50419Y33782D01*
X52959Y33782D02*
X52996Y33751D01*
X52996Y31251D01*
X52959Y31242D01*
X53121Y30876D01*
X53121Y19376D01*
X51121Y17376D01*
X51054Y17018D01*
X51121Y17001D01*
X51371Y17001D01*
X52996Y15376D01*
X52746Y15126D01*
X45996Y08376D01*
X45996Y08251D01*
X45974Y08128D01*
X39370Y13716D02*
X39246Y13751D01*
X38871Y13751D01*
X38746Y13876D01*
X52996Y15376D02*
X54621Y13751D01*
X54996Y13751D01*
X55118Y13716D01*
X57121Y15876D02*
X57121Y17876D01*
X58996Y19751D01*
X60871Y19751D01*
X60871Y20126D01*
X60871Y27501D01*
X58121Y30251D01*
X58121Y30876D01*
X58039Y31242D01*
X57996Y31251D01*
X57996Y33751D01*
X58039Y33782D01*
X60579Y33782D02*
X60621Y33751D01*
X60621Y31251D01*
X60579Y31242D01*
X63119Y31242D02*
X63246Y30876D01*
X63246Y30626D01*
X69746Y24126D01*
X73746Y24126D01*
X73871Y24251D01*
X75121Y24251D01*
X81746Y17626D01*
X82042Y17526D01*
X82121Y17501D01*
X84871Y14751D01*
X84621Y14501D01*
X79746Y09626D01*
X69121Y09626D01*
X68621Y10126D01*
X57871Y10126D01*
X56246Y08501D01*
X56246Y08251D01*
X56134Y08128D01*
X53621Y08251D02*
X53594Y08128D01*
X53621Y08251D02*
X53621Y08376D01*
X58621Y13376D01*
X59246Y13376D01*
X62496Y13501D02*
X62871Y13501D01*
X62992Y13462D01*
X62496Y13501D02*
X58996Y17001D01*
X58928Y17018D01*
X60871Y19751D02*
X63871Y19751D01*
X66496Y17126D01*
X66802Y17018D01*
X66871Y17001D01*
X70496Y13376D01*
X70612Y13462D01*
X74422Y17272D02*
X74496Y17251D01*
X78246Y13501D01*
X78232Y13462D01*
X84871Y14751D02*
X85621Y14001D01*
X85996Y14001D01*
X86106Y13970D01*
X90170Y17526D02*
X90121Y17876D01*
X84246Y23751D01*
X84246Y25751D01*
X72246Y37751D01*
X69121Y37751D01*
X65746Y34376D01*
X65746Y34126D01*
X65659Y33782D01*
X65621Y33751D01*
X65621Y31251D01*
X65659Y31242D01*
X63121Y31251D02*
X63119Y31242D01*
X63121Y31251D02*
X63121Y33751D01*
X63119Y33782D01*
X68199Y33782D02*
X68246Y33751D01*
X68246Y31251D01*
X68199Y31242D01*
X70739Y31242D02*
X70746Y31251D01*
X70746Y33751D01*
X70739Y33782D01*
X55499Y33782D02*
X55496Y33751D01*
X55496Y31251D01*
X55499Y31242D01*
X47871Y33751D02*
X47879Y33782D01*
X35246Y39751D02*
X21871Y53126D01*
X21871Y58001D01*
X17996Y61876D01*
X18034Y61976D01*
X16371Y71501D02*
X33996Y71501D01*
X36496Y71501D02*
X31371Y66376D01*
X31371Y56501D01*
X36830Y56134D02*
X36871Y56251D01*
X39246Y56251D01*
X56246Y73251D01*
X62121Y73251D01*
X65746Y76876D01*
X65659Y76962D01*
X65746Y77251D01*
X65746Y79501D01*
X65659Y79502D01*
X68199Y79502D02*
X68246Y79501D01*
X70746Y77001D02*
X70739Y76962D01*
X73279Y79502D02*
X73371Y79501D01*
X80496Y73501D02*
X83621Y76626D01*
X83439Y76962D01*
X83496Y77001D01*
X83496Y79501D01*
X83439Y79502D01*
X80996Y79501D02*
X80899Y79502D01*
X80996Y79501D02*
X80996Y77001D01*
X80899Y76962D01*
X80996Y76626D01*
X75871Y71501D01*
X64621Y83251D02*
X61371Y86501D01*
X61468Y86614D01*
X58928Y86614D02*
X58871Y86501D01*
X58496Y86126D01*
X58496Y84376D01*
X62496Y80376D01*
X62496Y76126D01*
X61371Y75001D01*
X59621Y75001D01*
X60579Y76962D02*
X60496Y77001D01*
X60496Y79501D01*
X60579Y79502D01*
X58121Y79501D02*
X58039Y79502D01*
X58121Y79501D02*
X58121Y77001D01*
X58039Y76962D01*
X52996Y77251D02*
X52959Y76962D01*
X52871Y76876D01*
X52871Y76626D01*
X43246Y67001D01*
X43246Y64751D01*
X44371Y73251D02*
X47746Y76626D01*
X47879Y76962D01*
X47871Y77001D01*
X47871Y79501D01*
X47879Y79502D01*
X45371Y79501D02*
X45339Y79502D01*
X45371Y79501D02*
X45371Y77001D01*
X45339Y76962D01*
X42871Y77001D02*
X42871Y79501D01*
X42799Y79502D01*
X40746Y80251D02*
X40746Y76251D01*
X39496Y75001D01*
X37371Y75001D01*
X36195Y76962D02*
X36246Y77001D01*
X36246Y79501D01*
X36195Y79502D01*
X34746Y81126D02*
X33496Y79876D01*
X33655Y79502D01*
X33746Y79501D01*
X33746Y77001D01*
X33655Y76962D01*
X31121Y77001D02*
X31121Y79501D01*
X31115Y79502D01*
X31246Y79876D01*
X29871Y81251D01*
X29871Y81751D01*
X32246Y84126D01*
X32246Y84501D01*
X32258Y84582D01*
X32371Y87001D02*
X32258Y87122D01*
X32371Y87001D02*
X34746Y87001D01*
X34798Y87122D01*
X35121Y87001D01*
X37246Y87001D01*
X37338Y87122D01*
X37621Y87001D01*
X39496Y87001D01*
X39878Y87122D01*
X39996Y87001D01*
X42121Y87001D01*
X42418Y87122D01*
X42496Y87001D01*
X42496Y85876D01*
X42871Y85876D01*
X44121Y84626D01*
X44871Y84626D01*
X44958Y84582D01*
X45246Y84626D01*
X47121Y84626D01*
X47498Y84582D01*
X47621Y84626D01*
X49996Y84626D01*
X50038Y84582D01*
X50871Y82626D02*
X43121Y82626D01*
X40746Y80251D01*
X38996Y79751D02*
X38735Y79502D01*
X38621Y79501D01*
X38621Y77001D01*
X38735Y76962D01*
X38996Y79751D02*
X38996Y81001D01*
X39871Y81876D01*
X39871Y84501D01*
X39878Y84582D01*
X42418Y84582D02*
X42496Y84626D01*
X42496Y85876D01*
X44996Y89876D02*
X20996Y89876D01*
X12121Y81001D01*
X12121Y78626D01*
X11746Y78626D01*
X08746Y75626D01*
X12121Y77126D02*
X15996Y73251D01*
X44371Y73251D01*
X42799Y76962D02*
X42871Y77001D01*
X50419Y76962D02*
X50496Y77001D01*
X50496Y79501D01*
X50419Y79502D01*
X52959Y79502D02*
X52996Y79501D01*
X52996Y77251D01*
X50871Y82626D02*
X54371Y86126D01*
X54371Y87376D01*
X56996Y90001D01*
X65871Y90001D01*
X68996Y86876D01*
X68996Y86626D01*
X69088Y86614D01*
X64621Y83251D02*
X87746Y83251D01*
X68871Y51876D02*
X70871Y49876D01*
X70871Y48751D01*
X70994Y48688D01*
X90170Y17526D02*
X90246Y17501D01*
X90621Y17501D01*
X93871Y14251D01*
X94121Y14251D01*
X94234Y14224D01*
X31115Y76962D02*
X31121Y77001D01*
X28621Y77001D02*
X28575Y76962D01*
X28621Y77001D02*
X28621Y79501D01*
X28575Y79502D01*
X26121Y79501D02*
X26121Y77001D01*
X26035Y76962D01*
X26121Y79501D02*
X26035Y79502D01*
X18496Y79501D02*
X18496Y77001D01*
X18415Y76962D01*
X15996Y77001D02*
X15875Y76962D01*
X15996Y77001D02*
X15996Y79501D01*
X15875Y79502D01*
X18415Y79502D02*
X18496Y79501D01*
X12121Y78626D02*
X12121Y77126D01*
X05334Y61976D02*
X05246Y61876D01*
X05246Y58251D01*
X05334Y58166D01*
X34746Y81126D02*
X34746Y84501D01*
X34798Y84582D01*
X44996Y89876D02*
X47496Y87376D01*
X47496Y87126D01*
X47498Y87122D01*
X50038Y87122D02*
X50121Y87126D01*
X50496Y87126D01*
X52871Y89501D01*
D17*
X52871Y89501D03*
X59621Y75001D03*
X75871Y71501D03*
X87746Y83251D03*
X56871Y55626D03*
X43246Y64751D03*
X36496Y71501D03*
X33996Y71501D03*
X37371Y75001D03*
X31371Y56501D03*
X16371Y71501D03*
X10496Y74876D03*
X35246Y39751D03*
X57121Y15876D03*
X59246Y13376D03*
D18*
X01168Y01168D02*
X01168Y90704D01*
X20364Y90717D01*
X11238Y81591D01*
X11080Y81208D01*
X11080Y79432D01*
X10863Y79216D01*
X07863Y76216D01*
X07705Y75833D01*
X07705Y73919D01*
X07863Y73536D01*
X08156Y73243D01*
X11455Y69945D01*
X11455Y40669D01*
X11613Y40286D01*
X11906Y39993D01*
X16535Y35364D01*
X16535Y34685D01*
X17413Y33807D01*
X18655Y33807D01*
X19533Y34685D01*
X19533Y35927D01*
X18655Y36805D01*
X18040Y36805D01*
X13537Y41307D01*
X13537Y70362D01*
X33738Y50161D01*
X34031Y49868D01*
X34414Y49710D01*
X36163Y49710D01*
X36241Y49632D01*
X37419Y49632D01*
X38252Y50465D01*
X38252Y51643D01*
X37572Y52324D01*
X37832Y52585D01*
X39078Y52585D01*
X39461Y52743D01*
X57302Y70585D01*
X63328Y70585D01*
X63711Y70743D01*
X68507Y75540D01*
X68788Y75540D01*
X69469Y76220D01*
X70150Y75540D01*
X71328Y75540D01*
X72009Y76220D01*
X72690Y75540D01*
X73868Y75540D01*
X74549Y76220D01*
X75230Y75540D01*
X76408Y75540D01*
X77089Y76220D01*
X77770Y75540D01*
X78437Y75540D01*
X75643Y72746D01*
X75623Y72746D01*
X75166Y72556D01*
X74816Y72206D01*
X74626Y71749D01*
X74626Y71253D01*
X74816Y70796D01*
X75166Y70446D01*
X75623Y70256D01*
X75779Y70256D01*
X67988Y62466D01*
X67830Y62083D01*
X67830Y51669D01*
X67988Y51286D01*
X68281Y50993D01*
X69659Y49616D01*
X69637Y49594D01*
X69394Y49006D01*
X69394Y48370D01*
X69637Y47782D01*
X70088Y47331D01*
X70676Y47088D01*
X71312Y47088D01*
X71900Y47331D01*
X72264Y47695D01*
X72628Y47331D01*
X73216Y47088D01*
X73852Y47088D01*
X74440Y47331D01*
X74804Y47695D01*
X75168Y47331D01*
X75756Y47088D01*
X76392Y47088D01*
X76980Y47331D01*
X77431Y47782D01*
X77674Y48370D01*
X77674Y49006D01*
X77431Y49594D01*
X76980Y50045D01*
X76392Y50288D01*
X75756Y50288D01*
X75168Y50045D01*
X74804Y49681D01*
X74440Y50045D01*
X73852Y50288D01*
X73216Y50288D01*
X72628Y50045D01*
X72264Y49681D01*
X71912Y50033D01*
X71912Y50083D01*
X71754Y50466D01*
X69912Y52307D01*
X69912Y61445D01*
X80677Y72210D01*
X88078Y72210D01*
X88461Y72368D01*
X88754Y72661D01*
X95254Y79161D01*
X95412Y79544D01*
X95412Y85275D01*
X95845Y85708D01*
X96088Y86296D01*
X96088Y86932D01*
X95845Y87520D01*
X95394Y87971D01*
X94806Y88214D01*
X94170Y88214D01*
X93582Y87971D01*
X93218Y87607D01*
X92854Y87971D01*
X92266Y88214D01*
X91630Y88214D01*
X91042Y87971D01*
X90678Y87607D01*
X90314Y87971D01*
X89776Y88194D01*
X87207Y90763D01*
X96800Y90769D01*
X96800Y01168D01*
X58511Y01168D01*
X58754Y01411D01*
X61508Y04166D01*
X61803Y04166D01*
X62636Y04999D01*
X62636Y06177D01*
X61803Y07010D01*
X60625Y07010D01*
X59944Y06330D01*
X59416Y06858D01*
X60096Y07539D01*
X60096Y08717D01*
X59729Y09085D01*
X68190Y09085D01*
X68238Y09036D01*
X68531Y08743D01*
X68914Y08585D01*
X79953Y08585D01*
X80336Y08743D01*
X84775Y13182D01*
X85485Y12471D01*
X86727Y12471D01*
X87605Y13349D01*
X87605Y14591D01*
X86727Y15469D01*
X85626Y15469D01*
X85461Y15634D01*
X83363Y17732D01*
X83363Y18073D01*
X82589Y18847D01*
X81998Y18847D01*
X75711Y25134D01*
X75328Y25292D01*
X73664Y25292D01*
X73362Y25167D01*
X70177Y25167D01*
X65703Y29642D01*
X65977Y29642D01*
X66565Y29885D01*
X66929Y30249D01*
X67293Y29885D01*
X67881Y29642D01*
X68517Y29642D01*
X69105Y29885D01*
X69469Y30249D01*
X69833Y29885D01*
X70421Y29642D01*
X71057Y29642D01*
X71645Y29885D01*
X72096Y30336D01*
X72339Y30924D01*
X72339Y31560D01*
X72096Y32148D01*
X71787Y32457D01*
X71787Y32567D01*
X72096Y32876D01*
X72339Y33464D01*
X72339Y34100D01*
X72096Y34688D01*
X71645Y35139D01*
X71057Y35382D01*
X70421Y35382D01*
X69833Y35139D01*
X69469Y34775D01*
X69105Y35139D01*
X68517Y35382D01*
X68225Y35382D01*
X69552Y36710D01*
X71815Y36710D01*
X83205Y25320D01*
X83205Y23544D01*
X83363Y23161D01*
X88849Y17675D01*
X88849Y16979D01*
X89623Y16205D01*
X90444Y16205D01*
X92735Y13914D01*
X92735Y13603D01*
X93613Y12725D01*
X94855Y12725D01*
X95733Y13603D01*
X95733Y14845D01*
X94855Y15723D01*
X93872Y15723D01*
X91211Y18384D01*
X91158Y18406D01*
X90717Y18847D01*
X90623Y18847D01*
X85287Y24182D01*
X85287Y25958D01*
X85129Y26341D01*
X84836Y26634D01*
X72836Y38634D01*
X72453Y38792D01*
X68914Y38792D01*
X68531Y38634D01*
X68238Y38341D01*
X65236Y35339D01*
X64753Y35139D01*
X64389Y34775D01*
X64025Y35139D01*
X63437Y35382D01*
X62801Y35382D01*
X62213Y35139D01*
X61849Y34775D01*
X61485Y35139D01*
X60897Y35382D01*
X60261Y35382D01*
X59673Y35139D01*
X59309Y34775D01*
X58945Y35139D01*
X58357Y35382D01*
X57721Y35382D01*
X57133Y35139D01*
X56769Y34775D01*
X56405Y35139D01*
X55817Y35382D01*
X55181Y35382D01*
X54593Y35139D01*
X54229Y34775D01*
X53865Y35139D01*
X53277Y35382D01*
X52641Y35382D01*
X52053Y35139D01*
X51689Y34775D01*
X51325Y35139D01*
X50737Y35382D01*
X50101Y35382D01*
X49513Y35139D01*
X49149Y34775D01*
X48785Y35139D01*
X48197Y35382D01*
X47561Y35382D01*
X46973Y35139D01*
X46522Y34688D01*
X46279Y34100D01*
X46279Y33464D01*
X46522Y32876D01*
X46830Y32568D01*
X46830Y32456D01*
X46522Y32148D01*
X46279Y31560D01*
X46279Y30924D01*
X46291Y30894D01*
X34906Y19509D01*
X34613Y19216D01*
X34455Y18833D01*
X34455Y18034D01*
X33985Y17565D01*
X33985Y16471D01*
X34759Y15697D01*
X35452Y15697D01*
X37455Y13695D01*
X37455Y10794D01*
X37613Y10411D01*
X37906Y10118D01*
X39472Y08553D01*
X39472Y08123D01*
X30412Y17182D01*
X30412Y19583D01*
X30254Y19966D01*
X26719Y23501D01*
X33037Y29820D01*
X33228Y29820D01*
X33909Y30500D01*
X34590Y29820D01*
X35768Y29820D01*
X36601Y30653D01*
X36601Y31831D01*
X36162Y32270D01*
X36162Y32754D01*
X36601Y33193D01*
X36601Y34134D01*
X41504Y39036D01*
X41662Y39419D01*
X41662Y44570D01*
X46724Y49632D01*
X47579Y49632D01*
X48412Y50465D01*
X48412Y51643D01*
X47732Y52324D01*
X48412Y53005D01*
X48412Y54183D01*
X47732Y54864D01*
X48412Y55545D01*
X48412Y56723D01*
X47579Y57556D01*
X46401Y57556D01*
X45568Y56723D01*
X45568Y55545D01*
X46248Y54864D01*
X45568Y54183D01*
X45568Y53005D01*
X46248Y52324D01*
X45568Y51643D01*
X45568Y51420D01*
X40031Y45884D01*
X39738Y45591D01*
X39580Y45208D01*
X39580Y40057D01*
X34727Y35204D01*
X34590Y35204D01*
X33909Y34524D01*
X33228Y35204D01*
X32050Y35204D01*
X31369Y34524D01*
X30688Y35204D01*
X29510Y35204D01*
X28829Y34524D01*
X28148Y35204D01*
X26970Y35204D01*
X26137Y34371D01*
X26137Y33193D01*
X26580Y32750D01*
X26580Y32274D01*
X26137Y31831D01*
X26137Y30653D01*
X26970Y29820D01*
X28148Y29820D01*
X28829Y30500D01*
X29510Y29820D01*
X30092Y29820D01*
X24656Y24384D01*
X24363Y24091D01*
X24363Y24091D01*
X20613Y20341D01*
X20457Y19964D01*
X20291Y19964D01*
X19768Y19748D01*
X19368Y19348D01*
X19152Y18825D01*
X19152Y18259D01*
X19368Y17736D01*
X19768Y17336D01*
X19923Y17272D01*
X19768Y17208D01*
X19368Y16808D01*
X19152Y16285D01*
X19152Y15719D01*
X19368Y15196D01*
X19768Y14796D01*
X19923Y14732D01*
X19768Y14668D01*
X19368Y14268D01*
X19152Y13745D01*
X19152Y13179D01*
X19368Y12656D01*
X19768Y12256D01*
X19923Y12192D01*
X19768Y12128D01*
X19368Y11728D01*
X19152Y11205D01*
X19152Y10639D01*
X19368Y10116D01*
X19768Y09716D01*
X19923Y09652D01*
X19768Y09588D01*
X19368Y09188D01*
X19152Y08665D01*
X19152Y08099D01*
X19368Y07576D01*
X19768Y07176D01*
X20291Y06960D01*
X22381Y06960D01*
X22904Y07176D01*
X23304Y07576D01*
X23520Y08099D01*
X23520Y08665D01*
X23304Y09188D01*
X22904Y09588D01*
X22749Y09652D01*
X22904Y09716D01*
X23304Y10116D01*
X23520Y10639D01*
X23520Y11205D01*
X23304Y11728D01*
X22904Y12128D01*
X22749Y12192D01*
X22904Y12256D01*
X23304Y12656D01*
X23520Y13179D01*
X23520Y13745D01*
X23304Y14268D01*
X22904Y14668D01*
X22749Y14732D01*
X22904Y14796D01*
X23304Y15196D01*
X23520Y15719D01*
X23520Y16285D01*
X23304Y16808D01*
X22904Y17208D01*
X22749Y17272D01*
X22904Y17336D01*
X23304Y17736D01*
X23520Y18259D01*
X23520Y18825D01*
X23304Y19348D01*
X22935Y19717D01*
X25246Y22028D01*
X28330Y18945D01*
X28330Y16544D01*
X28488Y16161D01*
X28781Y15868D01*
X39472Y05178D01*
X39472Y04999D01*
X40305Y04166D01*
X41483Y04166D01*
X41902Y04585D01*
X42426Y04585D01*
X42845Y04166D01*
X44023Y04166D01*
X44567Y04710D01*
X44841Y04710D01*
X45385Y04166D01*
X46563Y04166D01*
X46982Y04585D01*
X47506Y04585D01*
X47925Y04166D01*
X49103Y04166D01*
X49647Y04710D01*
X49921Y04710D01*
X50465Y04166D01*
X51643Y04166D01*
X52062Y04585D01*
X52586Y04585D01*
X53005Y04166D01*
X54183Y04166D01*
X54602Y04585D01*
X55126Y04585D01*
X55545Y04166D01*
X56723Y04166D01*
X57142Y04585D01*
X57666Y04585D01*
X58085Y04166D01*
X58563Y04166D01*
X57440Y03042D01*
X22177Y03042D01*
X17807Y07413D01*
X17970Y07576D01*
X18186Y08099D01*
X18186Y08665D01*
X17970Y09188D01*
X17570Y09588D01*
X17415Y09652D01*
X17570Y09716D01*
X17970Y10116D01*
X18186Y10639D01*
X18186Y11205D01*
X17970Y11728D01*
X17570Y12128D01*
X17415Y12192D01*
X17570Y12256D01*
X17970Y12656D01*
X18186Y13179D01*
X18186Y13745D01*
X17970Y14268D01*
X17570Y14668D01*
X17415Y14732D01*
X17570Y14796D01*
X17970Y15196D01*
X18186Y15719D01*
X18186Y16285D01*
X17970Y16808D01*
X17570Y17208D01*
X17415Y17272D01*
X17570Y17336D01*
X17970Y17736D01*
X18186Y18259D01*
X18186Y18825D01*
X17970Y19348D01*
X17570Y19748D01*
X17047Y19964D01*
X14957Y19964D01*
X14434Y19748D01*
X14034Y19348D01*
X13818Y18825D01*
X13818Y18259D01*
X14034Y17736D01*
X14434Y17336D01*
X14589Y17272D01*
X14434Y17208D01*
X14034Y16808D01*
X13818Y16285D01*
X13818Y15719D01*
X14034Y15196D01*
X14434Y14796D01*
X14589Y14732D01*
X14434Y14668D01*
X14034Y14268D01*
X13818Y13745D01*
X13818Y13179D01*
X14034Y12656D01*
X14434Y12256D01*
X14589Y12192D01*
X14434Y12128D01*
X14034Y11728D01*
X13818Y11205D01*
X13818Y10639D01*
X14034Y10116D01*
X14434Y09716D01*
X14589Y09652D01*
X14434Y09588D01*
X14034Y09188D01*
X13818Y08665D01*
X13818Y08099D01*
X14034Y07576D01*
X14434Y07176D01*
X14957Y06960D01*
X15315Y06960D01*
X15406Y06868D01*
X21106Y01168D01*
X01168Y01168D01*
X01168Y01590D02*
X20684Y01590D01*
X20178Y02097D02*
X01168Y02097D01*
X01168Y02603D02*
X19671Y02603D01*
X19165Y03109D02*
X01168Y03109D01*
X01168Y03616D02*
X18658Y03616D01*
X18152Y04123D02*
X01168Y04123D01*
X01168Y04629D02*
X17645Y04629D01*
X17139Y05136D02*
X01168Y05136D01*
X01168Y05642D02*
X16632Y05642D01*
X16126Y06148D02*
X01168Y06148D01*
X01168Y06655D02*
X15619Y06655D01*
X14470Y07161D02*
X01168Y07161D01*
X01168Y07668D02*
X13996Y07668D01*
X13818Y08174D02*
X01168Y08174D01*
X01168Y08681D02*
X13824Y08681D01*
X14034Y09188D02*
X01168Y09188D01*
X01168Y09694D02*
X14488Y09694D01*
X13999Y10201D02*
X01168Y10201D01*
X01168Y10707D02*
X13818Y10707D01*
X13821Y11213D02*
X01168Y11213D01*
X01168Y11720D02*
X14031Y11720D01*
X14506Y12226D02*
X01168Y12226D01*
X01168Y12733D02*
X14002Y12733D01*
X13818Y13239D02*
X01168Y13239D01*
X01168Y13746D02*
X13818Y13746D01*
X14028Y14252D02*
X01168Y14252D01*
X01168Y14759D02*
X14524Y14759D01*
X14005Y15265D02*
X01168Y15265D01*
X01168Y15772D02*
X13818Y15772D01*
X13818Y16278D02*
X01168Y16278D01*
X01168Y16785D02*
X14025Y16785D01*
X14542Y17292D02*
X01168Y17292D01*
X01168Y17798D02*
X14009Y17798D01*
X13818Y18305D02*
X01168Y18305D01*
X01168Y18811D02*
X13818Y18811D01*
X14022Y19318D02*
X01168Y19318D01*
X01168Y19824D02*
X14618Y19824D01*
X17386Y19824D02*
X19952Y19824D01*
X19356Y19318D02*
X17982Y19318D01*
X18186Y18811D02*
X19152Y18811D01*
X19152Y18305D02*
X18186Y18305D01*
X17995Y17798D02*
X19343Y17798D01*
X19876Y17292D02*
X17462Y17292D01*
X17979Y16785D02*
X19359Y16785D01*
X19152Y16278D02*
X18186Y16278D01*
X18186Y15772D02*
X19152Y15772D01*
X19339Y15265D02*
X17999Y15265D01*
X17480Y14759D02*
X19858Y14759D01*
X19362Y14252D02*
X17976Y14252D01*
X18186Y13746D02*
X19152Y13746D01*
X19152Y13239D02*
X18186Y13239D01*
X18002Y12733D02*
X19336Y12733D01*
X19840Y12226D02*
X17498Y12226D01*
X17973Y11720D02*
X19365Y11720D01*
X19155Y11213D02*
X18183Y11213D01*
X18186Y10707D02*
X19152Y10707D01*
X19333Y10201D02*
X18005Y10201D01*
X17516Y09694D02*
X19822Y09694D01*
X19368Y09188D02*
X17970Y09188D01*
X18180Y08681D02*
X19158Y08681D01*
X19152Y08174D02*
X18186Y08174D01*
X18008Y07668D02*
X19330Y07668D01*
X19804Y07161D02*
X18058Y07161D01*
X18565Y06655D02*
X37994Y06655D01*
X37488Y07161D02*
X22868Y07161D01*
X23342Y07668D02*
X36981Y07668D01*
X36475Y08174D02*
X23520Y08174D01*
X23514Y08681D02*
X35968Y08681D01*
X35462Y09188D02*
X23304Y09188D01*
X22850Y09694D02*
X34955Y09694D01*
X34449Y10201D02*
X23339Y10201D01*
X23520Y10707D02*
X33942Y10707D01*
X33436Y11213D02*
X23517Y11213D01*
X23307Y11720D02*
X32929Y11720D01*
X32423Y12226D02*
X22832Y12226D01*
X23336Y12733D02*
X31916Y12733D01*
X31410Y13239D02*
X23520Y13239D01*
X23520Y13746D02*
X30903Y13746D01*
X30397Y14252D02*
X23310Y14252D01*
X22814Y14759D02*
X29890Y14759D01*
X29384Y15265D02*
X23333Y15265D01*
X23520Y15772D02*
X28877Y15772D01*
X28440Y16278D02*
X23520Y16278D01*
X23313Y16785D02*
X28330Y16785D01*
X28330Y17292D02*
X22796Y17292D01*
X23329Y17798D02*
X28330Y17798D01*
X28330Y18305D02*
X23520Y18305D01*
X23520Y18811D02*
X28330Y18811D01*
X27957Y19318D02*
X23316Y19318D01*
X23042Y19824D02*
X27450Y19824D01*
X26944Y20331D02*
X23548Y20331D01*
X24055Y20837D02*
X26437Y20837D01*
X25931Y21344D02*
X24561Y21344D01*
X25068Y21850D02*
X25424Y21850D01*
X26850Y23369D02*
X38767Y23369D01*
X38260Y22863D02*
X27357Y22863D01*
X27863Y22356D02*
X37754Y22356D01*
X37247Y21850D02*
X28370Y21850D01*
X28876Y21344D02*
X36741Y21344D01*
X36234Y20837D02*
X29383Y20837D01*
X29889Y20331D02*
X35728Y20331D01*
X35221Y19824D02*
X30313Y19824D01*
X30412Y19318D02*
X34715Y19318D01*
X34455Y18811D02*
X30412Y18811D01*
X30412Y18305D02*
X34455Y18305D01*
X34218Y17798D02*
X30412Y17798D01*
X30412Y17292D02*
X33985Y17292D01*
X33985Y16785D02*
X30810Y16785D01*
X31316Y16278D02*
X34178Y16278D01*
X34684Y15772D02*
X31823Y15772D01*
X32329Y15265D02*
X35884Y15265D01*
X36390Y14759D02*
X32836Y14759D01*
X33342Y14252D02*
X36897Y14252D01*
X37403Y13746D02*
X33849Y13746D01*
X34355Y13239D02*
X37455Y13239D01*
X37455Y12733D02*
X34862Y12733D01*
X35368Y12226D02*
X37455Y12226D01*
X37455Y11720D02*
X35875Y11720D01*
X36381Y11213D02*
X37455Y11213D01*
X37491Y10707D02*
X36888Y10707D01*
X37394Y10201D02*
X37824Y10201D01*
X37901Y09694D02*
X38330Y09694D01*
X38407Y09188D02*
X38837Y09188D01*
X38914Y08681D02*
X39343Y08681D01*
X39420Y08174D02*
X39472Y08174D01*
X38501Y06148D02*
X19071Y06148D01*
X19578Y05642D02*
X39007Y05642D01*
X39472Y05136D02*
X20084Y05136D01*
X20591Y04629D02*
X39841Y04629D01*
X42164Y08870D02*
X41483Y09550D01*
X41419Y09550D01*
X39537Y11432D01*
X39537Y12217D01*
X39991Y12217D01*
X40869Y13095D01*
X40869Y14337D01*
X39991Y15215D01*
X38880Y15215D01*
X36627Y17468D01*
X36627Y17565D01*
X36537Y17654D01*
X36537Y18195D01*
X47985Y29642D01*
X48197Y29642D01*
X48785Y29885D01*
X49149Y30249D01*
X49205Y30193D01*
X49205Y24807D01*
X42736Y18339D01*
X42633Y18339D01*
X41859Y17565D01*
X41859Y16471D01*
X42633Y15697D01*
X43327Y15697D01*
X45745Y13279D01*
X45745Y13223D01*
X42613Y10091D01*
X42455Y09708D01*
X42455Y09160D01*
X42164Y08870D01*
X42455Y09188D02*
X41846Y09188D01*
X41276Y09694D02*
X42455Y09694D01*
X42723Y10201D02*
X40769Y10201D01*
X40263Y10707D02*
X43229Y10707D01*
X43736Y11213D02*
X39756Y11213D01*
X39537Y11720D02*
X44242Y11720D01*
X44749Y12226D02*
X40000Y12226D01*
X40506Y12733D02*
X45255Y12733D01*
X45745Y13239D02*
X40869Y13239D01*
X40869Y13746D02*
X45278Y13746D01*
X44772Y14252D02*
X40869Y14252D01*
X40446Y14759D02*
X44265Y14759D01*
X43759Y15265D02*
X38829Y15265D01*
X38323Y15772D02*
X42558Y15772D01*
X42052Y16278D02*
X37816Y16278D01*
X37310Y16785D02*
X41859Y16785D01*
X41859Y17292D02*
X36803Y17292D01*
X36537Y17798D02*
X42092Y17798D01*
X42599Y18305D02*
X36647Y18305D01*
X37154Y18811D02*
X43208Y18811D01*
X43715Y19318D02*
X37660Y19318D01*
X38167Y19824D02*
X44221Y19824D01*
X44728Y20331D02*
X38673Y20331D01*
X39180Y20837D02*
X45234Y20837D01*
X45741Y21344D02*
X39686Y21344D01*
X40193Y21850D02*
X46247Y21850D01*
X46754Y22356D02*
X40699Y22356D01*
X41206Y22863D02*
X47260Y22863D01*
X47767Y23369D02*
X41712Y23369D01*
X42219Y23876D02*
X48273Y23876D01*
X48780Y24382D02*
X42725Y24382D01*
X43232Y24889D02*
X49205Y24889D01*
X49205Y25395D02*
X43738Y25395D01*
X44245Y25902D02*
X49205Y25902D01*
X49205Y26408D02*
X44751Y26408D01*
X45258Y26915D02*
X49205Y26915D01*
X49205Y27421D02*
X45764Y27421D01*
X46271Y27928D02*
X49205Y27928D01*
X49205Y28434D02*
X46777Y28434D01*
X47284Y28941D02*
X49205Y28941D01*
X49205Y29447D02*
X47790Y29447D01*
X48854Y29954D02*
X49205Y29954D01*
X51287Y29870D02*
X51287Y24583D01*
X51287Y24169D01*
X51129Y23786D01*
X44656Y17313D01*
X46755Y15215D01*
X47865Y15215D01*
X48743Y14337D01*
X48743Y13095D01*
X47865Y12217D01*
X47685Y12217D01*
X44537Y09070D01*
X44537Y09036D01*
X44704Y08870D01*
X45385Y09550D01*
X45698Y09550D01*
X51523Y15376D01*
X51202Y15697D01*
X50507Y15697D01*
X49733Y16471D01*
X49733Y17565D01*
X50507Y18339D01*
X50611Y18339D01*
X52080Y19807D01*
X52080Y29874D01*
X52053Y29885D01*
X51689Y30249D01*
X51325Y29885D01*
X51287Y29870D01*
X51394Y29954D02*
X51984Y29954D01*
X52080Y29447D02*
X51287Y29447D01*
X51287Y28941D02*
X52080Y28941D01*
X52080Y28434D02*
X51287Y28434D01*
X51287Y27928D02*
X52080Y27928D01*
X52080Y27421D02*
X51287Y27421D01*
X51287Y26915D02*
X52080Y26915D01*
X52080Y26408D02*
X51287Y26408D01*
X51287Y25902D02*
X52080Y25902D01*
X52080Y25395D02*
X51287Y25395D01*
X51287Y24889D02*
X52080Y24889D01*
X52080Y24382D02*
X51287Y24382D01*
X51166Y23876D02*
X52080Y23876D01*
X52080Y23369D02*
X50712Y23369D01*
X50206Y22863D02*
X52080Y22863D01*
X52080Y22356D02*
X49699Y22356D01*
X49193Y21850D02*
X52080Y21850D01*
X52080Y21344D02*
X48686Y21344D01*
X48180Y20837D02*
X52080Y20837D01*
X52080Y20331D02*
X47673Y20331D01*
X47167Y19824D02*
X52080Y19824D01*
X51590Y19318D02*
X46660Y19318D01*
X46154Y18811D02*
X51083Y18811D01*
X50473Y18305D02*
X45647Y18305D01*
X45141Y17798D02*
X49966Y17798D01*
X49733Y17292D02*
X44678Y17292D01*
X45185Y16785D02*
X49733Y16785D01*
X49926Y16278D02*
X45691Y16278D01*
X46198Y15772D02*
X50432Y15772D01*
X51413Y15265D02*
X46704Y15265D01*
X48320Y14759D02*
X50906Y14759D01*
X50400Y14252D02*
X48743Y14252D01*
X48743Y13746D02*
X49893Y13746D01*
X49387Y13239D02*
X48743Y13239D01*
X48880Y12733D02*
X48380Y12733D01*
X48374Y12226D02*
X47874Y12226D01*
X47867Y11720D02*
X47188Y11720D01*
X47361Y11213D02*
X46681Y11213D01*
X46854Y10707D02*
X46175Y10707D01*
X46348Y10201D02*
X45668Y10201D01*
X45841Y09694D02*
X45162Y09694D01*
X45022Y09188D02*
X44655Y09188D01*
X48643Y09550D02*
X52996Y13903D01*
X53619Y13280D01*
X53619Y13095D01*
X54497Y12217D01*
X55739Y12217D01*
X56617Y13095D01*
X56617Y14337D01*
X55739Y15215D01*
X54630Y15215D01*
X53879Y15966D01*
X53586Y16259D01*
X52531Y17313D01*
X54004Y18786D01*
X54162Y19169D01*
X54162Y30182D01*
X54229Y30249D01*
X54593Y29885D01*
X55181Y29642D01*
X55817Y29642D01*
X56405Y29885D01*
X56769Y30249D01*
X57133Y29885D01*
X57148Y29879D01*
X57238Y29661D01*
X59830Y27070D01*
X59830Y20792D01*
X58789Y20792D01*
X58406Y20634D01*
X58113Y20341D01*
X56238Y18466D01*
X56080Y18083D01*
X56080Y16595D01*
X56066Y16581D01*
X55876Y16124D01*
X55876Y15628D01*
X56066Y15171D01*
X56416Y14821D01*
X56873Y14631D01*
X57369Y14631D01*
X57826Y14821D01*
X58176Y15171D01*
X58366Y15628D01*
X58366Y15713D01*
X58381Y15697D01*
X58827Y15697D01*
X61493Y13031D01*
X61493Y12841D01*
X62371Y11963D01*
X63613Y11963D01*
X64491Y12841D01*
X64491Y14083D01*
X63613Y14961D01*
X62509Y14961D01*
X60249Y17221D01*
X60249Y17565D01*
X59475Y18339D01*
X59057Y18339D01*
X59427Y18710D01*
X63440Y18710D01*
X65481Y16668D01*
X65481Y16471D01*
X66255Y15697D01*
X66702Y15697D01*
X69113Y13286D01*
X69113Y12841D01*
X69991Y11963D01*
X71233Y11963D01*
X72111Y12841D01*
X72111Y14083D01*
X71233Y14961D01*
X70384Y14961D01*
X68123Y17222D01*
X68123Y17565D01*
X67349Y18339D01*
X66756Y18339D01*
X64461Y20634D01*
X64078Y20792D01*
X61912Y20792D01*
X61912Y27708D01*
X61754Y28091D01*
X61461Y28384D01*
X60162Y29683D01*
X60261Y29642D01*
X60897Y29642D01*
X61485Y29885D01*
X61849Y30249D01*
X62213Y29885D01*
X62727Y29672D01*
X68863Y23536D01*
X69156Y23243D01*
X69539Y23085D01*
X73953Y23085D01*
X74255Y23210D01*
X74690Y23210D01*
X80721Y17178D01*
X80721Y16979D01*
X81495Y16205D01*
X81944Y16205D01*
X83398Y14751D01*
X79315Y10667D01*
X69552Y10667D01*
X69211Y11009D01*
X68828Y11167D01*
X57885Y11167D01*
X58893Y12175D01*
X58998Y12131D01*
X59494Y12131D01*
X59951Y12321D01*
X60301Y12671D01*
X60491Y13128D01*
X60491Y13624D01*
X60301Y14081D01*
X59951Y14431D01*
X59494Y14621D01*
X58998Y14621D01*
X58541Y14431D01*
X58527Y14417D01*
X58414Y14417D01*
X58031Y14259D01*
X57738Y13966D01*
X53323Y09550D01*
X53005Y09550D01*
X52324Y08870D01*
X51643Y09550D01*
X50465Y09550D01*
X49784Y08870D01*
X49103Y09550D01*
X48643Y09550D01*
X48787Y09694D02*
X53466Y09694D01*
X53973Y10201D02*
X49293Y10201D01*
X49800Y10707D02*
X54479Y10707D01*
X54986Y11213D02*
X50306Y11213D01*
X50813Y11720D02*
X55492Y11720D01*
X55748Y12226D02*
X55999Y12226D01*
X56254Y12733D02*
X56505Y12733D01*
X56617Y13239D02*
X57012Y13239D01*
X56617Y13746D02*
X57518Y13746D01*
X58025Y14252D02*
X56617Y14252D01*
X56565Y14759D02*
X56194Y14759D01*
X56027Y15265D02*
X54579Y15265D01*
X54073Y15772D02*
X55876Y15772D01*
X55941Y16278D02*
X53566Y16278D01*
X53879Y15966D02*
X53879Y15966D01*
X53060Y16785D02*
X56080Y16785D01*
X56080Y17292D02*
X52553Y17292D01*
X53016Y17798D02*
X56080Y17798D01*
X56171Y18305D02*
X53522Y18305D01*
X54014Y18811D02*
X56583Y18811D01*
X57090Y19318D02*
X54162Y19318D01*
X54162Y19824D02*
X57596Y19824D01*
X58103Y20331D02*
X54162Y20331D01*
X54162Y20837D02*
X59830Y20837D01*
X59830Y21344D02*
X54162Y21344D01*
X54162Y21850D02*
X59830Y21850D01*
X59830Y22356D02*
X54162Y22356D01*
X54162Y22863D02*
X59830Y22863D01*
X59830Y23369D02*
X54162Y23369D01*
X54162Y23876D02*
X59830Y23876D01*
X59830Y24382D02*
X54162Y24382D01*
X54162Y24889D02*
X59830Y24889D01*
X59830Y25395D02*
X54162Y25395D01*
X54162Y25902D02*
X59830Y25902D01*
X59830Y26408D02*
X54162Y26408D01*
X54162Y26915D02*
X59830Y26915D01*
X59478Y27421D02*
X54162Y27421D01*
X54162Y27928D02*
X58971Y27928D01*
X58465Y28434D02*
X54162Y28434D01*
X54162Y28941D02*
X57958Y28941D01*
X57452Y29447D02*
X54162Y29447D01*
X54162Y29954D02*
X54524Y29954D01*
X56474Y29954D02*
X57064Y29954D01*
X60397Y29447D02*
X62952Y29447D01*
X63458Y28941D02*
X60904Y28941D01*
X61410Y28434D02*
X63965Y28434D01*
X64471Y27928D02*
X61821Y27928D01*
X61912Y27421D02*
X64978Y27421D01*
X65484Y26915D02*
X61912Y26915D01*
X61912Y26408D02*
X65991Y26408D01*
X66497Y25902D02*
X61912Y25902D01*
X61912Y25395D02*
X67004Y25395D01*
X67510Y24889D02*
X61912Y24889D01*
X61912Y24382D02*
X68017Y24382D01*
X68523Y23876D02*
X61912Y23876D01*
X61912Y23369D02*
X69030Y23369D01*
X69949Y25395D02*
X83129Y25395D01*
X83205Y24889D02*
X75956Y24889D01*
X76462Y24382D02*
X83205Y24382D01*
X83205Y23876D02*
X76969Y23876D01*
X77475Y23369D02*
X83277Y23369D01*
X83661Y22863D02*
X77982Y22863D01*
X78488Y22356D02*
X84168Y22356D01*
X84674Y21850D02*
X78995Y21850D01*
X79501Y21344D02*
X85181Y21344D01*
X85687Y20837D02*
X80008Y20837D01*
X80514Y20331D02*
X86194Y20331D01*
X86700Y19824D02*
X81021Y19824D01*
X81527Y19318D02*
X87207Y19318D01*
X87713Y18811D02*
X82625Y18811D01*
X83131Y18305D02*
X88220Y18305D01*
X88726Y17798D02*
X83363Y17798D01*
X83803Y17292D02*
X88849Y17292D01*
X89043Y16785D02*
X84310Y16785D01*
X84816Y16278D02*
X89550Y16278D01*
X90877Y15772D02*
X85323Y15772D01*
X85461Y15634D02*
X85461Y15634D01*
X86930Y15265D02*
X91384Y15265D01*
X91890Y14759D02*
X87436Y14759D01*
X87605Y14252D02*
X92397Y14252D01*
X92735Y13746D02*
X87605Y13746D01*
X87495Y13239D02*
X93099Y13239D01*
X93606Y12733D02*
X86988Y12733D01*
X85224Y12733D02*
X84326Y12733D01*
X83819Y12226D02*
X96800Y12226D01*
X96800Y11720D02*
X83313Y11720D01*
X82806Y11213D02*
X96800Y11213D01*
X96800Y10707D02*
X82300Y10707D01*
X81793Y10201D02*
X96800Y10201D01*
X96800Y09694D02*
X81287Y09694D01*
X80780Y09188D02*
X96800Y09188D01*
X96800Y08681D02*
X80186Y08681D01*
X79354Y10707D02*
X69513Y10707D01*
X69728Y12226D02*
X63876Y12226D01*
X64382Y12733D02*
X69222Y12733D01*
X69113Y13239D02*
X64491Y13239D01*
X64491Y13746D02*
X68653Y13746D01*
X68147Y14252D02*
X64321Y14252D01*
X63814Y14759D02*
X67640Y14759D01*
X67134Y15265D02*
X62204Y15265D01*
X61698Y15772D02*
X66180Y15772D01*
X65674Y16278D02*
X61191Y16278D01*
X60685Y16785D02*
X65364Y16785D01*
X64858Y17292D02*
X60249Y17292D01*
X60016Y17798D02*
X64351Y17798D01*
X63845Y18305D02*
X59509Y18305D01*
X59259Y15265D02*
X58215Y15265D01*
X57677Y14759D02*
X59765Y14759D01*
X60130Y14252D02*
X60272Y14252D01*
X60440Y13746D02*
X60778Y13746D01*
X60491Y13239D02*
X61285Y13239D01*
X61602Y12733D02*
X60327Y12733D01*
X59723Y12226D02*
X62108Y12226D01*
X58438Y11720D02*
X80367Y11720D01*
X79861Y11213D02*
X57931Y11213D01*
X60096Y08681D02*
X68681Y08681D01*
X71496Y12226D02*
X77348Y12226D01*
X77611Y11963D02*
X78853Y11963D01*
X79731Y12841D01*
X79731Y14083D01*
X78853Y14961D01*
X78259Y14961D01*
X75743Y17477D01*
X75743Y17819D01*
X74969Y18593D01*
X73875Y18593D01*
X73101Y17819D01*
X73101Y16725D01*
X73875Y15951D01*
X74323Y15951D01*
X76733Y13541D01*
X76733Y12841D01*
X77611Y11963D01*
X76842Y12733D02*
X72002Y12733D01*
X72111Y13239D02*
X76733Y13239D01*
X76528Y13746D02*
X72111Y13746D01*
X71941Y14252D02*
X76022Y14252D01*
X75515Y14759D02*
X71434Y14759D01*
X70079Y15265D02*
X75009Y15265D01*
X74502Y15772D02*
X69573Y15772D01*
X69066Y16278D02*
X73548Y16278D01*
X73101Y16785D02*
X68560Y16785D01*
X68123Y17292D02*
X73101Y17292D01*
X73101Y17798D02*
X67890Y17798D01*
X67383Y18305D02*
X73587Y18305D01*
X75257Y18305D02*
X79595Y18305D01*
X79088Y18811D02*
X66284Y18811D01*
X65777Y19318D02*
X78582Y19318D01*
X78075Y19824D02*
X65271Y19824D01*
X64764Y20331D02*
X77569Y20331D01*
X77062Y20837D02*
X61912Y20837D01*
X61912Y21344D02*
X76556Y21344D01*
X76049Y21850D02*
X61912Y21850D01*
X61912Y22356D02*
X75543Y22356D01*
X75036Y22863D02*
X61912Y22863D01*
X67417Y27928D02*
X80596Y27928D01*
X80090Y28434D02*
X66910Y28434D01*
X66404Y28941D02*
X79583Y28941D01*
X79077Y29447D02*
X65897Y29447D01*
X66634Y29954D02*
X67224Y29954D01*
X69174Y29954D02*
X69764Y29954D01*
X71714Y29954D02*
X78570Y29954D01*
X78064Y30460D02*
X72147Y30460D01*
X72339Y30967D02*
X77557Y30967D01*
X77051Y31473D02*
X72339Y31473D01*
X72165Y31980D02*
X76544Y31980D01*
X76038Y32486D02*
X71787Y32486D01*
X72144Y32993D02*
X75531Y32993D01*
X75025Y33500D02*
X72339Y33500D01*
X72339Y34006D02*
X74518Y34006D01*
X74012Y34513D02*
X72168Y34513D01*
X71765Y35019D02*
X73505Y35019D01*
X72999Y35526D02*
X68368Y35526D01*
X68875Y36032D02*
X72492Y36032D01*
X71986Y36539D02*
X69381Y36539D01*
X69225Y35019D02*
X69713Y35019D01*
X67449Y37552D02*
X40019Y37552D01*
X40526Y38058D02*
X67955Y38058D01*
X68462Y38565D02*
X41032Y38565D01*
X41518Y39071D02*
X96800Y39071D01*
X96800Y38565D02*
X72905Y38565D01*
X73412Y38058D02*
X96800Y38058D01*
X96800Y37552D02*
X73918Y37552D01*
X74425Y37045D02*
X96800Y37045D01*
X96800Y36539D02*
X74931Y36539D01*
X75438Y36032D02*
X96800Y36032D01*
X96800Y35526D02*
X75944Y35526D01*
X76451Y35019D02*
X96800Y35019D01*
X96800Y34513D02*
X76957Y34513D01*
X77464Y34006D02*
X96800Y34006D01*
X96800Y33500D02*
X94056Y33500D01*
X94049Y33502D02*
X93149Y33502D01*
X92319Y33158D01*
X91683Y32522D01*
X91339Y31692D01*
X91339Y30792D01*
X91683Y29962D01*
X92319Y29326D01*
X93149Y28982D01*
X94049Y28982D01*
X94879Y29326D01*
X95515Y29962D01*
X95859Y30792D01*
X95859Y31692D01*
X95515Y32522D01*
X94879Y33158D01*
X94049Y33502D01*
X93142Y33500D02*
X77970Y33500D01*
X78477Y32993D02*
X92153Y32993D01*
X91668Y32486D02*
X78983Y32486D01*
X79490Y31980D02*
X91458Y31980D01*
X91339Y31473D02*
X79996Y31473D01*
X80503Y30967D02*
X91339Y30967D01*
X91476Y30460D02*
X81009Y30460D01*
X81516Y29954D02*
X91690Y29954D01*
X92197Y29447D02*
X82022Y29447D01*
X82529Y28941D02*
X96800Y28941D01*
X96800Y28434D02*
X83035Y28434D01*
X83542Y27928D02*
X96800Y27928D01*
X96800Y27421D02*
X84048Y27421D01*
X84555Y26915D02*
X96800Y26915D01*
X96800Y26408D02*
X85061Y26408D01*
X85287Y25902D02*
X96800Y25902D01*
X96800Y25395D02*
X85287Y25395D01*
X85287Y24889D02*
X96800Y24889D01*
X96800Y24382D02*
X85287Y24382D01*
X85594Y23876D02*
X96800Y23876D01*
X96800Y23369D02*
X86100Y23369D01*
X86607Y22863D02*
X96800Y22863D01*
X96800Y22356D02*
X87113Y22356D01*
X87620Y21850D02*
X96800Y21850D01*
X96800Y21344D02*
X88126Y21344D01*
X88633Y20837D02*
X96800Y20837D01*
X96800Y20331D02*
X89139Y20331D01*
X89646Y19824D02*
X96800Y19824D01*
X96800Y19318D02*
X90152Y19318D01*
X90753Y18811D02*
X96800Y18811D01*
X96800Y18305D02*
X91290Y18305D01*
X91797Y17798D02*
X96800Y17798D01*
X96800Y17292D02*
X92303Y17292D01*
X92810Y16785D02*
X96800Y16785D01*
X96800Y16278D02*
X93316Y16278D01*
X93823Y15772D02*
X96800Y15772D01*
X96800Y15265D02*
X95312Y15265D01*
X95733Y14759D02*
X96800Y14759D01*
X96800Y14252D02*
X95733Y14252D01*
X95733Y13746D02*
X96800Y13746D01*
X96800Y13239D02*
X95369Y13239D01*
X94862Y12733D02*
X96800Y12733D01*
X96800Y08174D02*
X60096Y08174D01*
X60096Y07668D02*
X96800Y07668D01*
X96800Y07161D02*
X59719Y07161D01*
X59619Y06655D02*
X60269Y06655D01*
X62159Y06655D02*
X96800Y06655D01*
X96800Y06148D02*
X62636Y06148D01*
X62636Y05642D02*
X96800Y05642D01*
X96800Y05136D02*
X62636Y05136D01*
X62267Y04629D02*
X96800Y04629D01*
X96800Y04123D02*
X61465Y04123D01*
X60959Y03616D02*
X96800Y03616D01*
X96800Y03109D02*
X60452Y03109D01*
X59946Y02603D02*
X96800Y02603D01*
X96800Y02097D02*
X59439Y02097D01*
X58933Y01590D02*
X96800Y01590D01*
X82900Y14252D02*
X79561Y14252D01*
X79731Y13746D02*
X82393Y13746D01*
X81887Y13239D02*
X79731Y13239D01*
X79622Y12733D02*
X81380Y12733D01*
X80874Y12226D02*
X79116Y12226D01*
X79054Y14759D02*
X83390Y14759D01*
X82884Y15265D02*
X77954Y15265D01*
X77448Y15772D02*
X82377Y15772D01*
X81422Y16278D02*
X76941Y16278D01*
X76435Y16785D02*
X80915Y16785D01*
X80608Y17292D02*
X75928Y17292D01*
X75743Y17798D02*
X80101Y17798D01*
X82622Y25902D02*
X69443Y25902D01*
X68936Y26408D02*
X82116Y26408D01*
X81609Y26915D02*
X68430Y26915D01*
X67923Y27421D02*
X81103Y27421D01*
X95001Y29447D02*
X96800Y29447D01*
X96800Y29954D02*
X95508Y29954D01*
X95722Y30460D02*
X96800Y30460D01*
X96800Y30967D02*
X95859Y30967D01*
X95859Y31473D02*
X96800Y31473D01*
X96800Y31980D02*
X95740Y31980D01*
X95530Y32486D02*
X96800Y32486D01*
X96800Y32993D02*
X95045Y32993D01*
X96800Y39578D02*
X41662Y39578D01*
X41662Y40084D02*
X96800Y40084D01*
X96800Y40591D02*
X41662Y40591D01*
X41662Y41097D02*
X96800Y41097D01*
X96800Y41604D02*
X41662Y41604D01*
X41662Y42110D02*
X46302Y42110D01*
X46401Y42012D02*
X47579Y42012D01*
X48412Y42845D01*
X48412Y44023D01*
X47732Y44704D01*
X48412Y45385D01*
X48412Y45695D01*
X57099Y54381D01*
X57119Y54381D01*
X57576Y54571D01*
X57926Y54921D01*
X58116Y55378D01*
X58116Y55874D01*
X57926Y56331D01*
X57576Y56681D01*
X57119Y56871D01*
X56623Y56871D01*
X56166Y56681D01*
X55816Y56331D01*
X55626Y55874D01*
X55626Y55854D01*
X47169Y47396D01*
X46401Y47396D01*
X45568Y46563D01*
X45568Y45385D01*
X46248Y44704D01*
X45568Y44023D01*
X45568Y42845D01*
X46401Y42012D01*
X45796Y42617D02*
X41662Y42617D01*
X41662Y43123D02*
X45568Y43123D01*
X45568Y43630D02*
X41662Y43630D01*
X41662Y44136D02*
X45680Y44136D01*
X46187Y44642D02*
X41735Y44642D01*
X42242Y45149D02*
X45803Y45149D01*
X45568Y45655D02*
X42748Y45655D01*
X43255Y46162D02*
X45568Y46162D01*
X45673Y46668D02*
X43761Y46668D01*
X44268Y47175D02*
X46179Y47175D01*
X45281Y48188D02*
X47960Y48188D01*
X47454Y47681D02*
X44774Y47681D01*
X45787Y48694D02*
X48467Y48694D01*
X48973Y49201D02*
X46294Y49201D01*
X47655Y49707D02*
X49480Y49707D01*
X49986Y50214D02*
X48162Y50214D01*
X48412Y50720D02*
X50493Y50720D01*
X50999Y51227D02*
X48412Y51227D01*
X48322Y51733D02*
X51506Y51733D01*
X52012Y52240D02*
X47816Y52240D01*
X48154Y52746D02*
X52519Y52746D01*
X53025Y53253D02*
X48412Y53253D01*
X48412Y53759D02*
X53532Y53759D01*
X54038Y54266D02*
X48330Y54266D01*
X47823Y54772D02*
X54545Y54772D01*
X55051Y55279D02*
X48147Y55279D01*
X48412Y55785D02*
X55558Y55785D01*
X55800Y56292D02*
X48412Y56292D01*
X48337Y56798D02*
X56449Y56798D01*
X57293Y56798D02*
X59157Y56798D01*
X59157Y57231D02*
X59157Y56053D01*
X59837Y55372D01*
X59157Y54691D01*
X59157Y53513D01*
X59990Y52680D01*
X61168Y52680D01*
X61849Y53360D01*
X62530Y52680D01*
X63708Y52680D01*
X64541Y53513D01*
X64541Y54691D01*
X63861Y55372D01*
X64541Y56053D01*
X64541Y57231D01*
X63861Y57912D01*
X64541Y58593D01*
X64541Y59771D01*
X63708Y60604D01*
X62530Y60604D01*
X61849Y59924D01*
X61168Y60604D01*
X59990Y60604D01*
X59157Y59771D01*
X59157Y58593D01*
X59837Y57912D01*
X59157Y57231D01*
X59230Y57305D02*
X47831Y57305D01*
X46149Y57305D02*
X44023Y57305D01*
X44529Y57811D02*
X59737Y57811D01*
X59431Y58318D02*
X45036Y58318D01*
X45542Y58824D02*
X59157Y58824D01*
X59157Y59331D02*
X46049Y59331D01*
X46555Y59837D02*
X59223Y59837D01*
X59729Y60344D02*
X47062Y60344D01*
X47568Y60850D02*
X67830Y60850D01*
X67830Y60344D02*
X63969Y60344D01*
X64475Y59837D02*
X67830Y59837D01*
X67830Y59331D02*
X64541Y59331D01*
X64541Y58824D02*
X67830Y58824D01*
X67830Y58318D02*
X64267Y58318D01*
X63961Y57811D02*
X67830Y57811D01*
X67830Y57305D02*
X64468Y57305D01*
X64541Y56798D02*
X67830Y56798D01*
X67830Y56292D02*
X64541Y56292D01*
X64274Y55785D02*
X67830Y55785D01*
X67830Y55279D02*
X63954Y55279D01*
X64460Y54772D02*
X67830Y54772D01*
X67830Y54266D02*
X64541Y54266D01*
X64541Y53759D02*
X67830Y53759D01*
X67830Y53253D02*
X64282Y53253D01*
X63775Y52746D02*
X67830Y52746D01*
X67830Y52240D02*
X54958Y52240D01*
X55464Y52746D02*
X59923Y52746D01*
X59416Y53253D02*
X55971Y53253D01*
X56477Y53759D02*
X59157Y53759D01*
X59157Y54266D02*
X56984Y54266D01*
X57778Y54772D02*
X59238Y54772D01*
X59744Y55279D02*
X58074Y55279D01*
X58116Y55785D02*
X59424Y55785D01*
X59157Y56292D02*
X57942Y56292D01*
X61235Y52746D02*
X62463Y52746D01*
X61956Y53253D02*
X61742Y53253D01*
X67830Y51733D02*
X54451Y51733D01*
X53945Y51227D02*
X68047Y51227D01*
X68554Y50720D02*
X53438Y50720D01*
X52932Y50214D02*
X69060Y50214D01*
X69567Y49707D02*
X52425Y49707D01*
X51919Y49201D02*
X69474Y49201D01*
X69394Y48694D02*
X51412Y48694D01*
X50906Y48188D02*
X69469Y48188D01*
X69737Y47681D02*
X50399Y47681D01*
X49893Y47175D02*
X70465Y47175D01*
X71523Y47175D02*
X73005Y47175D01*
X72277Y47681D02*
X72251Y47681D01*
X74063Y47175D02*
X75545Y47175D01*
X74817Y47681D02*
X74791Y47681D01*
X76603Y47175D02*
X96800Y47175D01*
X96800Y47681D02*
X77331Y47681D01*
X77599Y48188D02*
X96800Y48188D01*
X96800Y48694D02*
X77674Y48694D01*
X77594Y49201D02*
X96800Y49201D01*
X96800Y49707D02*
X77318Y49707D01*
X76571Y50214D02*
X96800Y50214D01*
X96800Y50720D02*
X71499Y50720D01*
X71858Y50214D02*
X73037Y50214D01*
X72290Y49707D02*
X72238Y49707D01*
X70993Y51227D02*
X96800Y51227D01*
X96800Y51733D02*
X70486Y51733D01*
X69980Y52240D02*
X96800Y52240D01*
X96800Y52746D02*
X69912Y52746D01*
X69912Y53253D02*
X96800Y53253D01*
X96800Y53759D02*
X69912Y53759D01*
X69912Y54266D02*
X96800Y54266D01*
X96800Y54772D02*
X69912Y54772D01*
X69912Y55279D02*
X96800Y55279D01*
X96800Y55785D02*
X69912Y55785D01*
X69912Y56292D02*
X96800Y56292D01*
X96800Y56798D02*
X69912Y56798D01*
X69912Y57305D02*
X96800Y57305D01*
X96800Y57811D02*
X69912Y57811D01*
X69912Y58318D02*
X96800Y58318D01*
X96800Y58824D02*
X69912Y58824D01*
X69912Y59331D02*
X96800Y59331D01*
X96800Y59837D02*
X69912Y59837D01*
X69912Y60344D02*
X96800Y60344D01*
X96800Y60850D02*
X69912Y60850D01*
X69912Y61357D02*
X96800Y61357D01*
X96800Y61863D02*
X70331Y61863D01*
X70838Y62370D02*
X96800Y62370D01*
X96800Y62876D02*
X71344Y62876D01*
X71851Y63383D02*
X96800Y63383D01*
X96800Y63889D02*
X72357Y63889D01*
X72864Y64396D02*
X96800Y64396D01*
X96800Y64902D02*
X73370Y64902D01*
X73877Y65409D02*
X96800Y65409D01*
X96800Y65916D02*
X74383Y65916D01*
X74890Y66422D02*
X96800Y66422D01*
X96800Y66929D02*
X75396Y66929D01*
X75903Y67435D02*
X96800Y67435D01*
X96800Y67942D02*
X76409Y67942D01*
X76916Y68448D02*
X96800Y68448D01*
X96800Y68955D02*
X77422Y68955D01*
X77929Y69461D02*
X96800Y69461D01*
X96800Y69968D02*
X78435Y69968D01*
X78942Y70474D02*
X96800Y70474D01*
X96800Y70981D02*
X79448Y70981D01*
X79955Y71487D02*
X96800Y71487D01*
X96800Y71994D02*
X80461Y71994D01*
X82760Y74292D02*
X84007Y75540D01*
X84028Y75540D01*
X84296Y75807D01*
X84299Y75809D01*
X84306Y75817D01*
X84861Y76373D01*
X84861Y77551D01*
X84537Y77875D01*
X84537Y78589D01*
X84861Y78913D01*
X84861Y80091D01*
X84028Y80924D01*
X82850Y80924D01*
X82169Y80244D01*
X81488Y80924D01*
X80310Y80924D01*
X79629Y80244D01*
X78948Y80924D01*
X77770Y80924D01*
X77089Y80244D01*
X76408Y80924D01*
X75230Y80924D01*
X74549Y80244D01*
X73868Y80924D01*
X72690Y80924D01*
X72009Y80244D01*
X71328Y80924D01*
X70150Y80924D01*
X69469Y80244D01*
X68788Y80924D01*
X67610Y80924D01*
X66929Y80244D01*
X66248Y80924D01*
X65070Y80924D01*
X64237Y80091D01*
X64237Y78913D01*
X64705Y78445D01*
X64705Y78019D01*
X64237Y77551D01*
X64237Y76839D01*
X63537Y76140D01*
X63537Y80583D01*
X63379Y80966D01*
X59537Y84807D01*
X59537Y85212D01*
X60198Y85872D01*
X60879Y85192D01*
X61208Y85192D01*
X64031Y82368D01*
X64414Y82210D01*
X87027Y82210D01*
X87041Y82196D01*
X87498Y82006D01*
X87994Y82006D01*
X88451Y82196D01*
X88801Y82546D01*
X88991Y83003D01*
X88991Y83499D01*
X88801Y83956D01*
X88451Y84306D01*
X87994Y84496D01*
X87498Y84496D01*
X87041Y84306D01*
X87027Y84292D01*
X65052Y84292D01*
X64153Y85192D01*
X64597Y85192D01*
X65278Y85872D01*
X65959Y85192D01*
X67137Y85192D01*
X67818Y85872D01*
X68499Y85192D01*
X69677Y85192D01*
X70510Y86025D01*
X70510Y87203D01*
X69677Y88036D01*
X69308Y88036D01*
X66754Y90591D01*
X66596Y90749D01*
X80405Y90758D01*
X77836Y88189D01*
X77310Y87971D01*
X76859Y87520D01*
X76616Y86932D01*
X76616Y86296D01*
X76859Y85708D01*
X77310Y85257D01*
X77898Y85014D01*
X78534Y85014D01*
X79122Y85257D01*
X79486Y85621D01*
X79850Y85257D01*
X80438Y85014D01*
X81074Y85014D01*
X81662Y85257D01*
X82026Y85621D01*
X82390Y85257D01*
X82978Y85014D01*
X83614Y85014D01*
X84202Y85257D01*
X84653Y85708D01*
X84896Y86296D01*
X84896Y86932D01*
X84653Y87520D01*
X84202Y87971D01*
X83614Y88214D01*
X82978Y88214D01*
X82390Y87971D01*
X82026Y87607D01*
X81662Y87971D01*
X81074Y88214D01*
X80807Y88214D01*
X81552Y88960D01*
X86065Y88960D01*
X87891Y87133D01*
X87808Y86932D01*
X87808Y86296D01*
X88051Y85708D01*
X88502Y85257D01*
X89090Y85014D01*
X89726Y85014D01*
X90314Y85257D01*
X90678Y85621D01*
X91042Y85257D01*
X91630Y85014D01*
X92266Y85014D01*
X92854Y85257D01*
X93218Y85621D01*
X93330Y85509D01*
X93330Y80182D01*
X87440Y74292D01*
X82760Y74292D01*
X82994Y74526D02*
X87673Y74526D01*
X88180Y75033D02*
X83500Y75033D01*
X84007Y75539D02*
X88686Y75539D01*
X89193Y76046D02*
X84534Y76046D01*
X84861Y76552D02*
X89699Y76552D01*
X90206Y77059D02*
X84861Y77059D01*
X84848Y77565D02*
X86019Y77565D01*
X85969Y77586D02*
X86799Y77242D01*
X87699Y77242D01*
X88529Y77586D01*
X89165Y78222D01*
X89509Y79052D01*
X89509Y79952D01*
X89165Y80782D01*
X88529Y81418D01*
X87699Y81762D01*
X86799Y81762D01*
X85969Y81418D01*
X85333Y80782D01*
X84989Y79952D01*
X84989Y79052D01*
X85333Y78222D01*
X85969Y77586D01*
X85483Y78072D02*
X84537Y78072D01*
X84537Y78578D02*
X85185Y78578D01*
X84989Y79085D02*
X84861Y79085D01*
X84861Y79591D02*
X84989Y79591D01*
X85049Y80098D02*
X84855Y80098D01*
X85259Y80604D02*
X84349Y80604D01*
X85661Y81111D02*
X63234Y81111D01*
X63529Y80604D02*
X64749Y80604D01*
X64243Y80098D02*
X63537Y80098D01*
X63537Y79591D02*
X64237Y79591D01*
X64237Y79085D02*
X63537Y79085D01*
X63537Y78578D02*
X64571Y78578D01*
X64705Y78072D02*
X63537Y78072D01*
X63537Y77565D02*
X64250Y77565D01*
X64237Y77059D02*
X63537Y77059D01*
X63537Y76552D02*
X63949Y76552D01*
X66987Y74020D02*
X76917Y74020D01*
X77423Y74526D02*
X67494Y74526D01*
X68000Y75033D02*
X77930Y75033D01*
X78436Y75539D02*
X68507Y75539D01*
X69294Y76046D02*
X69644Y76046D01*
X71834Y76046D02*
X72184Y76046D01*
X74374Y76046D02*
X74724Y76046D01*
X76914Y76046D02*
X77264Y76046D01*
X76410Y73513D02*
X66481Y73513D01*
X65974Y73007D02*
X75904Y73007D01*
X75110Y72500D02*
X65468Y72500D01*
X64961Y71994D02*
X74728Y71994D01*
X74626Y71487D02*
X64455Y71487D01*
X63948Y70981D02*
X74739Y70981D01*
X75138Y70474D02*
X57192Y70474D01*
X56685Y69968D02*
X75490Y69968D01*
X74983Y69461D02*
X56179Y69461D01*
X55672Y68955D02*
X74477Y68955D01*
X73970Y68448D02*
X55166Y68448D01*
X54659Y67942D02*
X73464Y67942D01*
X72957Y67435D02*
X54153Y67435D01*
X53646Y66929D02*
X72451Y66929D01*
X71944Y66422D02*
X53140Y66422D01*
X52633Y65916D02*
X71438Y65916D01*
X70931Y65409D02*
X52127Y65409D01*
X51620Y64902D02*
X70425Y64902D01*
X69918Y64396D02*
X51114Y64396D01*
X50607Y63889D02*
X69412Y63889D01*
X68905Y63383D02*
X50101Y63383D01*
X49594Y62876D02*
X68399Y62876D01*
X67948Y62370D02*
X49088Y62370D01*
X48581Y61863D02*
X67830Y61863D01*
X67830Y61357D02*
X48075Y61357D01*
X45412Y63889D02*
X44145Y63889D01*
X44301Y64046D02*
X43951Y63696D01*
X43494Y63506D01*
X42998Y63506D01*
X42541Y63696D01*
X42191Y64046D01*
X42001Y64503D01*
X42001Y64999D01*
X42191Y65456D01*
X42205Y65470D01*
X42205Y67208D01*
X42363Y67591D01*
X50312Y75540D01*
X49830Y75540D01*
X49149Y76220D01*
X48468Y75540D01*
X48132Y75540D01*
X44961Y72368D01*
X44578Y72210D01*
X37548Y72210D01*
X37551Y72206D01*
X37741Y71749D01*
X37741Y71253D01*
X37551Y70796D01*
X37201Y70446D01*
X36744Y70256D01*
X36724Y70256D01*
X32412Y65945D01*
X32412Y57220D01*
X32426Y57206D01*
X32616Y56749D01*
X32616Y56253D01*
X32426Y55796D01*
X32076Y55446D01*
X31619Y55256D01*
X31588Y55256D01*
X35052Y51792D01*
X35557Y51792D01*
X36088Y52324D01*
X35408Y53005D01*
X35408Y54183D01*
X36088Y54864D01*
X35408Y55545D01*
X35408Y56723D01*
X36241Y57556D01*
X37419Y57556D01*
X37683Y57292D01*
X38815Y57292D01*
X55363Y73841D01*
X55656Y74134D01*
X56039Y74292D01*
X58569Y74292D01*
X58566Y74296D01*
X58376Y74753D01*
X58376Y75249D01*
X58497Y75540D01*
X57450Y75540D01*
X56769Y76220D01*
X56088Y75540D01*
X54910Y75540D01*
X54229Y76220D01*
X53548Y75540D01*
X53257Y75540D01*
X44287Y66570D01*
X44287Y65470D01*
X44301Y65456D01*
X44491Y64999D01*
X44491Y64503D01*
X44301Y64046D01*
X44446Y64396D02*
X45918Y64396D01*
X46425Y64902D02*
X44491Y64902D01*
X44321Y65409D02*
X46931Y65409D01*
X47438Y65916D02*
X44287Y65916D01*
X44287Y66422D02*
X47944Y66422D01*
X48451Y66929D02*
X44646Y66929D01*
X45153Y67435D02*
X48957Y67435D01*
X49464Y67942D02*
X45659Y67942D01*
X46166Y68448D02*
X49970Y68448D01*
X50477Y68955D02*
X46672Y68955D01*
X47179Y69461D02*
X50983Y69461D01*
X51490Y69968D02*
X47685Y69968D01*
X48192Y70474D02*
X51996Y70474D01*
X52503Y70981D02*
X48698Y70981D01*
X49205Y71487D02*
X53009Y71487D01*
X53516Y71994D02*
X49711Y71994D01*
X50218Y72500D02*
X54022Y72500D01*
X54529Y73007D02*
X50724Y73007D01*
X51231Y73513D02*
X55035Y73513D01*
X55542Y74020D02*
X51737Y74020D01*
X52244Y74526D02*
X58471Y74526D01*
X58376Y75033D02*
X52750Y75033D01*
X53257Y75539D02*
X58497Y75539D01*
X56944Y76046D02*
X56594Y76046D01*
X54404Y76046D02*
X54054Y76046D01*
X50311Y75539D02*
X48132Y75539D01*
X47625Y75033D02*
X49805Y75033D01*
X49298Y74526D02*
X47119Y74526D01*
X46612Y74020D02*
X48792Y74020D01*
X48285Y73513D02*
X46106Y73513D01*
X45599Y73007D02*
X47779Y73007D01*
X47272Y72500D02*
X45093Y72500D01*
X45753Y70981D02*
X37628Y70981D01*
X37741Y71487D02*
X46259Y71487D01*
X46766Y71994D02*
X37639Y71994D01*
X37229Y70474D02*
X45246Y70474D01*
X44740Y69968D02*
X36435Y69968D01*
X35929Y69461D02*
X44233Y69461D01*
X43727Y68955D02*
X35422Y68955D01*
X34916Y68448D02*
X43220Y68448D01*
X42714Y67942D02*
X34409Y67942D01*
X33903Y67435D02*
X42299Y67435D01*
X42205Y66929D02*
X33396Y66929D01*
X32890Y66422D02*
X42205Y66422D01*
X42205Y65916D02*
X32412Y65916D01*
X32412Y65409D02*
X42171Y65409D01*
X42001Y64902D02*
X32412Y64902D01*
X32412Y64396D02*
X42046Y64396D01*
X42347Y63889D02*
X32412Y63889D01*
X32412Y63383D02*
X44905Y63383D01*
X44399Y62876D02*
X32412Y62876D01*
X32412Y62370D02*
X43892Y62370D01*
X43386Y61863D02*
X32412Y61863D01*
X32412Y61357D02*
X42879Y61357D01*
X42373Y60850D02*
X32412Y60850D01*
X32412Y60344D02*
X41866Y60344D01*
X41360Y59837D02*
X32412Y59837D01*
X32412Y59331D02*
X40853Y59331D01*
X40347Y58824D02*
X32412Y58824D01*
X32412Y58318D02*
X39840Y58318D01*
X39334Y57811D02*
X32412Y57811D01*
X32412Y57305D02*
X35989Y57305D01*
X35483Y56798D02*
X32595Y56798D01*
X32616Y56292D02*
X35408Y56292D01*
X35408Y55785D02*
X32416Y55785D01*
X31673Y55279D02*
X35673Y55279D01*
X35997Y54772D02*
X32072Y54772D01*
X32579Y54266D02*
X35490Y54266D01*
X35408Y53759D02*
X33085Y53759D01*
X33592Y53253D02*
X35408Y53253D01*
X35666Y52746D02*
X34098Y52746D01*
X34605Y52240D02*
X36004Y52240D01*
X37656Y52240D02*
X46164Y52240D01*
X45826Y52746D02*
X39464Y52746D01*
X39971Y53253D02*
X45568Y53253D01*
X45568Y53759D02*
X40477Y53759D01*
X40984Y54266D02*
X45650Y54266D01*
X46157Y54772D02*
X41490Y54772D01*
X41997Y55279D02*
X45833Y55279D01*
X45568Y55785D02*
X42503Y55785D01*
X43010Y56292D02*
X45568Y56292D01*
X45643Y56798D02*
X43516Y56798D01*
X38827Y57305D02*
X37671Y57305D01*
X38162Y51733D02*
X45658Y51733D01*
X45374Y51227D02*
X38252Y51227D01*
X38252Y50720D02*
X44868Y50720D01*
X44361Y50214D02*
X38002Y50214D01*
X37495Y49707D02*
X43855Y49707D01*
X43348Y49201D02*
X27269Y49201D01*
X27775Y48694D02*
X42842Y48694D01*
X42335Y48188D02*
X28282Y48188D01*
X28788Y47681D02*
X41829Y47681D01*
X41322Y47175D02*
X37641Y47175D01*
X37419Y47396D02*
X36241Y47396D01*
X35408Y46563D01*
X35408Y45385D01*
X36088Y44704D01*
X35408Y44023D01*
X35408Y42845D01*
X36241Y42012D01*
X37419Y42012D01*
X38252Y42845D01*
X38252Y44023D01*
X37572Y44704D01*
X38252Y45385D01*
X38252Y46563D01*
X37419Y47396D01*
X38147Y46668D02*
X40816Y46668D01*
X40309Y46162D02*
X38252Y46162D01*
X38252Y45655D02*
X39803Y45655D01*
X39580Y45149D02*
X38017Y45149D01*
X37633Y44642D02*
X39580Y44642D01*
X39580Y44136D02*
X38140Y44136D01*
X38252Y43630D02*
X39580Y43630D01*
X39580Y43123D02*
X38252Y43123D01*
X38024Y42617D02*
X39580Y42617D01*
X39580Y42110D02*
X37518Y42110D01*
X36142Y42110D02*
X34360Y42110D01*
X34866Y41604D02*
X39580Y41604D01*
X39580Y41097D02*
X35373Y41097D01*
X35474Y40996D02*
X22912Y53557D01*
X22912Y58208D01*
X22754Y58591D01*
X19533Y61812D01*
X19533Y62597D01*
X18655Y63475D01*
X17413Y63475D01*
X16535Y62597D01*
X16535Y61355D01*
X17413Y60477D01*
X17922Y60477D01*
X20830Y57570D01*
X20830Y52919D01*
X20988Y52536D01*
X21281Y52243D01*
X34001Y39523D01*
X34001Y39503D01*
X34191Y39046D01*
X34541Y38696D01*
X34998Y38506D01*
X35494Y38506D01*
X35951Y38696D01*
X36301Y39046D01*
X36491Y39503D01*
X36491Y39999D01*
X36301Y40456D01*
X35951Y40806D01*
X35494Y40996D01*
X35474Y40996D01*
X36167Y40591D02*
X39580Y40591D01*
X39580Y40084D02*
X36455Y40084D01*
X36491Y39578D02*
X39100Y39578D01*
X38593Y39071D02*
X36311Y39071D01*
X35634Y38565D02*
X38087Y38565D01*
X37580Y38058D02*
X19095Y38058D01*
X19533Y38495D02*
X18655Y37617D01*
X17413Y37617D01*
X16535Y38495D01*
X16535Y39737D01*
X17413Y40615D01*
X18655Y40615D01*
X19533Y39737D01*
X19533Y38495D01*
X19533Y38565D02*
X34858Y38565D01*
X34181Y39071D02*
X19533Y39071D01*
X19533Y39578D02*
X33947Y39578D01*
X33440Y40084D02*
X19185Y40084D01*
X18679Y40591D02*
X32934Y40591D01*
X32427Y41097D02*
X13748Y41097D01*
X13537Y41604D02*
X17237Y41604D01*
X17413Y41427D02*
X18655Y41427D01*
X19533Y42305D01*
X19533Y43547D01*
X18655Y44425D01*
X17413Y44425D01*
X16535Y43547D01*
X16535Y42305D01*
X17413Y41427D01*
X17389Y40591D02*
X14254Y40591D01*
X14761Y40084D02*
X16883Y40084D01*
X16535Y39578D02*
X15267Y39578D01*
X15774Y39071D02*
X16535Y39071D01*
X16535Y38565D02*
X16280Y38565D01*
X16787Y38058D02*
X16973Y38058D01*
X17293Y37552D02*
X37074Y37552D01*
X36567Y37045D02*
X17800Y37045D01*
X18921Y36539D02*
X36061Y36539D01*
X35554Y36032D02*
X19427Y36032D01*
X19533Y35526D02*
X35048Y35526D01*
X34404Y35019D02*
X33414Y35019D01*
X31864Y35019D02*
X30874Y35019D01*
X29324Y35019D02*
X28334Y35019D01*
X26784Y35019D02*
X19533Y35019D01*
X19360Y34513D02*
X26278Y34513D01*
X26137Y34006D02*
X18853Y34006D01*
X18655Y32995D02*
X17413Y32995D01*
X16535Y32117D01*
X16535Y30875D01*
X17413Y29997D01*
X18655Y29997D01*
X19533Y30875D01*
X19533Y32117D01*
X18655Y32995D01*
X18656Y32993D02*
X26336Y32993D01*
X26137Y33500D02*
X01168Y33500D01*
X01168Y34006D02*
X17215Y34006D01*
X16708Y34513D02*
X01168Y34513D01*
X01168Y35019D02*
X16535Y35019D01*
X16374Y35526D02*
X01168Y35526D01*
X01168Y36032D02*
X15867Y36032D01*
X15361Y36539D02*
X01168Y36539D01*
X01168Y37045D02*
X14854Y37045D01*
X14348Y37552D02*
X01168Y37552D01*
X01168Y38058D02*
X13841Y38058D01*
X13335Y38565D02*
X01168Y38565D01*
X01168Y39071D02*
X12828Y39071D01*
X12322Y39578D02*
X01168Y39578D01*
X01168Y40084D02*
X11815Y40084D01*
X11487Y40591D02*
X01168Y40591D01*
X01168Y41097D02*
X11455Y41097D01*
X11455Y41604D02*
X01168Y41604D01*
X01168Y42110D02*
X11455Y42110D01*
X11455Y42617D02*
X01168Y42617D01*
X01168Y43123D02*
X11455Y43123D01*
X11455Y43630D02*
X01168Y43630D01*
X01168Y44136D02*
X11455Y44136D01*
X11455Y44642D02*
X01168Y44642D01*
X01168Y45149D02*
X11455Y45149D01*
X11455Y45655D02*
X01168Y45655D01*
X01168Y46162D02*
X11455Y46162D01*
X11455Y46668D02*
X01168Y46668D01*
X01168Y47175D02*
X11455Y47175D01*
X11455Y47681D02*
X01168Y47681D01*
X01168Y48188D02*
X11455Y48188D01*
X11455Y48694D02*
X01168Y48694D01*
X01168Y49201D02*
X11455Y49201D01*
X11455Y49707D02*
X01168Y49707D01*
X01168Y50214D02*
X11455Y50214D01*
X11455Y50720D02*
X01168Y50720D01*
X01168Y51227D02*
X11455Y51227D01*
X11455Y51733D02*
X01168Y51733D01*
X01168Y52240D02*
X11455Y52240D01*
X11455Y52746D02*
X01168Y52746D01*
X01168Y53253D02*
X11455Y53253D01*
X11455Y53759D02*
X01168Y53759D01*
X01168Y54266D02*
X11455Y54266D01*
X11455Y54772D02*
X01168Y54772D01*
X01168Y55279D02*
X11455Y55279D01*
X11455Y55785D02*
X01168Y55785D01*
X01168Y56292D02*
X11455Y56292D01*
X11455Y56798D02*
X06086Y56798D01*
X05955Y56667D02*
X06833Y57545D01*
X06833Y58787D01*
X06287Y59332D01*
X06287Y60810D01*
X06833Y61355D01*
X06833Y62597D01*
X06502Y62927D01*
X06502Y66791D01*
X06604Y66892D01*
X07025Y66471D01*
X07576Y66243D01*
X08172Y66243D01*
X08723Y66471D01*
X09144Y66893D01*
X09373Y67444D01*
X09373Y69716D01*
X09144Y70267D01*
X08723Y70689D01*
X08172Y70917D01*
X07576Y70917D01*
X07025Y70689D01*
X06604Y70268D01*
X06183Y70689D01*
X05632Y70917D01*
X05036Y70917D01*
X04485Y70689D01*
X04064Y70267D01*
X03835Y69716D01*
X03835Y67444D01*
X04064Y66893D01*
X04166Y66791D01*
X04166Y62927D01*
X03835Y62597D01*
X03835Y61355D01*
X04205Y60986D01*
X04205Y59156D01*
X03835Y58787D01*
X03835Y57545D01*
X04713Y56667D01*
X05955Y56667D01*
X06592Y57305D02*
X11455Y57305D01*
X11455Y57811D02*
X06833Y57811D01*
X06833Y58318D02*
X11455Y58318D01*
X11455Y58824D02*
X06795Y58824D01*
X06288Y59331D02*
X11455Y59331D01*
X11455Y59837D02*
X06287Y59837D01*
X06287Y60344D02*
X11455Y60344D01*
X11455Y60850D02*
X06328Y60850D01*
X06833Y61357D02*
X11455Y61357D01*
X11455Y61863D02*
X06833Y61863D01*
X06833Y62370D02*
X11455Y62370D01*
X11455Y62876D02*
X06553Y62876D01*
X06502Y63383D02*
X11455Y63383D01*
X11455Y63889D02*
X06502Y63889D01*
X06502Y64396D02*
X11455Y64396D01*
X11455Y64902D02*
X06502Y64902D01*
X06502Y65409D02*
X11455Y65409D01*
X11455Y65916D02*
X06502Y65916D01*
X06502Y66422D02*
X07144Y66422D01*
X08604Y66422D02*
X11455Y66422D01*
X11455Y66929D02*
X09159Y66929D01*
X09369Y67435D02*
X11455Y67435D01*
X11455Y67942D02*
X09373Y67942D01*
X09373Y68448D02*
X11455Y68448D01*
X11455Y68955D02*
X09373Y68955D01*
X09373Y69461D02*
X11455Y69461D01*
X11432Y69968D02*
X09269Y69968D01*
X08938Y70474D02*
X10925Y70474D01*
X10419Y70981D02*
X01168Y70981D01*
X01168Y71487D02*
X09912Y71487D01*
X09406Y71994D02*
X01168Y71994D01*
X01168Y72500D02*
X08899Y72500D01*
X08393Y73007D02*
X01168Y73007D01*
X01168Y73513D02*
X07886Y73513D01*
X07705Y74020D02*
X01168Y74020D01*
X01168Y74526D02*
X07705Y74526D01*
X07705Y75033D02*
X01168Y75033D01*
X01168Y75539D02*
X07705Y75539D01*
X07793Y76046D02*
X01168Y76046D01*
X01168Y76552D02*
X08199Y76552D01*
X08706Y77059D02*
X01168Y77059D01*
X01168Y77565D02*
X09212Y77565D01*
X09719Y78072D02*
X01168Y78072D01*
X01168Y78578D02*
X10225Y78578D01*
X10732Y79085D02*
X01168Y79085D01*
X01168Y79591D02*
X11080Y79591D01*
X11080Y80098D02*
X01168Y80098D01*
X01168Y80604D02*
X11080Y80604D01*
X11080Y81111D02*
X01168Y81111D01*
X01168Y81617D02*
X11264Y81617D01*
X11771Y82124D02*
X01168Y82124D01*
X01168Y82630D02*
X12277Y82630D01*
X12784Y83137D02*
X01168Y83137D01*
X01168Y83643D02*
X13290Y83643D01*
X13797Y84150D02*
X09186Y84150D01*
X09183Y84146D02*
X09834Y84797D01*
X10185Y85646D01*
X10185Y86566D01*
X09834Y87415D01*
X09183Y88066D01*
X08334Y88417D01*
X07414Y88417D01*
X06565Y88066D01*
X05914Y87415D01*
X05563Y86566D01*
X05563Y85646D01*
X05914Y84797D01*
X06565Y84146D01*
X07414Y83795D01*
X08334Y83795D01*
X09183Y84146D01*
X09693Y84656D02*
X14303Y84656D01*
X14810Y85163D02*
X09985Y85163D01*
X10185Y85669D02*
X15316Y85669D01*
X15823Y86176D02*
X10185Y86176D01*
X10137Y86682D02*
X16329Y86682D01*
X16836Y87189D02*
X09927Y87189D01*
X09554Y87695D02*
X17342Y87695D01*
X17849Y88201D02*
X08855Y88201D01*
X06893Y88201D02*
X01168Y88201D01*
X01168Y87695D02*
X06194Y87695D01*
X05821Y87189D02*
X01168Y87189D01*
X01168Y86682D02*
X05611Y86682D01*
X05563Y86176D02*
X01168Y86176D01*
X01168Y85669D02*
X05563Y85669D01*
X05763Y85163D02*
X01168Y85163D01*
X01168Y84656D02*
X06055Y84656D01*
X06562Y84150D02*
X01168Y84150D01*
X01168Y88708D02*
X18355Y88708D01*
X18862Y89214D02*
X01168Y89214D01*
X01168Y89721D02*
X19368Y89721D01*
X19875Y90227D02*
X01168Y90227D01*
X13162Y80570D02*
X21427Y88835D01*
X44565Y88835D01*
X44855Y88544D01*
X44369Y88544D01*
X43688Y87864D01*
X43007Y88544D01*
X41829Y88544D01*
X41327Y88042D01*
X40969Y88042D01*
X40467Y88544D01*
X39289Y88544D01*
X38787Y88042D01*
X38429Y88042D01*
X37927Y88544D01*
X36749Y88544D01*
X36247Y88042D01*
X35889Y88042D01*
X35387Y88544D01*
X34209Y88544D01*
X33707Y88042D01*
X33349Y88042D01*
X32847Y88544D01*
X31669Y88544D01*
X30836Y87711D01*
X30836Y86533D01*
X31516Y85852D01*
X30836Y85171D01*
X30836Y84188D01*
X29281Y82634D01*
X28988Y82341D01*
X28830Y81958D01*
X28830Y81044D01*
X28879Y80924D01*
X27986Y80924D01*
X27305Y80244D01*
X26624Y80924D01*
X25446Y80924D01*
X24613Y80091D01*
X24613Y78913D01*
X25080Y78446D01*
X25080Y78018D01*
X24613Y77551D01*
X24613Y76373D01*
X25446Y75540D01*
X26624Y75540D01*
X27305Y76220D01*
X27986Y75540D01*
X29164Y75540D01*
X29845Y76220D01*
X30526Y75540D01*
X31704Y75540D01*
X32385Y76220D01*
X33066Y75540D01*
X34244Y75540D01*
X34925Y76220D01*
X35606Y75540D01*
X36247Y75540D01*
X36126Y75249D01*
X36126Y74753D01*
X36316Y74296D01*
X36319Y74292D01*
X16427Y74292D01*
X13162Y77557D01*
X13162Y80570D01*
X13197Y80604D02*
X14965Y80604D01*
X15286Y80924D02*
X14453Y80091D01*
X14453Y78913D01*
X14955Y78411D01*
X14955Y78053D01*
X14453Y77551D01*
X14453Y76373D01*
X15286Y75540D01*
X16464Y75540D01*
X17145Y76220D01*
X17826Y75540D01*
X19004Y75540D01*
X19685Y76220D01*
X20366Y75540D01*
X21544Y75540D01*
X22377Y76373D01*
X22377Y77551D01*
X21697Y78232D01*
X22377Y78913D01*
X22377Y80091D01*
X21544Y80924D01*
X20366Y80924D01*
X19685Y80244D01*
X19004Y80924D01*
X17826Y80924D01*
X17145Y80244D01*
X16464Y80924D01*
X15286Y80924D01*
X14459Y80098D02*
X13162Y80098D01*
X13162Y79591D02*
X14453Y79591D01*
X14453Y79085D02*
X13162Y79085D01*
X13162Y78578D02*
X14787Y78578D01*
X14955Y78072D02*
X13162Y78072D01*
X13162Y77565D02*
X14466Y77565D01*
X14453Y77059D02*
X13661Y77059D01*
X14168Y76552D02*
X14453Y76552D01*
X14674Y76046D02*
X14780Y76046D01*
X15181Y75539D02*
X36247Y75539D01*
X36126Y75033D02*
X15687Y75033D01*
X16194Y74526D02*
X36221Y74526D01*
X35100Y76046D02*
X34750Y76046D01*
X32560Y76046D02*
X32210Y76046D01*
X30020Y76046D02*
X29670Y76046D01*
X27480Y76046D02*
X27130Y76046D01*
X24940Y76046D02*
X22050Y76046D01*
X22377Y76552D02*
X24613Y76552D01*
X24613Y77059D02*
X22377Y77059D01*
X22364Y77565D02*
X24626Y77565D01*
X25080Y78072D02*
X21857Y78072D01*
X22043Y78578D02*
X24947Y78578D01*
X24613Y79085D02*
X22377Y79085D01*
X22377Y79591D02*
X24613Y79591D01*
X24619Y80098D02*
X22371Y80098D01*
X21865Y80604D02*
X25125Y80604D01*
X26945Y80604D02*
X27665Y80604D01*
X28830Y81111D02*
X13703Y81111D01*
X14210Y81617D02*
X28830Y81617D01*
X28898Y82124D02*
X14716Y82124D01*
X15223Y82630D02*
X29277Y82630D01*
X29784Y83137D02*
X15729Y83137D01*
X16236Y83643D02*
X30290Y83643D01*
X30797Y84150D02*
X16742Y84150D01*
X17249Y84656D02*
X30836Y84656D01*
X30836Y85163D02*
X17755Y85163D01*
X18262Y85669D02*
X31333Y85669D01*
X31193Y86176D02*
X18768Y86176D01*
X19275Y86682D02*
X30836Y86682D01*
X30836Y87189D02*
X19781Y87189D01*
X20288Y87695D02*
X30836Y87695D01*
X31326Y88201D02*
X20794Y88201D01*
X21301Y88708D02*
X44691Y88708D01*
X44026Y88201D02*
X43350Y88201D01*
X41486Y88201D02*
X40810Y88201D01*
X38946Y88201D02*
X38270Y88201D01*
X36406Y88201D02*
X35730Y88201D01*
X33866Y88201D02*
X33190Y88201D01*
X20045Y80604D02*
X19325Y80604D01*
X17505Y80604D02*
X16785Y80604D01*
X16970Y76046D02*
X17320Y76046D01*
X19510Y76046D02*
X19860Y76046D01*
X17090Y70460D02*
X33277Y70460D01*
X33291Y70446D01*
X33748Y70256D01*
X33779Y70256D01*
X30488Y66966D01*
X30330Y66583D01*
X30330Y57220D01*
X30316Y57206D01*
X30126Y56749D01*
X30126Y56718D01*
X16588Y70256D01*
X16619Y70256D01*
X17076Y70446D01*
X17090Y70460D01*
X16877Y69968D02*
X33490Y69968D01*
X32983Y69461D02*
X17384Y69461D01*
X17890Y68955D02*
X32477Y68955D01*
X31970Y68448D02*
X18397Y68448D01*
X18903Y67942D02*
X31464Y67942D01*
X30957Y67435D02*
X19410Y67435D01*
X19916Y66929D02*
X30473Y66929D01*
X30330Y66422D02*
X20423Y66422D01*
X20929Y65916D02*
X30330Y65916D01*
X30330Y65409D02*
X21436Y65409D01*
X21942Y64902D02*
X30330Y64902D01*
X30330Y64396D02*
X22449Y64396D01*
X22955Y63889D02*
X30330Y63889D01*
X30330Y63383D02*
X23462Y63383D01*
X23968Y62876D02*
X30330Y62876D01*
X30330Y62370D02*
X24475Y62370D01*
X24981Y61863D02*
X30330Y61863D01*
X30330Y61357D02*
X25488Y61357D01*
X25994Y60850D02*
X30330Y60850D01*
X30330Y60344D02*
X26501Y60344D01*
X27007Y59837D02*
X30330Y59837D01*
X30330Y59331D02*
X27514Y59331D01*
X28020Y58824D02*
X30330Y58824D01*
X30330Y58318D02*
X28527Y58318D01*
X29033Y57811D02*
X30330Y57811D01*
X30330Y57305D02*
X29540Y57305D01*
X30046Y56798D02*
X30147Y56798D01*
X28620Y55279D02*
X22912Y55279D01*
X22912Y55785D02*
X28114Y55785D01*
X27607Y56292D02*
X22912Y56292D01*
X22912Y56798D02*
X27101Y56798D01*
X26594Y57305D02*
X22912Y57305D01*
X22912Y57811D02*
X26088Y57811D01*
X25581Y58318D02*
X22867Y58318D01*
X22520Y58824D02*
X25075Y58824D01*
X24568Y59331D02*
X22014Y59331D01*
X21507Y59837D02*
X24062Y59837D01*
X23555Y60344D02*
X21001Y60344D01*
X20494Y60850D02*
X23049Y60850D01*
X22542Y61357D02*
X19988Y61357D01*
X19533Y61863D02*
X22036Y61863D01*
X21529Y62370D02*
X19533Y62370D01*
X19253Y62876D02*
X21023Y62876D01*
X20516Y63383D02*
X18746Y63383D01*
X20010Y63889D02*
X13537Y63889D01*
X13537Y63383D02*
X17322Y63383D01*
X16815Y62876D02*
X13537Y62876D01*
X13537Y62370D02*
X16535Y62370D01*
X16535Y61863D02*
X13537Y61863D01*
X13537Y61357D02*
X16535Y61357D01*
X17040Y60850D02*
X13537Y60850D01*
X13537Y60344D02*
X18055Y60344D01*
X18562Y59837D02*
X13537Y59837D01*
X13537Y59331D02*
X19068Y59331D01*
X19575Y58824D02*
X13537Y58824D01*
X13537Y58318D02*
X20081Y58318D01*
X20588Y57811D02*
X13537Y57811D01*
X13537Y57305D02*
X20830Y57305D01*
X20830Y56798D02*
X13537Y56798D01*
X13537Y56292D02*
X20830Y56292D01*
X20830Y55785D02*
X18724Y55785D01*
X18655Y55855D02*
X19533Y54977D01*
X19533Y53735D01*
X18655Y52857D01*
X17413Y52857D01*
X16535Y53735D01*
X16535Y54977D01*
X17413Y55855D01*
X18655Y55855D01*
X19230Y55279D02*
X20830Y55279D01*
X20830Y54772D02*
X19533Y54772D01*
X19533Y54266D02*
X20830Y54266D01*
X20830Y53759D02*
X19533Y53759D01*
X19050Y53253D02*
X20830Y53253D01*
X20901Y52746D02*
X13537Y52746D01*
X13537Y52240D02*
X21284Y52240D01*
X21791Y51733D02*
X18966Y51733D01*
X18655Y52045D02*
X19533Y51167D01*
X19533Y49925D01*
X18655Y49047D01*
X17413Y49047D01*
X16535Y49925D01*
X16535Y51167D01*
X17413Y52045D01*
X18655Y52045D01*
X19472Y51227D02*
X22297Y51227D01*
X22804Y50720D02*
X19533Y50720D01*
X19533Y50214D02*
X23310Y50214D01*
X23817Y49707D02*
X19315Y49707D01*
X18808Y49201D02*
X24323Y49201D01*
X24830Y48694D02*
X13537Y48694D01*
X13537Y48188D02*
X17367Y48188D01*
X17413Y48235D02*
X16535Y47357D01*
X16535Y46115D01*
X17413Y45237D01*
X18655Y45237D01*
X19533Y46115D01*
X19533Y47357D01*
X18655Y48235D01*
X17413Y48235D01*
X16860Y47681D02*
X13537Y47681D01*
X13537Y47175D02*
X16535Y47175D01*
X16535Y46668D02*
X13537Y46668D01*
X13537Y46162D02*
X16535Y46162D01*
X16995Y45655D02*
X13537Y45655D01*
X13537Y45149D02*
X28375Y45149D01*
X27869Y45655D02*
X19073Y45655D01*
X19533Y46162D02*
X27362Y46162D01*
X26856Y46668D02*
X19533Y46668D01*
X19533Y47175D02*
X26349Y47175D01*
X25843Y47681D02*
X19208Y47681D01*
X18701Y48188D02*
X25336Y48188D01*
X26762Y49707D02*
X36165Y49707D01*
X33685Y50214D02*
X26256Y50214D01*
X25749Y50720D02*
X33179Y50720D01*
X32672Y51227D02*
X25243Y51227D01*
X24736Y51733D02*
X32166Y51733D01*
X31659Y52240D02*
X24230Y52240D01*
X23723Y52746D02*
X31153Y52746D01*
X30646Y53253D02*
X23217Y53253D01*
X22912Y53759D02*
X30140Y53759D01*
X29633Y54266D02*
X22912Y54266D01*
X22912Y54772D02*
X29127Y54772D01*
X29295Y47175D02*
X36019Y47175D01*
X35513Y46668D02*
X29801Y46668D01*
X30308Y46162D02*
X35408Y46162D01*
X35408Y45655D02*
X30814Y45655D01*
X31321Y45149D02*
X35643Y45149D01*
X36027Y44642D02*
X31827Y44642D01*
X32334Y44136D02*
X35520Y44136D01*
X35408Y43630D02*
X32840Y43630D01*
X33347Y43123D02*
X35408Y43123D01*
X35636Y42617D02*
X33853Y42617D01*
X31921Y41604D02*
X18831Y41604D01*
X19337Y42110D02*
X31414Y42110D01*
X30908Y42617D02*
X19533Y42617D01*
X19533Y43123D02*
X30401Y43123D01*
X29895Y43630D02*
X19450Y43630D01*
X18943Y44136D02*
X29388Y44136D01*
X28882Y44642D02*
X13537Y44642D01*
X13537Y44136D02*
X17125Y44136D01*
X16618Y43630D02*
X13537Y43630D01*
X13537Y43123D02*
X16535Y43123D01*
X16535Y42617D02*
X13537Y42617D01*
X13537Y42110D02*
X16731Y42110D01*
X17260Y49201D02*
X13537Y49201D01*
X13537Y49707D02*
X16753Y49707D01*
X16535Y50214D02*
X13537Y50214D01*
X13537Y50720D02*
X16535Y50720D01*
X16596Y51227D02*
X13537Y51227D01*
X13537Y51733D02*
X17102Y51733D01*
X17018Y53253D02*
X13537Y53253D01*
X13537Y53759D02*
X16535Y53759D01*
X16535Y54266D02*
X13537Y54266D01*
X13537Y54772D02*
X16535Y54772D01*
X16838Y55279D02*
X13537Y55279D01*
X13537Y55785D02*
X17344Y55785D01*
X19503Y64396D02*
X13537Y64396D01*
X13537Y64902D02*
X18997Y64902D01*
X18490Y65409D02*
X13537Y65409D01*
X13537Y65916D02*
X17984Y65916D01*
X17477Y66422D02*
X13537Y66422D01*
X13537Y66929D02*
X16971Y66929D01*
X16464Y67435D02*
X13537Y67435D01*
X13537Y67942D02*
X15958Y67942D01*
X15451Y68448D02*
X13537Y68448D01*
X13537Y68955D02*
X14945Y68955D01*
X14438Y69461D02*
X13537Y69461D01*
X13537Y69968D02*
X13932Y69968D01*
X06810Y70474D02*
X06398Y70474D01*
X04270Y70474D02*
X01168Y70474D01*
X01168Y69968D02*
X03939Y69968D01*
X03835Y69461D02*
X01168Y69461D01*
X01168Y68955D02*
X03835Y68955D01*
X03835Y68448D02*
X01168Y68448D01*
X01168Y67942D02*
X03835Y67942D01*
X03839Y67435D02*
X01168Y67435D01*
X01168Y66929D02*
X04049Y66929D01*
X04166Y66422D02*
X01168Y66422D01*
X01168Y65916D02*
X04166Y65916D01*
X04166Y65409D02*
X01168Y65409D01*
X01168Y64902D02*
X04166Y64902D01*
X04166Y64396D02*
X01168Y64396D01*
X01168Y63889D02*
X04166Y63889D01*
X04166Y63383D02*
X01168Y63383D01*
X01168Y62876D02*
X04115Y62876D01*
X03835Y62370D02*
X01168Y62370D01*
X01168Y61863D02*
X03835Y61863D01*
X03835Y61357D02*
X01168Y61357D01*
X01168Y60850D02*
X04205Y60850D01*
X04205Y60344D02*
X01168Y60344D01*
X01168Y59837D02*
X04205Y59837D01*
X04205Y59331D02*
X01168Y59331D01*
X01168Y58824D02*
X03873Y58824D01*
X03835Y58318D02*
X01168Y58318D01*
X01168Y57811D02*
X03835Y57811D01*
X04076Y57305D02*
X01168Y57305D01*
X01168Y56798D02*
X04582Y56798D01*
X01168Y32993D02*
X17412Y32993D01*
X16905Y32486D02*
X01168Y32486D01*
X01168Y31980D02*
X16535Y31980D01*
X16535Y31473D02*
X01168Y31473D01*
X01168Y30967D02*
X16535Y30967D01*
X16950Y30460D02*
X01168Y30460D01*
X01168Y29954D02*
X26835Y29954D01*
X26329Y30460D02*
X19118Y30460D01*
X19533Y30967D02*
X26137Y30967D01*
X26137Y31473D02*
X19533Y31473D01*
X19533Y31980D02*
X26285Y31980D01*
X26580Y32486D02*
X19163Y32486D01*
X26174Y25902D02*
X01168Y25902D01*
X01168Y26408D02*
X26681Y26408D01*
X27187Y26915D02*
X01168Y26915D01*
X01168Y27421D02*
X27694Y27421D01*
X28200Y27928D02*
X01168Y27928D01*
X01168Y28434D02*
X28707Y28434D01*
X29213Y28941D02*
X01168Y28941D01*
X01168Y29447D02*
X29720Y29447D01*
X29375Y29954D02*
X28283Y29954D01*
X28789Y30460D02*
X28869Y30460D01*
X31146Y27928D02*
X43325Y27928D01*
X42819Y27421D02*
X30639Y27421D01*
X30133Y26915D02*
X42312Y26915D01*
X41806Y26408D02*
X29626Y26408D01*
X29120Y25902D02*
X41299Y25902D01*
X40793Y25395D02*
X28613Y25395D01*
X28107Y24889D02*
X40286Y24889D01*
X39780Y24382D02*
X27600Y24382D01*
X27094Y23876D02*
X39273Y23876D01*
X43832Y28434D02*
X31652Y28434D01*
X32159Y28941D02*
X44338Y28941D01*
X44845Y29447D02*
X32665Y29447D01*
X33363Y29954D02*
X34455Y29954D01*
X33949Y30460D02*
X33869Y30460D01*
X35903Y29954D02*
X42075Y29954D01*
X42210Y29820D02*
X43388Y29820D01*
X44221Y30653D01*
X44221Y31831D01*
X43787Y32265D01*
X43787Y32759D01*
X44221Y33193D01*
X44221Y34371D01*
X43388Y35204D01*
X42210Y35204D01*
X41377Y34371D01*
X41377Y33193D01*
X41705Y32865D01*
X41705Y32159D01*
X41377Y31831D01*
X41377Y30653D01*
X42210Y29820D01*
X41569Y30460D02*
X36409Y30460D01*
X36601Y30967D02*
X41377Y30967D01*
X41377Y31473D02*
X36601Y31473D01*
X36453Y31980D02*
X41525Y31980D01*
X41705Y32486D02*
X36162Y32486D01*
X36402Y32993D02*
X41576Y32993D01*
X41377Y33500D02*
X36601Y33500D01*
X36601Y34006D02*
X41377Y34006D01*
X41518Y34513D02*
X36980Y34513D01*
X37487Y35019D02*
X42024Y35019D01*
X43574Y35019D02*
X46853Y35019D01*
X46450Y34513D02*
X44080Y34513D01*
X44221Y34006D02*
X46279Y34006D01*
X46279Y33500D02*
X44221Y33500D01*
X44022Y32993D02*
X46474Y32993D01*
X46830Y32486D02*
X43787Y32486D01*
X44073Y31980D02*
X46453Y31980D01*
X46279Y31473D02*
X44221Y31473D01*
X44221Y30967D02*
X46279Y30967D01*
X45858Y30460D02*
X44029Y30460D01*
X43523Y29954D02*
X45351Y29954D01*
X48905Y35019D02*
X49393Y35019D01*
X51445Y35019D02*
X51933Y35019D01*
X53985Y35019D02*
X54473Y35019D01*
X56525Y35019D02*
X57013Y35019D01*
X59065Y35019D02*
X59553Y35019D01*
X61605Y35019D02*
X62093Y35019D01*
X64145Y35019D02*
X64633Y35019D01*
X65423Y35526D02*
X37993Y35526D01*
X38500Y36032D02*
X65929Y36032D01*
X66436Y36539D02*
X39006Y36539D01*
X39513Y37045D02*
X66942Y37045D01*
X62144Y29954D02*
X61554Y29954D01*
X48184Y42617D02*
X96800Y42617D01*
X96800Y43123D02*
X48412Y43123D01*
X48412Y43630D02*
X96800Y43630D01*
X96800Y44136D02*
X48300Y44136D01*
X47793Y44642D02*
X96800Y44642D01*
X96800Y45149D02*
X48177Y45149D01*
X48412Y45655D02*
X96800Y45655D01*
X96800Y46162D02*
X48880Y46162D01*
X49386Y46668D02*
X96800Y46668D01*
X96800Y42110D02*
X47678Y42110D01*
X61429Y60344D02*
X62269Y60344D01*
X74031Y50214D02*
X75577Y50214D01*
X74830Y49707D02*
X74778Y49707D01*
X88593Y72500D02*
X96800Y72500D01*
X96800Y73007D02*
X89099Y73007D01*
X89606Y73513D02*
X96800Y73513D01*
X96800Y74020D02*
X90112Y74020D01*
X90619Y74526D02*
X96800Y74526D01*
X96800Y75033D02*
X91125Y75033D01*
X91632Y75539D02*
X96800Y75539D01*
X96800Y76046D02*
X92138Y76046D01*
X92645Y76552D02*
X96800Y76552D01*
X96800Y77059D02*
X93151Y77059D01*
X93658Y77565D02*
X96800Y77565D01*
X96800Y78072D02*
X94164Y78072D01*
X94671Y78578D02*
X96800Y78578D01*
X96800Y79085D02*
X95177Y79085D01*
X95412Y79591D02*
X96800Y79591D01*
X96800Y80098D02*
X95412Y80098D01*
X95412Y80604D02*
X96800Y80604D01*
X96800Y81111D02*
X95412Y81111D01*
X95412Y81617D02*
X96800Y81617D01*
X96800Y82124D02*
X95412Y82124D01*
X95412Y82630D02*
X96800Y82630D01*
X96800Y83137D02*
X95412Y83137D01*
X95412Y83643D02*
X96800Y83643D01*
X96800Y84150D02*
X95412Y84150D01*
X95412Y84656D02*
X96800Y84656D01*
X96800Y85163D02*
X95412Y85163D01*
X95806Y85669D02*
X96800Y85669D01*
X96800Y86176D02*
X96038Y86176D01*
X96088Y86682D02*
X96800Y86682D01*
X96800Y87189D02*
X95982Y87189D01*
X95670Y87695D02*
X96800Y87695D01*
X96800Y88201D02*
X94837Y88201D01*
X94139Y88201D02*
X92297Y88201D01*
X91599Y88201D02*
X89768Y88201D01*
X89262Y88708D02*
X96800Y88708D01*
X96800Y89214D02*
X88755Y89214D01*
X88249Y89721D02*
X96800Y89721D01*
X96800Y90227D02*
X87742Y90227D01*
X87236Y90734D02*
X96800Y90734D01*
X93306Y87695D02*
X93130Y87695D01*
X90766Y87695D02*
X90590Y87695D01*
X90085Y85163D02*
X91271Y85163D01*
X92625Y85163D02*
X93330Y85163D01*
X93330Y84656D02*
X64689Y84656D01*
X64182Y85163D02*
X77539Y85163D01*
X76898Y85669D02*
X70155Y85669D01*
X70510Y86176D02*
X76666Y86176D01*
X76616Y86682D02*
X70510Y86682D01*
X70510Y87189D02*
X76722Y87189D01*
X77034Y87695D02*
X70019Y87695D01*
X69143Y88201D02*
X77849Y88201D01*
X78355Y88708D02*
X68637Y88708D01*
X68130Y89214D02*
X78862Y89214D01*
X79368Y89721D02*
X67624Y89721D01*
X67117Y90227D02*
X79875Y90227D01*
X80381Y90734D02*
X66611Y90734D01*
X67615Y85669D02*
X68021Y85669D01*
X65481Y85669D02*
X65075Y85669D01*
X62756Y83643D02*
X60702Y83643D01*
X61208Y83137D02*
X63263Y83137D01*
X63769Y82630D02*
X61715Y82630D01*
X62221Y82124D02*
X87216Y82124D01*
X86448Y81617D02*
X62728Y81617D01*
X62250Y84150D02*
X60195Y84150D01*
X59689Y84656D02*
X61743Y84656D01*
X61237Y85163D02*
X59537Y85163D01*
X59995Y85669D02*
X60401Y85669D01*
X66569Y80604D02*
X67289Y80604D01*
X69109Y80604D02*
X69829Y80604D01*
X71649Y80604D02*
X72369Y80604D01*
X74189Y80604D02*
X74909Y80604D01*
X76729Y80604D02*
X77449Y80604D01*
X79269Y80604D02*
X79989Y80604D01*
X81809Y80604D02*
X82529Y80604D01*
X82619Y85163D02*
X81433Y85163D01*
X80079Y85163D02*
X78893Y85163D01*
X81105Y88201D02*
X82947Y88201D01*
X83645Y88201D02*
X86823Y88201D01*
X87329Y87695D02*
X84478Y87695D01*
X84790Y87189D02*
X87836Y87189D01*
X87808Y86682D02*
X84896Y86682D01*
X84846Y86176D02*
X87858Y86176D01*
X88090Y85669D02*
X84614Y85669D01*
X83973Y85163D02*
X88731Y85163D01*
X88608Y84150D02*
X93330Y84150D01*
X93330Y83643D02*
X88931Y83643D01*
X88991Y83137D02*
X93330Y83137D01*
X93330Y82630D02*
X88836Y82630D01*
X88276Y82124D02*
X93330Y82124D01*
X93330Y81617D02*
X88050Y81617D01*
X88837Y81111D02*
X93330Y81111D01*
X93330Y80604D02*
X89239Y80604D01*
X89449Y80098D02*
X93245Y80098D01*
X92738Y79591D02*
X89509Y79591D01*
X89509Y79085D02*
X92232Y79085D01*
X91725Y78578D02*
X89313Y78578D01*
X89015Y78072D02*
X91219Y78072D01*
X90712Y77565D02*
X88479Y77565D01*
X82114Y87695D02*
X81938Y87695D01*
X81301Y88708D02*
X86316Y88708D01*
X49324Y76046D02*
X48974Y76046D01*
X25668Y25395D02*
X01168Y25395D01*
X01168Y24889D02*
X25161Y24889D01*
X24656Y24384D02*
X24656Y24384D01*
X24655Y24382D02*
X01168Y24382D01*
X01168Y23876D02*
X24148Y23876D01*
X23642Y23369D02*
X01168Y23369D01*
X01168Y22863D02*
X23135Y22863D01*
X22629Y22356D02*
X01168Y22356D01*
X01168Y21850D02*
X22122Y21850D01*
X21616Y21344D02*
X01168Y21344D01*
X01168Y20837D02*
X21109Y20837D01*
X20609Y20331D02*
X01168Y20331D01*
X21097Y04123D02*
X58520Y04123D01*
X58013Y03616D02*
X21604Y03616D01*
X22110Y03109D02*
X57507Y03109D01*
X52642Y09188D02*
X52006Y09188D01*
X50102Y09188D02*
X49466Y09188D01*
X51319Y12226D02*
X54488Y12226D01*
X53982Y12733D02*
X51826Y12733D01*
X52332Y13239D02*
X53619Y13239D01*
X53153Y13746D02*
X52839Y13746D01*
X50001Y04629D02*
X49567Y04629D01*
X44921Y04629D02*
X44487Y04629D01*
D19*
X42164Y13208D03*
X49530Y14986D03*
X44450Y24638D03*
X57404Y26416D03*
X65532Y25146D03*
X66040Y13716D03*
X74168Y13208D03*
X81026Y14986D03*
X89662Y14732D03*
X91694Y05842D03*
X90678Y27940D03*
X85598Y33528D03*
X80264Y40386D03*
X64516Y41148D03*
X55880Y40386D03*
X56642Y48768D03*
X62738Y50546D03*
X72390Y57404D03*
X79502Y60198D03*
X82296Y66294D03*
X85852Y76708D03*
X82042Y81788D03*
X72390Y85344D03*
X61468Y69088D03*
X70104Y68834D03*
X52578Y59690D03*
X47244Y67818D03*
X34798Y66294D03*
X23114Y68072D03*
X15494Y66040D03*
X07620Y64770D03*
X05588Y78740D03*
X23876Y83820D03*
X44958Y39624D03*
X23876Y33020D03*
X17526Y26670D03*
X09398Y25400D03*
X06604Y15240D03*
X07112Y05842D03*
X32004Y06604D03*
X94742Y62230D03*
X94742Y73914D03*
D20*
X74930Y29210D03*
D21*
X39116Y59436D03*
X31496Y23368D03*
D22*
X05334Y61976D02*
X05334Y68580D01*
M02*
