G75*
%MOMM*%
%OFA0B0*%
%FSLAX33Y33*%
%IPPOS*%
%LPD*%
%AMOC8*
5,1,8,0,0,1.08239X$1,22.5*
%
%ADD10OC8,1.524*%
%ADD11OC8,1.676*%
%ADD12C,0.305*%
D10*
X07919Y06229D03*
X07919Y08769D03*
X10459Y08769D03*
X10459Y06229D03*
X12999Y06229D03*
X12999Y08769D03*
X26334Y08769D03*
X26334Y06229D03*
X28874Y06229D03*
X28874Y08769D03*
X31414Y08769D03*
X31414Y06229D03*
X44749Y06229D03*
X44749Y08769D03*
X47289Y08769D03*
X47289Y06229D03*
X49829Y06229D03*
X49829Y08769D03*
X63164Y08769D03*
X63164Y06229D03*
X65704Y06229D03*
X65704Y08769D03*
X68244Y08769D03*
X68244Y06229D03*
X81579Y06229D03*
X81579Y08769D03*
X84119Y08769D03*
X84119Y06229D03*
X86659Y06229D03*
X86659Y08769D03*
D11*
X88461Y13249D03*
X83439Y18419D03*
X83439Y20959D03*
X79387Y27169D03*
X83439Y33419D03*
X83439Y35959D03*
X88531Y27169D03*
X79317Y13249D03*
X70046Y13249D03*
X65024Y18419D03*
X65024Y20959D03*
X60972Y27169D03*
X65024Y33419D03*
X65024Y35959D03*
X70116Y27169D03*
X60902Y13249D03*
X51631Y13249D03*
X46609Y18419D03*
X46609Y20959D03*
X42557Y27169D03*
X46609Y33419D03*
X46609Y35959D03*
X51701Y27169D03*
X42487Y13249D03*
X33216Y13249D03*
X28194Y18419D03*
X28194Y20959D03*
X24142Y27169D03*
X28194Y33419D03*
X28194Y35959D03*
X33286Y27169D03*
X24072Y13249D03*
X14801Y13249D03*
X09779Y18419D03*
X09779Y20959D03*
X05727Y27169D03*
X09779Y33419D03*
X09779Y35959D03*
X14871Y27169D03*
X05657Y13249D03*
X05157Y56669D03*
X09779Y63419D03*
X09779Y65959D03*
X14331Y71789D03*
X09779Y78419D03*
X09779Y80959D03*
X05207Y87689D03*
X09779Y93419D03*
X09779Y95959D03*
X14351Y87689D03*
X23622Y87689D03*
X28194Y93419D03*
X28194Y95959D03*
X32766Y87689D03*
X28194Y80959D03*
X28194Y78419D03*
X32746Y71789D03*
X28194Y65959D03*
X28194Y63419D03*
X32716Y56669D03*
X23572Y56669D03*
X14301Y56669D03*
X05187Y71789D03*
X23602Y71789D03*
X42017Y71789D03*
X46609Y65959D03*
X46609Y63419D03*
X51131Y56669D03*
X41987Y56669D03*
X51161Y71789D03*
X46609Y78419D03*
X46609Y80959D03*
X42037Y87689D03*
X46609Y93419D03*
X46609Y95959D03*
X51181Y87689D03*
X60452Y87689D03*
X65024Y93419D03*
X65024Y95959D03*
X69596Y87689D03*
X65024Y80959D03*
X65024Y78419D03*
X69576Y71789D03*
X65024Y65959D03*
X65024Y63419D03*
X69546Y56669D03*
X60402Y56669D03*
X60432Y71789D03*
X78847Y71789D03*
X83439Y65959D03*
X83439Y63419D03*
X87961Y56669D03*
X78817Y56669D03*
X87991Y71789D03*
X83439Y78419D03*
X83439Y80959D03*
X78867Y87689D03*
X83439Y93419D03*
X83439Y95959D03*
X88011Y87689D03*
D12*
X17594Y02184D02*
X02184Y02184D01*
X02184Y98594D01*
X17594Y98594D01*
X17594Y02184D01*
X17594Y02406D02*
X02184Y02406D01*
X02184Y02709D02*
X17594Y02709D01*
X17594Y03012D02*
X02184Y03012D01*
X02184Y03315D02*
X17594Y03315D01*
X17594Y03619D02*
X02184Y03619D01*
X02184Y03922D02*
X17594Y03922D01*
X17594Y04225D02*
X02184Y04225D01*
X02184Y04529D02*
X17594Y04529D01*
X17594Y04832D02*
X02184Y04832D01*
X02184Y05135D02*
X07360Y05135D01*
X07435Y05061D02*
X08403Y05061D01*
X09087Y05745D01*
X09087Y06713D01*
X08403Y07397D01*
X07435Y07397D01*
X06751Y06713D01*
X06751Y05745D01*
X07435Y05061D01*
X07057Y05439D02*
X02184Y05439D01*
X02184Y05742D02*
X06754Y05742D01*
X06751Y06045D02*
X02184Y06045D01*
X02184Y06348D02*
X06751Y06348D01*
X06751Y06652D02*
X02184Y06652D01*
X02184Y06955D02*
X06993Y06955D01*
X07296Y07258D02*
X02184Y07258D01*
X02184Y07562D02*
X17594Y07562D01*
X17594Y07865D02*
X13747Y07865D01*
X13483Y07601D02*
X14167Y08285D01*
X14167Y08667D01*
X13101Y08667D01*
X13101Y08871D01*
X14167Y08871D01*
X14167Y09253D01*
X13483Y09937D01*
X13101Y09937D01*
X13101Y08871D01*
X12897Y08871D01*
X12897Y09937D01*
X12515Y09937D01*
X11831Y09253D01*
X11831Y08871D01*
X12897Y08871D01*
X12897Y08667D01*
X13101Y08667D01*
X13101Y07601D01*
X13483Y07601D01*
X13483Y07397D02*
X12515Y07397D01*
X11831Y06713D01*
X11831Y05745D01*
X12515Y05061D01*
X13483Y05061D01*
X14167Y05745D01*
X14167Y06713D01*
X13483Y07397D01*
X13622Y07258D02*
X17594Y07258D01*
X17594Y06955D02*
X13925Y06955D01*
X14167Y06652D02*
X17594Y06652D01*
X17594Y06348D02*
X14167Y06348D01*
X14167Y06045D02*
X17594Y06045D01*
X17594Y05742D02*
X14164Y05742D01*
X13861Y05439D02*
X17594Y05439D01*
X17594Y05135D02*
X13558Y05135D01*
X12440Y05135D02*
X11018Y05135D01*
X10943Y05061D02*
X11627Y05745D01*
X11627Y06713D01*
X10943Y07397D01*
X09975Y07397D01*
X09291Y06713D01*
X09291Y05745D01*
X09975Y05061D01*
X10943Y05061D01*
X11321Y05439D02*
X12137Y05439D01*
X11834Y05742D02*
X11624Y05742D01*
X11627Y06045D02*
X11831Y06045D01*
X11831Y06348D02*
X11627Y06348D01*
X11627Y06652D02*
X11831Y06652D01*
X12073Y06955D02*
X11385Y06955D01*
X11082Y07258D02*
X12376Y07258D01*
X12515Y07601D02*
X12897Y07601D01*
X12897Y08667D01*
X11831Y08667D01*
X11831Y08285D01*
X12515Y07601D01*
X12251Y07865D02*
X11207Y07865D01*
X10943Y07601D02*
X11627Y08285D01*
X11627Y09253D01*
X10943Y09937D01*
X09975Y09937D01*
X09291Y09253D01*
X09291Y08285D01*
X09975Y07601D01*
X10943Y07601D01*
X11511Y08168D02*
X11947Y08168D01*
X11831Y08472D02*
X11627Y08472D01*
X11627Y08775D02*
X12897Y08775D01*
X13101Y08775D02*
X17594Y08775D01*
X17594Y09078D02*
X14167Y09078D01*
X14039Y09381D02*
X17594Y09381D01*
X17594Y09685D02*
X13736Y09685D01*
X13101Y09685D02*
X12897Y09685D01*
X12897Y09381D02*
X13101Y09381D01*
X13101Y09078D02*
X12897Y09078D01*
X12897Y08472D02*
X13101Y08472D01*
X13101Y08168D02*
X12897Y08168D01*
X12897Y07865D02*
X13101Y07865D01*
X14051Y08168D02*
X17594Y08168D01*
X17594Y08472D02*
X14167Y08472D01*
X12262Y09685D02*
X11196Y09685D01*
X11499Y09381D02*
X11959Y09381D01*
X11831Y09078D02*
X11627Y09078D01*
X09722Y09685D02*
X08656Y09685D01*
X08403Y09937D02*
X09087Y09253D01*
X09087Y08285D01*
X08403Y07601D01*
X07435Y07601D01*
X06751Y08285D01*
X06751Y09253D01*
X07435Y09937D01*
X08403Y09937D01*
X08959Y09381D02*
X09419Y09381D01*
X09291Y09078D02*
X09087Y09078D01*
X09087Y08775D02*
X09291Y08775D01*
X09291Y08472D02*
X09087Y08472D01*
X08971Y08168D02*
X09407Y08168D01*
X09711Y07865D02*
X08667Y07865D01*
X08542Y07258D02*
X09836Y07258D01*
X09533Y06955D02*
X08845Y06955D01*
X09087Y06652D02*
X09291Y06652D01*
X09291Y06348D02*
X09087Y06348D01*
X09087Y06045D02*
X09291Y06045D01*
X09294Y05742D02*
X09084Y05742D01*
X08781Y05439D02*
X09597Y05439D01*
X09900Y05135D02*
X08478Y05135D01*
X07171Y07865D02*
X02184Y07865D01*
X02184Y08168D02*
X06867Y08168D01*
X06751Y08472D02*
X02184Y08472D01*
X02184Y08775D02*
X06751Y08775D01*
X06751Y09078D02*
X02184Y09078D01*
X02184Y09381D02*
X06879Y09381D01*
X07182Y09685D02*
X02184Y09685D01*
X02184Y09988D02*
X17594Y09988D01*
X17594Y10291D02*
X02184Y10291D01*
X02184Y10595D02*
X17594Y10595D01*
X17594Y10898D02*
X02184Y10898D01*
X02184Y11201D02*
X17594Y11201D01*
X17594Y11504D02*
X02184Y11504D01*
X02184Y11808D02*
X17594Y11808D01*
X17594Y12111D02*
X15423Y12111D01*
X15317Y12004D02*
X14285Y12004D01*
X13556Y12733D01*
X13556Y13765D01*
X14285Y14494D01*
X15317Y14494D01*
X16046Y13765D01*
X16046Y12733D01*
X15317Y12004D01*
X15727Y12414D02*
X17594Y12414D01*
X17594Y12718D02*
X16030Y12718D01*
X16046Y13021D02*
X17594Y13021D01*
X17594Y13324D02*
X16046Y13324D01*
X16046Y13628D02*
X17594Y13628D01*
X17594Y13931D02*
X15879Y13931D01*
X15576Y14234D02*
X17594Y14234D01*
X17594Y14537D02*
X02184Y14537D01*
X02184Y14234D02*
X04882Y14234D01*
X05141Y14494D02*
X04412Y13765D01*
X04412Y12733D01*
X05141Y12004D01*
X06173Y12004D01*
X06902Y12733D01*
X06902Y13765D01*
X06173Y14494D01*
X05141Y14494D01*
X04579Y13931D02*
X02184Y13931D01*
X02184Y13628D02*
X04412Y13628D01*
X04412Y13324D02*
X02184Y13324D01*
X02184Y13021D02*
X04412Y13021D01*
X04428Y12718D02*
X02184Y12718D01*
X02184Y12414D02*
X04731Y12414D01*
X05035Y12111D02*
X02184Y12111D01*
X02184Y14841D02*
X17594Y14841D01*
X17594Y15144D02*
X02184Y15144D01*
X02184Y15447D02*
X17594Y15447D01*
X17594Y15751D02*
X02184Y15751D01*
X02184Y16054D02*
X17594Y16054D01*
X17594Y16357D02*
X02184Y16357D01*
X02184Y16661D02*
X17594Y16661D01*
X17594Y16964D02*
X02184Y16964D01*
X02184Y17267D02*
X09171Y17267D01*
X09263Y17174D02*
X08534Y17903D01*
X08534Y18368D01*
X09728Y18368D01*
X09728Y18470D01*
X09728Y19664D01*
X09263Y19664D01*
X08534Y18935D01*
X08534Y18470D01*
X09728Y18470D01*
X09830Y18470D01*
X09830Y19664D01*
X10295Y19664D01*
X11024Y18935D01*
X11024Y18470D01*
X09830Y18470D01*
X09830Y18368D01*
X11024Y18368D01*
X11024Y17903D01*
X10295Y17174D01*
X09830Y17174D01*
X09830Y18368D01*
X09728Y18368D01*
X09728Y17174D01*
X09263Y17174D01*
X09728Y17267D02*
X09830Y17267D01*
X09830Y17571D02*
X09728Y17571D01*
X09728Y17874D02*
X09830Y17874D01*
X09830Y18177D02*
X09728Y18177D01*
X09728Y18480D02*
X09830Y18480D01*
X09830Y18784D02*
X09728Y18784D01*
X09728Y19087D02*
X09830Y19087D01*
X09830Y19390D02*
X09728Y19390D01*
X09263Y19714D02*
X10295Y19714D01*
X11024Y20443D01*
X11024Y21475D01*
X10295Y22204D01*
X09263Y22204D01*
X08534Y21475D01*
X08534Y20443D01*
X09263Y19714D01*
X08981Y19997D02*
X02184Y19997D01*
X02184Y20300D02*
X08678Y20300D01*
X08534Y20604D02*
X02184Y20604D01*
X02184Y20907D02*
X08534Y20907D01*
X08534Y21210D02*
X02184Y21210D01*
X02184Y21513D02*
X08573Y21513D01*
X08877Y21817D02*
X02184Y21817D01*
X02184Y22120D02*
X09180Y22120D01*
X10378Y22120D02*
X17594Y22120D01*
X17594Y21817D02*
X10681Y21817D01*
X10985Y21513D02*
X17594Y21513D01*
X17594Y21210D02*
X11024Y21210D01*
X11024Y20907D02*
X17594Y20907D01*
X17594Y20604D02*
X11024Y20604D01*
X10880Y20300D02*
X17594Y20300D01*
X17594Y19997D02*
X10577Y19997D01*
X10568Y19390D02*
X17594Y19390D01*
X17594Y19087D02*
X10871Y19087D01*
X11024Y18784D02*
X17594Y18784D01*
X17594Y18480D02*
X11024Y18480D01*
X11024Y18177D02*
X17594Y18177D01*
X17594Y17874D02*
X10994Y17874D01*
X10691Y17571D02*
X17594Y17571D01*
X17594Y17267D02*
X10387Y17267D01*
X08867Y17571D02*
X02184Y17571D01*
X02184Y17874D02*
X08564Y17874D01*
X08534Y18177D02*
X02184Y18177D01*
X02184Y18480D02*
X08534Y18480D01*
X08534Y18784D02*
X02184Y18784D01*
X02184Y19087D02*
X08687Y19087D01*
X08990Y19390D02*
X02184Y19390D01*
X02184Y19694D02*
X17594Y19694D01*
X20184Y19694D02*
X36094Y19694D01*
X36094Y19997D02*
X28992Y19997D01*
X28710Y19714D02*
X29439Y20443D01*
X29439Y21475D01*
X28710Y22204D01*
X27678Y22204D01*
X26949Y21475D01*
X26949Y20443D01*
X27678Y19714D01*
X28710Y19714D01*
X28710Y19664D02*
X28245Y19664D01*
X28245Y18470D01*
X28143Y18470D01*
X28143Y19664D01*
X27678Y19664D01*
X26949Y18935D01*
X26949Y18470D01*
X28143Y18470D01*
X28143Y18368D01*
X26949Y18368D01*
X26949Y17903D01*
X27678Y17174D01*
X28143Y17174D01*
X28143Y18368D01*
X28245Y18368D01*
X28245Y18470D01*
X29439Y18470D01*
X29439Y18935D01*
X28710Y19664D01*
X28983Y19390D02*
X36094Y19390D01*
X36094Y19087D02*
X29286Y19087D01*
X29439Y18784D02*
X36094Y18784D01*
X36094Y18480D02*
X29439Y18480D01*
X29439Y18368D02*
X28245Y18368D01*
X28245Y17174D01*
X28710Y17174D01*
X29439Y17903D01*
X29439Y18368D01*
X29439Y18177D02*
X36094Y18177D01*
X36094Y17874D02*
X29409Y17874D01*
X29106Y17571D02*
X36094Y17571D01*
X36094Y17267D02*
X28802Y17267D01*
X28245Y17267D02*
X28143Y17267D01*
X28143Y17571D02*
X28245Y17571D01*
X28245Y17874D02*
X28143Y17874D01*
X28143Y18177D02*
X28245Y18177D01*
X28245Y18480D02*
X28143Y18480D01*
X28143Y18784D02*
X28245Y18784D01*
X28245Y19087D02*
X28143Y19087D01*
X28143Y19390D02*
X28245Y19390D01*
X27405Y19390D02*
X20184Y19390D01*
X20184Y19087D02*
X27102Y19087D01*
X26949Y18784D02*
X20184Y18784D01*
X20184Y18480D02*
X26949Y18480D01*
X26949Y18177D02*
X20184Y18177D01*
X20184Y17874D02*
X26979Y17874D01*
X27282Y17571D02*
X20184Y17571D01*
X20184Y17267D02*
X27586Y17267D01*
X27396Y19997D02*
X20184Y19997D01*
X20184Y20300D02*
X27093Y20300D01*
X26949Y20604D02*
X20184Y20604D01*
X20184Y20907D02*
X26949Y20907D01*
X26949Y21210D02*
X20184Y21210D01*
X20184Y21513D02*
X26988Y21513D01*
X27292Y21817D02*
X20184Y21817D01*
X20184Y22120D02*
X27595Y22120D01*
X28793Y22120D02*
X36094Y22120D01*
X36094Y21817D02*
X29096Y21817D01*
X29400Y21513D02*
X36094Y21513D01*
X36094Y21210D02*
X29439Y21210D01*
X29439Y20907D02*
X36094Y20907D01*
X36094Y20604D02*
X29439Y20604D01*
X29295Y20300D02*
X36094Y20300D01*
X36094Y22423D02*
X20184Y22423D01*
X20184Y22727D02*
X36094Y22727D01*
X36094Y23030D02*
X20184Y23030D01*
X20184Y23333D02*
X36094Y23333D01*
X36094Y23636D02*
X20184Y23636D01*
X20184Y23940D02*
X36094Y23940D01*
X36094Y24243D02*
X20184Y24243D01*
X20184Y24546D02*
X36094Y24546D01*
X36094Y24850D02*
X20184Y24850D01*
X20184Y25153D02*
X36094Y25153D01*
X36094Y25456D02*
X20184Y25456D01*
X20184Y25760D02*
X36094Y25760D01*
X36094Y26063D02*
X33940Y26063D01*
X33802Y25924D02*
X34531Y26653D01*
X34531Y27685D01*
X33802Y28414D01*
X32770Y28414D01*
X32041Y27685D01*
X32041Y26653D01*
X32770Y25924D01*
X33802Y25924D01*
X34243Y26366D02*
X36094Y26366D01*
X36094Y26669D02*
X34531Y26669D01*
X34531Y26973D02*
X36094Y26973D01*
X36094Y27276D02*
X34531Y27276D01*
X34531Y27579D02*
X36094Y27579D01*
X36094Y27883D02*
X34332Y27883D01*
X34029Y28186D02*
X36094Y28186D01*
X36094Y28489D02*
X20184Y28489D01*
X20184Y28186D02*
X23399Y28186D01*
X23626Y28414D02*
X22897Y27685D01*
X22897Y26653D01*
X23626Y25924D01*
X24658Y25924D01*
X25387Y26653D01*
X25387Y27685D01*
X24658Y28414D01*
X23626Y28414D01*
X23096Y27883D02*
X20184Y27883D01*
X20184Y27579D02*
X22897Y27579D01*
X22897Y27276D02*
X20184Y27276D01*
X20184Y26973D02*
X22897Y26973D01*
X22897Y26669D02*
X20184Y26669D01*
X20184Y26366D02*
X23185Y26366D01*
X23488Y26063D02*
X20184Y26063D01*
X17594Y26063D02*
X15525Y26063D01*
X15387Y25924D02*
X16116Y26653D01*
X16116Y27685D01*
X15387Y28414D01*
X14355Y28414D01*
X13626Y27685D01*
X13626Y26653D01*
X14355Y25924D01*
X15387Y25924D01*
X15828Y26366D02*
X17594Y26366D01*
X17594Y26669D02*
X16116Y26669D01*
X16116Y26973D02*
X17594Y26973D01*
X17594Y27276D02*
X16116Y27276D01*
X16116Y27579D02*
X17594Y27579D01*
X17594Y27883D02*
X15917Y27883D01*
X15614Y28186D02*
X17594Y28186D01*
X17594Y28489D02*
X02184Y28489D01*
X02184Y28186D02*
X04984Y28186D01*
X05211Y28414D02*
X04482Y27685D01*
X04482Y26653D01*
X05211Y25924D01*
X06243Y25924D01*
X06972Y26653D01*
X06972Y27685D01*
X06243Y28414D01*
X05211Y28414D01*
X04681Y27883D02*
X02184Y27883D01*
X02184Y27579D02*
X04482Y27579D01*
X04482Y27276D02*
X02184Y27276D01*
X02184Y26973D02*
X04482Y26973D01*
X04482Y26669D02*
X02184Y26669D01*
X02184Y26366D02*
X04770Y26366D01*
X05073Y26063D02*
X02184Y26063D01*
X02184Y25760D02*
X17594Y25760D01*
X17594Y25456D02*
X02184Y25456D01*
X02184Y25153D02*
X17594Y25153D01*
X17594Y24850D02*
X02184Y24850D01*
X02184Y24546D02*
X17594Y24546D01*
X17594Y24243D02*
X02184Y24243D01*
X02184Y23940D02*
X17594Y23940D01*
X17594Y23636D02*
X02184Y23636D01*
X02184Y23333D02*
X17594Y23333D01*
X17594Y23030D02*
X02184Y23030D01*
X02184Y22727D02*
X17594Y22727D01*
X17594Y22423D02*
X02184Y22423D01*
X06381Y26063D02*
X14217Y26063D01*
X13914Y26366D02*
X06684Y26366D01*
X06972Y26669D02*
X13626Y26669D01*
X13626Y26973D02*
X06972Y26973D01*
X06972Y27276D02*
X13626Y27276D01*
X13626Y27579D02*
X06972Y27579D01*
X06773Y27883D02*
X13825Y27883D01*
X14128Y28186D02*
X06470Y28186D01*
X02184Y28793D02*
X17594Y28793D01*
X17594Y29096D02*
X02184Y29096D01*
X02184Y29399D02*
X17594Y29399D01*
X17594Y29702D02*
X02184Y29702D01*
X02184Y30006D02*
X17594Y30006D01*
X17594Y30309D02*
X02184Y30309D01*
X02184Y30612D02*
X17594Y30612D01*
X17594Y30916D02*
X02184Y30916D01*
X02184Y31219D02*
X17594Y31219D01*
X17594Y31522D02*
X02184Y31522D01*
X02184Y31826D02*
X17594Y31826D01*
X17594Y32129D02*
X02184Y32129D01*
X02184Y32432D02*
X09006Y32432D01*
X09263Y32174D02*
X08534Y32903D01*
X08534Y33368D01*
X09728Y33368D01*
X09728Y33470D01*
X09728Y34664D01*
X09263Y34664D01*
X08534Y33935D01*
X08534Y33470D01*
X09728Y33470D01*
X09830Y33470D01*
X09830Y34664D01*
X10295Y34664D01*
X11024Y33935D01*
X11024Y33470D01*
X09830Y33470D01*
X09830Y33368D01*
X11024Y33368D01*
X11024Y32903D01*
X10295Y32174D01*
X09830Y32174D01*
X09830Y33368D01*
X09728Y33368D01*
X09728Y32174D01*
X09263Y32174D01*
X09728Y32432D02*
X09830Y32432D01*
X09830Y32735D02*
X09728Y32735D01*
X09728Y33039D02*
X09830Y33039D01*
X09830Y33342D02*
X09728Y33342D01*
X09728Y33645D02*
X09830Y33645D01*
X09830Y33949D02*
X09728Y33949D01*
X09728Y34252D02*
X09830Y34252D01*
X09830Y34555D02*
X09728Y34555D01*
X09263Y34714D02*
X10295Y34714D01*
X11024Y35443D01*
X11024Y36475D01*
X10295Y37204D01*
X09263Y37204D01*
X08534Y36475D01*
X08534Y35443D01*
X09263Y34714D01*
X09155Y34555D02*
X02184Y34555D01*
X02184Y34252D02*
X08852Y34252D01*
X08549Y33949D02*
X02184Y33949D01*
X02184Y33645D02*
X08534Y33645D01*
X08534Y33342D02*
X02184Y33342D01*
X02184Y33039D02*
X08534Y33039D01*
X08702Y32735D02*
X02184Y32735D01*
X02184Y34859D02*
X09119Y34859D01*
X08816Y35162D02*
X02184Y35162D01*
X02184Y35465D02*
X08534Y35465D01*
X08534Y35769D02*
X02184Y35769D01*
X02184Y36072D02*
X08534Y36072D01*
X08534Y36375D02*
X02184Y36375D01*
X02184Y36678D02*
X08738Y36678D01*
X09042Y36982D02*
X02184Y36982D01*
X02184Y37285D02*
X17594Y37285D01*
X17594Y36982D02*
X10516Y36982D01*
X10820Y36678D02*
X17594Y36678D01*
X17594Y36375D02*
X11024Y36375D01*
X11024Y36072D02*
X17594Y36072D01*
X17594Y35769D02*
X11024Y35769D01*
X11024Y35465D02*
X17594Y35465D01*
X17594Y35162D02*
X10742Y35162D01*
X10439Y34859D02*
X17594Y34859D01*
X17594Y34555D02*
X10403Y34555D01*
X10706Y34252D02*
X17594Y34252D01*
X17594Y33949D02*
X11009Y33949D01*
X11024Y33645D02*
X17594Y33645D01*
X17594Y33342D02*
X11024Y33342D01*
X11024Y33039D02*
X17594Y33039D01*
X17594Y32735D02*
X10856Y32735D01*
X10552Y32432D02*
X17594Y32432D01*
X20184Y32432D02*
X27421Y32432D01*
X27678Y32174D02*
X26949Y32903D01*
X26949Y33368D01*
X28143Y33368D01*
X28143Y33470D01*
X28143Y34664D01*
X27678Y34664D01*
X26949Y33935D01*
X26949Y33470D01*
X28143Y33470D01*
X28245Y33470D01*
X28245Y34664D01*
X28710Y34664D01*
X29439Y33935D01*
X29439Y33470D01*
X28245Y33470D01*
X28245Y33368D01*
X29439Y33368D01*
X29439Y32903D01*
X28710Y32174D01*
X28245Y32174D01*
X28245Y33368D01*
X28143Y33368D01*
X28143Y32174D01*
X27678Y32174D01*
X28143Y32432D02*
X28245Y32432D01*
X28245Y32735D02*
X28143Y32735D01*
X28143Y33039D02*
X28245Y33039D01*
X28245Y33342D02*
X28143Y33342D01*
X28143Y33645D02*
X28245Y33645D01*
X28245Y33949D02*
X28143Y33949D01*
X28143Y34252D02*
X28245Y34252D01*
X28245Y34555D02*
X28143Y34555D01*
X27678Y34714D02*
X28710Y34714D01*
X29439Y35443D01*
X29439Y36475D01*
X28710Y37204D01*
X27678Y37204D01*
X26949Y36475D01*
X26949Y35443D01*
X27678Y34714D01*
X27570Y34555D02*
X20184Y34555D01*
X20184Y34252D02*
X27267Y34252D01*
X26964Y33949D02*
X20184Y33949D01*
X20184Y33645D02*
X26949Y33645D01*
X26949Y33342D02*
X20184Y33342D01*
X20184Y33039D02*
X26949Y33039D01*
X27117Y32735D02*
X20184Y32735D01*
X20184Y32129D02*
X36094Y32129D01*
X36094Y32432D02*
X28967Y32432D01*
X29271Y32735D02*
X36094Y32735D01*
X36094Y33039D02*
X29439Y33039D01*
X29439Y33342D02*
X36094Y33342D01*
X36094Y33645D02*
X29439Y33645D01*
X29424Y33949D02*
X36094Y33949D01*
X36094Y34252D02*
X29121Y34252D01*
X28818Y34555D02*
X36094Y34555D01*
X36094Y34859D02*
X28854Y34859D01*
X29157Y35162D02*
X36094Y35162D01*
X36094Y35465D02*
X29439Y35465D01*
X29439Y35769D02*
X36094Y35769D01*
X36094Y36072D02*
X29439Y36072D01*
X29439Y36375D02*
X36094Y36375D01*
X36094Y36678D02*
X29235Y36678D01*
X28931Y36982D02*
X36094Y36982D01*
X36094Y37285D02*
X20184Y37285D01*
X20184Y36982D02*
X27457Y36982D01*
X27153Y36678D02*
X20184Y36678D01*
X20184Y36375D02*
X26949Y36375D01*
X26949Y36072D02*
X20184Y36072D01*
X20184Y35769D02*
X26949Y35769D01*
X26949Y35465D02*
X20184Y35465D01*
X20184Y35162D02*
X27231Y35162D01*
X27534Y34859D02*
X20184Y34859D01*
X20184Y37588D02*
X36094Y37588D01*
X36094Y37892D02*
X20184Y37892D01*
X20184Y38195D02*
X36094Y38195D01*
X36094Y38498D02*
X20184Y38498D01*
X20184Y38802D02*
X36094Y38802D01*
X36094Y39105D02*
X20184Y39105D01*
X20184Y39408D02*
X36094Y39408D01*
X36094Y39711D02*
X20184Y39711D01*
X20184Y40015D02*
X36094Y40015D01*
X36094Y40318D02*
X20184Y40318D01*
X20184Y40621D02*
X36094Y40621D01*
X36094Y40925D02*
X20184Y40925D01*
X20184Y41228D02*
X36094Y41228D01*
X36094Y41531D02*
X20184Y41531D01*
X20184Y41835D02*
X36094Y41835D01*
X36094Y42138D02*
X20184Y42138D01*
X20184Y42441D02*
X36094Y42441D01*
X36094Y42744D02*
X20184Y42744D01*
X20184Y43048D02*
X36094Y43048D01*
X36094Y43351D02*
X20184Y43351D01*
X20184Y43654D02*
X36094Y43654D01*
X36094Y43958D02*
X20184Y43958D01*
X20184Y44261D02*
X36094Y44261D01*
X36094Y44564D02*
X33925Y44564D01*
X34075Y44604D02*
X34741Y44989D01*
X35284Y45532D01*
X35669Y46198D01*
X35867Y46940D01*
X35867Y47708D01*
X35669Y48450D01*
X35284Y49116D01*
X34741Y49659D01*
X34075Y50044D01*
X33333Y50242D01*
X32565Y50242D01*
X31823Y50044D01*
X31157Y49659D01*
X30614Y49116D01*
X30229Y48450D01*
X30031Y47708D01*
X30031Y46940D01*
X30229Y46198D01*
X30614Y45532D01*
X31157Y44989D01*
X31823Y44604D01*
X32565Y44406D01*
X33333Y44406D01*
X34075Y44604D01*
X34531Y44867D02*
X36094Y44867D01*
X36094Y45171D02*
X34923Y45171D01*
X35226Y45474D02*
X36094Y45474D01*
X36094Y45777D02*
X35426Y45777D01*
X35601Y46081D02*
X36094Y46081D01*
X36094Y46384D02*
X35718Y46384D01*
X35800Y46687D02*
X36094Y46687D01*
X36094Y46991D02*
X35867Y46991D01*
X35867Y47294D02*
X36094Y47294D01*
X36094Y47597D02*
X35867Y47597D01*
X35816Y47900D02*
X36094Y47900D01*
X36094Y48204D02*
X35735Y48204D01*
X35636Y48507D02*
X36094Y48507D01*
X36094Y48810D02*
X35461Y48810D01*
X35286Y49114D02*
X36094Y49114D01*
X36094Y49417D02*
X34983Y49417D01*
X34635Y49720D02*
X36094Y49720D01*
X36094Y50024D02*
X34110Y50024D01*
X36094Y50327D02*
X20184Y50327D01*
X20184Y50630D02*
X36094Y50630D01*
X36094Y50933D02*
X20184Y50933D01*
X20184Y51237D02*
X36094Y51237D01*
X36094Y51540D02*
X20184Y51540D01*
X20184Y51843D02*
X36094Y51843D01*
X36094Y52147D02*
X20184Y52147D01*
X20184Y52450D02*
X36094Y52450D01*
X36094Y52753D02*
X20184Y52753D01*
X20184Y53057D02*
X36094Y53057D01*
X36094Y53360D02*
X20184Y53360D01*
X20184Y53663D02*
X36094Y53663D01*
X36094Y53966D02*
X20184Y53966D01*
X20184Y54270D02*
X36094Y54270D01*
X36094Y54573D02*
X20184Y54573D01*
X20184Y54876D02*
X36094Y54876D01*
X36094Y55180D02*
X20184Y55180D01*
X20184Y55483D02*
X22998Y55483D01*
X23056Y55424D02*
X24088Y55424D01*
X24817Y56153D01*
X24817Y57185D01*
X24088Y57914D01*
X23056Y57914D01*
X22327Y57185D01*
X22327Y56153D01*
X23056Y55424D01*
X22695Y55786D02*
X20184Y55786D01*
X20184Y56090D02*
X22391Y56090D01*
X22327Y56393D02*
X20184Y56393D01*
X20184Y56696D02*
X22327Y56696D01*
X22327Y56999D02*
X20184Y56999D01*
X20184Y57303D02*
X22446Y57303D01*
X22749Y57606D02*
X20184Y57606D01*
X20184Y57909D02*
X23052Y57909D01*
X24092Y57909D02*
X32196Y57909D01*
X32200Y57914D02*
X31471Y57185D01*
X31471Y56153D01*
X32200Y55424D01*
X33232Y55424D01*
X33961Y56153D01*
X33961Y57185D01*
X33232Y57914D01*
X32200Y57914D01*
X31893Y57606D02*
X24395Y57606D01*
X24698Y57303D02*
X31590Y57303D01*
X31471Y56999D02*
X24817Y56999D01*
X24817Y56696D02*
X31471Y56696D01*
X31471Y56393D02*
X24817Y56393D01*
X24753Y56090D02*
X31535Y56090D01*
X31839Y55786D02*
X24449Y55786D01*
X24146Y55483D02*
X32142Y55483D01*
X33290Y55483D02*
X36094Y55483D01*
X36094Y55786D02*
X33593Y55786D01*
X33897Y56090D02*
X36094Y56090D01*
X36094Y56393D02*
X33961Y56393D01*
X33961Y56696D02*
X36094Y56696D01*
X36094Y56999D02*
X33961Y56999D01*
X33842Y57303D02*
X36094Y57303D01*
X36094Y57606D02*
X33539Y57606D01*
X33236Y57909D02*
X36094Y57909D01*
X36094Y58213D02*
X20184Y58213D01*
X20184Y58516D02*
X36094Y58516D01*
X36094Y58819D02*
X20184Y58819D01*
X20184Y59123D02*
X36094Y59123D01*
X36094Y59426D02*
X20184Y59426D01*
X20184Y59729D02*
X36094Y59729D01*
X36094Y60032D02*
X20184Y60032D01*
X20184Y60336D02*
X36094Y60336D01*
X36094Y60639D02*
X20184Y60639D01*
X20184Y60942D02*
X36094Y60942D01*
X36094Y61246D02*
X20184Y61246D01*
X20184Y61549D02*
X36094Y61549D01*
X36094Y61852D02*
X20184Y61852D01*
X20184Y62156D02*
X36094Y62156D01*
X36094Y62459D02*
X28994Y62459D01*
X28710Y62174D02*
X29439Y62903D01*
X29439Y63368D01*
X28245Y63368D01*
X28245Y63470D01*
X28143Y63470D01*
X28143Y64664D01*
X27678Y64664D01*
X26949Y63935D01*
X26949Y63470D01*
X28143Y63470D01*
X28143Y63368D01*
X26949Y63368D01*
X26949Y62903D01*
X27678Y62174D01*
X28143Y62174D01*
X28143Y63368D01*
X28245Y63368D01*
X28245Y62174D01*
X28710Y62174D01*
X28245Y62459D02*
X28143Y62459D01*
X28143Y62762D02*
X28245Y62762D01*
X28245Y63065D02*
X28143Y63065D01*
X28143Y63369D02*
X20184Y63369D01*
X20184Y63672D02*
X26949Y63672D01*
X26990Y63975D02*
X20184Y63975D01*
X20184Y64279D02*
X27294Y64279D01*
X27597Y64582D02*
X20184Y64582D01*
X20184Y64885D02*
X27508Y64885D01*
X27678Y64714D02*
X28710Y64714D01*
X29439Y65443D01*
X29439Y66475D01*
X28710Y67204D01*
X27678Y67204D01*
X26949Y66475D01*
X26949Y65443D01*
X27678Y64714D01*
X28143Y64582D02*
X28245Y64582D01*
X28245Y64664D02*
X28245Y63470D01*
X29439Y63470D01*
X29439Y63935D01*
X28710Y64664D01*
X28245Y64664D01*
X28245Y64279D02*
X28143Y64279D01*
X28143Y63975D02*
X28245Y63975D01*
X28245Y63672D02*
X28143Y63672D01*
X28245Y63369D02*
X36094Y63369D01*
X36094Y63672D02*
X29439Y63672D01*
X29398Y63975D02*
X36094Y63975D01*
X36094Y64279D02*
X29094Y64279D01*
X28791Y64582D02*
X36094Y64582D01*
X36094Y64885D02*
X28880Y64885D01*
X29184Y65189D02*
X36094Y65189D01*
X36094Y65492D02*
X29439Y65492D01*
X29439Y65795D02*
X36094Y65795D01*
X36094Y66099D02*
X29439Y66099D01*
X29439Y66402D02*
X36094Y66402D01*
X36094Y66705D02*
X29208Y66705D01*
X28905Y67008D02*
X36094Y67008D01*
X36094Y67312D02*
X20184Y67312D01*
X20184Y67615D02*
X36094Y67615D01*
X36094Y67918D02*
X20184Y67918D01*
X20184Y68222D02*
X36094Y68222D01*
X36094Y68525D02*
X20184Y68525D01*
X20184Y68828D02*
X36094Y68828D01*
X36094Y69132D02*
X20184Y69132D01*
X20184Y69435D02*
X36094Y69435D01*
X36094Y69738D02*
X20184Y69738D01*
X20184Y70041D02*
X36094Y70041D01*
X36094Y70345D02*
X20184Y70345D01*
X20184Y70648D02*
X22983Y70648D01*
X23086Y70544D02*
X24118Y70544D01*
X24847Y71273D01*
X24847Y72305D01*
X24118Y73034D01*
X23086Y73034D01*
X22357Y72305D01*
X22357Y71273D01*
X23086Y70544D01*
X22680Y70951D02*
X20184Y70951D01*
X20184Y71255D02*
X22376Y71255D01*
X22357Y71558D02*
X20184Y71558D01*
X20184Y71861D02*
X22357Y71861D01*
X22357Y72165D02*
X20184Y72165D01*
X20184Y72468D02*
X22521Y72468D01*
X22824Y72771D02*
X20184Y72771D01*
X20184Y73074D02*
X36094Y73074D01*
X36094Y72771D02*
X33524Y72771D01*
X33262Y73034D02*
X32230Y73034D01*
X31501Y72305D01*
X31501Y71273D01*
X32230Y70544D01*
X33262Y70544D01*
X33991Y71273D01*
X33991Y72305D01*
X33262Y73034D01*
X33827Y72468D02*
X36094Y72468D01*
X36094Y72165D02*
X33991Y72165D01*
X33991Y71861D02*
X36094Y71861D01*
X36094Y71558D02*
X33991Y71558D01*
X33972Y71255D02*
X36094Y71255D01*
X36094Y70951D02*
X33668Y70951D01*
X33365Y70648D02*
X36094Y70648D01*
X36094Y73378D02*
X20184Y73378D01*
X20184Y73681D02*
X36094Y73681D01*
X36094Y73984D02*
X20184Y73984D01*
X20184Y74288D02*
X36094Y74288D01*
X36094Y74591D02*
X20184Y74591D01*
X20184Y74894D02*
X36094Y74894D01*
X36094Y75198D02*
X20184Y75198D01*
X20184Y75501D02*
X36094Y75501D01*
X36094Y75804D02*
X20184Y75804D01*
X20184Y76107D02*
X36094Y76107D01*
X36094Y76411D02*
X20184Y76411D01*
X20184Y76714D02*
X36094Y76714D01*
X36094Y77017D02*
X20184Y77017D01*
X20184Y77321D02*
X27532Y77321D01*
X27678Y77174D02*
X26949Y77903D01*
X26949Y78368D01*
X28143Y78368D01*
X28143Y78470D01*
X28143Y79664D01*
X27678Y79664D01*
X26949Y78935D01*
X26949Y78470D01*
X28143Y78470D01*
X28245Y78470D01*
X28245Y79664D01*
X28710Y79664D01*
X29439Y78935D01*
X29439Y78470D01*
X28245Y78470D01*
X28245Y78368D01*
X29439Y78368D01*
X29439Y77903D01*
X28710Y77174D01*
X28245Y77174D01*
X28245Y78368D01*
X28143Y78368D01*
X28143Y77174D01*
X27678Y77174D01*
X28143Y77321D02*
X28245Y77321D01*
X28245Y77624D02*
X28143Y77624D01*
X28143Y77927D02*
X28245Y77927D01*
X28245Y78231D02*
X28143Y78231D01*
X28143Y78534D02*
X28245Y78534D01*
X28245Y78837D02*
X28143Y78837D01*
X28143Y79140D02*
X28245Y79140D01*
X28245Y79444D02*
X28143Y79444D01*
X27678Y79714D02*
X28710Y79714D01*
X29439Y80443D01*
X29439Y81475D01*
X28710Y82204D01*
X27678Y82204D01*
X26949Y81475D01*
X26949Y80443D01*
X27678Y79714D01*
X27646Y79747D02*
X20184Y79747D01*
X20184Y80050D02*
X27343Y80050D01*
X27039Y80354D02*
X20184Y80354D01*
X20184Y80657D02*
X26949Y80657D01*
X26949Y80960D02*
X20184Y80960D01*
X20184Y81264D02*
X26949Y81264D01*
X27042Y81567D02*
X20184Y81567D01*
X20184Y81870D02*
X27345Y81870D01*
X27648Y82173D02*
X20184Y82173D01*
X20184Y82477D02*
X36094Y82477D01*
X36094Y82780D02*
X20184Y82780D01*
X20184Y83083D02*
X36094Y83083D01*
X36094Y83387D02*
X20184Y83387D01*
X20184Y83690D02*
X36094Y83690D01*
X36094Y83993D02*
X20184Y83993D01*
X20184Y84297D02*
X36094Y84297D01*
X36094Y84600D02*
X20184Y84600D01*
X20184Y84903D02*
X36094Y84903D01*
X36094Y85206D02*
X20184Y85206D01*
X20184Y85510D02*
X36094Y85510D01*
X36094Y85813D02*
X20184Y85813D01*
X20184Y86116D02*
X36094Y86116D01*
X36094Y86420D02*
X20184Y86420D01*
X20184Y86723D02*
X22828Y86723D01*
X23106Y86444D02*
X24138Y86444D01*
X24867Y87173D01*
X24867Y88205D01*
X24138Y88934D01*
X23106Y88934D01*
X22377Y88205D01*
X22377Y87173D01*
X23106Y86444D01*
X22525Y87026D02*
X20184Y87026D01*
X20184Y87330D02*
X22377Y87330D01*
X22377Y87633D02*
X20184Y87633D01*
X20184Y87936D02*
X22377Y87936D01*
X22412Y88239D02*
X20184Y88239D01*
X20184Y88543D02*
X22716Y88543D01*
X23019Y88846D02*
X20184Y88846D01*
X20184Y89149D02*
X36094Y89149D01*
X36094Y88846D02*
X33369Y88846D01*
X33282Y88934D02*
X32250Y88934D01*
X31521Y88205D01*
X31521Y87173D01*
X32250Y86444D01*
X33282Y86444D01*
X34011Y87173D01*
X34011Y88205D01*
X33282Y88934D01*
X33672Y88543D02*
X36094Y88543D01*
X36094Y88239D02*
X33976Y88239D01*
X34011Y87936D02*
X36094Y87936D01*
X36094Y87633D02*
X34011Y87633D01*
X34011Y87330D02*
X36094Y87330D01*
X36094Y87026D02*
X33863Y87026D01*
X33560Y86723D02*
X36094Y86723D01*
X36094Y89453D02*
X20184Y89453D01*
X20184Y89756D02*
X36094Y89756D01*
X36094Y90059D02*
X20184Y90059D01*
X20184Y90362D02*
X36094Y90362D01*
X36094Y90666D02*
X20184Y90666D01*
X20184Y90969D02*
X36094Y90969D01*
X36094Y91272D02*
X20184Y91272D01*
X20184Y91576D02*
X36094Y91576D01*
X36094Y91879D02*
X20184Y91879D01*
X20184Y92182D02*
X27671Y92182D01*
X27678Y92174D02*
X26949Y92903D01*
X26949Y93368D01*
X28143Y93368D01*
X28143Y93470D01*
X28143Y94664D01*
X27678Y94664D01*
X26949Y93935D01*
X26949Y93470D01*
X28143Y93470D01*
X28245Y93470D01*
X28245Y94664D01*
X28710Y94664D01*
X29439Y93935D01*
X29439Y93470D01*
X28245Y93470D01*
X28245Y93368D01*
X29439Y93368D01*
X29439Y92903D01*
X28710Y92174D01*
X28245Y92174D01*
X28245Y93368D01*
X28143Y93368D01*
X28143Y92174D01*
X27678Y92174D01*
X27367Y92486D02*
X20184Y92486D01*
X20184Y92789D02*
X27064Y92789D01*
X26949Y93092D02*
X20184Y93092D01*
X20184Y93395D02*
X28143Y93395D01*
X28245Y93395D02*
X36094Y93395D01*
X36094Y93092D02*
X29439Y93092D01*
X29324Y92789D02*
X36094Y92789D01*
X36094Y92486D02*
X29021Y92486D01*
X28717Y92182D02*
X36094Y92182D01*
X36094Y93699D02*
X29439Y93699D01*
X29371Y94002D02*
X36094Y94002D01*
X36094Y94305D02*
X29068Y94305D01*
X28764Y94609D02*
X36094Y94609D01*
X36094Y94912D02*
X28907Y94912D01*
X28710Y94714D02*
X27678Y94714D01*
X26949Y95443D01*
X26949Y96475D01*
X27678Y97204D01*
X28710Y97204D01*
X29439Y96475D01*
X29439Y95443D01*
X28710Y94714D01*
X28245Y94609D02*
X28143Y94609D01*
X28143Y94305D02*
X28245Y94305D01*
X28245Y94002D02*
X28143Y94002D01*
X28143Y93699D02*
X28245Y93699D01*
X28245Y93092D02*
X28143Y93092D01*
X28143Y92789D02*
X28245Y92789D01*
X28245Y92486D02*
X28143Y92486D01*
X28143Y92182D02*
X28245Y92182D01*
X26949Y93699D02*
X20184Y93699D01*
X20184Y94002D02*
X27017Y94002D01*
X27320Y94305D02*
X20184Y94305D01*
X20184Y94609D02*
X27624Y94609D01*
X27481Y94912D02*
X20184Y94912D01*
X20184Y95215D02*
X27178Y95215D01*
X26949Y95519D02*
X20184Y95519D01*
X20184Y95822D02*
X26949Y95822D01*
X26949Y96125D02*
X20184Y96125D01*
X20184Y96428D02*
X26949Y96428D01*
X27207Y96732D02*
X20184Y96732D01*
X20184Y97035D02*
X27510Y97035D01*
X28878Y97035D02*
X36094Y97035D01*
X36094Y96732D02*
X29181Y96732D01*
X29439Y96428D02*
X36094Y96428D01*
X36094Y96125D02*
X29439Y96125D01*
X29439Y95822D02*
X36094Y95822D01*
X36094Y95519D02*
X29439Y95519D01*
X29210Y95215D02*
X36094Y95215D01*
X36094Y97338D02*
X20184Y97338D01*
X20184Y97642D02*
X36094Y97642D01*
X36094Y97945D02*
X20184Y97945D01*
X20184Y98248D02*
X36094Y98248D01*
X36094Y98552D02*
X20184Y98552D01*
X20184Y98594D02*
X36094Y98594D01*
X36094Y02184D01*
X20184Y02184D01*
X20184Y98594D01*
X17594Y98552D02*
X02184Y98552D01*
X02184Y98248D02*
X17594Y98248D01*
X17594Y97945D02*
X02184Y97945D01*
X02184Y97642D02*
X17594Y97642D01*
X17594Y97338D02*
X02184Y97338D01*
X02184Y97035D02*
X09095Y97035D01*
X09263Y97204D02*
X08534Y96475D01*
X08534Y95443D01*
X09263Y94714D01*
X10295Y94714D01*
X11024Y95443D01*
X11024Y96475D01*
X10295Y97204D01*
X09263Y97204D01*
X08792Y96732D02*
X02184Y96732D01*
X02184Y96428D02*
X08534Y96428D01*
X08534Y96125D02*
X02184Y96125D01*
X02184Y95822D02*
X08534Y95822D01*
X08534Y95519D02*
X02184Y95519D01*
X02184Y95215D02*
X08763Y95215D01*
X09066Y94912D02*
X02184Y94912D01*
X02184Y94609D02*
X09209Y94609D01*
X09263Y94664D02*
X08534Y93935D01*
X08534Y93470D01*
X09728Y93470D01*
X09728Y94664D01*
X09263Y94664D01*
X09728Y94609D02*
X09830Y94609D01*
X09830Y94664D02*
X09830Y93470D01*
X09728Y93470D01*
X09728Y93368D01*
X08534Y93368D01*
X08534Y92903D01*
X09263Y92174D01*
X09728Y92174D01*
X09728Y93368D01*
X09830Y93368D01*
X09830Y93470D01*
X11024Y93470D01*
X11024Y93935D01*
X10295Y94664D01*
X09830Y94664D01*
X09830Y94305D02*
X09728Y94305D01*
X09728Y94002D02*
X09830Y94002D01*
X09830Y93699D02*
X09728Y93699D01*
X09728Y93395D02*
X02184Y93395D01*
X02184Y93092D02*
X08534Y93092D01*
X08649Y92789D02*
X02184Y92789D01*
X02184Y92486D02*
X08952Y92486D01*
X09256Y92182D02*
X02184Y92182D01*
X02184Y91879D02*
X17594Y91879D01*
X17594Y92182D02*
X10302Y92182D01*
X10295Y92174D02*
X11024Y92903D01*
X11024Y93368D01*
X09830Y93368D01*
X09830Y92174D01*
X10295Y92174D01*
X10606Y92486D02*
X17594Y92486D01*
X17594Y92789D02*
X10909Y92789D01*
X11024Y93092D02*
X17594Y93092D01*
X17594Y93395D02*
X09830Y93395D01*
X09830Y93092D02*
X09728Y93092D01*
X09728Y92789D02*
X09830Y92789D01*
X09830Y92486D02*
X09728Y92486D01*
X09728Y92182D02*
X09830Y92182D01*
X11024Y93699D02*
X17594Y93699D01*
X17594Y94002D02*
X10956Y94002D01*
X10653Y94305D02*
X17594Y94305D01*
X17594Y94609D02*
X10349Y94609D01*
X10492Y94912D02*
X17594Y94912D01*
X17594Y95215D02*
X10795Y95215D01*
X11024Y95519D02*
X17594Y95519D01*
X17594Y95822D02*
X11024Y95822D01*
X11024Y96125D02*
X17594Y96125D01*
X17594Y96428D02*
X11024Y96428D01*
X10766Y96732D02*
X17594Y96732D01*
X17594Y97035D02*
X10463Y97035D01*
X08905Y94305D02*
X02184Y94305D01*
X02184Y94002D02*
X08602Y94002D01*
X08534Y93699D02*
X02184Y93699D01*
X02184Y91576D02*
X17594Y91576D01*
X17594Y91272D02*
X02184Y91272D01*
X02184Y90969D02*
X17594Y90969D01*
X17594Y90666D02*
X02184Y90666D01*
X02184Y90362D02*
X17594Y90362D01*
X17594Y90059D02*
X02184Y90059D01*
X02184Y89756D02*
X17594Y89756D01*
X17594Y89453D02*
X02184Y89453D01*
X02184Y89149D02*
X17594Y89149D01*
X17594Y88846D02*
X14954Y88846D01*
X14867Y88934D02*
X13835Y88934D01*
X13106Y88205D01*
X13106Y87173D01*
X13835Y86444D01*
X14867Y86444D01*
X15596Y87173D01*
X15596Y88205D01*
X14867Y88934D01*
X15257Y88543D02*
X17594Y88543D01*
X17594Y88239D02*
X15561Y88239D01*
X15596Y87936D02*
X17594Y87936D01*
X17594Y87633D02*
X15596Y87633D01*
X15596Y87330D02*
X17594Y87330D01*
X17594Y87026D02*
X15448Y87026D01*
X15145Y86723D02*
X17594Y86723D01*
X17594Y86420D02*
X02184Y86420D01*
X02184Y86723D02*
X04413Y86723D01*
X04691Y86444D02*
X03962Y87173D01*
X03962Y88205D01*
X04691Y88934D01*
X05723Y88934D01*
X06452Y88205D01*
X06452Y87173D01*
X05723Y86444D01*
X04691Y86444D01*
X04110Y87026D02*
X02184Y87026D01*
X02184Y87330D02*
X03962Y87330D01*
X03962Y87633D02*
X02184Y87633D01*
X02184Y87936D02*
X03962Y87936D01*
X03997Y88239D02*
X02184Y88239D01*
X02184Y88543D02*
X04301Y88543D01*
X04604Y88846D02*
X02184Y88846D01*
X02184Y86116D02*
X17594Y86116D01*
X17594Y85813D02*
X02184Y85813D01*
X02184Y85510D02*
X17594Y85510D01*
X17594Y85206D02*
X02184Y85206D01*
X02184Y84903D02*
X17594Y84903D01*
X17594Y84600D02*
X02184Y84600D01*
X02184Y84297D02*
X17594Y84297D01*
X17594Y83993D02*
X02184Y83993D01*
X02184Y83690D02*
X17594Y83690D01*
X17594Y83387D02*
X02184Y83387D01*
X02184Y83083D02*
X17594Y83083D01*
X17594Y82780D02*
X02184Y82780D01*
X02184Y82477D02*
X17594Y82477D01*
X17594Y82173D02*
X10325Y82173D01*
X10295Y82204D02*
X11024Y81475D01*
X11024Y80443D01*
X10295Y79714D01*
X09263Y79714D01*
X08534Y80443D01*
X08534Y81475D01*
X09263Y82204D01*
X10295Y82204D01*
X10628Y81870D02*
X17594Y81870D01*
X17594Y81567D02*
X10931Y81567D01*
X11024Y81264D02*
X17594Y81264D01*
X17594Y80960D02*
X11024Y80960D01*
X11024Y80657D02*
X17594Y80657D01*
X17594Y80354D02*
X10934Y80354D01*
X10630Y80050D02*
X17594Y80050D01*
X17594Y79747D02*
X10327Y79747D01*
X10295Y79664D02*
X11024Y78935D01*
X11024Y78470D01*
X09830Y78470D01*
X09728Y78470D01*
X09728Y79664D01*
X09263Y79664D01*
X08534Y78935D01*
X08534Y78470D01*
X09728Y78470D01*
X09728Y78368D01*
X08534Y78368D01*
X08534Y77903D01*
X09263Y77174D01*
X09728Y77174D01*
X09728Y78368D01*
X09830Y78368D01*
X09830Y78470D01*
X09830Y79664D01*
X10295Y79664D01*
X10514Y79444D02*
X17594Y79444D01*
X17594Y79140D02*
X10818Y79140D01*
X11024Y78837D02*
X17594Y78837D01*
X17594Y78534D02*
X11024Y78534D01*
X11024Y78368D02*
X09830Y78368D01*
X09830Y77174D01*
X10295Y77174D01*
X11024Y77903D01*
X11024Y78368D01*
X11024Y78231D02*
X17594Y78231D01*
X17594Y77927D02*
X11024Y77927D01*
X10744Y77624D02*
X17594Y77624D01*
X17594Y77321D02*
X10441Y77321D01*
X09830Y77321D02*
X09728Y77321D01*
X09728Y77624D02*
X09830Y77624D01*
X09830Y77927D02*
X09728Y77927D01*
X09728Y78231D02*
X09830Y78231D01*
X09830Y78534D02*
X09728Y78534D01*
X09728Y78837D02*
X09830Y78837D01*
X09830Y79140D02*
X09728Y79140D01*
X09728Y79444D02*
X09830Y79444D01*
X09231Y79747D02*
X02184Y79747D01*
X02184Y80050D02*
X08928Y80050D01*
X08624Y80354D02*
X02184Y80354D01*
X02184Y80657D02*
X08534Y80657D01*
X08534Y80960D02*
X02184Y80960D01*
X02184Y81264D02*
X08534Y81264D01*
X08627Y81567D02*
X02184Y81567D01*
X02184Y81870D02*
X08930Y81870D01*
X09233Y82173D02*
X02184Y82173D01*
X02184Y79444D02*
X09044Y79444D01*
X08740Y79140D02*
X02184Y79140D01*
X02184Y78837D02*
X08534Y78837D01*
X08534Y78534D02*
X02184Y78534D01*
X02184Y78231D02*
X08534Y78231D01*
X08534Y77927D02*
X02184Y77927D01*
X02184Y77624D02*
X08814Y77624D01*
X09117Y77321D02*
X02184Y77321D01*
X02184Y77017D02*
X17594Y77017D01*
X17594Y76714D02*
X02184Y76714D01*
X02184Y76411D02*
X17594Y76411D01*
X17594Y76107D02*
X02184Y76107D01*
X02184Y75804D02*
X17594Y75804D01*
X17594Y75501D02*
X02184Y75501D01*
X02184Y75198D02*
X17594Y75198D01*
X17594Y74894D02*
X02184Y74894D01*
X02184Y74591D02*
X17594Y74591D01*
X17594Y74288D02*
X02184Y74288D01*
X02184Y73984D02*
X17594Y73984D01*
X17594Y73681D02*
X02184Y73681D01*
X02184Y73378D02*
X17594Y73378D01*
X17594Y73074D02*
X02184Y73074D01*
X02184Y72771D02*
X04409Y72771D01*
X04671Y73034D02*
X03942Y72305D01*
X03942Y71273D01*
X04671Y70544D01*
X05703Y70544D01*
X06432Y71273D01*
X06432Y72305D01*
X05703Y73034D01*
X04671Y73034D01*
X04106Y72468D02*
X02184Y72468D01*
X02184Y72165D02*
X03942Y72165D01*
X03942Y71861D02*
X02184Y71861D01*
X02184Y71558D02*
X03942Y71558D01*
X03961Y71255D02*
X02184Y71255D01*
X02184Y70951D02*
X04265Y70951D01*
X04568Y70648D02*
X02184Y70648D01*
X02184Y70345D02*
X17594Y70345D01*
X17594Y70648D02*
X14950Y70648D01*
X14847Y70544D02*
X13815Y70544D01*
X13086Y71273D01*
X13086Y72305D01*
X13815Y73034D01*
X14847Y73034D01*
X15576Y72305D01*
X15576Y71273D01*
X14847Y70544D01*
X15253Y70951D02*
X17594Y70951D01*
X17594Y71255D02*
X15557Y71255D01*
X15576Y71558D02*
X17594Y71558D01*
X17594Y71861D02*
X15576Y71861D01*
X15576Y72165D02*
X17594Y72165D01*
X17594Y72468D02*
X15412Y72468D01*
X15109Y72771D02*
X17594Y72771D01*
X17594Y70041D02*
X02184Y70041D01*
X02184Y69738D02*
X17594Y69738D01*
X17594Y69435D02*
X02184Y69435D01*
X02184Y69132D02*
X17594Y69132D01*
X17594Y68828D02*
X02184Y68828D01*
X02184Y68525D02*
X17594Y68525D01*
X17594Y68222D02*
X02184Y68222D01*
X02184Y67918D02*
X17594Y67918D01*
X17594Y67615D02*
X02184Y67615D01*
X02184Y67312D02*
X17594Y67312D01*
X17594Y67008D02*
X10490Y67008D01*
X10295Y67204D02*
X11024Y66475D01*
X11024Y65443D01*
X10295Y64714D01*
X09263Y64714D01*
X08534Y65443D01*
X08534Y66475D01*
X09263Y67204D01*
X10295Y67204D01*
X10793Y66705D02*
X17594Y66705D01*
X17594Y66402D02*
X11024Y66402D01*
X11024Y66099D02*
X17594Y66099D01*
X17594Y65795D02*
X11024Y65795D01*
X11024Y65492D02*
X17594Y65492D01*
X17594Y65189D02*
X10769Y65189D01*
X10465Y64885D02*
X17594Y64885D01*
X17594Y64582D02*
X10376Y64582D01*
X10295Y64664D02*
X11024Y63935D01*
X11024Y63470D01*
X09830Y63470D01*
X09728Y63470D01*
X09728Y64664D01*
X09263Y64664D01*
X08534Y63935D01*
X08534Y63470D01*
X09728Y63470D01*
X09728Y63368D01*
X08534Y63368D01*
X08534Y62903D01*
X09263Y62174D01*
X09728Y62174D01*
X09728Y63368D01*
X09830Y63368D01*
X09830Y63470D01*
X09830Y64664D01*
X10295Y64664D01*
X09830Y64582D02*
X09728Y64582D01*
X09728Y64279D02*
X09830Y64279D01*
X09830Y63975D02*
X09728Y63975D01*
X09728Y63672D02*
X09830Y63672D01*
X09830Y63369D02*
X17594Y63369D01*
X17594Y63672D02*
X11024Y63672D01*
X11024Y63368D02*
X09830Y63368D01*
X09830Y62174D01*
X10295Y62174D01*
X11024Y62903D01*
X11024Y63368D01*
X11024Y63065D02*
X17594Y63065D01*
X17594Y62762D02*
X10882Y62762D01*
X10579Y62459D02*
X17594Y62459D01*
X17594Y62156D02*
X02184Y62156D01*
X02184Y62459D02*
X08979Y62459D01*
X08676Y62762D02*
X02184Y62762D01*
X02184Y63065D02*
X08534Y63065D01*
X08534Y63672D02*
X02184Y63672D01*
X02184Y63369D02*
X09728Y63369D01*
X09728Y63065D02*
X09830Y63065D01*
X09830Y62762D02*
X09728Y62762D01*
X09728Y62459D02*
X09830Y62459D01*
X10983Y63975D02*
X17594Y63975D01*
X17594Y64279D02*
X10679Y64279D01*
X09182Y64582D02*
X02184Y64582D01*
X02184Y64885D02*
X09093Y64885D01*
X08789Y65189D02*
X02184Y65189D01*
X02184Y65492D02*
X08534Y65492D01*
X08534Y65795D02*
X02184Y65795D01*
X02184Y66099D02*
X08534Y66099D01*
X08534Y66402D02*
X02184Y66402D01*
X02184Y66705D02*
X08765Y66705D01*
X09068Y67008D02*
X02184Y67008D01*
X02184Y64279D02*
X08879Y64279D01*
X08575Y63975D02*
X02184Y63975D01*
X02184Y61852D02*
X17594Y61852D01*
X17594Y61549D02*
X02184Y61549D01*
X02184Y61246D02*
X17594Y61246D01*
X17594Y60942D02*
X02184Y60942D01*
X02184Y60639D02*
X17594Y60639D01*
X17594Y60336D02*
X02184Y60336D01*
X02184Y60032D02*
X17594Y60032D01*
X17594Y59729D02*
X02184Y59729D01*
X02184Y59426D02*
X17594Y59426D01*
X17594Y59123D02*
X02184Y59123D01*
X02184Y58819D02*
X17594Y58819D01*
X17594Y58516D02*
X02184Y58516D01*
X02184Y58213D02*
X17594Y58213D01*
X17594Y57909D02*
X14821Y57909D01*
X14817Y57914D02*
X13785Y57914D01*
X13056Y57185D01*
X13056Y56153D01*
X13785Y55424D01*
X14817Y55424D01*
X15546Y56153D01*
X15546Y57185D01*
X14817Y57914D01*
X15124Y57606D02*
X17594Y57606D01*
X17594Y57303D02*
X15427Y57303D01*
X15546Y56999D02*
X17594Y56999D01*
X17594Y56696D02*
X15546Y56696D01*
X15546Y56393D02*
X17594Y56393D01*
X17594Y56090D02*
X15482Y56090D01*
X15178Y55786D02*
X17594Y55786D01*
X17594Y55483D02*
X14875Y55483D01*
X13727Y55483D02*
X05731Y55483D01*
X05673Y55424D02*
X06402Y56153D01*
X06402Y57185D01*
X05673Y57914D01*
X04641Y57914D01*
X03912Y57185D01*
X03912Y56153D01*
X04641Y55424D01*
X05673Y55424D01*
X06034Y55786D02*
X13424Y55786D01*
X13120Y56090D02*
X06338Y56090D01*
X06402Y56393D02*
X13056Y56393D01*
X13056Y56696D02*
X06402Y56696D01*
X06402Y56999D02*
X13056Y56999D01*
X13175Y57303D02*
X06283Y57303D01*
X05980Y57606D02*
X13478Y57606D01*
X13781Y57909D02*
X05677Y57909D01*
X04637Y57909D02*
X02184Y57909D01*
X02184Y57606D02*
X04334Y57606D01*
X04031Y57303D02*
X02184Y57303D01*
X02184Y56999D02*
X03912Y56999D01*
X03912Y56696D02*
X02184Y56696D01*
X02184Y56393D02*
X03912Y56393D01*
X03976Y56090D02*
X02184Y56090D01*
X02184Y55786D02*
X04280Y55786D01*
X04583Y55483D02*
X02184Y55483D01*
X02184Y55180D02*
X17594Y55180D01*
X17594Y54876D02*
X02184Y54876D01*
X02184Y54573D02*
X17594Y54573D01*
X17594Y54270D02*
X02184Y54270D01*
X02184Y53966D02*
X17594Y53966D01*
X17594Y53663D02*
X02184Y53663D01*
X02184Y53360D02*
X17594Y53360D01*
X17594Y53057D02*
X02184Y53057D01*
X02184Y52753D02*
X17594Y52753D01*
X17594Y52450D02*
X02184Y52450D01*
X02184Y52147D02*
X17594Y52147D01*
X17594Y51843D02*
X02184Y51843D01*
X02184Y51540D02*
X17594Y51540D01*
X17594Y51237D02*
X02184Y51237D01*
X02184Y50933D02*
X17594Y50933D01*
X17594Y50630D02*
X02184Y50630D01*
X02184Y50327D02*
X17594Y50327D01*
X17594Y50024D02*
X02184Y50024D01*
X02184Y49720D02*
X17594Y49720D01*
X17594Y49417D02*
X15374Y49417D01*
X15405Y49409D02*
X14663Y49607D01*
X13895Y49607D01*
X13153Y49409D01*
X12487Y49024D01*
X11944Y48481D01*
X11559Y47815D01*
X11361Y47073D01*
X11361Y46305D01*
X11559Y45563D01*
X11944Y44897D01*
X12487Y44354D01*
X13153Y43969D01*
X13895Y43771D01*
X14663Y43771D01*
X15405Y43969D01*
X16071Y44354D01*
X16614Y44897D01*
X16999Y45563D01*
X17197Y46305D01*
X17197Y47073D01*
X16999Y47815D01*
X16614Y48481D01*
X16071Y49024D01*
X15405Y49409D01*
X15916Y49114D02*
X17594Y49114D01*
X17594Y48810D02*
X16285Y48810D01*
X16588Y48507D02*
X17594Y48507D01*
X17594Y48204D02*
X16774Y48204D01*
X16949Y47900D02*
X17594Y47900D01*
X17594Y47597D02*
X17057Y47597D01*
X17138Y47294D02*
X17594Y47294D01*
X17594Y46991D02*
X17197Y46991D01*
X17197Y46687D02*
X17594Y46687D01*
X17594Y46384D02*
X17197Y46384D01*
X17137Y46081D02*
X17594Y46081D01*
X17594Y45777D02*
X17056Y45777D01*
X16947Y45474D02*
X17594Y45474D01*
X17594Y45171D02*
X16772Y45171D01*
X16585Y44867D02*
X17594Y44867D01*
X17594Y44564D02*
X16281Y44564D01*
X15910Y44261D02*
X17594Y44261D01*
X17594Y43958D02*
X15361Y43958D01*
X13197Y43958D02*
X07361Y43958D01*
X07405Y43969D02*
X08071Y44354D01*
X08614Y44897D01*
X08999Y45563D01*
X09197Y46305D01*
X09197Y47073D01*
X08999Y47815D01*
X08614Y48481D01*
X08071Y49024D01*
X07405Y49409D01*
X06663Y49607D01*
X05895Y49607D01*
X05153Y49409D01*
X04487Y49024D01*
X03944Y48481D01*
X03559Y47815D01*
X03361Y47073D01*
X03361Y46305D01*
X03559Y45563D01*
X03944Y44897D01*
X04487Y44354D01*
X05153Y43969D01*
X05895Y43771D01*
X06663Y43771D01*
X07405Y43969D01*
X07910Y44261D02*
X12648Y44261D01*
X12277Y44564D02*
X08281Y44564D01*
X08585Y44867D02*
X11973Y44867D01*
X11786Y45171D02*
X08772Y45171D01*
X08947Y45474D02*
X11611Y45474D01*
X11502Y45777D02*
X09056Y45777D01*
X09137Y46081D02*
X11421Y46081D01*
X11361Y46384D02*
X09197Y46384D01*
X09197Y46687D02*
X11361Y46687D01*
X11361Y46991D02*
X09197Y46991D01*
X09138Y47294D02*
X11420Y47294D01*
X11501Y47597D02*
X09057Y47597D01*
X08949Y47900D02*
X11609Y47900D01*
X11784Y48204D02*
X08774Y48204D01*
X08588Y48507D02*
X11970Y48507D01*
X12273Y48810D02*
X08285Y48810D01*
X07916Y49114D02*
X12642Y49114D01*
X13184Y49417D02*
X07374Y49417D01*
X05184Y49417D02*
X02184Y49417D01*
X02184Y49114D02*
X04642Y49114D01*
X04273Y48810D02*
X02184Y48810D01*
X02184Y48507D02*
X03970Y48507D01*
X03784Y48204D02*
X02184Y48204D01*
X02184Y47900D02*
X03609Y47900D01*
X03501Y47597D02*
X02184Y47597D01*
X02184Y47294D02*
X03420Y47294D01*
X03361Y46991D02*
X02184Y46991D01*
X02184Y46687D02*
X03361Y46687D01*
X03361Y46384D02*
X02184Y46384D01*
X02184Y46081D02*
X03421Y46081D01*
X03502Y45777D02*
X02184Y45777D01*
X02184Y45474D02*
X03611Y45474D01*
X03786Y45171D02*
X02184Y45171D01*
X02184Y44867D02*
X03973Y44867D01*
X04277Y44564D02*
X02184Y44564D01*
X02184Y44261D02*
X04648Y44261D01*
X05197Y43958D02*
X02184Y43958D01*
X02184Y43654D02*
X17594Y43654D01*
X17594Y43351D02*
X02184Y43351D01*
X02184Y43048D02*
X17594Y43048D01*
X17594Y42744D02*
X02184Y42744D01*
X02184Y42441D02*
X17594Y42441D01*
X17594Y42138D02*
X02184Y42138D01*
X02184Y41835D02*
X17594Y41835D01*
X17594Y41531D02*
X02184Y41531D01*
X02184Y41228D02*
X17594Y41228D01*
X17594Y40925D02*
X02184Y40925D01*
X02184Y40621D02*
X17594Y40621D01*
X17594Y40318D02*
X02184Y40318D01*
X02184Y40015D02*
X17594Y40015D01*
X17594Y39711D02*
X02184Y39711D01*
X02184Y39408D02*
X17594Y39408D01*
X17594Y39105D02*
X02184Y39105D01*
X02184Y38802D02*
X17594Y38802D01*
X17594Y38498D02*
X02184Y38498D01*
X02184Y38195D02*
X17594Y38195D01*
X17594Y37892D02*
X02184Y37892D01*
X02184Y37588D02*
X17594Y37588D01*
X20184Y31826D02*
X36094Y31826D01*
X36094Y31522D02*
X20184Y31522D01*
X20184Y31219D02*
X36094Y31219D01*
X36094Y30916D02*
X20184Y30916D01*
X20184Y30612D02*
X36094Y30612D01*
X36094Y30309D02*
X20184Y30309D01*
X20184Y30006D02*
X36094Y30006D01*
X36094Y29702D02*
X20184Y29702D01*
X20184Y29399D02*
X36094Y29399D01*
X36094Y29096D02*
X20184Y29096D01*
X20184Y28793D02*
X36094Y28793D01*
X38684Y28793D02*
X54594Y28793D01*
X54594Y29096D02*
X38684Y29096D01*
X38684Y29399D02*
X54594Y29399D01*
X54594Y29702D02*
X38684Y29702D01*
X38684Y30006D02*
X54594Y30006D01*
X54594Y30309D02*
X38684Y30309D01*
X38684Y30612D02*
X54594Y30612D01*
X54594Y30916D02*
X38684Y30916D01*
X38684Y31219D02*
X54594Y31219D01*
X54594Y31522D02*
X38684Y31522D01*
X38684Y31826D02*
X54594Y31826D01*
X54594Y32129D02*
X38684Y32129D01*
X38684Y32432D02*
X45836Y32432D01*
X46093Y32174D02*
X45364Y32903D01*
X45364Y33368D01*
X46558Y33368D01*
X46558Y33470D01*
X46558Y34664D01*
X46093Y34664D01*
X45364Y33935D01*
X45364Y33470D01*
X46558Y33470D01*
X46660Y33470D01*
X46660Y34664D01*
X47125Y34664D01*
X47854Y33935D01*
X47854Y33470D01*
X46660Y33470D01*
X46660Y33368D01*
X47854Y33368D01*
X47854Y32903D01*
X47125Y32174D01*
X46660Y32174D01*
X46660Y33368D01*
X46558Y33368D01*
X46558Y32174D01*
X46093Y32174D01*
X46558Y32432D02*
X46660Y32432D01*
X46660Y32735D02*
X46558Y32735D01*
X46558Y33039D02*
X46660Y33039D01*
X46660Y33342D02*
X46558Y33342D01*
X46558Y33645D02*
X46660Y33645D01*
X46660Y33949D02*
X46558Y33949D01*
X46558Y34252D02*
X46660Y34252D01*
X46660Y34555D02*
X46558Y34555D01*
X46093Y34714D02*
X47125Y34714D01*
X47854Y35443D01*
X47854Y36475D01*
X47125Y37204D01*
X46093Y37204D01*
X45364Y36475D01*
X45364Y35443D01*
X46093Y34714D01*
X45985Y34555D02*
X38684Y34555D01*
X38684Y34252D02*
X45682Y34252D01*
X45379Y33949D02*
X38684Y33949D01*
X38684Y33645D02*
X45364Y33645D01*
X45364Y33342D02*
X38684Y33342D01*
X38684Y33039D02*
X45364Y33039D01*
X45532Y32735D02*
X38684Y32735D01*
X38684Y34859D02*
X45949Y34859D01*
X45646Y35162D02*
X38684Y35162D01*
X38684Y35465D02*
X45364Y35465D01*
X45364Y35769D02*
X38684Y35769D01*
X38684Y36072D02*
X45364Y36072D01*
X45364Y36375D02*
X38684Y36375D01*
X38684Y36678D02*
X45568Y36678D01*
X45872Y36982D02*
X38684Y36982D01*
X38684Y37285D02*
X54594Y37285D01*
X54594Y36982D02*
X47346Y36982D01*
X47650Y36678D02*
X54594Y36678D01*
X54594Y36375D02*
X47854Y36375D01*
X47854Y36072D02*
X54594Y36072D01*
X54594Y35769D02*
X47854Y35769D01*
X47854Y35465D02*
X54594Y35465D01*
X54594Y35162D02*
X47572Y35162D01*
X47269Y34859D02*
X54594Y34859D01*
X54594Y34555D02*
X47233Y34555D01*
X47536Y34252D02*
X54594Y34252D01*
X54594Y33949D02*
X47839Y33949D01*
X47854Y33645D02*
X54594Y33645D01*
X54594Y33342D02*
X47854Y33342D01*
X47854Y33039D02*
X54594Y33039D01*
X54594Y32735D02*
X47686Y32735D01*
X47382Y32432D02*
X54594Y32432D01*
X57184Y32432D02*
X64251Y32432D01*
X64508Y32174D02*
X63779Y32903D01*
X63779Y33368D01*
X64973Y33368D01*
X64973Y33470D01*
X64973Y34664D01*
X64508Y34664D01*
X63779Y33935D01*
X63779Y33470D01*
X64973Y33470D01*
X65075Y33470D01*
X65075Y34664D01*
X65540Y34664D01*
X66269Y33935D01*
X66269Y33470D01*
X65075Y33470D01*
X65075Y33368D01*
X66269Y33368D01*
X66269Y32903D01*
X65540Y32174D01*
X65075Y32174D01*
X65075Y33368D01*
X64973Y33368D01*
X64973Y32174D01*
X64508Y32174D01*
X64973Y32432D02*
X65075Y32432D01*
X65075Y32735D02*
X64973Y32735D01*
X64973Y33039D02*
X65075Y33039D01*
X65075Y33342D02*
X64973Y33342D01*
X64973Y33645D02*
X65075Y33645D01*
X65075Y33949D02*
X64973Y33949D01*
X64973Y34252D02*
X65075Y34252D01*
X65075Y34555D02*
X64973Y34555D01*
X64508Y34714D02*
X65540Y34714D01*
X66269Y35443D01*
X66269Y36475D01*
X65540Y37204D01*
X64508Y37204D01*
X63779Y36475D01*
X63779Y35443D01*
X64508Y34714D01*
X64400Y34555D02*
X57184Y34555D01*
X57184Y34252D02*
X64097Y34252D01*
X63794Y33949D02*
X57184Y33949D01*
X57184Y33645D02*
X63779Y33645D01*
X63779Y33342D02*
X57184Y33342D01*
X57184Y33039D02*
X63779Y33039D01*
X63947Y32735D02*
X57184Y32735D01*
X57184Y32129D02*
X73094Y32129D01*
X73094Y32432D02*
X65797Y32432D01*
X66101Y32735D02*
X73094Y32735D01*
X73094Y33039D02*
X66269Y33039D01*
X66269Y33342D02*
X73094Y33342D01*
X73094Y33645D02*
X66269Y33645D01*
X66254Y33949D02*
X73094Y33949D01*
X73094Y34252D02*
X65951Y34252D01*
X65648Y34555D02*
X73094Y34555D01*
X73094Y34859D02*
X65684Y34859D01*
X65987Y35162D02*
X73094Y35162D01*
X73094Y35465D02*
X66269Y35465D01*
X66269Y35769D02*
X73094Y35769D01*
X73094Y36072D02*
X66269Y36072D01*
X66269Y36375D02*
X73094Y36375D01*
X73094Y36678D02*
X66065Y36678D01*
X65761Y36982D02*
X73094Y36982D01*
X73094Y37285D02*
X57184Y37285D01*
X57184Y36982D02*
X64287Y36982D01*
X63983Y36678D02*
X57184Y36678D01*
X57184Y36375D02*
X63779Y36375D01*
X63779Y36072D02*
X57184Y36072D01*
X57184Y35769D02*
X63779Y35769D01*
X63779Y35465D02*
X57184Y35465D01*
X57184Y35162D02*
X64061Y35162D01*
X64364Y34859D02*
X57184Y34859D01*
X57184Y37588D02*
X73094Y37588D01*
X73094Y37892D02*
X57184Y37892D01*
X57184Y38195D02*
X73094Y38195D01*
X73094Y38498D02*
X57184Y38498D01*
X57184Y38802D02*
X73094Y38802D01*
X73094Y39105D02*
X57184Y39105D01*
X57184Y39408D02*
X73094Y39408D01*
X73094Y39711D02*
X57184Y39711D01*
X57184Y40015D02*
X73094Y40015D01*
X73094Y40318D02*
X57184Y40318D01*
X57184Y40621D02*
X73094Y40621D01*
X73094Y40925D02*
X57184Y40925D01*
X57184Y41228D02*
X73094Y41228D01*
X73094Y41531D02*
X57184Y41531D01*
X57184Y41835D02*
X73094Y41835D01*
X73094Y42138D02*
X57184Y42138D01*
X57184Y42441D02*
X73094Y42441D01*
X73094Y42744D02*
X57184Y42744D01*
X57184Y43048D02*
X73094Y43048D01*
X73094Y43351D02*
X57184Y43351D01*
X57184Y43654D02*
X73094Y43654D01*
X73094Y43958D02*
X57184Y43958D01*
X57184Y44261D02*
X73094Y44261D01*
X73094Y44564D02*
X71390Y44564D01*
X71540Y44604D02*
X72206Y44989D01*
X72749Y45532D01*
X73094Y46128D01*
X73094Y02184D01*
X57184Y02184D01*
X57184Y98594D01*
X73094Y98594D01*
X73094Y48520D01*
X72749Y49116D01*
X72206Y49659D01*
X71540Y50044D01*
X70798Y50242D01*
X70030Y50242D01*
X69288Y50044D01*
X68622Y49659D01*
X68079Y49116D01*
X67694Y48450D01*
X67496Y47708D01*
X67496Y46940D01*
X67694Y46198D01*
X68079Y45532D01*
X68622Y44989D01*
X69288Y44604D01*
X70030Y44406D01*
X70798Y44406D01*
X71540Y44604D01*
X71996Y44867D02*
X73094Y44867D01*
X73094Y45171D02*
X72388Y45171D01*
X72691Y45474D02*
X73094Y45474D01*
X73094Y45777D02*
X72891Y45777D01*
X73066Y46081D02*
X73094Y46081D01*
X75684Y46081D02*
X77287Y46081D01*
X77219Y46198D02*
X77604Y45532D01*
X78147Y44989D01*
X78813Y44604D01*
X79555Y44406D01*
X80323Y44406D01*
X81065Y44604D01*
X81731Y44989D01*
X82274Y45532D01*
X82659Y46198D01*
X82857Y46940D01*
X82857Y47708D01*
X82659Y48450D01*
X82274Y49116D01*
X81731Y49659D01*
X81065Y50044D01*
X80323Y50242D01*
X79555Y50242D01*
X78813Y50044D01*
X78147Y49659D01*
X77604Y49116D01*
X77219Y48450D01*
X77021Y47708D01*
X77021Y46940D01*
X77219Y46198D01*
X77170Y46384D02*
X75684Y46384D01*
X75684Y46687D02*
X77088Y46687D01*
X77021Y46991D02*
X75684Y46991D01*
X75684Y47294D02*
X77021Y47294D01*
X77021Y47597D02*
X75684Y47597D01*
X75684Y47900D02*
X77072Y47900D01*
X77153Y48204D02*
X75684Y48204D01*
X75684Y48507D02*
X77252Y48507D01*
X77427Y48810D02*
X75684Y48810D01*
X75684Y49114D02*
X77602Y49114D01*
X77905Y49417D02*
X75684Y49417D01*
X75684Y49720D02*
X78253Y49720D01*
X78778Y50024D02*
X75684Y50024D01*
X75684Y50327D02*
X91594Y50327D01*
X91594Y50630D02*
X75684Y50630D01*
X75684Y50933D02*
X91594Y50933D01*
X91594Y51237D02*
X75684Y51237D01*
X75684Y51540D02*
X91594Y51540D01*
X91594Y51843D02*
X75684Y51843D01*
X75684Y52147D02*
X91594Y52147D01*
X91594Y52450D02*
X75684Y52450D01*
X75684Y52753D02*
X91594Y52753D01*
X91594Y53057D02*
X75684Y53057D01*
X75684Y53360D02*
X91594Y53360D01*
X91594Y53663D02*
X75684Y53663D01*
X75684Y53966D02*
X91594Y53966D01*
X91594Y54270D02*
X75684Y54270D01*
X75684Y54573D02*
X91594Y54573D01*
X91594Y54876D02*
X75684Y54876D01*
X75684Y55180D02*
X91594Y55180D01*
X91594Y55483D02*
X88535Y55483D01*
X88477Y55424D02*
X87445Y55424D01*
X86716Y56153D01*
X86716Y57185D01*
X87445Y57914D01*
X88477Y57914D01*
X89206Y57185D01*
X89206Y56153D01*
X88477Y55424D01*
X88838Y55786D02*
X91594Y55786D01*
X91594Y56090D02*
X89142Y56090D01*
X89206Y56393D02*
X91594Y56393D01*
X91594Y56696D02*
X89206Y56696D01*
X89206Y56999D02*
X91594Y56999D01*
X91594Y57303D02*
X89087Y57303D01*
X88784Y57606D02*
X91594Y57606D01*
X91594Y57909D02*
X88481Y57909D01*
X87441Y57909D02*
X79337Y57909D01*
X79333Y57914D02*
X78301Y57914D01*
X77572Y57185D01*
X77572Y56153D01*
X78301Y55424D01*
X79333Y55424D01*
X80062Y56153D01*
X80062Y57185D01*
X79333Y57914D01*
X79640Y57606D02*
X87138Y57606D01*
X86835Y57303D02*
X79943Y57303D01*
X80062Y56999D02*
X86716Y56999D01*
X86716Y56696D02*
X80062Y56696D01*
X80062Y56393D02*
X86716Y56393D01*
X86780Y56090D02*
X79998Y56090D01*
X79694Y55786D02*
X87084Y55786D01*
X87387Y55483D02*
X79391Y55483D01*
X78243Y55483D02*
X75684Y55483D01*
X75684Y55786D02*
X77940Y55786D01*
X77636Y56090D02*
X75684Y56090D01*
X75684Y56393D02*
X77572Y56393D01*
X77572Y56696D02*
X75684Y56696D01*
X75684Y56999D02*
X77572Y56999D01*
X77691Y57303D02*
X75684Y57303D01*
X75684Y57606D02*
X77994Y57606D01*
X78297Y57909D02*
X75684Y57909D01*
X75684Y58213D02*
X91594Y58213D01*
X91594Y58516D02*
X75684Y58516D01*
X75684Y58819D02*
X91594Y58819D01*
X91594Y59123D02*
X75684Y59123D01*
X75684Y59426D02*
X91594Y59426D01*
X91594Y59729D02*
X75684Y59729D01*
X75684Y60032D02*
X91594Y60032D01*
X91594Y60336D02*
X75684Y60336D01*
X75684Y60639D02*
X91594Y60639D01*
X91594Y60942D02*
X75684Y60942D01*
X75684Y61246D02*
X91594Y61246D01*
X91594Y61549D02*
X75684Y61549D01*
X75684Y61852D02*
X91594Y61852D01*
X91594Y62156D02*
X75684Y62156D01*
X75684Y62459D02*
X82639Y62459D01*
X82923Y62174D02*
X82194Y62903D01*
X82194Y63368D01*
X83388Y63368D01*
X83388Y63470D01*
X83388Y64664D01*
X82923Y64664D01*
X82194Y63935D01*
X82194Y63470D01*
X83388Y63470D01*
X83490Y63470D01*
X83490Y64664D01*
X83955Y64664D01*
X84684Y63935D01*
X84684Y63470D01*
X83490Y63470D01*
X83490Y63368D01*
X84684Y63368D01*
X84684Y62903D01*
X83955Y62174D01*
X83490Y62174D01*
X83490Y63368D01*
X83388Y63368D01*
X83388Y62174D01*
X82923Y62174D01*
X83388Y62459D02*
X83490Y62459D01*
X83490Y62762D02*
X83388Y62762D01*
X83388Y63065D02*
X83490Y63065D01*
X83490Y63369D02*
X91594Y63369D01*
X91594Y63672D02*
X84684Y63672D01*
X84643Y63975D02*
X91594Y63975D01*
X91594Y64279D02*
X84339Y64279D01*
X84036Y64582D02*
X91594Y64582D01*
X91594Y64885D02*
X84125Y64885D01*
X83955Y64714D02*
X84684Y65443D01*
X84684Y66475D01*
X83955Y67204D01*
X82923Y67204D01*
X82194Y66475D01*
X82194Y65443D01*
X82923Y64714D01*
X83955Y64714D01*
X83490Y64582D02*
X83388Y64582D01*
X83388Y64279D02*
X83490Y64279D01*
X83490Y63975D02*
X83388Y63975D01*
X83388Y63672D02*
X83490Y63672D01*
X83388Y63369D02*
X75684Y63369D01*
X75684Y63672D02*
X82194Y63672D01*
X82235Y63975D02*
X75684Y63975D01*
X75684Y64279D02*
X82539Y64279D01*
X82842Y64582D02*
X75684Y64582D01*
X75684Y64885D02*
X82753Y64885D01*
X82449Y65189D02*
X75684Y65189D01*
X75684Y65492D02*
X82194Y65492D01*
X82194Y65795D02*
X75684Y65795D01*
X75684Y66099D02*
X82194Y66099D01*
X82194Y66402D02*
X75684Y66402D01*
X75684Y66705D02*
X82425Y66705D01*
X82728Y67008D02*
X75684Y67008D01*
X75684Y67312D02*
X91594Y67312D01*
X91594Y67615D02*
X75684Y67615D01*
X75684Y67918D02*
X91594Y67918D01*
X91594Y68222D02*
X75684Y68222D01*
X75684Y68525D02*
X91594Y68525D01*
X91594Y68828D02*
X75684Y68828D01*
X75684Y69132D02*
X91594Y69132D01*
X91594Y69435D02*
X75684Y69435D01*
X75684Y69738D02*
X91594Y69738D01*
X91594Y70041D02*
X75684Y70041D01*
X75684Y70345D02*
X91594Y70345D01*
X91594Y70648D02*
X88610Y70648D01*
X88507Y70544D02*
X87475Y70544D01*
X86746Y71273D01*
X86746Y72305D01*
X87475Y73034D01*
X88507Y73034D01*
X89236Y72305D01*
X89236Y71273D01*
X88507Y70544D01*
X88913Y70951D02*
X91594Y70951D01*
X91594Y71255D02*
X89217Y71255D01*
X89236Y71558D02*
X91594Y71558D01*
X91594Y71861D02*
X89236Y71861D01*
X89236Y72165D02*
X91594Y72165D01*
X91594Y72468D02*
X89072Y72468D01*
X88769Y72771D02*
X91594Y72771D01*
X91594Y73074D02*
X75684Y73074D01*
X75684Y72771D02*
X78069Y72771D01*
X78331Y73034D02*
X77602Y72305D01*
X77602Y71273D01*
X78331Y70544D01*
X79363Y70544D01*
X80092Y71273D01*
X80092Y72305D01*
X79363Y73034D01*
X78331Y73034D01*
X77766Y72468D02*
X75684Y72468D01*
X75684Y72165D02*
X77602Y72165D01*
X77602Y71861D02*
X75684Y71861D01*
X75684Y71558D02*
X77602Y71558D01*
X77621Y71255D02*
X75684Y71255D01*
X75684Y70951D02*
X77925Y70951D01*
X78228Y70648D02*
X75684Y70648D01*
X75684Y73378D02*
X91594Y73378D01*
X91594Y73681D02*
X75684Y73681D01*
X75684Y73984D02*
X91594Y73984D01*
X91594Y74288D02*
X75684Y74288D01*
X75684Y74591D02*
X91594Y74591D01*
X91594Y74894D02*
X75684Y74894D01*
X75684Y75198D02*
X91594Y75198D01*
X91594Y75501D02*
X75684Y75501D01*
X75684Y75804D02*
X91594Y75804D01*
X91594Y76107D02*
X75684Y76107D01*
X75684Y76411D02*
X91594Y76411D01*
X91594Y76714D02*
X75684Y76714D01*
X75684Y77017D02*
X91594Y77017D01*
X91594Y77321D02*
X84101Y77321D01*
X83955Y77174D02*
X84684Y77903D01*
X84684Y78368D01*
X83490Y78368D01*
X83490Y78470D01*
X83388Y78470D01*
X83388Y79664D01*
X82923Y79664D01*
X82194Y78935D01*
X82194Y78470D01*
X83388Y78470D01*
X83388Y78368D01*
X82194Y78368D01*
X82194Y77903D01*
X82923Y77174D01*
X83388Y77174D01*
X83388Y78368D01*
X83490Y78368D01*
X83490Y77174D01*
X83955Y77174D01*
X83490Y77321D02*
X83388Y77321D01*
X83388Y77624D02*
X83490Y77624D01*
X83490Y77927D02*
X83388Y77927D01*
X83388Y78231D02*
X83490Y78231D01*
X83490Y78470D02*
X84684Y78470D01*
X84684Y78935D01*
X83955Y79664D01*
X83490Y79664D01*
X83490Y78470D01*
X83490Y78534D02*
X83388Y78534D01*
X83388Y78837D02*
X83490Y78837D01*
X83490Y79140D02*
X83388Y79140D01*
X83388Y79444D02*
X83490Y79444D01*
X83955Y79714D02*
X82923Y79714D01*
X82194Y80443D01*
X82194Y81475D01*
X82923Y82204D01*
X83955Y82204D01*
X84684Y81475D01*
X84684Y80443D01*
X83955Y79714D01*
X83987Y79747D02*
X91594Y79747D01*
X91594Y80050D02*
X84290Y80050D01*
X84594Y80354D02*
X91594Y80354D01*
X91594Y80657D02*
X84684Y80657D01*
X84684Y80960D02*
X91594Y80960D01*
X91594Y81264D02*
X84684Y81264D01*
X84591Y81567D02*
X91594Y81567D01*
X91594Y81870D02*
X84288Y81870D01*
X83985Y82173D02*
X91594Y82173D01*
X91594Y82477D02*
X75684Y82477D01*
X75684Y82780D02*
X91594Y82780D01*
X91594Y83083D02*
X75684Y83083D01*
X75684Y83387D02*
X91594Y83387D01*
X91594Y83690D02*
X75684Y83690D01*
X75684Y83993D02*
X91594Y83993D01*
X91594Y84297D02*
X75684Y84297D01*
X75684Y84600D02*
X91594Y84600D01*
X91594Y84903D02*
X75684Y84903D01*
X75684Y85206D02*
X91594Y85206D01*
X91594Y85510D02*
X75684Y85510D01*
X75684Y85813D02*
X91594Y85813D01*
X91594Y86116D02*
X75684Y86116D01*
X75684Y86420D02*
X91594Y86420D01*
X91594Y86723D02*
X88805Y86723D01*
X88527Y86444D02*
X87495Y86444D01*
X86766Y87173D01*
X86766Y88205D01*
X87495Y88934D01*
X88527Y88934D01*
X89256Y88205D01*
X89256Y87173D01*
X88527Y86444D01*
X89108Y87026D02*
X91594Y87026D01*
X91594Y87330D02*
X89256Y87330D01*
X89256Y87633D02*
X91594Y87633D01*
X91594Y87936D02*
X89256Y87936D01*
X89221Y88239D02*
X91594Y88239D01*
X91594Y88543D02*
X88917Y88543D01*
X88614Y88846D02*
X91594Y88846D01*
X91594Y89149D02*
X75684Y89149D01*
X75684Y88846D02*
X78264Y88846D01*
X78351Y88934D02*
X77622Y88205D01*
X77622Y87173D01*
X78351Y86444D01*
X79383Y86444D01*
X80112Y87173D01*
X80112Y88205D01*
X79383Y88934D01*
X78351Y88934D01*
X77961Y88543D02*
X75684Y88543D01*
X75684Y88239D02*
X77657Y88239D01*
X77622Y87936D02*
X75684Y87936D01*
X75684Y87633D02*
X77622Y87633D01*
X77622Y87330D02*
X75684Y87330D01*
X75684Y87026D02*
X77770Y87026D01*
X78073Y86723D02*
X75684Y86723D01*
X75684Y89453D02*
X91594Y89453D01*
X91594Y89756D02*
X75684Y89756D01*
X75684Y90059D02*
X91594Y90059D01*
X91594Y90362D02*
X75684Y90362D01*
X75684Y90666D02*
X91594Y90666D01*
X91594Y90969D02*
X75684Y90969D01*
X75684Y91272D02*
X91594Y91272D01*
X91594Y91576D02*
X75684Y91576D01*
X75684Y91879D02*
X91594Y91879D01*
X91594Y92182D02*
X83962Y92182D01*
X83955Y92174D02*
X84684Y92903D01*
X84684Y93368D01*
X83490Y93368D01*
X83490Y93470D01*
X83388Y93470D01*
X83388Y94664D01*
X82923Y94664D01*
X82194Y93935D01*
X82194Y93470D01*
X83388Y93470D01*
X83388Y93368D01*
X82194Y93368D01*
X82194Y92903D01*
X82923Y92174D01*
X83388Y92174D01*
X83388Y93368D01*
X83490Y93368D01*
X83490Y92174D01*
X83955Y92174D01*
X84266Y92486D02*
X91594Y92486D01*
X91594Y92789D02*
X84569Y92789D01*
X84684Y93092D02*
X91594Y93092D01*
X91594Y93395D02*
X83490Y93395D01*
X83490Y93470D02*
X84684Y93470D01*
X84684Y93935D01*
X83955Y94664D01*
X83490Y94664D01*
X83490Y93470D01*
X83388Y93395D02*
X75684Y93395D01*
X75684Y93092D02*
X82194Y93092D01*
X82309Y92789D02*
X75684Y92789D01*
X75684Y92486D02*
X82612Y92486D01*
X82916Y92182D02*
X75684Y92182D01*
X75684Y93699D02*
X82194Y93699D01*
X82262Y94002D02*
X75684Y94002D01*
X75684Y94305D02*
X82565Y94305D01*
X82869Y94609D02*
X75684Y94609D01*
X75684Y94912D02*
X82726Y94912D01*
X82923Y94714D02*
X83955Y94714D01*
X84684Y95443D01*
X84684Y96475D01*
X83955Y97204D01*
X82923Y97204D01*
X82194Y96475D01*
X82194Y95443D01*
X82923Y94714D01*
X83388Y94609D02*
X83490Y94609D01*
X83490Y94305D02*
X83388Y94305D01*
X83388Y94002D02*
X83490Y94002D01*
X83490Y93699D02*
X83388Y93699D01*
X83388Y93092D02*
X83490Y93092D01*
X83490Y92789D02*
X83388Y92789D01*
X83388Y92486D02*
X83490Y92486D01*
X83490Y92182D02*
X83388Y92182D01*
X84684Y93699D02*
X91594Y93699D01*
X91594Y94002D02*
X84616Y94002D01*
X84313Y94305D02*
X91594Y94305D01*
X91594Y94609D02*
X84009Y94609D01*
X84152Y94912D02*
X91594Y94912D01*
X91594Y95215D02*
X84455Y95215D01*
X84684Y95519D02*
X91594Y95519D01*
X91594Y95822D02*
X84684Y95822D01*
X84684Y96125D02*
X91594Y96125D01*
X91594Y96428D02*
X84684Y96428D01*
X84426Y96732D02*
X91594Y96732D01*
X91594Y97035D02*
X84123Y97035D01*
X82755Y97035D02*
X75684Y97035D01*
X75684Y96732D02*
X82452Y96732D01*
X82194Y96428D02*
X75684Y96428D01*
X75684Y96125D02*
X82194Y96125D01*
X82194Y95822D02*
X75684Y95822D01*
X75684Y95519D02*
X82194Y95519D01*
X82423Y95215D02*
X75684Y95215D01*
X75684Y97338D02*
X91594Y97338D01*
X91594Y97642D02*
X75684Y97642D01*
X75684Y97945D02*
X91594Y97945D01*
X91594Y98248D02*
X75684Y98248D01*
X75684Y98552D02*
X91594Y98552D01*
X91594Y98594D02*
X91594Y02184D01*
X75684Y02184D01*
X75684Y98594D01*
X91594Y98594D01*
X87408Y88846D02*
X79470Y88846D01*
X79773Y88543D02*
X87105Y88543D01*
X86801Y88239D02*
X80077Y88239D01*
X80112Y87936D02*
X86766Y87936D01*
X86766Y87633D02*
X80112Y87633D01*
X80112Y87330D02*
X86766Y87330D01*
X86914Y87026D02*
X79964Y87026D01*
X79661Y86723D02*
X87217Y86723D01*
X82893Y82173D02*
X75684Y82173D01*
X75684Y81870D02*
X82590Y81870D01*
X82287Y81567D02*
X75684Y81567D01*
X75684Y81264D02*
X82194Y81264D01*
X82194Y80960D02*
X75684Y80960D01*
X75684Y80657D02*
X82194Y80657D01*
X82284Y80354D02*
X75684Y80354D01*
X75684Y80050D02*
X82588Y80050D01*
X82891Y79747D02*
X75684Y79747D01*
X75684Y79444D02*
X82704Y79444D01*
X82400Y79140D02*
X75684Y79140D01*
X75684Y78837D02*
X82194Y78837D01*
X82194Y78534D02*
X75684Y78534D01*
X75684Y78231D02*
X82194Y78231D01*
X82194Y77927D02*
X75684Y77927D01*
X75684Y77624D02*
X82474Y77624D01*
X82777Y77321D02*
X75684Y77321D01*
X73094Y77321D02*
X65686Y77321D01*
X65540Y77174D02*
X66269Y77903D01*
X66269Y78368D01*
X65075Y78368D01*
X65075Y78470D01*
X64973Y78470D01*
X64973Y79664D01*
X64508Y79664D01*
X63779Y78935D01*
X63779Y78470D01*
X64973Y78470D01*
X64973Y78368D01*
X63779Y78368D01*
X63779Y77903D01*
X64508Y77174D01*
X64973Y77174D01*
X64973Y78368D01*
X65075Y78368D01*
X65075Y77174D01*
X65540Y77174D01*
X65075Y77321D02*
X64973Y77321D01*
X64973Y77624D02*
X65075Y77624D01*
X65075Y77927D02*
X64973Y77927D01*
X64973Y78231D02*
X65075Y78231D01*
X65075Y78470D02*
X66269Y78470D01*
X66269Y78935D01*
X65540Y79664D01*
X65075Y79664D01*
X65075Y78470D01*
X65075Y78534D02*
X64973Y78534D01*
X64973Y78837D02*
X65075Y78837D01*
X65075Y79140D02*
X64973Y79140D01*
X64973Y79444D02*
X65075Y79444D01*
X65540Y79714D02*
X64508Y79714D01*
X63779Y80443D01*
X63779Y81475D01*
X64508Y82204D01*
X65540Y82204D01*
X66269Y81475D01*
X66269Y80443D01*
X65540Y79714D01*
X65572Y79747D02*
X73094Y79747D01*
X73094Y80050D02*
X65875Y80050D01*
X66179Y80354D02*
X73094Y80354D01*
X73094Y80657D02*
X66269Y80657D01*
X66269Y80960D02*
X73094Y80960D01*
X73094Y81264D02*
X66269Y81264D01*
X66176Y81567D02*
X73094Y81567D01*
X73094Y81870D02*
X65873Y81870D01*
X65570Y82173D02*
X73094Y82173D01*
X73094Y82477D02*
X57184Y82477D01*
X57184Y82780D02*
X73094Y82780D01*
X73094Y83083D02*
X57184Y83083D01*
X57184Y83387D02*
X73094Y83387D01*
X73094Y83690D02*
X57184Y83690D01*
X57184Y83993D02*
X73094Y83993D01*
X73094Y84297D02*
X57184Y84297D01*
X57184Y84600D02*
X73094Y84600D01*
X73094Y84903D02*
X57184Y84903D01*
X57184Y85206D02*
X73094Y85206D01*
X73094Y85510D02*
X57184Y85510D01*
X57184Y85813D02*
X73094Y85813D01*
X73094Y86116D02*
X57184Y86116D01*
X57184Y86420D02*
X73094Y86420D01*
X73094Y86723D02*
X70390Y86723D01*
X70112Y86444D02*
X70841Y87173D01*
X70841Y88205D01*
X70112Y88934D01*
X69080Y88934D01*
X68351Y88205D01*
X68351Y87173D01*
X69080Y86444D01*
X70112Y86444D01*
X70693Y87026D02*
X73094Y87026D01*
X73094Y87330D02*
X70841Y87330D01*
X70841Y87633D02*
X73094Y87633D01*
X73094Y87936D02*
X70841Y87936D01*
X70806Y88239D02*
X73094Y88239D01*
X73094Y88543D02*
X70502Y88543D01*
X70199Y88846D02*
X73094Y88846D01*
X73094Y89149D02*
X57184Y89149D01*
X57184Y88846D02*
X59849Y88846D01*
X59936Y88934D02*
X59207Y88205D01*
X59207Y87173D01*
X59936Y86444D01*
X60968Y86444D01*
X61697Y87173D01*
X61697Y88205D01*
X60968Y88934D01*
X59936Y88934D01*
X59546Y88543D02*
X57184Y88543D01*
X57184Y88239D02*
X59242Y88239D01*
X59207Y87936D02*
X57184Y87936D01*
X57184Y87633D02*
X59207Y87633D01*
X59207Y87330D02*
X57184Y87330D01*
X57184Y87026D02*
X59355Y87026D01*
X59658Y86723D02*
X57184Y86723D01*
X54594Y86723D02*
X51975Y86723D01*
X51697Y86444D02*
X52426Y87173D01*
X52426Y88205D01*
X51697Y88934D01*
X50665Y88934D01*
X49936Y88205D01*
X49936Y87173D01*
X50665Y86444D01*
X51697Y86444D01*
X52278Y87026D02*
X54594Y87026D01*
X54594Y87330D02*
X52426Y87330D01*
X52426Y87633D02*
X54594Y87633D01*
X54594Y87936D02*
X52426Y87936D01*
X52391Y88239D02*
X54594Y88239D01*
X54594Y88543D02*
X52087Y88543D01*
X51784Y88846D02*
X54594Y88846D01*
X54594Y89149D02*
X38684Y89149D01*
X38684Y88846D02*
X41434Y88846D01*
X41521Y88934D02*
X40792Y88205D01*
X40792Y87173D01*
X41521Y86444D01*
X42553Y86444D01*
X43282Y87173D01*
X43282Y88205D01*
X42553Y88934D01*
X41521Y88934D01*
X41131Y88543D02*
X38684Y88543D01*
X38684Y88239D02*
X40827Y88239D01*
X40792Y87936D02*
X38684Y87936D01*
X38684Y87633D02*
X40792Y87633D01*
X40792Y87330D02*
X38684Y87330D01*
X38684Y87026D02*
X40940Y87026D01*
X41243Y86723D02*
X38684Y86723D01*
X38684Y86420D02*
X54594Y86420D01*
X54594Y86116D02*
X38684Y86116D01*
X38684Y85813D02*
X54594Y85813D01*
X54594Y85510D02*
X38684Y85510D01*
X38684Y85206D02*
X54594Y85206D01*
X54594Y84903D02*
X38684Y84903D01*
X38684Y84600D02*
X54594Y84600D01*
X54594Y84297D02*
X38684Y84297D01*
X38684Y83993D02*
X54594Y83993D01*
X54594Y83690D02*
X38684Y83690D01*
X38684Y83387D02*
X54594Y83387D01*
X54594Y83083D02*
X38684Y83083D01*
X38684Y82780D02*
X54594Y82780D01*
X54594Y82477D02*
X38684Y82477D01*
X38684Y82173D02*
X46063Y82173D01*
X46093Y82204D02*
X45364Y81475D01*
X45364Y80443D01*
X46093Y79714D01*
X47125Y79714D01*
X47854Y80443D01*
X47854Y81475D01*
X47125Y82204D01*
X46093Y82204D01*
X45760Y81870D02*
X38684Y81870D01*
X38684Y81567D02*
X45457Y81567D01*
X45364Y81264D02*
X38684Y81264D01*
X38684Y80960D02*
X45364Y80960D01*
X45364Y80657D02*
X38684Y80657D01*
X38684Y80354D02*
X45454Y80354D01*
X45758Y80050D02*
X38684Y80050D01*
X38684Y79747D02*
X46061Y79747D01*
X46093Y79664D02*
X45364Y78935D01*
X45364Y78470D01*
X46558Y78470D01*
X46558Y79664D01*
X46093Y79664D01*
X45874Y79444D02*
X38684Y79444D01*
X38684Y79140D02*
X45570Y79140D01*
X45364Y78837D02*
X38684Y78837D01*
X38684Y78534D02*
X45364Y78534D01*
X45364Y78368D02*
X45364Y77903D01*
X46093Y77174D01*
X46558Y77174D01*
X46558Y78368D01*
X45364Y78368D01*
X45364Y78231D02*
X38684Y78231D01*
X38684Y77927D02*
X45364Y77927D01*
X45644Y77624D02*
X38684Y77624D01*
X38684Y77321D02*
X45947Y77321D01*
X46558Y77321D02*
X46660Y77321D01*
X46660Y77174D02*
X47125Y77174D01*
X47854Y77903D01*
X47854Y78368D01*
X46660Y78368D01*
X46660Y78470D01*
X46558Y78470D01*
X46558Y78368D01*
X46660Y78368D01*
X46660Y77174D01*
X46660Y77624D02*
X46558Y77624D01*
X46558Y77927D02*
X46660Y77927D01*
X46660Y78231D02*
X46558Y78231D01*
X46660Y78470D02*
X47854Y78470D01*
X47854Y78935D01*
X47125Y79664D01*
X46660Y79664D01*
X46660Y78470D01*
X46660Y78534D02*
X46558Y78534D01*
X46558Y78837D02*
X46660Y78837D01*
X46660Y79140D02*
X46558Y79140D01*
X46558Y79444D02*
X46660Y79444D01*
X47157Y79747D02*
X54594Y79747D01*
X54594Y80050D02*
X47460Y80050D01*
X47764Y80354D02*
X54594Y80354D01*
X54594Y80657D02*
X47854Y80657D01*
X47854Y80960D02*
X54594Y80960D01*
X54594Y81264D02*
X47854Y81264D01*
X47761Y81567D02*
X54594Y81567D01*
X54594Y81870D02*
X47458Y81870D01*
X47155Y82173D02*
X54594Y82173D01*
X57184Y82173D02*
X64478Y82173D01*
X64175Y81870D02*
X57184Y81870D01*
X57184Y81567D02*
X63872Y81567D01*
X63779Y81264D02*
X57184Y81264D01*
X57184Y80960D02*
X63779Y80960D01*
X63779Y80657D02*
X57184Y80657D01*
X57184Y80354D02*
X63869Y80354D01*
X64173Y80050D02*
X57184Y80050D01*
X57184Y79747D02*
X64476Y79747D01*
X64289Y79444D02*
X57184Y79444D01*
X57184Y79140D02*
X63985Y79140D01*
X63779Y78837D02*
X57184Y78837D01*
X57184Y78534D02*
X63779Y78534D01*
X63779Y78231D02*
X57184Y78231D01*
X57184Y77927D02*
X63779Y77927D01*
X64059Y77624D02*
X57184Y77624D01*
X57184Y77321D02*
X64362Y77321D01*
X65989Y77624D02*
X73094Y77624D01*
X73094Y77927D02*
X66269Y77927D01*
X66269Y78231D02*
X73094Y78231D01*
X73094Y78534D02*
X66269Y78534D01*
X66269Y78837D02*
X73094Y78837D01*
X73094Y79140D02*
X66063Y79140D01*
X65759Y79444D02*
X73094Y79444D01*
X73094Y77017D02*
X57184Y77017D01*
X57184Y76714D02*
X73094Y76714D01*
X73094Y76411D02*
X57184Y76411D01*
X57184Y76107D02*
X73094Y76107D01*
X73094Y75804D02*
X57184Y75804D01*
X57184Y75501D02*
X73094Y75501D01*
X73094Y75198D02*
X57184Y75198D01*
X57184Y74894D02*
X73094Y74894D01*
X73094Y74591D02*
X57184Y74591D01*
X57184Y74288D02*
X73094Y74288D01*
X73094Y73984D02*
X57184Y73984D01*
X57184Y73681D02*
X73094Y73681D01*
X73094Y73378D02*
X57184Y73378D01*
X57184Y73074D02*
X73094Y73074D01*
X73094Y72771D02*
X70354Y72771D01*
X70092Y73034D02*
X70821Y72305D01*
X70821Y71273D01*
X70092Y70544D01*
X69060Y70544D01*
X68331Y71273D01*
X68331Y72305D01*
X69060Y73034D01*
X70092Y73034D01*
X70657Y72468D02*
X73094Y72468D01*
X73094Y72165D02*
X70821Y72165D01*
X70821Y71861D02*
X73094Y71861D01*
X73094Y71558D02*
X70821Y71558D01*
X70802Y71255D02*
X73094Y71255D01*
X73094Y70951D02*
X70498Y70951D01*
X70195Y70648D02*
X73094Y70648D01*
X73094Y70345D02*
X57184Y70345D01*
X57184Y70648D02*
X59813Y70648D01*
X59916Y70544D02*
X59187Y71273D01*
X59187Y72305D01*
X59916Y73034D01*
X60948Y73034D01*
X61677Y72305D01*
X61677Y71273D01*
X60948Y70544D01*
X59916Y70544D01*
X59510Y70951D02*
X57184Y70951D01*
X57184Y71255D02*
X59206Y71255D01*
X59187Y71558D02*
X57184Y71558D01*
X57184Y71861D02*
X59187Y71861D01*
X59187Y72165D02*
X57184Y72165D01*
X57184Y72468D02*
X59351Y72468D01*
X59654Y72771D02*
X57184Y72771D01*
X54594Y72771D02*
X51939Y72771D01*
X51677Y73034D02*
X50645Y73034D01*
X49916Y72305D01*
X49916Y71273D01*
X50645Y70544D01*
X51677Y70544D01*
X52406Y71273D01*
X52406Y72305D01*
X51677Y73034D01*
X52242Y72468D02*
X54594Y72468D01*
X54594Y72165D02*
X52406Y72165D01*
X52406Y71861D02*
X54594Y71861D01*
X54594Y71558D02*
X52406Y71558D01*
X52387Y71255D02*
X54594Y71255D01*
X54594Y70951D02*
X52083Y70951D01*
X51780Y70648D02*
X54594Y70648D01*
X54594Y70345D02*
X38684Y70345D01*
X38684Y70648D02*
X41398Y70648D01*
X41501Y70544D02*
X42533Y70544D01*
X43262Y71273D01*
X43262Y72305D01*
X42533Y73034D01*
X41501Y73034D01*
X40772Y72305D01*
X40772Y71273D01*
X41501Y70544D01*
X41095Y70951D02*
X38684Y70951D01*
X38684Y71255D02*
X40791Y71255D01*
X40772Y71558D02*
X38684Y71558D01*
X38684Y71861D02*
X40772Y71861D01*
X40772Y72165D02*
X38684Y72165D01*
X38684Y72468D02*
X40936Y72468D01*
X41239Y72771D02*
X38684Y72771D01*
X38684Y73074D02*
X54594Y73074D01*
X54594Y73378D02*
X38684Y73378D01*
X38684Y73681D02*
X54594Y73681D01*
X54594Y73984D02*
X38684Y73984D01*
X38684Y74288D02*
X54594Y74288D01*
X54594Y74591D02*
X38684Y74591D01*
X38684Y74894D02*
X54594Y74894D01*
X54594Y75198D02*
X38684Y75198D01*
X38684Y75501D02*
X54594Y75501D01*
X54594Y75804D02*
X38684Y75804D01*
X38684Y76107D02*
X54594Y76107D01*
X54594Y76411D02*
X38684Y76411D01*
X38684Y76714D02*
X54594Y76714D01*
X54594Y77017D02*
X38684Y77017D01*
X36094Y77321D02*
X28856Y77321D01*
X29159Y77624D02*
X36094Y77624D01*
X36094Y77927D02*
X29439Y77927D01*
X29439Y78231D02*
X36094Y78231D01*
X36094Y78534D02*
X29439Y78534D01*
X29439Y78837D02*
X36094Y78837D01*
X36094Y79140D02*
X29233Y79140D01*
X28929Y79444D02*
X36094Y79444D01*
X36094Y79747D02*
X28742Y79747D01*
X29045Y80050D02*
X36094Y80050D01*
X36094Y80354D02*
X29349Y80354D01*
X29439Y80657D02*
X36094Y80657D01*
X36094Y80960D02*
X29439Y80960D01*
X29439Y81264D02*
X36094Y81264D01*
X36094Y81567D02*
X29346Y81567D01*
X29043Y81870D02*
X36094Y81870D01*
X36094Y82173D02*
X28740Y82173D01*
X27459Y79444D02*
X20184Y79444D01*
X20184Y79140D02*
X27155Y79140D01*
X26949Y78837D02*
X20184Y78837D01*
X20184Y78534D02*
X26949Y78534D01*
X26949Y78231D02*
X20184Y78231D01*
X20184Y77927D02*
X26949Y77927D01*
X27229Y77624D02*
X20184Y77624D01*
X24380Y72771D02*
X31968Y72771D01*
X31665Y72468D02*
X24683Y72468D01*
X24847Y72165D02*
X31501Y72165D01*
X31501Y71861D02*
X24847Y71861D01*
X24847Y71558D02*
X31501Y71558D01*
X31520Y71255D02*
X24828Y71255D01*
X24524Y70951D02*
X31824Y70951D01*
X32127Y70648D02*
X24221Y70648D01*
X27483Y67008D02*
X20184Y67008D01*
X20184Y66705D02*
X27180Y66705D01*
X26949Y66402D02*
X20184Y66402D01*
X20184Y66099D02*
X26949Y66099D01*
X26949Y65795D02*
X20184Y65795D01*
X20184Y65492D02*
X26949Y65492D01*
X27204Y65189D02*
X20184Y65189D01*
X20184Y63065D02*
X26949Y63065D01*
X27091Y62762D02*
X20184Y62762D01*
X20184Y62459D02*
X27394Y62459D01*
X29297Y62762D02*
X36094Y62762D01*
X36094Y63065D02*
X29439Y63065D01*
X38684Y63065D02*
X45364Y63065D01*
X45364Y62903D02*
X46093Y62174D01*
X46558Y62174D01*
X46558Y63368D01*
X45364Y63368D01*
X45364Y62903D01*
X45506Y62762D02*
X38684Y62762D01*
X38684Y62459D02*
X45809Y62459D01*
X46558Y62459D02*
X46660Y62459D01*
X46660Y62174D02*
X47125Y62174D01*
X47854Y62903D01*
X47854Y63368D01*
X46660Y63368D01*
X46660Y63470D01*
X46558Y63470D01*
X46558Y64664D01*
X46093Y64664D01*
X45364Y63935D01*
X45364Y63470D01*
X46558Y63470D01*
X46558Y63368D01*
X46660Y63368D01*
X46660Y62174D01*
X46660Y62762D02*
X46558Y62762D01*
X46558Y63065D02*
X46660Y63065D01*
X46660Y63369D02*
X54594Y63369D01*
X54594Y63672D02*
X47854Y63672D01*
X47854Y63470D02*
X47854Y63935D01*
X47125Y64664D01*
X46660Y64664D01*
X46660Y63470D01*
X47854Y63470D01*
X47854Y63065D02*
X54594Y63065D01*
X54594Y62762D02*
X47712Y62762D01*
X47409Y62459D02*
X54594Y62459D01*
X54594Y62156D02*
X38684Y62156D01*
X38684Y61852D02*
X54594Y61852D01*
X54594Y61549D02*
X38684Y61549D01*
X38684Y61246D02*
X54594Y61246D01*
X54594Y60942D02*
X38684Y60942D01*
X38684Y60639D02*
X54594Y60639D01*
X54594Y60336D02*
X38684Y60336D01*
X38684Y60032D02*
X54594Y60032D01*
X54594Y59729D02*
X38684Y59729D01*
X38684Y59426D02*
X54594Y59426D01*
X54594Y59123D02*
X38684Y59123D01*
X38684Y58819D02*
X54594Y58819D01*
X54594Y58516D02*
X38684Y58516D01*
X38684Y58213D02*
X54594Y58213D01*
X54594Y57909D02*
X51651Y57909D01*
X51647Y57914D02*
X50615Y57914D01*
X49886Y57185D01*
X49886Y56153D01*
X50615Y55424D01*
X51647Y55424D01*
X52376Y56153D01*
X52376Y57185D01*
X51647Y57914D01*
X51954Y57606D02*
X54594Y57606D01*
X54594Y57303D02*
X52257Y57303D01*
X52376Y56999D02*
X54594Y56999D01*
X54594Y56696D02*
X52376Y56696D01*
X52376Y56393D02*
X54594Y56393D01*
X54594Y56090D02*
X52312Y56090D01*
X52008Y55786D02*
X54594Y55786D01*
X54594Y55483D02*
X51705Y55483D01*
X50557Y55483D02*
X42561Y55483D01*
X42503Y55424D02*
X41471Y55424D01*
X40742Y56153D01*
X40742Y57185D01*
X41471Y57914D01*
X42503Y57914D01*
X43232Y57185D01*
X43232Y56153D01*
X42503Y55424D01*
X42864Y55786D02*
X50254Y55786D01*
X49950Y56090D02*
X43168Y56090D01*
X43232Y56393D02*
X49886Y56393D01*
X49886Y56696D02*
X43232Y56696D01*
X43232Y56999D02*
X49886Y56999D01*
X50005Y57303D02*
X43113Y57303D01*
X42810Y57606D02*
X50308Y57606D01*
X50611Y57909D02*
X42507Y57909D01*
X41467Y57909D02*
X38684Y57909D01*
X38684Y57606D02*
X41164Y57606D01*
X40861Y57303D02*
X38684Y57303D01*
X38684Y56999D02*
X40742Y56999D01*
X40742Y56696D02*
X38684Y56696D01*
X38684Y56393D02*
X40742Y56393D01*
X40806Y56090D02*
X38684Y56090D01*
X38684Y55786D02*
X41110Y55786D01*
X41413Y55483D02*
X38684Y55483D01*
X38684Y55180D02*
X54594Y55180D01*
X54594Y54876D02*
X38684Y54876D01*
X38684Y54573D02*
X54594Y54573D01*
X54594Y54270D02*
X38684Y54270D01*
X38684Y53966D02*
X54594Y53966D01*
X54594Y53663D02*
X38684Y53663D01*
X38684Y53360D02*
X54594Y53360D01*
X54594Y53057D02*
X38684Y53057D01*
X38684Y52753D02*
X54594Y52753D01*
X54594Y52450D02*
X38684Y52450D01*
X38684Y52147D02*
X54594Y52147D01*
X54594Y51843D02*
X38684Y51843D01*
X38684Y51540D02*
X54594Y51540D01*
X54594Y51237D02*
X38684Y51237D01*
X38684Y50933D02*
X54594Y50933D01*
X54594Y50630D02*
X38684Y50630D01*
X38684Y50327D02*
X54594Y50327D01*
X54594Y50024D02*
X52525Y50024D01*
X52490Y50044D02*
X53156Y49659D01*
X53699Y49116D01*
X54084Y48450D01*
X54282Y47708D01*
X54282Y46940D01*
X54084Y46198D01*
X53699Y45532D01*
X53156Y44989D01*
X52490Y44604D01*
X51748Y44406D01*
X50980Y44406D01*
X50238Y44604D01*
X49572Y44989D01*
X49029Y45532D01*
X48644Y46198D01*
X48446Y46940D01*
X48446Y47708D01*
X48644Y48450D01*
X49029Y49116D01*
X49572Y49659D01*
X50238Y50044D01*
X50980Y50242D01*
X51748Y50242D01*
X52490Y50044D01*
X53050Y49720D02*
X54594Y49720D01*
X54594Y49417D02*
X53398Y49417D01*
X53701Y49114D02*
X54594Y49114D01*
X54594Y48810D02*
X53876Y48810D01*
X54051Y48507D02*
X54594Y48507D01*
X54594Y48204D02*
X54150Y48204D01*
X54231Y47900D02*
X54594Y47900D01*
X54594Y47597D02*
X54282Y47597D01*
X54282Y47294D02*
X54594Y47294D01*
X54594Y46991D02*
X54282Y46991D01*
X54215Y46687D02*
X54594Y46687D01*
X54594Y46384D02*
X54133Y46384D01*
X54016Y46081D02*
X54594Y46081D01*
X54594Y45777D02*
X53841Y45777D01*
X53641Y45474D02*
X54594Y45474D01*
X54594Y45171D02*
X53338Y45171D01*
X52946Y44867D02*
X54594Y44867D01*
X54594Y44564D02*
X52340Y44564D01*
X50388Y44564D02*
X44085Y44564D01*
X44235Y44604D02*
X44901Y44989D01*
X45444Y45532D01*
X45829Y46198D01*
X46027Y46940D01*
X46027Y47708D01*
X45829Y48450D01*
X45444Y49116D01*
X44901Y49659D01*
X44235Y50044D01*
X43493Y50242D01*
X42725Y50242D01*
X41983Y50044D01*
X41317Y49659D01*
X40774Y49116D01*
X40389Y48450D01*
X40191Y47708D01*
X40191Y46940D01*
X40389Y46198D01*
X40774Y45532D01*
X41317Y44989D01*
X41983Y44604D01*
X42725Y44406D01*
X43493Y44406D01*
X44235Y44604D01*
X44691Y44867D02*
X49782Y44867D01*
X49390Y45171D02*
X45083Y45171D01*
X45386Y45474D02*
X49087Y45474D01*
X48887Y45777D02*
X45586Y45777D01*
X45761Y46081D02*
X48712Y46081D01*
X48595Y46384D02*
X45878Y46384D01*
X45960Y46687D02*
X48513Y46687D01*
X48446Y46991D02*
X46027Y46991D01*
X46027Y47294D02*
X48446Y47294D01*
X48446Y47597D02*
X46027Y47597D01*
X45976Y47900D02*
X48497Y47900D01*
X48578Y48204D02*
X45895Y48204D01*
X45796Y48507D02*
X48677Y48507D01*
X48852Y48810D02*
X45621Y48810D01*
X45446Y49114D02*
X49027Y49114D01*
X49330Y49417D02*
X45143Y49417D01*
X44795Y49720D02*
X49678Y49720D01*
X50203Y50024D02*
X44270Y50024D01*
X41948Y50024D02*
X38684Y50024D01*
X38684Y49720D02*
X41423Y49720D01*
X41075Y49417D02*
X38684Y49417D01*
X38684Y49114D02*
X40772Y49114D01*
X40597Y48810D02*
X38684Y48810D01*
X38684Y48507D02*
X40422Y48507D01*
X40323Y48204D02*
X38684Y48204D01*
X38684Y47900D02*
X40242Y47900D01*
X40191Y47597D02*
X38684Y47597D01*
X38684Y47294D02*
X40191Y47294D01*
X40191Y46991D02*
X38684Y46991D01*
X38684Y46687D02*
X40258Y46687D01*
X40340Y46384D02*
X38684Y46384D01*
X38684Y46081D02*
X40457Y46081D01*
X40632Y45777D02*
X38684Y45777D01*
X38684Y45474D02*
X40832Y45474D01*
X41135Y45171D02*
X38684Y45171D01*
X38684Y44867D02*
X41527Y44867D01*
X42133Y44564D02*
X38684Y44564D01*
X38684Y44261D02*
X54594Y44261D01*
X54594Y43958D02*
X38684Y43958D01*
X38684Y43654D02*
X54594Y43654D01*
X54594Y43351D02*
X38684Y43351D01*
X38684Y43048D02*
X54594Y43048D01*
X54594Y42744D02*
X38684Y42744D01*
X38684Y42441D02*
X54594Y42441D01*
X54594Y42138D02*
X38684Y42138D01*
X38684Y41835D02*
X54594Y41835D01*
X54594Y41531D02*
X38684Y41531D01*
X38684Y41228D02*
X54594Y41228D01*
X54594Y40925D02*
X38684Y40925D01*
X38684Y40621D02*
X54594Y40621D01*
X54594Y40318D02*
X38684Y40318D01*
X38684Y40015D02*
X54594Y40015D01*
X54594Y39711D02*
X38684Y39711D01*
X38684Y39408D02*
X54594Y39408D01*
X54594Y39105D02*
X38684Y39105D01*
X38684Y38802D02*
X54594Y38802D01*
X54594Y38498D02*
X38684Y38498D01*
X38684Y38195D02*
X54594Y38195D01*
X54594Y37892D02*
X38684Y37892D01*
X38684Y37588D02*
X54594Y37588D01*
X57184Y31826D02*
X73094Y31826D01*
X73094Y31522D02*
X57184Y31522D01*
X57184Y31219D02*
X73094Y31219D01*
X73094Y30916D02*
X57184Y30916D01*
X57184Y30612D02*
X73094Y30612D01*
X73094Y30309D02*
X57184Y30309D01*
X57184Y30006D02*
X73094Y30006D01*
X73094Y29702D02*
X57184Y29702D01*
X57184Y29399D02*
X73094Y29399D01*
X73094Y29096D02*
X57184Y29096D01*
X57184Y28793D02*
X73094Y28793D01*
X73094Y28489D02*
X57184Y28489D01*
X57184Y28186D02*
X60229Y28186D01*
X60456Y28414D02*
X59727Y27685D01*
X59727Y26653D01*
X60456Y25924D01*
X61488Y25924D01*
X62217Y26653D01*
X62217Y27685D01*
X61488Y28414D01*
X60456Y28414D01*
X59926Y27883D02*
X57184Y27883D01*
X57184Y27579D02*
X59727Y27579D01*
X59727Y27276D02*
X57184Y27276D01*
X57184Y26973D02*
X59727Y26973D01*
X59727Y26669D02*
X57184Y26669D01*
X57184Y26366D02*
X60015Y26366D01*
X60318Y26063D02*
X57184Y26063D01*
X57184Y25760D02*
X73094Y25760D01*
X73094Y26063D02*
X70770Y26063D01*
X70632Y25924D02*
X71361Y26653D01*
X71361Y27685D01*
X70632Y28414D01*
X69600Y28414D01*
X68871Y27685D01*
X68871Y26653D01*
X69600Y25924D01*
X70632Y25924D01*
X71073Y26366D02*
X73094Y26366D01*
X73094Y26669D02*
X71361Y26669D01*
X71361Y26973D02*
X73094Y26973D01*
X73094Y27276D02*
X71361Y27276D01*
X71361Y27579D02*
X73094Y27579D01*
X73094Y27883D02*
X71162Y27883D01*
X70859Y28186D02*
X73094Y28186D01*
X73094Y25456D02*
X57184Y25456D01*
X57184Y25153D02*
X73094Y25153D01*
X73094Y24850D02*
X57184Y24850D01*
X57184Y24546D02*
X73094Y24546D01*
X73094Y24243D02*
X57184Y24243D01*
X57184Y23940D02*
X73094Y23940D01*
X73094Y23636D02*
X57184Y23636D01*
X57184Y23333D02*
X73094Y23333D01*
X73094Y23030D02*
X57184Y23030D01*
X57184Y22727D02*
X73094Y22727D01*
X73094Y22423D02*
X57184Y22423D01*
X57184Y22120D02*
X64425Y22120D01*
X64508Y22204D02*
X63779Y21475D01*
X63779Y20443D01*
X64508Y19714D01*
X65540Y19714D01*
X66269Y20443D01*
X66269Y21475D01*
X65540Y22204D01*
X64508Y22204D01*
X64122Y21817D02*
X57184Y21817D01*
X57184Y21513D02*
X63818Y21513D01*
X63779Y21210D02*
X57184Y21210D01*
X57184Y20907D02*
X63779Y20907D01*
X63779Y20604D02*
X57184Y20604D01*
X57184Y20300D02*
X63923Y20300D01*
X64226Y19997D02*
X57184Y19997D01*
X57184Y19694D02*
X73094Y19694D01*
X73094Y19997D02*
X65822Y19997D01*
X66125Y20300D02*
X73094Y20300D01*
X73094Y20604D02*
X66269Y20604D01*
X66269Y20907D02*
X73094Y20907D01*
X73094Y21210D02*
X66269Y21210D01*
X66230Y21513D02*
X73094Y21513D01*
X73094Y21817D02*
X65926Y21817D01*
X65623Y22120D02*
X73094Y22120D01*
X73094Y19390D02*
X65813Y19390D01*
X65540Y19664D02*
X66269Y18935D01*
X66269Y18470D01*
X65075Y18470D01*
X64973Y18470D01*
X64973Y19664D01*
X64508Y19664D01*
X63779Y18935D01*
X63779Y18470D01*
X64973Y18470D01*
X64973Y18368D01*
X63779Y18368D01*
X63779Y17903D01*
X64508Y17174D01*
X64973Y17174D01*
X64973Y18368D01*
X65075Y18368D01*
X65075Y18470D01*
X65075Y19664D01*
X65540Y19664D01*
X65075Y19390D02*
X64973Y19390D01*
X64973Y19087D02*
X65075Y19087D01*
X65075Y18784D02*
X64973Y18784D01*
X64973Y18480D02*
X65075Y18480D01*
X65075Y18368D02*
X66269Y18368D01*
X66269Y17903D01*
X65540Y17174D01*
X65075Y17174D01*
X65075Y18368D01*
X65075Y18177D02*
X64973Y18177D01*
X64973Y17874D02*
X65075Y17874D01*
X65075Y17571D02*
X64973Y17571D01*
X64973Y17267D02*
X65075Y17267D01*
X65632Y17267D02*
X73094Y17267D01*
X73094Y16964D02*
X57184Y16964D01*
X57184Y17267D02*
X64416Y17267D01*
X64112Y17571D02*
X57184Y17571D01*
X57184Y17874D02*
X63809Y17874D01*
X63779Y18177D02*
X57184Y18177D01*
X57184Y18480D02*
X63779Y18480D01*
X63779Y18784D02*
X57184Y18784D01*
X57184Y19087D02*
X63932Y19087D01*
X64235Y19390D02*
X57184Y19390D01*
X54594Y19390D02*
X47398Y19390D01*
X47125Y19664D02*
X46660Y19664D01*
X46660Y18470D01*
X46558Y18470D01*
X46558Y19664D01*
X46093Y19664D01*
X45364Y18935D01*
X45364Y18470D01*
X46558Y18470D01*
X46558Y18368D01*
X45364Y18368D01*
X45364Y17903D01*
X46093Y17174D01*
X46558Y17174D01*
X46558Y18368D01*
X46660Y18368D01*
X46660Y18470D01*
X47854Y18470D01*
X47854Y18935D01*
X47125Y19664D01*
X47125Y19714D02*
X47854Y20443D01*
X47854Y21475D01*
X47125Y22204D01*
X46093Y22204D01*
X45364Y21475D01*
X45364Y20443D01*
X46093Y19714D01*
X47125Y19714D01*
X47407Y19997D02*
X54594Y19997D01*
X54594Y20300D02*
X47710Y20300D01*
X47854Y20604D02*
X54594Y20604D01*
X54594Y20907D02*
X47854Y20907D01*
X47854Y21210D02*
X54594Y21210D01*
X54594Y21513D02*
X47815Y21513D01*
X47511Y21817D02*
X54594Y21817D01*
X54594Y22120D02*
X47208Y22120D01*
X46010Y22120D02*
X38684Y22120D01*
X38684Y21817D02*
X45707Y21817D01*
X45403Y21513D02*
X38684Y21513D01*
X38684Y21210D02*
X45364Y21210D01*
X45364Y20907D02*
X38684Y20907D01*
X38684Y20604D02*
X45364Y20604D01*
X45508Y20300D02*
X38684Y20300D01*
X38684Y19997D02*
X45811Y19997D01*
X45820Y19390D02*
X38684Y19390D01*
X38684Y19087D02*
X45517Y19087D01*
X45364Y18784D02*
X38684Y18784D01*
X38684Y18480D02*
X45364Y18480D01*
X45364Y18177D02*
X38684Y18177D01*
X38684Y17874D02*
X45394Y17874D01*
X45697Y17571D02*
X38684Y17571D01*
X38684Y17267D02*
X46001Y17267D01*
X46558Y17267D02*
X46660Y17267D01*
X46660Y17174D02*
X47125Y17174D01*
X47854Y17903D01*
X47854Y18368D01*
X46660Y18368D01*
X46660Y17174D01*
X46660Y17571D02*
X46558Y17571D01*
X46558Y17874D02*
X46660Y17874D01*
X46660Y18177D02*
X46558Y18177D01*
X46558Y18480D02*
X46660Y18480D01*
X46660Y18784D02*
X46558Y18784D01*
X46558Y19087D02*
X46660Y19087D01*
X46660Y19390D02*
X46558Y19390D01*
X47701Y19087D02*
X54594Y19087D01*
X54594Y18784D02*
X47854Y18784D01*
X47854Y18480D02*
X54594Y18480D01*
X54594Y18177D02*
X47854Y18177D01*
X47824Y17874D02*
X54594Y17874D01*
X54594Y17571D02*
X47521Y17571D01*
X47217Y17267D02*
X54594Y17267D01*
X54594Y16964D02*
X38684Y16964D01*
X38684Y16661D02*
X54594Y16661D01*
X54594Y16357D02*
X38684Y16357D01*
X38684Y16054D02*
X54594Y16054D01*
X54594Y15751D02*
X38684Y15751D01*
X38684Y15447D02*
X54594Y15447D01*
X54594Y15144D02*
X38684Y15144D01*
X38684Y14841D02*
X54594Y14841D01*
X54594Y14537D02*
X38684Y14537D01*
X38684Y14234D02*
X41712Y14234D01*
X41971Y14494D02*
X41242Y13765D01*
X41242Y12733D01*
X41971Y12004D01*
X43003Y12004D01*
X43732Y12733D01*
X43732Y13765D01*
X43003Y14494D01*
X41971Y14494D01*
X41409Y13931D02*
X38684Y13931D01*
X38684Y13628D02*
X41242Y13628D01*
X41242Y13324D02*
X38684Y13324D01*
X38684Y13021D02*
X41242Y13021D01*
X41258Y12718D02*
X38684Y12718D01*
X38684Y12414D02*
X41561Y12414D01*
X41865Y12111D02*
X38684Y12111D01*
X38684Y11808D02*
X54594Y11808D01*
X54594Y12111D02*
X52253Y12111D01*
X52147Y12004D02*
X51115Y12004D01*
X50386Y12733D01*
X50386Y13765D01*
X51115Y14494D01*
X52147Y14494D01*
X52876Y13765D01*
X52876Y12733D01*
X52147Y12004D01*
X52557Y12414D02*
X54594Y12414D01*
X54594Y12718D02*
X52860Y12718D01*
X52876Y13021D02*
X54594Y13021D01*
X54594Y13324D02*
X52876Y13324D01*
X52876Y13628D02*
X54594Y13628D01*
X54594Y13931D02*
X52709Y13931D01*
X52406Y14234D02*
X54594Y14234D01*
X57184Y14234D02*
X60127Y14234D01*
X60386Y14494D02*
X59657Y13765D01*
X59657Y12733D01*
X60386Y12004D01*
X61418Y12004D01*
X62147Y12733D01*
X62147Y13765D01*
X61418Y14494D01*
X60386Y14494D01*
X59824Y13931D02*
X57184Y13931D01*
X57184Y13628D02*
X59657Y13628D01*
X59657Y13324D02*
X57184Y13324D01*
X57184Y13021D02*
X59657Y13021D01*
X59673Y12718D02*
X57184Y12718D01*
X57184Y12414D02*
X59976Y12414D01*
X60280Y12111D02*
X57184Y12111D01*
X57184Y11808D02*
X73094Y11808D01*
X73094Y12111D02*
X70668Y12111D01*
X70562Y12004D02*
X69530Y12004D01*
X68801Y12733D01*
X68801Y13765D01*
X69530Y14494D01*
X70562Y14494D01*
X71291Y13765D01*
X71291Y12733D01*
X70562Y12004D01*
X70972Y12414D02*
X73094Y12414D01*
X73094Y12718D02*
X71275Y12718D01*
X71291Y13021D02*
X73094Y13021D01*
X73094Y13324D02*
X71291Y13324D01*
X71291Y13628D02*
X73094Y13628D01*
X73094Y13931D02*
X71124Y13931D01*
X70821Y14234D02*
X73094Y14234D01*
X73094Y14537D02*
X57184Y14537D01*
X57184Y14841D02*
X73094Y14841D01*
X73094Y15144D02*
X57184Y15144D01*
X57184Y15447D02*
X73094Y15447D01*
X73094Y15751D02*
X57184Y15751D01*
X57184Y16054D02*
X73094Y16054D01*
X73094Y16357D02*
X57184Y16357D01*
X57184Y16661D02*
X73094Y16661D01*
X73094Y17571D02*
X65936Y17571D01*
X66239Y17874D02*
X73094Y17874D01*
X73094Y18177D02*
X66269Y18177D01*
X66269Y18480D02*
X73094Y18480D01*
X73094Y18784D02*
X66269Y18784D01*
X66116Y19087D02*
X73094Y19087D01*
X75684Y19087D02*
X82347Y19087D01*
X82194Y18935D02*
X82194Y18470D01*
X83388Y18470D01*
X83388Y19664D01*
X82923Y19664D01*
X82194Y18935D01*
X82194Y18784D02*
X75684Y18784D01*
X75684Y18480D02*
X82194Y18480D01*
X82194Y18368D02*
X82194Y17903D01*
X82923Y17174D01*
X83388Y17174D01*
X83388Y18368D01*
X82194Y18368D01*
X82194Y18177D02*
X75684Y18177D01*
X75684Y17874D02*
X82224Y17874D01*
X82527Y17571D02*
X75684Y17571D01*
X75684Y17267D02*
X82831Y17267D01*
X83388Y17267D02*
X83490Y17267D01*
X83490Y17174D02*
X83955Y17174D01*
X84684Y17903D01*
X84684Y18368D01*
X83490Y18368D01*
X83490Y18470D01*
X83388Y18470D01*
X83388Y18368D01*
X83490Y18368D01*
X83490Y17174D01*
X83490Y17571D02*
X83388Y17571D01*
X83388Y17874D02*
X83490Y17874D01*
X83490Y18177D02*
X83388Y18177D01*
X83388Y18480D02*
X83490Y18480D01*
X83490Y18470D02*
X83490Y19664D01*
X83955Y19664D01*
X84684Y18935D01*
X84684Y18470D01*
X83490Y18470D01*
X83490Y18784D02*
X83388Y18784D01*
X83388Y19087D02*
X83490Y19087D01*
X83490Y19390D02*
X83388Y19390D01*
X82923Y19714D02*
X83955Y19714D01*
X84684Y20443D01*
X84684Y21475D01*
X83955Y22204D01*
X82923Y22204D01*
X82194Y21475D01*
X82194Y20443D01*
X82923Y19714D01*
X82641Y19997D02*
X75684Y19997D01*
X75684Y20300D02*
X82338Y20300D01*
X82194Y20604D02*
X75684Y20604D01*
X75684Y20907D02*
X82194Y20907D01*
X82194Y21210D02*
X75684Y21210D01*
X75684Y21513D02*
X82233Y21513D01*
X82537Y21817D02*
X75684Y21817D01*
X75684Y22120D02*
X82840Y22120D01*
X84038Y22120D02*
X91594Y22120D01*
X91594Y21817D02*
X84341Y21817D01*
X84645Y21513D02*
X91594Y21513D01*
X91594Y21210D02*
X84684Y21210D01*
X84684Y20907D02*
X91594Y20907D01*
X91594Y20604D02*
X84684Y20604D01*
X84540Y20300D02*
X91594Y20300D01*
X91594Y19997D02*
X84237Y19997D01*
X84228Y19390D02*
X91594Y19390D01*
X91594Y19087D02*
X84531Y19087D01*
X84684Y18784D02*
X91594Y18784D01*
X91594Y18480D02*
X84684Y18480D01*
X84684Y18177D02*
X91594Y18177D01*
X91594Y17874D02*
X84654Y17874D01*
X84351Y17571D02*
X91594Y17571D01*
X91594Y17267D02*
X84047Y17267D01*
X82650Y19390D02*
X75684Y19390D01*
X75684Y19694D02*
X91594Y19694D01*
X91594Y22423D02*
X75684Y22423D01*
X75684Y22727D02*
X91594Y22727D01*
X91594Y23030D02*
X75684Y23030D01*
X75684Y23333D02*
X91594Y23333D01*
X91594Y23636D02*
X75684Y23636D01*
X75684Y23940D02*
X91594Y23940D01*
X91594Y24243D02*
X75684Y24243D01*
X75684Y24546D02*
X91594Y24546D01*
X91594Y24850D02*
X75684Y24850D01*
X75684Y25153D02*
X91594Y25153D01*
X91594Y25456D02*
X75684Y25456D01*
X75684Y25760D02*
X91594Y25760D01*
X91594Y26063D02*
X89185Y26063D01*
X89047Y25924D02*
X89776Y26653D01*
X89776Y27685D01*
X89047Y28414D01*
X88015Y28414D01*
X87286Y27685D01*
X87286Y26653D01*
X88015Y25924D01*
X89047Y25924D01*
X89488Y26366D02*
X91594Y26366D01*
X91594Y26669D02*
X89776Y26669D01*
X89776Y26973D02*
X91594Y26973D01*
X91594Y27276D02*
X89776Y27276D01*
X89776Y27579D02*
X91594Y27579D01*
X91594Y27883D02*
X89577Y27883D01*
X89274Y28186D02*
X91594Y28186D01*
X91594Y28489D02*
X75684Y28489D01*
X75684Y28186D02*
X78644Y28186D01*
X78871Y28414D02*
X78142Y27685D01*
X78142Y26653D01*
X78871Y25924D01*
X79903Y25924D01*
X80632Y26653D01*
X80632Y27685D01*
X79903Y28414D01*
X78871Y28414D01*
X78341Y27883D02*
X75684Y27883D01*
X75684Y27579D02*
X78142Y27579D01*
X78142Y27276D02*
X75684Y27276D01*
X75684Y26973D02*
X78142Y26973D01*
X78142Y26669D02*
X75684Y26669D01*
X75684Y26366D02*
X78430Y26366D01*
X78733Y26063D02*
X75684Y26063D01*
X75684Y28793D02*
X91594Y28793D01*
X91594Y29096D02*
X75684Y29096D01*
X75684Y29399D02*
X91594Y29399D01*
X91594Y29702D02*
X75684Y29702D01*
X75684Y30006D02*
X91594Y30006D01*
X91594Y30309D02*
X75684Y30309D01*
X75684Y30612D02*
X91594Y30612D01*
X91594Y30916D02*
X75684Y30916D01*
X75684Y31219D02*
X91594Y31219D01*
X91594Y31522D02*
X75684Y31522D01*
X75684Y31826D02*
X91594Y31826D01*
X91594Y32129D02*
X75684Y32129D01*
X75684Y32432D02*
X82666Y32432D01*
X82923Y32174D02*
X82194Y32903D01*
X82194Y33368D01*
X83388Y33368D01*
X83388Y33470D01*
X83388Y34664D01*
X82923Y34664D01*
X82194Y33935D01*
X82194Y33470D01*
X83388Y33470D01*
X83490Y33470D01*
X83490Y34664D01*
X83955Y34664D01*
X84684Y33935D01*
X84684Y33470D01*
X83490Y33470D01*
X83490Y33368D01*
X84684Y33368D01*
X84684Y32903D01*
X83955Y32174D01*
X83490Y32174D01*
X83490Y33368D01*
X83388Y33368D01*
X83388Y32174D01*
X82923Y32174D01*
X83388Y32432D02*
X83490Y32432D01*
X83490Y32735D02*
X83388Y32735D01*
X83388Y33039D02*
X83490Y33039D01*
X83490Y33342D02*
X83388Y33342D01*
X83388Y33645D02*
X83490Y33645D01*
X83490Y33949D02*
X83388Y33949D01*
X83388Y34252D02*
X83490Y34252D01*
X83490Y34555D02*
X83388Y34555D01*
X82923Y34714D02*
X83955Y34714D01*
X84684Y35443D01*
X84684Y36475D01*
X83955Y37204D01*
X82923Y37204D01*
X82194Y36475D01*
X82194Y35443D01*
X82923Y34714D01*
X82815Y34555D02*
X75684Y34555D01*
X75684Y34252D02*
X82512Y34252D01*
X82209Y33949D02*
X75684Y33949D01*
X75684Y33645D02*
X82194Y33645D01*
X82194Y33342D02*
X75684Y33342D01*
X75684Y33039D02*
X82194Y33039D01*
X82362Y32735D02*
X75684Y32735D01*
X75684Y34859D02*
X82779Y34859D01*
X82476Y35162D02*
X75684Y35162D01*
X75684Y35465D02*
X82194Y35465D01*
X82194Y35769D02*
X75684Y35769D01*
X75684Y36072D02*
X82194Y36072D01*
X82194Y36375D02*
X75684Y36375D01*
X75684Y36678D02*
X82398Y36678D01*
X82702Y36982D02*
X75684Y36982D01*
X75684Y37285D02*
X91594Y37285D01*
X91594Y36982D02*
X84176Y36982D01*
X84480Y36678D02*
X91594Y36678D01*
X91594Y36375D02*
X84684Y36375D01*
X84684Y36072D02*
X91594Y36072D01*
X91594Y35769D02*
X84684Y35769D01*
X84684Y35465D02*
X91594Y35465D01*
X91594Y35162D02*
X84402Y35162D01*
X84099Y34859D02*
X91594Y34859D01*
X91594Y34555D02*
X84063Y34555D01*
X84366Y34252D02*
X91594Y34252D01*
X91594Y33949D02*
X84669Y33949D01*
X84684Y33645D02*
X91594Y33645D01*
X91594Y33342D02*
X84684Y33342D01*
X84684Y33039D02*
X91594Y33039D01*
X91594Y32735D02*
X84516Y32735D01*
X84212Y32432D02*
X91594Y32432D01*
X91594Y37588D02*
X75684Y37588D01*
X75684Y37892D02*
X91594Y37892D01*
X91594Y38195D02*
X75684Y38195D01*
X75684Y38498D02*
X91594Y38498D01*
X91594Y38802D02*
X75684Y38802D01*
X75684Y39105D02*
X91594Y39105D01*
X91594Y39408D02*
X75684Y39408D01*
X75684Y39711D02*
X91594Y39711D01*
X91594Y40015D02*
X75684Y40015D01*
X75684Y40318D02*
X91594Y40318D01*
X91594Y40621D02*
X75684Y40621D01*
X75684Y40925D02*
X91594Y40925D01*
X91594Y41228D02*
X75684Y41228D01*
X75684Y41531D02*
X91594Y41531D01*
X91594Y41835D02*
X75684Y41835D01*
X75684Y42138D02*
X91594Y42138D01*
X91594Y42441D02*
X75684Y42441D01*
X75684Y42744D02*
X91594Y42744D01*
X91594Y43048D02*
X75684Y43048D01*
X75684Y43351D02*
X91594Y43351D01*
X91594Y43654D02*
X75684Y43654D01*
X75684Y43958D02*
X91594Y43958D01*
X91594Y44261D02*
X75684Y44261D01*
X75684Y44564D02*
X78963Y44564D01*
X78357Y44867D02*
X75684Y44867D01*
X75684Y45171D02*
X77965Y45171D01*
X77662Y45474D02*
X75684Y45474D01*
X75684Y45777D02*
X77462Y45777D01*
X80915Y44564D02*
X87218Y44564D01*
X87068Y44604D02*
X87810Y44406D01*
X88578Y44406D01*
X89320Y44604D01*
X89986Y44989D01*
X90529Y45532D01*
X90914Y46198D01*
X91112Y46940D01*
X91112Y47708D01*
X90914Y48450D01*
X90529Y49116D01*
X89986Y49659D01*
X89320Y50044D01*
X88578Y50242D01*
X87810Y50242D01*
X87068Y50044D01*
X86402Y49659D01*
X85859Y49116D01*
X85474Y48450D01*
X85276Y47708D01*
X85276Y46940D01*
X85474Y46198D01*
X85859Y45532D01*
X86402Y44989D01*
X87068Y44604D01*
X86612Y44867D02*
X81521Y44867D01*
X81913Y45171D02*
X86220Y45171D01*
X85917Y45474D02*
X82216Y45474D01*
X82416Y45777D02*
X85717Y45777D01*
X85542Y46081D02*
X82591Y46081D01*
X82708Y46384D02*
X85425Y46384D01*
X85343Y46687D02*
X82790Y46687D01*
X82857Y46991D02*
X85276Y46991D01*
X85276Y47294D02*
X82857Y47294D01*
X82857Y47597D02*
X85276Y47597D01*
X85327Y47900D02*
X82806Y47900D01*
X82725Y48204D02*
X85408Y48204D01*
X85507Y48507D02*
X82626Y48507D01*
X82451Y48810D02*
X85682Y48810D01*
X85857Y49114D02*
X82276Y49114D01*
X81973Y49417D02*
X86160Y49417D01*
X86508Y49720D02*
X81625Y49720D01*
X81100Y50024D02*
X87033Y50024D01*
X89355Y50024D02*
X91594Y50024D01*
X91594Y49720D02*
X89880Y49720D01*
X90228Y49417D02*
X91594Y49417D01*
X91594Y49114D02*
X90531Y49114D01*
X90706Y48810D02*
X91594Y48810D01*
X91594Y48507D02*
X90881Y48507D01*
X90980Y48204D02*
X91594Y48204D01*
X91594Y47900D02*
X91061Y47900D01*
X91112Y47597D02*
X91594Y47597D01*
X91594Y47294D02*
X91112Y47294D01*
X91112Y46991D02*
X91594Y46991D01*
X91594Y46687D02*
X91045Y46687D01*
X90963Y46384D02*
X91594Y46384D01*
X91594Y46081D02*
X90846Y46081D01*
X90671Y45777D02*
X91594Y45777D01*
X91594Y45474D02*
X90471Y45474D01*
X90168Y45171D02*
X91594Y45171D01*
X91594Y44867D02*
X89776Y44867D01*
X89170Y44564D02*
X91594Y44564D01*
X87788Y28186D02*
X80130Y28186D01*
X80433Y27883D02*
X87485Y27883D01*
X87286Y27579D02*
X80632Y27579D01*
X80632Y27276D02*
X87286Y27276D01*
X87286Y26973D02*
X80632Y26973D01*
X80632Y26669D02*
X87286Y26669D01*
X87574Y26366D02*
X80344Y26366D01*
X80041Y26063D02*
X87877Y26063D01*
X91594Y16964D02*
X75684Y16964D01*
X75684Y16661D02*
X91594Y16661D01*
X91594Y16357D02*
X75684Y16357D01*
X75684Y16054D02*
X91594Y16054D01*
X91594Y15751D02*
X75684Y15751D01*
X75684Y15447D02*
X91594Y15447D01*
X91594Y15144D02*
X75684Y15144D01*
X75684Y14841D02*
X91594Y14841D01*
X91594Y14537D02*
X75684Y14537D01*
X75684Y14234D02*
X78542Y14234D01*
X78801Y14494D02*
X78072Y13765D01*
X78072Y12733D01*
X78801Y12004D01*
X79833Y12004D01*
X80562Y12733D01*
X80562Y13765D01*
X79833Y14494D01*
X78801Y14494D01*
X78239Y13931D02*
X75684Y13931D01*
X75684Y13628D02*
X78072Y13628D01*
X78072Y13324D02*
X75684Y13324D01*
X75684Y13021D02*
X78072Y13021D01*
X78088Y12718D02*
X75684Y12718D01*
X75684Y12414D02*
X78391Y12414D01*
X78695Y12111D02*
X75684Y12111D01*
X75684Y11808D02*
X91594Y11808D01*
X91594Y12111D02*
X89083Y12111D01*
X88977Y12004D02*
X87945Y12004D01*
X87216Y12733D01*
X87216Y13765D01*
X87945Y14494D01*
X88977Y14494D01*
X89706Y13765D01*
X89706Y12733D01*
X88977Y12004D01*
X89387Y12414D02*
X91594Y12414D01*
X91594Y12718D02*
X89690Y12718D01*
X89706Y13021D02*
X91594Y13021D01*
X91594Y13324D02*
X89706Y13324D01*
X89706Y13628D02*
X91594Y13628D01*
X91594Y13931D02*
X89539Y13931D01*
X89236Y14234D02*
X91594Y14234D01*
X91594Y11504D02*
X75684Y11504D01*
X75684Y11201D02*
X91594Y11201D01*
X91594Y10898D02*
X75684Y10898D01*
X75684Y10595D02*
X91594Y10595D01*
X91594Y10291D02*
X75684Y10291D01*
X75684Y09988D02*
X91594Y09988D01*
X91594Y09685D02*
X87396Y09685D01*
X87143Y09937D02*
X87827Y09253D01*
X87827Y08871D01*
X86761Y08871D01*
X86761Y08667D01*
X87827Y08667D01*
X87827Y08285D01*
X87143Y07601D01*
X86761Y07601D01*
X86761Y08667D01*
X86557Y08667D01*
X86557Y07601D01*
X86175Y07601D01*
X85491Y08285D01*
X85491Y08667D01*
X86557Y08667D01*
X86557Y08871D01*
X86557Y09937D01*
X86175Y09937D01*
X85491Y09253D01*
X85491Y08871D01*
X86557Y08871D01*
X86761Y08871D01*
X86761Y09937D01*
X87143Y09937D01*
X86761Y09685D02*
X86557Y09685D01*
X86557Y09381D02*
X86761Y09381D01*
X86761Y09078D02*
X86557Y09078D01*
X86557Y08775D02*
X85287Y08775D01*
X85287Y09078D02*
X85491Y09078D01*
X85287Y09253D02*
X85287Y08285D01*
X84603Y07601D01*
X83635Y07601D01*
X82951Y08285D01*
X82951Y09253D01*
X83635Y09937D01*
X84603Y09937D01*
X85287Y09253D01*
X85159Y09381D02*
X85619Y09381D01*
X85922Y09685D02*
X84856Y09685D01*
X85287Y08472D02*
X85491Y08472D01*
X85607Y08168D02*
X85171Y08168D01*
X84867Y07865D02*
X85911Y07865D01*
X86175Y07397D02*
X85491Y06713D01*
X85491Y05745D01*
X86175Y05061D01*
X87143Y05061D01*
X87827Y05745D01*
X87827Y06713D01*
X87143Y07397D01*
X86175Y07397D01*
X86036Y07258D02*
X84742Y07258D01*
X84603Y07397D02*
X83635Y07397D01*
X82951Y06713D01*
X82951Y05745D01*
X83635Y05061D01*
X84603Y05061D01*
X85287Y05745D01*
X85287Y06713D01*
X84603Y07397D01*
X85045Y06955D02*
X85733Y06955D01*
X85491Y06652D02*
X85287Y06652D01*
X85287Y06348D02*
X85491Y06348D01*
X85491Y06045D02*
X85287Y06045D01*
X85284Y05742D02*
X85494Y05742D01*
X85797Y05439D02*
X84981Y05439D01*
X84678Y05135D02*
X86100Y05135D01*
X87218Y05135D02*
X91594Y05135D01*
X91594Y04832D02*
X75684Y04832D01*
X75684Y05135D02*
X81020Y05135D01*
X81095Y05061D02*
X82063Y05061D01*
X82747Y05745D01*
X82747Y06713D01*
X82063Y07397D01*
X81095Y07397D01*
X80411Y06713D01*
X80411Y05745D01*
X81095Y05061D01*
X80717Y05439D02*
X75684Y05439D01*
X75684Y05742D02*
X80414Y05742D01*
X80411Y06045D02*
X75684Y06045D01*
X75684Y06348D02*
X80411Y06348D01*
X80411Y06652D02*
X75684Y06652D01*
X75684Y06955D02*
X80653Y06955D01*
X80956Y07258D02*
X75684Y07258D01*
X75684Y07562D02*
X91594Y07562D01*
X91594Y07865D02*
X87407Y07865D01*
X87711Y08168D02*
X91594Y08168D01*
X91594Y08472D02*
X87827Y08472D01*
X87827Y09078D02*
X91594Y09078D01*
X91594Y08775D02*
X86761Y08775D01*
X86761Y08472D02*
X86557Y08472D01*
X86557Y08168D02*
X86761Y08168D01*
X86761Y07865D02*
X86557Y07865D01*
X87282Y07258D02*
X91594Y07258D01*
X91594Y06955D02*
X87585Y06955D01*
X87827Y06652D02*
X91594Y06652D01*
X91594Y06348D02*
X87827Y06348D01*
X87827Y06045D02*
X91594Y06045D01*
X91594Y05742D02*
X87824Y05742D01*
X87521Y05439D02*
X91594Y05439D01*
X91594Y04529D02*
X75684Y04529D01*
X75684Y04225D02*
X91594Y04225D01*
X91594Y03922D02*
X75684Y03922D01*
X75684Y03619D02*
X91594Y03619D01*
X91594Y03315D02*
X75684Y03315D01*
X75684Y03012D02*
X91594Y03012D01*
X91594Y02709D02*
X75684Y02709D01*
X75684Y02406D02*
X91594Y02406D01*
X91594Y09381D02*
X87699Y09381D01*
X87839Y12111D02*
X79939Y12111D01*
X80243Y12414D02*
X87535Y12414D01*
X87232Y12718D02*
X80546Y12718D01*
X80562Y13021D02*
X87216Y13021D01*
X87216Y13324D02*
X80562Y13324D01*
X80562Y13628D02*
X87216Y13628D01*
X87383Y13931D02*
X80395Y13931D01*
X80092Y14234D02*
X87686Y14234D01*
X83382Y09685D02*
X82316Y09685D01*
X82063Y09937D02*
X81095Y09937D01*
X80411Y09253D01*
X80411Y08285D01*
X81095Y07601D01*
X82063Y07601D01*
X82747Y08285D01*
X82747Y09253D01*
X82063Y09937D01*
X82619Y09381D02*
X83079Y09381D01*
X82951Y09078D02*
X82747Y09078D01*
X82747Y08775D02*
X82951Y08775D01*
X82951Y08472D02*
X82747Y08472D01*
X82631Y08168D02*
X83067Y08168D01*
X83371Y07865D02*
X82327Y07865D01*
X82202Y07258D02*
X83496Y07258D01*
X83193Y06955D02*
X82505Y06955D01*
X82747Y06652D02*
X82951Y06652D01*
X82951Y06348D02*
X82747Y06348D01*
X82747Y06045D02*
X82951Y06045D01*
X82954Y05742D02*
X82744Y05742D01*
X82441Y05439D02*
X83257Y05439D01*
X83560Y05135D02*
X82138Y05135D01*
X80831Y07865D02*
X75684Y07865D01*
X75684Y08168D02*
X80527Y08168D01*
X80411Y08472D02*
X75684Y08472D01*
X75684Y08775D02*
X80411Y08775D01*
X80411Y09078D02*
X75684Y09078D01*
X75684Y09381D02*
X80539Y09381D01*
X80842Y09685D02*
X75684Y09685D01*
X73094Y09685D02*
X68981Y09685D01*
X68728Y09937D02*
X68346Y09937D01*
X68346Y08871D01*
X69412Y08871D01*
X69412Y09253D01*
X68728Y09937D01*
X68346Y09685D02*
X68142Y09685D01*
X68142Y09937D02*
X67760Y09937D01*
X67076Y09253D01*
X67076Y08871D01*
X68142Y08871D01*
X68142Y09937D01*
X68142Y09381D02*
X68346Y09381D01*
X68346Y09078D02*
X68142Y09078D01*
X68142Y08871D02*
X68346Y08871D01*
X68346Y08667D01*
X69412Y08667D01*
X69412Y08285D01*
X68728Y07601D01*
X68346Y07601D01*
X68346Y08667D01*
X68142Y08667D01*
X68142Y07601D01*
X67760Y07601D01*
X67076Y08285D01*
X67076Y08667D01*
X68142Y08667D01*
X68142Y08871D01*
X68142Y08775D02*
X66872Y08775D01*
X66872Y09078D02*
X67076Y09078D01*
X66872Y09253D02*
X66188Y09937D01*
X65220Y09937D01*
X64536Y09253D01*
X64536Y08285D01*
X65220Y07601D01*
X66188Y07601D01*
X66872Y08285D01*
X66872Y09253D01*
X66744Y09381D02*
X67204Y09381D01*
X67507Y09685D02*
X66441Y09685D01*
X66872Y08472D02*
X67076Y08472D01*
X67192Y08168D02*
X66756Y08168D01*
X66452Y07865D02*
X67496Y07865D01*
X67760Y07397D02*
X67076Y06713D01*
X67076Y05745D01*
X67760Y05061D01*
X68728Y05061D01*
X69412Y05745D01*
X69412Y06713D01*
X68728Y07397D01*
X67760Y07397D01*
X67621Y07258D02*
X66327Y07258D01*
X66188Y07397D02*
X65220Y07397D01*
X64536Y06713D01*
X64536Y05745D01*
X65220Y05061D01*
X66188Y05061D01*
X66872Y05745D01*
X66872Y06713D01*
X66188Y07397D01*
X66630Y06955D02*
X67318Y06955D01*
X67076Y06652D02*
X66872Y06652D01*
X66872Y06348D02*
X67076Y06348D01*
X67076Y06045D02*
X66872Y06045D01*
X66869Y05742D02*
X67079Y05742D01*
X67382Y05439D02*
X66566Y05439D01*
X66263Y05135D02*
X67685Y05135D01*
X68803Y05135D02*
X73094Y05135D01*
X73094Y04832D02*
X57184Y04832D01*
X57184Y05135D02*
X62605Y05135D01*
X62680Y05061D02*
X63648Y05061D01*
X64332Y05745D01*
X64332Y06713D01*
X63648Y07397D01*
X62680Y07397D01*
X61996Y06713D01*
X61996Y05745D01*
X62680Y05061D01*
X62302Y05439D02*
X57184Y05439D01*
X57184Y05742D02*
X61999Y05742D01*
X61996Y06045D02*
X57184Y06045D01*
X57184Y06348D02*
X61996Y06348D01*
X61996Y06652D02*
X57184Y06652D01*
X57184Y06955D02*
X62238Y06955D01*
X62541Y07258D02*
X57184Y07258D01*
X57184Y07562D02*
X73094Y07562D01*
X73094Y07865D02*
X68992Y07865D01*
X69296Y08168D02*
X73094Y08168D01*
X73094Y08472D02*
X69412Y08472D01*
X69412Y09078D02*
X73094Y09078D01*
X73094Y08775D02*
X68346Y08775D01*
X68346Y08472D02*
X68142Y08472D01*
X68142Y08168D02*
X68346Y08168D01*
X68346Y07865D02*
X68142Y07865D01*
X68867Y07258D02*
X73094Y07258D01*
X73094Y06955D02*
X69170Y06955D01*
X69412Y06652D02*
X73094Y06652D01*
X73094Y06348D02*
X69412Y06348D01*
X69412Y06045D02*
X73094Y06045D01*
X73094Y05742D02*
X69409Y05742D01*
X69106Y05439D02*
X73094Y05439D01*
X73094Y04529D02*
X57184Y04529D01*
X57184Y04225D02*
X73094Y04225D01*
X73094Y03922D02*
X57184Y03922D01*
X57184Y03619D02*
X73094Y03619D01*
X73094Y03315D02*
X57184Y03315D01*
X57184Y03012D02*
X73094Y03012D01*
X73094Y02709D02*
X57184Y02709D01*
X57184Y02406D02*
X73094Y02406D01*
X73094Y09381D02*
X69284Y09381D01*
X69424Y12111D02*
X61524Y12111D01*
X61828Y12414D02*
X69120Y12414D01*
X68817Y12718D02*
X62131Y12718D01*
X62147Y13021D02*
X68801Y13021D01*
X68801Y13324D02*
X62147Y13324D01*
X62147Y13628D02*
X68801Y13628D01*
X68968Y13931D02*
X61980Y13931D01*
X61677Y14234D02*
X69271Y14234D01*
X73094Y11504D02*
X57184Y11504D01*
X57184Y11201D02*
X73094Y11201D01*
X73094Y10898D02*
X57184Y10898D01*
X57184Y10595D02*
X73094Y10595D01*
X73094Y10291D02*
X57184Y10291D01*
X57184Y09988D02*
X73094Y09988D01*
X64967Y09685D02*
X63901Y09685D01*
X63648Y09937D02*
X64332Y09253D01*
X64332Y08285D01*
X63648Y07601D01*
X62680Y07601D01*
X61996Y08285D01*
X61996Y09253D01*
X62680Y09937D01*
X63648Y09937D01*
X64204Y09381D02*
X64664Y09381D01*
X64536Y09078D02*
X64332Y09078D01*
X64332Y08775D02*
X64536Y08775D01*
X64536Y08472D02*
X64332Y08472D01*
X64216Y08168D02*
X64652Y08168D01*
X64956Y07865D02*
X63912Y07865D01*
X63787Y07258D02*
X65081Y07258D01*
X64778Y06955D02*
X64090Y06955D01*
X64332Y06652D02*
X64536Y06652D01*
X64536Y06348D02*
X64332Y06348D01*
X64332Y06045D02*
X64536Y06045D01*
X64539Y05742D02*
X64329Y05742D01*
X64026Y05439D02*
X64842Y05439D01*
X65145Y05135D02*
X63723Y05135D01*
X62416Y07865D02*
X57184Y07865D01*
X57184Y08168D02*
X62112Y08168D01*
X61996Y08472D02*
X57184Y08472D01*
X57184Y08775D02*
X61996Y08775D01*
X61996Y09078D02*
X57184Y09078D01*
X57184Y09381D02*
X62124Y09381D01*
X62427Y09685D02*
X57184Y09685D01*
X54594Y09685D02*
X50566Y09685D01*
X50313Y09937D02*
X49931Y09937D01*
X49931Y08871D01*
X50997Y08871D01*
X50997Y09253D01*
X50313Y09937D01*
X49931Y09685D02*
X49727Y09685D01*
X49727Y09937D02*
X49345Y09937D01*
X48661Y09253D01*
X48661Y08871D01*
X49727Y08871D01*
X49727Y09937D01*
X49727Y09381D02*
X49931Y09381D01*
X49931Y09078D02*
X49727Y09078D01*
X49727Y08871D02*
X49931Y08871D01*
X49931Y08667D01*
X50997Y08667D01*
X50997Y08285D01*
X50313Y07601D01*
X49931Y07601D01*
X49931Y08667D01*
X49727Y08667D01*
X49727Y07601D01*
X49345Y07601D01*
X48661Y08285D01*
X48661Y08667D01*
X49727Y08667D01*
X49727Y08871D01*
X49727Y08775D02*
X48457Y08775D01*
X48457Y09078D02*
X48661Y09078D01*
X48457Y09253D02*
X47773Y09937D01*
X46805Y09937D01*
X46121Y09253D01*
X46121Y08285D01*
X46805Y07601D01*
X47773Y07601D01*
X48457Y08285D01*
X48457Y09253D01*
X48329Y09381D02*
X48789Y09381D01*
X49092Y09685D02*
X48026Y09685D01*
X48457Y08472D02*
X48661Y08472D01*
X48777Y08168D02*
X48341Y08168D01*
X48037Y07865D02*
X49081Y07865D01*
X49345Y07397D02*
X48661Y06713D01*
X48661Y05745D01*
X49345Y05061D01*
X50313Y05061D01*
X50997Y05745D01*
X50997Y06713D01*
X50313Y07397D01*
X49345Y07397D01*
X49206Y07258D02*
X47912Y07258D01*
X47773Y07397D02*
X48457Y06713D01*
X48457Y05745D01*
X47773Y05061D01*
X46805Y05061D01*
X46121Y05745D01*
X46121Y06713D01*
X46805Y07397D01*
X47773Y07397D01*
X48215Y06955D02*
X48903Y06955D01*
X48661Y06652D02*
X48457Y06652D01*
X48457Y06348D02*
X48661Y06348D01*
X48661Y06045D02*
X48457Y06045D01*
X48454Y05742D02*
X48664Y05742D01*
X48967Y05439D02*
X48151Y05439D01*
X47848Y05135D02*
X49270Y05135D01*
X50388Y05135D02*
X54594Y05135D01*
X54594Y04832D02*
X38684Y04832D01*
X38684Y05135D02*
X44190Y05135D01*
X44265Y05061D02*
X45233Y05061D01*
X45917Y05745D01*
X45917Y06713D01*
X45233Y07397D01*
X44265Y07397D01*
X43581Y06713D01*
X43581Y05745D01*
X44265Y05061D01*
X43887Y05439D02*
X38684Y05439D01*
X38684Y05742D02*
X43584Y05742D01*
X43581Y06045D02*
X38684Y06045D01*
X38684Y06348D02*
X43581Y06348D01*
X43581Y06652D02*
X38684Y06652D01*
X38684Y06955D02*
X43823Y06955D01*
X44126Y07258D02*
X38684Y07258D01*
X38684Y07562D02*
X54594Y07562D01*
X54594Y07865D02*
X50577Y07865D01*
X50881Y08168D02*
X54594Y08168D01*
X54594Y08472D02*
X50997Y08472D01*
X50997Y09078D02*
X54594Y09078D01*
X54594Y08775D02*
X49931Y08775D01*
X49931Y08472D02*
X49727Y08472D01*
X49727Y08168D02*
X49931Y08168D01*
X49931Y07865D02*
X49727Y07865D01*
X50452Y07258D02*
X54594Y07258D01*
X54594Y06955D02*
X50755Y06955D01*
X50997Y06652D02*
X54594Y06652D01*
X54594Y06348D02*
X50997Y06348D01*
X50997Y06045D02*
X54594Y06045D01*
X54594Y05742D02*
X50994Y05742D01*
X50691Y05439D02*
X54594Y05439D01*
X54594Y04529D02*
X38684Y04529D01*
X38684Y04225D02*
X54594Y04225D01*
X54594Y03922D02*
X38684Y03922D01*
X38684Y03619D02*
X54594Y03619D01*
X54594Y03315D02*
X38684Y03315D01*
X38684Y03012D02*
X54594Y03012D01*
X54594Y02709D02*
X38684Y02709D01*
X38684Y02406D02*
X54594Y02406D01*
X54594Y02184D02*
X38684Y02184D01*
X38684Y98594D01*
X54594Y98594D01*
X54594Y02184D01*
X54594Y09381D02*
X50869Y09381D01*
X51009Y12111D02*
X43109Y12111D01*
X43413Y12414D02*
X50705Y12414D01*
X50402Y12718D02*
X43716Y12718D01*
X43732Y13021D02*
X50386Y13021D01*
X50386Y13324D02*
X43732Y13324D01*
X43732Y13628D02*
X50386Y13628D01*
X50553Y13931D02*
X43565Y13931D01*
X43262Y14234D02*
X50856Y14234D01*
X54594Y11504D02*
X38684Y11504D01*
X38684Y11201D02*
X54594Y11201D01*
X54594Y10898D02*
X38684Y10898D01*
X38684Y10595D02*
X54594Y10595D01*
X54594Y10291D02*
X38684Y10291D01*
X38684Y09988D02*
X54594Y09988D01*
X46552Y09685D02*
X45486Y09685D01*
X45233Y09937D02*
X44265Y09937D01*
X43581Y09253D01*
X43581Y08285D01*
X44265Y07601D01*
X45233Y07601D01*
X45917Y08285D01*
X45917Y09253D01*
X45233Y09937D01*
X45789Y09381D02*
X46249Y09381D01*
X46121Y09078D02*
X45917Y09078D01*
X45917Y08775D02*
X46121Y08775D01*
X46121Y08472D02*
X45917Y08472D01*
X45801Y08168D02*
X46237Y08168D01*
X46541Y07865D02*
X45497Y07865D01*
X45372Y07258D02*
X46666Y07258D01*
X46363Y06955D02*
X45675Y06955D01*
X45917Y06652D02*
X46121Y06652D01*
X46121Y06348D02*
X45917Y06348D01*
X45917Y06045D02*
X46121Y06045D01*
X46124Y05742D02*
X45914Y05742D01*
X45611Y05439D02*
X46427Y05439D01*
X46730Y05135D02*
X45308Y05135D01*
X44001Y07865D02*
X38684Y07865D01*
X38684Y08168D02*
X43697Y08168D01*
X43581Y08472D02*
X38684Y08472D01*
X38684Y08775D02*
X43581Y08775D01*
X43581Y09078D02*
X38684Y09078D01*
X38684Y09381D02*
X43709Y09381D01*
X44012Y09685D02*
X38684Y09685D01*
X36094Y09685D02*
X32151Y09685D01*
X31898Y09937D02*
X31516Y09937D01*
X31516Y08871D01*
X32582Y08871D01*
X32582Y09253D01*
X31898Y09937D01*
X31516Y09685D02*
X31312Y09685D01*
X31312Y09937D02*
X30930Y09937D01*
X30246Y09253D01*
X30246Y08871D01*
X31312Y08871D01*
X31312Y09937D01*
X31312Y09381D02*
X31516Y09381D01*
X31516Y09078D02*
X31312Y09078D01*
X31312Y08871D02*
X31516Y08871D01*
X31516Y08667D01*
X32582Y08667D01*
X32582Y08285D01*
X31898Y07601D01*
X31516Y07601D01*
X31516Y08667D01*
X31312Y08667D01*
X31312Y07601D01*
X30930Y07601D01*
X30246Y08285D01*
X30246Y08667D01*
X31312Y08667D01*
X31312Y08871D01*
X31312Y08775D02*
X30042Y08775D01*
X30042Y09078D02*
X30246Y09078D01*
X30042Y09253D02*
X29358Y09937D01*
X28390Y09937D01*
X27706Y09253D01*
X27706Y08285D01*
X28390Y07601D01*
X29358Y07601D01*
X30042Y08285D01*
X30042Y09253D01*
X29914Y09381D02*
X30374Y09381D01*
X30677Y09685D02*
X29611Y09685D01*
X30042Y08472D02*
X30246Y08472D01*
X30362Y08168D02*
X29926Y08168D01*
X29622Y07865D02*
X30666Y07865D01*
X30930Y07397D02*
X30246Y06713D01*
X30246Y05745D01*
X30930Y05061D01*
X31898Y05061D01*
X32582Y05745D01*
X32582Y06713D01*
X31898Y07397D01*
X30930Y07397D01*
X30791Y07258D02*
X29497Y07258D01*
X29358Y07397D02*
X28390Y07397D01*
X27706Y06713D01*
X27706Y05745D01*
X28390Y05061D01*
X29358Y05061D01*
X30042Y05745D01*
X30042Y06713D01*
X29358Y07397D01*
X29800Y06955D02*
X30488Y06955D01*
X30246Y06652D02*
X30042Y06652D01*
X30042Y06348D02*
X30246Y06348D01*
X30246Y06045D02*
X30042Y06045D01*
X30039Y05742D02*
X30249Y05742D01*
X30552Y05439D02*
X29736Y05439D01*
X29433Y05135D02*
X30855Y05135D01*
X31973Y05135D02*
X36094Y05135D01*
X36094Y04832D02*
X20184Y04832D01*
X20184Y05135D02*
X25775Y05135D01*
X25850Y05061D02*
X26818Y05061D01*
X27502Y05745D01*
X27502Y06713D01*
X26818Y07397D01*
X25850Y07397D01*
X25166Y06713D01*
X25166Y05745D01*
X25850Y05061D01*
X25472Y05439D02*
X20184Y05439D01*
X20184Y05742D02*
X25169Y05742D01*
X25166Y06045D02*
X20184Y06045D01*
X20184Y06348D02*
X25166Y06348D01*
X25166Y06652D02*
X20184Y06652D01*
X20184Y06955D02*
X25408Y06955D01*
X25711Y07258D02*
X20184Y07258D01*
X20184Y07562D02*
X36094Y07562D01*
X36094Y07865D02*
X32162Y07865D01*
X32466Y08168D02*
X36094Y08168D01*
X36094Y08472D02*
X32582Y08472D01*
X32582Y09078D02*
X36094Y09078D01*
X36094Y08775D02*
X31516Y08775D01*
X31516Y08472D02*
X31312Y08472D01*
X31312Y08168D02*
X31516Y08168D01*
X31516Y07865D02*
X31312Y07865D01*
X32037Y07258D02*
X36094Y07258D01*
X36094Y06955D02*
X32340Y06955D01*
X32582Y06652D02*
X36094Y06652D01*
X36094Y06348D02*
X32582Y06348D01*
X32582Y06045D02*
X36094Y06045D01*
X36094Y05742D02*
X32579Y05742D01*
X32276Y05439D02*
X36094Y05439D01*
X36094Y04529D02*
X20184Y04529D01*
X20184Y04225D02*
X36094Y04225D01*
X36094Y03922D02*
X20184Y03922D01*
X20184Y03619D02*
X36094Y03619D01*
X36094Y03315D02*
X20184Y03315D01*
X20184Y03012D02*
X36094Y03012D01*
X36094Y02709D02*
X20184Y02709D01*
X20184Y02406D02*
X36094Y02406D01*
X36094Y09381D02*
X32454Y09381D01*
X32700Y12004D02*
X33732Y12004D01*
X34461Y12733D01*
X34461Y13765D01*
X33732Y14494D01*
X32700Y14494D01*
X31971Y13765D01*
X31971Y12733D01*
X32700Y12004D01*
X32594Y12111D02*
X24694Y12111D01*
X24588Y12004D02*
X25317Y12733D01*
X25317Y13765D01*
X24588Y14494D01*
X23556Y14494D01*
X22827Y13765D01*
X22827Y12733D01*
X23556Y12004D01*
X24588Y12004D01*
X24998Y12414D02*
X32290Y12414D01*
X31987Y12718D02*
X25301Y12718D01*
X25317Y13021D02*
X31971Y13021D01*
X31971Y13324D02*
X25317Y13324D01*
X25317Y13628D02*
X31971Y13628D01*
X32138Y13931D02*
X25150Y13931D01*
X24847Y14234D02*
X32441Y14234D01*
X33991Y14234D02*
X36094Y14234D01*
X36094Y13931D02*
X34294Y13931D01*
X34461Y13628D02*
X36094Y13628D01*
X36094Y13324D02*
X34461Y13324D01*
X34461Y13021D02*
X36094Y13021D01*
X36094Y12718D02*
X34445Y12718D01*
X34142Y12414D02*
X36094Y12414D01*
X36094Y12111D02*
X33838Y12111D01*
X36094Y11808D02*
X20184Y11808D01*
X20184Y12111D02*
X23450Y12111D01*
X23146Y12414D02*
X20184Y12414D01*
X20184Y12718D02*
X22843Y12718D01*
X22827Y13021D02*
X20184Y13021D01*
X20184Y13324D02*
X22827Y13324D01*
X22827Y13628D02*
X20184Y13628D01*
X20184Y13931D02*
X22994Y13931D01*
X23297Y14234D02*
X20184Y14234D01*
X20184Y14537D02*
X36094Y14537D01*
X36094Y14841D02*
X20184Y14841D01*
X20184Y15144D02*
X36094Y15144D01*
X36094Y15447D02*
X20184Y15447D01*
X20184Y15751D02*
X36094Y15751D01*
X36094Y16054D02*
X20184Y16054D01*
X20184Y16357D02*
X36094Y16357D01*
X36094Y16661D02*
X20184Y16661D01*
X20184Y16964D02*
X36094Y16964D01*
X38684Y19694D02*
X54594Y19694D01*
X54594Y22423D02*
X38684Y22423D01*
X38684Y22727D02*
X54594Y22727D01*
X54594Y23030D02*
X38684Y23030D01*
X38684Y23333D02*
X54594Y23333D01*
X54594Y23636D02*
X38684Y23636D01*
X38684Y23940D02*
X54594Y23940D01*
X54594Y24243D02*
X38684Y24243D01*
X38684Y24546D02*
X54594Y24546D01*
X54594Y24850D02*
X38684Y24850D01*
X38684Y25153D02*
X54594Y25153D01*
X54594Y25456D02*
X38684Y25456D01*
X38684Y25760D02*
X54594Y25760D01*
X54594Y26063D02*
X52355Y26063D01*
X52217Y25924D02*
X52946Y26653D01*
X52946Y27685D01*
X52217Y28414D01*
X51185Y28414D01*
X50456Y27685D01*
X50456Y26653D01*
X51185Y25924D01*
X52217Y25924D01*
X52658Y26366D02*
X54594Y26366D01*
X54594Y26669D02*
X52946Y26669D01*
X52946Y26973D02*
X54594Y26973D01*
X54594Y27276D02*
X52946Y27276D01*
X52946Y27579D02*
X54594Y27579D01*
X54594Y27883D02*
X52747Y27883D01*
X52444Y28186D02*
X54594Y28186D01*
X54594Y28489D02*
X38684Y28489D01*
X38684Y28186D02*
X41814Y28186D01*
X42041Y28414D02*
X41312Y27685D01*
X41312Y26653D01*
X42041Y25924D01*
X43073Y25924D01*
X43802Y26653D01*
X43802Y27685D01*
X43073Y28414D01*
X42041Y28414D01*
X41511Y27883D02*
X38684Y27883D01*
X38684Y27579D02*
X41312Y27579D01*
X41312Y27276D02*
X38684Y27276D01*
X38684Y26973D02*
X41312Y26973D01*
X41312Y26669D02*
X38684Y26669D01*
X38684Y26366D02*
X41600Y26366D01*
X41903Y26063D02*
X38684Y26063D01*
X43211Y26063D02*
X51047Y26063D01*
X50744Y26366D02*
X43514Y26366D01*
X43802Y26669D02*
X50456Y26669D01*
X50456Y26973D02*
X43802Y26973D01*
X43802Y27276D02*
X50456Y27276D01*
X50456Y27579D02*
X43802Y27579D01*
X43603Y27883D02*
X50655Y27883D01*
X50958Y28186D02*
X43300Y28186D01*
X32543Y28186D02*
X24885Y28186D01*
X25188Y27883D02*
X32240Y27883D01*
X32041Y27579D02*
X25387Y27579D01*
X25387Y27276D02*
X32041Y27276D01*
X32041Y26973D02*
X25387Y26973D01*
X25387Y26669D02*
X32041Y26669D01*
X32329Y26366D02*
X25099Y26366D01*
X24796Y26063D02*
X32632Y26063D01*
X36094Y11504D02*
X20184Y11504D01*
X20184Y11201D02*
X36094Y11201D01*
X36094Y10898D02*
X20184Y10898D01*
X20184Y10595D02*
X36094Y10595D01*
X36094Y10291D02*
X20184Y10291D01*
X20184Y09988D02*
X36094Y09988D01*
X28137Y09685D02*
X27071Y09685D01*
X26818Y09937D02*
X25850Y09937D01*
X25166Y09253D01*
X25166Y08285D01*
X25850Y07601D01*
X26818Y07601D01*
X27502Y08285D01*
X27502Y09253D01*
X26818Y09937D01*
X27374Y09381D02*
X27834Y09381D01*
X27706Y09078D02*
X27502Y09078D01*
X27502Y08775D02*
X27706Y08775D01*
X27706Y08472D02*
X27502Y08472D01*
X27386Y08168D02*
X27822Y08168D01*
X28126Y07865D02*
X27082Y07865D01*
X26957Y07258D02*
X28251Y07258D01*
X27948Y06955D02*
X27260Y06955D01*
X27502Y06652D02*
X27706Y06652D01*
X27706Y06348D02*
X27502Y06348D01*
X27502Y06045D02*
X27706Y06045D01*
X27709Y05742D02*
X27499Y05742D01*
X27196Y05439D02*
X28012Y05439D01*
X28315Y05135D02*
X26893Y05135D01*
X25586Y07865D02*
X20184Y07865D01*
X20184Y08168D02*
X25282Y08168D01*
X25166Y08472D02*
X20184Y08472D01*
X20184Y08775D02*
X25166Y08775D01*
X25166Y09078D02*
X20184Y09078D01*
X20184Y09381D02*
X25294Y09381D01*
X25597Y09685D02*
X20184Y09685D01*
X14179Y12111D02*
X06279Y12111D01*
X06583Y12414D02*
X13875Y12414D01*
X13572Y12718D02*
X06886Y12718D01*
X06902Y13021D02*
X13556Y13021D01*
X13556Y13324D02*
X06902Y13324D01*
X06902Y13628D02*
X13556Y13628D01*
X13723Y13931D02*
X06735Y13931D01*
X06432Y14234D02*
X14026Y14234D01*
X20184Y44564D02*
X23718Y44564D01*
X23568Y44604D02*
X24310Y44406D01*
X25078Y44406D01*
X25820Y44604D01*
X26486Y44989D01*
X27029Y45532D01*
X27414Y46198D01*
X27612Y46940D01*
X27612Y47708D01*
X27414Y48450D01*
X27029Y49116D01*
X26486Y49659D01*
X25820Y50044D01*
X25078Y50242D01*
X24310Y50242D01*
X23568Y50044D01*
X22902Y49659D01*
X22359Y49116D01*
X21974Y48450D01*
X21776Y47708D01*
X21776Y46940D01*
X21974Y46198D01*
X22359Y45532D01*
X22902Y44989D01*
X23568Y44604D01*
X23112Y44867D02*
X20184Y44867D01*
X20184Y45171D02*
X22720Y45171D01*
X22417Y45474D02*
X20184Y45474D01*
X20184Y45777D02*
X22217Y45777D01*
X22042Y46081D02*
X20184Y46081D01*
X20184Y46384D02*
X21925Y46384D01*
X21843Y46687D02*
X20184Y46687D01*
X20184Y46991D02*
X21776Y46991D01*
X21776Y47294D02*
X20184Y47294D01*
X20184Y47597D02*
X21776Y47597D01*
X21827Y47900D02*
X20184Y47900D01*
X20184Y48204D02*
X21908Y48204D01*
X22007Y48507D02*
X20184Y48507D01*
X20184Y48810D02*
X22182Y48810D01*
X22357Y49114D02*
X20184Y49114D01*
X20184Y49417D02*
X22660Y49417D01*
X23008Y49720D02*
X20184Y49720D01*
X20184Y50024D02*
X23533Y50024D01*
X25855Y50024D02*
X31788Y50024D01*
X31263Y49720D02*
X26380Y49720D01*
X26728Y49417D02*
X30915Y49417D01*
X30612Y49114D02*
X27031Y49114D01*
X27206Y48810D02*
X30437Y48810D01*
X30262Y48507D02*
X27381Y48507D01*
X27480Y48204D02*
X30163Y48204D01*
X30082Y47900D02*
X27561Y47900D01*
X27612Y47597D02*
X30031Y47597D01*
X30031Y47294D02*
X27612Y47294D01*
X27612Y46991D02*
X30031Y46991D01*
X30098Y46687D02*
X27545Y46687D01*
X27463Y46384D02*
X30180Y46384D01*
X30297Y46081D02*
X27346Y46081D01*
X27171Y45777D02*
X30472Y45777D01*
X30672Y45474D02*
X26971Y45474D01*
X26668Y45171D02*
X30975Y45171D01*
X31367Y44867D02*
X26276Y44867D01*
X25670Y44564D02*
X31973Y44564D01*
X38684Y63369D02*
X46558Y63369D01*
X46558Y63672D02*
X46660Y63672D01*
X46660Y63975D02*
X46558Y63975D01*
X46558Y64279D02*
X46660Y64279D01*
X46660Y64582D02*
X46558Y64582D01*
X46093Y64714D02*
X47125Y64714D01*
X47854Y65443D01*
X47854Y66475D01*
X47125Y67204D01*
X46093Y67204D01*
X45364Y66475D01*
X45364Y65443D01*
X46093Y64714D01*
X46012Y64582D02*
X38684Y64582D01*
X38684Y64885D02*
X45923Y64885D01*
X45619Y65189D02*
X38684Y65189D01*
X38684Y65492D02*
X45364Y65492D01*
X45364Y65795D02*
X38684Y65795D01*
X38684Y66099D02*
X45364Y66099D01*
X45364Y66402D02*
X38684Y66402D01*
X38684Y66705D02*
X45595Y66705D01*
X45898Y67008D02*
X38684Y67008D01*
X38684Y67312D02*
X54594Y67312D01*
X54594Y67615D02*
X38684Y67615D01*
X38684Y67918D02*
X54594Y67918D01*
X54594Y68222D02*
X38684Y68222D01*
X38684Y68525D02*
X54594Y68525D01*
X54594Y68828D02*
X38684Y68828D01*
X38684Y69132D02*
X54594Y69132D01*
X54594Y69435D02*
X38684Y69435D01*
X38684Y69738D02*
X54594Y69738D01*
X54594Y70041D02*
X38684Y70041D01*
X42636Y70648D02*
X50542Y70648D01*
X50239Y70951D02*
X42939Y70951D01*
X43243Y71255D02*
X49935Y71255D01*
X49916Y71558D02*
X43262Y71558D01*
X43262Y71861D02*
X49916Y71861D01*
X49916Y72165D02*
X43262Y72165D01*
X43098Y72468D02*
X50080Y72468D01*
X50383Y72771D02*
X42795Y72771D01*
X47271Y77321D02*
X54594Y77321D01*
X54594Y77624D02*
X47574Y77624D01*
X47854Y77927D02*
X54594Y77927D01*
X54594Y78231D02*
X47854Y78231D01*
X47854Y78534D02*
X54594Y78534D01*
X54594Y78837D02*
X47854Y78837D01*
X47648Y79140D02*
X54594Y79140D01*
X54594Y79444D02*
X47344Y79444D01*
X50387Y86723D02*
X42831Y86723D01*
X43134Y87026D02*
X50084Y87026D01*
X49936Y87330D02*
X43282Y87330D01*
X43282Y87633D02*
X49936Y87633D01*
X49936Y87936D02*
X43282Y87936D01*
X43247Y88239D02*
X49971Y88239D01*
X50275Y88543D02*
X42943Y88543D01*
X42640Y88846D02*
X50578Y88846D01*
X47132Y92182D02*
X54594Y92182D01*
X54594Y91879D02*
X38684Y91879D01*
X38684Y92182D02*
X46086Y92182D01*
X46093Y92174D02*
X45364Y92903D01*
X45364Y93368D01*
X46558Y93368D01*
X46558Y93470D01*
X46558Y94664D01*
X46093Y94664D01*
X45364Y93935D01*
X45364Y93470D01*
X46558Y93470D01*
X46660Y93470D01*
X46660Y94664D01*
X47125Y94664D01*
X47854Y93935D01*
X47854Y93470D01*
X46660Y93470D01*
X46660Y93368D01*
X47854Y93368D01*
X47854Y92903D01*
X47125Y92174D01*
X46660Y92174D01*
X46660Y93368D01*
X46558Y93368D01*
X46558Y92174D01*
X46093Y92174D01*
X45782Y92486D02*
X38684Y92486D01*
X38684Y92789D02*
X45479Y92789D01*
X45364Y93092D02*
X38684Y93092D01*
X38684Y93395D02*
X46558Y93395D01*
X46660Y93395D02*
X54594Y93395D01*
X54594Y93092D02*
X47854Y93092D01*
X47739Y92789D02*
X54594Y92789D01*
X54594Y92486D02*
X47436Y92486D01*
X46660Y92486D02*
X46558Y92486D01*
X46558Y92789D02*
X46660Y92789D01*
X46660Y93092D02*
X46558Y93092D01*
X46558Y93699D02*
X46660Y93699D01*
X46660Y94002D02*
X46558Y94002D01*
X46558Y94305D02*
X46660Y94305D01*
X46660Y94609D02*
X46558Y94609D01*
X46093Y94714D02*
X47125Y94714D01*
X47854Y95443D01*
X47854Y96475D01*
X47125Y97204D01*
X46093Y97204D01*
X45364Y96475D01*
X45364Y95443D01*
X46093Y94714D01*
X46039Y94609D02*
X38684Y94609D01*
X38684Y94912D02*
X45896Y94912D01*
X45593Y95215D02*
X38684Y95215D01*
X38684Y95519D02*
X45364Y95519D01*
X45364Y95822D02*
X38684Y95822D01*
X38684Y96125D02*
X45364Y96125D01*
X45364Y96428D02*
X38684Y96428D01*
X38684Y96732D02*
X45622Y96732D01*
X45925Y97035D02*
X38684Y97035D01*
X38684Y97338D02*
X54594Y97338D01*
X54594Y97035D02*
X47293Y97035D01*
X47596Y96732D02*
X54594Y96732D01*
X54594Y96428D02*
X47854Y96428D01*
X47854Y96125D02*
X54594Y96125D01*
X54594Y95822D02*
X47854Y95822D01*
X47854Y95519D02*
X54594Y95519D01*
X54594Y95215D02*
X47625Y95215D01*
X47322Y94912D02*
X54594Y94912D01*
X54594Y94609D02*
X47179Y94609D01*
X47483Y94305D02*
X54594Y94305D01*
X54594Y94002D02*
X47786Y94002D01*
X47854Y93699D02*
X54594Y93699D01*
X54594Y91576D02*
X38684Y91576D01*
X38684Y91272D02*
X54594Y91272D01*
X54594Y90969D02*
X38684Y90969D01*
X38684Y90666D02*
X54594Y90666D01*
X54594Y90362D02*
X38684Y90362D01*
X38684Y90059D02*
X54594Y90059D01*
X54594Y89756D02*
X38684Y89756D01*
X38684Y89453D02*
X54594Y89453D01*
X57184Y89453D02*
X73094Y89453D01*
X73094Y89756D02*
X57184Y89756D01*
X57184Y90059D02*
X73094Y90059D01*
X73094Y90362D02*
X57184Y90362D01*
X57184Y90666D02*
X73094Y90666D01*
X73094Y90969D02*
X57184Y90969D01*
X57184Y91272D02*
X73094Y91272D01*
X73094Y91576D02*
X57184Y91576D01*
X57184Y91879D02*
X73094Y91879D01*
X73094Y92182D02*
X65547Y92182D01*
X65540Y92174D02*
X66269Y92903D01*
X66269Y93368D01*
X65075Y93368D01*
X65075Y93470D01*
X64973Y93470D01*
X64973Y94664D01*
X64508Y94664D01*
X63779Y93935D01*
X63779Y93470D01*
X64973Y93470D01*
X64973Y93368D01*
X63779Y93368D01*
X63779Y92903D01*
X64508Y92174D01*
X64973Y92174D01*
X64973Y93368D01*
X65075Y93368D01*
X65075Y92174D01*
X65540Y92174D01*
X65851Y92486D02*
X73094Y92486D01*
X73094Y92789D02*
X66154Y92789D01*
X66269Y93092D02*
X73094Y93092D01*
X73094Y93395D02*
X65075Y93395D01*
X65075Y93470D02*
X66269Y93470D01*
X66269Y93935D01*
X65540Y94664D01*
X65075Y94664D01*
X65075Y93470D01*
X64973Y93395D02*
X57184Y93395D01*
X57184Y93092D02*
X63779Y93092D01*
X63894Y92789D02*
X57184Y92789D01*
X57184Y92486D02*
X64197Y92486D01*
X64501Y92182D02*
X57184Y92182D01*
X57184Y93699D02*
X63779Y93699D01*
X63847Y94002D02*
X57184Y94002D01*
X57184Y94305D02*
X64150Y94305D01*
X64454Y94609D02*
X57184Y94609D01*
X57184Y94912D02*
X64311Y94912D01*
X64508Y94714D02*
X63779Y95443D01*
X63779Y96475D01*
X64508Y97204D01*
X65540Y97204D01*
X66269Y96475D01*
X66269Y95443D01*
X65540Y94714D01*
X64508Y94714D01*
X64973Y94609D02*
X65075Y94609D01*
X65075Y94305D02*
X64973Y94305D01*
X64973Y94002D02*
X65075Y94002D01*
X65075Y93699D02*
X64973Y93699D01*
X64973Y93092D02*
X65075Y93092D01*
X65075Y92789D02*
X64973Y92789D01*
X64973Y92486D02*
X65075Y92486D01*
X65075Y92182D02*
X64973Y92182D01*
X66269Y93699D02*
X73094Y93699D01*
X73094Y94002D02*
X66201Y94002D01*
X65898Y94305D02*
X73094Y94305D01*
X73094Y94609D02*
X65594Y94609D01*
X65737Y94912D02*
X73094Y94912D01*
X73094Y95215D02*
X66040Y95215D01*
X66269Y95519D02*
X73094Y95519D01*
X73094Y95822D02*
X66269Y95822D01*
X66269Y96125D02*
X73094Y96125D01*
X73094Y96428D02*
X66269Y96428D01*
X66011Y96732D02*
X73094Y96732D01*
X73094Y97035D02*
X65708Y97035D01*
X64340Y97035D02*
X57184Y97035D01*
X57184Y96732D02*
X64037Y96732D01*
X63779Y96428D02*
X57184Y96428D01*
X57184Y96125D02*
X63779Y96125D01*
X63779Y95822D02*
X57184Y95822D01*
X57184Y95519D02*
X63779Y95519D01*
X64008Y95215D02*
X57184Y95215D01*
X57184Y97338D02*
X73094Y97338D01*
X73094Y97642D02*
X57184Y97642D01*
X57184Y97945D02*
X73094Y97945D01*
X73094Y98248D02*
X57184Y98248D01*
X57184Y98552D02*
X73094Y98552D01*
X68993Y88846D02*
X61055Y88846D01*
X61358Y88543D02*
X68690Y88543D01*
X68386Y88239D02*
X61662Y88239D01*
X61697Y87936D02*
X68351Y87936D01*
X68351Y87633D02*
X61697Y87633D01*
X61697Y87330D02*
X68351Y87330D01*
X68499Y87026D02*
X61549Y87026D01*
X61246Y86723D02*
X68802Y86723D01*
X68798Y72771D02*
X61210Y72771D01*
X61513Y72468D02*
X68495Y72468D01*
X68331Y72165D02*
X61677Y72165D01*
X61677Y71861D02*
X68331Y71861D01*
X68331Y71558D02*
X61677Y71558D01*
X61658Y71255D02*
X68350Y71255D01*
X68654Y70951D02*
X61354Y70951D01*
X61051Y70648D02*
X68957Y70648D01*
X73094Y70041D02*
X57184Y70041D01*
X57184Y69738D02*
X73094Y69738D01*
X73094Y69435D02*
X57184Y69435D01*
X57184Y69132D02*
X73094Y69132D01*
X73094Y68828D02*
X57184Y68828D01*
X57184Y68525D02*
X73094Y68525D01*
X73094Y68222D02*
X57184Y68222D01*
X57184Y67918D02*
X73094Y67918D01*
X73094Y67615D02*
X57184Y67615D01*
X57184Y67312D02*
X73094Y67312D01*
X73094Y67008D02*
X65735Y67008D01*
X65540Y67204D02*
X66269Y66475D01*
X66269Y65443D01*
X65540Y64714D01*
X64508Y64714D01*
X63779Y65443D01*
X63779Y66475D01*
X64508Y67204D01*
X65540Y67204D01*
X66038Y66705D02*
X73094Y66705D01*
X73094Y66402D02*
X66269Y66402D01*
X66269Y66099D02*
X73094Y66099D01*
X73094Y65795D02*
X66269Y65795D01*
X66269Y65492D02*
X73094Y65492D01*
X73094Y65189D02*
X66014Y65189D01*
X65710Y64885D02*
X73094Y64885D01*
X73094Y64582D02*
X65621Y64582D01*
X65540Y64664D02*
X65075Y64664D01*
X65075Y63470D01*
X64973Y63470D01*
X64973Y64664D01*
X64508Y64664D01*
X63779Y63935D01*
X63779Y63470D01*
X64973Y63470D01*
X64973Y63368D01*
X63779Y63368D01*
X63779Y62903D01*
X64508Y62174D01*
X64973Y62174D01*
X64973Y63368D01*
X65075Y63368D01*
X65075Y63470D01*
X66269Y63470D01*
X66269Y63935D01*
X65540Y64664D01*
X65075Y64582D02*
X64973Y64582D01*
X64973Y64279D02*
X65075Y64279D01*
X65075Y63975D02*
X64973Y63975D01*
X64973Y63672D02*
X65075Y63672D01*
X65075Y63369D02*
X73094Y63369D01*
X73094Y63672D02*
X66269Y63672D01*
X66269Y63368D02*
X65075Y63368D01*
X65075Y62174D01*
X65540Y62174D01*
X66269Y62903D01*
X66269Y63368D01*
X66269Y63065D02*
X73094Y63065D01*
X73094Y62762D02*
X66127Y62762D01*
X65824Y62459D02*
X73094Y62459D01*
X73094Y62156D02*
X57184Y62156D01*
X57184Y62459D02*
X64224Y62459D01*
X63921Y62762D02*
X57184Y62762D01*
X57184Y63065D02*
X63779Y63065D01*
X63779Y63672D02*
X57184Y63672D01*
X57184Y63369D02*
X64973Y63369D01*
X64973Y63065D02*
X65075Y63065D01*
X65075Y62762D02*
X64973Y62762D01*
X64973Y62459D02*
X65075Y62459D01*
X66228Y63975D02*
X73094Y63975D01*
X73094Y64279D02*
X65924Y64279D01*
X64427Y64582D02*
X57184Y64582D01*
X57184Y64885D02*
X64338Y64885D01*
X64034Y65189D02*
X57184Y65189D01*
X57184Y65492D02*
X63779Y65492D01*
X63779Y65795D02*
X57184Y65795D01*
X57184Y66099D02*
X63779Y66099D01*
X63779Y66402D02*
X57184Y66402D01*
X57184Y66705D02*
X64010Y66705D01*
X64313Y67008D02*
X57184Y67008D01*
X54594Y67008D02*
X47320Y67008D01*
X47623Y66705D02*
X54594Y66705D01*
X54594Y66402D02*
X47854Y66402D01*
X47854Y66099D02*
X54594Y66099D01*
X54594Y65795D02*
X47854Y65795D01*
X47854Y65492D02*
X54594Y65492D01*
X54594Y65189D02*
X47599Y65189D01*
X47295Y64885D02*
X54594Y64885D01*
X54594Y64582D02*
X47206Y64582D01*
X47509Y64279D02*
X54594Y64279D01*
X54594Y63975D02*
X47813Y63975D01*
X45709Y64279D02*
X38684Y64279D01*
X38684Y63975D02*
X45405Y63975D01*
X45364Y63672D02*
X38684Y63672D01*
X57184Y63975D02*
X63820Y63975D01*
X64124Y64279D02*
X57184Y64279D01*
X57184Y61852D02*
X73094Y61852D01*
X73094Y61549D02*
X57184Y61549D01*
X57184Y61246D02*
X73094Y61246D01*
X73094Y60942D02*
X57184Y60942D01*
X57184Y60639D02*
X73094Y60639D01*
X73094Y60336D02*
X57184Y60336D01*
X57184Y60032D02*
X73094Y60032D01*
X73094Y59729D02*
X57184Y59729D01*
X57184Y59426D02*
X73094Y59426D01*
X73094Y59123D02*
X57184Y59123D01*
X57184Y58819D02*
X73094Y58819D01*
X73094Y58516D02*
X57184Y58516D01*
X57184Y58213D02*
X73094Y58213D01*
X73094Y57909D02*
X70066Y57909D01*
X70062Y57914D02*
X69030Y57914D01*
X68301Y57185D01*
X68301Y56153D01*
X69030Y55424D01*
X70062Y55424D01*
X70791Y56153D01*
X70791Y57185D01*
X70062Y57914D01*
X70369Y57606D02*
X73094Y57606D01*
X73094Y57303D02*
X70672Y57303D01*
X70791Y56999D02*
X73094Y56999D01*
X73094Y56696D02*
X70791Y56696D01*
X70791Y56393D02*
X73094Y56393D01*
X73094Y56090D02*
X70727Y56090D01*
X70423Y55786D02*
X73094Y55786D01*
X73094Y55483D02*
X70120Y55483D01*
X68972Y55483D02*
X60976Y55483D01*
X60918Y55424D02*
X61647Y56153D01*
X61647Y57185D01*
X60918Y57914D01*
X59886Y57914D01*
X59157Y57185D01*
X59157Y56153D01*
X59886Y55424D01*
X60918Y55424D01*
X61279Y55786D02*
X68669Y55786D01*
X68365Y56090D02*
X61583Y56090D01*
X61647Y56393D02*
X68301Y56393D01*
X68301Y56696D02*
X61647Y56696D01*
X61647Y56999D02*
X68301Y56999D01*
X68420Y57303D02*
X61528Y57303D01*
X61225Y57606D02*
X68723Y57606D01*
X69026Y57909D02*
X60922Y57909D01*
X59882Y57909D02*
X57184Y57909D01*
X57184Y57606D02*
X59579Y57606D01*
X59276Y57303D02*
X57184Y57303D01*
X57184Y56999D02*
X59157Y56999D01*
X59157Y56696D02*
X57184Y56696D01*
X57184Y56393D02*
X59157Y56393D01*
X59221Y56090D02*
X57184Y56090D01*
X57184Y55786D02*
X59525Y55786D01*
X59828Y55483D02*
X57184Y55483D01*
X57184Y55180D02*
X73094Y55180D01*
X73094Y54876D02*
X57184Y54876D01*
X57184Y54573D02*
X73094Y54573D01*
X73094Y54270D02*
X57184Y54270D01*
X57184Y53966D02*
X73094Y53966D01*
X73094Y53663D02*
X57184Y53663D01*
X57184Y53360D02*
X73094Y53360D01*
X73094Y53057D02*
X57184Y53057D01*
X57184Y52753D02*
X73094Y52753D01*
X73094Y52450D02*
X57184Y52450D01*
X57184Y52147D02*
X73094Y52147D01*
X73094Y51843D02*
X57184Y51843D01*
X57184Y51540D02*
X73094Y51540D01*
X73094Y51237D02*
X57184Y51237D01*
X57184Y50933D02*
X73094Y50933D01*
X73094Y50630D02*
X57184Y50630D01*
X57184Y50327D02*
X73094Y50327D01*
X73094Y50024D02*
X71575Y50024D01*
X72100Y49720D02*
X73094Y49720D01*
X73094Y49417D02*
X72448Y49417D01*
X72751Y49114D02*
X73094Y49114D01*
X73094Y48810D02*
X72926Y48810D01*
X69253Y50024D02*
X62685Y50024D01*
X62650Y50044D02*
X61908Y50242D01*
X61140Y50242D01*
X60398Y50044D01*
X59732Y49659D01*
X59189Y49116D01*
X58804Y48450D01*
X58606Y47708D01*
X58606Y46940D01*
X58804Y46198D01*
X59189Y45532D01*
X59732Y44989D01*
X60398Y44604D01*
X61140Y44406D01*
X61908Y44406D01*
X62650Y44604D01*
X63316Y44989D01*
X63859Y45532D01*
X64244Y46198D01*
X64442Y46940D01*
X64442Y47708D01*
X64244Y48450D01*
X63859Y49116D01*
X63316Y49659D01*
X62650Y50044D01*
X63210Y49720D02*
X68728Y49720D01*
X68380Y49417D02*
X63558Y49417D01*
X63861Y49114D02*
X68077Y49114D01*
X67902Y48810D02*
X64036Y48810D01*
X64211Y48507D02*
X67727Y48507D01*
X67628Y48204D02*
X64310Y48204D01*
X64391Y47900D02*
X67547Y47900D01*
X67496Y47597D02*
X64442Y47597D01*
X64442Y47294D02*
X67496Y47294D01*
X67496Y46991D02*
X64442Y46991D01*
X64375Y46687D02*
X67563Y46687D01*
X67645Y46384D02*
X64293Y46384D01*
X64176Y46081D02*
X67762Y46081D01*
X67937Y45777D02*
X64001Y45777D01*
X63801Y45474D02*
X68137Y45474D01*
X68440Y45171D02*
X63498Y45171D01*
X63106Y44867D02*
X68832Y44867D01*
X69438Y44564D02*
X62500Y44564D01*
X60548Y44564D02*
X57184Y44564D01*
X57184Y44867D02*
X59942Y44867D01*
X59550Y45171D02*
X57184Y45171D01*
X57184Y45474D02*
X59247Y45474D01*
X59047Y45777D02*
X57184Y45777D01*
X57184Y46081D02*
X58872Y46081D01*
X58755Y46384D02*
X57184Y46384D01*
X57184Y46687D02*
X58673Y46687D01*
X58606Y46991D02*
X57184Y46991D01*
X57184Y47294D02*
X58606Y47294D01*
X58606Y47597D02*
X57184Y47597D01*
X57184Y47900D02*
X58657Y47900D01*
X58738Y48204D02*
X57184Y48204D01*
X57184Y48507D02*
X58837Y48507D01*
X59012Y48810D02*
X57184Y48810D01*
X57184Y49114D02*
X59187Y49114D01*
X59490Y49417D02*
X57184Y49417D01*
X57184Y49720D02*
X59838Y49720D01*
X60363Y50024D02*
X57184Y50024D01*
X75684Y62762D02*
X82336Y62762D01*
X82194Y63065D02*
X75684Y63065D01*
X79466Y70648D02*
X87372Y70648D01*
X87069Y70951D02*
X79769Y70951D01*
X80073Y71255D02*
X86765Y71255D01*
X86746Y71558D02*
X80092Y71558D01*
X80092Y71861D02*
X86746Y71861D01*
X86746Y72165D02*
X80092Y72165D01*
X79928Y72468D02*
X86910Y72468D01*
X87213Y72771D02*
X79625Y72771D01*
X84404Y77624D02*
X91594Y77624D01*
X91594Y77927D02*
X84684Y77927D01*
X84684Y78231D02*
X91594Y78231D01*
X91594Y78534D02*
X84684Y78534D01*
X84684Y78837D02*
X91594Y78837D01*
X91594Y79140D02*
X84478Y79140D01*
X84174Y79444D02*
X91594Y79444D01*
X91594Y67008D02*
X84150Y67008D01*
X84453Y66705D02*
X91594Y66705D01*
X91594Y66402D02*
X84684Y66402D01*
X84684Y66099D02*
X91594Y66099D01*
X91594Y65795D02*
X84684Y65795D01*
X84684Y65492D02*
X91594Y65492D01*
X91594Y65189D02*
X84429Y65189D01*
X84684Y63065D02*
X91594Y63065D01*
X91594Y62762D02*
X84542Y62762D01*
X84239Y62459D02*
X91594Y62459D01*
X69373Y28186D02*
X61715Y28186D01*
X62018Y27883D02*
X69070Y27883D01*
X68871Y27579D02*
X62217Y27579D01*
X62217Y27276D02*
X68871Y27276D01*
X68871Y26973D02*
X62217Y26973D01*
X62217Y26669D02*
X68871Y26669D01*
X69159Y26366D02*
X61929Y26366D01*
X61626Y26063D02*
X69462Y26063D01*
X13712Y70648D02*
X05806Y70648D01*
X06109Y70951D02*
X13409Y70951D01*
X13105Y71255D02*
X06413Y71255D01*
X06432Y71558D02*
X13086Y71558D01*
X13086Y71861D02*
X06432Y71861D01*
X06432Y72165D02*
X13086Y72165D01*
X13250Y72468D02*
X06268Y72468D01*
X05965Y72771D02*
X13553Y72771D01*
X13557Y86723D02*
X06001Y86723D01*
X06304Y87026D02*
X13254Y87026D01*
X13106Y87330D02*
X06452Y87330D01*
X06452Y87633D02*
X13106Y87633D01*
X13106Y87936D02*
X06452Y87936D01*
X06417Y88239D02*
X13141Y88239D01*
X13445Y88543D02*
X06113Y88543D01*
X05810Y88846D02*
X13748Y88846D01*
X24225Y88846D02*
X32163Y88846D01*
X31860Y88543D02*
X24528Y88543D01*
X24832Y88239D02*
X31556Y88239D01*
X31521Y87936D02*
X24867Y87936D01*
X24867Y87633D02*
X31521Y87633D01*
X31521Y87330D02*
X24867Y87330D01*
X24719Y87026D02*
X31669Y87026D01*
X31972Y86723D02*
X24416Y86723D01*
X38684Y93699D02*
X45364Y93699D01*
X45432Y94002D02*
X38684Y94002D01*
X38684Y94305D02*
X45735Y94305D01*
X46558Y92182D02*
X46660Y92182D01*
X54594Y97642D02*
X38684Y97642D01*
X38684Y97945D02*
X54594Y97945D01*
X54594Y98248D02*
X38684Y98248D01*
X38684Y98552D02*
X54594Y98552D01*
M02*
