G75*
%MOMM*%
%OFA0B0*%
%FSLAX33Y33*%
%IPPOS*%
%LPD*%
%AMOC8*
5,1,8,0,0,1.08239X$1,22.5*
%
%ADD10C,1.321*%
%ADD11OC8,1.600*%
%ADD12OC8,1.321*%
%ADD13C,1.981*%
%ADD14OC8,1.524*%
%ADD15C,1.524*%
%ADD16C,1.321*%
%ADD17C,0.305*%
%ADD18R,1.006X1.006*%
%ADD19C,0.500*%
%ADD20R,1.016X1.016*%
%ADD21C,0.254*%
D10*
X19607Y12537D02*
X20927Y12537D01*
X20927Y15077D02*
X19607Y15077D01*
X19607Y17617D02*
X20927Y17617D01*
X20927Y20157D02*
X19607Y20157D01*
X19607Y22697D02*
X20927Y22697D01*
X20927Y25237D02*
X19607Y25237D01*
X19607Y27777D02*
X20927Y27777D01*
X27227Y27777D02*
X28547Y27777D01*
X28547Y25237D02*
X27227Y25237D01*
X27227Y22697D02*
X28547Y22697D01*
X28547Y20157D02*
X27227Y20157D01*
X27227Y17617D02*
X28547Y17617D01*
X28547Y15077D02*
X27227Y15077D01*
X27227Y12537D02*
X28547Y12537D01*
D11*
X41997Y14597D03*
X47077Y14597D03*
X57917Y19237D03*
X57917Y24317D03*
X65437Y25397D03*
X70517Y25397D03*
X75417Y25377D03*
X75417Y20297D03*
X70577Y20277D03*
X65497Y20277D03*
X65537Y15357D03*
X70617Y15357D03*
X75477Y15377D03*
X75477Y10297D03*
X70747Y10327D03*
X65667Y10327D03*
X65397Y31937D03*
X70477Y31937D03*
X75457Y32017D03*
X75457Y37097D03*
X70427Y37087D03*
X65347Y37087D03*
X65297Y42057D03*
X70377Y42057D03*
X75437Y42097D03*
X75437Y47177D03*
X70317Y47117D03*
X65237Y47117D03*
X45607Y47387D03*
X40527Y47387D03*
X41287Y37777D03*
X46367Y37777D03*
X13437Y44167D03*
X13437Y49247D03*
D12*
X21831Y44157D03*
X15847Y27767D03*
X15847Y20147D03*
X45283Y21057D03*
X54933Y28057D03*
X45083Y42707D03*
X54363Y49507D03*
X80397Y47137D03*
X80397Y42117D03*
X80397Y37097D03*
X80397Y32077D03*
X88017Y32077D03*
X88017Y37097D03*
X88017Y42117D03*
X88017Y47137D03*
X88017Y25357D03*
X88017Y20337D03*
X88087Y15367D03*
X88037Y10237D03*
X80417Y10237D03*
X80467Y15367D03*
X80397Y20337D03*
X80397Y25357D03*
D13*
X92166Y25276D02*
X94148Y25276D01*
X94148Y20246D02*
X92166Y20246D01*
X92166Y15268D02*
X94148Y15268D01*
X94148Y10239D02*
X92166Y10239D01*
X92166Y32069D02*
X94148Y32069D01*
X94148Y37098D02*
X92166Y37098D01*
X92166Y42076D02*
X94148Y42076D01*
X94148Y47106D02*
X92166Y47106D01*
D14*
X06477Y29067D03*
X06477Y26527D03*
X06477Y23987D03*
X03937Y23987D03*
X03937Y26527D03*
X03937Y29067D03*
X03937Y21447D03*
X06477Y21447D03*
D15*
X18887Y50115D02*
X18887Y51639D01*
X21427Y51639D02*
X21427Y50115D01*
X23967Y50115D02*
X23967Y51639D01*
X42837Y51739D02*
X42837Y50215D01*
X45377Y50215D02*
X45377Y51739D01*
X47917Y51739D02*
X47917Y50215D01*
D16*
X52331Y49507D03*
X43051Y42707D03*
X52901Y28057D03*
X43251Y21057D03*
X23863Y44157D03*
D17*
X02329Y69086D02*
X02329Y01829D01*
X43657Y01829D01*
X43657Y20016D01*
X43473Y19940D01*
X43029Y19940D01*
X42618Y20110D01*
X42304Y20424D01*
X42133Y20835D01*
X42133Y21280D01*
X42304Y21690D01*
X42618Y22005D01*
X43029Y22175D01*
X43473Y22175D01*
X43657Y22099D01*
X43657Y41749D01*
X43273Y41590D01*
X42829Y41590D01*
X42418Y41760D01*
X42104Y42074D01*
X41933Y42485D01*
X41933Y42930D01*
X42104Y43340D01*
X42418Y43655D01*
X42829Y43825D01*
X43273Y43825D01*
X43657Y43666D01*
X43657Y49311D01*
X43528Y49182D01*
X43080Y48996D01*
X42594Y48996D01*
X42146Y49182D01*
X41803Y49525D01*
X41618Y49973D01*
X41618Y51982D01*
X41803Y52430D01*
X42146Y52773D01*
X42594Y52958D01*
X43080Y52958D01*
X43528Y52773D01*
X43657Y52643D01*
X43657Y61612D01*
X43583Y61632D01*
X42523Y62244D01*
X41658Y63109D01*
X41046Y64169D01*
X40729Y65351D01*
X40729Y66575D01*
X41046Y67757D01*
X41658Y68817D01*
X41926Y69086D01*
X24778Y69086D01*
X25146Y68717D01*
X25758Y67657D01*
X26075Y66475D01*
X26075Y65251D01*
X25758Y64069D01*
X25146Y63009D01*
X24281Y62144D01*
X23221Y61532D01*
X22039Y61215D01*
X20815Y61215D01*
X19633Y61532D01*
X18573Y62144D01*
X17708Y63009D01*
X17096Y64069D01*
X16779Y65251D01*
X16779Y66475D01*
X17096Y67657D01*
X17708Y68717D01*
X18076Y69086D01*
X02329Y69086D01*
X02329Y69003D02*
X17993Y69003D01*
X17697Y68700D02*
X05905Y68700D01*
X05621Y68776D02*
X04893Y68776D01*
X04188Y68587D01*
X03557Y68222D01*
X03042Y67707D01*
X02677Y67076D01*
X02489Y66372D01*
X02489Y65643D01*
X02677Y64939D01*
X03042Y64307D01*
X03557Y63792D01*
X04188Y63427D01*
X04893Y63239D01*
X05621Y63239D01*
X06326Y63427D01*
X06957Y63792D01*
X07472Y64307D01*
X07837Y64939D01*
X08025Y65643D01*
X08025Y66372D01*
X07837Y67076D01*
X07472Y67707D01*
X06957Y68222D01*
X06326Y68587D01*
X05621Y68776D01*
X04609Y68700D02*
X02329Y68700D01*
X02329Y68396D02*
X03858Y68396D01*
X03428Y68093D02*
X02329Y68093D01*
X02329Y67790D02*
X03124Y67790D01*
X02914Y67487D02*
X02329Y67487D01*
X02329Y67183D02*
X02739Y67183D01*
X02625Y66880D02*
X02329Y66880D01*
X02329Y66577D02*
X02544Y66577D01*
X02489Y66273D02*
X02329Y66273D01*
X02329Y65970D02*
X02489Y65970D01*
X02489Y65667D02*
X02329Y65667D01*
X02329Y65363D02*
X02563Y65363D01*
X02645Y65060D02*
X02329Y65060D01*
X02329Y64757D02*
X02782Y64757D01*
X02957Y64453D02*
X02329Y64453D01*
X02329Y64150D02*
X03199Y64150D01*
X03502Y63847D02*
X02329Y63847D01*
X02329Y63544D02*
X03987Y63544D01*
X04887Y63240D02*
X02329Y63240D01*
X02329Y62937D02*
X17780Y62937D01*
X17574Y63240D02*
X05627Y63240D01*
X06527Y63544D02*
X17399Y63544D01*
X17224Y63847D02*
X07012Y63847D01*
X07315Y64150D02*
X17074Y64150D01*
X16993Y64453D02*
X07557Y64453D01*
X07732Y64757D02*
X16911Y64757D01*
X16830Y65060D02*
X07869Y65060D01*
X07951Y65363D02*
X16779Y65363D01*
X16779Y65667D02*
X08025Y65667D01*
X08025Y65970D02*
X16779Y65970D01*
X16779Y66273D02*
X08025Y66273D01*
X07970Y66577D02*
X16806Y66577D01*
X16887Y66880D02*
X07889Y66880D01*
X07775Y67183D02*
X16969Y67183D01*
X17050Y67487D02*
X07600Y67487D01*
X07390Y67790D02*
X17172Y67790D01*
X17347Y68093D02*
X07086Y68093D01*
X06656Y68396D02*
X17522Y68396D01*
X18083Y62634D02*
X02329Y62634D01*
X02329Y62330D02*
X18386Y62330D01*
X18775Y62027D02*
X02329Y62027D01*
X02329Y61724D02*
X19300Y61724D01*
X20048Y61420D02*
X02329Y61420D01*
X02329Y61117D02*
X43657Y61117D01*
X43657Y60814D02*
X02329Y60814D01*
X02329Y60511D02*
X43657Y60511D01*
X43657Y60207D02*
X02329Y60207D01*
X02329Y59904D02*
X43657Y59904D01*
X43657Y59601D02*
X02329Y59601D01*
X02329Y59297D02*
X43657Y59297D01*
X43657Y58994D02*
X02329Y58994D01*
X02329Y58691D02*
X43657Y58691D01*
X43657Y58387D02*
X02329Y58387D01*
X02329Y58084D02*
X43657Y58084D01*
X43657Y57781D02*
X02329Y57781D01*
X02329Y57478D02*
X43657Y57478D01*
X43657Y57174D02*
X02329Y57174D01*
X02329Y56871D02*
X43657Y56871D01*
X43657Y56568D02*
X02329Y56568D01*
X02329Y56264D02*
X43657Y56264D01*
X43657Y55961D02*
X02329Y55961D01*
X02329Y55658D02*
X43657Y55658D01*
X43657Y55354D02*
X02329Y55354D01*
X02329Y55051D02*
X43657Y55051D01*
X43657Y54748D02*
X02329Y54748D01*
X02329Y54445D02*
X43657Y54445D01*
X43657Y54141D02*
X02329Y54141D01*
X02329Y53838D02*
X43657Y53838D01*
X43657Y53535D02*
X02329Y53535D01*
X02329Y53231D02*
X43657Y53231D01*
X43657Y52928D02*
X43153Y52928D01*
X42521Y52928D02*
X02329Y52928D01*
X02329Y52625D02*
X18148Y52625D01*
X18196Y52673D02*
X17853Y52330D01*
X17668Y51882D01*
X17668Y49873D01*
X17853Y49425D01*
X18196Y49082D01*
X18644Y48896D01*
X19130Y48896D01*
X19578Y49082D01*
X19921Y49425D01*
X20106Y49873D01*
X20106Y51882D01*
X19921Y52330D01*
X19578Y52673D01*
X19130Y52858D01*
X18644Y52858D01*
X18196Y52673D01*
X17850Y52321D02*
X02329Y52321D01*
X02329Y52018D02*
X17724Y52018D01*
X17668Y51715D02*
X02329Y51715D01*
X02329Y51412D02*
X17668Y51412D01*
X17668Y51108D02*
X02329Y51108D01*
X02329Y50805D02*
X17668Y50805D01*
X17668Y50502D02*
X13961Y50502D01*
X13958Y50504D02*
X12916Y50504D01*
X12180Y49768D01*
X12180Y48726D01*
X12916Y47990D01*
X13958Y47990D01*
X14694Y48726D01*
X14694Y49768D01*
X13958Y50504D01*
X14264Y50198D02*
X17668Y50198D01*
X17668Y49895D02*
X14567Y49895D01*
X14694Y49592D02*
X17784Y49592D01*
X17989Y49288D02*
X14694Y49288D01*
X14694Y48985D02*
X18429Y48985D01*
X19345Y48985D02*
X23509Y48985D01*
X23724Y48896D02*
X24210Y48896D01*
X24658Y49082D01*
X25001Y49425D01*
X25186Y49873D01*
X25186Y51882D01*
X25001Y52330D01*
X24658Y52673D01*
X24210Y52858D01*
X23724Y52858D01*
X23276Y52673D01*
X22933Y52330D01*
X22748Y51882D01*
X22748Y49873D01*
X22933Y49425D01*
X23276Y49082D01*
X23724Y48896D01*
X24425Y48985D02*
X43657Y48985D01*
X43657Y48682D02*
X14650Y48682D01*
X14346Y48379D02*
X39740Y48379D01*
X40006Y48644D02*
X39270Y47908D01*
X39270Y46866D01*
X40006Y46130D01*
X41048Y46130D01*
X41784Y46866D01*
X41784Y47908D01*
X41048Y48644D01*
X40006Y48644D01*
X39437Y48075D02*
X14043Y48075D01*
X12831Y48075D02*
X02329Y48075D01*
X02329Y47772D02*
X39270Y47772D01*
X39270Y47469D02*
X02329Y47469D01*
X02329Y47165D02*
X39270Y47165D01*
X39274Y46862D02*
X02329Y46862D01*
X02329Y46559D02*
X39577Y46559D01*
X39881Y46255D02*
X02329Y46255D01*
X02329Y45952D02*
X43657Y45952D01*
X43657Y45649D02*
X02329Y45649D01*
X02329Y45346D02*
X43657Y45346D01*
X43657Y45042D02*
X24558Y45042D01*
X24496Y45105D02*
X24085Y45275D01*
X23641Y45275D01*
X23230Y45105D01*
X22916Y44790D01*
X22745Y44380D01*
X22745Y43935D01*
X22916Y43524D01*
X23230Y43210D01*
X23641Y43040D01*
X24085Y43040D01*
X24496Y43210D01*
X24810Y43524D01*
X24981Y43935D01*
X24981Y44380D01*
X24810Y44790D01*
X24496Y45105D01*
X24832Y44739D02*
X43657Y44739D01*
X43657Y44436D02*
X24957Y44436D01*
X24981Y44132D02*
X43657Y44132D01*
X43657Y43829D02*
X24937Y43829D01*
X24811Y43526D02*
X42289Y43526D01*
X42055Y43223D02*
X24509Y43223D01*
X23217Y43223D02*
X02329Y43223D01*
X02329Y43526D02*
X22915Y43526D01*
X22789Y43829D02*
X02329Y43829D01*
X02329Y44132D02*
X22745Y44132D01*
X22769Y44436D02*
X02329Y44436D01*
X02329Y44739D02*
X22894Y44739D01*
X23168Y45042D02*
X02329Y45042D01*
X02329Y42919D02*
X41933Y42919D01*
X41933Y42616D02*
X02329Y42616D01*
X02329Y42313D02*
X42005Y42313D01*
X42168Y42009D02*
X02329Y42009D01*
X02329Y41706D02*
X42548Y41706D01*
X43554Y41706D02*
X43657Y41706D01*
X43657Y41403D02*
X02329Y41403D01*
X02329Y41099D02*
X43657Y41099D01*
X43657Y40796D02*
X02329Y40796D01*
X02329Y40493D02*
X43657Y40493D01*
X43657Y40190D02*
X02329Y40190D01*
X02329Y39886D02*
X43657Y39886D01*
X43657Y39583D02*
X02329Y39583D01*
X02329Y39280D02*
X43657Y39280D01*
X43657Y38976D02*
X41866Y38976D01*
X41808Y39034D02*
X40766Y39034D01*
X40030Y38298D01*
X40030Y37256D01*
X40766Y36520D01*
X41808Y36520D01*
X42544Y37256D01*
X42544Y38298D01*
X41808Y39034D01*
X42169Y38673D02*
X43657Y38673D01*
X43657Y38370D02*
X42473Y38370D01*
X42544Y38066D02*
X43657Y38066D01*
X43657Y37763D02*
X42544Y37763D01*
X42544Y37460D02*
X43657Y37460D01*
X43657Y37157D02*
X42444Y37157D01*
X42141Y36853D02*
X43657Y36853D01*
X43657Y36550D02*
X41838Y36550D01*
X40736Y36550D02*
X02329Y36550D01*
X02329Y36853D02*
X40433Y36853D01*
X40130Y37157D02*
X02329Y37157D01*
X02329Y37460D02*
X40030Y37460D01*
X40030Y37763D02*
X02329Y37763D01*
X02329Y38066D02*
X40030Y38066D01*
X40101Y38370D02*
X02329Y38370D01*
X02329Y38673D02*
X40405Y38673D01*
X40708Y38976D02*
X02329Y38976D01*
X02329Y36247D02*
X43657Y36247D01*
X43657Y35943D02*
X02329Y35943D01*
X02329Y35640D02*
X43657Y35640D01*
X43657Y35337D02*
X02329Y35337D01*
X02329Y35033D02*
X43657Y35033D01*
X43657Y34730D02*
X02329Y34730D01*
X02329Y34427D02*
X43657Y34427D01*
X43657Y34124D02*
X02329Y34124D01*
X02329Y33820D02*
X43657Y33820D01*
X43657Y33517D02*
X02329Y33517D01*
X02329Y33214D02*
X43657Y33214D01*
X43657Y32910D02*
X02329Y32910D01*
X02329Y32607D02*
X43657Y32607D01*
X43657Y32304D02*
X02329Y32304D01*
X02329Y32000D02*
X43657Y32000D01*
X43657Y31697D02*
X02329Y31697D01*
X02329Y31394D02*
X43657Y31394D01*
X43657Y31090D02*
X02329Y31090D01*
X02329Y30787D02*
X43657Y30787D01*
X43657Y30484D02*
X02329Y30484D01*
X02329Y30181D02*
X03326Y30181D01*
X03432Y30286D02*
X02718Y29572D01*
X02718Y28562D01*
X03432Y27848D01*
X04442Y27848D01*
X05156Y28562D01*
X05156Y29572D01*
X04442Y30286D01*
X03432Y30286D01*
X03023Y29877D02*
X02329Y29877D01*
X02329Y29574D02*
X02720Y29574D01*
X02718Y29271D02*
X02329Y29271D01*
X02329Y28967D02*
X02718Y28967D01*
X02718Y28664D02*
X02329Y28664D01*
X02329Y28361D02*
X02919Y28361D01*
X03222Y28057D02*
X02329Y28057D01*
X02329Y27754D02*
X14729Y27754D01*
X14729Y27451D02*
X07278Y27451D01*
X06982Y27746D02*
X07662Y27067D01*
X08537Y27067D01*
X09055Y26852D01*
X09055Y26852D01*
X09452Y26456D01*
X09452Y26456D01*
X09667Y25938D01*
X09667Y24957D01*
X09672Y24901D01*
X09716Y24796D01*
X09796Y24716D01*
X09900Y24672D01*
X09957Y24667D01*
X18633Y24667D01*
X18489Y25015D01*
X18489Y25460D01*
X18659Y25870D01*
X18974Y26185D01*
X19384Y26355D01*
X21150Y26355D01*
X21560Y26185D01*
X21875Y25870D01*
X22045Y25460D01*
X22045Y25015D01*
X21901Y24667D01*
X22317Y24667D01*
X22799Y24467D01*
X22799Y24467D01*
X23167Y24099D01*
X23167Y24099D01*
X23367Y23618D01*
X23367Y23357D01*
X23368Y23347D01*
X23375Y23329D01*
X23389Y23315D01*
X23407Y23308D01*
X23417Y23307D01*
X26269Y23307D01*
X26279Y23330D01*
X26594Y23645D01*
X27004Y23815D01*
X28770Y23815D01*
X29180Y23645D01*
X29495Y23330D01*
X29665Y22920D01*
X29665Y22475D01*
X29495Y22064D01*
X29180Y21750D01*
X28770Y21580D01*
X27004Y21580D01*
X26594Y21750D01*
X26279Y22064D01*
X26269Y22088D01*
X23164Y22088D01*
X22698Y22281D01*
X22698Y22281D01*
X22341Y22638D01*
X22341Y22638D01*
X22147Y23105D01*
X22147Y23357D01*
X22146Y23375D01*
X22132Y23407D01*
X22107Y23432D01*
X22075Y23446D01*
X22057Y23448D01*
X09657Y23448D01*
X09102Y23677D01*
X09102Y23677D01*
X08677Y24102D01*
X08447Y24657D01*
X08447Y24657D01*
X08447Y25078D01*
X08447Y25657D01*
X08444Y25694D01*
X08415Y25763D01*
X08363Y25816D01*
X08294Y25844D01*
X08257Y25848D01*
X07522Y25848D01*
X06982Y25308D01*
X05972Y25308D01*
X05258Y26022D01*
X05258Y27032D01*
X05972Y27746D01*
X06982Y27746D01*
X06982Y27848D02*
X07696Y28562D01*
X07696Y29572D01*
X06982Y30286D01*
X05972Y30286D01*
X05258Y29572D01*
X05258Y28562D01*
X05972Y27848D01*
X06982Y27848D01*
X07192Y28057D02*
X14729Y28057D01*
X14729Y28230D02*
X14729Y27304D01*
X15384Y26650D01*
X16310Y26650D01*
X16965Y27304D01*
X16965Y28230D01*
X16310Y28885D01*
X15384Y28885D01*
X14729Y28230D01*
X14860Y28361D02*
X07495Y28361D01*
X07696Y28664D02*
X15163Y28664D01*
X16531Y28664D02*
X18913Y28664D01*
X18974Y28725D02*
X18659Y28410D01*
X18489Y28000D01*
X18489Y27555D01*
X18659Y27144D01*
X18974Y26830D01*
X19384Y26660D01*
X21150Y26660D01*
X21560Y26830D01*
X21875Y27144D01*
X22045Y27555D01*
X22045Y28000D01*
X21875Y28410D01*
X21560Y28725D01*
X21150Y28895D01*
X19384Y28895D01*
X18974Y28725D01*
X18639Y28361D02*
X16834Y28361D01*
X16965Y28057D02*
X18513Y28057D01*
X18489Y27754D02*
X16965Y27754D01*
X16965Y27451D02*
X18532Y27451D01*
X18658Y27148D02*
X16808Y27148D01*
X16505Y26844D02*
X18959Y26844D01*
X19102Y26238D02*
X09542Y26238D01*
X09667Y25934D02*
X18723Y25934D01*
X18560Y25631D02*
X09667Y25631D01*
X09667Y25328D02*
X18489Y25328D01*
X18489Y25024D02*
X09667Y25024D01*
X09057Y24957D02*
X09059Y24898D01*
X09065Y24840D01*
X09074Y24781D01*
X09088Y24724D01*
X09105Y24668D01*
X09126Y24613D01*
X09150Y24559D01*
X09178Y24507D01*
X09209Y24457D01*
X09243Y24409D01*
X09280Y24364D01*
X09321Y24321D01*
X09364Y24280D01*
X09409Y24243D01*
X09457Y24209D01*
X09507Y24178D01*
X09559Y24150D01*
X09613Y24126D01*
X09668Y24105D01*
X09724Y24088D01*
X09781Y24074D01*
X09840Y24065D01*
X09898Y24059D01*
X09957Y24057D01*
X22057Y24057D01*
X21923Y24721D02*
X26231Y24721D01*
X26279Y24604D02*
X26109Y25015D01*
X26109Y25460D01*
X26279Y25870D01*
X26594Y26185D01*
X27004Y26355D01*
X28770Y26355D01*
X29180Y26185D01*
X29495Y25870D01*
X29665Y25460D01*
X29665Y25015D01*
X29495Y24604D01*
X29180Y24290D01*
X28770Y24120D01*
X27004Y24120D01*
X26594Y24290D01*
X26279Y24604D01*
X26465Y24418D02*
X22848Y24418D01*
X23152Y24115D02*
X43657Y24115D01*
X43657Y24418D02*
X29309Y24418D01*
X29543Y24721D02*
X43657Y24721D01*
X43657Y25024D02*
X29665Y25024D01*
X29665Y25328D02*
X43657Y25328D01*
X43657Y25631D02*
X29594Y25631D01*
X29431Y25934D02*
X43657Y25934D01*
X43657Y26238D02*
X29052Y26238D01*
X28357Y28247D02*
X28357Y38857D01*
X28355Y38907D01*
X28350Y38957D01*
X28341Y39006D01*
X28329Y39054D01*
X28313Y39102D01*
X28294Y39148D01*
X28271Y39192D01*
X28246Y39235D01*
X28217Y39276D01*
X28186Y39315D01*
X28152Y39352D01*
X28115Y39386D01*
X28076Y39417D01*
X28035Y39446D01*
X27992Y39471D01*
X27948Y39494D01*
X27902Y39513D01*
X27854Y39529D01*
X27806Y39541D01*
X27757Y39550D01*
X27707Y39555D01*
X27657Y39557D01*
X22557Y39557D01*
X22505Y39559D01*
X22454Y39564D01*
X22403Y39574D01*
X22352Y39586D01*
X22303Y39603D01*
X22255Y39623D01*
X22209Y39646D01*
X22164Y39672D01*
X22122Y39702D01*
X22082Y39734D01*
X22044Y39770D01*
X22008Y39808D01*
X21976Y39848D01*
X21946Y39890D01*
X21920Y39935D01*
X21897Y39981D01*
X21877Y40029D01*
X21860Y40078D01*
X21848Y40129D01*
X21838Y40180D01*
X21833Y40231D01*
X21831Y40283D01*
X21831Y44157D01*
X21831Y50473D01*
X21829Y50510D01*
X21824Y50547D01*
X21816Y50584D01*
X21804Y50619D01*
X21789Y50653D01*
X21770Y50686D01*
X21749Y50716D01*
X21726Y50745D01*
X21699Y50772D01*
X21670Y50795D01*
X21640Y50816D01*
X21607Y50835D01*
X21573Y50850D01*
X21538Y50862D01*
X21501Y50870D01*
X21464Y50875D01*
X21427Y50877D01*
X20106Y50805D02*
X22748Y50805D01*
X22748Y50502D02*
X20106Y50502D01*
X20106Y50198D02*
X22748Y50198D01*
X22748Y49895D02*
X20106Y49895D01*
X19990Y49592D02*
X22864Y49592D01*
X23069Y49288D02*
X19785Y49288D01*
X20106Y51108D02*
X22748Y51108D01*
X22748Y51412D02*
X20106Y51412D01*
X20106Y51715D02*
X22748Y51715D01*
X22804Y52018D02*
X20050Y52018D01*
X19924Y52321D02*
X22930Y52321D01*
X23228Y52625D02*
X19626Y52625D01*
X24706Y52625D02*
X41998Y52625D01*
X41759Y52321D02*
X25004Y52321D01*
X25130Y52018D02*
X41633Y52018D01*
X41618Y51715D02*
X25186Y51715D01*
X25186Y51412D02*
X41618Y51412D01*
X41618Y51108D02*
X25186Y51108D01*
X25186Y50805D02*
X41618Y50805D01*
X41618Y50502D02*
X25186Y50502D01*
X25186Y50198D02*
X41618Y50198D01*
X41650Y49895D02*
X25186Y49895D01*
X25070Y49592D02*
X41776Y49592D01*
X42039Y49288D02*
X24865Y49288D01*
X21821Y44167D02*
X13437Y44167D01*
X12528Y48379D02*
X02329Y48379D01*
X02329Y48682D02*
X12224Y48682D01*
X12180Y48985D02*
X02329Y48985D01*
X02329Y49288D02*
X12180Y49288D01*
X12180Y49592D02*
X02329Y49592D01*
X02329Y49895D02*
X12307Y49895D01*
X12610Y50198D02*
X02329Y50198D01*
X02329Y50502D02*
X12913Y50502D01*
X21821Y44167D02*
X21826Y44166D01*
X21830Y44162D01*
X21831Y44157D01*
X41173Y46255D02*
X43657Y46255D01*
X43657Y46559D02*
X41477Y46559D01*
X41780Y46862D02*
X43657Y46862D01*
X43657Y47165D02*
X41784Y47165D01*
X41784Y47469D02*
X43657Y47469D01*
X43657Y47772D02*
X41784Y47772D01*
X41617Y48075D02*
X43657Y48075D01*
X43657Y48379D02*
X41314Y48379D01*
X43635Y49288D02*
X43657Y49288D01*
X44657Y49288D02*
X47119Y49288D01*
X47226Y49182D02*
X47674Y48996D01*
X48160Y48996D01*
X48608Y49182D01*
X48951Y49525D01*
X49136Y49973D01*
X49136Y51982D01*
X48951Y52430D01*
X48608Y52773D01*
X48160Y52958D01*
X47674Y52958D01*
X47226Y52773D01*
X46883Y52430D01*
X46698Y51982D01*
X46698Y49973D01*
X46883Y49525D01*
X47226Y49182D01*
X46856Y49592D02*
X44657Y49592D01*
X44657Y49895D02*
X46730Y49895D01*
X46698Y50198D02*
X44657Y50198D01*
X44657Y50502D02*
X46698Y50502D01*
X46698Y50805D02*
X44657Y50805D01*
X44657Y51108D02*
X46698Y51108D01*
X46698Y51412D02*
X44657Y51412D01*
X44657Y51715D02*
X46698Y51715D01*
X46713Y52018D02*
X44657Y52018D01*
X44657Y52321D02*
X46839Y52321D01*
X47078Y52625D02*
X44657Y52625D01*
X44657Y52928D02*
X47601Y52928D01*
X48233Y52928D02*
X99585Y52928D01*
X99585Y52625D02*
X48756Y52625D01*
X48995Y52321D02*
X99585Y52321D01*
X99585Y52018D02*
X49121Y52018D01*
X49136Y51715D02*
X99585Y51715D01*
X99585Y51412D02*
X49136Y51412D01*
X49136Y51108D02*
X99585Y51108D01*
X99585Y50805D02*
X49136Y50805D01*
X49136Y50502D02*
X51812Y50502D01*
X51698Y50455D02*
X52109Y50625D01*
X52553Y50625D01*
X52964Y50455D01*
X53278Y50140D01*
X53449Y49730D01*
X53449Y49285D01*
X53278Y48874D01*
X52964Y48560D01*
X52553Y48390D01*
X52109Y48390D01*
X51698Y48560D01*
X51384Y48874D01*
X51213Y49285D01*
X51213Y49730D01*
X51384Y50140D01*
X51698Y50455D01*
X51442Y50198D02*
X49136Y50198D01*
X49104Y49895D02*
X51282Y49895D01*
X51213Y49592D02*
X48978Y49592D01*
X48715Y49288D02*
X51213Y49288D01*
X51338Y48985D02*
X44657Y48985D01*
X44657Y48682D02*
X51576Y48682D01*
X53086Y48682D02*
X99585Y48682D01*
X99585Y48985D02*
X53324Y48985D01*
X53449Y49288D02*
X99585Y49288D01*
X99585Y49592D02*
X53449Y49592D01*
X53380Y49895D02*
X99585Y49895D01*
X99585Y50198D02*
X53220Y50198D01*
X52850Y50502D02*
X99585Y50502D01*
X99585Y48379D02*
X94858Y48379D01*
X94968Y48333D02*
X94436Y48553D01*
X91878Y48553D01*
X91346Y48333D01*
X90939Y47926D01*
X90905Y47844D01*
X88890Y47844D01*
X88480Y48255D01*
X87554Y48255D01*
X86899Y47600D01*
X86899Y46674D01*
X87554Y46020D01*
X88480Y46020D01*
X88890Y46430D01*
X90879Y46430D01*
X90939Y46285D01*
X91346Y45878D01*
X91878Y45658D01*
X94436Y45658D01*
X94968Y45878D01*
X95375Y46285D01*
X95595Y46818D01*
X95595Y47394D01*
X95375Y47926D01*
X94968Y48333D01*
X95225Y48075D02*
X99585Y48075D01*
X99585Y47772D02*
X95439Y47772D01*
X95564Y47469D02*
X99585Y47469D01*
X99585Y47165D02*
X95595Y47165D01*
X95595Y46862D02*
X99585Y46862D01*
X99585Y46559D02*
X95488Y46559D01*
X95345Y46255D02*
X99585Y46255D01*
X99585Y45952D02*
X95042Y45952D01*
X94436Y43524D02*
X91878Y43524D01*
X91346Y43304D01*
X90939Y42897D01*
X90909Y42824D01*
X88890Y42824D01*
X88480Y43235D01*
X87554Y43235D01*
X86899Y42580D01*
X86899Y41654D01*
X87554Y41000D01*
X88480Y41000D01*
X88890Y41410D01*
X90875Y41410D01*
X90939Y41256D01*
X91346Y40849D01*
X91878Y40629D01*
X94436Y40629D01*
X94968Y40849D01*
X95375Y41256D01*
X95595Y41788D01*
X95595Y42364D01*
X95375Y42897D01*
X94968Y43304D01*
X94436Y43524D01*
X95049Y43223D02*
X99585Y43223D01*
X99585Y43526D02*
X44657Y43526D01*
X44657Y43829D02*
X99585Y43829D01*
X99585Y44132D02*
X44657Y44132D01*
X44657Y44436D02*
X99585Y44436D01*
X99585Y44739D02*
X44657Y44739D01*
X44657Y45042D02*
X99585Y45042D01*
X99585Y45346D02*
X44657Y45346D01*
X44657Y45649D02*
X99585Y45649D01*
X99585Y42919D02*
X95352Y42919D01*
X95491Y42616D02*
X99585Y42616D01*
X99585Y42313D02*
X95595Y42313D01*
X95595Y42009D02*
X99585Y42009D01*
X99585Y41706D02*
X95561Y41706D01*
X95436Y41403D02*
X99585Y41403D01*
X99585Y41099D02*
X95218Y41099D01*
X94840Y40796D02*
X99585Y40796D01*
X99585Y40493D02*
X44657Y40493D01*
X44657Y40796D02*
X91474Y40796D01*
X91096Y41099D02*
X88580Y41099D01*
X88883Y41403D02*
X90878Y41403D01*
X90962Y42919D02*
X88796Y42919D01*
X88492Y43223D02*
X91265Y43223D01*
X91272Y45952D02*
X75990Y45952D01*
X75958Y45920D02*
X76468Y46430D01*
X79524Y46430D01*
X79934Y46020D01*
X80860Y46020D01*
X81515Y46674D01*
X81515Y47600D01*
X80860Y48255D01*
X79934Y48255D01*
X79524Y47844D01*
X76548Y47844D01*
X75958Y48434D01*
X74916Y48434D01*
X74366Y47884D01*
X71328Y47884D01*
X70838Y48374D01*
X69796Y48374D01*
X69060Y47638D01*
X69060Y46596D01*
X69796Y45860D01*
X70838Y45860D01*
X71448Y46470D01*
X74366Y46470D01*
X74916Y45920D01*
X75958Y45920D01*
X76293Y46255D02*
X79698Y46255D01*
X81096Y46255D02*
X87318Y46255D01*
X87015Y46559D02*
X81399Y46559D01*
X81515Y46862D02*
X86899Y46862D01*
X86899Y47165D02*
X81515Y47165D01*
X81515Y47469D02*
X86899Y47469D01*
X87071Y47772D02*
X81343Y47772D01*
X81039Y48075D02*
X87375Y48075D01*
X88659Y48075D02*
X91089Y48075D01*
X91456Y48379D02*
X76014Y48379D01*
X76317Y48075D02*
X79755Y48075D01*
X74860Y48379D02*
X44657Y48379D01*
X44657Y48075D02*
X69497Y48075D01*
X69194Y47772D02*
X44657Y47772D01*
X44657Y47469D02*
X69060Y47469D01*
X69060Y47165D02*
X44657Y47165D01*
X44657Y46862D02*
X69060Y46862D01*
X69097Y46559D02*
X44657Y46559D01*
X44657Y46255D02*
X69401Y46255D01*
X69704Y45952D02*
X44657Y45952D01*
X44657Y43223D02*
X69764Y43223D01*
X69856Y43314D02*
X69120Y42578D01*
X69120Y41536D01*
X69856Y40800D01*
X70898Y40800D01*
X71448Y41350D01*
X74406Y41350D01*
X74916Y40840D01*
X75958Y40840D01*
X76508Y41390D01*
X79544Y41390D01*
X79934Y41000D01*
X80860Y41000D01*
X81515Y41654D01*
X81515Y42580D01*
X80860Y43235D01*
X79934Y43235D01*
X79504Y42804D01*
X76508Y42804D01*
X75958Y43354D01*
X74916Y43354D01*
X74326Y42764D01*
X71448Y42764D01*
X70898Y43314D01*
X69856Y43314D01*
X69461Y42919D02*
X44657Y42919D01*
X44657Y42616D02*
X69158Y42616D01*
X69120Y42313D02*
X44657Y42313D01*
X44657Y42009D02*
X69120Y42009D01*
X69120Y41706D02*
X44657Y41706D01*
X44657Y41403D02*
X69253Y41403D01*
X69557Y41099D02*
X44657Y41099D01*
X44657Y40190D02*
X99585Y40190D01*
X99585Y39886D02*
X44657Y39886D01*
X44657Y39583D02*
X99585Y39583D01*
X99585Y39280D02*
X44657Y39280D01*
X44657Y38976D02*
X99585Y38976D01*
X99585Y38673D02*
X44657Y38673D01*
X44657Y38370D02*
X91453Y38370D01*
X91346Y38325D02*
X90939Y37918D01*
X90892Y37804D01*
X88890Y37804D01*
X88480Y38215D01*
X87554Y38215D01*
X86899Y37560D01*
X86899Y36634D01*
X87554Y35980D01*
X88480Y35980D01*
X88890Y36390D01*
X90893Y36390D01*
X90939Y36278D01*
X91346Y35871D01*
X91878Y35650D01*
X94436Y35650D01*
X94968Y35871D01*
X95375Y36278D01*
X95595Y36810D01*
X95595Y37386D01*
X95375Y37918D01*
X94968Y38325D01*
X94436Y38546D01*
X91878Y38546D01*
X91346Y38325D01*
X91087Y38066D02*
X88628Y38066D01*
X87406Y38066D02*
X81008Y38066D01*
X80860Y38215D02*
X79934Y38215D01*
X79524Y37804D01*
X76528Y37804D01*
X75978Y38354D01*
X74936Y38354D01*
X74376Y37794D01*
X71498Y37794D01*
X70948Y38344D01*
X69906Y38344D01*
X69170Y37608D01*
X69170Y36566D01*
X69906Y35830D01*
X70948Y35830D01*
X71498Y36380D01*
X74396Y36380D01*
X74936Y35840D01*
X75978Y35840D01*
X76528Y36390D01*
X79524Y36390D01*
X79934Y35980D01*
X80860Y35980D01*
X81515Y36634D01*
X81515Y37560D01*
X80860Y38215D01*
X81312Y37763D02*
X87102Y37763D01*
X86899Y37460D02*
X81515Y37460D01*
X81515Y37157D02*
X86899Y37157D01*
X86899Y36853D02*
X81515Y36853D01*
X81430Y36550D02*
X86984Y36550D01*
X87287Y36247D02*
X81127Y36247D01*
X79667Y36247D02*
X76384Y36247D01*
X76081Y35943D02*
X91274Y35943D01*
X90970Y36247D02*
X88747Y36247D01*
X91346Y33296D02*
X91878Y33517D01*
X94436Y33517D01*
X94968Y33296D01*
X95375Y32889D01*
X95595Y32357D01*
X95595Y31781D01*
X95375Y31249D01*
X94968Y30841D01*
X94436Y30621D01*
X91878Y30621D01*
X91346Y30841D01*
X90939Y31249D01*
X90889Y31370D01*
X88890Y31370D01*
X88480Y30960D01*
X87554Y30960D01*
X86899Y31614D01*
X86899Y32540D01*
X87554Y33195D01*
X88480Y33195D01*
X88890Y32784D01*
X90896Y32784D01*
X90939Y32889D01*
X91346Y33296D01*
X91264Y33214D02*
X76039Y33214D01*
X75978Y33274D02*
X76468Y32784D01*
X79524Y32784D01*
X79934Y33195D01*
X80860Y33195D01*
X81515Y32540D01*
X81515Y31614D01*
X80860Y30960D01*
X79934Y30960D01*
X79524Y31370D01*
X76588Y31370D01*
X75978Y30760D01*
X74936Y30760D01*
X74466Y31230D01*
X71548Y31230D01*
X70998Y30680D01*
X69956Y30680D01*
X69220Y31416D01*
X69220Y32458D01*
X69956Y33194D01*
X70998Y33194D01*
X71548Y32644D01*
X74306Y32644D01*
X74936Y33274D01*
X75978Y33274D01*
X76342Y32910D02*
X79650Y32910D01*
X81144Y32910D02*
X87270Y32910D01*
X86966Y32607D02*
X81448Y32607D01*
X81515Y32304D02*
X86899Y32304D01*
X86899Y32000D02*
X81515Y32000D01*
X81515Y31697D02*
X86899Y31697D01*
X87120Y31394D02*
X81294Y31394D01*
X80991Y31090D02*
X87423Y31090D01*
X88611Y31090D02*
X91097Y31090D01*
X91477Y30787D02*
X76005Y30787D01*
X76308Y31090D02*
X79803Y31090D01*
X79934Y26475D02*
X79544Y26084D01*
X76488Y26084D01*
X75938Y26634D01*
X74896Y26634D01*
X74366Y26104D01*
X71588Y26104D01*
X71038Y26654D01*
X69996Y26654D01*
X69260Y25918D01*
X69260Y24876D01*
X69933Y24203D01*
X69933Y23746D01*
X69929Y23712D01*
X69903Y23648D01*
X69855Y23600D01*
X69791Y23573D01*
X69757Y23570D01*
X64557Y23570D01*
X64442Y23581D01*
X64231Y23669D01*
X64069Y23831D01*
X63981Y24043D01*
X63970Y24157D01*
X63970Y32503D01*
X63694Y33350D01*
X63171Y34071D01*
X63171Y34071D01*
X63171Y34071D01*
X62450Y34595D01*
X61603Y34870D01*
X45997Y34870D01*
X45750Y35118D01*
X44657Y35118D01*
X44657Y61344D01*
X44765Y61315D01*
X45989Y61315D01*
X47171Y61632D01*
X48231Y62244D01*
X49096Y63109D01*
X49708Y64169D01*
X50025Y65351D01*
X50025Y66575D01*
X49708Y67757D01*
X49096Y68817D01*
X48828Y69086D01*
X96503Y69086D01*
X96307Y68972D01*
X95792Y68457D01*
X95427Y67826D01*
X95239Y67122D01*
X95239Y66393D01*
X95427Y65689D01*
X95792Y65057D01*
X96307Y64542D01*
X96938Y64177D01*
X97643Y63989D01*
X98371Y63989D01*
X99076Y64177D01*
X99585Y64472D01*
X99585Y05979D01*
X99226Y06187D01*
X98521Y06376D01*
X97793Y06376D01*
X97088Y06187D01*
X96457Y05822D01*
X95942Y05307D01*
X95577Y04676D01*
X95389Y03972D01*
X95389Y03243D01*
X95577Y02539D01*
X95942Y01907D01*
X96020Y01829D01*
X44657Y01829D01*
X44657Y20103D01*
X44820Y19940D01*
X45746Y19940D01*
X46401Y20594D01*
X46401Y21520D01*
X45746Y22175D01*
X44820Y22175D01*
X44657Y22012D01*
X44657Y33197D01*
X45097Y33197D01*
X45097Y32165D01*
X45364Y31897D01*
X46750Y31897D01*
X47017Y32165D01*
X47017Y33244D01*
X61157Y33244D01*
X61343Y33230D01*
X61696Y33115D01*
X61996Y32897D01*
X62215Y32596D01*
X62330Y32243D01*
X62344Y32057D01*
X62344Y23717D01*
X62681Y22904D01*
X62681Y22904D01*
X63304Y22281D01*
X64117Y21944D01*
X69757Y21944D01*
X69803Y21940D01*
X69888Y21905D01*
X69953Y21840D01*
X69988Y21755D01*
X69993Y21709D01*
X69993Y21471D01*
X69320Y20798D01*
X69320Y19756D01*
X70056Y19020D01*
X71098Y19020D01*
X71648Y19570D01*
X74366Y19570D01*
X74896Y19040D01*
X75938Y19040D01*
X76488Y19590D01*
X79564Y19590D01*
X79934Y19220D01*
X80860Y19220D01*
X81515Y19874D01*
X81515Y20800D01*
X80860Y21455D01*
X79934Y21455D01*
X79484Y21004D01*
X76488Y21004D01*
X75938Y21554D01*
X74896Y21554D01*
X74326Y20984D01*
X71648Y20984D01*
X71161Y21471D01*
X71161Y21988D01*
X70947Y22504D01*
X70682Y22770D01*
X70897Y22984D01*
X71101Y23478D01*
X71101Y24203D01*
X71588Y24690D01*
X74326Y24690D01*
X74896Y24120D01*
X75938Y24120D01*
X76488Y24670D01*
X79504Y24670D01*
X79934Y24240D01*
X80860Y24240D01*
X81515Y24894D01*
X81515Y25820D01*
X80860Y26475D01*
X79934Y26475D01*
X79697Y26238D02*
X76335Y26238D01*
X76031Y26541D02*
X91438Y26541D01*
X91346Y26503D02*
X90939Y26096D01*
X90926Y26064D01*
X88890Y26064D01*
X88480Y26475D01*
X87554Y26475D01*
X86899Y25820D01*
X86899Y24894D01*
X87554Y24240D01*
X88480Y24240D01*
X88890Y24650D01*
X90858Y24650D01*
X90939Y24455D01*
X91346Y24048D01*
X91878Y23828D01*
X94436Y23828D01*
X94968Y24048D01*
X95375Y24455D01*
X95595Y24988D01*
X95595Y25564D01*
X95375Y26096D01*
X94968Y26503D01*
X94436Y26723D01*
X91878Y26723D01*
X91346Y26503D01*
X91081Y26238D02*
X88717Y26238D01*
X87317Y26238D02*
X81097Y26238D01*
X81400Y25934D02*
X87014Y25934D01*
X86899Y25631D02*
X81515Y25631D01*
X81515Y25328D02*
X86899Y25328D01*
X86899Y25024D02*
X81515Y25024D01*
X81342Y24721D02*
X87072Y24721D01*
X87376Y24418D02*
X81038Y24418D01*
X79756Y24418D02*
X76236Y24418D01*
X74598Y24418D02*
X71316Y24418D01*
X71101Y24115D02*
X91280Y24115D01*
X90977Y24418D02*
X88658Y24418D01*
X91346Y21474D02*
X91878Y21694D01*
X94436Y21694D01*
X94968Y21474D01*
X95375Y21067D01*
X95595Y20534D01*
X95595Y19958D01*
X95375Y19426D01*
X94968Y19019D01*
X94436Y18799D01*
X91878Y18799D01*
X91346Y19019D01*
X90939Y19426D01*
X90855Y19630D01*
X88890Y19630D01*
X88480Y19220D01*
X87554Y19220D01*
X86899Y19874D01*
X86899Y20800D01*
X87554Y21455D01*
X88480Y21455D01*
X88890Y21044D01*
X90930Y21044D01*
X90939Y21067D01*
X91346Y21474D01*
X91257Y21385D02*
X88550Y21385D01*
X88853Y21082D02*
X90954Y21082D01*
X91864Y21688D02*
X71161Y21688D01*
X71160Y21991D02*
X99585Y21991D01*
X99585Y21688D02*
X94450Y21688D01*
X95057Y21385D02*
X99585Y21385D01*
X99585Y21082D02*
X95360Y21082D01*
X95494Y20778D02*
X99585Y20778D01*
X99585Y20475D02*
X95595Y20475D01*
X95595Y20172D02*
X99585Y20172D01*
X99585Y19868D02*
X95558Y19868D01*
X95432Y19565D02*
X99585Y19565D01*
X99585Y19262D02*
X95210Y19262D01*
X94822Y18959D02*
X99585Y18959D01*
X99585Y18655D02*
X44657Y18655D01*
X44657Y18352D02*
X99585Y18352D01*
X99585Y18049D02*
X44657Y18049D01*
X44657Y17745D02*
X99585Y17745D01*
X99585Y17442D02*
X44657Y17442D01*
X44657Y17139D02*
X99585Y17139D01*
X99585Y16835D02*
X44657Y16835D01*
X44657Y16532D02*
X70014Y16532D01*
X70096Y16614D02*
X69360Y15878D01*
X69360Y14836D01*
X70096Y14100D01*
X71138Y14100D01*
X71688Y14650D01*
X74426Y14650D01*
X74956Y14120D01*
X75998Y14120D01*
X76548Y14670D01*
X79584Y14670D01*
X80004Y14250D01*
X80930Y14250D01*
X81585Y14904D01*
X81585Y15830D01*
X80930Y16485D01*
X80004Y16485D01*
X79604Y16084D01*
X76548Y16084D01*
X75998Y16634D01*
X74956Y16634D01*
X74386Y16064D01*
X71688Y16064D01*
X71138Y16614D01*
X70096Y16614D01*
X69711Y16229D02*
X44657Y16229D01*
X44657Y15925D02*
X69407Y15925D01*
X69360Y15622D02*
X47830Y15622D01*
X47598Y15854D02*
X48334Y15118D01*
X48334Y14076D01*
X47598Y13340D01*
X46556Y13340D01*
X45820Y14076D01*
X45820Y15118D01*
X46556Y15854D01*
X47598Y15854D01*
X48133Y15319D02*
X69360Y15319D01*
X69360Y15016D02*
X48334Y15016D01*
X48334Y14712D02*
X69484Y14712D01*
X69787Y14409D02*
X48334Y14409D01*
X48334Y14106D02*
X70090Y14106D01*
X71144Y14106D02*
X91281Y14106D01*
X91346Y14041D02*
X91878Y13820D01*
X94436Y13820D01*
X94968Y14041D01*
X95375Y14448D01*
X95595Y14980D01*
X95595Y15556D01*
X95375Y16088D01*
X94968Y16495D01*
X94436Y16716D01*
X91878Y16716D01*
X91346Y16495D01*
X90939Y16088D01*
X90933Y16074D01*
X88960Y16074D01*
X88550Y16485D01*
X87624Y16485D01*
X86970Y15830D01*
X86970Y14904D01*
X87624Y14250D01*
X88550Y14250D01*
X88960Y14660D01*
X90851Y14660D01*
X90939Y14448D01*
X91346Y14041D01*
X90978Y14409D02*
X88709Y14409D01*
X87465Y14409D02*
X81089Y14409D01*
X81393Y14712D02*
X87161Y14712D01*
X86970Y15016D02*
X81585Y15016D01*
X81585Y15319D02*
X86970Y15319D01*
X86970Y15622D02*
X81585Y15622D01*
X81489Y15925D02*
X87065Y15925D01*
X87368Y16229D02*
X81186Y16229D01*
X79748Y16229D02*
X76403Y16229D01*
X76100Y16532D02*
X91435Y16532D01*
X91080Y16229D02*
X88806Y16229D01*
X91492Y18959D02*
X44657Y18959D01*
X44657Y19262D02*
X69814Y19262D01*
X69511Y19565D02*
X44657Y19565D01*
X44657Y19868D02*
X69320Y19868D01*
X69320Y20172D02*
X45978Y20172D01*
X46281Y20475D02*
X69320Y20475D01*
X69320Y20778D02*
X46401Y20778D01*
X46401Y21082D02*
X69603Y21082D01*
X69907Y21385D02*
X46401Y21385D01*
X46233Y21688D02*
X69993Y21688D01*
X71034Y22295D02*
X99585Y22295D01*
X99585Y22598D02*
X70853Y22598D01*
X70947Y22504D02*
X70947Y22504D01*
X70814Y22901D02*
X99585Y22901D01*
X99585Y23205D02*
X70988Y23205D01*
X70897Y22984D02*
X70897Y22984D01*
X71101Y23508D02*
X99585Y23508D01*
X99585Y23811D02*
X71101Y23811D01*
X69933Y23811D02*
X64088Y23811D01*
X63974Y24115D02*
X69933Y24115D01*
X69718Y24418D02*
X63970Y24418D01*
X63970Y24721D02*
X69415Y24721D01*
X69260Y25024D02*
X63970Y25024D01*
X63970Y25328D02*
X69260Y25328D01*
X69260Y25631D02*
X63970Y25631D01*
X63970Y25934D02*
X69276Y25934D01*
X69579Y26238D02*
X63970Y26238D01*
X63970Y26541D02*
X69883Y26541D01*
X71151Y26541D02*
X74803Y26541D01*
X74499Y26238D02*
X71455Y26238D01*
X71105Y30787D02*
X74909Y30787D01*
X74606Y31090D02*
X71408Y31090D01*
X69849Y30787D02*
X63970Y30787D01*
X63970Y30484D02*
X99585Y30484D01*
X99585Y30787D02*
X94837Y30787D01*
X95217Y31090D02*
X99585Y31090D01*
X99585Y31394D02*
X95435Y31394D01*
X95561Y31697D02*
X99585Y31697D01*
X99585Y32000D02*
X95595Y32000D01*
X95595Y32304D02*
X99585Y32304D01*
X99585Y32607D02*
X95492Y32607D01*
X95354Y32910D02*
X99585Y32910D01*
X99585Y33214D02*
X95050Y33214D01*
X95040Y35943D02*
X99585Y35943D01*
X99585Y35640D02*
X44657Y35640D01*
X44657Y35337D02*
X99585Y35337D01*
X99585Y35033D02*
X45834Y35033D01*
X44657Y35943D02*
X69793Y35943D01*
X69490Y36247D02*
X44657Y36247D01*
X44657Y36550D02*
X69186Y36550D01*
X69170Y36853D02*
X44657Y36853D01*
X44657Y37157D02*
X69170Y37157D01*
X69170Y37460D02*
X44657Y37460D01*
X44657Y37763D02*
X69325Y37763D01*
X69628Y38066D02*
X44657Y38066D01*
X44657Y32910D02*
X45097Y32910D01*
X45097Y32607D02*
X44657Y32607D01*
X44657Y32304D02*
X45097Y32304D01*
X45261Y32000D02*
X44657Y32000D01*
X44657Y31697D02*
X62344Y31697D01*
X62344Y31394D02*
X44657Y31394D01*
X44657Y31090D02*
X62344Y31090D01*
X62344Y30787D02*
X44657Y30787D01*
X44657Y30484D02*
X62344Y30484D01*
X62344Y30181D02*
X44657Y30181D01*
X44657Y29877D02*
X62344Y29877D01*
X62344Y29574D02*
X44657Y29574D01*
X44657Y29271D02*
X62344Y29271D01*
X62344Y28967D02*
X53571Y28967D01*
X53534Y29005D02*
X53123Y29175D01*
X52679Y29175D01*
X52268Y29005D01*
X51954Y28690D01*
X51783Y28280D01*
X51783Y27835D01*
X51954Y27424D01*
X52268Y27110D01*
X52679Y26940D01*
X53123Y26940D01*
X53534Y27110D01*
X53848Y27424D01*
X54019Y27835D01*
X54019Y28280D01*
X53848Y28690D01*
X53534Y29005D01*
X53859Y28664D02*
X62344Y28664D01*
X62344Y28361D02*
X53985Y28361D01*
X54019Y28057D02*
X62344Y28057D01*
X62344Y27754D02*
X53985Y27754D01*
X53860Y27451D02*
X62344Y27451D01*
X62344Y27148D02*
X53572Y27148D01*
X52230Y27148D02*
X44657Y27148D01*
X44657Y27451D02*
X51942Y27451D01*
X51817Y27754D02*
X44657Y27754D01*
X44657Y28057D02*
X51783Y28057D01*
X51817Y28361D02*
X44657Y28361D01*
X44657Y28664D02*
X51943Y28664D01*
X52231Y28967D02*
X44657Y28967D01*
X43657Y28967D02*
X07696Y28967D01*
X07696Y29271D02*
X43657Y29271D01*
X43657Y29574D02*
X07694Y29574D01*
X07391Y29877D02*
X43657Y29877D01*
X43657Y30181D02*
X07088Y30181D01*
X05866Y30181D02*
X04548Y30181D01*
X04851Y29877D02*
X05563Y29877D01*
X05260Y29574D02*
X05154Y29574D01*
X05156Y29271D02*
X05258Y29271D01*
X05258Y28967D02*
X05156Y28967D01*
X05156Y28664D02*
X05258Y28664D01*
X05459Y28361D02*
X04955Y28361D01*
X04652Y28057D02*
X05762Y28057D01*
X05676Y27451D02*
X04738Y27451D01*
X04442Y27746D02*
X03432Y27746D01*
X02718Y27032D01*
X02718Y26022D01*
X03432Y25308D01*
X04442Y25308D01*
X05156Y26022D01*
X05156Y27032D01*
X04442Y27746D01*
X05041Y27148D02*
X05373Y27148D01*
X05258Y26844D02*
X05156Y26844D01*
X05156Y26541D02*
X05258Y26541D01*
X05258Y26238D02*
X05156Y26238D01*
X05068Y25934D02*
X05346Y25934D01*
X05649Y25631D02*
X04765Y25631D01*
X04462Y25328D02*
X05952Y25328D01*
X05972Y25206D02*
X05258Y24492D01*
X05258Y23482D01*
X05972Y22768D01*
X06982Y22768D01*
X07696Y23482D01*
X07696Y24492D01*
X06982Y25206D01*
X05972Y25206D01*
X05790Y25024D02*
X02329Y25024D01*
X02329Y24721D02*
X05487Y24721D01*
X05258Y24418D02*
X02329Y24418D01*
X02329Y24115D02*
X05258Y24115D01*
X05258Y23811D02*
X02329Y23811D01*
X02329Y23508D02*
X05258Y23508D01*
X05535Y23205D02*
X02329Y23205D01*
X02329Y22901D02*
X05839Y22901D01*
X05972Y22666D02*
X05258Y21952D01*
X05258Y20942D01*
X05972Y20228D01*
X06982Y20228D01*
X07696Y20942D01*
X07696Y21952D01*
X06982Y22666D01*
X05972Y22666D01*
X05904Y22598D02*
X02329Y22598D01*
X02329Y22295D02*
X05600Y22295D01*
X05297Y21991D02*
X02329Y21991D01*
X02329Y21688D02*
X05258Y21688D01*
X05258Y21385D02*
X02329Y21385D01*
X02329Y21082D02*
X05258Y21082D01*
X05422Y20778D02*
X02329Y20778D01*
X02329Y20475D02*
X05725Y20475D01*
X07229Y20475D02*
X14729Y20475D01*
X14729Y20610D02*
X14729Y19684D01*
X15237Y19176D01*
X15237Y13245D01*
X15484Y12650D01*
X15484Y12650D01*
X15940Y12194D01*
X16535Y11948D01*
X18641Y11948D01*
X18659Y11904D01*
X18974Y11590D01*
X19384Y11420D01*
X21150Y11420D01*
X21560Y11590D01*
X21875Y11904D01*
X22045Y12315D01*
X22045Y12760D01*
X21875Y13170D01*
X21560Y13485D01*
X21150Y13655D01*
X19384Y13655D01*
X18974Y13485D01*
X18659Y13170D01*
X18658Y13167D01*
X16857Y13167D01*
X16779Y13174D01*
X16635Y13234D01*
X16524Y13345D01*
X16464Y13489D01*
X16457Y13567D01*
X16457Y19176D01*
X16965Y19684D01*
X16965Y20610D01*
X16310Y21265D01*
X15384Y21265D01*
X14729Y20610D01*
X14898Y20778D02*
X07532Y20778D01*
X07696Y21082D02*
X15201Y21082D01*
X14729Y20172D02*
X02329Y20172D01*
X02329Y19868D02*
X14729Y19868D01*
X14849Y19565D02*
X02329Y19565D01*
X02329Y19262D02*
X15152Y19262D01*
X15237Y18959D02*
X02329Y18959D01*
X02329Y18655D02*
X15237Y18655D01*
X15237Y18352D02*
X02329Y18352D01*
X02329Y18049D02*
X15237Y18049D01*
X15237Y17745D02*
X02329Y17745D01*
X02329Y17442D02*
X15237Y17442D01*
X15237Y17139D02*
X02329Y17139D01*
X02329Y16835D02*
X15237Y16835D01*
X15237Y16532D02*
X02329Y16532D01*
X02329Y16229D02*
X15237Y16229D01*
X15237Y15925D02*
X02329Y15925D01*
X02329Y15622D02*
X15237Y15622D01*
X15237Y15319D02*
X02329Y15319D01*
X02329Y15016D02*
X15237Y15016D01*
X15237Y14712D02*
X02329Y14712D01*
X02329Y14409D02*
X15237Y14409D01*
X15237Y14106D02*
X02329Y14106D01*
X02329Y13802D02*
X15237Y13802D01*
X15237Y13499D02*
X02329Y13499D01*
X02329Y13196D02*
X15258Y13196D01*
X15383Y12892D02*
X02329Y12892D01*
X02329Y12589D02*
X15545Y12589D01*
X15848Y12286D02*
X02329Y12286D01*
X02329Y11983D02*
X16450Y11983D01*
X15940Y12194D02*
X15940Y12194D01*
X16857Y12557D02*
X20247Y12557D01*
X20255Y12555D01*
X20261Y12551D01*
X20265Y12545D01*
X20267Y12537D01*
X19008Y13499D02*
X16463Y13499D01*
X16457Y13802D02*
X41014Y13802D01*
X40740Y14076D02*
X41476Y13340D01*
X42518Y13340D01*
X43254Y14076D01*
X43254Y15118D01*
X42518Y15854D01*
X41476Y15854D01*
X40740Y15118D01*
X40740Y14076D01*
X40740Y14106D02*
X29122Y14106D01*
X29180Y14130D02*
X29495Y14444D01*
X29665Y14855D01*
X29665Y15300D01*
X29495Y15710D01*
X29180Y16025D01*
X28770Y16195D01*
X27004Y16195D01*
X26594Y16025D01*
X26279Y15710D01*
X26109Y15300D01*
X26109Y14855D01*
X26279Y14444D01*
X26594Y14130D01*
X27004Y13960D01*
X28770Y13960D01*
X29180Y14130D01*
X29460Y14409D02*
X40740Y14409D01*
X40740Y14712D02*
X29606Y14712D01*
X29665Y15016D02*
X40740Y15016D01*
X40941Y15319D02*
X29657Y15319D01*
X29531Y15622D02*
X41244Y15622D01*
X42750Y15622D02*
X43657Y15622D01*
X43657Y15319D02*
X43053Y15319D01*
X43254Y15016D02*
X43657Y15016D01*
X43657Y14712D02*
X43254Y14712D01*
X43254Y14409D02*
X43657Y14409D01*
X43657Y14106D02*
X43254Y14106D01*
X42980Y13802D02*
X43657Y13802D01*
X43657Y13499D02*
X42677Y13499D01*
X43657Y13196D02*
X21849Y13196D01*
X21990Y12892D02*
X43657Y12892D01*
X43657Y12589D02*
X22045Y12589D01*
X22033Y12286D02*
X43657Y12286D01*
X43657Y11983D02*
X21907Y11983D01*
X21650Y11679D02*
X43657Y11679D01*
X43657Y11376D02*
X02329Y11376D01*
X02329Y11679D02*
X18884Y11679D01*
X18685Y13196D02*
X16727Y13196D01*
X16857Y12557D02*
X16796Y12559D01*
X16735Y12564D01*
X16675Y12574D01*
X16615Y12586D01*
X16557Y12603D01*
X16499Y12623D01*
X16442Y12646D01*
X16388Y12673D01*
X16334Y12703D01*
X16283Y12736D01*
X16234Y12772D01*
X16187Y12811D01*
X16143Y12853D01*
X16101Y12897D01*
X16062Y12944D01*
X16026Y12993D01*
X15993Y13044D01*
X15963Y13098D01*
X15936Y13152D01*
X15913Y13209D01*
X15893Y13267D01*
X15876Y13325D01*
X15864Y13385D01*
X15854Y13445D01*
X15849Y13506D01*
X15847Y13567D01*
X15847Y20147D01*
X16965Y20172D02*
X18489Y20172D01*
X18489Y20380D02*
X18489Y19935D01*
X18659Y19524D01*
X18974Y19210D01*
X19384Y19040D01*
X21150Y19040D01*
X21560Y19210D01*
X21875Y19524D01*
X22045Y19935D01*
X22045Y20380D01*
X21875Y20790D01*
X21560Y21105D01*
X21150Y21275D01*
X19384Y21275D01*
X18974Y21105D01*
X18659Y20790D01*
X18489Y20380D01*
X18529Y20475D02*
X16965Y20475D01*
X16796Y20778D02*
X18654Y20778D01*
X18950Y21082D02*
X16493Y21082D01*
X16965Y19868D02*
X18517Y19868D01*
X18642Y19565D02*
X16845Y19565D01*
X16542Y19262D02*
X18921Y19262D01*
X19192Y18655D02*
X16457Y18655D01*
X16457Y18352D02*
X18761Y18352D01*
X18659Y18250D02*
X18974Y18565D01*
X19384Y18735D01*
X21150Y18735D01*
X21560Y18565D01*
X21875Y18250D01*
X22045Y17840D01*
X22045Y17395D01*
X21875Y16984D01*
X21560Y16670D01*
X21150Y16500D01*
X19384Y16500D01*
X18974Y16670D01*
X18659Y16984D01*
X18489Y17395D01*
X18489Y17840D01*
X18659Y18250D01*
X18576Y18049D02*
X16457Y18049D01*
X16457Y17745D02*
X18489Y17745D01*
X18489Y17442D02*
X16457Y17442D01*
X16457Y17139D02*
X18595Y17139D01*
X18808Y16835D02*
X16457Y16835D01*
X16457Y16532D02*
X19306Y16532D01*
X21228Y16532D02*
X26926Y16532D01*
X27004Y16500D02*
X26594Y16670D01*
X26279Y16984D01*
X26109Y17395D01*
X26109Y17840D01*
X26279Y18250D01*
X26594Y18565D01*
X27004Y18735D01*
X28770Y18735D01*
X29180Y18565D01*
X29495Y18250D01*
X29665Y17840D01*
X29665Y17395D01*
X29495Y16984D01*
X29180Y16670D01*
X28770Y16500D01*
X27004Y16500D01*
X26428Y16835D02*
X21726Y16835D01*
X21939Y17139D02*
X26215Y17139D01*
X26109Y17442D02*
X22045Y17442D01*
X22045Y17745D02*
X26109Y17745D01*
X26196Y18049D02*
X21958Y18049D01*
X21773Y18352D02*
X26381Y18352D01*
X26812Y18655D02*
X21342Y18655D01*
X21613Y19262D02*
X43657Y19262D01*
X43657Y19565D02*
X21892Y19565D01*
X22017Y19868D02*
X43657Y19868D01*
X43657Y18959D02*
X16457Y18959D01*
X16457Y16229D02*
X43657Y16229D01*
X43657Y16532D02*
X28848Y16532D01*
X29346Y16835D02*
X43657Y16835D01*
X43657Y17139D02*
X29559Y17139D01*
X29665Y17442D02*
X43657Y17442D01*
X43657Y17745D02*
X29665Y17745D01*
X29578Y18049D02*
X43657Y18049D01*
X43657Y18352D02*
X29393Y18352D01*
X28962Y18655D02*
X43657Y18655D01*
X42556Y20172D02*
X22045Y20172D01*
X22005Y20475D02*
X42282Y20475D01*
X42157Y20778D02*
X21880Y20778D01*
X21584Y21082D02*
X42133Y21082D01*
X42177Y21385D02*
X07696Y21385D01*
X07696Y21688D02*
X26742Y21688D01*
X26352Y21991D02*
X07657Y21991D01*
X07354Y22295D02*
X22684Y22295D01*
X22381Y22598D02*
X07050Y22598D01*
X07115Y22901D02*
X22232Y22901D01*
X22147Y23205D02*
X07419Y23205D01*
X07696Y23508D02*
X09511Y23508D01*
X08968Y23811D02*
X07696Y23811D01*
X07696Y24115D02*
X08672Y24115D01*
X08546Y24418D02*
X07696Y24418D01*
X07467Y24721D02*
X08447Y24721D01*
X08447Y25024D02*
X07164Y25024D01*
X07002Y25328D02*
X08447Y25328D01*
X08447Y25631D02*
X07305Y25631D01*
X08257Y26457D02*
X08312Y26455D01*
X08366Y26450D01*
X08420Y26440D01*
X08473Y26427D01*
X08525Y26411D01*
X08576Y26391D01*
X08625Y26367D01*
X08673Y26341D01*
X08718Y26311D01*
X08762Y26278D01*
X08803Y26242D01*
X08842Y26203D01*
X08878Y26162D01*
X08911Y26118D01*
X08941Y26073D01*
X08967Y26025D01*
X08991Y25976D01*
X09011Y25925D01*
X09027Y25873D01*
X09040Y25820D01*
X09050Y25766D01*
X09055Y25712D01*
X09057Y25657D01*
X09057Y24957D01*
X09790Y24721D02*
X18611Y24721D01*
X21432Y26238D02*
X26722Y26238D01*
X26343Y25934D02*
X21811Y25934D01*
X21974Y25631D02*
X26180Y25631D01*
X26109Y25328D02*
X22045Y25328D01*
X22045Y25024D02*
X26109Y25024D01*
X26996Y23811D02*
X23286Y23811D01*
X23367Y23508D02*
X26457Y23508D01*
X27887Y22697D02*
X23417Y22697D01*
X23368Y22699D01*
X23319Y22704D01*
X23270Y22714D01*
X23222Y22726D01*
X23176Y22743D01*
X23131Y22762D01*
X23087Y22785D01*
X23045Y22812D01*
X23005Y22841D01*
X22968Y22873D01*
X22933Y22908D01*
X22901Y22945D01*
X22872Y22985D01*
X22845Y23027D01*
X22822Y23071D01*
X22803Y23116D01*
X22786Y23162D01*
X22774Y23210D01*
X22764Y23259D01*
X22759Y23308D01*
X22757Y23357D01*
X22755Y23407D01*
X22750Y23457D01*
X22741Y23506D01*
X22729Y23554D01*
X22713Y23602D01*
X22694Y23648D01*
X22671Y23692D01*
X22646Y23735D01*
X22617Y23776D01*
X22586Y23815D01*
X22552Y23852D01*
X22515Y23886D01*
X22476Y23917D01*
X22435Y23946D01*
X22392Y23971D01*
X22348Y23994D01*
X22302Y24013D01*
X22254Y24029D01*
X22206Y24041D01*
X22157Y24050D01*
X22107Y24055D01*
X22057Y24057D01*
X21575Y26844D02*
X43657Y26844D01*
X43657Y26541D02*
X09367Y26541D01*
X09063Y26844D02*
X15189Y26844D01*
X14886Y27148D02*
X07581Y27148D01*
X08257Y26457D02*
X06547Y26457D01*
X06531Y26459D01*
X06517Y26464D01*
X06503Y26472D01*
X06492Y26483D01*
X06484Y26497D01*
X06479Y26511D01*
X06477Y26527D01*
X03412Y25328D02*
X02329Y25328D01*
X02329Y25631D02*
X03109Y25631D01*
X02806Y25934D02*
X02329Y25934D01*
X02329Y26238D02*
X02718Y26238D01*
X02718Y26541D02*
X02329Y26541D01*
X02329Y26844D02*
X02718Y26844D01*
X02833Y27148D02*
X02329Y27148D01*
X02329Y27451D02*
X03136Y27451D01*
X16457Y15925D02*
X26494Y15925D01*
X26243Y15622D02*
X16457Y15622D01*
X16457Y15319D02*
X26117Y15319D01*
X26109Y15016D02*
X16457Y15016D01*
X16457Y14712D02*
X26168Y14712D01*
X26314Y14409D02*
X16457Y14409D01*
X16457Y14106D02*
X26652Y14106D01*
X29280Y15925D02*
X43657Y15925D01*
X44657Y15622D02*
X46324Y15622D01*
X46021Y15319D02*
X44657Y15319D01*
X44657Y15016D02*
X45820Y15016D01*
X45820Y14712D02*
X44657Y14712D01*
X44657Y14409D02*
X45820Y14409D01*
X45820Y14106D02*
X44657Y14106D01*
X44657Y13802D02*
X46094Y13802D01*
X46397Y13499D02*
X44657Y13499D01*
X44657Y13196D02*
X99585Y13196D01*
X99585Y13499D02*
X47757Y13499D01*
X48060Y13802D02*
X99585Y13802D01*
X99585Y14106D02*
X95033Y14106D01*
X95336Y14409D02*
X99585Y14409D01*
X99585Y14712D02*
X95485Y14712D01*
X95595Y15016D02*
X99585Y15016D01*
X99585Y15319D02*
X95595Y15319D01*
X95568Y15622D02*
X99585Y15622D01*
X99585Y15925D02*
X95442Y15925D01*
X95234Y16229D02*
X99585Y16229D01*
X99585Y16532D02*
X94879Y16532D01*
X91103Y19262D02*
X88522Y19262D01*
X88825Y19565D02*
X90882Y19565D01*
X87512Y19262D02*
X80902Y19262D01*
X81205Y19565D02*
X87209Y19565D01*
X86905Y19868D02*
X81509Y19868D01*
X81515Y20172D02*
X86899Y20172D01*
X86899Y20475D02*
X81515Y20475D01*
X81515Y20778D02*
X86899Y20778D01*
X87181Y21082D02*
X81233Y21082D01*
X80930Y21385D02*
X87484Y21385D01*
X79864Y21385D02*
X76107Y21385D01*
X76411Y21082D02*
X79561Y21082D01*
X79589Y19565D02*
X76463Y19565D01*
X76160Y19262D02*
X79892Y19262D01*
X74674Y19262D02*
X71340Y19262D01*
X71643Y19565D02*
X74371Y19565D01*
X74423Y21082D02*
X71551Y21082D01*
X71247Y21385D02*
X74727Y21385D01*
X74854Y16532D02*
X71220Y16532D01*
X71523Y16229D02*
X74551Y16229D01*
X74667Y14409D02*
X71447Y14409D01*
X71268Y11584D02*
X70226Y11584D01*
X69490Y10848D01*
X69490Y09806D01*
X70226Y09070D01*
X71268Y09070D01*
X71788Y09590D01*
X74406Y09590D01*
X74956Y09040D01*
X75998Y09040D01*
X76488Y09530D01*
X79544Y09530D01*
X79954Y09120D01*
X80880Y09120D01*
X81535Y09774D01*
X81535Y10700D01*
X80880Y11355D01*
X79954Y11355D01*
X79544Y10944D01*
X76608Y10944D01*
X75998Y11554D01*
X74956Y11554D01*
X74406Y11004D01*
X71848Y11004D01*
X71268Y11584D01*
X71476Y11376D02*
X74778Y11376D01*
X74474Y11073D02*
X71780Y11073D01*
X71754Y09556D02*
X74440Y09556D01*
X74743Y09253D02*
X71451Y09253D01*
X70043Y09253D02*
X44657Y09253D01*
X44657Y09556D02*
X69740Y09556D01*
X69490Y09860D02*
X44657Y09860D01*
X44657Y10163D02*
X69490Y10163D01*
X69490Y10466D02*
X44657Y10466D01*
X44657Y10769D02*
X69490Y10769D01*
X69714Y11073D02*
X44657Y11073D01*
X44657Y11376D02*
X70018Y11376D01*
X76176Y11376D02*
X91256Y11376D01*
X91346Y11466D02*
X90939Y11059D01*
X90892Y10944D01*
X88910Y10944D01*
X88500Y11355D01*
X87574Y11355D01*
X86919Y10700D01*
X86919Y09774D01*
X87574Y09120D01*
X88500Y09120D01*
X88910Y09530D01*
X90893Y09530D01*
X90939Y09419D01*
X91346Y09011D01*
X91878Y08791D01*
X94436Y08791D01*
X94968Y09011D01*
X95375Y09419D01*
X95595Y09951D01*
X95595Y10527D01*
X95375Y11059D01*
X94968Y11466D01*
X94436Y11687D01*
X91878Y11687D01*
X91346Y11466D01*
X90953Y11073D02*
X88782Y11073D01*
X87292Y11073D02*
X81162Y11073D01*
X81465Y10769D02*
X86989Y10769D01*
X86919Y10466D02*
X81535Y10466D01*
X81535Y10163D02*
X86919Y10163D01*
X86919Y09860D02*
X81535Y09860D01*
X81317Y09556D02*
X87137Y09556D01*
X87441Y09253D02*
X81013Y09253D01*
X79821Y09253D02*
X76211Y09253D01*
X76480Y11073D02*
X79672Y11073D01*
X79845Y14409D02*
X76287Y14409D01*
X88633Y09253D02*
X91105Y09253D01*
X91496Y08950D02*
X44657Y08950D01*
X44657Y08646D02*
X99585Y08646D01*
X99585Y08343D02*
X44657Y08343D01*
X44657Y08040D02*
X99585Y08040D01*
X99585Y07736D02*
X44657Y07736D01*
X44657Y07433D02*
X99585Y07433D01*
X99585Y07130D02*
X44657Y07130D01*
X44657Y06826D02*
X99585Y06826D01*
X99585Y06523D02*
X44657Y06523D01*
X44657Y06220D02*
X97211Y06220D01*
X96620Y05917D02*
X44657Y05917D01*
X44657Y05613D02*
X96248Y05613D01*
X95945Y05310D02*
X44657Y05310D01*
X44657Y05007D02*
X95768Y05007D01*
X95593Y04703D02*
X44657Y04703D01*
X44657Y04400D02*
X95503Y04400D01*
X95422Y04097D02*
X44657Y04097D01*
X44657Y03793D02*
X95389Y03793D01*
X95389Y03490D02*
X44657Y03490D01*
X44657Y03187D02*
X95404Y03187D01*
X95485Y02884D02*
X44657Y02884D01*
X44657Y02580D02*
X95566Y02580D01*
X95728Y02277D02*
X44657Y02277D01*
X44657Y01974D02*
X95903Y01974D01*
X99103Y06220D02*
X99585Y06220D01*
X99585Y08950D02*
X94818Y08950D01*
X95209Y09253D02*
X99585Y09253D01*
X99585Y09556D02*
X95432Y09556D01*
X95558Y09860D02*
X99585Y09860D01*
X99585Y10163D02*
X95595Y10163D01*
X95595Y10466D02*
X99585Y10466D01*
X99585Y10769D02*
X95495Y10769D01*
X95361Y11073D02*
X99585Y11073D01*
X99585Y11376D02*
X95058Y11376D01*
X94453Y11679D02*
X99585Y11679D01*
X99585Y11983D02*
X44657Y11983D01*
X44657Y12286D02*
X99585Y12286D01*
X99585Y12589D02*
X44657Y12589D01*
X44657Y12892D02*
X99585Y12892D01*
X91861Y11679D02*
X44657Y11679D01*
X43657Y11073D02*
X02329Y11073D01*
X02329Y10769D02*
X43657Y10769D01*
X43657Y10466D02*
X02329Y10466D01*
X02329Y10163D02*
X43657Y10163D01*
X43657Y09860D02*
X02329Y09860D01*
X02329Y09556D02*
X43657Y09556D01*
X43657Y09253D02*
X02329Y09253D01*
X02329Y08950D02*
X43657Y08950D01*
X43657Y08646D02*
X02329Y08646D01*
X02329Y08343D02*
X43657Y08343D01*
X43657Y08040D02*
X02329Y08040D01*
X02329Y07736D02*
X43657Y07736D01*
X43657Y07433D02*
X06217Y07433D01*
X05871Y07526D02*
X06576Y07337D01*
X07207Y06972D01*
X07722Y06457D01*
X08087Y05826D01*
X08275Y05122D01*
X08275Y04393D01*
X08087Y03689D01*
X07722Y03057D01*
X07207Y02542D01*
X06576Y02177D01*
X05871Y01989D01*
X05143Y01989D01*
X04438Y02177D01*
X03807Y02542D01*
X03292Y03057D01*
X02927Y03689D01*
X02739Y04393D01*
X02739Y05122D01*
X02927Y05826D01*
X03292Y06457D01*
X03807Y06972D01*
X04438Y07337D01*
X05143Y07526D01*
X05871Y07526D01*
X04797Y07433D02*
X02329Y07433D01*
X02329Y07130D02*
X04080Y07130D01*
X03661Y06826D02*
X02329Y06826D01*
X02329Y06523D02*
X03358Y06523D01*
X03155Y06220D02*
X02329Y06220D01*
X02329Y05917D02*
X02980Y05917D01*
X02870Y05613D02*
X02329Y05613D01*
X02329Y05310D02*
X02789Y05310D01*
X02739Y05007D02*
X02329Y05007D01*
X02329Y04703D02*
X02739Y04703D01*
X02739Y04400D02*
X02329Y04400D01*
X02329Y04097D02*
X02818Y04097D01*
X02899Y03793D02*
X02329Y03793D01*
X02329Y03490D02*
X03042Y03490D01*
X03217Y03187D02*
X02329Y03187D01*
X02329Y02884D02*
X03465Y02884D01*
X03769Y02580D02*
X02329Y02580D01*
X02329Y02277D02*
X04266Y02277D01*
X02329Y01974D02*
X43657Y01974D01*
X43657Y02277D02*
X06748Y02277D01*
X07245Y02580D02*
X43657Y02580D01*
X43657Y02884D02*
X07549Y02884D01*
X07797Y03187D02*
X43657Y03187D01*
X43657Y03490D02*
X07972Y03490D01*
X08115Y03793D02*
X43657Y03793D01*
X43657Y04097D02*
X08196Y04097D01*
X08275Y04400D02*
X43657Y04400D01*
X43657Y04703D02*
X08275Y04703D01*
X08275Y05007D02*
X43657Y05007D01*
X43657Y05310D02*
X08225Y05310D01*
X08144Y05613D02*
X43657Y05613D01*
X43657Y05917D02*
X08034Y05917D01*
X07859Y06220D02*
X43657Y06220D01*
X43657Y06523D02*
X07656Y06523D01*
X07353Y06826D02*
X43657Y06826D01*
X43657Y07130D02*
X06934Y07130D01*
X21526Y13499D02*
X41317Y13499D01*
X42303Y21688D02*
X29032Y21688D01*
X29422Y21991D02*
X42605Y21991D01*
X43657Y22295D02*
X29590Y22295D01*
X29665Y22598D02*
X43657Y22598D01*
X43657Y22901D02*
X29665Y22901D01*
X29547Y23205D02*
X43657Y23205D01*
X43657Y23508D02*
X29317Y23508D01*
X28778Y23811D02*
X43657Y23811D01*
X44657Y23811D02*
X56660Y23811D01*
X56660Y23796D02*
X57396Y23060D01*
X58438Y23060D01*
X59174Y23796D01*
X59174Y24838D01*
X58438Y25574D01*
X57396Y25574D01*
X56660Y24838D01*
X56660Y23796D01*
X56660Y24115D02*
X44657Y24115D01*
X44657Y24418D02*
X56660Y24418D01*
X56660Y24721D02*
X44657Y24721D01*
X44657Y25024D02*
X56846Y25024D01*
X57150Y25328D02*
X44657Y25328D01*
X44657Y25631D02*
X62344Y25631D01*
X62344Y25328D02*
X58684Y25328D01*
X58988Y25024D02*
X62344Y25024D01*
X62344Y24721D02*
X59174Y24721D01*
X59174Y24418D02*
X62344Y24418D01*
X62344Y24115D02*
X59174Y24115D01*
X59174Y23811D02*
X62344Y23811D01*
X62431Y23508D02*
X58886Y23508D01*
X58583Y23205D02*
X62556Y23205D01*
X62683Y22901D02*
X44657Y22901D01*
X44657Y22598D02*
X62987Y22598D01*
X63290Y22295D02*
X44657Y22295D01*
X45929Y21991D02*
X64003Y21991D01*
X63304Y22281D02*
X63304Y22281D01*
X62344Y25934D02*
X44657Y25934D01*
X44657Y26238D02*
X62344Y26238D01*
X62344Y26541D02*
X44657Y26541D01*
X44657Y26844D02*
X62344Y26844D01*
X63970Y26844D02*
X99585Y26844D01*
X99585Y26541D02*
X94876Y26541D01*
X95233Y26238D02*
X99585Y26238D01*
X99585Y25934D02*
X95442Y25934D01*
X95567Y25631D02*
X99585Y25631D01*
X99585Y25328D02*
X95595Y25328D01*
X95595Y25024D02*
X99585Y25024D01*
X99585Y24721D02*
X95485Y24721D01*
X95337Y24418D02*
X99585Y24418D01*
X99585Y24115D02*
X95034Y24115D01*
X99585Y27148D02*
X63970Y27148D01*
X63970Y27451D02*
X99585Y27451D01*
X99585Y27754D02*
X63970Y27754D01*
X63970Y28057D02*
X99585Y28057D01*
X99585Y28361D02*
X63970Y28361D01*
X63970Y28664D02*
X99585Y28664D01*
X99585Y28967D02*
X63970Y28967D01*
X63970Y29271D02*
X99585Y29271D01*
X99585Y29574D02*
X63970Y29574D01*
X63970Y29877D02*
X99585Y29877D01*
X99585Y30181D02*
X63970Y30181D01*
X63970Y31090D02*
X69546Y31090D01*
X69242Y31394D02*
X63970Y31394D01*
X63970Y31697D02*
X69220Y31697D01*
X69220Y32000D02*
X63970Y32000D01*
X63970Y32304D02*
X69220Y32304D01*
X69369Y32607D02*
X63936Y32607D01*
X63837Y32910D02*
X69672Y32910D01*
X71282Y32910D02*
X74572Y32910D01*
X74875Y33214D02*
X63739Y33214D01*
X63694Y33350D02*
X63694Y33350D01*
X63573Y33517D02*
X99585Y33517D01*
X99585Y33820D02*
X63353Y33820D01*
X63098Y34124D02*
X99585Y34124D01*
X99585Y34427D02*
X62681Y34427D01*
X62450Y34595D02*
X62450Y34595D01*
X62033Y34730D02*
X99585Y34730D01*
X99585Y36247D02*
X95344Y36247D01*
X95488Y36550D02*
X99585Y36550D01*
X99585Y36853D02*
X95595Y36853D01*
X95595Y37157D02*
X99585Y37157D01*
X99585Y37460D02*
X95565Y37460D01*
X95439Y37763D02*
X99585Y37763D01*
X99585Y38066D02*
X95227Y38066D01*
X94861Y38370D02*
X99585Y38370D01*
X90960Y32910D02*
X88764Y32910D01*
X79786Y38066D02*
X76266Y38066D01*
X74648Y38066D02*
X71226Y38066D01*
X71364Y36247D02*
X74530Y36247D01*
X74833Y35943D02*
X71061Y35943D01*
X71197Y41099D02*
X74657Y41099D01*
X76217Y41099D02*
X79834Y41099D01*
X80960Y41099D02*
X87454Y41099D01*
X87151Y41403D02*
X81263Y41403D01*
X81515Y41706D02*
X86899Y41706D01*
X86899Y42009D02*
X81515Y42009D01*
X81515Y42313D02*
X86899Y42313D01*
X86935Y42616D02*
X81479Y42616D01*
X81176Y42919D02*
X87238Y42919D01*
X87542Y43223D02*
X80872Y43223D01*
X79922Y43223D02*
X76090Y43223D01*
X76393Y42919D02*
X79618Y42919D01*
X74784Y43223D02*
X70990Y43223D01*
X71293Y42919D02*
X74481Y42919D01*
X74884Y45952D02*
X70930Y45952D01*
X71233Y46255D02*
X74581Y46255D01*
X74557Y48075D02*
X71137Y48075D01*
X88716Y46255D02*
X90969Y46255D01*
X99585Y53231D02*
X44657Y53231D01*
X44657Y53535D02*
X99585Y53535D01*
X99585Y53838D02*
X44657Y53838D01*
X44657Y54141D02*
X99585Y54141D01*
X99585Y54445D02*
X44657Y54445D01*
X44657Y54748D02*
X99585Y54748D01*
X99585Y55051D02*
X44657Y55051D01*
X44657Y55354D02*
X99585Y55354D01*
X99585Y55658D02*
X44657Y55658D01*
X44657Y55961D02*
X99585Y55961D01*
X99585Y56264D02*
X44657Y56264D01*
X44657Y56568D02*
X99585Y56568D01*
X99585Y56871D02*
X44657Y56871D01*
X44657Y57174D02*
X99585Y57174D01*
X99585Y57478D02*
X44657Y57478D01*
X44657Y57781D02*
X99585Y57781D01*
X99585Y58084D02*
X44657Y58084D01*
X44657Y58387D02*
X99585Y58387D01*
X99585Y58691D02*
X44657Y58691D01*
X44657Y58994D02*
X99585Y58994D01*
X99585Y59297D02*
X44657Y59297D01*
X44657Y59601D02*
X99585Y59601D01*
X99585Y59904D02*
X44657Y59904D01*
X44657Y60207D02*
X99585Y60207D01*
X99585Y60511D02*
X44657Y60511D01*
X44657Y60814D02*
X99585Y60814D01*
X99585Y61117D02*
X44657Y61117D01*
X43657Y61420D02*
X22806Y61420D01*
X23554Y61724D02*
X43423Y61724D01*
X42898Y62027D02*
X24079Y62027D01*
X24468Y62330D02*
X42436Y62330D01*
X42133Y62634D02*
X24771Y62634D01*
X25074Y62937D02*
X41830Y62937D01*
X41582Y63240D02*
X25280Y63240D01*
X25455Y63544D02*
X41407Y63544D01*
X41232Y63847D02*
X25630Y63847D01*
X25780Y64150D02*
X41056Y64150D01*
X40969Y64453D02*
X25861Y64453D01*
X25943Y64757D02*
X40888Y64757D01*
X40807Y65060D02*
X26024Y65060D01*
X26075Y65363D02*
X40729Y65363D01*
X40729Y65667D02*
X26075Y65667D01*
X26075Y65970D02*
X40729Y65970D01*
X40729Y66273D02*
X26075Y66273D01*
X26048Y66577D02*
X40729Y66577D01*
X40810Y66880D02*
X25967Y66880D01*
X25885Y67183D02*
X40892Y67183D01*
X40973Y67487D02*
X25804Y67487D01*
X25682Y67790D02*
X41064Y67790D01*
X41239Y68093D02*
X25507Y68093D01*
X25332Y68396D02*
X41415Y68396D01*
X41590Y68700D02*
X25157Y68700D01*
X24861Y69003D02*
X41843Y69003D01*
X48911Y69003D02*
X96360Y69003D01*
X96034Y68700D02*
X49164Y68700D01*
X49339Y68396D02*
X95757Y68396D01*
X95582Y68093D02*
X49515Y68093D01*
X49690Y67790D02*
X95418Y67790D01*
X95336Y67487D02*
X49781Y67487D01*
X49862Y67183D02*
X95255Y67183D01*
X95239Y66880D02*
X49944Y66880D01*
X50025Y66577D02*
X95239Y66577D01*
X95271Y66273D02*
X50025Y66273D01*
X50025Y65970D02*
X95352Y65970D01*
X95440Y65667D02*
X50025Y65667D01*
X50025Y65363D02*
X95615Y65363D01*
X95790Y65060D02*
X49947Y65060D01*
X49866Y64757D02*
X96092Y64757D01*
X96460Y64453D02*
X49785Y64453D01*
X49698Y64150D02*
X97040Y64150D01*
X98974Y64150D02*
X99585Y64150D01*
X99585Y63847D02*
X49522Y63847D01*
X49347Y63544D02*
X99585Y63544D01*
X99585Y63240D02*
X49172Y63240D01*
X48924Y62937D02*
X99585Y62937D01*
X99585Y62634D02*
X48621Y62634D01*
X48318Y62330D02*
X99585Y62330D01*
X99585Y62027D02*
X47856Y62027D01*
X47331Y61724D02*
X99585Y61724D01*
X99585Y61420D02*
X46383Y61420D01*
X47017Y33214D02*
X61393Y33214D01*
X61696Y33115D02*
X61696Y33115D01*
X61978Y32910D02*
X47017Y32910D01*
X47017Y32607D02*
X62207Y32607D01*
X62310Y32304D02*
X47017Y32304D01*
X46853Y32000D02*
X62344Y32000D01*
X56948Y23508D02*
X44657Y23508D01*
X44657Y23205D02*
X57251Y23205D01*
X43657Y27148D02*
X21876Y27148D01*
X22002Y27451D02*
X43657Y27451D01*
X43657Y27754D02*
X22045Y27754D01*
X22021Y28057D02*
X43657Y28057D01*
X43657Y28361D02*
X21895Y28361D01*
X21621Y28664D02*
X43657Y28664D01*
X28357Y28247D02*
X28355Y28206D01*
X28350Y28165D01*
X28341Y28125D01*
X28329Y28086D01*
X28313Y28048D01*
X28294Y28012D01*
X28272Y27977D01*
X28247Y27945D01*
X28219Y27915D01*
X28189Y27887D01*
X28157Y27862D01*
X28122Y27840D01*
X28086Y27821D01*
X28048Y27805D01*
X28009Y27793D01*
X27969Y27784D01*
X27928Y27779D01*
X27887Y27777D01*
X99554Y64453D02*
X99585Y64453D01*
D18*
X46057Y32857D03*
X45057Y34157D03*
X45557Y30257D03*
D19*
X70377Y42057D02*
X75397Y42057D01*
X75407Y42058D01*
X75417Y42062D01*
X75425Y42069D01*
X75432Y42077D01*
X75436Y42087D01*
X75437Y42097D01*
X80377Y42097D01*
X80385Y42099D01*
X80391Y42103D01*
X80395Y42109D01*
X80397Y42117D01*
X80397Y37097D02*
X75457Y37097D01*
X75456Y37092D01*
X75452Y37088D01*
X75447Y37087D01*
X70427Y37087D01*
X70477Y31937D02*
X75377Y31937D01*
X75393Y31939D01*
X75408Y31943D01*
X75421Y31950D01*
X75434Y31960D01*
X75444Y31973D01*
X75451Y31986D01*
X75455Y32001D01*
X75457Y32017D01*
X75459Y32030D01*
X75463Y32043D01*
X75470Y32054D01*
X75480Y32064D01*
X75491Y32071D01*
X75504Y32075D01*
X75517Y32077D01*
X80397Y32077D01*
X88017Y32077D02*
X93149Y32077D01*
X93153Y32076D01*
X93156Y32073D01*
X93157Y32069D01*
X93156Y37097D02*
X88017Y37097D01*
X93156Y37097D02*
X93157Y37097D01*
X93157Y37098D01*
X93157Y37098D01*
X93157Y42076D02*
X93156Y42087D01*
X93152Y42097D01*
X93145Y42105D01*
X93137Y42112D01*
X93127Y42116D01*
X93116Y42117D01*
X88017Y42117D01*
X88017Y47137D02*
X93125Y47137D01*
X93125Y47138D02*
X93135Y47136D01*
X93144Y47132D01*
X93151Y47125D01*
X93155Y47116D01*
X93157Y47106D01*
X80397Y47137D02*
X75477Y47137D01*
X75467Y47138D01*
X75457Y47142D01*
X75449Y47149D01*
X75442Y47157D01*
X75438Y47167D01*
X75437Y47177D01*
X70377Y47177D01*
X70364Y47175D01*
X70351Y47171D01*
X70340Y47164D01*
X70330Y47154D01*
X70323Y47143D01*
X70319Y47130D01*
X70317Y47117D01*
X70517Y25397D02*
X75397Y25397D01*
X75405Y25395D01*
X75411Y25391D01*
X75415Y25385D01*
X75417Y25377D01*
X80377Y25377D01*
X80357Y20297D02*
X75417Y20297D01*
X75415Y20289D01*
X75411Y20283D01*
X75405Y20279D01*
X75397Y20277D01*
X70577Y20277D01*
X70617Y15357D02*
X75457Y15357D01*
X75465Y15359D01*
X75471Y15363D01*
X75475Y15369D01*
X75477Y15377D01*
X80457Y15377D01*
X80462Y15376D01*
X80466Y15372D01*
X80467Y15367D01*
X80417Y10237D02*
X75537Y10237D01*
X75524Y10239D01*
X75511Y10243D01*
X75500Y10250D01*
X75490Y10260D01*
X75483Y10271D01*
X75479Y10284D01*
X75477Y10297D01*
X70777Y10297D01*
X70768Y10298D01*
X70759Y10303D01*
X70753Y10309D01*
X70748Y10318D01*
X70747Y10327D01*
X88037Y10237D02*
X93155Y10237D01*
X93156Y10237D01*
X93157Y10238D01*
X93157Y10239D01*
X93157Y15268D02*
X93155Y15285D01*
X93151Y15302D01*
X93144Y15318D01*
X93134Y15332D01*
X93122Y15344D01*
X93108Y15354D01*
X93092Y15361D01*
X93075Y15365D01*
X93058Y15367D01*
X88087Y15367D01*
X88017Y20337D02*
X93066Y20337D01*
X93084Y20335D01*
X93101Y20330D01*
X93117Y20322D01*
X93130Y20310D01*
X93142Y20297D01*
X93150Y20281D01*
X93155Y20264D01*
X93157Y20246D01*
X93157Y25276D02*
X93155Y25292D01*
X93151Y25307D01*
X93143Y25322D01*
X93133Y25334D01*
X93121Y25344D01*
X93106Y25352D01*
X93091Y25356D01*
X93075Y25358D01*
X93075Y25357D02*
X88017Y25357D01*
D20*
X20247Y12557D03*
D21*
X43657Y27157D02*
X43657Y30657D01*
X44657Y30657D01*
X44657Y27157D01*
X43657Y27157D01*
X43657Y27222D02*
X44657Y27222D01*
X44657Y27475D02*
X43657Y27475D01*
X43657Y27727D02*
X44657Y27727D01*
X44657Y27980D02*
X43657Y27980D01*
X43657Y28232D02*
X44657Y28232D01*
X44657Y28485D02*
X43657Y28485D01*
X43657Y28737D02*
X44657Y28737D01*
X44657Y28990D02*
X43657Y28990D01*
X43657Y29242D02*
X44657Y29242D01*
X44657Y29495D02*
X43657Y29495D01*
X43657Y29747D02*
X44657Y29747D01*
X44657Y30000D02*
X43657Y30000D01*
X43657Y30252D02*
X44657Y30252D01*
X44657Y30505D02*
X43657Y30505D01*
X46057Y32857D02*
X46057Y33457D01*
X46059Y33493D01*
X46064Y33529D01*
X46073Y33565D01*
X46085Y33599D01*
X46101Y33632D01*
X46120Y33663D01*
X46141Y33692D01*
X46166Y33719D01*
X46193Y33744D01*
X46222Y33765D01*
X46253Y33784D01*
X46286Y33800D01*
X46320Y33812D01*
X46356Y33821D01*
X46392Y33826D01*
X46428Y33828D01*
X46428Y33829D02*
X61157Y33829D01*
X61157Y34286D02*
X45186Y34286D01*
X45166Y34284D01*
X45146Y34280D01*
X45127Y34272D01*
X45110Y34261D01*
X45095Y34248D01*
X45082Y34233D01*
X45071Y34216D01*
X45063Y34197D01*
X45059Y34177D01*
X45057Y34157D01*
X61157Y33828D02*
X61239Y33826D01*
X61320Y33820D01*
X61402Y33811D01*
X61482Y33798D01*
X61562Y33781D01*
X61642Y33760D01*
X61720Y33736D01*
X61797Y33708D01*
X61872Y33677D01*
X61946Y33642D01*
X62019Y33604D01*
X62089Y33563D01*
X62158Y33518D01*
X62224Y33470D01*
X62288Y33419D01*
X62350Y33366D01*
X62409Y33309D01*
X62466Y33250D01*
X62519Y33188D01*
X62570Y33124D01*
X62618Y33058D01*
X62663Y32989D01*
X62704Y32919D01*
X62742Y32846D01*
X62777Y32772D01*
X62808Y32697D01*
X62836Y32620D01*
X62860Y32542D01*
X62881Y32462D01*
X62898Y32382D01*
X62911Y32302D01*
X62920Y32220D01*
X62926Y32139D01*
X62928Y32057D01*
X62928Y24157D01*
X63386Y24157D02*
X63386Y32057D01*
X63384Y32149D01*
X63378Y32241D01*
X63369Y32333D01*
X63356Y32424D01*
X63339Y32514D01*
X63318Y32604D01*
X63293Y32693D01*
X63265Y32781D01*
X63234Y32867D01*
X63198Y32952D01*
X63160Y33036D01*
X63117Y33118D01*
X63072Y33198D01*
X63023Y33276D01*
X62971Y33352D01*
X62916Y33426D01*
X62858Y33498D01*
X62797Y33567D01*
X62733Y33633D01*
X62667Y33697D01*
X62598Y33758D01*
X62526Y33816D01*
X62452Y33871D01*
X62376Y33923D01*
X62298Y33972D01*
X62218Y34017D01*
X62136Y34060D01*
X62052Y34098D01*
X61967Y34134D01*
X61881Y34165D01*
X61793Y34193D01*
X61704Y34218D01*
X61614Y34239D01*
X61524Y34256D01*
X61433Y34269D01*
X61341Y34278D01*
X61249Y34284D01*
X61157Y34286D01*
X70517Y25397D02*
X70517Y23746D01*
X70515Y23692D01*
X70509Y23638D01*
X70500Y23584D01*
X70486Y23532D01*
X70469Y23480D01*
X70448Y23430D01*
X70424Y23382D01*
X70396Y23335D01*
X70365Y23291D01*
X70331Y23248D01*
X70294Y23209D01*
X70255Y23172D01*
X70212Y23138D01*
X70168Y23107D01*
X70121Y23079D01*
X70073Y23055D01*
X70023Y23034D01*
X69971Y23017D01*
X69919Y23003D01*
X69865Y22994D01*
X69811Y22988D01*
X69757Y22986D01*
X64557Y22986D01*
X64557Y22529D02*
X69757Y22529D01*
X69813Y22527D01*
X69869Y22521D01*
X69924Y22512D01*
X69978Y22499D01*
X70032Y22482D01*
X70084Y22461D01*
X70134Y22437D01*
X70183Y22410D01*
X70230Y22379D01*
X70274Y22345D01*
X70317Y22308D01*
X70356Y22269D01*
X70393Y22226D01*
X70427Y22182D01*
X70458Y22135D01*
X70485Y22086D01*
X70509Y22036D01*
X70530Y21984D01*
X70547Y21930D01*
X70560Y21876D01*
X70569Y21821D01*
X70575Y21765D01*
X70577Y21709D01*
X70577Y20277D01*
X64557Y22528D02*
X64477Y22530D01*
X64397Y22536D01*
X64318Y22546D01*
X64239Y22559D01*
X64161Y22577D01*
X64084Y22598D01*
X64008Y22623D01*
X63934Y22652D01*
X63861Y22684D01*
X63789Y22720D01*
X63720Y22760D01*
X63652Y22803D01*
X63587Y22849D01*
X63524Y22898D01*
X63463Y22950D01*
X63405Y23005D01*
X63350Y23063D01*
X63298Y23124D01*
X63249Y23187D01*
X63203Y23252D01*
X63160Y23320D01*
X63120Y23389D01*
X63084Y23461D01*
X63052Y23534D01*
X63023Y23608D01*
X62998Y23684D01*
X62977Y23761D01*
X62959Y23839D01*
X62946Y23918D01*
X62936Y23997D01*
X62930Y24077D01*
X62928Y24157D01*
X63386Y24157D02*
X63388Y24091D01*
X63393Y24026D01*
X63403Y23961D01*
X63415Y23896D01*
X63432Y23833D01*
X63452Y23770D01*
X63475Y23709D01*
X63502Y23649D01*
X63532Y23591D01*
X63565Y23534D01*
X63602Y23479D01*
X63641Y23427D01*
X63684Y23377D01*
X63729Y23329D01*
X63777Y23284D01*
X63827Y23241D01*
X63879Y23202D01*
X63934Y23165D01*
X63991Y23132D01*
X64049Y23102D01*
X64109Y23075D01*
X64170Y23052D01*
X64233Y23032D01*
X64296Y23015D01*
X64361Y23003D01*
X64426Y22993D01*
X64491Y22988D01*
X64557Y22986D01*
X80377Y25377D02*
X80379Y25369D01*
X80383Y25363D01*
X80389Y25359D01*
X80397Y25357D01*
X80397Y20337D02*
X80396Y20327D01*
X80392Y20317D01*
X80385Y20309D01*
X80377Y20302D01*
X80367Y20298D01*
X80357Y20297D01*
M02*
