G75*
%MOMM*%
%OFA0B0*%
%FSLAX33Y33*%
%IPPOS*%
%LPD*%
%AMOC8*
5,1,8,0,0,1.08239X$1,22.5*
%
%ADD10OC8,1.676*%
%ADD11C,1.524*%
D10*
X02559Y18487D03*
X05559Y18487D03*
X08059Y18487D03*
X10559Y18487D03*
X10559Y21789D03*
X08059Y21789D03*
X05559Y21789D03*
X05559Y24329D03*
X08059Y24329D03*
X10559Y24329D03*
X10559Y27631D03*
X08059Y27631D03*
X05559Y27631D03*
X02559Y27631D03*
X02559Y24329D03*
X02559Y21789D03*
X15059Y21789D03*
X15059Y24329D03*
X18059Y24329D03*
X20559Y24329D03*
X23059Y24329D03*
X23059Y21789D03*
X20559Y21789D03*
X18059Y21789D03*
X18059Y18487D03*
X20559Y18487D03*
X23059Y18487D03*
X27559Y18487D03*
X30559Y18487D03*
X33059Y18487D03*
X35559Y18487D03*
X35559Y21789D03*
X33059Y21789D03*
X30559Y21789D03*
X30559Y24329D03*
X33059Y24329D03*
X35559Y24329D03*
X35559Y27631D03*
X33059Y27631D03*
X30559Y27631D03*
X27559Y27631D03*
X27559Y24329D03*
X27559Y21789D03*
X23059Y27631D03*
X20559Y27631D03*
X18059Y27631D03*
X15059Y27631D03*
X15059Y18487D03*
X40059Y18487D03*
X43059Y18487D03*
X45559Y18487D03*
X48059Y18487D03*
X48059Y21789D03*
X45559Y21789D03*
X43059Y21789D03*
X43059Y24329D03*
X45559Y24329D03*
X48059Y24329D03*
X48059Y27631D03*
X45559Y27631D03*
X43059Y27631D03*
X40059Y27631D03*
X40059Y24329D03*
X40059Y21789D03*
X52559Y21789D03*
X52559Y24329D03*
X55559Y24329D03*
X58059Y24329D03*
X60559Y24329D03*
X60559Y21789D03*
X58059Y21789D03*
X55559Y21789D03*
X55559Y18487D03*
X58059Y18487D03*
X60559Y18487D03*
X65059Y18487D03*
X68059Y18487D03*
X70559Y18487D03*
X73059Y18487D03*
X73059Y21789D03*
X70559Y21789D03*
X68059Y21789D03*
X68059Y24329D03*
X70559Y24329D03*
X73059Y24329D03*
X73059Y27631D03*
X70559Y27631D03*
X68059Y27631D03*
X65059Y27631D03*
X65059Y24329D03*
X65059Y21789D03*
X60559Y27631D03*
X58059Y27631D03*
X55559Y27631D03*
X52559Y27631D03*
X52559Y18487D03*
X77559Y18487D03*
X80559Y18487D03*
X83059Y18487D03*
X85559Y18487D03*
X85559Y21789D03*
X83059Y21789D03*
X80559Y21789D03*
X80559Y24329D03*
X83059Y24329D03*
X85559Y24329D03*
X85559Y27631D03*
X83059Y27631D03*
X80559Y27631D03*
X77559Y27631D03*
X77559Y24329D03*
X77559Y21789D03*
X90059Y21789D03*
X90059Y24329D03*
X93059Y24329D03*
X95559Y24329D03*
X98059Y24329D03*
X98059Y21789D03*
X95559Y21789D03*
X93059Y21789D03*
X93059Y18487D03*
X95559Y18487D03*
X98059Y18487D03*
X90059Y18487D03*
X90059Y27631D03*
X93059Y27631D03*
X95559Y27631D03*
X98059Y27631D03*
X98059Y67987D03*
X95559Y67987D03*
X93059Y67987D03*
X90059Y67987D03*
X90059Y71289D03*
X90059Y73829D03*
X93059Y73829D03*
X95559Y73829D03*
X98059Y73829D03*
X98059Y71289D03*
X95559Y71289D03*
X93059Y71289D03*
X93059Y77131D03*
X95559Y77131D03*
X98059Y77131D03*
X90059Y77131D03*
X85559Y77131D03*
X83059Y77131D03*
X80559Y77131D03*
X77559Y77131D03*
X77559Y73829D03*
X77559Y71289D03*
X80559Y71289D03*
X80559Y73829D03*
X83059Y73829D03*
X85559Y73829D03*
X85559Y71289D03*
X83059Y71289D03*
X83059Y67987D03*
X85559Y67987D03*
X80559Y67987D03*
X77559Y67987D03*
X73059Y67987D03*
X70559Y67987D03*
X68059Y67987D03*
X65059Y67987D03*
X65059Y71289D03*
X65059Y73829D03*
X68059Y73829D03*
X70559Y73829D03*
X70559Y71289D03*
X68059Y71289D03*
X73059Y71289D03*
X73059Y73829D03*
X73059Y77131D03*
X70559Y77131D03*
X68059Y77131D03*
X65059Y77131D03*
X60559Y77131D03*
X58059Y77131D03*
X55559Y77131D03*
X52559Y77131D03*
X52559Y73829D03*
X52559Y71289D03*
X55559Y71289D03*
X55559Y73829D03*
X58059Y73829D03*
X60559Y73829D03*
X60559Y71289D03*
X58059Y71289D03*
X58059Y67987D03*
X60559Y67987D03*
X55559Y67987D03*
X52559Y67987D03*
X48059Y67987D03*
X45559Y67987D03*
X43059Y67987D03*
X40059Y67987D03*
X40059Y71289D03*
X40059Y73829D03*
X43059Y73829D03*
X43059Y71289D03*
X45559Y71289D03*
X48059Y71289D03*
X48059Y73829D03*
X45559Y73829D03*
X45559Y77131D03*
X48059Y77131D03*
X43059Y77131D03*
X40059Y77131D03*
X35559Y77131D03*
X33059Y77131D03*
X30559Y77131D03*
X27559Y77131D03*
X27559Y73829D03*
X27559Y71289D03*
X30559Y71289D03*
X33059Y71289D03*
X33059Y73829D03*
X30559Y73829D03*
X35559Y73829D03*
X35559Y71289D03*
X35559Y67987D03*
X33059Y67987D03*
X30559Y67987D03*
X27559Y67987D03*
X23059Y67987D03*
X20559Y67987D03*
X18059Y67987D03*
X15059Y67987D03*
X15059Y71289D03*
X15059Y73829D03*
X18059Y73829D03*
X18059Y71289D03*
X20559Y71289D03*
X23059Y71289D03*
X23059Y73829D03*
X20559Y73829D03*
X20559Y77131D03*
X23059Y77131D03*
X18059Y77131D03*
X15059Y77131D03*
X10559Y77131D03*
X08059Y77131D03*
X05559Y77131D03*
X02559Y77131D03*
X02559Y73829D03*
X02559Y71289D03*
X05559Y71289D03*
X08059Y71289D03*
X08059Y73829D03*
X05559Y73829D03*
X10559Y73829D03*
X10559Y71289D03*
X10559Y67987D03*
X08059Y67987D03*
X05559Y67987D03*
X02559Y67987D03*
D11*
X02749Y08821D02*
X02749Y07297D01*
X05289Y07297D02*
X05289Y08821D01*
X07829Y08821D02*
X07829Y07297D01*
X10369Y07297D02*
X10369Y08821D01*
X10369Y12297D02*
X10369Y13821D01*
X07829Y13821D02*
X07829Y12297D01*
X05289Y12297D02*
X05289Y13821D01*
X02749Y13821D02*
X02749Y12297D01*
X15249Y12297D02*
X15249Y13821D01*
X17789Y13821D02*
X17789Y12297D01*
X20329Y12297D02*
X20329Y13821D01*
X22869Y13821D02*
X22869Y12297D01*
X22869Y08821D02*
X22869Y07297D01*
X20329Y07297D02*
X20329Y08821D01*
X17789Y08821D02*
X17789Y07297D01*
X15249Y07297D02*
X15249Y08821D01*
X27749Y08821D02*
X27749Y07297D01*
X30289Y07297D02*
X30289Y08821D01*
X32829Y08821D02*
X32829Y07297D01*
X35369Y07297D02*
X35369Y08821D01*
X35369Y12297D02*
X35369Y13821D01*
X32829Y13821D02*
X32829Y12297D01*
X30289Y12297D02*
X30289Y13821D01*
X27749Y13821D02*
X27749Y12297D01*
X40249Y12297D02*
X40249Y13821D01*
X42789Y13821D02*
X42789Y12297D01*
X45329Y12297D02*
X45329Y13821D01*
X47869Y13821D02*
X47869Y12297D01*
X47869Y08821D02*
X47869Y07297D01*
X45329Y07297D02*
X45329Y08821D01*
X42789Y08821D02*
X42789Y07297D01*
X40249Y07297D02*
X40249Y08821D01*
X52749Y08821D02*
X52749Y07297D01*
X55289Y07297D02*
X55289Y08821D01*
X57829Y08821D02*
X57829Y07297D01*
X60369Y07297D02*
X60369Y08821D01*
X60369Y12297D02*
X60369Y13821D01*
X57829Y13821D02*
X57829Y12297D01*
X55289Y12297D02*
X55289Y13821D01*
X52749Y13821D02*
X52749Y12297D01*
X65249Y12297D02*
X65249Y13821D01*
X67789Y13821D02*
X67789Y12297D01*
X70329Y12297D02*
X70329Y13821D01*
X72869Y13821D02*
X72869Y12297D01*
X72869Y08821D02*
X72869Y07297D01*
X70329Y07297D02*
X70329Y08821D01*
X67789Y08821D02*
X67789Y07297D01*
X65249Y07297D02*
X65249Y08821D01*
X77749Y08821D02*
X77749Y07297D01*
X80289Y07297D02*
X80289Y08821D01*
X82829Y08821D02*
X82829Y07297D01*
X85369Y07297D02*
X85369Y08821D01*
X85369Y12297D02*
X85369Y13821D01*
X82829Y13821D02*
X82829Y12297D01*
X80289Y12297D02*
X80289Y13821D01*
X77749Y13821D02*
X77749Y12297D01*
X90249Y12297D02*
X90249Y13821D01*
X92789Y13821D02*
X92789Y12297D01*
X95329Y12297D02*
X95329Y13821D01*
X97869Y13821D02*
X97869Y12297D01*
X97869Y08821D02*
X97869Y07297D01*
X95329Y07297D02*
X95329Y08821D01*
X92789Y08821D02*
X92789Y07297D01*
X90249Y07297D02*
X90249Y08821D01*
X90199Y31187D02*
X90199Y32711D01*
X92739Y32711D02*
X92739Y31187D01*
X95279Y31187D02*
X95279Y32711D01*
X97819Y32711D02*
X97819Y31187D01*
X97869Y36297D02*
X97869Y37821D01*
X95329Y37821D02*
X95329Y36297D01*
X92789Y36297D02*
X92789Y37821D01*
X90249Y37821D02*
X90249Y36297D01*
X85369Y36297D02*
X85369Y37821D01*
X82829Y37821D02*
X82829Y36297D01*
X80289Y36297D02*
X80289Y37821D01*
X77749Y37821D02*
X77749Y36297D01*
X77699Y32711D02*
X77699Y31187D01*
X80239Y31187D02*
X80239Y32711D01*
X82779Y32711D02*
X82779Y31187D01*
X85319Y31187D02*
X85319Y32711D01*
X85369Y41297D02*
X85369Y42821D01*
X82829Y42821D02*
X82829Y41297D01*
X80289Y41297D02*
X80289Y42821D01*
X77749Y42821D02*
X77749Y41297D01*
X72869Y41297D02*
X72869Y42821D01*
X70329Y42821D02*
X70329Y41297D01*
X67789Y41297D02*
X67789Y42821D01*
X65249Y42821D02*
X65249Y41297D01*
X65249Y37821D02*
X65249Y36297D01*
X67789Y36297D02*
X67789Y37821D01*
X70329Y37821D02*
X70329Y36297D01*
X72869Y36297D02*
X72869Y37821D01*
X72819Y32711D02*
X72819Y31187D01*
X70279Y31187D02*
X70279Y32711D01*
X67739Y32711D02*
X67739Y31187D01*
X65199Y31187D02*
X65199Y32711D01*
X60319Y32711D02*
X60319Y31187D01*
X57779Y31187D02*
X57779Y32711D01*
X55239Y32711D02*
X55239Y31187D01*
X52699Y31187D02*
X52699Y32711D01*
X52749Y36297D02*
X52749Y37821D01*
X55289Y37821D02*
X55289Y36297D01*
X57829Y36297D02*
X57829Y37821D01*
X60369Y37821D02*
X60369Y36297D01*
X60369Y41297D02*
X60369Y42821D01*
X57829Y42821D02*
X57829Y41297D01*
X55289Y41297D02*
X55289Y42821D01*
X52749Y42821D02*
X52749Y41297D01*
X47869Y41297D02*
X47869Y42821D01*
X45329Y42821D02*
X45329Y41297D01*
X42789Y41297D02*
X42789Y42821D01*
X40249Y42821D02*
X40249Y41297D01*
X40249Y37821D02*
X40249Y36297D01*
X42789Y36297D02*
X42789Y37821D01*
X45329Y37821D02*
X45329Y36297D01*
X47869Y36297D02*
X47869Y37821D01*
X47819Y32711D02*
X47819Y31187D01*
X45279Y31187D02*
X45279Y32711D01*
X42739Y32711D02*
X42739Y31187D01*
X40199Y31187D02*
X40199Y32711D01*
X35319Y32711D02*
X35319Y31187D01*
X32779Y31187D02*
X32779Y32711D01*
X30239Y32711D02*
X30239Y31187D01*
X27699Y31187D02*
X27699Y32711D01*
X27749Y36297D02*
X27749Y37821D01*
X30289Y37821D02*
X30289Y36297D01*
X32829Y36297D02*
X32829Y37821D01*
X35369Y37821D02*
X35369Y36297D01*
X35369Y41297D02*
X35369Y42821D01*
X32829Y42821D02*
X32829Y41297D01*
X30289Y41297D02*
X30289Y42821D01*
X27749Y42821D02*
X27749Y41297D01*
X22869Y41297D02*
X22869Y42821D01*
X20329Y42821D02*
X20329Y41297D01*
X17789Y41297D02*
X17789Y42821D01*
X15249Y42821D02*
X15249Y41297D01*
X15249Y37821D02*
X15249Y36297D01*
X17789Y36297D02*
X17789Y37821D01*
X20329Y37821D02*
X20329Y36297D01*
X22869Y36297D02*
X22869Y37821D01*
X22819Y32711D02*
X22819Y31187D01*
X20279Y31187D02*
X20279Y32711D01*
X17739Y32711D02*
X17739Y31187D01*
X15199Y31187D02*
X15199Y32711D01*
X10319Y32711D02*
X10319Y31187D01*
X07779Y31187D02*
X07779Y32711D01*
X05239Y32711D02*
X05239Y31187D01*
X02699Y31187D02*
X02699Y32711D01*
X02749Y36297D02*
X02749Y37821D01*
X05289Y37821D02*
X05289Y36297D01*
X07829Y36297D02*
X07829Y37821D01*
X10369Y37821D02*
X10369Y36297D01*
X10369Y41297D02*
X10369Y42821D01*
X07829Y42821D02*
X07829Y41297D01*
X05289Y41297D02*
X05289Y42821D01*
X02749Y42821D02*
X02749Y41297D01*
X02749Y46297D02*
X02749Y47821D01*
X05289Y47821D02*
X05289Y46297D01*
X07829Y46297D02*
X07829Y47821D01*
X10369Y47821D02*
X10369Y46297D01*
X15249Y46297D02*
X15249Y47821D01*
X17789Y47821D02*
X17789Y46297D01*
X20329Y46297D02*
X20329Y47821D01*
X22869Y47821D02*
X22869Y46297D01*
X27749Y46297D02*
X27749Y47821D01*
X30289Y47821D02*
X30289Y46297D01*
X32829Y46297D02*
X32829Y47821D01*
X35369Y47821D02*
X35369Y46297D01*
X40249Y46297D02*
X40249Y47821D01*
X42789Y47821D02*
X42789Y46297D01*
X45329Y46297D02*
X45329Y47821D01*
X47869Y47821D02*
X47869Y46297D01*
X52749Y46297D02*
X52749Y47821D01*
X55289Y47821D02*
X55289Y46297D01*
X57829Y46297D02*
X57829Y47821D01*
X60369Y47821D02*
X60369Y46297D01*
X65249Y46297D02*
X65249Y47821D01*
X67789Y47821D02*
X67789Y46297D01*
X70329Y46297D02*
X70329Y47821D01*
X72869Y47821D02*
X72869Y46297D01*
X77749Y46297D02*
X77749Y47821D01*
X80289Y47821D02*
X80289Y46297D01*
X82829Y46297D02*
X82829Y47821D01*
X85369Y47821D02*
X85369Y46297D01*
X90249Y46297D02*
X90249Y47821D01*
X92789Y47821D02*
X92789Y46297D01*
X95329Y46297D02*
X95329Y47821D01*
X97869Y47821D02*
X97869Y46297D01*
X97869Y42821D02*
X97869Y41297D01*
X95329Y41297D02*
X95329Y42821D01*
X92789Y42821D02*
X92789Y41297D01*
X90249Y41297D02*
X90249Y42821D01*
X90249Y56797D02*
X90249Y58321D01*
X92789Y58321D02*
X92789Y56797D01*
X95329Y56797D02*
X95329Y58321D01*
X97869Y58321D02*
X97869Y56797D01*
X97869Y61797D02*
X97869Y63321D01*
X95329Y63321D02*
X95329Y61797D01*
X92789Y61797D02*
X92789Y63321D01*
X90249Y63321D02*
X90249Y61797D01*
X85369Y61797D02*
X85369Y63321D01*
X82829Y63321D02*
X82829Y61797D01*
X80289Y61797D02*
X80289Y63321D01*
X77749Y63321D02*
X77749Y61797D01*
X77749Y58321D02*
X77749Y56797D01*
X80289Y56797D02*
X80289Y58321D01*
X82829Y58321D02*
X82829Y56797D01*
X85369Y56797D02*
X85369Y58321D01*
X72869Y58321D02*
X72869Y56797D01*
X70329Y56797D02*
X70329Y58321D01*
X67789Y58321D02*
X67789Y56797D01*
X65249Y56797D02*
X65249Y58321D01*
X65249Y61797D02*
X65249Y63321D01*
X67789Y63321D02*
X67789Y61797D01*
X70329Y61797D02*
X70329Y63321D01*
X72869Y63321D02*
X72869Y61797D01*
X60369Y61797D02*
X60369Y63321D01*
X57829Y63321D02*
X57829Y61797D01*
X55289Y61797D02*
X55289Y63321D01*
X52749Y63321D02*
X52749Y61797D01*
X52749Y58321D02*
X52749Y56797D01*
X55289Y56797D02*
X55289Y58321D01*
X57829Y58321D02*
X57829Y56797D01*
X60369Y56797D02*
X60369Y58321D01*
X47869Y58321D02*
X47869Y56797D01*
X45329Y56797D02*
X45329Y58321D01*
X42789Y58321D02*
X42789Y56797D01*
X40249Y56797D02*
X40249Y58321D01*
X40249Y61797D02*
X40249Y63321D01*
X42789Y63321D02*
X42789Y61797D01*
X45329Y61797D02*
X45329Y63321D01*
X47869Y63321D02*
X47869Y61797D01*
X35369Y61797D02*
X35369Y63321D01*
X32829Y63321D02*
X32829Y61797D01*
X30289Y61797D02*
X30289Y63321D01*
X27749Y63321D02*
X27749Y61797D01*
X27749Y58321D02*
X27749Y56797D01*
X30289Y56797D02*
X30289Y58321D01*
X32829Y58321D02*
X32829Y56797D01*
X35369Y56797D02*
X35369Y58321D01*
X22869Y58321D02*
X22869Y56797D01*
X20329Y56797D02*
X20329Y58321D01*
X17789Y58321D02*
X17789Y56797D01*
X15249Y56797D02*
X15249Y58321D01*
X15249Y61797D02*
X15249Y63321D01*
X17789Y63321D02*
X17789Y61797D01*
X20329Y61797D02*
X20329Y63321D01*
X22869Y63321D02*
X22869Y61797D01*
X10369Y61797D02*
X10369Y63321D01*
X07829Y63321D02*
X07829Y61797D01*
X05289Y61797D02*
X05289Y63321D01*
X02749Y63321D02*
X02749Y61797D01*
X02749Y58321D02*
X02749Y56797D01*
X05289Y56797D02*
X05289Y58321D01*
X07829Y58321D02*
X07829Y56797D01*
X10369Y56797D02*
X10369Y58321D01*
X10319Y80687D02*
X10319Y82211D01*
X07779Y82211D02*
X07779Y80687D01*
X05239Y80687D02*
X05239Y82211D01*
X02699Y82211D02*
X02699Y80687D01*
X02749Y85797D02*
X02749Y87321D01*
X05289Y87321D02*
X05289Y85797D01*
X07829Y85797D02*
X07829Y87321D01*
X10369Y87321D02*
X10369Y85797D01*
X15249Y85797D02*
X15249Y87321D01*
X17789Y87321D02*
X17789Y85797D01*
X20329Y85797D02*
X20329Y87321D01*
X22869Y87321D02*
X22869Y85797D01*
X22819Y82211D02*
X22819Y80687D01*
X20279Y80687D02*
X20279Y82211D01*
X17739Y82211D02*
X17739Y80687D01*
X15199Y80687D02*
X15199Y82211D01*
X15249Y90797D02*
X15249Y92321D01*
X17789Y92321D02*
X17789Y90797D01*
X20329Y90797D02*
X20329Y92321D01*
X22869Y92321D02*
X22869Y90797D01*
X27749Y90797D02*
X27749Y92321D01*
X30289Y92321D02*
X30289Y90797D01*
X32829Y90797D02*
X32829Y92321D01*
X35369Y92321D02*
X35369Y90797D01*
X35369Y87321D02*
X35369Y85797D01*
X32829Y85797D02*
X32829Y87321D01*
X30289Y87321D02*
X30289Y85797D01*
X27749Y85797D02*
X27749Y87321D01*
X27699Y82211D02*
X27699Y80687D01*
X30239Y80687D02*
X30239Y82211D01*
X32779Y82211D02*
X32779Y80687D01*
X35319Y80687D02*
X35319Y82211D01*
X40199Y82211D02*
X40199Y80687D01*
X42739Y80687D02*
X42739Y82211D01*
X45279Y82211D02*
X45279Y80687D01*
X47819Y80687D02*
X47819Y82211D01*
X47869Y85797D02*
X47869Y87321D01*
X45329Y87321D02*
X45329Y85797D01*
X42789Y85797D02*
X42789Y87321D01*
X40249Y87321D02*
X40249Y85797D01*
X40249Y90797D02*
X40249Y92321D01*
X42789Y92321D02*
X42789Y90797D01*
X45329Y90797D02*
X45329Y92321D01*
X47869Y92321D02*
X47869Y90797D01*
X52749Y90797D02*
X52749Y92321D01*
X55289Y92321D02*
X55289Y90797D01*
X57829Y90797D02*
X57829Y92321D01*
X60369Y92321D02*
X60369Y90797D01*
X60369Y87321D02*
X60369Y85797D01*
X57829Y85797D02*
X57829Y87321D01*
X55289Y87321D02*
X55289Y85797D01*
X52749Y85797D02*
X52749Y87321D01*
X52699Y82211D02*
X52699Y80687D01*
X55239Y80687D02*
X55239Y82211D01*
X57779Y82211D02*
X57779Y80687D01*
X60319Y80687D02*
X60319Y82211D01*
X65199Y82211D02*
X65199Y80687D01*
X67739Y80687D02*
X67739Y82211D01*
X70279Y82211D02*
X70279Y80687D01*
X72819Y80687D02*
X72819Y82211D01*
X72869Y85797D02*
X72869Y87321D01*
X70329Y87321D02*
X70329Y85797D01*
X67789Y85797D02*
X67789Y87321D01*
X65249Y87321D02*
X65249Y85797D01*
X65249Y90797D02*
X65249Y92321D01*
X67789Y92321D02*
X67789Y90797D01*
X70329Y90797D02*
X70329Y92321D01*
X72869Y92321D02*
X72869Y90797D01*
X77749Y90797D02*
X77749Y92321D01*
X80289Y92321D02*
X80289Y90797D01*
X82829Y90797D02*
X82829Y92321D01*
X85369Y92321D02*
X85369Y90797D01*
X85369Y87321D02*
X85369Y85797D01*
X82829Y85797D02*
X82829Y87321D01*
X80289Y87321D02*
X80289Y85797D01*
X77749Y85797D02*
X77749Y87321D01*
X77699Y82211D02*
X77699Y80687D01*
X80239Y80687D02*
X80239Y82211D01*
X82779Y82211D02*
X82779Y80687D01*
X85319Y80687D02*
X85319Y82211D01*
X90199Y82211D02*
X90199Y80687D01*
X92739Y80687D02*
X92739Y82211D01*
X95279Y82211D02*
X95279Y80687D01*
X97819Y80687D02*
X97819Y82211D01*
X97869Y85797D02*
X97869Y87321D01*
X95329Y87321D02*
X95329Y85797D01*
X92789Y85797D02*
X92789Y87321D01*
X90249Y87321D02*
X90249Y85797D01*
X90249Y90797D02*
X90249Y92321D01*
X92789Y92321D02*
X92789Y90797D01*
X95329Y90797D02*
X95329Y92321D01*
X97869Y92321D02*
X97869Y90797D01*
X97869Y95797D02*
X97869Y97321D01*
X95329Y97321D02*
X95329Y95797D01*
X92789Y95797D02*
X92789Y97321D01*
X90249Y97321D02*
X90249Y95797D01*
X85369Y95797D02*
X85369Y97321D01*
X82829Y97321D02*
X82829Y95797D01*
X80289Y95797D02*
X80289Y97321D01*
X77749Y97321D02*
X77749Y95797D01*
X72869Y95797D02*
X72869Y97321D01*
X70329Y97321D02*
X70329Y95797D01*
X67789Y95797D02*
X67789Y97321D01*
X65249Y97321D02*
X65249Y95797D01*
X60369Y95797D02*
X60369Y97321D01*
X57829Y97321D02*
X57829Y95797D01*
X55289Y95797D02*
X55289Y97321D01*
X52749Y97321D02*
X52749Y95797D01*
X47869Y95797D02*
X47869Y97321D01*
X45329Y97321D02*
X45329Y95797D01*
X42789Y95797D02*
X42789Y97321D01*
X40249Y97321D02*
X40249Y95797D01*
X35369Y95797D02*
X35369Y97321D01*
X32829Y97321D02*
X32829Y95797D01*
X30289Y95797D02*
X30289Y97321D01*
X27749Y97321D02*
X27749Y95797D01*
X22869Y95797D02*
X22869Y97321D01*
X20329Y97321D02*
X20329Y95797D01*
X17789Y95797D02*
X17789Y97321D01*
X15249Y97321D02*
X15249Y95797D01*
X10369Y95797D02*
X10369Y97321D01*
X07829Y97321D02*
X07829Y95797D01*
X05289Y95797D02*
X05289Y97321D01*
X02749Y97321D02*
X02749Y95797D01*
X02749Y92321D02*
X02749Y90797D01*
X05289Y90797D02*
X05289Y92321D01*
X07829Y92321D02*
X07829Y90797D01*
X10369Y90797D02*
X10369Y92321D01*
M02*
